/* XPM */
static char * en2_xpm[] = {
"64 64 294 2",
"  	c None",
". 	c #B07D64",
"+ 	c #D7935F",
"@ 	c #A17666",
"# 	c #D39060",
"$ 	c #D9945F",
"% 	c #B37F64",
"& 	c #D9955F",
"* 	c #EBC155",
"= 	c #DEA25C",
"- 	c #E3AE5A",
"; 	c #F6DB4C",
"> 	c #E2AC5A",
", 	c #E7BA57",
"' 	c #DEA15C",
") 	c #D8935E",
"! 	c #E7B957",
"~ 	c #F7DC4C",
"{ 	c #79514B",
"] 	c #512D37",
"^ 	c #B97F53",
"/ 	c #F7DC50",
"( 	c #FEEB45",
"_ 	c #C28756",
": 	c #232130",
"< 	c #AF7363",
"[ 	c #AC5353",
"} 	c #4B2A36",
"| 	c #161C2E",
"1 	c #906246",
"2 	c #E1AE59",
"3 	c #FFF4B3",
"4 	c #F6DC57",
"5 	c #7C5740",
"6 	c #7C534C",
"7 	c #BE7264",
"8 	c #C17968",
"9 	c #91555B",
"0 	c #36263B",
"a 	c #604339",
"b 	c #CE8F5A",
"c 	c #FAE891",
"d 	c #FFFCEE",
"e 	c #DBB25A",
"f 	c #2F3532",
"g 	c #30713D",
"h 	c #17222F",
"i 	c #A36C5D",
"j 	c #B85E59",
"k 	c #AA6B65",
"l 	c #613953",
"m 	c #723840",
"n 	c #86424C",
"o 	c #39273D",
"p 	c #17242F",
"q 	c #182B2F",
"r 	c #212E30",
"s 	c #987151",
"t 	c #F1D483",
"u 	c #FFF3A6",
"v 	c #F4DF8F",
"w 	c #8A6544",
"x 	c #89C45B",
"y 	c #92D161",
"z 	c #57A84F",
"A 	c #635441",
"B 	c #AE5255",
"C 	c #934958",
"D 	c #A24C4F",
"E 	c #A75056",
"F 	c #764059",
"G 	c #57344F",
"H 	c #261F31",
"I 	c #225C38",
"J 	c #49AA4F",
"K 	c #6FA14E",
"L 	c #1D282F",
"M 	c #A8936E",
"N 	c #E7D49F",
"O 	c #EFE0AA",
"P 	c #AC976F",
"Q 	c #181E2E",
"R 	c #43613A",
"S 	c #7DC85C",
"T 	c #3D925D",
"U 	c #754E4E",
"V 	c #AF5255",
"W 	c #8C4759",
"X 	c #6E3E5A",
"Y 	c #763B45",
"Z 	c #97484B",
"` 	c #964A57",
" .	c #204835",
"..	c #877459",
"+.	c #E1CC99",
"@.	c #B19E78",
"#.	c #BCA980",
"$.	c #1F2B30",
"%.	c #74BD58",
"&.	c #3BA059",
"*.	c #456A63",
"=.	c #B35555",
"-.	c #B45455",
";.	c #B35455",
">.	c #A14E57",
",.	c #81445A",
"'.	c #6A3D5B",
").	c #693D5B",
"!.	c #412A41",
"~.	c #816F56",
"{.	c #71614E",
"].	c #806D55",
"^.	c #71624F",
"/.	c #282331",
"(.	c #654443",
"_.	c #529549",
":.	c #3D925F",
"<.	c #375955",
"[.	c #A24C4E",
"}.	c #9C4C58",
"|.	c #804359",
"1.	c #633A57",
"2.	c #492E46",
"3.	c #413242",
"4.	c #413542",
"5.	c #2A2A36",
"6.	c #40383F",
"7.	c #584A4C",
"8.	c #1C1F30",
"9.	c #79524B",
"0.	c #C07A68",
"a.	c #7B704F",
"b.	c #796B61",
"c.	c #82494B",
"d.	c #844355",
"e.	c #38273D",
"f.	c #273F42",
"g.	c #297C41",
"h.	c #35A84D",
"i.	c #37B050",
"j.	c #55B052",
"k.	c #407840",
"l.	c #594B4D",
"m.	c #937869",
"n.	c #272632",
"o.	c #7B534C",
"p.	c #C27B69",
"q.	c #C07666",
"r.	c #BD6C61",
"s.	c #B65655",
"t.	c #AB5052",
"u.	c #393E45",
"v.	c #2F504E",
"w.	c #407367",
"x.	c #38B052",
"y.	c #38B151",
"z.	c #5ABB55",
"A.	c #8CCF5F",
"B.	c #3E6B3C",
"C.	c #524649",
"D.	c #8B7265",
"E.	c #4E373B",
"F.	c #B36D60",
"G.	c #B85C58",
"H.	c #B65555",
"I.	c #98484B",
"J.	c #182231",
"K.	c #335854",
"L.	c #417168",
"M.	c #3B7F5E",
"N.	c #23603B",
"O.	c #182C30",
"P.	c #26713D",
"Q.	c #65BE57",
"R.	c #72AD52",
"S.	c #2F3336",
"T.	c #41393F",
"U.	c #1C1D30",
"V.	c #58334B",
"W.	c #834251",
"X.	c #A34E57",
"Y.	c #AA5156",
"Z.	c #864455",
"`.	c #2D2437",
" +	c #3A645E",
".+	c #3E6B63",
"++	c #3D6A63",
"@+	c #335754",
"#+	c #226139",
"$+	c #38A74D",
"%+	c #24693B",
"&+	c #7AB756",
"*+	c #73A550",
"=+	c #2C7E41",
"-+	c #2A8142",
";+	c #292030",
">+	c #A14C51",
",+	c #A14C4E",
"'+	c #B55555",
")+	c #AE5256",
"!+	c #703E56",
"~+	c #333741",
"{+	c #3D6A62",
"]+	c #417067",
"^+	c #2A4848",
"/+	c #1E4E35",
"(+	c #215C38",
"_+	c #183030",
":+	c #4CB553",
"<+	c #7EC95C",
"[+	c #3F773F",
"}+	c #17272F",
"|+	c #171C2E",
"1+	c #4E2A36",
"2+	c #75405A",
"3+	c #683C5A",
"4+	c #52354D",
"5+	c #436561",
"6+	c #485B5C",
"7+	c #50314A",
"8+	c #1A1D2F",
"9+	c #329D4A",
"0+	c #37AF50",
"a+	c #215E38",
"b+	c #171D2E",
"c+	c #2A2632",
"d+	c #713C40",
"e+	c #97474A",
"f+	c #8F454C",
"g+	c #603853",
"h+	c #51344C",
"i+	c #57354F",
"j+	c #613956",
"k+	c #1B2230",
"l+	c #1D4A34",
"m+	c #17292F",
"n+	c #1D2C31",
"o+	c #292834",
"p+	c #2C2A32",
"q+	c #8E7761",
"r+	c #9F8667",
"s+	c #A08768",
"t+	c #917962",
"u+	c #AE946D",
"v+	c #7D6A59",
"w+	c #594A4C",
"x+	c #4E4144",
"y+	c #4E4143",
"z+	c #695650",
"A+	c #6A5750",
"B+	c #665450",
"C+	c #3B6542",
"D+	c #34A64D",
"E+	c #645350",
"F+	c #544646",
"G+	c #322437",
"H+	c #5B354F",
"I+	c #4E3047",
"J+	c #493344",
"K+	c #483144",
"L+	c #4B3544",
"M+	c #463043",
"N+	c #4D3A45",
"O+	c #4E4242",
"P+	c #4F4344",
"Q+	c #4D4144",
"R+	c #202231",
"S+	c #2B7244",
"T+	c #202130",
"U+	c #1D202F",
"V+	c #6F373E",
"W+	c #A04B4E",
"X+	c #AC5155",
"Y+	c #9F4D56",
"Z+	c #7E4359",
"`+	c #653B58",
" @	c #4C4044",
".@	c #705C57",
"+@	c #4C4041",
"@@	c #5E4F4E",
"#@	c #3B373A",
"$@	c #182A2F",
"%@	c #201E2F",
"&@	c #281F30",
"*@	c #291F30",
"=@	c #3A273C",
"-@	c #2E2337",
";@	c #1E1E30",
">@	c #3D353A",
",@	c #7A645B",
"'@	c #4D4141",
")@	c #3A3339",
"!@	c #685650",
"~@	c #1B1F2F",
"                                                                                                                                ",
"                                                                                                                                ",
"                                                                                                                                ",
"                                                                                                                                ",
"                                                                                                                                ",
"                                                                                                                                ",
"                                                                                                                                ",
"                                                                                                                                ",
"                                                                                                                                ",
"                                                                                                                                ",
"                                                                                                                                ",
"                                                                                                                                ",
"                                                                                                                                ",
"                                                                                                                                ",
"                                                                                                                                ",
"                                                                                                                                ",
"                                      .                                                                                         ",
"                                      +                                                                                         ",
"                                    @ #     $ $ $ $                                                                             ",
"                                      %   $ $ & * = $                                                                           ",
"                                              $ - ; =                                                                           ",
"                                                > , '                                                                           ",
"                                              ) ! ~ &       { ]                                                                 ",
"                                              ^ / ( _     : < [ } |                                                             ",
"                                            1 2 3 4 5     6 7 8 9 0 |                                                           ",
"                                          a b c d e f g h i j k l m n o | p q r                                                 ",
"                                          s t u v w x y z A B C D E F G H I J K L                                               ",
"                                          M N O P Q   R S T U V W X Y Z ` G  .                                                  ",
"                                          ..+.@.#.    $.%.&.*.=.-.;.>.,.'.).!.                                                  ",
"                                          ~.{.].^.  /.(._.:.<.[.}.|.1.2.3.4.5.|                                                 ",
"                                          | 6.7.8.  9.0.a.b.c.-.d.e.f.g.h.i.j.k.                                                ",
"                                            l.m.n.  o.p.q.r.s.t.u.v.w.x.y.i.z.A.B.                                              ",
"                                            C.D.n.  E.F.G.H.H.I.J.K.L.M.N.O.P.Q.R.                                              ",
"                                            S.T.I   U.V.W.X.Y.Z.`. +L..+++@+  #+$+%+                                            ",
"                                          p &+*+=+-+;+>+,+-.'+)+!+~+{+L.]+^+    /+(+                                            ",
"                                          _+:+<+[+}+|+1+I.H.H.>.2+3+4+5+6+7+8+                                                  ",
"                                            9+0+a+b+c+d+e+I.f+g+3+3+3+h+i+j+k+l+                                                ",
"                                            m+n+o+p+q+r+s+t+u+v+w+x+y+z+A+B+C+D+q                                               ",
"                                            | E+F+G+H+I+J+K+L+M+N+x+O+P+Q+R+S+D+q                                               ",
"                                              T+U+V+W+X+Y+Z+).).3+`+ @.@+@@@#@$@                                                ",
"                                                    %@&@*@=@!.!.-@;@>@,@'@)@!@                                                  ",
"                                                      | |             U+~@|                                                     ",
"                                                    | |                 | |                                                     ",
"                                                                                                                                ",
"                                                                                                                                ",
"                                                                                                                                ",
"                                                                                                                                ",
"                                                                                                                                ",
"                                                                                                                                ",
"                                                                                                                                ",
"                                                                                                                                ",
"                                                                                                                                ",
"                                                                                                                                ",
"                                                                                                                                ",
"                                                                                                                                ",
"                                                                                                                                ",
"                                                                                                                                ",
"                                                                                                                                ",
"                                                                                                                                ",
"                                                                                                                                ",
"                                                                                                                                ",
"                                                                                                                                ",
"                                                                                                                                ",
"                                                                                                                                "};
