/* XPM */
static char * en6_xpm[] = {
"64 64 291 2",
"  	c None",
". 	c #D9945F",
"+ 	c #AF7D64",
"@ 	c #CB8C61",
"# 	c #E2AD5A",
"$ 	c #DA965F",
"% 	c #A07566",
"& 	c #9E7466",
"* 	c #E3AE5A",
"= 	c #FAE349",
"- 	c #DA975F",
"; 	c #E1AC59",
"> 	c #EFCC51",
", 	c #DEA35C",
"' 	c #222030",
") 	c #52383C",
"! 	c #CC8B5A",
"~ 	c #F3D353",
"{ 	c #FAE672",
"] 	c #E3AF59",
"^ 	c #DA975E",
"/ 	c #342933",
"( 	c #BC7364",
"_ 	c #73383F",
": 	c #171C2E",
"< 	c #986849",
"[ 	c #E7B85B",
"} 	c #FFF3A1",
"| 	c #FFEF73",
"1 	c #FEEB4A",
"2 	c #E7B957",
"3 	c #AD764F",
"4 	c #8A5C52",
"5 	c #BD6D62",
"6 	c #BE7465",
"7 	c #5E3546",
"8 	c #191D2F",
"9 	c #223030",
"0 	c #CC8D5A",
"a 	c #F3D34F",
"b 	c #FFF5B5",
"c 	c #FFF5B6",
"d 	c #FAE44D",
"e 	c #916746",
"f 	c #4C6E3E",
"g 	c #243731",
"h 	c #2C2531",
"i 	c #C07C6A",
"j 	c #BB685E",
"k 	c #AA6C66",
"l 	c #5E3752",
"m 	c #5F313A",
"n 	c #4E2C3B",
"o 	c #50733F",
"p 	c #669C4C",
"q 	c #63453A",
"r 	c #CD8F5A",
"s 	c #FBE451",
"t 	c #FFFBE2",
"u 	c #FEEF8F",
"v 	c #B88152",
"w 	c #7CB255",
"x 	c #76BD58",
"y 	c #28603A",
"z 	c #A55A54",
"A 	c #AE5356",
"B 	c #7E4256",
"C 	c #8E4448",
"D 	c #AC5255",
"E 	c #75405A",
"F 	c #4F304A",
"G 	c #161C2E",
"H 	c #71AB52",
"I 	c #2D713D",
"J 	c #60443A",
"K 	c #EDD370",
"L 	c #FAEB95",
"M 	c #F0E0A9",
"N 	c #8B6447",
"O 	c #3F5B39",
"P 	c #91D160",
"Q 	c #3EB152",
"R 	c #566057",
"S 	c #9E4C53",
"T 	c #B35455",
"U 	c #924958",
"V 	c #683B57",
"W 	c #593142",
"X 	c #803E44",
"Y 	c #713B4E",
"Z 	c #324D3C",
"` 	c #23663A",
" .	c #2D2B33",
"..	c #B69F77",
"+.	c #ECDCA6",
"@.	c #E3CE9A",
"#.	c #847157",
"$.	c #68954B",
"%.	c #63BE57",
"&.	c #3E8A61",
"*.	c #765553",
"=.	c #AA5156",
"-.	c #A24E57",
";.	c #A75056",
">.	c #AD5255",
",.	c #914958",
"'.	c #6B3E5B",
").	c #623A56",
"!.	c #1C1D30",
"~.	c #2C2A33",
"{.	c #C9AE80",
"].	c #B59E76",
"^.	c #AB9671",
"/.	c #8E8266",
"(.	c #1F1F2F",
"_.	c #2A3632",
":.	c #60BA56",
"<.	c #3F8463",
"[.	c #665855",
"}.	c #B55455",
"|.	c #A85056",
"1.	c #8A4659",
"2.	c #6A3D5A",
"3.	c #583550",
"4.	c #58354F",
"5.	c #57344F",
"6.	c #1A1D2F",
"7.	c #181D2E",
"8.	c #564B41",
"9.	c #292832",
"0.	c #6C5D4B",
"a.	c #242431",
"b.	c #976558",
"c.	c #945A52",
"d.	c #3E864F",
"e.	c #456B62",
"f.	c #733B41",
"g.	c #AE5255",
"h.	c #723E56",
"i.	c #492E46",
"j.	c #2D2A38",
"k.	c #226039",
"l.	c #2F9447",
"m.	c #449A4A",
"n.	c #539649",
"o.	c #214D35",
"p.	c #1B1F2F",
"q.	c #685755",
"r.	c #655451",
"s.	c #A56E5E",
"t.	c #C4816D",
"u.	c #BF7A68",
"v.	c #B7615B",
"w.	c #B55555",
"x.	c #2D2739",
"y.	c #2B4849",
"z.	c #3D8960",
"A.	c #38B151",
"B.	c #38B251",
"C.	c #4BB753",
"D.	c #8CD060",
"E.	c #7DC15A",
"F.	c #3D5B39",
"G.	c #79645D",
"H.	c #7E675C",
"I.	c #976458",
"J.	c #BD6C61",
"K.	c #B75756",
"L.	c #B65656",
"M.	c #B65555",
"N.	c #71383F",
"O.	c #294547",
"P.	c #3A655F",
"Q.	c #407B66",
"R.	c #379C54",
"S.	c #297D40",
"T.	c #256F3D",
"U.	c #369748",
"V.	c #62BC56",
"W.	c #48AC50",
"X.	c #23643A",
"Y.	c #5D4E50",
"Z.	c #715D56",
"`.	c #322537",
" +	c #834249",
".+	c #A54E53",
"++	c #B45455",
"@+	c #6A3745",
"#+	c #1F323A",
"$+	c #406F67",
"%+	c #417168",
"&+	c #345955",
"*+	c #365E59",
"=+	c #1F3139",
"-+	c #182E30",
";+	c #287A40",
">+	c #1D282F",
",+	c #4E6F3F",
"'+	c #1F2E31",
")+	c #2C8743",
"!+	c #563041",
"~+	c #A04D56",
"{+	c #A44F57",
"]+	c #A95156",
"^+	c #894658",
"/+	c #453849",
"(+	c #375E59",
"_+	c #417067",
":+	c #253E42",
"<+	c #276139",
"[+	c #8CCF5F",
"}+	c #73A550",
"|+	c #2C8843",
"1+	c #5E303A",
"2+	c #7F3D43",
"3+	c #A44D4F",
"4+	c #A65057",
"5+	c #52344C",
"6+	c #3C5253",
"7+	c #2D2337",
"8+	c #256F3C",
"9+	c #61BB56",
"0+	c #1C3030",
"a+	c #422634",
"b+	c #8A4246",
"c+	c #B55454",
"d+	c #AE5256",
"e+	c #6C3E5B",
"f+	c #693D5B",
"g+	c #683D5B",
"h+	c #524E59",
"i+	c #683E5B",
"j+	c #5D3753",
"k+	c #193330",
"l+	c #2F9347",
"m+	c #2C8944",
"n+	c #17232F",
"o+	c #615147",
"p+	c #7B6553",
"q+	c #743F42",
"r+	c #743E41",
"s+	c #693B42",
"t+	c #55364D",
"u+	c #462F44",
"v+	c #4C3147",
"w+	c #4B3047",
"x+	c #235E39",
"y+	c #26703D",
"z+	c #181D2F",
"A+	c #483E43",
"B+	c #1C1F30",
"C+	c #605148",
"D+	c #786653",
"E+	c #907861",
"F+	c #A08768",
"G+	c #7D6A59",
"H+	c #705C55",
"I+	c #504343",
"J+	c #8A7164",
"K+	c #67554F",
"L+	c #625250",
"M+	c #319448",
"N+	c #37AF50",
"O+	c #183030",
"P+	c #6F5C55",
"Q+	c #292030",
"R+	c #834354",
"S+	c #844355",
"T+	c #5D364F",
"U+	c #5A354F",
"V+	c #3A293D",
"W+	c #4D4142",
"X+	c #4C4043",
"Y+	c #1C1F2F",
"Z+	c #2A7444",
"`+	c #17262F",
" @	c #442734",
".@	c #72383F",
"+@	c #97474A",
"@@	c #96474B",
"#@	c #894450",
"$@	c #683C5A",
"%@	c #673C5A",
"&@	c #4D3945",
"*@	c #6F5C58",
"=@	c #43393E",
"-@	c #544748",
";@	c #1E1E30",
">@	c #3A3339",
",@	c #41383C",
"'@	c #514444",
"                                                                                                                                ",
"                                                                                                                                ",
"                                                                                                                                ",
"                                                                                                                                ",
"                                                                                                                                ",
"                                                                                                                                ",
"                                                                                                                                ",
"                                                                                                                                ",
"                                                                                                                                ",
"                                                                                                                                ",
"                                                                                                                                ",
"                                                                                                                                ",
"                                                                                                                                ",
"                                                                                                                                ",
"                                                                                                                                ",
"                                                                                                                                ",
"                                                                                                                                ",
"                                                                                                                                ",
"                                      . .   + @                                                                                 ",
"                                    . # $       % &                                                                             ",
"                                    * = -                                                                                       ",
"                                    ; > , . .             ' )                                                                   ",
"                                    ! ~ { ] ^ .           / ( _ :                                                               ",
"                                    < [ } | 1 2 3         4 5 6 7 8         9                                                   ",
"                                      0 a b c d e   f g h i j k l m n 8   o p                                                   ",
"                                      q r s t u v   w x y z A B C D E F G H I                                                   ",
"                                        J K L M N   O P Q R S T U V W X Y Z `                                                   ",
"                                         ...+.@.#.    $.%.&.*.=.-.;.>.,.'.).!.                                                  ",
"                                        ~.{.].^./.  (._.:.<.[.}.|.1.2.3.4.5.6.                                                  ",
"                                        7.8.9.0.a.  b.c.d.e.f.g.h.i.j.k.l.m.n.o.                                                ",
"                                          p.q.r.    s.t.u.v.w.S x.y.z.A.B.C.D.E.F.                                              ",
"                                            G.H.    I.J.K.L.M.N.O.P.Q.R.S.T.U.V.W.X.                                            ",
"                                            Y.Z.    `. +.+++++@+#+$+%+&+*+=+  -+k.;+                                            ",
"                                          >+,+'+)+  !+~+-.{+]+^+/+(+%+%+_+:+                                                    ",
"                                          <+[+}+|+  1+2+3+M.M.4+2.5+6+%+6+7+                                                    ",
"                                          8+C.9+0+G a+b+c+M.d+e+f+f+g+h+i+j+8                                                   ",
"                                          k+l+m+n+  o+p+q+r+s+t+3.4.5.u+v+w+x+y+                                                ",
"                                            z+A+B+  C+D+E+F+F+G+H+r.I+J+K+L+M+N+O+                                              ",
"                                            p.P+a.Q+R+S+T+U+4.4.v+V+W+X+W+Y+Z+m+`+                                              ",
"                                                   @.@+@@@#@$@%@3.&@*@=@-@H+Y+                                                  ",
"                                                      G G 8 ;@;@G >@,@G G '@                                                    ",
"                                                      G G               G G                                                     ",
"                                                    G G                 G G                                                     ",
"                                                                                                                                ",
"                                                                                                                                ",
"                                                                                                                                ",
"                                                                                                                                ",
"                                                                                                                                ",
"                                                                                                                                ",
"                                                                                                                                ",
"                                                                                                                                ",
"                                                                                                                                ",
"                                                                                                                                ",
"                                                                                                                                ",
"                                                                                                                                ",
"                                                                                                                                ",
"                                                                                                                                ",
"                                                                                                                                ",
"                                                                                                                                ",
"                                                                                                                                ",
"                                                                                                                                ",
"                                                                                                                                ",
"                                                                                                                                ",
"                                                                                                                                "};
