/* XPM */
static char * len1_xpm[] = {
"64 64 292 2",
"  	c None",
". 	c #9E7466",
"+ 	c #D9945F",
"@ 	c #DA965F",
"# 	c #EEC952",
"$ 	c #E2AD5A",
"% 	c #FDEA46",
"& 	c #E9BD56",
"* 	c #DB995E",
"= 	c #E6B757",
"- 	c #DEA35C",
"; 	c #222030",
"> 	c #E3AE5A",
", 	c #FEEB45",
"' 	c #E7B957",
") 	c #D8935F",
"! 	c #171C2E",
"~ 	c #733B40",
"{ 	c #966457",
"] 	c #C18456",
"^ 	c #FEEE73",
"/ 	c #FAE449",
"( 	c #BA8153",
"_ 	c #191D2F",
": 	c #734143",
"< 	c #BC6C61",
"[ 	c #B87766",
"} 	c #2E2632",
"| 	c #403033",
"1 	c #D6935E",
"2 	c #F3D453",
"3 	c #FFFADF",
"4 	c #FAE455",
"5 	c #B77F52",
"6 	c #507340",
"7 	c #253431",
"8 	c #161C2E",
"9 	c #261F30",
"0 	c #3A273C",
"a 	c #834D5C",
"b 	c #BD7063",
"c 	c #C37D6B",
"d 	c #976558",
"e 	c #9C6B4A",
"f 	c #E2AE5A",
"g 	c #FFF191",
"h 	c #FFF5B6",
"i 	c #EFCC55",
"j 	c #986849",
"k 	c #618C47",
"l 	c #7BBE58",
"m 	c #203030",
"n 	c #51314B",
"o 	c #9D4C56",
"p 	c #7F404D",
"q 	c #63364B",
"r 	c #95515B",
"s 	c #BD6D61",
"t 	c #966055",
"u 	c #1D3130",
"v 	c #5F9C4C",
"w 	c #5D9148",
"x 	c #393533",
"y 	c #DFAC58",
"z 	c #FFF8D6",
"A 	c #FFF3A6",
"B 	c #E0AD59",
"C 	c #392C32",
"D 	c #308A44",
"E 	c #42523D",
"F 	c #6D363E",
"G 	c #4A2D43",
"H 	c #6D3B52",
"I 	c #9F4D57",
"J 	c #A85056",
"K 	c #A24E57",
"L 	c #A44F53",
"M 	c #506D4C",
"N 	c #5AB955",
"O 	c #8CC95D",
"P 	c #73A550",
"Q 	c #3A5437",
"R 	c #AE845D",
"S 	c #F3E4A2",
"T 	c #F9EFC6",
"U 	c #CF9D6A",
"V 	c #312831",
"W 	c #2C2736",
"X 	c #653A57",
"Y 	c #A04E57",
"Z 	c #984A57",
"` 	c #97484C",
" .	c #8B4759",
"..	c #B55455",
"+.	c #555553",
"@.	c #3C995C",
"#.	c #7EC95C",
"$.	c #4F733F",
"%.	c #B29971",
"&.	c #EBDBA6",
"*.	c #E5D39E",
"=.	c #89755A",
"-.	c #402A41",
";.	c #683C5A",
">.	c #6B3D5A",
",.	c #974A57",
"'.	c #B65555",
").	c #B35555",
"!.	c #456B63",
"~.	c #3BA05A",
"{.	c #6BB153",
"].	c #1B242F",
"^.	c #BAA87F",
"/.	c #8B785C",
"(.	c #CEB586",
"_.	c #A28B67",
":.	c #182C30",
"<.	c #2D6F3D",
"[.	c #296E3E",
"}.	c #265E3A",
"|.	c #2C2737",
"1.	c #55324B",
"2.	c #844355",
"3.	c #9A4B58",
"4.	c #A24C4E",
"5.	c #35504E",
"6.	c #3F8463",
"7.	c #438344",
"8.	c #945F55",
"9.	c #52393C",
"0.	c #2F2C33",
"a.	c #6B5C4B",
"b.	c #2E2B33",
"c.	c #51473F",
"d.	c #244E35",
"e.	c #76BD58",
"f.	c #8ACF5F",
"g.	c #3BB351",
"h.	c #38B151",
"i.	c #339E4B",
"j.	c #325953",
"k.	c #1D2132",
"l.	c #69394E",
"m.	c #B55555",
"n.	c #A34F50",
"o.	c #9E675F",
"p.	c #A4785E",
"q.	c #C37F6B",
"r.	c #7B534C",
"s.	c #222331",
"t.	c #77625C",
"u.	c #504448",
"v.	c #71A550",
"w.	c #78C65B",
"x.	c #49AD50",
"y.	c #309548",
"z.	c #35A84E",
"A.	c #39AA55",
"B.	c #417368",
"C.	c #365D58",
"D.	c #2A3D41",
"E.	c #BC6B60",
"F.	c #C4816D",
"G.	c #C27A69",
"H.	c #C07667",
"I.	c #79524B",
"J.	c #272632",
"K.	c #947869",
"L.	c #5A4B4D",
"M.	c #214F35",
"N.	c #56B654",
"O.	c #23673A",
"P.	c #182A2F",
"Q.	c #1F3039",
"R.	c #264342",
"S.	c #3A675E",
"T.	c #417168",
"U.	c #345955",
"V.	c #171E2F",
"W.	c #98484B",
"X.	c #B65656",
"Y.	c #B75756",
"Z.	c #BA6C60",
"`.	c #965F55",
" +	c #262230",
".+	c #232331",
"++	c #7D675F",
"@+	c #493F44",
"#+	c #256E3C",
"$+	c #297F41",
"%+	c #365E59",
"&+	c #432C43",
"*+	c #8A4658",
"=+	c #A95056",
"-+	c #A14E57",
";+	c #854352",
">+	c #7A4054",
",+	c #1F1E31",
"'+	c #287B40",
")+	c #263232",
"!+	c #4C6D3E",
"~+	c #1E5035",
"{+	c #22323B",
"]+	c #3E6B63",
"^+	c #417067",
"/+	c #365855",
"(+	c #4A3047",
"_+	c #7F4359",
":+	c #B45455",
"<+	c #8D4347",
"[+	c #8A4246",
"}+	c #271F30",
"|+	c #256F3D",
"1+	c #2D733E",
"2+	c #8BC75C",
"3+	c #75BD58",
"4+	c #1B1D30",
"5+	c #613956",
"6+	c #58515C",
"7+	c #465558",
"8+	c #633A57",
"9+	c #693D5B",
"0+	c #6A3D5B",
"a+	c #8A4759",
"b+	c #AC5051",
"c+	c #7A3B41",
"d+	c #1D1D2E",
"e+	c #161D2E",
"f+	c #3C753F",
"g+	c #63BE57",
"h+	c #3BB050",
"i+	c #183030",
"j+	c #26703D",
"k+	c #235E39",
"l+	c #4B3047",
"m+	c #4C3147",
"n+	c #452F43",
"o+	c #57344F",
"p+	c #58354F",
"q+	c #583550",
"r+	c #593650",
"s+	c #6B3C43",
"t+	c #743C41",
"u+	c #733E41",
"v+	c #735F4D",
"w+	c #6B5A4D",
"x+	c #222330",
"y+	c #1C4834",
"z+	c #2F9447",
"A+	c #37AF50",
"B+	c #319448",
"C+	c #625250",
"D+	c #67554F",
"E+	c #8A7164",
"F+	c #504343",
"G+	c #655451",
"H+	c #705C55",
"I+	c #594C4C",
"J+	c #AC926C",
"K+	c #917962",
"L+	c #A08768",
"M+	c #806C58",
"N+	c #6C5A4E",
"O+	c #232430",
"P+	c #37313A",
"Q+	c #38323B",
"R+	c #17262F",
"S+	c #2C8944",
"T+	c #2A7444",
"U+	c #1C1F2F",
"V+	c #4D4142",
"W+	c #4C4043",
"X+	c #3A293D",
"Y+	c #59354F",
"Z+	c #5C354F",
"`+	c #773E52",
" @	c #884558",
".@	c #673541",
"+@	c #5A4B4A",
"@@	c #212230",
"#@	c #6F5C55",
"$@	c #544748",
"%@	c #433A3E",
"&@	c #6F5C58",
"*@	c #673C5A",
"=@	c #7A4055",
"-@	c #96474B",
";@	c #97484B",
">@	c #803D43",
",@	c #4C2A35",
"'@	c #3D353A",
")@	c #1E1E30",
"                                                                                                                                ",
"                                                                                                                                ",
"                                                                                                                                ",
"                                                                                                                                ",
"                                                                                                                                ",
"                                                                                                                                ",
"                                                                                                                                ",
"                                                                                                                                ",
"                                                                                                                                ",
"                                                                                                                                ",
"                                                                                                                                ",
"                                                                                                                                ",
"                                                                                                                                ",
"                                                                                                                                ",
"                                                                                                                                ",
"                                                                                        .                                       ",
"                                                                                          .                                     ",
"                                                                              + +                                               ",
"                                                                            @ # @ + +                                           ",
"                                                                            $ % &                                               ",
"                                                                            + * = - +                                           ",
"                                                                  ;         + + > , ' )                                         ",
"                                                              ! ~ {           ] - ^ / (                                         ",
"                                                            _ : < [ }       | 1 2 3 4 5                                         ",
"                                                6 7     8 9 0 a b c d       e f g h i j                                         ",
"                                                k l m _ n o p q r s t u v w x y z A B C                                         ",
"                                                  D E F G H I J K L M N O P Q R S T U V                                         ",
"                                                  W X Y Z `  .J ..+.@.#.$.    %.&.*.=.                                          ",
"                                                  -.;.>.,.K '.'.).!.~.{.].    ^./.(._.                                          ",
"                                                :.<.[.}.|.1.2.3.4.5.6.7.8.9.  0.a.b.c.                                          ",
"                                              d.e.f.g.h.i.j.k.l.m.n.o.p.q.r.  s.t.u.                                            ",
"                                              v.w.x.y.z.A.B.C.D.4.E.F.G.H.I.  J.K.L.                                            ",
"                                            M.N.O.P.Q.R.S.T.U.V.W.X.Y.Z.`. +  .+++@+                                            ",
"                                            #+$+    %+T.T.T.%+&+*+=+-+;+>+,+  '+)+!+                                            ",
"                                            :.~+    {+]+^+/+(+_+:+'.'.<+[+}+|+1+2+3+P.                                          ",
"                                                  4+5+6+7+8+9+0+a+m.'.b+c+d+e+f+g+h+i+                                          ",
"                                                j+k+l+m+n+o+p+q+r+s+t+u+v+w+x+y+z+$+                                            ",
"                                              i+A+B+C+D+E+F+G+H+I+J+K+L+M+N+O+P+Q+8                                             ",
"                                              R+S+T+U+V+W+V+X+m+p+p+Y+Z+`+ @.@V++@8                                             ",
"                                                  @@#@$@%@&@X+q+*@;.=@-@;@>@,@                                                  ",
"                                                    '@8 U+V+! 8 )@)@4+8 8                                                       ",
"                                                    8 8               8 8                                                       ",
"                                                    8 8                 8 8                                                     ",
"                                                                                                                                ",
"                                                                                                                                ",
"                                                                                                                                ",
"                                                                                                                                ",
"                                                                                                                                ",
"                                                                                                                                ",
"                                                                                                                                ",
"                                                                                                                                ",
"                                                                                                                                ",
"                                                                                                                                ",
"                                                                                                                                ",
"                                                                                                                                ",
"                                                                                                                                ",
"                                                                                                                                ",
"                                                                                                                                ",
"                                                                                                                                ",
"                                                                                                                                ",
"                                                                                                                                ",
"                                                                                                                                ",
"                                                                                                                                ",
"                                                                                                                                "};
