/* XPM */
static char * len2_xpm[] = {
"64 64 294 2",
"  	c None",
". 	c #B07D64",
"+ 	c #D7935F",
"@ 	c #D9945F",
"# 	c #D39060",
"$ 	c #A17666",
"% 	c #DEA25C",
"& 	c #EBC155",
"* 	c #D9955F",
"= 	c #B37F64",
"- 	c #F6DB4C",
"; 	c #E3AE5A",
"> 	c #DEA15C",
", 	c #E7BA57",
"' 	c #E2AC5A",
") 	c #512D37",
"! 	c #79514B",
"~ 	c #F7DC4C",
"{ 	c #E7B957",
"] 	c #D8935E",
"^ 	c #161C2E",
"/ 	c #4B2A36",
"( 	c #AC5353",
"_ 	c #AF7363",
": 	c #232130",
"< 	c #C28756",
"[ 	c #FEEB45",
"} 	c #F7DC50",
"| 	c #B97F53",
"1 	c #36263B",
"2 	c #91555B",
"3 	c #C17968",
"4 	c #BE7264",
"5 	c #7C534C",
"6 	c #7C5740",
"7 	c #F6DC57",
"8 	c #FFF4B3",
"9 	c #E1AE59",
"0 	c #906246",
"a 	c #212E30",
"b 	c #182B2F",
"c 	c #17242F",
"d 	c #39273D",
"e 	c #86424C",
"f 	c #723840",
"g 	c #613953",
"h 	c #AA6B65",
"i 	c #B85E59",
"j 	c #A36C5D",
"k 	c #17222F",
"l 	c #30713D",
"m 	c #2F3532",
"n 	c #DBB25A",
"o 	c #FFFCEE",
"p 	c #FAE891",
"q 	c #CE8F5A",
"r 	c #604339",
"s 	c #1D282F",
"t 	c #6FA14E",
"u 	c #49AA4F",
"v 	c #225C38",
"w 	c #261F31",
"x 	c #57344F",
"y 	c #764059",
"z 	c #A75056",
"A 	c #A24C4F",
"B 	c #934958",
"C 	c #AE5255",
"D 	c #635441",
"E 	c #57A84F",
"F 	c #92D161",
"G 	c #89C45B",
"H 	c #8A6544",
"I 	c #F4DF8F",
"J 	c #FFF3A6",
"K 	c #F1D483",
"L 	c #987151",
"M 	c #204835",
"N 	c #964A57",
"O 	c #97484B",
"P 	c #763B45",
"Q 	c #6E3E5A",
"R 	c #8C4759",
"S 	c #AF5255",
"T 	c #754E4E",
"U 	c #3D925D",
"V 	c #7DC85C",
"W 	c #43613A",
"X 	c #181E2E",
"Y 	c #AC976F",
"Z 	c #EFE0AA",
"` 	c #E7D49F",
" .	c #A8936E",
"..	c #412A41",
"+.	c #693D5B",
"@.	c #6A3D5B",
"#.	c #81445A",
"$.	c #A14E57",
"%.	c #B35455",
"&.	c #B45455",
"*.	c #B35555",
"=.	c #456A63",
"-.	c #3BA059",
";.	c #74BD58",
">.	c #1F2B30",
",.	c #BCA980",
"'.	c #B19E78",
").	c #E1CC99",
"!.	c #877459",
"~.	c #2A2A36",
"{.	c #413542",
"].	c #413242",
"^.	c #492E46",
"/.	c #633A57",
"(.	c #804359",
"_.	c #9C4C58",
":.	c #A24C4E",
"<.	c #375955",
"[.	c #3D925F",
"}.	c #529549",
"|.	c #654443",
"1.	c #282331",
"2.	c #71624F",
"3.	c #806D55",
"4.	c #71614E",
"5.	c #816F56",
"6.	c #407840",
"7.	c #55B052",
"8.	c #37B050",
"9.	c #35A84D",
"0.	c #297C41",
"a.	c #273F42",
"b.	c #38273D",
"c.	c #844355",
"d.	c #82494B",
"e.	c #796B61",
"f.	c #7B704F",
"g.	c #C07A68",
"h.	c #79524B",
"i.	c #1C1F30",
"j.	c #584A4C",
"k.	c #40383F",
"l.	c #3E6B3C",
"m.	c #8CCF5F",
"n.	c #5ABB55",
"o.	c #38B151",
"p.	c #38B052",
"q.	c #407367",
"r.	c #2F504E",
"s.	c #393E45",
"t.	c #AB5052",
"u.	c #B65655",
"v.	c #BD6C61",
"w.	c #C07666",
"x.	c #C27B69",
"y.	c #7B534C",
"z.	c #272632",
"A.	c #937869",
"B.	c #594B4D",
"C.	c #72AD52",
"D.	c #65BE57",
"E.	c #26713D",
"F.	c #182C30",
"G.	c #23603B",
"H.	c #3B7F5E",
"I.	c #417168",
"J.	c #335854",
"K.	c #182231",
"L.	c #98484B",
"M.	c #B65555",
"N.	c #B85C58",
"O.	c #B36D60",
"P.	c #4E373B",
"Q.	c #8B7265",
"R.	c #524649",
"S.	c #24693B",
"T.	c #38A74D",
"U.	c #226139",
"V.	c #335754",
"W.	c #3D6A63",
"X.	c #3E6B63",
"Y.	c #3A645E",
"Z.	c #2D2437",
"`.	c #864455",
" +	c #AA5156",
".+	c #A34E57",
"++	c #834251",
"@+	c #58334B",
"#+	c #1C1D30",
"$+	c #41393F",
"%+	c #2F3336",
"&+	c #215C38",
"*+	c #1E4E35",
"=+	c #2A4848",
"-+	c #417067",
";+	c #3D6A62",
">+	c #333741",
",+	c #703E56",
"'+	c #AE5256",
")+	c #B55555",
"!+	c #A14C4E",
"~+	c #A14C51",
"{+	c #292030",
"]+	c #2A8142",
"^+	c #2C7E41",
"/+	c #73A550",
"(+	c #7AB756",
"_+	c #1A1D2F",
":+	c #50314A",
"<+	c #485B5C",
"[+	c #436561",
"}+	c #52354D",
"|+	c #683C5A",
"1+	c #75405A",
"2+	c #4E2A36",
"3+	c #171C2E",
"4+	c #17272F",
"5+	c #3F773F",
"6+	c #7EC95C",
"7+	c #4CB553",
"8+	c #183030",
"9+	c #1D4A34",
"0+	c #1B2230",
"a+	c #613956",
"b+	c #57354F",
"c+	c #51344C",
"d+	c #603853",
"e+	c #8F454C",
"f+	c #97474A",
"g+	c #713C40",
"h+	c #2A2632",
"i+	c #171D2E",
"j+	c #215E38",
"k+	c #37AF50",
"l+	c #329D4A",
"m+	c #34A64D",
"n+	c #3B6542",
"o+	c #665450",
"p+	c #6A5750",
"q+	c #695650",
"r+	c #4E4143",
"s+	c #4E4144",
"t+	c #594A4C",
"u+	c #7D6A59",
"v+	c #AE946D",
"w+	c #917962",
"x+	c #A08768",
"y+	c #9F8667",
"z+	c #8E7761",
"A+	c #2C2A32",
"B+	c #292834",
"C+	c #1D2C31",
"D+	c #17292F",
"E+	c #2B7244",
"F+	c #202231",
"G+	c #4D4144",
"H+	c #4F4344",
"I+	c #4E4242",
"J+	c #4D3A45",
"K+	c #463043",
"L+	c #4B3544",
"M+	c #483144",
"N+	c #493344",
"O+	c #4E3047",
"P+	c #5B354F",
"Q+	c #322437",
"R+	c #544646",
"S+	c #645350",
"T+	c #182A2F",
"U+	c #3B373A",
"V+	c #5E4F4E",
"W+	c #4C4041",
"X+	c #705C57",
"Y+	c #4C4044",
"Z+	c #653B58",
"`+	c #7E4359",
" @	c #9F4D56",
".@	c #AC5155",
"+@	c #A04B4E",
"@@	c #6F373E",
"#@	c #1D202F",
"$@	c #202130",
"%@	c #685650",
"&@	c #3A3339",
"*@	c #4D4141",
"=@	c #7A645B",
"-@	c #3D353A",
";@	c #1E1E30",
">@	c #2E2337",
",@	c #3A273C",
"'@	c #291F30",
")@	c #281F30",
"!@	c #201E2F",
"~@	c #1B1F2F",
"                                                                                                                                ",
"                                                                                                                                ",
"                                                                                                                                ",
"                                                                                                                                ",
"                                                                                                                                ",
"                                                                                                                                ",
"                                                                                                                                ",
"                                                                                                                                ",
"                                                                                                                                ",
"                                                                                                                                ",
"                                                                                                                                ",
"                                                                                                                                ",
"                                                                                                                                ",
"                                                                                                                                ",
"                                                                                                                                ",
"                                                                                                                                ",
"                                                                                        .                                       ",
"                                                                                        +                                       ",
"                                                                            @ @ @ @     # $                                     ",
"                                                                          @ % & * @ @   =                                       ",
"                                                                          % - ; @                                               ",
"                                                                          > , '                                                 ",
"                                                                ) !       * ~ { ]                                               ",
"                                                            ^ / ( _ :     < [ } |                                               ",
"                                                          ^ 1 2 3 4 5     6 7 8 9 0                                             ",
"                                                a b c ^ d e f g h i j k l m n o p q r                                           ",
"                                              s t u v w x y z A B C D E F G H I J K L                                           ",
"                                                  M x N O P Q R S T U V W   X Y Z `  .                                          ",
"                                                  ..+.@.#.$.%.&.*.=.-.;.>.    ,.'.).!.                                          ",
"                                                ^ ~.{.].^./.(._.:.<.[.}.|.1.  2.3.4.5.                                          ",
"                                                6.7.8.9.0.a.b.c.&.d.e.f.g.h.  i.j.k.^                                           ",
"                                              l.m.n.8.o.p.q.r.s.t.u.v.w.x.y.  z.A.B.                                            ",
"                                              C.D.E.F.G.H.I.J.K.L.M.M.N.O.P.  z.Q.R.                                            ",
"                                            S.T.U.  V.W.X.I.Y.Z.`. +.+++@+#+  v $+%+                                            ",
"                                            &+*+    =+-+I.;+>+,+'+)+&.!+~+{+]+^+/+(+c                                           ",
"                                                  _+:+<+[+}+|+1+$.M.M.L.2+3+4+5+6+7+8+                                          ",
"                                                9+0+a+b+c+|+|+|+d+e+L.f+g+h+i+j+k+l+                                            ",
"                                              b m+n+o+p+q+r+s+t+u+v+w+x+y+z+A+B+C+D+                                            ",
"                                              b m+E+F+G+H+I+s+J+K+L+M+N+O+P+Q+R+S+^                                             ",
"                                                T+U+V+W+X+Y+Z+|++.+.`+ @.@+@@@#@$@                                              ",
"                                                  %@&@*@=@-@;@>@....,@'@)@!@                                                    ",
"                                                    ^ ~@#@            ^ ^                                                       ",
"                                                    ^ ^                 ^ ^                                                     ",
"                                                                                                                                ",
"                                                                                                                                ",
"                                                                                                                                ",
"                                                                                                                                ",
"                                                                                                                                ",
"                                                                                                                                ",
"                                                                                                                                ",
"                                                                                                                                ",
"                                                                                                                                ",
"                                                                                                                                ",
"                                                                                                                                ",
"                                                                                                                                ",
"                                                                                                                                ",
"                                                                                                                                ",
"                                                                                                                                ",
"                                                                                                                                ",
"                                                                                                                                ",
"                                                                                                                                ",
"                                                                                                                                ",
"                                                                                                                                ",
"                                                                                                                                "};
