/* XPM */
static char * len3_xpm[] = {
"64 64 283 2",
"  	c None",
". 	c #9E7466",
"+ 	c #E6B658",
"@ 	c #DA965F",
"# 	c #DA985E",
"$ 	c #F1D050",
"% 	c #D9945F",
"& 	c #E7B957",
"* 	c #F3D54E",
"= 	c #EFCC51",
"- 	c #E3AE5A",
"; 	c #DEA35C",
"> 	c #FEEB45",
", 	c #FBE548",
"' 	c #D9955F",
") 	c #52383C",
"! 	c #222030",
"~ 	c #E7B857",
"{ 	c #E8BB56",
"] 	c #E2AD5A",
"^ 	c #171C2E",
"/ 	c #794A47",
"( 	c #BA6F62",
"_ 	c #342933",
": 	c #FAE348",
"< 	c #5A8144",
"[ 	c #191D2F",
"} 	c #4D3046",
"| 	c #BA7869",
"1 	c #BD6D61",
"2 	c #8A5B52",
"3 	c #6E4D3D",
"4 	c #D7A855",
"5 	c #FFED52",
"6 	c #FEF089",
"7 	c #DCA25B",
"8 	c #233531",
"9 	c #5D8E48",
"0 	c #171D2E",
"a 	c #3A273C",
"b 	c #5D303A",
"c 	c #5D3752",
"d 	c #915D62",
"e 	c #BE7164",
"f 	c #BD7465",
"g 	c #2C2531",
"h 	c #182D30",
"i 	c #4E703F",
"j 	c #A9764D",
"k 	c #FAE88F",
"l 	c #FFF7C8",
"m 	c #EAC254",
"n 	c #7B5540",
"o 	c #68A750",
"p 	c #161C2E",
"q 	c #4F304A",
"r 	c #683D5A",
"s 	c #884658",
"t 	c #8D4348",
"u 	c #7D4156",
"v 	c #A55B5D",
"w 	c #A55A55",
"x 	c #2C623A",
"y 	c #76BD58",
"z 	c #7AB054",
"A 	c #5A4038",
"B 	c #D8A959",
"C 	c #FFF8D4",
"D 	c #FBEA91",
"E 	c #DAB153",
"F 	c #312831",
"G 	c #2E7B40",
"H 	c #43553E",
"I 	c #58354F",
"J 	c #733A45",
"K 	c #593142",
"L 	c #653B57",
"M 	c #81445A",
"N 	c #AD5256",
"O 	c #9D4C53",
"P 	c #566057",
"Q 	c #63BC57",
"R 	c #8DC95D",
"S 	c #405D39",
"T 	c #89684C",
"U 	c #F1E091",
"V 	c #F0E4BB",
"W 	c #E0C788",
"X 	c #352F34",
"Y 	c #1C1D30",
"Z 	c #623A56",
"` 	c #693D5B",
" .	c #76405A",
"..	c #994B57",
"+.	c #A64F56",
"@.	c #A24E57",
"#.	c #A95156",
"$.	c #765553",
"%.	c #3E8A61",
"&.	c #64BE57",
"*.	c #67944A",
"=.	c #8A7B5F",
"-.	c #D4BE8D",
";.	c #E7D6A1",
">.	c #AE9C76",
",.	c #242531",
"'.	c #1A1D2F",
").	c #57344F",
"!.	c #583550",
"~.	c #683C5A",
"{.	c #77415A",
"].	c #924958",
"^.	c #A85056",
"/.	c #665855",
"(.	c #3F8463",
"_.	c #60BA56",
":.	c #2A3632",
"<.	c #1F1F2F",
"[.	c #766C56",
"}.	c #A6916D",
"|.	c #867359",
"1.	c #BB9F75",
"2.	c #2C2A33",
"3.	c #18272F",
"4.	c #459047",
"5.	c #449A4A",
"6.	c #2F9447",
"7.	c #226039",
"8.	c #2D2A38",
"9.	c #492E46",
"0.	c #713E56",
"a.	c #733B41",
"b.	c #456B62",
"c.	c #3E864F",
"d.	c #945A52",
"e.	c #976558",
"f.	c #3E373D",
"g.	c #37313B",
"h.	c #202230",
"i.	c #18262F",
"j.	c #61A44E",
"k.	c #8BD060",
"l.	c #4BB753",
"m.	c #38B251",
"n.	c #38B151",
"o.	c #3D8960",
"p.	c #2B4849",
"q.	c #2D2739",
"r.	c #9E4C53",
"s.	c #B55555",
"t.	c #B45655",
"u.	c #BB6D61",
"v.	c #BF7566",
"w.	c #A3695C",
"x.	c #735E57",
"y.	c #735F5B",
"z.	c #1E2130",
"A.	c #407940",
"B.	c #7DC95C",
"C.	c #49A44D",
"D.	c #25703D",
"E.	c #297D40",
"F.	c #379C54",
"G.	c #407B66",
"H.	c #3A655F",
"I.	c #294547",
"J.	c #71383F",
"K.	c #B65555",
"L.	c #B85C58",
"M.	c #945E55",
"N.	c #7E675C",
"O.	c #74605B",
"P.	c #297C40",
"Q.	c #329D4A",
"R.	c #256F3D",
"S.	c #22373D",
"T.	c #365E59",
"U.	c #345955",
"V.	c #417168",
"W.	c #406F67",
"X.	c #1F323A",
"Y.	c #6A3745",
"Z.	c #B45455",
"`.	c #A54E53",
" +	c #834048",
".+	c #322537",
"++	c #182A2F",
"@+	c #5A4B4A",
"#+	c #4A3F44",
"$+	c #17262F",
"%+	c #182B2F",
"&+	c #253E42",
"*+	c #417067",
"=+	c #375E59",
"-+	c #453849",
";+	c #894658",
">+	c #A44F57",
",+	c #A14E56",
"'+	c #9F4D56",
")+	c #563041",
"!+	c #319B49",
"~+	c #3B5838",
"{+	c #71A24F",
"]+	c #203030",
"^+	c #2B2236",
"/+	c #3C5253",
"(+	c #52344C",
"_+	c #6A3D5A",
":+	c #A65057",
"<+	c #A34D4E",
"[+	c #502B36",
"}+	c #452734",
"|+	c #17252F",
"1+	c #286F3D",
"2+	c #82BC58",
"3+	c #7ECA5C",
"4+	c #2C2236",
"5+	c #5C3752",
"6+	c #56364F",
"7+	c #4A4C54",
"8+	c #673D5A",
"9+	c #613853",
"0+	c #97474B",
"a+	c #98484B",
"b+	c #713C40",
"c+	c #262631",
"d+	c #3CB051",
"e+	c #3AB251",
"f+	c #23643A",
"g+	c #256D3C",
"h+	c #5E4D4A",
"i+	c #7C655B",
"j+	c #504343",
"k+	c #554647",
"l+	c #564747",
"m+	c #57494C",
"n+	c #998264",
"o+	c #AE946D",
"p+	c #917962",
"q+	c #A08768",
"r+	c #9F8667",
"s+	c #8E7761",
"t+	c #161D2E",
"u+	c #235E39",
"v+	c #183030",
"w+	c #319B4A",
"x+	c #1B2830",
"y+	c #252532",
"z+	c #594B4B",
"A+	c #40373C",
"B+	c #544646",
"C+	c #442E43",
"D+	c #493244",
"E+	c #4B3544",
"F+	c #483144",
"G+	c #493344",
"H+	c #4E3047",
"I+	c #5B354F",
"J+	c #332438",
"K+	c #212231",
"L+	c #685653",
"M+	c #1A1E2F",
"N+	c #215F39",
"O+	c #3D4F3E",
"P+	c #725E59",
"Q+	c #282633",
"R+	c #7A655D",
"S+	c #3D313D",
"T+	c #663B59",
"U+	c #7E4359",
"V+	c #AB5155",
"W+	c #6E363E",
"X+	c #191E2F",
"Y+	c #695650",
"Z+	c #3C343A",
"`+	c #473D40",
" @	c #67554F",
".@	c #1D1E30",
"+@	c #38273C",
"@@	c #412A41",
"#@	c #291F30",
"$@	c #271F30",
"%@	c #181C2E",
"                                                                                                                                ",
"                                                                                                                                ",
"                                                                                                                                ",
"                                                                                                                                ",
"                                                                                                                                ",
"                                                                                                                                ",
"                                                                                                                                ",
"                                                                                                                                ",
"                                                                                                                                ",
"                                                                                                                                ",
"                                                                                                                                ",
"                                                                                                                                ",
"                                                                                                                                ",
"                                                                                                                                ",
"                                                                                                                                ",
"                                                                                                                                ",
"                                                                              .                                                 ",
"                                                                                        + @                                     ",
"                                                                                      # $                                       ",
"                                                                              % % % %                                           ",
"                                                                            % & * = - % % %                                     ",
"                                                                          % ; > , = + ' %                                       ",
"                                                                  ) !     % ~ , { ] %                                           ",
"                                                              ^ / ( _       ~ , : ;                                             ",
"                                                  <         [ } | 1 2     3 4 5 6 7                                             ",
"                                                8 9 0   [ a b c d e f g h i j k l m n                                           ",
"                                                  o i p q r s t u v w x y z A B C D E F                                         ",
"                                                  G H I J K L M N O P Q R S   T U V W X                                         ",
"                                                  Y Z `  ...+.@.#.$.%.&.*.    =.-.;.>.,.                                        ",
"                                                  '.).I !.~.{.].^./.(._.:.<.  [.}.|.1.2.                                        ",
"                                                3.4.5.6.7.8.9.0.N a.b.c.d.e.    f.g.h.                                          ",
"                                              i.j.k.l.m.n.o.p.q.r.s.t.u.v.w.    x.y.z.                                          ",
"                                              A.B.C.D.E.F.G.H.I.J.K.K.K.L.M.    N.O.                                            ",
"                                            P.Q.R.  S.T.U.V.W.X.Y.Z.Z.`. +.+  ++@+#+                                            ",
"                                            $+%+    &+*+V.V.=+-+;+#.>+,+'+)+  !+~+{+]+                                          ",
"                                                    ^+/+V./+(+_+:+K.K.<+[+}+|+1+2+3+1+                                          ",
"                                                p 4+5+6+7+8+~.~.9+0+a+a+b+c+0 ++d+e+f+                                          ",
"                                              $+g+#+h+i+j+k+l+m+n+o+p+q+r+s+2.t+u+g+                                            ",
"                                              v+w+x+y+z+A+B+k+C+D+E+F+G+H+I+J+K+L+M+                                            ",
"                                                N+O+P+Q+R+S+T+` ` ` U+'+V+a+W+  B+X+                                            ",
"                                                  Y+Z+p `+ @.@+@@@@@a #@$@%@                                                    ",
"                                                    p p   p           p p                                                       ",
"                                                    p p                 p p                                                     ",
"                                                                                                                                ",
"                                                                                                                                ",
"                                                                                                                                ",
"                                                                                                                                ",
"                                                                                                                                ",
"                                                                                                                                ",
"                                                                                                                                ",
"                                                                                                                                ",
"                                                                                                                                ",
"                                                                                                                                ",
"                                                                                                                                ",
"                                                                                                                                ",
"                                                                                                                                ",
"                                                                                                                                ",
"                                                                                                                                ",
"                                                                                                                                ",
"                                                                                                                                ",
"                                                                                                                                ",
"                                                                                                                                ",
"                                                                                                                                ",
"                                                                                                                                "};
