/* XPM */
static char * len4_xpm[] = {
"64 64 287 2",
"  	c None",
". 	c #9E7466",
"+ 	c #D9945F",
"@ 	c #E2AE5A",
"# 	c #E0A75B",
"$ 	c #E9BD56",
"% 	c #F3D34F",
"& 	c #DB995E",
"* 	c #F1D050",
"= 	c #DA975E",
"- 	c #D9955F",
"; 	c #E7B95E",
"> 	c #F3D44F",
", 	c #EABF55",
"' 	c #6B4041",
") 	c #644543",
"! 	c #DA965F",
"~ 	c #F3D890",
"{ 	c #FFF2A1",
"] 	c #EBC254",
"^ 	c #171C2E",
"/ 	c #733A40",
"( 	c #BA675E",
"_ 	c #8A5C52",
": 	c #E7B857",
"< 	c #FFED4D",
"[ 	c #FEEB46",
"} 	c #DA985E",
"| 	c #D8935F",
"1 	c #385337",
"2 	c #3E5A39",
"3 	c #161C2E",
"4 	c #4B2E46",
"5 	c #B06D64",
"6 	c #BD6D62",
"7 	c #B87766",
"8 	c #523A3C",
"9 	c #946648",
"0 	c #F2D34F",
"a 	c #FFF5B1",
"b 	c #FEEC52",
"c 	c #D8975D",
"d 	c #295637",
"e 	c #7AB756",
"f 	c #1C262F",
"g 	c #1B1D30",
"h 	c #4C2E46",
"i 	c #95474B",
"j 	c #5A3142",
"k 	c #75485A",
"l 	c #B66A61",
"m 	c #BD6C61",
"n 	c #78514A",
"o 	c #244E35",
"p 	c #71A34F",
"q 	c #323232",
"r 	c #D7A854",
"s 	c #FFF6C7",
"t 	c #FFF191",
"u 	c #E9C154",
"v 	c #5D4239",
"w 	c #183030",
"x 	c #60B153",
"y 	c #222B31",
"z 	c #3C273C",
"A 	c #5D3753",
"B 	c #894659",
"C 	c #AC5155",
"D 	c #9C4A50",
"E 	c #944A58",
"F 	c #AA5152",
"G 	c #32703F",
"H 	c #6CBA56",
"I 	c #8BC85D",
"J 	c #243331",
"K 	c #996A49",
"L 	c #F6E194",
"M 	c #FFF6C5",
"N 	c #F5DE67",
"O 	c #996B4A",
"P 	c #2F483B",
"Q 	c #643A56",
"R 	c #A24D52",
"S 	c #8D4347",
"T 	c #743C4E",
"U 	c #6F3F5B",
"V 	c #9C4C58",
"W 	c #AA5052",
"X 	c #565D58",
"Y 	c #3CA657",
"Z 	c #85CC5E",
"` 	c #507340",
" .	c #352E34",
"..	c #D6C18F",
"+.	c #EFE1AA",
"@.	c #D8C391",
"#.	c #847056",
"$.	c #57344F",
"%.	c #693D5B",
"&.	c #6C3E5B",
"*.	c #914958",
"=.	c #A85056",
"-.	c #B45455",
";.	c #9A5857",
">.	c #407367",
",.	c #3DB252",
"'.	c #71A550",
").	c #171D2E",
"!.	c #393739",
"~.	c #D1BA8A",
"{.	c #BEAB81",
"].	c #D6C190",
"^.	c #574C42",
"/.	c #17222F",
"(.	c #37323D",
"_.	c #413542",
":.	c #412E41",
"<.	c #51324B",
"[.	c #693D5A",
"}.	c #A95156",
"|.	c #814045",
"1.	c #3D6B63",
"2.	c #3DA557",
"3.	c #4F6F3F",
"4.	c #654543",
"5.	c #262631",
"6.	c #927D5F",
"7.	c #584D42",
"8.	c #927D5E",
"9.	c #554A41",
"0.	c #245036",
"a.	c #6BB053",
"b.	c #6DC058",
"c.	c #37B050",
"d.	c #329E4A",
"e.	c #276541",
"f.	c #25323B",
"g.	c #9F4D57",
"h.	c #AB5051",
"i.	c #765553",
"j.	c #797C5D",
"k.	c #935D53",
"l.	c #C1806C",
"m.	c #312733",
"n.	c #38323B",
"o.	c #584A4C",
"p.	c #2B2935",
"q.	c #255236",
"r.	c #82C35B",
"s.	c #86CD5E",
"t.	c #4CB653",
"u.	c #38B251",
"v.	c #3BA05A",
"w.	c #3D6A63",
"x.	c #294647",
"y.	c #673F47",
"z.	c #B55555",
"A.	c #B85C58",
"B.	c #BE7163",
"C.	c #C07666",
"D.	c #C17E6B",
"E.	c #5D4D4A",
"F.	c #897065",
"G.	c #443B41",
"H.	c #1E4E35",
"I.	c #37AD4F",
"J.	c #369748",
"K.	c #2C7F41",
"L.	c #1D4D35",
"M.	c #193132",
"N.	c #2B7345",
"O.	c #407B65",
"P.	c #3E6B63",
"Q.	c #2A4848",
"R.	c #282130",
"S.	c #B45454",
"T.	c #B65555",
"U.	c #B9625B",
"V.	c #A0675A",
"W.	c #222030",
"X.	c #7F6860",
"Y.	c #413940",
"Z.	c #1C4734",
"`.	c #161D2E",
" +	c #182231",
".+	c #3D6962",
"++	c #3A655F",
"@+	c #417168",
"#+	c #2E4F4E",
"$+	c #442B42",
"%+	c #9B4C57",
"&+	c #9C4C57",
"*+	c #733B4A",
"=+	c #4D2F46",
"-+	c #215B38",
";+	c #2E4B39",
">+	c #423C40",
",+	c #1E2730",
"'+	c #172030",
")+	c #365E59",
"!+	c #375E59",
"~+	c #432F44",
"{+	c #894658",
"]+	c #98484B",
"^+	c #8C444B",
"/+	c #2F9447",
"(+	c #3D6B3C",
"_+	c #84BD59",
":+	c #5B8E47",
"<+	c #3B283E",
"[+	c #50354C",
"}+	c #416E66",
"|+	c #4A4F56",
"1+	c #5D3853",
"2+	c #80435A",
"3+	c #AF5356",
"4+	c #7F3D43",
"5+	c #2B2030",
"6+	c #1C4533",
"7+	c #5E9B4C",
"8+	c #76C65B",
"9+	c #339648",
"0+	c #17252F",
"a+	c #191D2F",
"b+	c #5C3752",
"c+	c #4B3248",
"d+	c #673C5A",
"e+	c #683C5A",
"f+	c #87424C",
"g+	c #97484A",
"h+	c #763E42",
"i+	c #482C36",
"j+	c #2C8944",
"k+	c #297D40",
"l+	c #17262F",
"m+	c #2E9146",
"n+	c #36393B",
"o+	c #675551",
"p+	c #695650",
"q+	c #735E56",
"r+	c #504243",
"s+	c #4E4144",
"t+	c #594A4C",
"u+	c #998264",
"v+	c #A08768",
"w+	c #917962",
"x+	c #9F8667",
"y+	c #7F6B57",
"z+	c #2B2C35",
"A+	c #1A2B30",
"B+	c #1A2F30",
"C+	c #202231",
"D+	c #4D4144",
"E+	c #4F4344",
"F+	c #4E4242",
"G+	c #4D3A45",
"H+	c #493244",
"I+	c #493344",
"J+	c #483144",
"K+	c #55324B",
"L+	c #54324A",
"M+	c #705C55",
"N+	c #41383F",
"O+	c #215F39",
"P+	c #1C4433",
"Q+	c #493E42",
"R+	c #62514F",
"S+	c #5F4F4C",
"T+	c #5E4F4F",
"U+	c #492F46",
"V+	c #904858",
"W+	c #9F4D56",
"X+	c #B25354",
"Y+	c #B15354",
"Z+	c #70373E",
"`+	c #242431",
" @	c #1A1E2F",
".@	c #212231",
"+@	c #796359",
"@@	c #584948",
"#@	c #5C4C49",
"$@	c #2C2236",
"%@	c #412A41",
"&@	c #332437",
"*@	c #281F30",
"=@	c #291F30",
"-@	c #2C2030",
"                                                                                                                                ",
"                                                                                                                                ",
"                                                                                                                                ",
"                                                                                                                                ",
"                                                                                                                                ",
"                                                                                                                                ",
"                                                                                                                                ",
"                                                                                                                                ",
"                                                                                                                                ",
"                                                                                                                                ",
"                                                                                                                                ",
"                                                                                                                                ",
"                                                                                                                                ",
"                                                                                                                                ",
"                                                                                                                                ",
"                                                                                                                                ",
"                                                                                                                                ",
"                                                                              . .     + @ #                                     ",
"                                                                                        $ %                                     ",
"                                                                                        & *                                     ",
"                                                                                + + + = +                                       ",
"                                                                              + - ; > , - +                                     ",
"                                                                  ' )         ! ~ { ] + +                                       ",
"                                                              ^ / ( _         : < [ } |                                         ",
"                                                  1 2       3 4 5 6 7 8     9 0 a b c                                           ",
"                                                  d e f g h i j k l m n o p q r s t u v                                         ",
"                                                  w x y z A B C D E F G H I J K L M N O                                         ",
"                                                    P Q R S T U V W X Y Z `    ...+.@.#.                                        ",
"                                                    $.%.&.*.=.-.-.;.>.,.'.).  !.~.{.].^.                                        ",
"                                                  /.(._.:.<.[.B }.|.1.2.3.4.  5.6.7.8.9.                                        ",
"                                                0.a.b.c.d.e.f.4 g.h.i.j.k.l.m.  n.o.p.                                          ",
"                                              q.r.s.t.c.u.v.w.x.y.z.A.B.C.D.m.  E.F.G.                                          ",
"                                            H.I.J.K.L.M.N.O.P.Q.R.S.T.T.U.V.W.  E.X.Y.                                          ",
"                                            Z.H.`.   +.+++@+@+#+$+%+}.&+*+=+  -+;+>+,+                                          ",
"                                                    '+)+@+@+!+~+{+-.z.-.]+^+  /+(+_+:+                                          ",
"                                                    <+[+}+|+1+%.2+3+T.z.4+5+3 6+7+8+9+                                          ",
"                                                0+a+b+A c+d+e+e+A f+]+g+h+i+3 3 j+c.k+                                          ",
"                                              l+m+n+o+p+q+r+s+t+u+v+v+w+x+y+    z+A+                                            ",
"                                              w I.B+C+D+E+F+s+G+H+I+I+J+K+L+    M+N+                                            ",
"                                                O+P+Q+R+S+T+U+d+%.%.V+W+X+Y+Z+  `+ @                                            ",
"                                                    .@+@.@@@#@$@%@%@&@*@=@-@                                                    ",
"                                                    3 3               3 3                                                       ",
"                                                    3 3                 3 3                                                     ",
"                                                                                                                                ",
"                                                                                                                                ",
"                                                                                                                                ",
"                                                                                                                                ",
"                                                                                                                                ",
"                                                                                                                                ",
"                                                                                                                                ",
"                                                                                                                                ",
"                                                                                                                                ",
"                                                                                                                                ",
"                                                                                                                                ",
"                                                                                                                                ",
"                                                                                                                                ",
"                                                                                                                                ",
"                                                                                                                                ",
"                                                                                                                                ",
"                                                                                                                                ",
"                                                                                                                                ",
"                                                                                                                                ",
"                                                                                                                                ",
"                                                                                                                                "};
