/* XPM */
static char * len5_xpm[] = {
"64 64 280 2",
"  	c None",
". 	c #9E7466",
"+ 	c #D9945F",
"@ 	c #EAC155",
"# 	c #DEA25C",
"$ 	c #F0CD51",
"% 	c #EFCB52",
"& 	c #D9955F",
"* 	c #EECA52",
"= 	c #DEA35C",
"- 	c #312733",
"; 	c #4A3539",
"> 	c #DA965F",
", 	c #E7B857",
"' 	c #E2AC5A",
") 	c #4A2935",
"! 	c #B57263",
"~ 	c #7B534C",
"{ 	c #F3D353",
"] 	c #FEF08B",
"^ 	c #FEEB45",
"/ 	c #DDA35B",
"( 	c #C18456",
"_ 	c #1D282F",
": 	c #1E2A2F",
"< 	c #161C2E",
"[ 	c #3C273C",
"} 	c #B0625A",
"| 	c #BD6D61",
"1 	c #AF7463",
"2 	c #2A2431",
"3 	c #CE9059",
"4 	c #FEEF8C",
"5 	c #FFF3A6",
"6 	c #F4D54E",
"7 	c #AB754F",
"8 	c #406D3D",
"9 	c #70A34F",
"0 	c #171D2E",
"a 	c #462835",
"b 	c #6E363E",
"c 	c #4F2F46",
"d 	c #A55C5D",
"e 	c #BB685E",
"f 	c #C5826D",
"g 	c #78514B",
"h 	c #17252F",
"i 	c #507440",
"j 	c #1B252F",
"k 	c #B88152",
"l 	c #FEEB52",
"m 	c #FFF7C5",
"n 	c #956648",
"o 	c #193030",
"p 	c #73C059",
"q 	c #222F30",
"r 	c #37263B",
"s 	c #6A3D59",
"t 	c #AD5256",
"u 	c #A14C4E",
"v 	c #88434D",
"w 	c #B05356",
"x 	c #B7615B",
"y 	c #50543F",
"z 	c #459A4A",
"A 	c #8BCD5F",
"B 	c #263631",
"C 	c #A9744E",
"D 	c #F3D55A",
"E 	c #FFFCED",
"F 	c #AA784D",
"G 	c #2A6D3D",
"H 	c #53324B",
"I 	c #8B4247",
"J 	c #663440",
"K 	c #5F3750",
"L 	c #994B58",
"M 	c #AE5256",
"N 	c #AE5255",
"O 	c #775553",
"P 	c #399D54",
"Q 	c #7FCA5D",
"R 	c #68954B",
"S 	c #7E5741",
"T 	c #DEBB74",
"U 	c #FAEFB8",
"V 	c #F1E1A1",
"W 	c #A87B55",
"X 	c #50314B",
"Y 	c #6A3D5B",
"Z 	c #9A4B58",
"` 	c #B45455",
" .	c #A24E57",
"..	c #A34F57",
"+.	c #9A5152",
"@.	c #3E6D63",
"#.	c #59B956",
"$.	c #83BD59",
"%.	c #202D30",
"&.	c #343135",
"*.	c #D8BE8D",
"=.	c #EDDFA9",
"-.	c #CCB88A",
";.	c #6D5E4C",
">.	c #492E46",
",.	c #58354F",
"'.	c #713E56",
").	c #924958",
"!.	c #A85056",
"~.	c #B55555",
"{.	c #8E4E4E",
"].	c #407167",
"^.	c #5AB558",
"/.	c #5B8345",
"(.	c #242130",
"_.	c #383738",
":.	c #CDB788",
"<.	c #8C795D",
"[.	c #D7BC8B",
"}.	c #6F5F4C",
"|.	c #182B2F",
"1.	c #438443",
"2.	c #53A04C",
"3.	c #309548",
"4.	c #297C40",
"5.	c #1E2C32",
"6.	c #412C42",
"7.	c #5F3853",
"8.	c #A14E57",
"9.	c #97474A",
"0.	c #3F5955",
"a.	c #448F5E",
"b.	c #65433E",
"c.	c #B67967",
"d.	c #574B42",
"e.	c #50463F",
"f.	c #534940",
"g.	c #282832",
"h.	c #1D2D30",
"i.	c #6AA850",
"j.	c #92D361",
"k.	c #64BF57",
"l.	c #38B251",
"m.	c #3A9E59",
"n.	c #365E59",
"o.	c #1D2433",
"p.	c #7D404D",
"q.	c #B65555",
"r.	c #B65C58",
"s.	c #BD7364",
"t.	c #C3816D",
"u.	c #4B4043",
"v.	c #735F5B",
"w.	c #37313B",
"x.	c #183030",
"y.	c #349D4A",
"z.	c #62BC56",
"A.	c #49A44D",
"B.	c #297D40",
"C.	c #256F3D",
"D.	c #33984D",
"E.	c #3E8B61",
"F.	c #3E6C64",
"G.	c #2E4F4E",
"H.	c #303039",
"I.	c #B45554",
"J.	c #BB665E",
"K.	c #BC695F",
"L.	c #C07667",
"M.	c #B87A68",
"N.	c #5E4E4A",
"O.	c #897065",
"P.	c #483E43",
"Q.	c #215C38",
"R.	c #171F2F",
"S.	c #335754",
"T.	c #305250",
"U.	c #417067",
"V.	c #417168",
"W.	c #332437",
"X.	c #AD5255",
"Y.	c #B25E5B",
"Z.	c #955A54",
"`.	c #5A3C45",
" +	c #554746",
".+	c #332E39",
"++	c #182231",
"@+	c #3D6A62",
"#+	c #3D6A63",
"$+	c #353F46",
"%+	c #A34E57",
"&+	c #A95156",
"*+	c #A14E56",
"=+	c #7D3F4D",
"-+	c #225B38",
";+	c #3F5839",
">+	c #3C5738",
",+	c #1C1D30",
"'+	c #3B3945",
")+	c #395F5B",
"!+	c #4C3C4D",
"~+	c #633A57",
"{+	c #B55454",
"]+	c #753940",
"^+	c #7E3D42",
"/+	c #2C8743",
"(+	c #507740",
"_+	c #92D261",
":+	c #539649",
"<+	c #1A1D2F",
"[+	c #57344F",
"}+	c #693D5B",
"|+	c #564957",
"1+	c #64455C",
"2+	c #9F4B4D",
"3+	c #452734",
"4+	c #16212E",
"5+	c #529E4C",
"6+	c #59BB55",
"7+	c #2F9447",
"8+	c #26703D",
"9+	c #235E39",
"0+	c #4B3047",
"a+	c #4C3147",
"b+	c #462F44",
"c+	c #583550",
"d+	c #55364D",
"e+	c #693B42",
"f+	c #743E41",
"g+	c #743F42",
"h+	c #7B6553",
"i+	c #615147",
"j+	c #256E3C",
"k+	c #23643A",
"l+	c #37AF50",
"m+	c #319448",
"n+	c #625250",
"o+	c #67554F",
"p+	c #8A7164",
"q+	c #504343",
"r+	c #655451",
"s+	c #705C55",
"t+	c #7D6A59",
"u+	c #A08768",
"v+	c #907861",
"w+	c #786653",
"x+	c #605148",
"y+	c #423940",
"z+	c #292834",
"A+	c #17262F",
"B+	c #2C8944",
"C+	c #2A7444",
"D+	c #1C1F2F",
"E+	c #4D4142",
"F+	c #4C4043",
"G+	c #3A293D",
"H+	c #5A354F",
"I+	c #5D364F",
"J+	c #844355",
"K+	c #834354",
"L+	c #292030",
"M+	c #685650",
"N+	c #39323B",
"O+	c #675551",
"P+	c #60504E",
"Q+	c #43393E",
"R+	c #6F5C58",
"S+	c #4E3A45",
"T+	c #673C5A",
"U+	c #683C5A",
"V+	c #894450",
"W+	c #96474B",
"X+	c #72383F",
"Y+	c #442734",
"Z+	c #514443",
"`+	c #1F2130",
" @	c #282633",
".@	c #4B4041",
"+@	c #1E1E30",
"@@	c #191D2F",
"                                                                                                                                ",
"                                                                                                                                ",
"                                                                                                                                ",
"                                                                                                                                ",
"                                                                                                                                ",
"                                                                                                                                ",
"                                                                                                                                ",
"                                                                                                                                ",
"                                                                                                                                ",
"                                                                                                                                ",
"                                                                                                                                ",
"                                                                                                                                ",
"                                                                                                                                ",
"                                                                                                                                ",
"                                                                                                                                ",
"                                                                                                                                ",
"                                                                                                                                ",
"                                                                                .   + + +                                       ",
"                                                                              .         @ #                                     ",
"                                                                                      + $ % +                                   ",
"                                                                                    + & * = +                                   ",
"                                                                  - ;           > = , ' + +                                     ",
"                                                                ) ! ~         > { ] ^ / (                                       ",
"                                                  _ :       < [ } | 1 2       3 4 5 6 7                                         ",
"                                                  8 9 0   a b c d e f g h i j k l m 6 n                                         ",
"                                                  o p q r s t u v w x y z A B C D E l F                                         ",
"                                                    G H I J K L M N O P Q R   S T U V W                                         ",
"                                                    X Y Z ` N  ...+.@.#.$.%.  &.*.=.-.;.                                        ",
"                                                  < >.,.,.'.).!.~.{.].^./.(.  _.:.<.[.}.                                        ",
"                                                |.1.2.3.4.5.6.7.8.9.0.a.b.c.2   d.e.f.g.                                        ",
"                                              h.i.j.k.l.l.m.n.o.p.q.r.s.t.t.-   u.v.w.                                          ",
"                                            x.y.z.A.B.C.D.E.F.G.H.I.J.K.L.M.2   N.O.P.                                          ",
"                                            Q.4.x.  R.S.T.U.V.G.W.X.~.Y.Z.`.     +v..+                                          ",
"                                                    ++@+V.V.#+$+'.%+&+%+*+=+  4.-+;+>+                                          ",
"                                                    ,+'+U.)+!+~+).~.q.{+]+^+  /+(+_+:+                                          ",
"                                                  <+[+}+|+1+}+}+}+ .q.q.2+3+< 4+5+6+7+                                          ",
"                                                8+9+0+a+b+[+,.c+d+e+f+g+h+i+  < j+3.k+                                          ",
"                                              x.l+m+n+o+p+q+r+s+t+u+u+v+w+x+    y+z+                                            ",
"                                              A+B+C+D+E+F+E+G+a+,.,.H+I+J+K+L+  M+N+                                            ",
"                                                  < O+P+Q+R+S+c+T+U+V+W+9.X+Y+                                                  ",
"                                                    Z+`+<  @.@< +@+@@@< <                                                       ",
"                                                    < <               < <                                                       ",
"                                                    < <                 < <                                                     ",
"                                                                                                                                ",
"                                                                                                                                ",
"                                                                                                                                ",
"                                                                                                                                ",
"                                                                                                                                ",
"                                                                                                                                ",
"                                                                                                                                ",
"                                                                                                                                ",
"                                                                                                                                ",
"                                                                                                                                ",
"                                                                                                                                ",
"                                                                                                                                ",
"                                                                                                                                ",
"                                                                                                                                ",
"                                                                                                                                ",
"                                                                                                                                ",
"                                                                                                                                ",
"                                                                                                                                ",
"                                                                                                                                ",
"                                                                                                                                ",
"                                                                                                                                "};
