/* XPM */
static char * len6_xpm[] = {
"64 64 291 2",
"  	c None",
". 	c #CB8C61",
"+ 	c #AF7D64",
"@ 	c #D9945F",
"# 	c #9E7466",
"$ 	c #A07566",
"% 	c #DA965F",
"& 	c #E2AD5A",
"* 	c #DA975F",
"= 	c #FAE349",
"- 	c #E3AE5A",
"; 	c #52383C",
"> 	c #222030",
", 	c #DEA35C",
"' 	c #EFCC51",
") 	c #E1AC59",
"! 	c #171C2E",
"~ 	c #73383F",
"{ 	c #BC7364",
"] 	c #342933",
"^ 	c #DA975E",
"/ 	c #E3AF59",
"( 	c #FAE672",
"_ 	c #F3D353",
": 	c #CC8B5A",
"< 	c #223030",
"[ 	c #191D2F",
"} 	c #5E3546",
"| 	c #BE7465",
"1 	c #BD6D62",
"2 	c #8A5C52",
"3 	c #AD764F",
"4 	c #E7B957",
"5 	c #FEEB4A",
"6 	c #FFEF73",
"7 	c #FFF3A1",
"8 	c #E7B85B",
"9 	c #986849",
"0 	c #669C4C",
"a 	c #50733F",
"b 	c #4E2C3B",
"c 	c #5F313A",
"d 	c #5E3752",
"e 	c #AA6C66",
"f 	c #BB685E",
"g 	c #C07C6A",
"h 	c #2C2531",
"i 	c #243731",
"j 	c #4C6E3E",
"k 	c #916746",
"l 	c #FAE44D",
"m 	c #FFF5B6",
"n 	c #FFF5B5",
"o 	c #F3D34F",
"p 	c #CC8D5A",
"q 	c #2D713D",
"r 	c #71AB52",
"s 	c #161C2E",
"t 	c #4F304A",
"u 	c #75405A",
"v 	c #AC5255",
"w 	c #8E4448",
"x 	c #7E4256",
"y 	c #AE5356",
"z 	c #A55A54",
"A 	c #28603A",
"B 	c #76BD58",
"C 	c #7CB255",
"D 	c #B88152",
"E 	c #FEEF8F",
"F 	c #FFFBE2",
"G 	c #FBE451",
"H 	c #CD8F5A",
"I 	c #63453A",
"J 	c #23663A",
"K 	c #324D3C",
"L 	c #713B4E",
"M 	c #803E44",
"N 	c #593142",
"O 	c #683B57",
"P 	c #924958",
"Q 	c #B35455",
"R 	c #9E4C53",
"S 	c #566057",
"T 	c #3EB152",
"U 	c #91D160",
"V 	c #3F5B39",
"W 	c #8B6447",
"X 	c #F0E0A9",
"Y 	c #FAEB95",
"Z 	c #EDD370",
"` 	c #60443A",
" .	c #1C1D30",
"..	c #623A56",
"+.	c #6B3E5B",
"@.	c #914958",
"#.	c #AD5255",
"$.	c #A75056",
"%.	c #A24E57",
"&.	c #AA5156",
"*.	c #765553",
"=.	c #3E8A61",
"-.	c #63BE57",
";.	c #68954B",
">.	c #847157",
",.	c #E3CE9A",
"'.	c #ECDCA6",
").	c #B69F77",
"!.	c #2D2B33",
"~.	c #1A1D2F",
"{.	c #57344F",
"].	c #58354F",
"^.	c #583550",
"/.	c #6A3D5A",
"(.	c #8A4659",
"_.	c #A85056",
":.	c #B55455",
"<.	c #665855",
"[.	c #3F8463",
"}.	c #60BA56",
"|.	c #2A3632",
"1.	c #1F1F2F",
"2.	c #8E8266",
"3.	c #AB9671",
"4.	c #B59E76",
"5.	c #C9AE80",
"6.	c #2C2A33",
"7.	c #214D35",
"8.	c #539649",
"9.	c #449A4A",
"0.	c #2F9447",
"a.	c #226039",
"b.	c #2D2A38",
"c.	c #492E46",
"d.	c #723E56",
"e.	c #AE5255",
"f.	c #733B41",
"g.	c #456B62",
"h.	c #3E864F",
"i.	c #945A52",
"j.	c #976558",
"k.	c #242431",
"l.	c #6C5D4B",
"m.	c #292832",
"n.	c #564B41",
"o.	c #181D2E",
"p.	c #3D5B39",
"q.	c #7DC15A",
"r.	c #8CD060",
"s.	c #4BB753",
"t.	c #38B251",
"u.	c #38B151",
"v.	c #3D8960",
"w.	c #2B4849",
"x.	c #2D2739",
"y.	c #B55555",
"z.	c #B7615B",
"A.	c #BF7A68",
"B.	c #C4816D",
"C.	c #A56E5E",
"D.	c #655451",
"E.	c #685755",
"F.	c #1B1F2F",
"G.	c #23643A",
"H.	c #48AC50",
"I.	c #62BC56",
"J.	c #369748",
"K.	c #256F3D",
"L.	c #297D40",
"M.	c #379C54",
"N.	c #407B66",
"O.	c #3A655F",
"P.	c #294547",
"Q.	c #71383F",
"R.	c #B65555",
"S.	c #B65656",
"T.	c #B75756",
"U.	c #BD6C61",
"V.	c #976458",
"W.	c #7E675C",
"X.	c #79645D",
"Y.	c #287A40",
"Z.	c #182E30",
"`.	c #1F3139",
" +	c #365E59",
".+	c #345955",
"++	c #417168",
"@+	c #406F67",
"#+	c #1F323A",
"$+	c #6A3745",
"%+	c #B45455",
"&+	c #A54E53",
"*+	c #834249",
"=+	c #322537",
"-+	c #715D56",
";+	c #5D4E50",
">+	c #253E42",
",+	c #417067",
"'+	c #375E59",
")+	c #453849",
"!+	c #894658",
"~+	c #A95156",
"{+	c #A44F57",
"]+	c #A04D56",
"^+	c #563041",
"/+	c #2C8743",
"(+	c #1F2E31",
"_+	c #4E6F3F",
":+	c #1D282F",
"<+	c #2D2337",
"[+	c #3C5253",
"}+	c #52344C",
"|+	c #A65057",
"1+	c #A44D4F",
"2+	c #7F3D43",
"3+	c #5E303A",
"4+	c #2C8843",
"5+	c #73A550",
"6+	c #8CCF5F",
"7+	c #276139",
"8+	c #5D3753",
"9+	c #683E5B",
"0+	c #524E59",
"a+	c #683D5B",
"b+	c #693D5B",
"c+	c #6C3E5B",
"d+	c #AE5256",
"e+	c #B55454",
"f+	c #8A4246",
"g+	c #422634",
"h+	c #1C3030",
"i+	c #61BB56",
"j+	c #256F3C",
"k+	c #26703D",
"l+	c #235E39",
"m+	c #4B3047",
"n+	c #4C3147",
"o+	c #462F44",
"p+	c #55364D",
"q+	c #693B42",
"r+	c #743E41",
"s+	c #743F42",
"t+	c #7B6553",
"u+	c #615147",
"v+	c #17232F",
"w+	c #2C8944",
"x+	c #2F9347",
"y+	c #193330",
"z+	c #183030",
"A+	c #37AF50",
"B+	c #319448",
"C+	c #625250",
"D+	c #67554F",
"E+	c #8A7164",
"F+	c #504343",
"G+	c #705C55",
"H+	c #7D6A59",
"I+	c #A08768",
"J+	c #907861",
"K+	c #786653",
"L+	c #605148",
"M+	c #1C1F30",
"N+	c #483E43",
"O+	c #181D2F",
"P+	c #17262F",
"Q+	c #2A7444",
"R+	c #1C1F2F",
"S+	c #4D4142",
"T+	c #4C4043",
"U+	c #3A293D",
"V+	c #5A354F",
"W+	c #5D364F",
"X+	c #844355",
"Y+	c #834354",
"Z+	c #292030",
"`+	c #6F5C55",
" @	c #544748",
".@	c #43393E",
"+@	c #6F5C58",
"@@	c #4D3945",
"#@	c #673C5A",
"$@	c #683C5A",
"%@	c #894450",
"&@	c #96474B",
"*@	c #97474A",
"=@	c #72383F",
"-@	c #442734",
";@	c #514444",
">@	c #41383C",
",@	c #3A3339",
"'@	c #1E1E30",
"                                                                                                                                ",
"                                                                                                                                ",
"                                                                                                                                ",
"                                                                                                                                ",
"                                                                                                                                ",
"                                                                                                                                ",
"                                                                                                                                ",
"                                                                                                                                ",
"                                                                                                                                ",
"                                                                                                                                ",
"                                                                                                                                ",
"                                                                                                                                ",
"                                                                                                                                ",
"                                                                                                                                ",
"                                                                                                                                ",
"                                                                                                                                ",
"                                                                                                                                ",
"                                                                                                                                ",
"                                                                                . +   @ @                                       ",
"                                                                            # $       % & @                                     ",
"                                                                                      * = -                                     ",
"                                                                  ; >             @ @ , ' )                                     ",
"                                                              ! ~ { ]           @ ^ / ( _ :                                     ",
"                                                  <         [ } | 1 2         3 4 5 6 7 8 9                                     ",
"                                                  0 a   [ b c d e f g h i j   k l m n o p                                       ",
"                                                  q r s t u v w x y z A B C   D E F G H I                                       ",
"                                                  J K L M N O P Q R S T U V   W X Y Z `                                         ",
"                                                   ...+.@.#.$.%.&.*.=.-.;.    >.,.'.).!.                                        ",
"                                                  ~.{.].^./.(._.:.<.[.}.|.1.  2.3.4.5.6.                                        ",
"                                                7.8.9.0.a.b.c.d.e.f.g.h.i.j.  k.l.m.n.o.                                        ",
"                                              p.q.r.s.t.u.v.w.x.R y.z.A.B.C.    D.E.F.                                          ",
"                                            G.H.I.J.K.L.M.N.O.P.Q.R.S.T.U.V.    W.X.                                            ",
"                                            Y.a.Z.  `. +.+++@+#+$+%+%+&+*+=+    -+;+                                            ",
"                                                    >+,+++++'+)+!+~+{+%.]+^+  /+(+_+:+                                          ",
"                                                    <+[+++[+}+/.|+R.R.1+2+3+  4+5+6+7+                                          ",
"                                                  [ 8+9+0+a+b+b+c+d+R.e+f+g+s h+i+s.j+                                          ",
"                                                k+l+m+n+o+{.].^.p+q+r+s+t+u+  v+w+x+y+                                          ",
"                                              z+A+B+C+D+E+F+D.G+H+I+I+J+K+L+  M+N+O+                                            ",
"                                              P+w+Q+R+S+T+S+U+n+].].V+W+X+Y+Z+k.`+F.                                            ",
"                                                  R+G+ @.@+@@@^.#@$@%@&@*@=@-@                                                  ",
"                                                    ;@s s >@,@s '@'@[ s s                                                       ",
"                                                    s s               s s                                                       ",
"                                                    s s                 s s                                                     ",
"                                                                                                                                ",
"                                                                                                                                ",
"                                                                                                                                ",
"                                                                                                                                ",
"                                                                                                                                ",
"                                                                                                                                ",
"                                                                                                                                ",
"                                                                                                                                ",
"                                                                                                                                ",
"                                                                                                                                ",
"                                                                                                                                ",
"                                                                                                                                ",
"                                                                                                                                ",
"                                                                                                                                ",
"                                                                                                                                ",
"                                                                                                                                ",
"                                                                                                                                ",
"                                                                                                                                ",
"                                                                                                                                ",
"                                                                                                                                ",
"                                                                                                                                "};
