/* XPM */
static char * dp3_xpm[] = {
"64 64 151 2",
"  	c None",
". 	c #161C2E",
"+ 	c #151B2E",
"@ 	c #3D3738",
"# 	c #CBAC7D",
"$ 	c #D2B888",
"% 	c #E4D7A4",
"& 	c #716B58",
"* 	c #484641",
"= 	c #826F56",
"- 	c #D5B583",
"; 	c #DBC08E",
"> 	c #EFE1AB",
", 	c #F0E4B4",
"' 	c #FDFBF5",
") 	c #F1E5B7",
"! 	c #DEC592",
"~ 	c #C8AB7D",
"{ 	c #03132C",
"] 	c #06152C",
"^ 	c #D7B684",
"/ 	c #F2E7BD",
"( 	c #F0E3B1",
"_ 	c #FCFAF3",
": 	c #FCFAF2",
"< 	c #DBCE9C",
"[ 	c #0C162C",
"} 	c #000E2B",
"| 	c #C9AB7C",
"1 	c #DDC390",
"2 	c #EFE1AD",
"3 	c #F3E9C4",
"4 	c #F4EAC7",
"5 	c #FFFFFF",
"6 	c #FFFFFE",
"7 	c #EFE1AA",
"8 	c #E0D3A1",
"9 	c #00092A",
"0 	c #02132C",
"a 	c #A88F6A",
"b 	c #D5B482",
"c 	c #EAD9A4",
"d 	c #F0E2AC",
"e 	c #8D866A",
"f 	c #817A62",
"g 	c #2A2C34",
"h 	c #948C6E",
"i 	c #F8F3E0",
"j 	c #F5EDD0",
"k 	c #DED1A0",
"l 	c #000329",
"m 	c #00072A",
"n 	c #D8B885",
"o 	c #D6B684",
"p 	c #857E64",
"q 	c #151C2E",
"r 	c #141B2E",
"s 	c #91896C",
"t 	c #FDFAF3",
"u 	c #B6B1A1",
"v 	c #968D6F",
"w 	c #F3E5AE",
"x 	c #000026",
"y 	c #000028",
"z 	c #D7B784",
"A 	c #C8AD7F",
"B 	c #1A1F2F",
"C 	c #3C3B3B",
"D 	c #EEE0A9",
"E 	c #000226",
"F 	c #C1B68C",
"G 	c #8C755E",
"H 	c #D6B583",
"I 	c #B79C72",
"J 	c #6E6856",
"K 	c #000729",
"L 	c #171C2E",
"M 	c #715C55",
"N 	c #BA9C78",
"O 	c #B79B72",
"P 	c #726C59",
"Q 	c #CCAD7F",
"R 	c #09162D",
"S 	c #323237",
"T 	c #6E6956",
"U 	c #C2B78C",
"V 	c #5D4D4A",
"W 	c #967A6B",
"X 	c #CBAC7F",
"Y 	c #C7A97B",
"Z 	c #796851",
"` 	c #212531",
" .	c #E7D9A5",
"..	c #464440",
"+.	c #00001C",
"@.	c #000022",
"#.	c #D5C999",
"$.	c #121A2D",
"%.	c #7B655A",
"&.	c #C6A77D",
"*.	c #CAAB7F",
"=.	c #D6B785",
"-.	c #EFE0AA",
";.	c #D3C798",
">.	c #E9DCA7",
",.	c #FEFDFA",
"'.	c #F5EDCE",
").	c #A09776",
"!.	c #60504B",
"~.	c #8E7365",
"{.	c #B79977",
"].	c #EEE0AA",
"^.	c #FBF7EC",
"/.	c #FDFDFD",
"(.	c #5E6065",
"_.	c #DBCE9D",
":.	c #F8F3E1",
"<.	c #FBF8EF",
"[.	c #8E866A",
"}.	c #A0866B",
"|.	c #DBC08D",
"1.	c #EBDBA5",
"2.	c #E9DBA9",
"3.	c #2C2D34",
"4.	c #EADAA4",
"5.	c #44433F",
"6.	c #786750",
"7.	c #E3D5A2",
"8.	c #EDDFAA",
"9.	c #6B604E",
"0.	c #EDDDA8",
"a.	c #EBDDA8",
"b.	c #E3D6A3",
"c.	c #D1B180",
"d.	c #EFE2AC",
"e.	c #A19876",
"f.	c #212431",
"g.	c #62594B",
"h.	c #D8BB88",
"i.	c #7E7760",
"j.	c #AF956D",
"k.	c #555248",
"l.	c #565348",
"m.	c #1F2330",
"n.	c #60574A",
"o.	c #E8DAA6",
"p.	c #7A735D",
"q.	c #0F182D",
"r.	c #E2CF9C",
"s.	c #303036",
"t.	c #131A2D",
"                                                                                                                                ",
"                                                                                                                                ",
"                                                                                                                                ",
"                                                                                                                                ",
"                                                                                                                                ",
"                                                                                                                                ",
"                                                                                                                                ",
"                                                                                                                                ",
"                                                                                                                                ",
"                                                                                                                                ",
"                                                                                                                                ",
"                                                                                                                                ",
"                                                                                                                                ",
"                                                                                                                                ",
"                                                                                                                                ",
"                                                                                                                                ",
"                                                                                                                                ",
"                                                                                                                                ",
"                                                                                                                                ",
"                                                                                                                                ",
"                                                                                                                                ",
"                                                                                                                                ",
"                                                                          . . .                                                 ",
"                                                                      . . . . . . . .                                           ",
"                                                                  . + @ # $ % % % & * + .                                       ",
"                                                                . + = - ; > > , ' ) ! ~ { .                                     ",
"                                                                . ] ^ - > > > > / ( _ : < [ .                                   ",
"                                                              . } | - 1 > > > 2 3 4 5 6 7 8 9 .                                 ",
"                                                            . . 0 a b c d e f g h > i j > > k l                                 ",
"                                                            . m n o b d p q . . r s t u v h w x .                               ",
"                                                          . . y z - - A B . . . . C D E . . F x .                               ",
"                                                          . . G H - - I . . . . . C J . . . K L .                               ",
"                                                          . . M N - - O . . . . . C P . . . K L .                               ",
"                                                          . . M Q - - ^ R . . . . S T . . . U x .                               ",
"                                                            . V W X - - Y Z y y `  .> ..+.@.#.x .                               ",
"                                                            . $.%.W &.*.- =.-.7 7 ;.>.> ,.'.)..                                 ",
"                                                              . !.~.W {.=.].> ^./.(._.:.<.7 [..                                 ",
"                                                                . $.}.- |.> > 1.2.3._.> 4.d 5..                                 ",
"                                                                    q 6.7.> 8.9.0.a.].b.c.d.e..                                 ",
"                                                                      . f.8.].g.h.> > i.j.-.e..                                 ",
"                                                                        + k.l.m.n.o.o.p.q.r.s..                                 ",
"                                                                          . . . . t.t.+ . t..                                   ",
"                                                                                                                                ",
"                                                                                                                                ",
"                                                                                                                                ",
"                                                                                                                                ",
"                                                                                                                                ",
"                                                                                                                                ",
"                                                                                                                                ",
"                                                                                                                                ",
"                                                                                                                                ",
"                                                                                                                                ",
"                                                                                                                                ",
"                                                                                                                                ",
"                                                                                                                                ",
"                                                                                                                                ",
"                                                                                                                                ",
"                                                                                                                                ",
"                                                                                                                                ",
"                                                                                                                                ",
"                                                                                                                                ",
"                                                                                                                                ",
"                                                                                                                                ",
"                                                                                                                                "};
