/* XPM */
static char * W1_xpm[] = {
"64 64 368 2",
"  	c #47ABA9",
". 	c #46A9A8",
"+ 	c #46A8A6",
"@ 	c #45A7A5",
"# 	c #368081",
"$ 	c #357E7F",
"% 	c #2F6568",
"& 	c #283F48",
"* 	c #233D46",
"= 	c #3D9393",
"- 	c #45A6A5",
"; 	c #28434B",
"> 	c #4E6E73",
", 	c #679093",
"' 	c #7AAAAC",
") 	c #89BFC0",
"! 	c #4F7174",
"~ 	c #2A6164",
"{ 	c #3E9594",
"] 	c #4F7377",
"^ 	c #699295",
"/ 	c #88BEBF",
"( 	c #8BC1C2",
"_ 	c #8CC3C4",
": 	c #89C0C1",
"< 	c #273E47",
"[ 	c #346B6E",
"} 	c #658F92",
"| 	c #78A8AA",
"1 	c #398182",
"2 	c #507679",
"3 	c #3E9493",
"4 	c #507579",
"5 	c #2B6366",
"6 	c #1B2433",
"7 	c #263540",
"8 	c #8BC2C3",
"9 	c #517175",
"0 	c #2B6467",
"a 	c #2D6568",
"b 	c #3B4F52",
"c 	c #4E6767",
"d 	c #8AC1C2",
"e 	c #7CB2B3",
"f 	c #72A8A9",
"g 	c #84BABB",
"h 	c #77A6A8",
"i 	c #1F303C",
"j 	c #3D9392",
"k 	c #3A4E51",
"l 	c #506A69",
"m 	c #4F6867",
"n 	c #3A5155",
"o 	c #79AEAF",
"p 	c #7BB1B2",
"q 	c #7DB4B4",
"r 	c #9FCAC1",
"s 	c #B1D1BD",
"t 	c #9BC3B7",
"u 	c #70A3A1",
"v 	c #72A4A0",
"w 	c #A5C0AA",
"x 	c #9FBAA5",
"y 	c #5D8485",
"z 	c #2C4149",
"A 	c #365359",
"B 	c #1C2D39",
"C 	c #223E47",
"D 	c #1B2936",
"E 	c #465C5D",
"F 	c #557877",
"G 	c #6B9C9C",
"H 	c #7DB2B1",
"I 	c #9BC2B6",
"J 	c #B1D0BB",
"K 	c #A2CBC0",
"L 	c #90C4C3",
"M 	c #8EC4C4",
"N 	c #A4CBC0",
"O 	c #CBDBB6",
"P 	c #CADAB5",
"Q 	c #AECCB8",
"R 	c #97A388",
"S 	c #414D4B",
"T 	c #4C7477",
"U 	c #639999",
"V 	c #59898A",
"W 	c #4A7275",
"X 	c #3D6265",
"Y 	c #3A595E",
"Z 	c #3A585D",
"` 	c #536F6F",
" .	c #93B6AC",
"..	c #AFCDB9",
"+.	c #C1D7B9",
"@.	c #CDDCB6",
"#.	c #CADBB7",
"$.	c #A0CAC0",
"%.	c #93C5C3",
"&.	c #8EC2C1",
"*.	c #699A9B",
"=.	c #4D7678",
"-.	c #669D9D",
";.	c #5F8F8F",
">.	c #283A43",
",.	c #669C9C",
"'.	c #4D7074",
").	c #3B5F63",
"!.	c #649A9A",
"~.	c #4B7476",
"{.	c #3C5053",
"].	c #496162",
"^.	c #2D3F47",
"/.	c #91B1A5",
"(.	c #A5CCBF",
"_.	c #B2D0BC",
":.	c #B7CDB0",
"<.	c #A1BFAA",
"[.	c #6BA09F",
"}.	c #619292",
"|.	c #526F6E",
"1.	c #3B4E51",
"2.	c #4E7779",
"3.	c #7AAAAB",
"4.	c #368181",
"5.	c #5C8688",
"6.	c #4C7678",
"7.	c #465D5D",
"8.	c #414E4E",
"9.	c #98A388",
"0.	c #C7D7B1",
"a.	c #B3D1BC",
"b.	c #B3D2BC",
"c.	c #CADAB4",
"d.	c #90B3A4",
"e.	c #6A9F9E",
"f.	c #659A9A",
"g.	c #466769",
"h.	c #79A9AB",
"i.	c #428686",
"j.	c #87BCBD",
"k.	c #79AFB0",
"l.	c #50797B",
"m.	c #3F5759",
"n.	c #465D5E",
"o.	c #4F6968",
"p.	c #3D5153",
"q.	c #485452",
"r.	c #B3BF9D",
"s.	c #CBD9B2",
"t.	c #CAD9B3",
"u.	c #CCDBB4",
"v.	c #CBDBB4",
"w.	c #A6C1AA",
"x.	c #70A29F",
"y.	c #689F9F",
"z.	c #679798",
"A.	c #537679",
"B.	c #507175",
"C.	c #378081",
"D.	c #7DC2B9",
"E.	c #8AAB9E",
"F.	c #79AFAF",
"G.	c #689294",
"H.	c #6E9899",
"I.	c #658A89",
"J.	c #3A484A",
"K.	c #374042",
"L.	c #577D7C",
"M.	c #6C9F9D",
"N.	c #6DA09E",
"O.	c #517C7E",
"P.	c #82B8B9",
"Q.	c #5B8B8C",
"R.	c #4D7B7D",
"S.	c #51AEAB",
"T.	c #BEE8D5",
"U.	c #3A474A",
"V.	c #34474D",
"W.	c #79A9AA",
"X.	c #8AC0C1",
"Y.	c #739F9F",
"Z.	c #3F5558",
"`.	c #5A8A8B",
" +	c #527478",
".+	c #ADCEBB",
"++	c #75AAA9",
"@+	c #679E9E",
"#+	c #689E9E",
"$+	c #76BDB5",
"%+	c #519FA4",
"&+	c #BFE8D5",
"*+	c #333F44",
"=+	c #5E8283",
"-+	c #7FB1B1",
";+	c #7EAFB0",
">+	c #4F6A69",
",+	c #5A8B8B",
"'+	c #59797A",
")+	c #9FC7BD",
"!+	c #B1CFBB",
"~+	c #B1C0A0",
"{+	c #9DB29B",
"]+	c #9BC9BD",
"^+	c #47AAA8",
"/+	c #508E9C",
"(+	c #A8CDBD",
"_+	c #28323B",
":+	c #455B5C",
"<+	c #526D6C",
"[+	c #658A8A",
"}+	c #80B2B3",
"|+	c #567978",
"1+	c #5C8887",
"2+	c #659B9B",
"3+	c #435555",
"4+	c #B5C5A4",
"5+	c #CAD8B1",
"6+	c #7A8572",
"7+	c #527879",
"8+	c #51A7A8",
"9+	c #508D9B",
"0+	c #8DACA0",
"a+	c #1B2332",
"b+	c #3E5355",
"c+	c #638887",
"d+	c #8FC4C3",
"e+	c #516D6C",
"f+	c #537070",
"g+	c #619393",
"h+	c #556E6B",
"i+	c #5A726D",
"j+	c #5B8584",
"k+	c #77A19E",
"l+	c #4C9CA2",
"m+	c #47AAA9",
"n+	c #50969F",
"o+	c #8DADA1",
"p+	c #2E3D44",
"q+	c #56706D",
"r+	c #97A48A",
"s+	c #BBD1B5",
"t+	c #B2D1BD",
"u+	c #91C5C3",
"v+	c #87BBBC",
"w+	c #4A6464",
"x+	c #40585A",
"y+	c #567979",
"z+	c #5D8A89",
"A+	c #48686A",
"B+	c #6D9799",
"C+	c #469AA1",
"D+	c #479AA1",
"E+	c #93BFB8",
"F+	c #728C83",
"G+	c #485552",
"H+	c #97A286",
"I+	c #9AA68B",
"J+	c #A0BDA8",
"K+	c #476769",
"L+	c #22313C",
"M+	c #496262",
"N+	c #619191",
"O+	c #557777",
"P+	c #689E9D",
"Q+	c #659492",
"R+	c #91B2A4",
"S+	c #A5CABB",
"T+	c #54909D",
"U+	c #47A9A8",
"V+	c #5097A0",
"W+	c #A9D4C6",
"X+	c #94B5A8",
"Y+	c #5D7874",
"Z+	c #659C9C",
"`+	c #4E7071",
" @	c #3E5356",
".@	c #5D8988",
"+@	c #5A8484",
"@@	c #304046",
"#@	c #455C5D",
"$@	c #598180",
"%@	c #ACD2C0",
"&@	c #C1EBD7",
"*@	c #ADD8CA",
"=@	c #5599A1",
"-@	c #47A2A5",
";@	c #4CA4A6",
">@	c #7BBAB5",
",@	c #91CBBF",
"'@	c #559592",
")@	c #799A91",
"!@	c #556F6D",
"~@	c #4C6565",
"{@	c #699F9F",
"]@	c #6BA1A0",
"^@	c #ACD6C6",
"/@	c #738C83",
"(@	c #405253",
"_@	c #7A978D",
":@	c #95B5A7",
"<@	c #BDE6D3",
"[@	c #9ACCC2",
"}@	c #78BEB6",
"|@	c #92C1B5",
"1@	c #587572",
"2@	c #506A6A",
"3@	c #6FA3A1",
"4@	c #96C3BA",
"5@	c #75A8AB",
"6@	c #7AABAD",
"7@	c #ADD7C9",
"8@	c #AFDACB",
"9@	c #7AACAD",
"0@	c #4CADAA",
"a@	c #73B9B2",
"b@	c #7AA19C",
"c@	c #7C9B92",
"d@	c #597471",
"e@	c #3C5B60",
"f@	c #202E3A",
"g@	c #1E2C38",
"h@	c #649999",
"i@	c #6CA1A0",
"j@	c #6CA2A0",
"k@	c #6FA3A2",
"l@	c #9BC8BD",
"m@	c #A8D4C7",
"n@	c #4F8E9B",
"o@	c #47A8A7",
"p@	c #46919C",
"q@	c #4B8A9A",
"r@	c #4B949E",
"s@	c #46A2A4",
"t@	c #7AABAC",
"u@	c #BCE6D3",
"v@	c #99BCAE",
"w@	c #465959",
"x@	c #334146",
"y@	c #588788",
"z@	c #5B8382",
"A@	c #8FAEA1",
"B@	c #92B1A3",
"C@	c #93B4A7",
"D@	c #C0EAD7",
"E@	c #AAD5C8",
"F@	c #548E9C",
"G@	c #4B939E",
"H@	c #47A1A4",
"I@	c #548F9D",
"J@	c #C2ECD7",
"K@	c #C1EAD5",
"L@	c #ADD3C1",
"M@	c #9ACDC2",
"N@	c #98D1C4",
"O@	c #7BADAE",
"P@	c #47A3A5",
"Q@	c #46919D",
"R@	c #95C2BC",
"S@	c #98C4BD",
"T@	c #95C3BC",
"U@	c #55919D",
"V@	c #51A6A7",
"W@	c #469AA0",
"X@	c #75BEB6",
"Y@	c #91CDC1",
"Z@	c #8FCCC0",
"`@	c #4DADAA",
"                                                                                                                                ",
"                                                                                                                                ",
"                                                                                                                                ",
"                                                                                                                                ",
"                                                                                                                                ",
"                                                                                                                                ",
"                                                                                                                                ",
"                                                                                                                                ",
"                                                                                                                                ",
"                                                                                                                                ",
"                                                                                                                                ",
"                                                                                                                                ",
"                                                                                                                                ",
"                                                                                                                                ",
"                                                                                                                                ",
"                                                                                                                                ",
"                                                                    . + + +                                                     ",
"                                                            @ # $ $ % & & * = .                                                 ",
"                                                      . - $ ; > , , ' ) ) ' ! ~ {                                               ",
"                                                  . { % ] ^ / ( _ _ _ _ _ _ : , < =                                             ",
"                                                @ [ } ' ( _ _ _ _ _ _ _ _ _ _ _ | < =                                           ",
"                                            @ 1 2 ' _ _ _ _ _ _ _ _ _ _ _ _ _ _ _ | < =                                         ",
"                                          3 4 ' ( _ _ _ _ _ _ _ _ _ _ _ _ _ _ _ _ _ | < {                                       ",
"                                      + $ < / _ _ _ _ _ _ _ _ _ _ _ _ _ _ _ _ _ _ _ _ , ~ +                                     ",
"                                    + 5 6 7 / _ _ _ _ _ _ _ _ _ _ _ _ _ _ _ _ _ 8 8 8 : 9 0 .                                   ",
"                                  + a b c b , _ _ _ _ _ _ _ _ _ _ _ _ _ _ _ _ d e f f g h i j +                                 ",
"                                . $ k l l m n o p e q 8 _ _ _ _ _ _ _ _ r s t u v w x y z A B C =                               ",
"                              + 0 D E l l l F G H I J K L M _ _ _ _ _ _ M N O P Q R S T U V W U X =                             ",
"                            . 0 Y Z c l l l l `  ...+.@.#.$._ _ _ _ _ _ _ L %.&.*.=.U -.-.;.>.U ,.'.{                           ",
"                            - ).!.~.{.l l l l l ].^./.(.%._ _ _ _ _ L K _.:.<.[.-.-.-.-.}.|.1.2.p 3.% .                         ",
"                            4.5.f 6.k l l l l l l 7.8.9.0.a.K L K b.@.c.d.e.-.-.-.-.-.-.,.f.g.h.8 ( ] -                         ",
"                            i.j.8 k.l.m.n.o.l l l l m p.q.r.s.t.u.v.w.x.-.-.-.-.-.-.-.-.y.z.A.( _ ( B.C.                        ",
"                          D.E., _ _ d F.G.H.I.l l l l l m J.K.L.M.N.-.-.-.-.-.-.-.-.U O.P.( ( _ 8 P.Q.R.+                       ",
"                        S.T.U.V.W.( _ _ _ _ X.Y.` l l l l o.Z.!.-.-.-.-.-.-.-.-.-.`. +' _ L K .+++@+-.#+$+                      ",
"                        %+&+*+E ].=+Y.-+8 _ _ _ ;+` l l l l >+,+-.-.-.-.-.-.-.-.V '+)+K !+~+{+x.-.-.-.-.]+S.                    ",
"                      ^+/+(+_+:+m l l <+[+}+_ _ _ -+[+<+l l l |+1+f.2+,.-.-.-.-.~.3+4+5+6+7+!.-.-.-.-.-.]+8+                    ",
"                      ^+9+0+a+b b+o.l l l c+-+d+M _ 8 -+I.l l l e+f+1+g+-.-.-.-.6.b h+i+j+-.-.-.-.-.-.!.k+l+                    ",
"                      m+n+o+p+o.l l l l l l q+r+s+t+s u+v+w+l e+!.2+-.-.-.-.-.-.U x+l l y+1+z+,.-.-.U A+B+C+                    ",
"                        D+E+F+n.l l l l l l l n.G+H+I+J+K+L+n.M+2+-.-.-.-.-.,.2+N+O+m l l y+!.-.P+Q+R+S+T+U+                    ",
"                        ^+V+W+X+Y+l l l l l l l o.b W -.Z+U `+ @V -.-.-.-.-.g+.@1++@@@#@o.l `+$@%@&@*@=@-@                      ",
"                          m+;@>@,@'@)@!@l l l l l >+`.-.-.-.=.~@=.-.-.-.-.-.-.-.{@]@^@/@(@_@:@<@[@>@;@m+                        ",
"                                    }@|@1@l l l l 2@`.-.-.-.V #@~.-.-.-.-.-.-.3@4@5@6@7@&+&@8@9@-@                              ",
"                                      0@a@b@c@d@l c e@Z+-.-.U f@g@~.h@i@j@k@l@m@n@o@p@q@9+9+r@s@                                ",
"                                          l+t@u@v@w@x@y@P+j@z@A@B@B@C@T.D@E@F@G@s@  m+^+^+^+m+                                  ",
"                                          m+H@I@*@J@K@:@L@D@T.M@N@N@O@9+9+q@p@P@                                                ",
"                                            m+Q@9+R@S@S@T@U@V@      ^+^+^+^+m+                                                  ",
"                                              m+U+C+W@W@s@^+                                                                    ",
"                                              X@Y@0@    0@Z@0@                                                                  ",
"                                              `@S.        S.                                                                    ",
"                                                                                                                                ",
"                                                                                                                                ",
"                                                                                                                                ",
"                                                                                                                                ",
"                                                                                                                                ",
"                                                                                                                                ",
"                                                                                                                                ",
"                                                                                                                                ",
"                                                                                                                                ",
"                                                                                                                                ",
"                                                                                                                                ",
"                                                                                                                                ",
"                                                                                                                                ",
"                                                                                                                                ",
"                                                                                                                                "};
