/* XPM */
static char * W2_xpm[] = {
"64 64 371 2",
"  	c #47ABA9",
". 	c #46A9A8",
"+ 	c #46A8A6",
"@ 	c #45A7A5",
"# 	c #368081",
"$ 	c #357E7F",
"% 	c #2F6568",
"& 	c #283F48",
"* 	c #233D46",
"= 	c #3D9393",
"- 	c #45A6A5",
"; 	c #28434B",
"> 	c #4E6E73",
", 	c #679093",
"' 	c #7AAAAC",
") 	c #89BFC0",
"! 	c #4F7174",
"~ 	c #2A6164",
"{ 	c #3E9594",
"] 	c #4F7377",
"^ 	c #699295",
"/ 	c #88BEBF",
"( 	c #8BC1C2",
"_ 	c #8CC3C4",
": 	c #89C0C1",
"< 	c #273E47",
"[ 	c #346B6E",
"} 	c #658F92",
"| 	c #78A8AA",
"1 	c #398182",
"2 	c #507679",
"3 	c #3E9493",
"4 	c #507579",
"5 	c #2B6366",
"6 	c #1B2433",
"7 	c #263540",
"8 	c #8BC2C3",
"9 	c #517175",
"0 	c #2B6467",
"a 	c #2D6568",
"b 	c #3B4F52",
"c 	c #4E6767",
"d 	c #8AC1C2",
"e 	c #7CB2B3",
"f 	c #72A8A9",
"g 	c #84BABB",
"h 	c #77A6A8",
"i 	c #1F303C",
"j 	c #3D9392",
"k 	c #3A4E51",
"l 	c #506A69",
"m 	c #4F6867",
"n 	c #3A5155",
"o 	c #79AEAF",
"p 	c #7BB1B2",
"q 	c #7DB4B4",
"r 	c #9FCAC1",
"s 	c #B1D1BD",
"t 	c #9BC3B7",
"u 	c #70A3A1",
"v 	c #72A4A0",
"w 	c #A5C0AA",
"x 	c #9FBAA5",
"y 	c #5D8485",
"z 	c #2C4149",
"A 	c #365359",
"B 	c #1C2D39",
"C 	c #223E47",
"D 	c #1B2936",
"E 	c #465C5D",
"F 	c #557877",
"G 	c #6B9C9C",
"H 	c #7DB2B1",
"I 	c #9BC2B6",
"J 	c #B1D0BB",
"K 	c #A2CBC0",
"L 	c #90C4C3",
"M 	c #8EC4C4",
"N 	c #A4CBC0",
"O 	c #CBDBB6",
"P 	c #CADAB5",
"Q 	c #AECCB8",
"R 	c #97A388",
"S 	c #414D4B",
"T 	c #4C7477",
"U 	c #639999",
"V 	c #59898A",
"W 	c #4A7275",
"X 	c #3D6265",
"Y 	c #3A595E",
"Z 	c #3A585D",
"` 	c #536F6F",
" .	c #93B6AC",
"..	c #AFCDB9",
"+.	c #C1D7B9",
"@.	c #CDDCB6",
"#.	c #CADBB7",
"$.	c #A0CAC0",
"%.	c #93C5C3",
"&.	c #8EC2C1",
"*.	c #699A9B",
"=.	c #4D7678",
"-.	c #669D9D",
";.	c #5F8F8F",
">.	c #283A43",
",.	c #669C9C",
"'.	c #4D7074",
").	c #3B5F63",
"!.	c #649A9A",
"~.	c #4B7476",
"{.	c #3C5053",
"].	c #496162",
"^.	c #2D3F47",
"/.	c #91B1A5",
"(.	c #A5CCBF",
"_.	c #B2D0BC",
":.	c #B7CDB0",
"<.	c #A1BFAA",
"[.	c #6BA09F",
"}.	c #619292",
"|.	c #526F6E",
"1.	c #3B4E51",
"2.	c #4E7779",
"3.	c #7AAAAB",
"4.	c #368181",
"5.	c #5C8688",
"6.	c #4C7678",
"7.	c #465D5D",
"8.	c #414E4E",
"9.	c #98A388",
"0.	c #C7D7B1",
"a.	c #B3D1BC",
"b.	c #B3D2BC",
"c.	c #CADAB4",
"d.	c #90B3A4",
"e.	c #6A9F9E",
"f.	c #659A9A",
"g.	c #466769",
"h.	c #79A9AB",
"i.	c #51AEAB",
"j.	c #709D96",
"k.	c #87BCBD",
"l.	c #79AFB0",
"m.	c #50797B",
"n.	c #3F5759",
"o.	c #465D5E",
"p.	c #4F6968",
"q.	c #3D5153",
"r.	c #485452",
"s.	c #B3BF9D",
"t.	c #CBD9B2",
"u.	c #CAD9B3",
"v.	c #CCDBB4",
"w.	c #CBDBB4",
"x.	c #A6C1AA",
"y.	c #70A29F",
"z.	c #689F9F",
"A.	c #679798",
"B.	c #537679",
"C.	c #507175",
"D.	c #6A9891",
"E.	c #4CADAA",
"F.	c #98D1C4",
"G.	c #8FAEA1",
"H.	c #79AFAF",
"I.	c #689294",
"J.	c #6E9899",
"K.	c #658A89",
"L.	c #3A484A",
"M.	c #374042",
"N.	c #577D7C",
"O.	c #6C9F9D",
"P.	c #6DA09E",
"Q.	c #517C7E",
"R.	c #82B8B9",
"S.	c #5B8B8C",
"T.	c #568080",
"U.	c #78BDB5",
"V.	c #BEE8D5",
"W.	c #3A474A",
"X.	c #34474D",
"Y.	c #79A9AA",
"Z.	c #8AC0C1",
"`.	c #739F9F",
" +	c #3F5558",
".+	c #5A8A8B",
"++	c #527478",
"@+	c #ADCEBB",
"#+	c #75AAA9",
"$+	c #679E9E",
"%+	c #BFEAD6",
"&+	c #7BC1B8",
"*+	c #47AAA9",
"=+	c #7BBAB5",
"-+	c #C1EAD6",
";+	c #333F44",
">+	c #5E8283",
",+	c #7FB1B1",
"'+	c #7EAFB0",
")+	c #4F6A69",
"!+	c #5A8B8B",
"~+	c #59797A",
"{+	c #9FC7BD",
"]+	c #B1CFBB",
"^+	c #B1C0A0",
"/+	c #9DB29B",
"(+	c #A1CEC0",
"_+	c #98CBC1",
":+	c #46A2A4",
"<+	c #98C5BD",
"[+	c #ACD1BF",
"}+	c #28323B",
"|+	c #455B5C",
"1+	c #526D6C",
"2+	c #658A8A",
"3+	c #80B2B3",
"4+	c #567978",
"5+	c #5C8887",
"6+	c #659B9B",
"7+	c #435555",
"8+	c #B5C5A4",
"9+	c #CAD8B1",
"0+	c #7A8572",
"a+	c #527879",
"b+	c #9FCCBF",
"c+	c #469AA0",
"d+	c #98C4BD",
"e+	c #92B1A3",
"f+	c #1B2332",
"g+	c #3E5355",
"h+	c #638887",
"i+	c #8FC4C3",
"j+	c #516D6C",
"k+	c #537070",
"l+	c #619393",
"m+	c #556E6B",
"n+	c #5A726D",
"o+	c #5B8584",
"p+	c #97BEB2",
"q+	c #7BACAE",
"r+	c #7AABAD",
"s+	c #90B0A3",
"t+	c #2E3D44",
"u+	c #56706D",
"v+	c #97A48A",
"w+	c #BBD1B5",
"x+	c #B2D1BD",
"y+	c #91C5C3",
"z+	c #87BBBC",
"A+	c #4A6464",
"B+	c #40585A",
"C+	c #567979",
"D+	c #5D8A89",
"E+	c #49686A",
"F+	c #90B6AD",
"G+	c #4C9CA2",
"H+	c #46919C",
"I+	c #93BFB8",
"J+	c #728C83",
"K+	c #485552",
"L+	c #97A286",
"M+	c #9AA68B",
"N+	c #A0BDA8",
"O+	c #476769",
"P+	c #22313C",
"Q+	c #496262",
"R+	c #619191",
"S+	c #557777",
"T+	c #689E9D",
"U+	c #659492",
"V+	c #91B2A4",
"W+	c #A9CEBD",
"X+	c #7AACAD",
"Y+	c #508E9C",
"Z+	c #A9D4C7",
"`+	c #96B7A9",
" @	c #5D7874",
".@	c #659C9C",
"+@	c #4E7071",
"@@	c #3E5356",
"#@	c #5D8988",
"$@	c #5A8484",
"%@	c #304046",
"&@	c #455C5D",
"*@	c #598180",
"=@	c #ACD2C0",
"-@	c #C3EDD8",
";@	c #C3EDD9",
">@	c #7DAEAF",
",@	c #479AA1",
"'@	c #47AAA8",
")@	c #96CFC3",
"!@	c #93C0B9",
"~@	c #95B9AC",
"{@	c #7F9E94",
"]@	c #556F6D",
"^@	c #4C6565",
"/@	c #699F9F",
"(@	c #6FA4A2",
"_@	c #AED8C8",
":@	c #738C83",
"<@	c #405253",
"[@	c #7A978D",
"}@	c #95B5A7",
"|@	c #C1EAD5",
"1@	c #C6F0DB",
"2@	c #C1EBD8",
"3@	c #47A1A4",
"4@	c #47A2A5",
"5@	c #55A1A5",
"6@	c #96C9BF",
"7@	c #A8CFBF",
"8@	c #587471",
"9@	c #506A6A",
"0@	c #6FA3A2",
"a@	c #B1DCCB",
"b@	c #BEE9D6",
"c@	c #9CC8C0",
"d@	c #C2EBD7",
"e@	c #C4EED9",
"f@	c #AFDACB",
"g@	c #95C2BC",
"h@	c #54919D",
"i@	c #47A3A5",
"j@	c #50969F",
"k@	c #75A6A9",
"l@	c #97BBAE",
"m@	c #597471",
"n@	c #3C5B60",
"o@	c #202E3A",
"p@	c #1E2C38",
"q@	c #649999",
"r@	c #6CA1A0",
"s@	c #6CA2A0",
"t@	c #C0EAD7",
"u@	c #ADD8CA",
"v@	c #548F9D",
"w@	c #55A9A9",
"x@	c #96CAC0",
"y@	c #95C3BC",
"z@	c #55909D",
"A@	c #4B949E",
"B@	c #469AA1",
"C@	c #47A9A8",
"D@	c #7EC2B9",
"E@	c #C1ECD8",
"F@	c #C1EBD6",
"G@	c #9ABCAE",
"H@	c #465959",
"I@	c #334146",
"J@	c #588788",
"K@	c #5B8382",
"L@	c #95B7A8",
"M@	c #C1EBD7",
"N@	c #C2ECD8",
"O@	c #4B8A9A",
"P@	c #46A1A4",
"Q@	c #C1EDD8",
"R@	c #C2ECD7",
"S@	c #ADD3C2",
"T@	c #AFD9CB",
"U@	c #AFDACC",
"V@	c #C3EED9",
"W@	c #9ACDC2",
"X@	c #4B8999",
"Y@	c #56B0AC",
"Z@	c #4CA4A6",
"`@	c #52AFAB",
" #	c #51A6A7",
".#	c #508D9B",
"+#	c #4B8B9A",
"                                                                                                                                ",
"                                                                                                                                ",
"                                                                                                                                ",
"                                                                                                                                ",
"                                                                                                                                ",
"                                                                                                                                ",
"                                                                                                                                ",
"                                                                                                                                ",
"                                                                                                                                ",
"                                                                                                                                ",
"                                                                                                                                ",
"                                                                                                                                ",
"                                                                                                                                ",
"                                                                                                                                ",
"                                                                                                                                ",
"                                                                                                                                ",
"                                                                    . + + +                                                     ",
"                                                            @ # $ $ % & & * = .                                                 ",
"                                                      . - $ ; > , , ' ) ) ' ! ~ {                                               ",
"                                                  . { % ] ^ / ( _ _ _ _ _ _ : , < =                                             ",
"                                                @ [ } ' ( _ _ _ _ _ _ _ _ _ _ _ | < =                                           ",
"                                            @ 1 2 ' _ _ _ _ _ _ _ _ _ _ _ _ _ _ _ | < =                                         ",
"                                          3 4 ' ( _ _ _ _ _ _ _ _ _ _ _ _ _ _ _ _ _ | < {                                       ",
"                                      + $ < / _ _ _ _ _ _ _ _ _ _ _ _ _ _ _ _ _ _ _ _ , ~ +                                     ",
"                                    + 5 6 7 / _ _ _ _ _ _ _ _ _ _ _ _ _ _ _ _ _ 8 8 8 : 9 0 .                                   ",
"                                  + a b c b , _ _ _ _ _ _ _ _ _ _ _ _ _ _ _ _ d e f f g h i j +                                 ",
"                                . $ k l l m n o p e q 8 _ _ _ _ _ _ _ _ r s t u v w x y z A B C =                               ",
"                              + 0 D E l l l F G H I J K L M _ _ _ _ _ _ M N O P Q R S T U V W U X =                             ",
"                            . 0 Y Z c l l l l `  ...+.@.#.$._ _ _ _ _ _ _ L %.&.*.=.U -.-.;.>.U ,.'.{                           ",
"                            - ).!.~.{.l l l l l ].^./.(.%._ _ _ _ _ L K _.:.<.[.-.-.-.-.}.|.1.2.p 3.% .                         ",
"                            4.5.f 6.k l l l l l l 7.8.9.0.a.K L K b.@.c.d.e.-.-.-.-.-.-.,.f.g.h.8 ( ] -                         ",
"                          i.j.k.8 l.m.n.o.p.l l l l m q.r.s.t.u.v.w.x.y.-.-.-.-.-.-.-.-.z.A.B.( _ ( C.D.E.                      ",
"                          F.G., _ _ d H.I.J.K.l l l l l m L.M.N.O.P.-.-.-.-.-.-.-.-.U Q.R.( ( _ 8 R.S.T.U.                      ",
"                        i.V.W.X.Y.( _ _ _ _ Z.`.` l l l l p. +!.-.-.-.-.-.-.-.-.-..+++' _ L K @+#+$+-.[.%+&+                    ",
"                      *+=+-+;+E ].>+`.,+8 _ _ _ '+` l l l l )+!+-.-.-.-.-.-.-.-.V ~+{+K ]+^+/+y.-.-.-.-.(+_+*+                  ",
"                      :+<+[+}+|+m l l 1+2+3+_ _ _ ,+2+1+l l l 4+5+f.6+,.-.-.-.-.~.7+8+9+0+a+!.-.-.-.-.-.b+<+:+                  ",
"                      c+d+e+f+b g+p.l l l h+,+i+M _ 8 ,+K.l l l j+k+5+l+-.-.-.-.6.b m+n+o+-.-.-.-.-.-.!.p+q+:+                  ",
"                      :+r+s+t+p.l l l l l l u+v+w+x+s y+z+A+l j+!.6+-.-.-.-.-.-.U B+l l C+5+D+,.-.-.U E+F+G+                    ",
"                      *+H+I+J+o.l l l l l l l o.K+L+M+N+O+P+o.Q+6+-.-.-.-.-.,.6+R+S+m l l C+!.-.T+U+V+W+X+:+                    ",
"                        :+Y+Z+`+ @l l l l l l l p.b W -..@U +@@@V -.-.-.-.-.l+#@5+$@%@&@p.l +@*@=@-@;@>@,@                      ",
"                          '@i.)@!@~@{@]@l l l l l )+.+-.-.-.=.^@=.-.-.-.-.-.-.-./@(@_@:@<@[@}@|@1@2@>@3@*+                      ",
"                                4@5@6@7@8@l l l l 9@.+-.-.-.V &@~.-.-.-.-.-.-.0@a@b@c@%+d@e@;@f@g@h@3@                          ",
"                                    i@j@k@l@{@m@l c n@.@-.-.U o@p@~.q@r@s@(@b+t@u@v@,@w@x@y@z@A@B@C@                            ",
"                                      *+'@D@E@F@G@H@I@J@T+s@K@G.e+e+L@M@;@N@f@r+O@P@*+  *+'@'@*+                                ",
"                                            D@Q@1@R@|@}@S@;@M@T@U@V@Q@W@<+r+X@H+:+                                              ",
"                                              Y@F.Q@;@;@;@f@r+A@Z@`@i.*+:+c+:+*+                                                ",
"                                                  i. #Y+.#+#c+'@                                                                ",
"                                                      '@'@'@                                                                    ",
"                                                                                                                                ",
"                                                                                                                                ",
"                                                                                                                                ",
"                                                                                                                                ",
"                                                                                                                                ",
"                                                                                                                                ",
"                                                                                                                                ",
"                                                                                                                                ",
"                                                                                                                                ",
"                                                                                                                                ",
"                                                                                                                                ",
"                                                                                                                                ",
"                                                                                                                                ",
"                                                                                                                                ",
"                                                                                                                                ",
"                                                                                                                                "};
