/* XPM */
static char * W4_xpm[] = {
"64 64 378 2",
"  	c #47ABA9",
". 	c #46A9A8",
"+ 	c #46A8A6",
"@ 	c #45A7A5",
"# 	c #368081",
"$ 	c #357E7F",
"% 	c #2F6568",
"& 	c #283F48",
"* 	c #233D46",
"= 	c #3D9393",
"- 	c #45A6A5",
"; 	c #28434B",
"> 	c #4E6E73",
", 	c #679093",
"' 	c #7AAAAC",
") 	c #89BFC0",
"! 	c #4F7174",
"~ 	c #2A6164",
"{ 	c #3E9594",
"] 	c #4F7377",
"^ 	c #699295",
"/ 	c #88BEBF",
"( 	c #8BC1C2",
"_ 	c #8CC3C4",
": 	c #89C0C1",
"< 	c #273E47",
"[ 	c #346B6E",
"} 	c #658F92",
"| 	c #78A8AA",
"1 	c #398182",
"2 	c #507679",
"3 	c #3E9493",
"4 	c #507579",
"5 	c #2B6366",
"6 	c #1B2433",
"7 	c #263540",
"8 	c #8BC2C3",
"9 	c #517175",
"0 	c #2B6467",
"a 	c #2D6568",
"b 	c #3B4F52",
"c 	c #4E6767",
"d 	c #8AC1C2",
"e 	c #7CB2B3",
"f 	c #72A8A9",
"g 	c #84BABB",
"h 	c #77A6A8",
"i 	c #1F303C",
"j 	c #3D9392",
"k 	c #3A4E51",
"l 	c #506A69",
"m 	c #4F6867",
"n 	c #3A5155",
"o 	c #79AEAF",
"p 	c #7BB1B2",
"q 	c #7DB4B4",
"r 	c #9FCAC1",
"s 	c #B1D1BD",
"t 	c #9BC3B7",
"u 	c #70A3A1",
"v 	c #72A4A0",
"w 	c #A5C0AA",
"x 	c #9FBAA5",
"y 	c #5D8485",
"z 	c #2C4149",
"A 	c #365359",
"B 	c #1C2D39",
"C 	c #223E47",
"D 	c #1B2936",
"E 	c #465C5D",
"F 	c #557877",
"G 	c #6B9C9C",
"H 	c #7DB2B1",
"I 	c #9BC2B6",
"J 	c #B1D0BB",
"K 	c #A2CBC0",
"L 	c #90C4C3",
"M 	c #8EC4C4",
"N 	c #A4CBC0",
"O 	c #CBDBB6",
"P 	c #CADAB5",
"Q 	c #AECCB8",
"R 	c #97A388",
"S 	c #414D4B",
"T 	c #4C7477",
"U 	c #639999",
"V 	c #59898A",
"W 	c #4A7275",
"X 	c #3D6265",
"Y 	c #3A595E",
"Z 	c #3A585D",
"` 	c #536F6F",
" .	c #93B6AC",
"..	c #AFCDB9",
"+.	c #C1D7B9",
"@.	c #CDDCB6",
"#.	c #CADBB7",
"$.	c #A0CAC0",
"%.	c #93C5C3",
"&.	c #8EC2C1",
"*.	c #699A9B",
"=.	c #4D7678",
"-.	c #669D9D",
";.	c #5F8F8F",
">.	c #283A43",
",.	c #669C9C",
"'.	c #4D7074",
").	c #74BAB2",
"!.	c #416365",
"~.	c #649A9A",
"{.	c #4B7476",
"].	c #3C5053",
"^.	c #496162",
"/.	c #2D3F47",
"(.	c #91B1A5",
"_.	c #A5CCBF",
":.	c #B2D0BC",
"<.	c #B7CDB0",
"[.	c #A1BFAA",
"}.	c #6BA09F",
"|.	c #619292",
"1.	c #526F6E",
"2.	c #3B4E51",
"3.	c #4E7779",
"4.	c #7AAAAB",
"5.	c #306568",
"6.	c #4CABA9",
"7.	c #7EC2B9",
"8.	c #90B1A4",
"9.	c #5D8688",
"0.	c #4C7678",
"a.	c #465D5D",
"b.	c #414E4E",
"c.	c #98A388",
"d.	c #C7D7B1",
"e.	c #B3D1BC",
"f.	c #B3D2BC",
"g.	c #CADAB4",
"h.	c #90B3A4",
"i.	c #6A9F9E",
"j.	c #659A9A",
"k.	c #466769",
"l.	c #79A9AB",
"m.	c #58797A",
"n.	c #A7D8C8",
"o.	c #4DADAA",
"p.	c #56B0AC",
"q.	c #C1EDD8",
"r.	c #94B5A7",
"s.	c #87BCBD",
"t.	c #79AFB0",
"u.	c #50797B",
"v.	c #3F5759",
"w.	c #465D5E",
"x.	c #4F6968",
"y.	c #3D5153",
"z.	c #485452",
"A.	c #B3BF9D",
"B.	c #CBD9B2",
"C.	c #CAD9B3",
"D.	c #CCDBB4",
"E.	c #CBDBB4",
"F.	c #A6C1AA",
"G.	c #70A29F",
"H.	c #689F9F",
"I.	c #679798",
"J.	c #537679",
"K.	c #507175",
"L.	c #90B1A3",
"M.	c #47A2A5",
"N.	c #98CBC1",
"O.	c #C6F0DB",
"P.	c #8FAFA1",
"Q.	c #79AFAF",
"R.	c #689294",
"S.	c #6E9899",
"T.	c #658A89",
"U.	c #3A484A",
"V.	c #374042",
"W.	c #577D7C",
"X.	c #6C9F9D",
"Y.	c #6DA09E",
"Z.	c #517C7E",
"`.	c #82B8B9",
" +	c #5B8B8C",
".+	c #5B8382",
"++	c #BFEAD6",
"@+	c #46A2A4",
"#+	c #7AACAD",
"$+	c #C0EAD7",
"%+	c #AED8CA",
"&+	c #3A474A",
"*+	c #34474D",
"=+	c #79A9AA",
"-+	c #8AC0C1",
";+	c #739F9F",
">+	c #3F5558",
",+	c #5A8A8B",
"'+	c #527478",
")+	c #ADCEBB",
"!+	c #75AAA9",
"~+	c #679E9E",
"{+	c #C2ECD8",
"]+	c #C1ECD8",
"^+	c #7BC1B8",
"/+	c #4699A0",
"(+	c #9AC6BE",
"_+	c #9CC8C0",
":+	c #ABD5C7",
"<+	c #333F44",
"[+	c #5E8283",
"}+	c #7FB1B1",
"|+	c #7EAFB0",
"1+	c #4F6A69",
"2+	c #5A8B8B",
"3+	c #59797A",
"4+	c #9FC7BD",
"5+	c #B1CFBB",
"6+	c #B1C0A0",
"7+	c #9DB29B",
"8+	c #9DCABE",
"9+	c #9ECAC1",
"0+	c #47AAA9",
"a+	c #47AAA8",
"b+	c #508E9C",
"c+	c #C1EBD8",
"d+	c #A8CDBD",
"e+	c #28323B",
"f+	c #455B5C",
"g+	c #526D6C",
"h+	c #658A8A",
"i+	c #80B2B3",
"j+	c #567978",
"k+	c #5C8887",
"l+	c #659B9B",
"m+	c #435555",
"n+	c #B5C5A4",
"o+	c #CAD8B1",
"p+	c #7A8572",
"q+	c #527879",
"r+	c #B3DDCE",
"s+	c #98C5BE",
"t+	c #C4EFDA",
"u+	c #92B1A3",
"v+	c #1B2332",
"w+	c #3E5355",
"x+	c #638887",
"y+	c #8FC4C3",
"z+	c #516D6C",
"A+	c #537070",
"B+	c #619393",
"C+	c #556E6B",
"D+	c #5A726D",
"E+	c #5B8584",
"F+	c #99C0B3",
"G+	c #95C3BC",
"H+	c #479AA0",
"I+	c #98C4BD",
"J+	c #94B4A6",
"K+	c #2E3D44",
"L+	c #56706D",
"M+	c #97A48A",
"N+	c #BBD1B5",
"O+	c #B2D1BD",
"P+	c #91C5C3",
"Q+	c #87BBBC",
"R+	c #4A6464",
"S+	c #40585A",
"T+	c #567979",
"U+	c #5D8A89",
"V+	c #49686A",
"W+	c #ACD1C0",
"X+	c #54909D",
"Y+	c #50969F",
"Z+	c #AFDACC",
"`+	c #C2ECD7",
" @	c #738C83",
".@	c #485552",
"+@	c #97A286",
"@@	c #9AA68B",
"#@	c #A0BDA8",
"$@	c #476769",
"%@	c #22313C",
"&@	c #496262",
"*@	c #619191",
"=@	c #557777",
"-@	c #689E9D",
";@	c #659492",
">@	c #91B2A4",
",@	c #46919C",
"'@	c #47A3A5",
")@	c #7BB3B1",
"!@	c #C3EDD9",
"~@	c #C1EAD6",
"{@	c #96B7A9",
"]@	c #5D7874",
"^@	c #659C9C",
"/@	c #4E7071",
"(@	c #3E5356",
"_@	c #5D8988",
":@	c #5A8484",
"<@	c #304046",
"[@	c #455C5D",
"}@	c #598180",
"|@	c #ACD2C0",
"1@	c #C3EDD8",
"2@	c #ADD9CB",
"3@	c #9AD2C5",
"4@	c #C0E9D5",
"5@	c #9CBFB0",
"6@	c #7F9E94",
"7@	c #556F6D",
"8@	c #4C6565",
"9@	c #699F9F",
"0@	c #6FA4A2",
"a@	c #AED8C8",
"b@	c #405253",
"c@	c #7A978D",
"d@	c #95B5A7",
"e@	c #BFE8D4",
"f@	c #AFDACB",
"g@	c #55A9A9",
"h@	c #B1DCCD",
"i@	c #C4EEDA",
"j@	c #C4EED9",
"k@	c #AED4C3",
"l@	c #506A6A",
"m@	c #6FA3A2",
"n@	c #B1DCCC",
"o@	c #83B2B1",
"p@	c #AFE0CF",
"q@	c #96D0C3",
"r@	c #98D1C4",
"s@	c #9AD3C5",
"t@	c #C1EBD6",
"u@	c #597471",
"v@	c #3C5B60",
"w@	c #202E3A",
"x@	c #1E2C38",
"y@	c #649999",
"z@	c #6CA1A0",
"A@	c #6CA2A0",
"B@	c #C3EED9",
"C@	c #98CCC1",
"D@	c #51AEAB",
"E@	c #51A6A7",
"F@	c #7BACAE",
"G@	c #9ABCAE",
"H@	c #465959",
"I@	c #334146",
"J@	c #588788",
"K@	c #8FAEA1",
"L@	c #95B7A8",
"M@	c #C1EBD7",
"N@	c #85B4B3",
"O@	c #56AFAC",
"P@	c #559AA2",
"Q@	c #ADD8CA",
"R@	c #7BACAD",
"S@	c #5097A0",
"T@	c #55A1A5",
"U@	c #C0EBD7",
"V@	c #C1EAD5",
"W@	c #ADD3C2",
"X@	c #7BADAE",
"Y@	c #4C9CA2",
"Z@	c #4C9DA2",
"`@	c #519FA4",
" #	c #5AB2AE",
".#	c #7BBAB5",
"+#	c #47A9A8",
"@#	c #7BC0B8",
"##	c #5197A0",
"$#	c #51A7A8",
"%#	c #4B949E",
"&#	c #55909D",
"*#	c #95C2BC",
"=#	c #469AA1",
"                                                                                                                                ",
"                                                                                                                                ",
"                                                                                                                                ",
"                                                                                                                                ",
"                                                                                                                                ",
"                                                                                                                                ",
"                                                                                                                                ",
"                                                                                                                                ",
"                                                                                                                                ",
"                                                                                                                                ",
"                                                                                                                                ",
"                                                                                                                                ",
"                                                                                                                                ",
"                                                                                                                                ",
"                                                                                                                                ",
"                                                                                                                                ",
"                                                                    . + + +                                                     ",
"                                                            @ # $ $ % & & * = .                                                 ",
"                                                      . - $ ; > , , ' ) ) ' ! ~ {                                               ",
"                                                  . { % ] ^ / ( _ _ _ _ _ _ : , < =                                             ",
"                                                @ [ } ' ( _ _ _ _ _ _ _ _ _ _ _ | < =                                           ",
"                                            @ 1 2 ' _ _ _ _ _ _ _ _ _ _ _ _ _ _ _ | < =                                         ",
"                                          3 4 ' ( _ _ _ _ _ _ _ _ _ _ _ _ _ _ _ _ _ | < {                                       ",
"                                      + $ < / _ _ _ _ _ _ _ _ _ _ _ _ _ _ _ _ _ _ _ _ , ~ +                                     ",
"                                    + 5 6 7 / _ _ _ _ _ _ _ _ _ _ _ _ _ _ _ _ _ 8 8 8 : 9 0 .                                   ",
"                                  + a b c b , _ _ _ _ _ _ _ _ _ _ _ _ _ _ _ _ d e f f g h i j +                                 ",
"                                . $ k l l m n o p e q 8 _ _ _ _ _ _ _ _ r s t u v w x y z A B C =                               ",
"                              + 0 D E l l l F G H I J K L M _ _ _ _ _ _ M N O P Q R S T U V W U X =                             ",
"                            . 0 Y Z c l l l l `  ...+.@.#.$._ _ _ _ _ _ _ L %.&.*.=.U -.-.;.>.U ,.'.{                           ",
"                            ).!.~.{.].l l l l l ^./.(._.%._ _ _ _ _ L K :.<.[.}.-.-.-.-.|.1.2.3.p 4.5.6.                        ",
"                          7.8.9.f 0.k l l l l l l a.b.c.d.e.K L K f.@.g.h.i.-.-.-.-.-.-.,.j.k.l.8 ( m.n.o.                      ",
"                        p.q.r.s.8 t.u.v.w.x.l l l l m y.z.A.B.C.D.E.F.G.-.-.-.-.-.-.-.-.H.I.J.( _ ( K.L.7.                      ",
"                      M.N.O.P., _ _ d Q.R.S.T.l l l l l m U.V.W.X.Y.-.-.-.-.-.-.-.-.U Z.`.( ( _ 8 `. +.+++7.                    ",
"                    @+#+$+%+&+*+=+( _ _ _ _ -+;+` l l l l x.>+~.-.-.-.-.-.-.-.-.-.,+'+' _ L K )+!+~+-.}.{+]+^+                  ",
"                    /+(+_+:+<+E ^.[+;+}+8 _ _ _ |+` l l l l 1+2+-.-.-.-.-.-.-.-.V 3+4+K 5+6+7+G.-.-.-.-.8+9+N.0+                ",
"                  a+b+c+9+d+e+f+m l l g+h+i+_ _ _ }+h+g+l l l j+k+j.l+,.-.-.-.-.{.m+n+o+p+q+~.-.-.-.-.-.8+r+s+a+                ",
"                  a+b+c+t+u+v+b w+x.l l l x+}+y+M _ 8 }+T.l l l z+A+k+B+-.-.-.-.0.b C+D+E+-.-.-.-.-.-.~.F+O.G+a+                ",
"                    H+I+O.J+K+x.l l l l l l L+M+N+O+s P+Q+R+l z+~.l+-.-.-.-.-.-.U S+l l T+k+U+,.-.-.U V+W+c+X+a+                ",
"                    a+Y+Z+`+ @w.l l l l l l l w..@+@@@#@$@%@w.&@l+-.-.-.-.-.,.l+*@=@m l l T+~.-.-@;@>@W+O.I+,@0+                ",
"                      '@)@!@~@{@]@l l l l l l l x.b W -.^@U /@(@V -.-.-.-.-.B+_@k+:@<@[@x.l /@}@|@1@O.O.2@Y+'@                  ",
"                          3@r+_+4@5@6@7@l l l l l 1+,+-.-.-.=.8@=.-.-.-.-.-.-.-.9@0@a@ @b@c@d@e@f@r+O.]+g@0+                    ",
"                          ^+q.h@i@O.j@k@]@l l l l l@,+-.-.-.V [@{.-.-.-.-.-.-.m@n@!@O.j@`+j@r+o@(+!@p@^+                        ",
"                            p.q@r@s@]+i@t@5@6@u@l c v@^@-.-.U w@x@{.y@z@A@0@8+$+O.O.B@!@O.O.i@c+c+C@D@                          ",
"                                    E@F@Z+O.j@t@G@H@I@J@-@A@.+K@u+u+L@M@!@{+N@h@i@2@O@P@Q@!@f@R@S@a+                            ",
"                                      @+T@U@O.O.!@`+V@d@W@!@1@O.O.O.O.O.O.O.c+f@X@Y@0+a+Z@`@Y@@+0+                              ",
"                                           #q.t+9+_+Z+i@r+_+r+O.i@!@]+s@r@r@.#Z@+#                                              ",
"                                            @#Z+!@c+_+r+i@!@!@f@R@##$#                                                          ",
"                                            0+%#&#*#I+s+s+s+F@%#@+0+                                                            ",
"                                              0++#=#=#+#a+a+a+0+                                                                ",
"                                                                                                                                ",
"                                                                                                                                ",
"                                                                                                                                ",
"                                                                                                                                ",
"                                                                                                                                ",
"                                                                                                                                ",
"                                                                                                                                ",
"                                                                                                                                ",
"                                                                                                                                ",
"                                                                                                                                ",
"                                                                                                                                ",
"                                                                                                                                ",
"                                                                                                                                ",
"                                                                                                                                ",
"                                                                                                                                "};
