/* XPM */
static char * W5_xpm[] = {
"64 64 390 2",
"  	c #47ABA9",
". 	c #46A9A8",
"+ 	c #46A8A6",
"@ 	c #45A7A5",
"# 	c #368081",
"$ 	c #357E7F",
"% 	c #2F6568",
"& 	c #283F48",
"* 	c #233D46",
"= 	c #3D9393",
"- 	c #45A6A5",
"; 	c #28434B",
"> 	c #4E6E73",
", 	c #679093",
"' 	c #7AAAAC",
") 	c #89BFC0",
"! 	c #4F7174",
"~ 	c #2A6164",
"{ 	c #3E9594",
"] 	c #4F7377",
"^ 	c #699295",
"/ 	c #88BEBF",
"( 	c #8BC1C2",
"_ 	c #8CC3C4",
": 	c #89C0C1",
"< 	c #273E47",
"[ 	c #346B6E",
"} 	c #658F92",
"| 	c #78A8AA",
"1 	c #398182",
"2 	c #507679",
"3 	c #3E9493",
"4 	c #507579",
"5 	c #2B6366",
"6 	c #1B2433",
"7 	c #263540",
"8 	c #8BC2C3",
"9 	c #517175",
"0 	c #2B6467",
"a 	c #2D6568",
"b 	c #3B4F52",
"c 	c #4E6767",
"d 	c #8AC1C2",
"e 	c #7CB2B3",
"f 	c #72A8A9",
"g 	c #84BABB",
"h 	c #77A6A8",
"i 	c #1F303C",
"j 	c #3D9392",
"k 	c #3A4E51",
"l 	c #506A69",
"m 	c #4F6867",
"n 	c #3A5155",
"o 	c #79AEAF",
"p 	c #7BB1B2",
"q 	c #7DB4B4",
"r 	c #9FCAC1",
"s 	c #B1D1BD",
"t 	c #9BC3B7",
"u 	c #70A3A1",
"v 	c #72A4A0",
"w 	c #A5C0AA",
"x 	c #9FBAA5",
"y 	c #5D8485",
"z 	c #2C4149",
"A 	c #365359",
"B 	c #1C2D39",
"C 	c #223E47",
"D 	c #1B2936",
"E 	c #465C5D",
"F 	c #557877",
"G 	c #6B9C9C",
"H 	c #7DB2B1",
"I 	c #9BC2B6",
"J 	c #B1D0BB",
"K 	c #A2CBC0",
"L 	c #90C4C3",
"M 	c #8EC4C4",
"N 	c #A4CBC0",
"O 	c #CBDBB6",
"P 	c #CADAB5",
"Q 	c #AECCB8",
"R 	c #97A388",
"S 	c #414D4B",
"T 	c #4C7477",
"U 	c #639999",
"V 	c #59898A",
"W 	c #4A7275",
"X 	c #3D6265",
"Y 	c #4CABA9",
"Z 	c #2C6467",
"` 	c #3A595E",
" .	c #3A585D",
"..	c #536F6F",
"+.	c #93B6AC",
"@.	c #AFCDB9",
"#.	c #C1D7B9",
"$.	c #CDDCB6",
"%.	c #CADBB7",
"&.	c #A0CAC0",
"*.	c #93C5C3",
"=.	c #8EC2C1",
"-.	c #699A9B",
";.	c #4D7678",
">.	c #669D9D",
",.	c #5F8F8F",
"'.	c #283A43",
").	c #669C9C",
"!.	c #4D7074",
"~.	c #4DADAA",
"{.	c #A7D8C8",
"].	c #476668",
"^.	c #649A9A",
"/.	c #4B7476",
"(.	c #3C5053",
"_.	c #496162",
":.	c #2D3F47",
"<.	c #91B1A5",
"[.	c #A5CCBF",
"}.	c #B2D0BC",
"|.	c #B7CDB0",
"1.	c #A1BFAA",
"2.	c #6BA09F",
"3.	c #619292",
"4.	c #526F6E",
"5.	c #3B4E51",
"6.	c #4E7779",
"7.	c #7AAAAB",
"8.	c #4CADAA",
"9.	c #7BC1B8",
"0.	c #92B3A5",
"a.	c #5D8688",
"b.	c #4C7678",
"c.	c #465D5D",
"d.	c #414E4E",
"e.	c #98A388",
"f.	c #C7D7B1",
"g.	c #B3D1BC",
"h.	c #B3D2BC",
"i.	c #CADAB4",
"j.	c #90B3A4",
"k.	c #6A9F9E",
"l.	c #659A9A",
"m.	c #466769",
"n.	c #79A9AB",
"o.	c #547679",
"p.	c #71B8B1",
"q.	c #51AEAB",
"r.	c #ABDECD",
"s.	c #B3E2D1",
"t.	c #94B5A7",
"u.	c #87BCBD",
"v.	c #79AFB0",
"w.	c #50797B",
"x.	c #3F5759",
"y.	c #465D5E",
"z.	c #4F6968",
"A.	c #3D5153",
"B.	c #485452",
"C.	c #B3BF9D",
"D.	c #CBD9B2",
"E.	c #CAD9B3",
"F.	c #CCDBB4",
"G.	c #CBDBB4",
"H.	c #A6C1AA",
"I.	c #70A29F",
"J.	c #689F9F",
"K.	c #679798",
"L.	c #537679",
"M.	c #507175",
"N.	c #6D9992",
"O.	c #51A7A7",
"P.	c #ADDFCE",
"Q.	c #C6F0DB",
"R.	c #8FAFA1",
"S.	c #79AFAF",
"T.	c #689294",
"U.	c #6E9899",
"V.	c #658A89",
"W.	c #3A484A",
"X.	c #374042",
"Y.	c #577D7C",
"Z.	c #6C9F9D",
"`.	c #6DA09E",
" +	c #517C7E",
".+	c #82B8B9",
"++	c #5B8B8C",
"@+	c #5A8282",
"#+	c #A9D4C7",
"$+	c #7BBAB5",
"%+	c #C4EFDA",
"&+	c #B1DCCD",
"*+	c #C1EAD6",
"=+	c #3A474A",
"-+	c #34474D",
";+	c #79A9AA",
">+	c #8AC0C1",
",+	c #739F9F",
"'+	c #3F5558",
")+	c #5A8A8B",
"!+	c #527478",
"~+	c #ADCEBB",
"{+	c #75AAA9",
"]+	c #679E9E",
"^+	c #C0EAD7",
"/+	c #9CC8C0",
"(+	c #C1ECD8",
"_+	c #98D1C4",
":+	c #C3EDD9",
"<+	c #6298A1",
"[+	c #BFE8D5",
"}+	c #333F44",
"|+	c #5E8283",
"1+	c #7FB1B1",
"2+	c #7EAFB0",
"3+	c #4F6A69",
"4+	c #5A8B8B",
"5+	c #59797A",
"6+	c #9FC7BD",
"7+	c #B1CFBB",
"8+	c #B1C0A0",
"9+	c #9DB29B",
"0+	c #A1CEC0",
"a+	c #96CFC3",
"b+	c #47AAA9",
"c+	c #98CBC1",
"d+	c #9AC6BE",
"e+	c #ACD1BF",
"f+	c #28323B",
"g+	c #455B5C",
"h+	c #526D6C",
"i+	c #658A8A",
"j+	c #80B2B3",
"k+	c #567978",
"l+	c #5C8887",
"m+	c #659B9B",
"n+	c #435555",
"o+	c #B5C5A4",
"p+	c #CAD8B1",
"q+	c #7A8572",
"r+	c #527879",
"s+	c #9FCCBF",
"t+	c #ABD6C9",
"u+	c #55A1A5",
"v+	c #47AAA8",
"w+	c #98C5BE",
"x+	c #C4EEDA",
"y+	c #B3DDCE",
"z+	c #92B1A3",
"A+	c #1B2332",
"B+	c #3E5355",
"C+	c #638887",
"D+	c #8FC4C3",
"E+	c #516D6C",
"F+	c #537070",
"G+	c #619393",
"H+	c #556E6B",
"I+	c #5A726D",
"J+	c #5B8584",
"K+	c #99C0B3",
"L+	c #55909D",
"M+	c #47A2A5",
"N+	c #7AADAE",
"O+	c #ADD8CA",
"P+	c #94B4A6",
"Q+	c #2E3D44",
"R+	c #56706D",
"S+	c #97A48A",
"T+	c #BBD1B5",
"U+	c #B2D1BD",
"V+	c #91C5C3",
"W+	c #87BBBC",
"X+	c #4A6464",
"Y+	c #40585A",
"Z+	c #567979",
"`+	c #5D8A89",
" @	c #49686A",
".@	c #ACD1C0",
"+@	c #C1EBD8",
"@@	c #519FA4",
"#@	c #47A9A8",
"$@	c #4B8C9A",
"%@	c #7BACAD",
"&@	c #738C83",
"*@	c #485552",
"=@	c #97A286",
"-@	c #9AA68B",
";@	c #A0BDA8",
">@	c #476769",
",@	c #22313C",
"'@	c #496262",
")@	c #619191",
"!@	c #557777",
"~@	c #689E9D",
"{@	c #659492",
"]@	c #91B2A4",
"^@	c #7DAFAF",
"/@	c #4CA4A6",
"(@	c #ADDECE",
"_@	c #96B8A9",
":@	c #5D7874",
"<@	c #659C9C",
"[@	c #4E7071",
"}@	c #3E5356",
"|@	c #5D8988",
"1@	c #5A8484",
"2@	c #304046",
"3@	c #455C5D",
"4@	c #598180",
"5@	c #ACD2C0",
"6@	c #C3EDD8",
"7@	c #80B0B0",
"8@	c #479AA0",
"9@	c #94CDC1",
"0@	c #86B5B3",
"a@	c #C1EBD6",
"b@	c #9CBFB0",
"c@	c #7F9E94",
"d@	c #556F6D",
"e@	c #4C6565",
"f@	c #699F9F",
"g@	c #6FA4A2",
"h@	c #AED8C8",
"i@	c #405253",
"j@	c #7A978D",
"k@	c #95B5A7",
"l@	c #C1EAD5",
"m@	c #96C9C0",
"n@	c #97C5BD",
"o@	c #B6DFD0",
"p@	c #BFDDD5",
"q@	c #C1EBD7",
"r@	c #AED4C3",
"s@	c #506A6A",
"t@	c #6FA3A2",
"u@	c #B1DCCC",
"v@	c #C4EED9",
"w@	c #C2ECD7",
"x@	c #7BBBB5",
"y@	c #508F9C",
"z@	c #95C2BC",
"A@	c #7BB8B4",
"B@	c #468898",
"C@	c #7DADAE",
"D@	c #597471",
"E@	c #3C5B60",
"F@	c #202E3A",
"G@	c #1E2C38",
"H@	c #649999",
"I@	c #6CA1A0",
"J@	c #6CA2A0",
"K@	c #C2ECD8",
"L@	c #AFDACC",
"M@	c #98C4BD",
"N@	c #AFDACB",
"O@	c #9ECAC1",
"P@	c #469AA1",
"Q@	c #46A2A4",
"R@	c #46929D",
"S@	c #548E9C",
"T@	c #9ABCAE",
"U@	c #465959",
"V@	c #334146",
"W@	c #588788",
"X@	c #5B8382",
"Y@	c #8FAEA1",
"Z@	c #95B7A8",
"`@	c #7EB5B2",
" #	c #47A8A8",
".#	c #46919C",
"+#	c #4B8A9A",
"@#	c #ADD3C2",
"##	c #7DAEAF",
"$#	c #ADCBC8",
"%#	c #C5EEDB",
"&#	c #B4DFCF",
"*#	c #7BB4B1",
"=#	c #55919D",
"-#	c #508E9C",
";#	c #47A1A4",
">#	c #9AC7BF",
",#	c #7BACAE",
"'#	c #519EA3",
")#	c #7BB9B4",
"!#	c #95C4BD",
"~#	c #96CFC2",
"{#	c #78B9B4",
"]#	c #95C3BC",
"^#	c #4C9CA2",
"/#	c #469AA0",
"                                                                                                                                ",
"                                                                                                                                ",
"                                                                                                                                ",
"                                                                                                                                ",
"                                                                                                                                ",
"                                                                                                                                ",
"                                                                                                                                ",
"                                                                                                                                ",
"                                                                                                                                ",
"                                                                                                                                ",
"                                                                                                                                ",
"                                                                                                                                ",
"                                                                                                                                ",
"                                                                                                                                ",
"                                                                                                                                ",
"                                                                                                                                ",
"                                                                    . + + +                                                     ",
"                                                            @ # $ $ % & & * = .                                                 ",
"                                                      . - $ ; > , , ' ) ) ' ! ~ {                                               ",
"                                                  . { % ] ^ / ( _ _ _ _ _ _ : , < =                                             ",
"                                                @ [ } ' ( _ _ _ _ _ _ _ _ _ _ _ | < =                                           ",
"                                            @ 1 2 ' _ _ _ _ _ _ _ _ _ _ _ _ _ _ _ | < =                                         ",
"                                          3 4 ' ( _ _ _ _ _ _ _ _ _ _ _ _ _ _ _ _ _ | < {                                       ",
"                                      + $ < / _ _ _ _ _ _ _ _ _ _ _ _ _ _ _ _ _ _ _ _ , ~ +                                     ",
"                                    + 5 6 7 / _ _ _ _ _ _ _ _ _ _ _ _ _ _ _ _ _ 8 8 8 : 9 0 .                                   ",
"                                  + a b c b , _ _ _ _ _ _ _ _ _ _ _ _ _ _ _ _ d e f f g h i j +                                 ",
"                                . $ k l l m n o p e q 8 _ _ _ _ _ _ _ _ r s t u v w x y z A B C =                               ",
"                              + 0 D E l l l F G H I J K L M _ _ _ _ _ _ M N O P Q R S T U V W U X =                             ",
"                            Y Z `  .c l l l l ..+.@.#.$.%.&._ _ _ _ _ _ _ L *.=.-.;.U >.>.,.'.U ).!.{                           ",
"                          ~.{.].^./.(.l l l l l _.:.<.[.*._ _ _ _ _ L K }.|.1.2.>.>.>.>.3.4.5.6.p 7.% .                         ",
"                        8.9.0.a.f b.k l l l l l l c.d.e.f.g.K L K h.$.i.j.k.>.>.>.>.>.>.).l.m.n.8 ( o.p.                        ",
"                      q.r.s.t.u.8 v.w.x.y.z.l l l l m A.B.C.D.E.F.G.H.I.>.>.>.>.>.>.>.>.J.K.L.( _ ( M.N.O.                      ",
"                    ~.P.Q.Q.R., _ _ d S.T.U.V.l l l l l m W.X.Y.Z.`.>.>.>.>.>.>.>.>.U  +.+( ( _ 8 .+++@+#+$+9.                  ",
"                    9.%+&+*+=+-+;+( _ _ _ _ >+,+..l l l l z.'+^.>.>.>.>.>.>.>.>.>.)+!+' _ L K ~+{+]+>.2.^+/+(+9.                ",
"                    _+:+<+[+}+E _.|+,+1+8 _ _ _ 2+..l l l l 3+4+>.>.>.>.>.>.>.>.V 5+6+K 7+8+9+I.>.>.>.>.0+/+:+a+                ",
"                  b+c+:+d+e+f+g+m l l h+i+j+_ _ _ 1+i+h+l l l k+l+l.m+).>.>.>.>./.n+o+p+q+r+^.>.>.>.>.>.s+&+t+u+                ",
"                  v+w+x+y+z+A+b B+z.l l l C+1+D+M _ 8 1+V.l l l E+F+l+G+>.>.>.>.b.b H+I+J+>.>.>.>.>.>.^.K+:+L+M+                ",
"                  v+N+O+&+P+Q+z.l l l l l l R+S+T+U+s V+W+X+l E+^.m+>.>.>.>.>.>.U Y+l l Z+l+`+).>.>.U  @.@+@@@                  ",
"                    #@$@%@*+&@y.l l l l l l l y.*@=@-@;@>@,@y.'@m+>.>.>.>.>.).m+)@!@m l l Z+^.>.~@{@]@.@:+^@#@                  ",
"                      v+/@(@*+_@:@l l l l l l l z.b W >.<@U [@}@V >.>.>.>.>.G+|@l+1@2@3@z.l [@4@5@6@x+:+7@8@                    ",
"                        8.9@0@:+a@b@c@d@l l l l l 3+)+>.>.>.;.e@;.>.>.>.>.>.>.>.f@g@h@&@i@j@k@l@Q.Q./+&+m@v+                    ",
"                        v+n@:+o@p@d+q@r@:@l l l l s@)+>.>.>.V 3@/.>.>.>.>.>.>.t@u@:+Q.v@w@v@Q.Q.%+y+&+:+x@                      ",
"                        v+y@z@w+A@B@C@+@a@b@c@D@l c E@<@>.>.U F@G@/.H@I@J@g@s+K@Q.L@w+M@N@:+N@d+O@:+Q.w+#@                      ",
"                          #@P@Q@  #@R@S@M@:+v@a@T@U@V@W@~@J@X@Y@z+z+Z@q@(+K@Q.:+y+`@ #.#+#%@z@N@:++@w+@@b+                      ",
"                                    v+P@.#7@:+Q.Q.w@l@k@@#:+6@Q.Q.x+:++@##$#%#&#^+*#b+b+v+/@=#z@%@-#;#                          ",
"                                        b+a+y+y+%+Q.Q.Q.Q.+@d+/+>#,#-#'#M+)#w+!#u+v+        #@P@Q@v+                            ",
"                                          $+:+:+&#%+O@/+&+O@d++@~#v+v+    b+v+v+                                                ",
"                                          M+N+L@:+:+:+:+x+:+:+N@{#                                                              ",
"                                            v+/@-#L+]#M@z@L+-#^#v+                                                              ",
"                                                v+v+Q@/#/#Q@v+                                                                  ",
"                                                                                                                                ",
"                                                                                                                                ",
"                                                                                                                                ",
"                                                                                                                                ",
"                                                                                                                                ",
"                                                                                                                                ",
"                                                                                                                                ",
"                                                                                                                                ",
"                                                                                                                                ",
"                                                                                                                                ",
"                                                                                                                                ",
"                                                                                                                                ",
"                                                                                                                                ",
"                                                                                                                                "};
