/* XPM */
static char * Player1_xpm[] = {
"64 64 353 2",
"  	c None",
". 	c #161C2E",
"+ 	c #295665",
"@ 	c #2B5966",
"# 	c #1C2E39",
"$ 	c #182133",
"% 	c #2C5D6D",
"& 	c #408793",
"* 	c #56ADA8",
"= 	c #53A7A5",
"- 	c #48918F",
"; 	c #32666D",
"> 	c #171F31",
", 	c #346377",
"' 	c #3E8698",
") 	c #54A9A7",
"! 	c #5AB2AC",
"~ 	c #52A6A6",
"{ 	c #55AAA8",
"] 	c #458B8C",
"^ 	c #2A3651",
"/ 	c #3E7B90",
"( 	c #3D8496",
"_ 	c #41858A",
": 	c #4C9792",
"< 	c #59B1AA",
"[ 	c #52A5A1",
"} 	c #57AEA9",
"| 	c #316163",
"1 	c #35546E",
"2 	c #3E8194",
"3 	c #2E5065",
"4 	c #29334F",
"5 	c #1E263C",
"6 	c #284C50",
"7 	c #54A8A2",
"8 	c #4E9B98",
"9 	c #4C9A9B",
"0 	c #2E3A57",
"a 	c #3F758C",
"b 	c #3F6682",
"c 	c #404E75",
"d 	c #3C496E",
"e 	c #171E30",
"f 	c #213E4B",
"g 	c #51A3A3",
"h 	c #31646C",
"i 	c #4A9097",
"j 	c #1A2638",
"k 	c #181F32",
"l 	c #364365",
"m 	c #364264",
"n 	c #252E48",
"o 	c #171D30",
"p 	c #386D81",
"q 	c #33566C",
"r 	c #3B6780",
"s 	c #232B44",
"t 	c #171C2E",
"u 	c #316072",
"v 	c #31586D",
"w 	c #244857",
"x 	c #796756",
"y 	c #9A836E",
"z 	c #44485B",
"A 	c #414961",
"B 	c #383D4B",
"C 	c #A79E95",
"D 	c #A9A4A0",
"E 	c #282B38",
"F 	c #D5B583",
"G 	c #3A3339",
"H 	c #716B6B",
"I 	c #C9C0AF",
"J 	c #F6F2E3",
"K 	c #F4EFE2",
"L 	c #EFE7DD",
"M 	c #EDE2CC",
"N 	c #C5B899",
"O 	c #70614E",
"P 	c #DCC29E",
"Q 	c #C0B09C",
"R 	c #695750",
"S 	c #AE9173",
"T 	c #E5D19D",
"U 	c #EFE1AC",
"V 	c #F4EAC9",
"W 	c #F7F0DC",
"X 	c #FAF5E7",
"Y 	c #F3EAD2",
"Z 	c #D9BF8E",
"` 	c #615346",
" .	c #C4B093",
"..	c #FAF6F2",
"+.	c #989686",
"@.	c #1F2130",
"#.	c #8E7466",
"$.	c #C3A47B",
"%.	c #DEC592",
"&.	c #EFE0AA",
"*.	c #EFE2AE",
"=.	c #F0E2AF",
"-.	c #F6F0DB",
";.	c #BBB3AA",
">.	c #EBDBA7",
",.	c #AE9C77",
"'.	c #BAA077",
").	c #EDEBE0",
"!.	c #F5F0DC",
"~.	c #94906F",
"{.	c #3C343A",
"].	c #907666",
"^.	c #CEAF80",
"/.	c #DFC693",
"(.	c #EEE0AA",
"_.	c #F1E5B8",
":.	c #F7F3E5",
"<.	c #413F42",
"[.	c #D2BC97",
"}.	c #CBC19F",
"|.	c #242431",
"1.	c #D4CABC",
"2.	c #F4EFDC",
"3.	c #DCC593",
"4.	c #928D6D",
"5.	c #5D4D49",
"6.	c #A1846E",
"7.	c #D4B483",
"8.	c #DCC28F",
"9.	c #34363E",
"0.	c #A58D69",
"a.	c #E7D8B5",
"b.	c #60564B",
"c.	c #373839",
"d.	c #E5E1C4",
"e.	c #DBC391",
"f.	c #C3AF81",
"g.	c #323136",
"h.	c #272731",
"i.	c #816E55",
"j.	c #4D4142",
"k.	c #927965",
"l.	c #C4A57C",
"m.	c #CBAC7D",
"n.	c #B39870",
"o.	c #BAA57C",
"p.	c #C8BD92",
"q.	c #C1BFBA",
"r.	c #232836",
"s.	c #50463F",
"t.	c #8C8165",
"u.	c #222531",
"v.	c #A5A17B",
"w.	c #E5D79F",
"x.	c #D4B583",
"y.	c #73624E",
"z.	c #181F30",
"A.	c #847157",
"B.	c #AF956E",
"C.	c #2D2B33",
"D.	c #8D7365",
"E.	c #CDBC8E",
"F.	c #938B6D",
"G.	c #383739",
"H.	c #32343A",
"I.	c #171D2F",
"J.	c #202230",
"K.	c #A0947E",
"L.	c #7E7761",
"M.	c #D1CB99",
"N.	c #C3AB7D",
"O.	c #BDA075",
"P.	c #252631",
"Q.	c #285261",
"R.	c #316978",
"S.	c #877B66",
"T.	c #AD936D",
"U.	c #524740",
"V.	c #756057",
"W.	c #C3A57C",
"X.	c #D6B684",
"Y.	c #E3CE9A",
"Z.	c #ECDFAA",
"`.	c #F5F1E2",
" +	c #868689",
".+	c #71614E",
"++	c #E7D7B4",
"@+	c #C7BC91",
"#+	c #B3AA83",
"$+	c #C7AA7B",
"%+	c #295463",
"&+	c #3F8496",
"*+	c #877E74",
"=+	c #B99B77",
"-+	c #A38B68",
";+	c #72624F",
">+	c #7A675A",
",+	c #B09570",
"'+	c #ECDCA7",
")+	c #F1E5BA",
"!+	c #9D9C9D",
"~+	c #B7A078",
"{+	c #F2E6C0",
"]+	c #B1A27C",
"^+	c #1A2936",
"/+	c #343035",
"(+	c #CBC08F",
"_+	c #907B62",
":+	c #BCA075",
"<+	c #47959E",
"[+	c #B3A68A",
"}+	c #A9906A",
"|+	c #8C7E61",
"1+	c #9E916E",
"2+	c #D5CA97",
"3+	c #3D3A39",
"4+	c #C7A97B",
"5+	c #E7D49F",
"6+	c #EFE2AD",
"7+	c #E1DDD1",
"8+	c #ECDEBA",
"9+	c #E9DAA5",
"0+	c #605D50",
"a+	c #438889",
"b+	c #3D7B7F",
"c+	c #947E5F",
"d+	c #957F60",
"e+	c #B69A73",
"f+	c #47949E",
"g+	c #C3C8A2",
"h+	c #DEC893",
"i+	c #A38B67",
"j+	c #B6A47A",
"k+	c #CEBE90",
"l+	c #EEE0AB",
"m+	c #F5ECCD",
"n+	c #EBDCA8",
"o+	c #897861",
"p+	c #386D6D",
"q+	c #418589",
"r+	c #2C414B",
"s+	c #B99D73",
"t+	c #584A46",
"u+	c #977E66",
"v+	c #252531",
"w+	c #535E60",
"x+	c #488897",
"y+	c #428C9B",
"z+	c #9DBFA7",
"A+	c #E2D19B",
"B+	c #D8BC89",
"C+	c #B89C73",
"D+	c #B0966F",
"E+	c #2E2C35",
"F+	c #313F5D",
"G+	c #242D47",
"H+	c #232633",
"I+	c #726450",
"J+	c #B7AC85",
"K+	c #7F7962",
"L+	c #39476A",
"M+	c #2F485F",
"N+	c #428A94",
"O+	c #347080",
"P+	c #2C3C48",
"Q+	c #685650",
"R+	c #51464B",
"S+	c #192435",
"T+	c #857157",
"U+	c #C9B086",
"V+	c #A1AB99",
"W+	c #95AA9B",
"X+	c #DBC18D",
"Y+	c #D8BB88",
"Z+	c #C2A47B",
"`+	c #2E2E37",
" @	c #3E758C",
".@	c #3F6B85",
"+@	c #3C4C70",
"@@	c #2E3856",
"#@	c #192034",
"$@	c #354465",
"%@	c #3F748C",
"&@	c #2E3957",
"*@	c #4E4546",
"=@	c #335F6D",
"-@	c #3B5B78",
";@	c #323E5E",
">@	c #242D46",
",@	c #33596F",
"'@	c #182435",
")@	c #71614D",
"!@	c #E3D39C",
"~@	c #C5CAA4",
"{@	c #A9A38D",
"]@	c #D3B484",
"^@	c #BEA178",
"/@	c #C0A27A",
"(@	c #3E768C",
"_@	c #3E8094",
":@	c #3F5075",
"<@	c #35556E",
"[@	c #232433",
"}@	c #9E826D",
"|@	c #BB9E76",
"1@	c #584D44",
"2@	c #2D3855",
"3@	c #323D5D",
"4@	c #2B2932",
"5@	c #C8AA7C",
"6@	c #DAC18D",
"7@	c #C4C8A1",
"8@	c #68989A",
"9@	c #878679",
"0@	c #AD926F",
"a@	c #2E2D36",
"b@	c #3F5F7D",
"c@	c #3E7B91",
"d@	c #3E8597",
"e@	c #3E8497",
"f@	c #3E8396",
"g@	c #355E74",
"h@	c #172031",
"i@	c #A0856C",
"j@	c #D4B482",
"k@	c #CBAC7E",
"l@	c #292832",
"m@	c #181E31",
"n@	c #867258",
"o@	c #D3B482",
"p@	c #4B929C",
"q@	c #3F8798",
"r@	c #357081",
"s@	c #866F5E",
"t@	c #272633",
"u@	c #29334E",
"v@	c #29344F",
"w@	c #293751",
"x@	c #243149",
"y@	c #1F263D",
"z@	c #3F3A45",
"A@	c #6D5C4F",
"B@	c #70604D",
"C@	c #181D2E",
"D@	c #877358",
"E@	c #D3B382",
"F@	c #799393",
"G@	c #54656D",
"H@	c #87958F",
"I@	c #435E69",
"J@	c #253B48",
"K@	c #5B4B48",
"L@	c #1E2030",
"                                                                                                                                ",
"                                                                                                                                ",
"                                                                                                                                ",
"                                                                                                                                ",
"                                                                                                                                ",
"                                                                                                                                ",
"                                                                                                                                ",
"                                                                                                                                ",
"                                                                                                                                ",
"                                                                                                                                ",
"                                                                                                                                ",
"                                                                                                                                ",
"                                                                                                                                ",
"                                                                                                                                ",
"                                                                                                                                ",
"                                                    . + @ #                                                                     ",
"                                                  $ % & * = - ;                                                                 ",
"                                                > , ' ) ! ~ { ! ]                                                               ",
"                                                ^ / ( _ : < ~ [ } |                                                             ",
"                                                1 2 3 4 5 6 7 8 - 9                                                             ",
"                                                0 a b c d e f g h i j                                                           ",
"                                                k 0 l m n   o p q r s                                                           ",
"                                                    . .     t u v w                                                             ",
"                                                        x y z A B C D E                     F                                   ",
"                                                      G H I J K L M N O                   P Q                                   ",
"                                                    . R S T U V W X Y Z `                ...+.                                  ",
"                                                    @.#.$.%.&.*.=.-.;.>.,.            '.).!.~.                                  ",
"                                                    {.].^.F /.(._.:.<.[.}.|.          1.2.3.4.                                  ",
"                                                    5.6.7.F F 8._.J 9.0.a.b.        c.d.e.f.g.                                  ",
"                                          h.i.    . j.k.l.m.n.o.p.q.r.s.t.u.        v.w.x.y.                                    ",
"                                          z.A.B.C.. @.D.$.x.E.F.G.H.I.J.K.L.      c.M.N.O.P.                                    ",
"                                          Q.R.S.T.U.t V.S W.X.Y.Z.`. +.+++@+      v.#+$+y.                                      ",
"                                          %+' &+*+=+-+;+>+,+F X.'+)+!+~+{+]+^+  /+(+_+:+P.                                      ",
"                                          %+' <+[+}+|+1+2+3+4+7.5+6+7+8+9+0+a+b+c+d+e+y.                                        ",
"                                          %+' f+g+h+7.i+j+C.h..+k+l+m+n+o+p+q+r+s+t+u+v+                                        ",
"                                          w+x+y+z+A+B+C+D+E+F+G+H+I+J+K+L+M+N+O+P+Q+R+S+                                        ",
"                                          T+U+V+W+X+Y+Z+e+`+ @.@+@@@#@$@%@&@*@=@-@;@>@,@'@                                      ",
"                                          )@x.!@~@{@]@^@/@`+(@' _@b :@a <@[@}@|@1@2@3@5                                         ",
"                                          4@5@6@7@) 8@9@0@a@b@c@d@e@f@g@h@@.i@j@k@l@m@                                          ",
"                                            n@o@U+p@q@r@s@t@u@v@w@w@x@o   y@z@A@B@C@                                            ",
"                                              D@E@F@d@G@5.. .   . . .     y@2@.                                                 ",
"                                                D@H@I@{.t . .   . . .                                                           ",
"                                                  J@K@L@  . .   . . .                                                           ",
"                                                    .                                                                           ",
"                                                                                                                                ",
"                                                                                                                                ",
"                                                                                                                                ",
"                                                                                                                                ",
"                                                                                                                                ",
"                                                                                                                                ",
"                                                                                                                                ",
"                                                                                                                                ",
"                                                                                                                                ",
"                                                                                                                                ",
"                                                                                                                                ",
"                                                                                                                                ",
"                                                                                                                                ",
"                                                                                                                                ",
"                                                                                                                                ",
"                                                                                                                                ",
"                                                                                                                                ",
"                                                                                                                                ",
"                                                                                                                                ",
"                                                                                                                                "};
