/* XPM */
static char * rp5_xpm[] = {
"64 64 355 2",
"  	c None",
". 	c #316877",
"+ 	c #397070",
"@ 	c #336465",
"# 	c #1B2D38",
"$ 	c #161C2E",
"% 	c #244957",
"& 	c #4C9B9D",
"* 	c #57AFAA",
"= 	c #4D9DA1",
"- 	c #54A8A2",
"; 	c #3F7F82",
"> 	c #2B5357",
", 	c #2A4459",
"' 	c #428B99",
") 	c #55AAA8",
"! 	c #5AB3AC",
"~ 	c #57AEAA",
"{ 	c #4FA2A4",
"] 	c #59B2AC",
"^ 	c #499699",
"/ 	c #1B2E3A",
"( 	c #1E263C",
"_ 	c #38677D",
": 	c #3E8597",
"< 	c #3B7778",
"[ 	c #39706F",
"} 	c #509F99",
"| 	c #468E8E",
"1 	c #55A8A2",
"2 	c #448A8B",
"3 	c #253049",
"4 	c #3E758C",
"5 	c #356479",
"6 	c #2E3957",
"7 	c #2A334F",
"8 	c #192634",
"9 	c #428484",
"0 	c #56ABA7",
"a 	c #32666C",
"b 	c #4D9D9F",
"c 	c #192738",
"d 	c #202A40",
"e 	c #3E7189",
"f 	c #3F768D",
"g 	c #405679",
"h 	c #3F4D74",
"i 	c #242D46",
"j 	c #172032",
"k 	c #3F7B8B",
"l 	c #396777",
"m 	c #427287",
"n 	c #192034",
"o 	c #2A3550",
"p 	c #39506F",
"q 	c #39476A",
"r 	c #323D5D",
"s 	c #181F32",
"t 	c #34697B",
"u 	c #2F5166",
"v 	c #346377",
"w 	c #171D30",
"x 	c #433A3C",
"y 	c #6A5850",
"z 	c #262A3F",
"A 	c #2E445D",
"B 	c #243C4F",
"C 	c #716B61",
"D 	c #5F5650",
"E 	c #D5B583",
"F 	c #1B1F2F",
"G 	c #8B8075",
"H 	c #D3C5B4",
"I 	c #D6D6D8",
"J 	c #D5D5D6",
"K 	c #D4D4D3",
"L 	c #E8E2DA",
"M 	c #C9C1B8",
"N 	c #302F38",
"O 	c #D6B888",
"P 	c #CFB692",
"Q 	c #5D4D49",
"R 	c #998068",
"S 	c #D3C495",
"T 	c #EFE2AE",
"U 	c #EDDFAE",
"V 	c #ECDEBC",
"W 	c #F2E7CA",
"X 	c #ECDEB3",
"Y 	c #C8AB7D",
"Z 	c #343035",
"` 	c #C7AB80",
" .	c #F1E8DD",
"..	c #9D9C95",
"+.	c #866D60",
"@.	c #BD9F79",
"#.	c #DEC692",
"$.	c #EFE1AC",
"%.	c #F4EAC9",
"&.	c #F4ECCC",
"*.	c #F9F5E8",
"=.	c #E0DCD7",
"-.	c #EBDBA8",
";.	c #9B8968",
">.	c #968161",
",.	c #DCD8CF",
"'.	c #FBF9EE",
").	c #949071",
"!.	c #232331",
"~.	c #8F7566",
"{.	c #C9AA7E",
"].	c #D8BB88",
"^.	c #E6D39E",
"/.	c #EFE1AB",
"(.	c #EFE2AD",
"_.	c #F5EEDA",
":.	c #61574D",
"<.	c #E1CCA2",
"[.	c #C7BB99",
"}.	c #D5C1A5",
"|.	c #F8F5E6",
"1.	c #E1CEA5",
"2.	c #938F6F",
"3.	c #5B4C49",
"4.	c #997D6C",
"5.	c #D4B482",
"6.	c #D6B684",
"7.	c #E1CA97",
"8.	c #F2E8C1",
"9.	c #F7F3E7",
"0.	c #34363F",
"a.	c #B39A73",
"b.	c #DFD2B1",
"c.	c #65594C",
"d.	c #292B33",
"e.	c #DEDCCF",
"f.	c #E3D1A8",
"g.	c #D2BE8C",
"h.	c #676452",
"i.	c #212330",
"j.	c #564B41",
"k.	c #A68A70",
"l.	c #D3B382",
"m.	c #D2B382",
"n.	c #DBC390",
"o.	c #ECDFAB",
"p.	c #EBE9E2",
"q.	c #2D303C",
"r.	c #6F604D",
"s.	c #BFB087",
"t.	c #2B2D35",
"u.	c #807D62",
"v.	c #E9DFA7",
"w.	c #957F60",
"x.	c #202230",
"y.	c #A18966",
"z.	c #8C785B",
"A.	c #1F2130",
"B.	c #7F685D",
"C.	c #B89A77",
"D.	c #CBAD7E",
"E.	c #A49774",
"F.	c #44413E",
"G.	c #333337",
"H.	c #171D2E",
"I.	c #605B4F",
"J.	c #5B574B",
"K.	c #D0CA98",
"L.	c #D2BB89",
"M.	c #C8AA7C",
"N.	c #322E34",
"O.	c #234655",
"P.	c #304D59",
"Q.	c #AE956E",
"R.	c #877358",
"S.	c #212230",
"T.	c #1B1E2F",
"U.	c #866E61",
"V.	c #BC9E79",
"W.	c #CAAB7E",
"X.	c #DCC18E",
"Y.	c #E5D4A0",
"Z.	c #C9BE92",
"`.	c #CFCCC0",
" +	c #64656A",
".+	c #E0CCA3",
"++	c #B9AE87",
"@+	c #BEB68B",
"#+	c #BEA176",
"$+	c #947E5F",
"%+	c #295463",
"&+	c #417988",
"*+	c #9F876C",
"=+	c #A1876A",
"-+	c #70604D",
";+	c #453B3D",
">+	c #8D7365",
",+	c #C1A37B",
"'+	c #D9BB89",
")+	c #EEE0AA",
"!+	c #F3E9C5",
"~+	c #9D9D9E",
"{+	c #A68E6C",
"]+	c #F2E9CF",
"^+	c #C1B288",
"/+	c #262631",
"(+	c #CDC493",
"_+	c #948469",
":+	c #C7A97B",
"<+	c #3E8698",
"[+	c #3F8799",
"}+	c #A7A18B",
"|+	c #A68D69",
"1+	c #9B8A68",
"2+	c #B6A47A",
"3+	c #C3BC8E",
"4+	c #605447",
"5+	c #E7D49F",
"6+	c #F1E4B6",
"7+	c #C1BEB1",
"8+	c #DBCBA3",
"9+	c #7E775F",
"0+	c #3E7C7B",
"a+	c #34686B",
"b+	c #776650",
"c+	c #A99670",
"d+	c #AB916D",
"e+	c #4D9EA2",
"f+	c #BDB997",
"g+	c #DAC08D",
"h+	c #857258",
"i+	c #B49F76",
"j+	c #2E2C33",
"k+	c #6F5F4D",
"l+	c #E4D29E",
"m+	c #F9F4E3",
"n+	c #EEE0B4",
"o+	c #B9A57C",
"p+	c #355F60",
"q+	c #37737C",
"r+	c #335F67",
"s+	c #BA9E74",
"t+	c #66564A",
"u+	c #AC9170",
"v+	c #2E5563",
"w+	c #438E9B",
"x+	c #AFCAAB",
"y+	c #E1CE98",
"z+	c #D5B684",
"A+	c #B39870",
"B+	c #B39D74",
"C+	c #2D2C34",
"D+	c #242E46",
"E+	c #181E31",
"F+	c #605B4D",
"G+	c #B1A27C",
"H+	c #E0D3A3",
"I+	c #B9AE86",
"J+	c #3C445F",
"K+	c #305864",
"L+	c #4B999F",
"M+	c #2F5765",
"N+	c #6D5F4D",
"O+	c #735E55",
"P+	c #685650",
"Q+	c #827058",
"R+	c #A9A38D",
"S+	c #658F96",
"T+	c #92AA9B",
"U+	c #E0CC96",
"V+	c #DAC18D",
"W+	c #C1A37A",
"X+	c #B1966F",
"Y+	c #2E2E37",
"Z+	c #3E6F88",
"`+	c #3C5C79",
" @	c #323F5E",
".@	c #1F273D",
"+@	c #2A2C34",
"@@	c #2B3450",
"#@	c #3F5C7C",
"$@	c #2D3956",
"%@	c #2A4A58",
"&@	c #377687",
"*@	c #385E77",
"=@	c #2B3149",
"-@	c #272E46",
";@	c #345A70",
">@	c #182636",
",@	c #837056",
"'@	c #E4D9A2",
")@	c #B7C2A1",
"!@	c #C9B086",
"~@	c #C3A47B",
"{@	c #C0A27A",
"]@	c #3E768C",
"^@	c #3F778D",
"/@	c #3F5779",
"(@	c #374365",
"_@	c #3F6481",
":@	c #35546D",
"<@	c #202232",
"[@	c #8E7465",
"}@	c #927C62",
"|@	c #30374B",
"1@	c #384568",
"2@	c #2E3856",
"3@	c #1F283E",
"4@	c #D2B281",
"5@	c #DCC48F",
"6@	c #C9D1A9",
"7@	c #56A1A3",
"8@	c #9AA292",
"9@	c #A69374",
"0@	c #B99D75",
"a@	c #2E2D36",
"b@	c #3F5F7D",
"c@	c #3E7B91",
"d@	c #3E8496",
"e@	c #3E768D",
"f@	c #355D73",
"g@	c #172031",
"h@	c #222331",
"i@	c #AC8F72",
"j@	c #B69A72",
"k@	c #242532",
"l@	c #A48C68",
"m@	c #C0AD8A",
"n@	c #4F9CA1",
"o@	c #428C9B",
"p@	c #397180",
"q@	c #8F7861",
"r@	c #2A2933",
"s@	c #29334E",
"t@	c #29344F",
"u@	c #293751",
"v@	c #243149",
"w@	c #60504B",
"x@	c #A38969",
"y@	c #A38B67",
"z@	c #222330",
"A@	c #2D2B33",
"B@	c #B0966E",
"C@	c #D3B483",
"D@	c #648D95",
"E@	c #496F7B",
"F@	c #725D55",
"G@	c #313C5B",
"H@	c #8A9891",
"I@	c #367080",
"J@	c #4D4344",
"K@	c #181E32",
"L@	c #546669",
"M@	c #665551",
"N@	c #1C1F2F",
"                                                                                                                                ",
"                                                                                                                                ",
"                                                                                                                                ",
"                                                                                                                                ",
"                                                                                                                                ",
"                                                                                                                                ",
"                                                                                                                                ",
"                                                                                                                                ",
"                                                                                                                                ",
"                                                                                                                                ",
"                                                                                                                                ",
"                                                                                                                                ",
"                                                                                                                                ",
"                                                                                                                                ",
"                                                                                                                                ",
"                                                                                                                                ",
"                                                      . + @ #                                                                   ",
"                                                  $ % & * = - ; >                                                               ",
"                                                  , ' ) ! ~ { ] ^ /                                                             ",
"                                                ( _ : < [ } ~ | 1 2                                                             ",
"                                                3 4 5 6 7 8 9 0 a b c                                                           ",
"                                                d e f g h i j k l m n                                                           ",
"                                                  o p q r s $ t u v                                                             ",
"                                                    w w x y z A B C D                       E                                   ",
"                                                      F G H I J K L M N                   O P                                   ",
"                                                    $ Q R S T U V W X Y Z               `  ...                                  ",
"                                                    F +.@.#.$.%.&.*.=.-.;.            >.,.'.).                                  ",
"                                                    !.~.{.].^./.(._.:.<.[.$           }.|.1.2.                                  ",
"                                                    3.4.5.E 6.7.8.9.0.a.b.c.        d.e.f.g.h.                                  ",
"                                          i.j.    $ 3.k.l.5.m.n.o.p.q.r.s.t.        u.v.6.w.                                    ",
"                                          x.y.z.  $ A.B.C.D.E.F.G.q.$ H.I.J.      d.K.L.M.N.                                    ",
"                                          O.P.Q.R.S.T.U.V.W.X.Y.Z.`. +j..+++      u.@+#+$+                                      ",
"                                          %+: &+*+=+-+;+>+,+E '+)+!+~+{+]+^+$   /+(+_+:+N.                                      ",
"                                          %+<+[+}+|+1+2+3+4+m.E 5+6+7+8+)+9+0+a+b+c+d+$+                                        ",
"                                          %+<+e+f+g+M.h+i+j+k+|+l+(.m+n+o+p+q+r+s+t+u+N.                                        ",
"                                          v+<+w+x+y+z+A+B+C+D+E+F+G+H+I+J+K+L+M+N+O+P+$                                         ",
"                                          Q+R+S+T+U+V+W+X+Y+Z+`+ @.@+@@@#@$@%@&@*@=@-@;@>@                                      ",
"                                          ,@E '@)@!@E ~@{@Y+]@<+^@/@(@_@:@<@[@}@|@1@2@3@                                        ",
"                                          Z 4@5@6@7@8@9@0@a@b@c@: d@e@f@g@h@i@E j@k@i E+                                        ",
"                                            l@E m@n@o@p@q@r@s@t@u@u@v@w   w w@x@y@z@                                            ",
"                                            A@B@C@D@<+E@F@F $   $ $ $     i G@$ $                                               ",
"                                              A@B@H@I@J@S.$ $   $ $ $     $ K@                                                  ",
"                                                A@L@M@S.  $ $   $ $ $                                                           ",
"                                                  $ N@                                                                          ",
"                                                                                                                                ",
"                                                                                                                                ",
"                                                                                                                                ",
"                                                                                                                                ",
"                                                                                                                                ",
"                                                                                                                                ",
"                                                                                                                                ",
"                                                                                                                                ",
"                                                                                                                                ",
"                                                                                                                                ",
"                                                                                                                                ",
"                                                                                                                                ",
"                                                                                                                                ",
"                                                                                                                                ",
"                                                                                                                                ",
"                                                                                                                                ",
"                                                                                                                                ",
"                                                                                                                                ",
"                                                                                                                                ",
"                                                                                                                                "};
