/* XPM */
static char * rp6_xpm[] = {
"64 64 353 2",
"  	c None",
". 	c #2C5D6C",
"+ 	c #2B5966",
"@ 	c #1C2E39",
"# 	c #161C2E",
"$ 	c #1E3948",
"% 	c #3D7F87",
"& 	c #59B1AA",
"* 	c #53A7A5",
"= 	c #48918F",
"- 	c #32666D",
"; 	c #2A455A",
"> 	c #3E8596",
", 	c #52A5A5",
"' 	c #5AB2AC",
") 	c #52A6A6",
"! 	c #55AAA8",
"~ 	c #458B8C",
"{ 	c #243048",
"] 	c #3D7B8F",
"^ 	c #3E8597",
"/ 	c #448B91",
"( 	c #4C9792",
"_ 	c #52A5A1",
": 	c #57AEA9",
"< 	c #316163",
"[ 	c #324964",
"} 	c #3E8093",
"| 	c #2A5767",
"1 	c #29344F",
"2 	c #1E263C",
"3 	c #284C50",
"4 	c #54A8A2",
"5 	c #4E9B98",
"6 	c #4C9A9B",
"7 	c #3E7C91",
"8 	c #3F6481",
"9 	c #404E75",
"0 	c #3C496E",
"a 	c #171E30",
"b 	c #213E4B",
"c 	c #51A3A3",
"d 	c #31646C",
"e 	c #4A9097",
"f 	c #1A2638",
"g 	c #1F273E",
"h 	c #385773",
"i 	c #3F5678",
"j 	c #364264",
"k 	c #252E48",
"l 	c #171D30",
"m 	c #386D81",
"n 	c #33566C",
"o 	c #3B6780",
"p 	c #232B44",
"q 	c #181F32",
"r 	c #171C2E",
"s 	c #316072",
"t 	c #31586D",
"u 	c #244857",
"v 	c #796756",
"w 	c #9A836E",
"x 	c #44485B",
"y 	c #414961",
"z 	c #383D4B",
"A 	c #A79E95",
"B 	c #A9A4A0",
"C 	c #282B38",
"D 	c #D5B583",
"E 	c #3A3339",
"F 	c #716B6B",
"G 	c #C9C0AF",
"H 	c #F6F2E3",
"I 	c #F4EFE2",
"J 	c #EFE7DD",
"K 	c #EDE2CC",
"L 	c #C5B899",
"M 	c #70614E",
"N 	c #DCC29E",
"O 	c #C0B09C",
"P 	c #695750",
"Q 	c #AE9173",
"R 	c #E5D19D",
"S 	c #EFE1AC",
"T 	c #F4EAC9",
"U 	c #F7F0DC",
"V 	c #FAF5E7",
"W 	c #F3EAD2",
"X 	c #D9BF8E",
"Y 	c #615346",
"Z 	c #C4B093",
"` 	c #FAF6F2",
" .	c #989686",
"..	c #1F2130",
"+.	c #8E7466",
"@.	c #C3A47B",
"#.	c #DEC592",
"$.	c #EFE0AA",
"%.	c #EFE2AE",
"&.	c #F0E2AF",
"*.	c #F6F0DB",
"=.	c #BBB3AA",
"-.	c #EBDBA7",
";.	c #AE9C77",
">.	c #BAA077",
",.	c #EDEBE0",
"'.	c #F5F0DC",
").	c #94906F",
"!.	c #3C343A",
"~.	c #907666",
"{.	c #CEAF80",
"].	c #DFC693",
"^.	c #EEE0AA",
"/.	c #F1E5B8",
"(.	c #F7F3E5",
"_.	c #413F42",
":.	c #D2BC97",
"<.	c #CBC19F",
"[.	c #242431",
"}.	c #D4CABC",
"|.	c #F4EFDC",
"1.	c #DCC593",
"2.	c #928D6D",
"3.	c #5D4D49",
"4.	c #A1846E",
"5.	c #D4B483",
"6.	c #DCC28F",
"7.	c #34363E",
"8.	c #A58D69",
"9.	c #E7D8B5",
"0.	c #60564B",
"a.	c #373839",
"b.	c #E5E1C4",
"c.	c #DBC391",
"d.	c #C3AF81",
"e.	c #323136",
"f.	c #272731",
"g.	c #816E55",
"h.	c #4D4142",
"i.	c #927965",
"j.	c #C4A57C",
"k.	c #CBAC7D",
"l.	c #B39870",
"m.	c #BAA57C",
"n.	c #C8BD92",
"o.	c #C1BFBA",
"p.	c #232836",
"q.	c #50463F",
"r.	c #8C8165",
"s.	c #222531",
"t.	c #A5A17B",
"u.	c #E5D79F",
"v.	c #D4B583",
"w.	c #73624E",
"x.	c #181F30",
"y.	c #847157",
"z.	c #AF956E",
"A.	c #2D2B33",
"B.	c #8D7365",
"C.	c #CDBC8E",
"D.	c #938B6D",
"E.	c #383739",
"F.	c #32343A",
"G.	c #171D2F",
"H.	c #202230",
"I.	c #A0947E",
"J.	c #7E7761",
"K.	c #D1CB99",
"L.	c #C3AB7D",
"M.	c #BDA075",
"N.	c #252631",
"O.	c #285261",
"P.	c #316978",
"Q.	c #877B66",
"R.	c #AD936D",
"S.	c #524740",
"T.	c #756057",
"U.	c #C3A57C",
"V.	c #D6B684",
"W.	c #E3CE9A",
"X.	c #ECDFAA",
"Y.	c #F5F1E2",
"Z.	c #868689",
"`.	c #71614E",
" +	c #E7D7B4",
".+	c #C7BC91",
"++	c #B3AA83",
"@+	c #C7AA7B",
"#+	c #295463",
"$+	c #3E8698",
"%+	c #3F8496",
"&+	c #877E74",
"*+	c #B99B77",
"=+	c #A38B68",
"-+	c #72624F",
";+	c #7A675A",
">+	c #B09570",
",+	c #ECDCA7",
"'+	c #F1E5BA",
")+	c #9D9C9D",
"!+	c #B7A078",
"~+	c #F2E6C0",
"{+	c #B1A27C",
"]+	c #1A2936",
"^+	c #343035",
"/+	c #CBC08F",
"(+	c #907B62",
"_+	c #BCA075",
":+	c #47959E",
"<+	c #B3A68A",
"[+	c #A9906A",
"}+	c #8C7E61",
"|+	c #9E916E",
"1+	c #D5CA97",
"2+	c #3D3A39",
"3+	c #C7A97B",
"4+	c #E7D49F",
"5+	c #EFE2AD",
"6+	c #E1DDD1",
"7+	c #ECDEBA",
"8+	c #E9DAA5",
"9+	c #605D50",
"0+	c #438889",
"a+	c #3D7B7F",
"b+	c #947E5F",
"c+	c #957F60",
"d+	c #B69A73",
"e+	c #47949E",
"f+	c #C3C8A2",
"g+	c #DEC893",
"h+	c #A38B67",
"i+	c #B6A47A",
"j+	c #CEBE90",
"k+	c #EEE0AB",
"l+	c #F5ECCD",
"m+	c #EBDCA8",
"n+	c #897861",
"o+	c #386D6D",
"p+	c #418589",
"q+	c #2C414B",
"r+	c #B99D73",
"s+	c #584A46",
"t+	c #977E66",
"u+	c #252531",
"v+	c #535E60",
"w+	c #488897",
"x+	c #428C9B",
"y+	c #9DBFA7",
"z+	c #E2D19B",
"A+	c #D8BC89",
"B+	c #B89C73",
"C+	c #B0966F",
"D+	c #2E2C35",
"E+	c #313F5D",
"F+	c #242D47",
"G+	c #232633",
"H+	c #726450",
"I+	c #B7AC85",
"J+	c #7F7962",
"K+	c #39476A",
"L+	c #2F485F",
"M+	c #428A94",
"N+	c #347080",
"O+	c #2C3C48",
"P+	c #685650",
"Q+	c #51464B",
"R+	c #192435",
"S+	c #857157",
"T+	c #C9B086",
"U+	c #A1AB99",
"V+	c #95AA9B",
"W+	c #DBC18D",
"X+	c #D8BB88",
"Y+	c #C2A47B",
"Z+	c #2E2E37",
"`+	c #3E758C",
" @	c #3F6B85",
".@	c #3C4C70",
"+@	c #2E3856",
"@@	c #192034",
"#@	c #354465",
"$@	c #3F748C",
"%@	c #2E3957",
"&@	c #4E4546",
"*@	c #335F6D",
"=@	c #3B5B78",
"-@	c #323E5E",
";@	c #242D46",
">@	c #33596F",
",@	c #182435",
"'@	c #71614D",
")@	c #E3D39C",
"!@	c #C5CAA4",
"~@	c #A9A38D",
"{@	c #D3B484",
"]@	c #BEA178",
"^@	c #C0A27A",
"/@	c #3E768C",
"(@	c #3E8094",
"_@	c #3F6682",
":@	c #3F5075",
"<@	c #3F758C",
"[@	c #35556E",
"}@	c #232433",
"|@	c #9E826D",
"1@	c #BB9E76",
"2@	c #584D44",
"3@	c #2D3855",
"4@	c #323D5D",
"5@	c #2B2932",
"6@	c #C8AA7C",
"7@	c #DAC18D",
"8@	c #C4C8A1",
"9@	c #54A9A7",
"0@	c #68989A",
"a@	c #878679",
"b@	c #AD926F",
"c@	c #2E2D36",
"d@	c #3F5F7D",
"e@	c #3E7B91",
"f@	c #3E8497",
"g@	c #3E8396",
"h@	c #355E74",
"i@	c #172031",
"j@	c #A0856C",
"k@	c #D4B482",
"l@	c #CBAC7E",
"m@	c #292832",
"n@	c #181E31",
"o@	c #867258",
"p@	c #D3B482",
"q@	c #4B929C",
"r@	c #3F8798",
"s@	c #357081",
"t@	c #866F5E",
"u@	c #272633",
"v@	c #29334E",
"w@	c #293751",
"x@	c #243149",
"y@	c #1F263D",
"z@	c #3F3A45",
"A@	c #6D5C4F",
"B@	c #70604D",
"C@	c #181D2E",
"D@	c #877358",
"E@	c #D3B382",
"F@	c #799393",
"G@	c #54656D",
"H@	c #87958F",
"I@	c #435E69",
"J@	c #253B48",
"K@	c #5B4B48",
"L@	c #1E2030",
"                                                                                                                                ",
"                                                                                                                                ",
"                                                                                                                                ",
"                                                                                                                                ",
"                                                                                                                                ",
"                                                                                                                                ",
"                                                                                                                                ",
"                                                                                                                                ",
"                                                                                                                                ",
"                                                                                                                                ",
"                                                                                                                                ",
"                                                                                                                                ",
"                                                                                                                                ",
"                                                                                                                                ",
"                                                                                                                                ",
"                                                      . + @                                                                     ",
"                                                  # $ % & * = -                                                                 ",
"                                                # ; > , ' ) ! ' ~                                                               ",
"                                                { ] ^ / ( & ) _ : <                                                             ",
"                                                [ } | 1 2 3 4 5 = 6                                                             ",
"                                                [ 7 8 9 0 a b c d e f                                                           ",
"                                                g h i j k   l m n o p                                                           ",
"                                                  l q #     r s t u                                                             ",
"                                                        v w x y z A B C                     D                                   ",
"                                                      E F G H I J K L M                   N O                                   ",
"                                                    # P Q R S T U V W X Y               Z `  .                                  ",
"                                                    ..+.@.#.$.%.&.*.=.-.;.            >.,.'.).                                  ",
"                                                    !.~.{.D ].^./.(._.:.<.[.          }.|.1.2.                                  ",
"                                                    3.4.5.D D 6./.H 7.8.9.0.        a.b.c.d.e.                                  ",
"                                          f.g.    # h.i.j.k.l.m.n.o.p.q.r.s.        t.u.v.w.                                    ",
"                                          x.y.z.A.# ..B.@.v.C.D.E.F.G.H.I.J.      a.K.L.M.N.                                    ",
"                                          O.P.Q.R.S.r T.Q U.V.W.X.Y.Z.`. +.+      t.++@+w.                                      ",
"                                          #+$+%+&+*+=+-+;+>+D V.,+'+)+!+~+{+]+  ^+/+(+_+N.                                      ",
"                                          #+$+:+<+[+}+|+1+2+3+5.4+5+6+7+8+9+0+a+b+c+d+w.                                        ",
"                                          #+$+e+f+g+5.h+i+A.f.`.j+k+l+m+n+o+p+q+r+s+t+u+                                        ",
"                                          v+w+x+y+z+A+B+C+D+E+F+G+H+I+J+K+L+M+N+O+P+Q+R+                                        ",
"                                          S+T+U+V+W+X+Y+d+Z+`+ @.@+@@@#@$@%@&@*@=@-@;@>@,@                                      ",
"                                          '@v.)@!@~@{@]@^@Z+/@$+(@_@:@<@[@}@|@1@2@3@4@2                                         ",
"                                          5@6@7@8@9@0@a@b@c@d@e@^ f@g@h@i@..j@k@l@m@n@                                          ",
"                                            o@p@T+q@r@s@t@u@v@1 w@w@x@l   y@z@A@B@C@                                            ",
"                                              D@E@F@^ G@3.# #   # # #     y@3@#                                                 ",
"                                                D@H@I@!.r # #   # # #                                                           ",
"                                                  J@K@L@  # #   # # #                                                           ",
"                                                    #                                                                           ",
"                                                                                                                                ",
"                                                                                                                                ",
"                                                                                                                                ",
"                                                                                                                                ",
"                                                                                                                                ",
"                                                                                                                                ",
"                                                                                                                                ",
"                                                                                                                                ",
"                                                                                                                                ",
"                                                                                                                                ",
"                                                                                                                                ",
"                                                                                                                                ",
"                                                                                                                                ",
"                                                                                                                                ",
"                                                                                                                                ",
"                                                                                                                                ",
"                                                                                                                                ",
"                                                                                                                                ",
"                                                                                                                                ",
"                                                                                                                                "};
