/* XPM */
static char * W3_xpm[] = {
"64 64 374 2",
"  	c #47ABA9",
". 	c #46A9A8",
"+ 	c #46A8A6",
"@ 	c #45A7A5",
"# 	c #368081",
"$ 	c #357E7F",
"% 	c #2F6568",
"& 	c #283F48",
"* 	c #233D46",
"= 	c #3D9393",
"- 	c #45A6A5",
"; 	c #28434B",
"> 	c #4E6E73",
", 	c #679093",
"' 	c #7AAAAC",
") 	c #89BFC0",
"! 	c #4F7174",
"~ 	c #2A6164",
"{ 	c #3E9594",
"] 	c #4F7377",
"^ 	c #699295",
"/ 	c #88BEBF",
"( 	c #8BC1C2",
"_ 	c #8CC3C4",
": 	c #89C0C1",
"< 	c #273E47",
"[ 	c #346B6E",
"} 	c #658F92",
"| 	c #78A8AA",
"1 	c #398182",
"2 	c #507679",
"3 	c #3E9493",
"4 	c #507579",
"5 	c #2B6366",
"6 	c #1B2433",
"7 	c #263540",
"8 	c #8BC2C3",
"9 	c #517175",
"0 	c #2B6467",
"a 	c #2D6568",
"b 	c #3B4F52",
"c 	c #4E6767",
"d 	c #8AC1C2",
"e 	c #7CB2B3",
"f 	c #72A8A9",
"g 	c #84BABB",
"h 	c #77A6A8",
"i 	c #1F303C",
"j 	c #3D9392",
"k 	c #3A4E51",
"l 	c #506A69",
"m 	c #4F6867",
"n 	c #3A5155",
"o 	c #79AEAF",
"p 	c #7BB1B2",
"q 	c #7DB4B4",
"r 	c #9FCAC1",
"s 	c #B1D1BD",
"t 	c #9BC3B7",
"u 	c #70A3A1",
"v 	c #72A4A0",
"w 	c #A5C0AA",
"x 	c #9FBAA5",
"y 	c #5D8485",
"z 	c #2C4149",
"A 	c #365359",
"B 	c #1C2D39",
"C 	c #223E47",
"D 	c #1B2936",
"E 	c #465C5D",
"F 	c #557877",
"G 	c #6B9C9C",
"H 	c #7DB2B1",
"I 	c #9BC2B6",
"J 	c #B1D0BB",
"K 	c #A2CBC0",
"L 	c #90C4C3",
"M 	c #8EC4C4",
"N 	c #A4CBC0",
"O 	c #CBDBB6",
"P 	c #CADAB5",
"Q 	c #AECCB8",
"R 	c #97A388",
"S 	c #414D4B",
"T 	c #4C7477",
"U 	c #639999",
"V 	c #59898A",
"W 	c #4A7275",
"X 	c #3D6265",
"Y 	c #3A595E",
"Z 	c #3A585D",
"` 	c #536F6F",
" .	c #93B6AC",
"..	c #AFCDB9",
"+.	c #C1D7B9",
"@.	c #CDDCB6",
"#.	c #CADBB7",
"$.	c #A0CAC0",
"%.	c #93C5C3",
"&.	c #8EC2C1",
"*.	c #699A9B",
"=.	c #4D7678",
"-.	c #669D9D",
";.	c #5F8F8F",
">.	c #283A43",
",.	c #669C9C",
"'.	c #4D7074",
").	c #3B5F63",
"!.	c #649A9A",
"~.	c #4B7476",
"{.	c #3C5053",
"].	c #496162",
"^.	c #2D3F47",
"/.	c #91B1A5",
"(.	c #A5CCBF",
"_.	c #B2D0BC",
":.	c #B7CDB0",
"<.	c #A1BFAA",
"[.	c #6BA09F",
"}.	c #619292",
"|.	c #526F6E",
"1.	c #3B4E51",
"2.	c #4E7779",
"3.	c #7AAAAB",
"4.	c #3D8383",
"5.	c #5C8688",
"6.	c #4C7678",
"7.	c #465D5D",
"8.	c #414E4E",
"9.	c #98A388",
"0.	c #C7D7B1",
"a.	c #B3D1BC",
"b.	c #B3D2BC",
"c.	c #CADAB4",
"d.	c #90B3A4",
"e.	c #6A9F9E",
"f.	c #659A9A",
"g.	c #466769",
"h.	c #79A9AB",
"i.	c #547679",
"j.	c #71B8B1",
"k.	c #47AAA9",
"l.	c #7BC0B8",
"m.	c #8FB2A5",
"n.	c #87BCBD",
"o.	c #79AFB0",
"p.	c #50797B",
"q.	c #3F5759",
"r.	c #465D5E",
"s.	c #4F6968",
"t.	c #3D5153",
"u.	c #485452",
"v.	c #B3BF9D",
"w.	c #CBD9B2",
"x.	c #CAD9B3",
"y.	c #CCDBB4",
"z.	c #CBDBB4",
"A.	c #A6C1AA",
"B.	c #70A29F",
"C.	c #689F9F",
"D.	c #679798",
"E.	c #537679",
"F.	c #507175",
"G.	c #6D9A93",
"H.	c #51AEAB",
"I.	c #47AAA8",
"J.	c #4B949E",
"K.	c #AFDACC",
"L.	c #8FAFA1",
"M.	c #79AFAF",
"N.	c #689294",
"O.	c #6E9899",
"P.	c #658A89",
"Q.	c #3A484A",
"R.	c #374042",
"S.	c #577D7C",
"T.	c #6C9F9D",
"U.	c #6DA09E",
"V.	c #517C7E",
"W.	c #82B8B9",
"X.	c #5B8B8C",
"Y.	c #5A8382",
"Z.	c #A9DACA",
"`.	c #469AA1",
" +	c #7AABAD",
".+	c #C1EAD6",
"++	c #3A474A",
"@+	c #34474D",
"#+	c #79A9AA",
"$+	c #8AC0C1",
"%+	c #739F9F",
"&+	c #3F5558",
"*+	c #5A8A8B",
"=+	c #527478",
"-+	c #ADCEBB",
";+	c #75AAA9",
">+	c #679E9E",
",+	c #C2ECD8",
"'+	c #98D1C4",
")+	c #47A2A5",
"!+	c #9AC7BF",
"~+	c #C2ECD7",
"{+	c #333F44",
"]+	c #5E8283",
"^+	c #7FB1B1",
"/+	c #7EAFB0",
"(+	c #4F6A69",
"_+	c #5A8B8B",
":+	c #59797A",
"<+	c #9FC7BD",
"[+	c #B1CFBB",
"}+	c #B1C0A0",
"|+	c #9DB29B",
"1+	c #A1CEC0",
"2+	c #C1ECD8",
"3+	c #51A7A8",
"4+	c #ACD1BF",
"5+	c #28323B",
"6+	c #455B5C",
"7+	c #526D6C",
"8+	c #658A8A",
"9+	c #80B2B3",
"0+	c #567978",
"a+	c #5C8887",
"b+	c #659B9B",
"c+	c #435555",
"d+	c #B5C5A4",
"e+	c #CAD8B1",
"f+	c #7A8572",
"g+	c #527879",
"h+	c #9FCCBF",
"i+	c #C3EDD9",
"j+	c #519FA4",
"k+	c #52AFAB",
"l+	c #C3EED9",
"m+	c #92B1A3",
"n+	c #1B2332",
"o+	c #3E5355",
"p+	c #638887",
"q+	c #8FC4C3",
"r+	c #516D6C",
"s+	c #537070",
"t+	c #619393",
"u+	c #556E6B",
"v+	c #5A726D",
"w+	c #5B8584",
"x+	c #99C0B3",
"y+	c #C1EBD8",
"z+	c #51A0A4",
"A+	c #4DACAA",
"B+	c #ADD9CB",
"C+	c #94B4A6",
"D+	c #2E3D44",
"E+	c #56706D",
"F+	c #97A48A",
"G+	c #BBD1B5",
"H+	c #B2D1BD",
"I+	c #91C5C3",
"J+	c #87BBBC",
"K+	c #4A6464",
"L+	c #40585A",
"M+	c #567979",
"N+	c #5D8A89",
"O+	c #49686A",
"P+	c #A9CEBD",
"Q+	c #7DAFAF",
"R+	c #47A9A8",
"S+	c #54909D",
"T+	c #BEE7D4",
"U+	c #738C83",
"V+	c #485552",
"W+	c #97A286",
"X+	c #9AA68B",
"Y+	c #A0BDA8",
"Z+	c #476769",
"`+	c #22313C",
" @	c #496262",
".@	c #619191",
"+@	c #557777",
"@@	c #689E9D",
"#@	c #659492",
"$@	c #91B2A4",
"%@	c #ABD0BE",
"&@	c #47A1A4",
"*@	c #46919C",
"=@	c #7DADAE",
"-@	c #BFE9D5",
";@	c #96B8A9",
">@	c #5D7874",
",@	c #659C9C",
"'@	c #4E7071",
")@	c #3E5356",
"!@	c #5D8988",
"~@	c #5A8484",
"{@	c #304046",
"]@	c #455C5D",
"^@	c #598180",
"/@	c #ACD2C0",
"(@	c #C3EDD8",
"_@	c #C6F0DB",
":@	c #51ADAB",
"<@	c #46A2A4",
"[@	c #468798",
"}@	c #98C4BD",
"|@	c #C1EBD6",
"1@	c #9CBFB0",
"2@	c #7F9E94",
"3@	c #556F6D",
"4@	c #4C6565",
"5@	c #699F9F",
"6@	c #6FA4A2",
"7@	c #AED8C8",
"8@	c #405253",
"9@	c #7A978D",
"0@	c #95B5A7",
"a@	c #BEE7D3",
"b@	c #A0CCC2",
"c@	c #C4EEDA",
"d@	c #7AADAE",
"e@	c #50969F",
"f@	c #95C3BC",
"g@	c #98C6BE",
"h@	c #AFE0CF",
"i@	c #AED4C3",
"j@	c #506A6A",
"k@	c #6FA3A2",
"l@	c #B1DCCC",
"m@	c #C4EED9",
"n@	c #B4DFCF",
"o@	c #BEE8D6",
"p@	c #ADD8CA",
"q@	c #4DADAA",
"r@	c #597471",
"s@	c #3C5B60",
"t@	c #202E3A",
"u@	c #1E2C38",
"v@	c #649999",
"w@	c #6CA1A0",
"x@	c #6CA2A0",
"y@	c #9AC6BE",
"z@	c #55909D",
"A@	c #4C9CA2",
"B@	c #7DAEAF",
"C@	c #9ABCAE",
"D@	c #465959",
"E@	c #334146",
"F@	c #588788",
"G@	c #5B8382",
"H@	c #8FAEA1",
"I@	c #95B7A8",
"J@	c #C1EBD7",
"K@	c #4699A0",
"L@	c #508E9C",
"M@	c #508D9B",
"N@	c #479AA0",
"O@	c #46929D",
"P@	c #B2DDCE",
"Q@	c #ABD5C7",
"R@	c #BDE6D3",
"S@	c #92B3A6",
"T@	c #7EA7A4",
"U@	c #95C2BC",
"V@	c #C0EAD7",
"W@	c #9CC8C0",
"X@	c #9ECAC1",
"Y@	c #C1EDD8",
"Z@	c #9AD3C5",
"`@	c #96CFC3",
" #	c #508C9B",
".#	c #458898",
"+#	c #46A1A4",
"@#	c #98C5BE",
"##	c #7BBAB5",
"$#	c #469AA0",
"                                                                                                                                ",
"                                                                                                                                ",
"                                                                                                                                ",
"                                                                                                                                ",
"                                                                                                                                ",
"                                                                                                                                ",
"                                                                                                                                ",
"                                                                                                                                ",
"                                                                                                                                ",
"                                                                                                                                ",
"                                                                                                                                ",
"                                                                                                                                ",
"                                                                                                                                ",
"                                                                                                                                ",
"                                                                                                                                ",
"                                                                                                                                ",
"                                                                    . + + +                                                     ",
"                                                            @ # $ $ % & & * = .                                                 ",
"                                                      . - $ ; > , , ' ) ) ' ! ~ {                                               ",
"                                                  . { % ] ^ / ( _ _ _ _ _ _ : , < =                                             ",
"                                                @ [ } ' ( _ _ _ _ _ _ _ _ _ _ _ | < =                                           ",
"                                            @ 1 2 ' _ _ _ _ _ _ _ _ _ _ _ _ _ _ _ | < =                                         ",
"                                          3 4 ' ( _ _ _ _ _ _ _ _ _ _ _ _ _ _ _ _ _ | < {                                       ",
"                                      + $ < / _ _ _ _ _ _ _ _ _ _ _ _ _ _ _ _ _ _ _ _ , ~ +                                     ",
"                                    + 5 6 7 / _ _ _ _ _ _ _ _ _ _ _ _ _ _ _ _ _ 8 8 8 : 9 0 .                                   ",
"                                  + a b c b , _ _ _ _ _ _ _ _ _ _ _ _ _ _ _ _ d e f f g h i j +                                 ",
"                                . $ k l l m n o p e q 8 _ _ _ _ _ _ _ _ r s t u v w x y z A B C =                               ",
"                              + 0 D E l l l F G H I J K L M _ _ _ _ _ _ M N O P Q R S T U V W U X =                             ",
"                            . 0 Y Z c l l l l `  ...+.@.#.$._ _ _ _ _ _ _ L %.&.*.=.U -.-.;.>.U ,.'.{                           ",
"                            - ).!.~.{.l l l l l ].^./.(.%._ _ _ _ _ L K _.:.<.[.-.-.-.-.}.|.1.2.p 3.% .                         ",
"                            4.5.f 6.k l l l l l l 7.8.9.0.a.K L K b.@.c.d.e.-.-.-.-.-.-.,.f.g.h.8 ( i.j.                        ",
"                        k.l.m.n.8 o.p.q.r.s.l l l l m t.u.v.w.x.y.z.A.B.-.-.-.-.-.-.-.-.C.D.E.( _ ( F.G.H.                      ",
"                      I.J.K.L., _ _ d M.N.O.P.l l l l l m Q.R.S.T.U.-.-.-.-.-.-.-.-.U V.W.( ( _ 8 W.X.Y.Z.H.                    ",
"                      `. +.+++@+#+( _ _ _ _ $+%+` l l l l s.&+!.-.-.-.-.-.-.-.-.-.*+=+' _ L K -+;+>+-.[.,+'+                    ",
"                      )+!+~+{+E ].]+%+^+8 _ _ _ /+` l l l l (+_+-.-.-.-.-.-.-.-.V :+<+K [+}+|+B.-.-.-.-.1+2+3+                  ",
"                      H.2+4+5+6+m l l 7+8+9+_ _ _ ^+8+7+l l l 0+a+f.b+,.-.-.-.-.~.c+d+e+f+g+!.-.-.-.-.-.h+i+j+                  ",
"                      k+l+m+n+b o+s.l l l p+^+q+M _ 8 ^+P.l l l r+s+a+t+-.-.-.-.6.b u+v+w+-.-.-.-.-.-.!.x+y+z+                  ",
"                      A+B+C+D+s.l l l l l l E+F+G+H+s I+J+K+l r+!.b+-.-.-.-.-.-.U L+l l M+a+N+,.-.-.U O+P+Q+R+                  ",
"                      I.S+T+U+r.l l l l l l l r.V+W+X+Y+Z+`+r. @b+-.-.-.-.-.,.b+.@+@m l l M+!.-.@@#@$@%@Q+&@                    ",
"                      k.*@=@-@;@>@l l l l l l l s.b W -.,@U '@)@V -.-.-.-.-.t+!@a+~@{@]@s.l '@^@/@(@_@2+:@                      ",
"                        <@[@}@_@|@1@2@3@l l l l l (+*+-.-.-.=.4@=.-.-.-.-.-.-.-.5@6@7@U+8@9@0@a@b@c@K.d@I.                      ",
"                          <@e@f@g@h@(@i@>@l l l l j@*+-.-.-.V ]@~.-.-.-.-.-.-.k@l@i+_@m@~+m@_@n@o@p@e@<@                        ",
"                            k.I.I.q@l.!+T+1@2@r@l c s@,@-.-.U t@u@~.v@w@x@6@h+,+c@K.}@y@y+i+y+}@z@A@I.                          ",
"                                      &@B@i+m@|@C@D@E@F@@@x@G@H@m+m+I@J@i+i+_@y+=@A@`.K@L@M@e@N@<@                              ",
"                                      k.O@=@i+_@P@Q@R@S@T@,+(@_@_@_@i+i+y+y@U@S+N@I.    I.I.k.                                  ",
"                                        I.O@=@y+V@W@X@c@i+c@Y@Z@'+`@z@ # #[@.#+#                                                ",
"                                          I.N@L@z@f@@#@#g@##H.      <@$#`.R+I.                                                  ",
"                                              I.I.I.I.I.I.                                                                      ",
"                                                                                                                                ",
"                                                                                                                                ",
"                                                                                                                                ",
"                                                                                                                                ",
"                                                                                                                                ",
"                                                                                                                                ",
"                                                                                                                                ",
"                                                                                                                                ",
"                                                                                                                                ",
"                                                                                                                                ",
"                                                                                                                                ",
"                                                                                                                                ",
"                                                                                                                                ",
"                                                                                                                                ",
"                                                                                                                                ",
"                                                                                                                                "};
