/* XPM */
static char * W6_xpm[] = {
"64 64 413 2",
"  	c #47ABA9",
". 	c #46A9A8",
"+ 	c #46A8A6",
"@ 	c #45A7A5",
"# 	c #368081",
"$ 	c #357E7F",
"% 	c #2F6568",
"& 	c #283F48",
"* 	c #233D46",
"= 	c #3D9393",
"- 	c #45A6A5",
"; 	c #28434B",
"> 	c #4E6E73",
", 	c #679093",
"' 	c #7AAAAC",
") 	c #89BFC0",
"! 	c #4F7174",
"~ 	c #2A6164",
"{ 	c #3E9594",
"] 	c #4F7377",
"^ 	c #699295",
"/ 	c #88BEBF",
"( 	c #8BC1C2",
"_ 	c #8CC3C4",
": 	c #89C0C1",
"< 	c #273E47",
"[ 	c #346B6E",
"} 	c #658F92",
"| 	c #78A8AA",
"1 	c #398182",
"2 	c #507679",
"3 	c #3E9493",
"4 	c #507579",
"5 	c #2B6366",
"6 	c #1B2433",
"7 	c #263540",
"8 	c #8BC2C3",
"9 	c #517175",
"0 	c #2B6467",
"a 	c #2D6568",
"b 	c #3B4F52",
"c 	c #4E6767",
"d 	c #8AC1C2",
"e 	c #7CB2B3",
"f 	c #72A8A9",
"g 	c #84BABB",
"h 	c #77A6A8",
"i 	c #1F303C",
"j 	c #3D9392",
"k 	c #3A4E51",
"l 	c #506A69",
"m 	c #4F6867",
"n 	c #3A5155",
"o 	c #79AEAF",
"p 	c #7BB1B2",
"q 	c #7DB4B4",
"r 	c #9FCAC1",
"s 	c #B1D1BD",
"t 	c #9BC3B7",
"u 	c #70A3A1",
"v 	c #72A4A0",
"w 	c #A5C0AA",
"x 	c #9FBAA5",
"y 	c #5D8485",
"z 	c #2C4149",
"A 	c #365359",
"B 	c #1C2D39",
"C 	c #223E47",
"D 	c #1B2936",
"E 	c #465C5D",
"F 	c #557877",
"G 	c #6B9C9C",
"H 	c #7DB2B1",
"I 	c #9BC2B6",
"J 	c #B1D0BB",
"K 	c #A2CBC0",
"L 	c #90C4C3",
"M 	c #8EC4C4",
"N 	c #A4CBC0",
"O 	c #CBDBB6",
"P 	c #CADAB5",
"Q 	c #AECCB8",
"R 	c #97A388",
"S 	c #414D4B",
"T 	c #4C7477",
"U 	c #639999",
"V 	c #59898A",
"W 	c #4A7275",
"X 	c #3D6265",
"Y 	c #3A595E",
"Z 	c #3A585D",
"` 	c #536F6F",
" .	c #93B6AC",
"..	c #AFCDB9",
"+.	c #C1D7B9",
"@.	c #CDDCB6",
"#.	c #CADBB7",
"$.	c #A0CAC0",
"%.	c #93C5C3",
"&.	c #8EC2C1",
"*.	c #699A9B",
"=.	c #4D7678",
"-.	c #669D9D",
";.	c #5F8F8F",
">.	c #283A43",
",.	c #669C9C",
"'.	c #4D7074",
").	c #71B8B1",
"!.	c #416365",
"~.	c #649A9A",
"{.	c #4B7476",
"].	c #3C5053",
"^.	c #496162",
"/.	c #2D3F47",
"(.	c #91B1A5",
"_.	c #A5CCBF",
":.	c #B2D0BC",
"<.	c #B7CDB0",
"[.	c #A1BFAA",
"}.	c #6BA09F",
"|.	c #619292",
"1.	c #526F6E",
"2.	c #3B4E51",
"3.	c #4E7779",
"4.	c #7AAAAB",
"5.	c #438584",
"6.	c #5D8688",
"7.	c #4C7678",
"8.	c #465D5D",
"9.	c #414E4E",
"0.	c #98A388",
"a.	c #C7D7B1",
"b.	c #B3D1BC",
"c.	c #B3D2BC",
"d.	c #CADAB4",
"e.	c #90B3A4",
"f.	c #6A9F9E",
"g.	c #659A9A",
"h.	c #466769",
"i.	c #79A9AB",
"j.	c #4CADAA",
"k.	c #75BEB6",
"l.	c #5AB2AE",
"m.	c #8DB0A4",
"n.	c #87BCBD",
"o.	c #79AFB0",
"p.	c #50797B",
"q.	c #3F5759",
"r.	c #465D5E",
"s.	c #4F6968",
"t.	c #3D5153",
"u.	c #485452",
"v.	c #B3BF9D",
"w.	c #CBD9B2",
"x.	c #CAD9B3",
"y.	c #CCDBB4",
"z.	c #CBDBB4",
"A.	c #A6C1AA",
"B.	c #70A29F",
"C.	c #689F9F",
"D.	c #679798",
"E.	c #537679",
"F.	c #507175",
"G.	c #6A9891",
"H.	c #51AEAB",
"I.	c #A9DCCC",
"J.	c #96D0C3",
"K.	c #9AD2C5",
"L.	c #8FAEA1",
"M.	c #79AFAF",
"N.	c #689294",
"O.	c #6E9899",
"P.	c #658A89",
"Q.	c #3A484A",
"R.	c #374042",
"S.	c #577D7C",
"T.	c #6C9F9D",
"U.	c #6DA09E",
"V.	c #517C7E",
"W.	c #82B8B9",
"X.	c #5B8B8C",
"Y.	c #5A8382",
"Z.	c #91CBBF",
"`.	c #C3EDD9",
" +	c #5AABAA",
".+	c #ABDCCB",
"++	c #3A474A",
"@+	c #34474D",
"#+	c #79A9AA",
"$+	c #8AC0C1",
"%+	c #739F9F",
"&+	c #3F5558",
"*+	c #5A8A8B",
"=+	c #527478",
"-+	c #ADCEBB",
";+	c #75AAA9",
">+	c #679E9E",
",+	c #AADCCC",
"'+	c #4DADAA",
")+	c #93CFC2",
"!+	c #7BC1B8",
"~+	c #98D1C4",
"{+	c #AFDACC",
"]+	c #56A8A9",
"^+	c #BFE9D5",
"/+	c #333F44",
"(+	c #5E8283",
"_+	c #7FB1B1",
":+	c #7EAFB0",
"<+	c #4F6A69",
"[+	c #5A8B8B",
"}+	c #59797A",
"|+	c #9FC7BD",
"1+	c #B1CFBB",
"2+	c #B1C0A0",
"3+	c #9DB29B",
"4+	c #9FCCBF",
"5+	c #7BC0B8",
"6+	c #98CBC1",
"7+	c #96CFC3",
"8+	c #47AAA9",
"9+	c #95C3BC",
"0+	c #AAD0BE",
"a+	c #28323B",
"b+	c #455B5C",
"c+	c #526D6C",
"d+	c #658A8A",
"e+	c #80B2B3",
"f+	c #567978",
"g+	c #5C8887",
"h+	c #659B9B",
"i+	c #435555",
"j+	c #B5C5A4",
"k+	c #CAD8B1",
"l+	c #7A8572",
"m+	c #527879",
"n+	c #98D0C4",
"o+	c #75A9AC",
"p+	c #51A7A8",
"q+	c #91C6BD",
"r+	c #54909D",
"s+	c #96CEC2",
"t+	c #92B1A3",
"u+	c #1B2332",
"v+	c #3E5355",
"w+	c #638887",
"x+	c #8FC4C3",
"y+	c #516D6C",
"z+	c #537070",
"A+	c #619393",
"B+	c #556E6B",
"C+	c #5A726D",
"D+	c #5B8584",
"E+	c #99C0B3",
"F+	c #47AAA8",
"G+	c #4CACAA",
"H+	c #479BA1",
"I+	c #55A1A5",
"J+	c #90B0A3",
"K+	c #2E3D44",
"L+	c #56706D",
"M+	c #97A48A",
"N+	c #BBD1B5",
"O+	c #B2D1BD",
"P+	c #91C5C3",
"Q+	c #87BBBC",
"R+	c #4A6464",
"S+	c #40585A",
"T+	c #567979",
"U+	c #5D8A89",
"V+	c #49686A",
"W+	c #90B6AD",
"X+	c #519FA4",
"Y+	c #4CA4A6",
"Z+	c #ABD5C8",
"`+	c #738C83",
" @	c #485552",
".@	c #97A286",
"+@	c #9AA68B",
"@@	c #A0BDA8",
"#@	c #476769",
"$@	c #22313C",
"%@	c #496262",
"&@	c #619191",
"*@	c #557777",
"=@	c #689E9D",
"-@	c #659492",
";@	c #91B2A4",
">@	c #A9CEBD",
",@	c #7AACAD",
"'@	c #46A2A4",
")@	c #78B2B0",
"!@	c #95C1BA",
"~@	c #92B3A6",
"{@	c #5D7874",
"]@	c #659C9C",
"^@	c #4E7071",
"/@	c #3E5356",
"(@	c #5D8988",
"_@	c #5A8484",
":@	c #304046",
"<@	c #455C5D",
"[@	c #598180",
"}@	c #ACD2C0",
"|@	c #C3ECD8",
"1@	c #C1EBD8",
"2@	c #7DAEAF",
"3@	c #47A1A4",
"4@	c #4DACAA",
"5@	c #4C9CA2",
"6@	c #7DAFAF",
"7@	c #BCE6D3",
"8@	c #97BBAD",
"9@	c #7F9E94",
"0@	c #556F6D",
"a@	c #4C6565",
"b@	c #699F9F",
"c@	c #6FA4A2",
"d@	c #AED8C8",
"e@	c #405253",
"f@	c #7A978D",
"g@	c #95B5A7",
"h@	c #C1EAD5",
"i@	c #C6F0DB",
"j@	c #C0EAD7",
"k@	c #A0BAC0",
"l@	c #AAC8C7",
"m@	c #93CEC2",
"n@	c #ADDFCE",
"o@	c #56AFAC",
"p@	c #51A6A7",
"q@	c #55919D",
"r@	c #93C0BA",
"s@	c #92BAB0",
"t@	c #5C7774",
"u@	c #506A6A",
"v@	c #6FA3A2",
"w@	c #B1DCCB",
"x@	c #C1EBD7",
"y@	c #BFE8D5",
"z@	c #ADD8CA",
"A@	c #ECF7F2",
"B@	c #C4EDDA",
"C@	c #51A0A4",
"D@	c #91C1BB",
"E@	c #47A9A8",
"F@	c #469AA0",
"G@	c #4F8E9B",
"H@	c #A8D2C5",
"I@	c #9CBFB0",
"J@	c #5D7472",
"K@	c #3C5B60",
"L@	c #202E3A",
"M@	c #1E2C38",
"N@	c #649999",
"O@	c #6CA1A0",
"P@	c #6CA2A0",
"Q@	c #55909D",
"R@	c #519EA3",
"S@	c #5197A0",
"T@	c #508D9B",
"U@	c #519FA3",
"V@	c #61A5A8",
"W@	c #D1F0E1",
"X@	c #7DBCB6",
"Y@	c #5097A0",
"Z@	c #98C4BD",
"`@	c #C0E9D6",
" #	c #CFEEDF",
".#	c #9CBDAF",
"+#	c #465959",
"@#	c #334146",
"##	c #588788",
"$#	c #5B8382",
"%#	c #95B7A8",
"&#	c #C0EAD6",
"*#	c #ACD7C9",
"=#	c #94C1BB",
"-#	c #97C4BD",
";#	c #7AABAD",
">#	c #77AAAC",
",#	c #75AFAF",
"'#	c #93C9BF",
")#	c #BEE9D6",
"!#	c #AFDACB",
"~#	c #47A2A5",
"{#	c #46929D",
"]#	c #548E9C",
"^#	c #C2ECD7",
"/#	c #ADD3C2",
"(#	c #C1EDD8",
"_#	c #9AD3C5",
":#	c #7BBAB5",
"<#	c #7BB3B1",
"[#	c #5D929F",
"}#	c #9AC4BE",
"|#	c #98C5BD",
"1#	c #95C4BD",
"2#	c #ADDECE",
"3#	c #D2F0E2",
"4#	c #ACCFCA",
"5#	c #519DA3",
"6#	c #479AA0",
"7#	c #52AFAB",
"8#	c #C1ECD8",
"9#	c #91CDC1",
"0#	c #AFE0CF",
"a#	c #BFEBD7",
"b#	c #47A3A5",
"c#	c #50969F",
"d#	c #4DA5A6",
"e#	c #55A9A9",
"f#	c #55929E",
"                                                                                                                                ",
"                                                                                                                                ",
"                                                                                                                                ",
"                                                                                                                                ",
"                                                                                                                                ",
"                                                                                                                                ",
"                                                                                                                                ",
"                                                                                                                                ",
"                                                                                                                                ",
"                                                                                                                                ",
"                                                                                                                                ",
"                                                                                                                                ",
"                                                                                                                                ",
"                                                                                                                                ",
"                                                                                                                                ",
"                                                                                                                                ",
"                                                                    . + + +                                                     ",
"                                                            @ # $ $ % & & * = .                                                 ",
"                                                      . - $ ; > , , ' ) ) ' ! ~ {                                               ",
"                                                  . { % ] ^ / ( _ _ _ _ _ _ : , < =                                             ",
"                                                @ [ } ' ( _ _ _ _ _ _ _ _ _ _ _ | < =                                           ",
"                                            @ 1 2 ' _ _ _ _ _ _ _ _ _ _ _ _ _ _ _ | < =                                         ",
"                                          3 4 ' ( _ _ _ _ _ _ _ _ _ _ _ _ _ _ _ _ _ | < {                                       ",
"                                      + $ < / _ _ _ _ _ _ _ _ _ _ _ _ _ _ _ _ _ _ _ _ , ~ +                                     ",
"                                    + 5 6 7 / _ _ _ _ _ _ _ _ _ _ _ _ _ _ _ _ _ 8 8 8 : 9 0 .                                   ",
"                                  + a b c b , _ _ _ _ _ _ _ _ _ _ _ _ _ _ _ _ d e f f g h i j +                                 ",
"                                . $ k l l m n o p e q 8 _ _ _ _ _ _ _ _ r s t u v w x y z A B C =                               ",
"                              + 0 D E l l l F G H I J K L M _ _ _ _ _ _ M N O P Q R S T U V W U X =                             ",
"                            . 0 Y Z c l l l l `  ...+.@.#.$._ _ _ _ _ _ _ L %.&.*.=.U -.-.;.>.U ,.'.{                           ",
"                            ).!.~.{.].l l l l l ^./.(._.%._ _ _ _ _ L K :.<.[.}.-.-.-.-.|.1.2.3.p 4.% .                         ",
"                            5.6.f 7.k l l l l l l 8.9.0.a.b.K L K c.@.d.e.f.-.-.-.-.-.-.,.g.h.i.8 ( ] -                         ",
"                      j.k.l.m.n.8 o.p.q.r.s.l l l l m t.u.v.w.x.y.z.A.B.-.-.-.-.-.-.-.-.C.D.E.( _ ( F.G.H.                      ",
"                    H.I.J.K.L., _ _ d M.N.O.P.l l l l l m Q.R.S.T.U.-.-.-.-.-.-.-.-.U V.W.( ( _ 8 W.X.Y.Z.  j.                  ",
"                    J.`. +.+++@+#+( _ _ _ _ $+%+` l l l l s.&+~.-.-.-.-.-.-.-.-.-.*+=+' _ L K -+;+>+-.}.,+'+)+!+                ",
"                    ~+{+]+^+/+E ^.(+%+_+8 _ _ _ :+` l l l l <+[+-.-.-.-.-.-.-.-.V }+|+K 1+2+3+B.-.-.-.-.4+5+6+7+                ",
"                  8+6+9+5+0+a+b+m l l c+d+e+_ _ _ _+d+c+l l l f+g+g.h+,.-.-.-.-.{.i+j+k+l+m+~.-.-.-.-.-.4+n+o+p+                ",
"                  8+q+r+s+t+u+b v+s.l l l w+_+x+M _ 8 _+P.l l l y+z+g+A+-.-.-.-.7.b B+C+D+-.-.-.-.-.-.~.E+7+F+                  ",
"                    G+H+I+J+K+s.l l l l l l L+M+N+O+s P+Q+R+l y+~.h+-.-.-.-.-.-.U S+l l T+g+U+,.-.-.U V+W+X+                    ",
"                        Y+Z+`+r.l l l l l l l r. @.@+@@@#@$@r.%@h+-.-.-.-.-.,.h+&@*@m l l T+~.-.=@-@;@>@,@'@                    ",
"                        8+)@!@~@{@l l l l l l l s.b W -.]@U ^@/@V -.-.-.-.-.A+(@g+_@:@<@s.l ^@[@}@|@1@2@3@                      ",
"                          4@5@6@7@8@9@0@l l l l l <+*+-.-.-.=.a@=.-.-.-.-.-.-.-.b@c@d@`+e@f@g@h@i@j@k@l@4@                      ",
"                          m@n@o@p@q@r@s@t@l l l l u@*+-.-.-.V <@{.-.-.-.-.-.-.v@w@j@`.x@y@x@`.`.z@k@A@B@H.                      ",
"                          C@9+D@G+E@F@G@H@I@9@J@l c K@]@-.-.U L@M@{.N@O@P@c@4+j@z@Q@R@X+S@T@S@U@V@W@B@X@                        ",
"                          8+F+F+      E@Y@Z@`@ #.#+#@###=@P@$#L.t+t+%#&#*#=#-#;#>#,#8+  8+F+G+'#)#!#,@~#                        ",
"                                        F+{#]#z@i@^#h@g@/#`.`@`.`.(#_#:#5@F@5@<#7+H.          H.C@5@'@                          ",
"                                          4@>#[#}#Z@Z@Z@|#1#I+X+C@H.        k.J.!+                                              ",
"                                          '+2#3#4#5#6#F@'@4@7#H.                                                                ",
"                                            :#1@8#)#5+9#~+0#a#I.j.                                                              ",
"                                            b#c#T@S@d#e#1#9+f#4@                                                                ",
"                                              8+F+8+    F+F+F+                                                                  ",
"                                                                                                                                ",
"                                                                                                                                ",
"                                                                                                                                ",
"                                                                                                                                ",
"                                                                                                                                ",
"                                                                                                                                ",
"                                                                                                                                ",
"                                                                                                                                ",
"                                                                                                                                ",
"                                                                                                                                ",
"                                                                                                                                ",
"                                                                                                                                ",
"                                                                                                                                ",
"                                                                                                                                "};
