/* XPM */
static char * rp2_xpm[] = {
"64 64 350 2",
"  	c None",
". 	c #161C2E",
"+ 	c #295665",
"@ 	c #22404D",
"# 	c #1C2E39",
"$ 	c #182133",
"% 	c #316878",
"& 	c #428C99",
"* 	c #56ACA8",
"= 	c #55ABA7",
"- 	c #4B9591",
"; 	c #294F53",
"> 	c #171F31",
", 	c #346377",
"' 	c #3E8698",
") 	c #54A9A7",
"! 	c #5AB2AC",
"~ 	c #50A3A4",
"{ 	c #57AEAA",
"] 	c #54A9A6",
"^ 	c #3B7676",
"/ 	c #2A3752",
"( 	c #3E7B90",
"_ 	c #3B7F90",
": 	c #458B8C",
"< 	c #4C9792",
"[ 	c #59B1AA",
"} 	c #4D9EA2",
"| 	c #57AEA9",
"1 	c #52A5A5",
"2 	c #2C585F",
"3 	c #35546E",
"4 	c #3E8597",
"5 	c #396079",
"6 	c #2E3856",
"7 	c #181E31",
"8 	c #294E52",
"9 	c #499291",
"0 	c #52A4A0",
"a 	c #252E48",
"b 	c #3F6582",
"c 	c #404E75",
"d 	c #313D5D",
"e 	c #161D2E",
"f 	c #35696D",
"g 	c #56ABA7",
"h 	c #32666C",
"i 	c #4D9D9F",
"j 	c #192738",
"k 	c #1F273E",
"l 	c #2E3A57",
"m 	c #364264",
"n 	c #1F273D",
"o 	c #172032",
"p 	c #3F7B8B",
"q 	c #396777",
"r 	c #417287",
"s 	c #192033",
"t 	c #34697B",
"u 	c #2F5166",
"v 	c #2D5567",
"w 	c #483E3E",
"x 	c #6B5851",
"y 	c #262A3F",
"z 	c #2E445D",
"A 	c #243A4D",
"B 	c #706456",
"C 	c #5F5750",
"D 	c #D5B583",
"E 	c #1B1F2F",
"F 	c #8B8075",
"G 	c #D3C5B4",
"H 	c #D6D6D8",
"I 	c #D5D5D6",
"J 	c #D4D4D3",
"K 	c #E8E2DA",
"L 	c #C9C1B8",
"M 	c #302F38",
"N 	c #DCC29E",
"O 	c #C0B09C",
"P 	c #5D4D49",
"Q 	c #998068",
"R 	c #D3C495",
"S 	c #EFE2AE",
"T 	c #EDDFAE",
"U 	c #ECDEBC",
"V 	c #F2E7CA",
"W 	c #ECDEB3",
"X 	c #C8AB7D",
"Y 	c #343035",
"Z 	c #C4B093",
"` 	c #FAF6F2",
" .	c #989686",
"..	c #866D60",
"+.	c #BD9F79",
"@.	c #DEC692",
"#.	c #EFE1AC",
"$.	c #F4EAC9",
"%.	c #F4ECCC",
"&.	c #F9F5E8",
"*.	c #E0DCD7",
"=.	c #EBDBA8",
"-.	c #9B8968",
";.	c #BAA077",
">.	c #EDEBE0",
",.	c #F5F0DC",
"'.	c #94906F",
").	c #232331",
"!.	c #8F7566",
"~.	c #C9AA7E",
"{.	c #D8BB88",
"].	c #E6D39E",
"^.	c #EFE1AB",
"/.	c #EFE2AD",
"(.	c #F5EEDA",
"_.	c #61574D",
":.	c #E1CCA2",
"<.	c #C7BB99",
"[.	c #D4CABC",
"}.	c #F4EFDC",
"|.	c #DCC593",
"1.	c #928D6D",
"2.	c #5B4C49",
"3.	c #997D6C",
"4.	c #D4B482",
"5.	c #D6B684",
"6.	c #E1CA97",
"7.	c #F2E8C1",
"8.	c #F7F3E7",
"9.	c #34363F",
"0.	c #B39A73",
"a.	c #DFD2B1",
"b.	c #65594C",
"c.	c #373839",
"d.	c #E5E1C4",
"e.	c #DBC391",
"f.	c #C3AF81",
"g.	c #323136",
"h.	c #272731",
"i.	c #816E55",
"j.	c #A68A70",
"k.	c #D3B382",
"l.	c #D2B382",
"m.	c #DBC390",
"n.	c #ECDFAB",
"o.	c #EBE9E2",
"p.	c #2D303C",
"q.	c #6F604D",
"r.	c #BFB087",
"s.	c #2B2D35",
"t.	c #A5A17B",
"u.	c #E5D79F",
"v.	c #D4B583",
"w.	c #73624E",
"x.	c #181F30",
"y.	c #847157",
"z.	c #AF956E",
"A.	c #2D2B33",
"B.	c #1F2130",
"C.	c #7F685D",
"D.	c #B89A77",
"E.	c #CBAD7E",
"F.	c #A49774",
"G.	c #44413E",
"H.	c #333337",
"I.	c #171D2E",
"J.	c #605B4F",
"K.	c #5B574B",
"L.	c #D1CB99",
"M.	c #C3AB7D",
"N.	c #BDA075",
"O.	c #252631",
"P.	c #285261",
"Q.	c #316978",
"R.	c #877B66",
"S.	c #AD936D",
"T.	c #524740",
"U.	c #866E61",
"V.	c #BC9E79",
"W.	c #CAAB7E",
"X.	c #DCC18E",
"Y.	c #E5D4A0",
"Z.	c #C9BE92",
"`.	c #CFCCC0",
" +	c #64656A",
".+	c #564B41",
"++	c #E0CCA3",
"@+	c #B9AE87",
"#+	c #B3AA83",
"$+	c #C7AA7B",
"%+	c #295463",
"&+	c #3F8496",
"*+	c #877E74",
"=+	c #B99B77",
"-+	c #A38B68",
";+	c #7B6955",
">+	c #7B675B",
",+	c #B09470",
"'+	c #D9BB89",
")+	c #EEE0AA",
"!+	c #F3E9C5",
"~+	c #9D9D9E",
"{+	c #A68E6C",
"]+	c #F2E9CF",
"^+	c #C1B288",
"/+	c #1A2936",
"(+	c #CBC08F",
"_+	c #907B62",
":+	c #BCA075",
"<+	c #47959E",
"[+	c #B3A68A",
"}+	c #A9906A",
"|+	c #8C7E61",
"1+	c #9E916E",
"2+	c #D5CA97",
"3+	c #413C3B",
"4+	c #D2B281",
"5+	c #E7D49F",
"6+	c #F1E4B6",
"7+	c #C1BEB1",
"8+	c #DBCBA3",
"9+	c #7F7962",
"0+	c #438889",
"a+	c #3D7B7F",
"b+	c #947E5F",
"c+	c #957F60",
"d+	c #B69A73",
"e+	c #47949E",
"f+	c #C3C8A2",
"g+	c #DEC893",
"h+	c #D4B483",
"i+	c #A38B67",
"j+	c #B6A47A",
"k+	c #2E2B33",
"l+	c #6F5F4D",
"m+	c #A68D69",
"n+	c #E4D29E",
"o+	c #F9F4E3",
"p+	c #EEE0B4",
"q+	c #B9A57C",
"r+	c #3B6E6D",
"s+	c #418589",
"t+	c #2C414B",
"u+	c #B99D73",
"v+	c #584A46",
"w+	c #977E66",
"x+	c #252531",
"y+	c #535E60",
"z+	c #488897",
"A+	c #428C9B",
"B+	c #9DBFA7",
"C+	c #E2D19B",
"D+	c #D8BC89",
"E+	c #B89C73",
"F+	c #B0966F",
"G+	c #2D2C34",
"H+	c #242D46",
"I+	c #605B4D",
"J+	c #B1A27C",
"K+	c #E0D3A3",
"L+	c #B9AE86",
"M+	c #3C445F",
"N+	c #274153",
"O+	c #428A94",
"P+	c #347080",
"Q+	c #2C3C48",
"R+	c #685650",
"S+	c #51464B",
"T+	c #192435",
"U+	c #857157",
"V+	c #C9B086",
"W+	c #A1AB99",
"X+	c #95AA9B",
"Y+	c #DBC18D",
"Z+	c #C2A47B",
"`+	c #2E2E37",
" @	c #3E6A84",
".@	c #3C5474",
"+@	c #323E5E",
"@@	c #2A2C34",
"#@	c #2B3651",
"$@	c #3F6A85",
"%@	c #313E5D",
"&@	c #4E4546",
"*@	c #335F6D",
"=@	c #3B5B78",
"-@	c #33596F",
";@	c #182435",
">@	c #71614D",
",@	c #E3D39C",
"'@	c #C5CAA4",
")@	c #A9A38D",
"!@	c #D3B484",
"~@	c #BEA178",
"{@	c #C0A27A",
"]@	c #2E2D36",
"^@	c #3E7289",
"/@	c #3F728A",
"(@	c #3F5679",
"_@	c #374365",
":@	c #3B627D",
"<@	c #242534",
"[@	c #9E826D",
"}@	c #BB9E76",
"|@	c #584D44",
"1@	c #2D3855",
"2@	c #323D5D",
"3@	c #1E263C",
"4@	c #2B2932",
"5@	c #C8AA7C",
"6@	c #DAC18D",
"7@	c #C4C8A1",
"8@	c #68989A",
"9@	c #878679",
"0@	c #AD926F",
"a@	c #3E7088",
"b@	c #3E8194",
"c@	c #3F778E",
"d@	c #3B7387",
"e@	c #1E3646",
"f@	c #A0856C",
"g@	c #CBAC7E",
"h@	c #292832",
"i@	c #867258",
"j@	c #D3B482",
"k@	c #4B929C",
"l@	c #3F8798",
"m@	c #357081",
"n@	c #866F5E",
"o@	c #272734",
"p@	c #354163",
"q@	c #364E6A",
"r@	c #355D74",
"s@	c #31596E",
"t@	c #1E2B3F",
"u@	c #1F263D",
"v@	c #3F3A45",
"w@	c #6D5C4F",
"x@	c #70604D",
"y@	c #181D2E",
"z@	c #877358",
"A@	c #799393",
"B@	c #54656D",
"C@	c #87958F",
"D@	c #435E69",
"E@	c #3C343A",
"F@	c #171C2E",
"G@	c #253B48",
"H@	c #5B4B48",
"I@	c #1E2030",
"                                                                                                                                ",
"                                                                                                                                ",
"                                                                                                                                ",
"                                                                                                                                ",
"                                                                                                                                ",
"                                                                                                                                ",
"                                                                                                                                ",
"                                                                                                                                ",
"                                                                                                                                ",
"                                                                                                                                ",
"                                                                                                                                ",
"                                                                                                                                ",
"                                                                                                                                ",
"                                                                                                                                ",
"                                                                                                                                ",
"                                                    . + @ #                                                                     ",
"                                                  $ % & * = - ;                                                                 ",
"                                                > , ' ) ! ~ { ] ^                                                               ",
"                                                / ( _ : < [ } | 1 2                                                             ",
"                                                3 4 5 6 7 8 [ 9 0 :                                                             ",
"                                                a b b c d e f g h i j                                                           ",
"                                                  k l m n . o p q r s                                                           ",
"                                                      .     . t u v                                                             ",
"                                                        w x y z A B C                       D                                   ",
"                                                      E F G H I J K L M                   N O                                   ",
"                                                    . P Q R S T U V W X Y               Z `  .                                  ",
"                                                    E ..+.@.#.$.%.&.*.=.-.            ;.>.,.'.                                  ",
"                                                    ).!.~.{.].^./.(._.:.<..           [.}.|.1.                                  ",
"                                                    2.3.4.D 5.6.7.8.9.0.a.b.        c.d.e.f.g.                                  ",
"                                          h.i.    . 2.j.k.4.l.m.n.o.p.q.r.s.        t.u.v.w.                                    ",
"                                          x.y.z.A.. B.C.D.E.F.G.H.p.. I.J.K.      c.L.M.N.O.                                    ",
"                                          P.Q.R.S.T.E U.V.W.X.Y.Z.`. +.+++@+      t.#+$+w.                                      ",
"                                          %+' &+*+=+-+;+>+,+D '+)+!+~+{+]+^+/+  Y (+_+:+O.                                      ",
"                                          %+' <+[+}+|+1+2+3+4+D 5+6+7+8+)+9+0+a+b+c+d+w.                                        ",
"                                          %+' e+f+g+h+i+j+k+l+m+n+/.o+p+q+r+s+t+u+v+w+x+                                        ",
"                                          y+z+A+B+C+D+E+F+G+H+7 I+J+K+L+M+N+O+P+Q+R+S+T+                                        ",
"                                          U+V+W+X+Y+{.Z+d+`+ @.@+@n @@#@$@%@&@*@=@+@H+-@;@                                      ",
"                                          >@v.,@'@)@!@~@{@]@^@4 /@(@_@b :@<@[@}@|@1@2@3@                                        ",
"                                          4@5@6@7@) 8@9@0@`+a@4 ' b@c@d@e@B.f@4.g@h@7                                           ",
"                                            i@j@V+k@l@m@n@o@p@q@r@r@s@t@. u@v@w@x@y@                                            ",
"                                              z@k.A@4 B@P . . . . . .     u@1@.                                                 ",
"                                                z@C@D@E@F@. .   . . .                                                           ",
"                                                  G@H@I@  . .   . . .                                                           ",
"                                                    .                                                                           ",
"                                                                                                                                ",
"                                                                                                                                ",
"                                                                                                                                ",
"                                                                                                                                ",
"                                                                                                                                ",
"                                                                                                                                ",
"                                                                                                                                ",
"                                                                                                                                ",
"                                                                                                                                ",
"                                                                                                                                ",
"                                                                                                                                ",
"                                                                                                                                ",
"                                                                                                                                ",
"                                                                                                                                ",
"                                                                                                                                ",
"                                                                                                                                ",
"                                                                                                                                ",
"                                                                                                                                ",
"                                                                                                                                ",
"                                                                                                                                "};
