/* XPM */
static char * rp3_xpm[] = {
"64 64 344 2",
"  	c None",
". 	c #161C2E",
"+ 	c #192737",
"@ 	c #346F7E",
"# 	c #3B7678",
"$ 	c #386F6E",
"% 	c #1E353E",
"& 	c #2A455A",
"* 	c #3D8496",
"= 	c #4B9BA1",
"- 	c #57AEAA",
"; 	c #50A2A4",
"> 	c #56ACA7",
", 	c #387276",
"' 	c #243048",
") 	c #3D7B8F",
"! 	c #3E8698",
"~ 	c #52A6A6",
"{ 	c #5AB3AC",
"] 	c #55AAA8",
"^ 	c #5AB2AC",
"/ 	c #458B8C",
"( 	c #325269",
"_ 	c #3E8597",
": 	c #357181",
"< 	c #34676B",
"[ 	c #3F7D7B",
"} 	c #55A9A3",
"| 	c #52A5A1",
"1 	c #57AEA9",
"2 	c #316163",
"3 	c #2E3A57",
"4 	c #3F758C",
"5 	c #3F5F7E",
"6 	c #394669",
"7 	c #1F273D",
"8 	c #274A4F",
"9 	c #54A8A2",
"0 	c #4E9B98",
"a 	c #48918F",
"b 	c #4C9A9B",
"c 	c #181F32",
"d 	c #2E3B58",
"e 	c #395672",
"f 	c #3F4D74",
"g 	c #313D5C",
"h 	c #213E4B",
"i 	c #51A3A3",
"j 	c #31646C",
"k 	c #4A9097",
"l 	c #192536",
"m 	c #171D30",
"n 	c #171D2F",
"o 	c #386D81",
"p 	c #33566C",
"q 	c #3B677F",
"r 	c #191F32",
"s 	c #171C2E",
"t 	c #316072",
"u 	c #31586D",
"v 	c #244857",
"w 	c #796756",
"x 	c #9A836E",
"y 	c #44485B",
"z 	c #414961",
"A 	c #383D4B",
"B 	c #A79E95",
"C 	c #A9A4A0",
"D 	c #282B38",
"E 	c #D9BF99",
"F 	c #3A3339",
"G 	c #716B6B",
"H 	c #C9C0AF",
"I 	c #F6F2E3",
"J 	c #F4EFE2",
"K 	c #EFE7DD",
"L 	c #EDE2CC",
"M 	c #C5B899",
"N 	c #70614E",
"O 	c #E5D3BC",
"P 	c #D3D2CB",
"Q 	c #695750",
"R 	c #AE9173",
"S 	c #E5D19D",
"T 	c #EFE1AC",
"U 	c #F4EAC9",
"V 	c #F7F0DC",
"W 	c #FAF5E7",
"X 	c #F3EAD2",
"Y 	c #D9BF8E",
"Z 	c #615346",
"` 	c #AEA89B",
" .	c #FEFDFB",
"..	c #C9C5A2",
"+.	c #1F2130",
"@.	c #8E7466",
"#.	c #C3A47B",
"$.	c #DEC592",
"%.	c #EFE0AA",
"&.	c #EFE2AE",
"*.	c #F0E2AF",
"=.	c #F6F0DB",
"-.	c #BBB3AA",
";.	c #EBDBA7",
">.	c #AE9C77",
",.	c #BAA17B",
"'.	c #F3EEDA",
").	c #EADBC8",
"!.	c #C3BA8C",
"~.	c #3C343A",
"{.	c #907666",
"].	c #CEAF80",
"^.	c #D5B583",
"/.	c #DFC693",
"(.	c #EEE0AA",
"_.	c #F1E5B8",
":.	c #F7F3E5",
"<.	c #413F42",
"[.	c #D2BC97",
"}.	c #CBC19F",
"|.	c #242431",
"1.	c #AFAEA6",
"2.	c #EEE5C6",
"3.	c #DCC693",
"4.	c #8D8063",
"5.	c #4F453E",
"6.	c #2D2B33",
"7.	c #5D4D49",
"8.	c #A1846E",
"9.	c #D4B483",
"0.	c #DCC28F",
"a.	c #34363E",
"b.	c #A58D69",
"c.	c #E7D8B5",
"d.	c #60564B",
"e.	c #373839",
"f.	c #DFD8A3",
"g.	c #DBC28E",
"h.	c #BDA176",
"i.	c #262631",
"j.	c #534840",
"k.	c #AE946D",
"l.	c #615446",
"m.	c #4D4142",
"n.	c #927965",
"o.	c #C4A57C",
"p.	c #CBAC7D",
"q.	c #B39870",
"r.	c #BAA57C",
"s.	c #C8BD92",
"t.	c #C1BFBA",
"u.	c #232836",
"v.	c #50463F",
"w.	c #8C8165",
"x.	c #222531",
"y.	c #A5A17B",
"z.	c #D8CA96",
"A.	c #73624E",
"B.	c #285362",
"C.	c #585955",
"D.	c #BB9F74",
"E.	c #5A4E43",
"F.	c #171D2E",
"G.	c #8D7365",
"H.	c #D4B583",
"I.	c #CDBC8E",
"J.	c #938B6D",
"K.	c #383739",
"L.	c #32343A",
"M.	c #202230",
"N.	c #A0947E",
"O.	c #7E7761",
"P.	c #D4CD9B",
"Q.	c #9B8564",
"R.	c #BDA075",
"S.	c #252631",
"T.	c #347081",
"U.	c #67797A",
"V.	c #A78C6F",
"W.	c #947D62",
"X.	c #564B41",
"Y.	c #6E5B52",
"Z.	c #AC8F72",
"`.	c #D6B684",
" +	c #E3CE9A",
".+	c #ECDFAA",
"++	c #F5F1E2",
"@+	c #868689",
"#+	c #71614E",
"$+	c #E7D7B4",
"%+	c #C7BC91",
"&+	c #A19974",
"*+	c #B8AD85",
"=+	c #3E8798",
"-+	c #478898",
";+	c #BDA57F",
">+	c #988161",
",+	c #AB9B74",
"'+	c #B9AB80",
")+	c #A7A17B",
"!+	c #967F60",
"~+	c #ECDCA7",
"{+	c #F1E5BA",
"]+	c #9D9C9D",
"^+	c #B7A078",
"/+	c #F2E6C0",
"(+	c #B1A27C",
"_+	c #2F5D5E",
":+	c #428483",
"<+	c #2F2E36",
"[+	c #BEA67A",
"}+	c #806E58",
"|+	c #BCA075",
"1+	c #428C9A",
"2+	c #56A1A2",
"3+	c #DBC693",
"4+	c #D6B987",
"5+	c #625748",
"6+	c #B39D75",
"7+	c #6D5E4C",
"8+	c #C8AA7C",
"9+	c #E7D49F",
"0+	c #EFE2AD",
"a+	c #E1DDD1",
"b+	c #ECDEBA",
"c+	c #E9DAA5",
"d+	c #615E51",
"e+	c #408488",
"f+	c #326771",
"g+	c #947F61",
"h+	c #947E5F",
"i+	c #987E67",
"j+	c #72614E",
"k+	c #397180",
"l+	c #509EA2",
"m+	c #D3D6A7",
"n+	c #DCC48F",
"o+	c #89755A",
"p+	c #B29C74",
"q+	c #272731",
"r+	c #CEBE90",
"s+	c #EEE0AB",
"t+	c #F5ECCD",
"u+	c #EBDCA8",
"v+	c #897862",
"w+	c #2A3750",
"x+	c #4B999A",
"y+	c #357080",
"z+	c #6C5F4F",
"A+	c #534644",
"B+	c #846C60",
"C+	c #1C2030",
"D+	c #A49173",
"E+	c #999D8F",
"F+	c #4D8F9B",
"G+	c #BDBA97",
"H+	c #E2D09A",
"I+	c #D5B684",
"J+	c #9F8568",
"K+	c #AF956E",
"L+	c #283D54",
"M+	c #324160",
"N+	c #242D47",
"O+	c #232633",
"P+	c #726450",
"Q+	c #B7AC85",
"R+	c #7F7962",
"S+	c #233A48",
"T+	c #336979",
"U+	c #3A7186",
"V+	c #303A57",
"W+	c #212436",
"X+	c #344B68",
"Y+	c #244958",
"Z+	c #B1976F",
"`+	c #D8BC89",
" @	c #DFDDAA",
".@	c #B0B396",
"+@	c #D3B484",
"@@	c #B09374",
"#@	c #B0966F",
"$@	c #293751",
"%@	c #3E7F93",
"&@	c #3F6B85",
"*@	c #3C4C70",
"=@	c #2E3856",
"-@	c #192034",
";@	c #354263",
">@	c #405D7D",
",@	c #735F56",
"'@	c #998067",
")@	c #57504E",
"!@	c #323E5E",
"~@	c #344062",
"{@	c #172031",
"]@	c #847057",
"^@	c #E3D29B",
"/@	c #9DBEA7",
"(@	c #6B9D9D",
"_@	c #AAA78F",
":@	c #957E64",
"<@	c #294156",
"[@	c #3E8094",
"}@	c #3F6682",
"|@	c #3F5075",
"1@	c #355C72",
"2@	c #171E30",
"3@	c #80695C",
"4@	c #D3B382",
"5@	c #C9AB7C",
"6@	c #605247",
"7@	c #1F263D",
"8@	c #322E34",
"9@	c #C8AA7B",
"0@	c #D5B683",
"a@	c #9CA393",
"b@	c #49979F",
"c@	c #428B9A",
"d@	c #355763",
"e@	c #917962",
"f@	c #29334E",
"g@	c #3F5779",
"h@	c #3E7189",
"i@	c #3E768D",
"j@	c #3E768C",
"k@	c #3E758B",
"l@	c #3E363C",
"m@	c #937B63",
"n@	c #544940",
"o@	c #5C4F44",
"p@	c #BFAC88",
"q@	c #428798",
"r@	c #5F6366",
"s@	c #181E32",
"t@	c #374466",
"u@	c #181E31",
"v@	c #C6A97D",
"w@	c #488796",
"x@	c #2E5765",
"y@	c #4E4142",
"z@	c #564D45",
"A@	c #325663",
"B@	c #66544E",
"C@	c #1E2030",
"                                                                                                                                ",
"                                                                                                                                ",
"                                                                                                                                ",
"                                                                                                                                ",
"                                                                                                                                ",
"                                                                                                                                ",
"                                                                                                                                ",
"                                                                                                                                ",
"                                                                                                                                ",
"                                                                                                                                ",
"                                                                                                                                ",
"                                                                                                                                ",
"                                                                                                                                ",
"                                                                                                                                ",
"                                                                                                                                ",
"                                                                                                                                ",
"                                                  . + @ # $ %                                                                   ",
"                                                . & * = - ; > ,                                                                 ",
"                                                ' ) ! ~ { - ] ^ /                                                               ",
"                                                ( _ : < [ } ~ | 1 2                                                             ",
"                                                3 4 5 6 7 8 9 0 a b                                                             ",
"                                                c d e f g . h i j k l                                                           ",
"                                                    m c n   m o p q r                                                           ",
"                                                            s t u v                                                             ",
"                                                        w x y z A B C D                     E                                   ",
"                                                      F G H I J K L M N                   O P                                   ",
"                                                    . Q R S T U V W X Y Z               `  ...                                  ",
"                                                    +.@.#.$.%.&.*.=.-.;.>.            ,.'.).!.                                  ",
"                                                    ~.{.].^./.(._.:.<.[.}.|.          1.2.3.4.                                  ",
"                                          5.6.      7.8.9.^.^.0._.I a.b.c.d.        e.f.g.h.i.                                  ",
"                                          j.k.l.  . m.n.o.p.q.r.s.t.u.v.w.x.        y.z.9.A.                                    ",
"                                          B.C.D.E.F.+.G.#.H.I.J.K.L.n M.N.O.      e.P.Q.R.S.                                    ",
"                                          T.* U.V.W.X.Y.Z.#.`. +.+++@+#+$+%+      &+*+h.A.                                      ",
"                                          T.=+-+;+>+,+'+)+!+^.`.~+{+]+^+/+(+_+:+<+[+}+|+S.                                      ",
"                                          T.1+2+3+4+R.5+6+7+8+9.9+0+a+b+c+d+e+f+g+h+i+j+                                        ",
"                                          k+! l+m+n+^.o+p+n q+#+r+s+t+u+v+w+x+y+z+A+B+C+                                        ",
"                                          D+E+F+G+H+I+J+K+L+M+N+O+P+Q+R+6 6 S+T+U+V+W+X+Y+                                      ",
"                                          Z+`+ @.@+@^.@@#@$@%@&@*@=@-@;@>@3 ,@'@)@!@~@N+{@                                      ",
"                                          ]@I+^@/@(@_@:@K+<@[@! [@}@|@}@1@2@3@4@5@6@7 7@                                        ",
"                                          8@9@0@a@b@c@d@e@f@g@h@i@j@k@t {@. l@m@#@n@                                            ",
"                                            o@8+p@q@_ r@7.n c c c c c .   s@t@u@.                                               ",
"                                              o@v@w@x@y@s . .   . . .       u@                                                  ",
"                                                z@A@B@.   . .   . . .                                                           ",
"                                                  s C@                                                                          ",
"                                                                                                                                ",
"                                                                                                                                ",
"                                                                                                                                ",
"                                                                                                                                ",
"                                                                                                                                ",
"                                                                                                                                ",
"                                                                                                                                ",
"                                                                                                                                ",
"                                                                                                                                ",
"                                                                                                                                ",
"                                                                                                                                ",
"                                                                                                                                ",
"                                                                                                                                ",
"                                                                                                                                ",
"                                                                                                                                ",
"                                                                                                                                ",
"                                                                                                                                ",
"                                                                                                                                ",
"                                                                                                                                ",
"                                                                                                                                "};
