/* XPM */
static char * rp4_xpm[] = {
"64 64 347 2",
"  	c None",
". 	c #2D606F",
"+ 	c #1D333D",
"@ 	c #1B2D38",
"# 	c #161C2E",
"$ 	c #244957",
"% 	c #4A969A",
"& 	c #58B0AA",
"* 	c #4D9B9C",
"= 	c #458A87",
"- 	c #28505C",
"; 	c #2A4459",
"> 	c #428B99",
", 	c #55AAA8",
"' 	c #58AFAA",
") 	c #52A6A6",
"! 	c #59B1AB",
"~ 	c #3E7F87",
"{ 	c #1E263C",
"] 	c #38677D",
"^ 	c #3E8697",
"/ 	c #4A9595",
"( 	c #4C9792",
"_ 	c #59B1AA",
": 	c #4C9898",
"< 	c #59B0AA",
"[ 	c #387175",
"} 	c #253049",
"| 	c #3E758C",
"1 	c #356479",
"2 	c #2A3550",
"3 	c #284C50",
"4 	c #52A4A0",
"5 	c #54A7A2",
"6 	c #3D7B7B",
"7 	c #4F9F9E",
"8 	c #182636",
"9 	c #202A40",
"0 	c #3E7189",
"a 	c #3F6B86",
"b 	c #404F75",
"c 	c #3C4A6F",
"d 	c #1A2938",
"e 	c #488E97",
"f 	c #346A73",
"g 	c #458190",
"h 	c #192335",
"i 	c #395773",
"j 	c #3F5578",
"k 	c #3C496E",
"l 	c #202940",
"m 	c #346E7F",
"n 	c #2F4B62",
"o 	c #3B677F",
"p 	c #191F32",
"q 	c #171D30",
"r 	c #192033",
"s 	c #1C2031",
"t 	c #41383C",
"u 	c #315268",
"v 	c #305167",
"w 	c #304C58",
"x 	c #232430",
"y 	c #928477",
"z 	c #CABBAE",
"A 	c #A1A3AA",
"B 	c #9FA1A7",
"C 	c #9D9EA0",
"D 	c #D8D2CB",
"E 	c #C7C0B9",
"F 	c #252937",
"G 	c #D5B685",
"H 	c #4D4142",
"I 	c #796759",
"J 	c #C4B58D",
"K 	c #F4EBCB",
"L 	c #F2E7C9",
"M 	c #EDE0C5",
"N 	c #EADAB2",
"O 	c #D4C598",
"P 	c #A48C68",
"Q 	c #262631",
"R 	c #DCC29E",
"S 	c #D9D2CA",
"T 	c #171C2E",
"U 	c #756057",
"V 	c #B69876",
"W 	c #E1CA97",
"X 	c #EFE1AC",
"Y 	c #F8F2DE",
"Z 	c #FEFDFB",
"` 	c #F6F2E8",
" .	c #E3CF9C",
"..	c #7A6953",
"+.	c #9A8E80",
"@.	c #FAF7F3",
"#.	c #CCC9AE",
"$.	c #222331",
"%.	c #947969",
"&.	c #C4A57C",
"*.	c #DBC08D",
"=.	c #EAD9A4",
"-.	c #EFE1AB",
";.	c #F1E7C4",
">.	c #7E7160",
",.	c #E6D3A0",
"'.	c #C0B187",
").	c #D1B384",
"!.	c #E7E1CC",
"~.	c #F2EADF",
"{.	c #C6C091",
"].	c #4E4142",
"^.	c #927767",
"/.	c #D3B382",
"(.	c #D5B583",
"_.	c #E7D49F",
":.	c #F2E8C2",
"<.	c #FBFAF8",
"[.	c #393A42",
"}.	c #C4AD8D",
"|.	c #D5C8A4",
"1.	c #5D5145",
"2.	c #9B9691",
"3.	c #F4EEDA",
"4.	c #E0CAA1",
"5.	c #AD9E77",
"6.	c #5D4D49",
"7.	c #A78B71",
"8.	c #D4B583",
"9.	c #DEC592",
"0.	c #EFE2AD",
"a.	c #F4EFDD",
"b.	c #33353E",
"c.	c #947E5F",
"d.	c #E4D5B2",
"e.	c #3A393D",
"f.	c #292B33",
"g.	c #D4CFA6",
"h.	c #E0CD99",
"i.	c #CBB181",
"j.	c #333236",
"k.	c #6B5C4B",
"l.	c #937E5F",
"m.	c #3A3239",
"n.	c #81695D",
"o.	c #BD9F79",
"p.	c #CAAB7D",
"q.	c #998363",
"r.	c #897A5F",
"s.	c #948C6F",
"t.	c #858587",
"u.	c #171D2F",
"v.	c #202230",
"w.	c #363538",
"x.	c #232631",
"y.	c #807D62",
"z.	c #E6DAA2",
"A.	c #D5B684",
"B.	c #1F3846",
"C.	c #867359",
"D.	c #AE946D",
"E.	c #2A2932",
"F.	c #1F2130",
"G.	c #8E7465",
"H.	c #C7A87D",
"I.	c #E1CC98",
"J.	c #C7BB8F",
"K.	c #958D6F",
"L.	c #959182",
"M.	c #2C303C",
"N.	c #2D2B33",
"O.	c #C9B794",
"P.	c #A69D7B",
"Q.	c #CFC997",
"R.	c #A08F6C",
"S.	c #C8AA7C",
"T.	c #322E34",
"U.	c #347080",
"V.	c #387788",
"W.	c #888170",
"X.	c #A18869",
"Y.	c #574945",
"Z.	c #5E4E4A",
"`.	c #997D6B",
" +	c #BEA07A",
".+	c #DCC18E",
"++	c #F8F2DD",
"@+	c #9B9C9D",
"#+	c #947F62",
"$+	c #F0E5CC",
"%+	c #C8BC91",
"&+	c #7F7C62",
"*+	c #C6BC90",
"=+	c #B39870",
"-+	c #347081",
";+	c #3E8698",
">+	c #508593",
",+	c #AB9579",
"'+	c #B0966F",
")+	c #B5A279",
"!+	c #998968",
"~+	c #93886D",
"{+	c #AB916D",
"]+	c #E9D8A3",
"^+	c #F1E5B8",
"/+	c #9F9C95",
"(+	c #C6B084",
"_+	c #9E906F",
":+	c #27494E",
"<+	c #326364",
"[+	c #232531",
"}+	c #C0AC7F",
"|+	c #8D7E64",
"1+	c #C6A87A",
"2+	c #428C9A",
"3+	c #4F949D",
"4+	c #D2B584",
"5+	c #BEA276",
"6+	c #978262",
"7+	c #827C61",
"8+	c #B7A67B",
"9+	c #50463F",
"0+	c #F6F1DE",
"a+	c #F0E3BE",
"b+	c #D7C594",
"c+	c #313338",
"d+	c #377075",
"e+	c #42888D",
"f+	c #726351",
"g+	c #937C61",
"h+	c #57A5A5",
"i+	c #E0DEAA",
"j+	c #DDC692",
"k+	c #877559",
"l+	c #1D253A",
"m+	c #181F32",
"n+	c #A29674",
"o+	c #DCCC9B",
"p+	c #F3E9C7",
"q+	c #E0D2A1",
"r+	c #5E575B",
"s+	c #223144",
"t+	c #52A5A4",
"u+	c #2A5866",
"v+	c #927D5E",
"w+	c #635549",
"x+	c #8D7365",
"y+	c #282732",
"z+	c #878678",
"A+	c #648D96",
"B+	c #46929D",
"C+	c #C1C29D",
"D+	c #E2D19B",
"E+	c #988063",
"F+	c #AF956E",
"G+	c #29344F",
"H+	c #3C617C",
"I+	c #32405F",
"J+	c #242D47",
"K+	c #282833",
"L+	c #7B755E",
"M+	c #363844",
"N+	c #3C5A78",
"O+	c #313E5D",
"P+	c #2A5664",
"Q+	c #3A7D8E",
"R+	c #315C70",
"S+	c #3D3945",
"T+	c #4E4243",
"U+	c #2D425B",
"V+	c #213F4E",
"W+	c #B2986F",
"X+	c #D3B685",
"Y+	c #BAC6A5",
"Z+	c #B8B291",
"`+	c #AB8F71",
" @	c #B0966E",
".@	c #293F55",
"+@	c #3F738B",
"@@	c #3E8094",
"#@	c #3F5F7E",
"$@	c #39476A",
"%@	c #2A3450",
"&@	c #3C5374",
"*@	c #3C5B79",
"=@	c #6B5B54",
"-@	c #345667",
";@	c #2A3451",
">@	c #253149",
",@	c #1E3847",
"'@	c #957F60",
")@	c #D8BB88",
"!@	c #E7DBA3",
"~@	c #9DB7A3",
"{@	c #9AA292",
"]@	c #C9B086",
"^@	c #A3896B",
"/@	c #3F7089",
"(@	c #3E8597",
"_@	c #3E7B91",
":@	c #3F6683",
"<@	c #3B6D84",
"[@	c #1E3646",
"}@	c #80695D",
"|@	c #CDAE80",
"1@	c #B1966F",
"2@	c #3F373D",
"3@	c #2D3755",
"4@	c #29324D",
"5@	c #5B4F43",
"6@	c #D2B382",
"7@	c #D8BC89",
"8@	c #94AE9D",
"9@	c #4FA0A3",
"0@	c #4E929C",
"a@	c #596161",
"b@	c #A08768",
"c@	c #242D46",
"d@	c #364264",
"e@	c #364E6A",
"f@	c #355D74",
"g@	c #31596E",
"h@	c #1E2B3F",
"i@	c #5F4F4A",
"j@	c #BB9D78",
"k@	c #D1B281",
"l@	c #6F5F4C",
"m@	c #877358",
"n@	c #D3B482",
"o@	c #B4A78A",
"p@	c #3F8798",
"q@	c #475E67",
"r@	c #735E55",
"s@	c #313C5B",
"t@	c #232432",
"u@	c #181D2E",
"v@	c #D0B283",
"w@	c #488897",
"x@	c #367080",
"y@	c #665551",
"z@	c #212230",
"A@	c #171E30",
"B@	c #837159",
"C@	c #3E707E",
"D@	c #5B4D4B",
"E@	c #1C1F2F",
"F@	c #1B2131",
"                                                                                                                                ",
"                                                                                                                                ",
"                                                                                                                                ",
"                                                                                                                                ",
"                                                                                                                                ",
"                                                                                                                                ",
"                                                                                                                                ",
"                                                                                                                                ",
"                                                                                                                                ",
"                                                                                                                                ",
"                                                                                                                                ",
"                                                                                                                                ",
"                                                                                                                                ",
"                                                                                                                                ",
"                                                                                                                                ",
"                                                                                                                                ",
"                                                      . + @                                                                     ",
"                                                  # $ % & * = -                                                                 ",
"                                                  ; > , ' ) , ! ~                                                               ",
"                                                { ] ^ / ( _ ) : < [                                                             ",
"                                                } | 1 2 { 3 4 5 6 7 8                                                           ",
"                                                9 0 a b c { d e f g h                                                           ",
"                                                  2 i j k l # m n o p                                                           ",
"                                                    q r s t s u v w x                                                           ",
"                                                      # y z A B C D E F                     G                                   ",
"                                                      H I J K L M N O P Q                 R S                                   ",
"                                                    T U V W X K Y Z `  ...              +.@.#.                                  ",
"                                                    $.%.&.*.=.-.-.;.>.,.'.            ).!.~.{.                                  ",
"                                                    ].^./.(.*._.:.<.[.}.|.1.          2.3.4.5.                                  ",
"                                          x       # 6.7.8.(.(.9.0.a.b.c.d.e.        f.g.h.i.j.                                  ",
"                                          k.l.    # m.n.o.p.q.r.s.t.u.v.w.x.        y.z.A.c.                                    ",
"                                          B.C.D.E.  F.G.H.8.I.J.K.L.M.N.O.P.      f.Q.R.S.T.                                    ",
"                                          U.V.W.X.Y.v.Z.`. +(..+X ++@+#+$+%+      &+*+=+c.                                      ",
"                                          -+;+>+,+'+)+!+~+{+(.(.]+^+/+(+X _+:+<+[+}+|+1+T.                                      ",
"                                          -+2+3+4+5+6+7+8+9+P S._.X 0+a+b+c+d+e+f+P g+c.                                        ",
"                                          -+;+h+i+j+(.k+)+l+m+N.n+o+p+q+r+s+t+u+v+w+x+y+                                        ",
"                                          z+A+B+C+D+A.E+F+G+H+I+J+K+L+M+N+O+P+Q+R+S+T+U+V+                                      ",
"                                          W+X+Y+Z+A.(.`+ @.@+@@@#@$@%@&@*@{ 6.=@-@k ;@>@,@                                      ",
"                                          '@)@!@~@{@]@^@'+G+/@(@;+_@:@<@[@# }@|@1@2@3@4@                                        ",
"                                          5@6@7@8@9@0@a@b@c@d@e@f@f@g@h@# # i@j@k@l@                                            ",
"                                            m@n@o@p@;+q@r@# # # # # #     m+s@t@N.u@                                            ",
"                                              m@v@w@x@y@z@# #   # # #     # c@A@                                                ",
"                                                B@C@D@E@  # #   # # #                                                           ",
"                                                  F@t                                                                           ",
"                                                                                                                                ",
"                                                                                                                                ",
"                                                                                                                                ",
"                                                                                                                                ",
"                                                                                                                                ",
"                                                                                                                                ",
"                                                                                                                                ",
"                                                                                                                                ",
"                                                                                                                                ",
"                                                                                                                                ",
"                                                                                                                                ",
"                                                                                                                                ",
"                                                                                                                                ",
"                                                                                                                                ",
"                                                                                                                                ",
"                                                                                                                                ",
"                                                                                                                                ",
"                                                                                                                                ",
"                                                                                                                                ",
"                                                                                                                                "};
