/* XPM */
static char * lp1_xpm[] = {
"64 64 353 2",
"  	c None",
". 	c #1C2E39",
"+ 	c #2B5966",
"@ 	c #295665",
"# 	c #161C2E",
"$ 	c #32666D",
"% 	c #48918F",
"& 	c #53A7A5",
"* 	c #56ADA8",
"= 	c #408793",
"- 	c #2C5D6D",
"; 	c #182133",
"> 	c #458B8C",
", 	c #5AB2AC",
"' 	c #55AAA8",
") 	c #52A6A6",
"! 	c #54A9A7",
"~ 	c #3E8698",
"{ 	c #346377",
"] 	c #171F31",
"^ 	c #316163",
"/ 	c #57AEA9",
"( 	c #52A5A1",
"_ 	c #59B1AA",
": 	c #4C9792",
"< 	c #41858A",
"[ 	c #3D8496",
"} 	c #3E7B90",
"| 	c #2A3651",
"1 	c #4C9A9B",
"2 	c #4E9B98",
"3 	c #54A8A2",
"4 	c #284C50",
"5 	c #1E263C",
"6 	c #29334F",
"7 	c #2E5065",
"8 	c #3E8194",
"9 	c #35546E",
"0 	c #1A2638",
"a 	c #4A9097",
"b 	c #31646C",
"c 	c #51A3A3",
"d 	c #213E4B",
"e 	c #171E30",
"f 	c #3C496E",
"g 	c #404E75",
"h 	c #3F6682",
"i 	c #3F758C",
"j 	c #2E3A57",
"k 	c #232B44",
"l 	c #3B6780",
"m 	c #33566C",
"n 	c #386D81",
"o 	c #171D30",
"p 	c #252E48",
"q 	c #364264",
"r 	c #364365",
"s 	c #181F32",
"t 	c #244857",
"u 	c #31586D",
"v 	c #316072",
"w 	c #171C2E",
"x 	c #D5B583",
"y 	c #282B38",
"z 	c #A9A4A0",
"A 	c #A79E95",
"B 	c #383D4B",
"C 	c #414961",
"D 	c #44485B",
"E 	c #9A836E",
"F 	c #796756",
"G 	c #C0B09C",
"H 	c #DCC29E",
"I 	c #70614E",
"J 	c #C5B899",
"K 	c #EDE2CC",
"L 	c #EFE7DD",
"M 	c #F4EFE2",
"N 	c #F6F2E3",
"O 	c #C9C0AF",
"P 	c #716B6B",
"Q 	c #3A3339",
"R 	c #989686",
"S 	c #FAF6F2",
"T 	c #C4B093",
"U 	c #615346",
"V 	c #D9BF8E",
"W 	c #F3EAD2",
"X 	c #FAF5E7",
"Y 	c #F7F0DC",
"Z 	c #F4EAC9",
"` 	c #EFE1AC",
" .	c #E5D19D",
"..	c #AE9173",
"+.	c #695750",
"@.	c #94906F",
"#.	c #F5F0DC",
"$.	c #EDEBE0",
"%.	c #BAA077",
"&.	c #AE9C77",
"*.	c #EBDBA7",
"=.	c #BBB3AA",
"-.	c #F6F0DB",
";.	c #F0E2AF",
">.	c #EFE2AE",
",.	c #EFE0AA",
"'.	c #DEC592",
").	c #C3A47B",
"!.	c #8E7466",
"~.	c #1F2130",
"{.	c #928D6D",
"].	c #DCC593",
"^.	c #F4EFDC",
"/.	c #D4CABC",
"(.	c #242431",
"_.	c #CBC19F",
":.	c #D2BC97",
"<.	c #413F42",
"[.	c #F7F3E5",
"}.	c #F1E5B8",
"|.	c #EEE0AA",
"1.	c #DFC693",
"2.	c #CEAF80",
"3.	c #907666",
"4.	c #3C343A",
"5.	c #323136",
"6.	c #C3AF81",
"7.	c #DBC391",
"8.	c #E5E1C4",
"9.	c #373839",
"0.	c #60564B",
"a.	c #E7D8B5",
"b.	c #A58D69",
"c.	c #34363E",
"d.	c #DCC28F",
"e.	c #D4B483",
"f.	c #A1846E",
"g.	c #5D4D49",
"h.	c #73624E",
"i.	c #D4B583",
"j.	c #E5D79F",
"k.	c #A5A17B",
"l.	c #222531",
"m.	c #8C8165",
"n.	c #50463F",
"o.	c #232836",
"p.	c #C1BFBA",
"q.	c #C8BD92",
"r.	c #BAA57C",
"s.	c #B39870",
"t.	c #CBAC7D",
"u.	c #C4A57C",
"v.	c #927965",
"w.	c #4D4142",
"x.	c #816E55",
"y.	c #272731",
"z.	c #252631",
"A.	c #BDA075",
"B.	c #C3AB7D",
"C.	c #D1CB99",
"D.	c #7E7761",
"E.	c #A0947E",
"F.	c #202230",
"G.	c #171D2F",
"H.	c #32343A",
"I.	c #383739",
"J.	c #938B6D",
"K.	c #CDBC8E",
"L.	c #8D7365",
"M.	c #2D2B33",
"N.	c #AF956E",
"O.	c #847157",
"P.	c #181F30",
"Q.	c #C7AA7B",
"R.	c #B3AA83",
"S.	c #C7BC91",
"T.	c #E7D7B4",
"U.	c #71614E",
"V.	c #868689",
"W.	c #F5F1E2",
"X.	c #ECDFAA",
"Y.	c #E3CE9A",
"Z.	c #D6B684",
"`.	c #C3A57C",
" +	c #756057",
".+	c #524740",
"++	c #AD936D",
"@+	c #877B66",
"#+	c #316978",
"$+	c #285261",
"%+	c #BCA075",
"&+	c #907B62",
"*+	c #CBC08F",
"=+	c #343035",
"-+	c #1A2936",
";+	c #B1A27C",
">+	c #F2E6C0",
",+	c #B7A078",
"'+	c #9D9C9D",
")+	c #F1E5BA",
"!+	c #ECDCA7",
"~+	c #B09570",
"{+	c #7A675A",
"]+	c #72624F",
"^+	c #A38B68",
"/+	c #B99B77",
"(+	c #877E74",
"_+	c #3F8496",
":+	c #295463",
"<+	c #B69A73",
"[+	c #957F60",
"}+	c #947E5F",
"|+	c #3D7B7F",
"1+	c #438889",
"2+	c #605D50",
"3+	c #E9DAA5",
"4+	c #ECDEBA",
"5+	c #E1DDD1",
"6+	c #EFE2AD",
"7+	c #E7D49F",
"8+	c #C7A97B",
"9+	c #3D3A39",
"0+	c #D5CA97",
"a+	c #9E916E",
"b+	c #8C7E61",
"c+	c #A9906A",
"d+	c #B3A68A",
"e+	c #47959E",
"f+	c #252531",
"g+	c #977E66",
"h+	c #584A46",
"i+	c #B99D73",
"j+	c #2C414B",
"k+	c #418589",
"l+	c #386D6D",
"m+	c #897861",
"n+	c #EBDCA8",
"o+	c #F5ECCD",
"p+	c #EEE0AB",
"q+	c #CEBE90",
"r+	c #B6A47A",
"s+	c #A38B67",
"t+	c #DEC893",
"u+	c #C3C8A2",
"v+	c #47949E",
"w+	c #192435",
"x+	c #51464B",
"y+	c #685650",
"z+	c #2C3C48",
"A+	c #347080",
"B+	c #428A94",
"C+	c #2F485F",
"D+	c #39476A",
"E+	c #7F7962",
"F+	c #B7AC85",
"G+	c #726450",
"H+	c #232633",
"I+	c #242D47",
"J+	c #313F5D",
"K+	c #2E2C35",
"L+	c #B0966F",
"M+	c #B89C73",
"N+	c #D8BC89",
"O+	c #E2D19B",
"P+	c #9DBFA7",
"Q+	c #428C9B",
"R+	c #488897",
"S+	c #535E60",
"T+	c #182435",
"U+	c #33596F",
"V+	c #242D46",
"W+	c #323E5E",
"X+	c #3B5B78",
"Y+	c #335F6D",
"Z+	c #4E4546",
"`+	c #2E3957",
" @	c #3F748C",
".@	c #354465",
"+@	c #192034",
"@@	c #2E3856",
"#@	c #3C4C70",
"$@	c #3F6B85",
"%@	c #3E758C",
"&@	c #2E2E37",
"*@	c #C2A47B",
"=@	c #D8BB88",
"-@	c #DBC18D",
";@	c #95AA9B",
">@	c #A1AB99",
",@	c #C9B086",
"'@	c #857157",
")@	c #323D5D",
"!@	c #2D3855",
"~@	c #584D44",
"{@	c #BB9E76",
"]@	c #9E826D",
"^@	c #232433",
"/@	c #35556E",
"(@	c #3F5075",
"_@	c #3E8094",
":@	c #3E768C",
"<@	c #C0A27A",
"[@	c #BEA178",
"}@	c #D3B484",
"|@	c #A9A38D",
"1@	c #C5CAA4",
"2@	c #E3D39C",
"3@	c #71614D",
"4@	c #181E31",
"5@	c #292832",
"6@	c #CBAC7E",
"7@	c #D4B482",
"8@	c #A0856C",
"9@	c #172031",
"0@	c #355E74",
"a@	c #3E8396",
"b@	c #3E8497",
"c@	c #3E8597",
"d@	c #3E7B91",
"e@	c #3F5F7D",
"f@	c #2E2D36",
"g@	c #AD926F",
"h@	c #878679",
"i@	c #68989A",
"j@	c #C4C8A1",
"k@	c #DAC18D",
"l@	c #C8AA7C",
"m@	c #2B2932",
"n@	c #181D2E",
"o@	c #70604D",
"p@	c #6D5C4F",
"q@	c #3F3A45",
"r@	c #1F263D",
"s@	c #243149",
"t@	c #293751",
"u@	c #29344F",
"v@	c #29334E",
"w@	c #272633",
"x@	c #866F5E",
"y@	c #357081",
"z@	c #3F8798",
"A@	c #4B929C",
"B@	c #D3B482",
"C@	c #867258",
"D@	c #54656D",
"E@	c #799393",
"F@	c #D3B382",
"G@	c #877358",
"H@	c #435E69",
"I@	c #87958F",
"J@	c #1E2030",
"K@	c #5B4B48",
"L@	c #253B48",
"                                                                                                                                ",
"                                                                                                                                ",
"                                                                                                                                ",
"                                                                                                                                ",
"                                                                                                                                ",
"                                                                                                                                ",
"                                                                                                                                ",
"                                                                                                                                ",
"                                                                                                                                ",
"                                                                                                                                ",
"                                                                                                                                ",
"                                                                                                                                ",
"                                                                                                                                ",
"                                                                                                                                ",
"                                                                                                                                ",
"                                                                    . + @ #                                                     ",
"                                                                $ % & * = - ;                                                   ",
"                                                              > , ' ) , ! ~ { ]                                                 ",
"                                                            ^ / ( ) _ : < [ } |                                                 ",
"                                                            1 % 2 3 4 5 6 7 8 9                                                 ",
"                                                          0 a b c d e f g h i j                                                 ",
"                                                          k l m n o   p q r j s                                                 ",
"                                                            t u v w     # #                                                     ",
"                                  x                     y z A B C D E F                                                         ",
"                                  G H                   I J K L M N O P Q                                                       ",
"                                  R S T               U V W X Y Z `  ...+.#                                                     ",
"                                  @.#.$.%.            &.*.=.-.;.>.,.'.).!.~.                                                    ",
"                                  {.].^./.          (._.:.<.[.}.|.1.x 2.3.4.                                                    ",
"                                  5.6.7.8.9.        0.a.b.c.N }.d.x x e.f.g.                                                    ",
"                                    h.i.j.k.        l.m.n.o.p.q.r.s.t.u.v.w.#     x.y.                                          ",
"                                    z.A.B.C.9.      D.E.F.G.H.I.J.K.i.).L.~.# M.N.O.P.                                          ",
"                                      h.Q.R.k.      S.T.U.V.W.X.Y.Z.`... +w .+++@+#+$+                                          ",
"                                      z.%+&+*+=+  -+;+>+,+'+)+!+Z.x ~+{+]+^+/+(+_+~ :+                                          ",
"                                        h.<+[+}+|+1+2+3+4+5+6+7+e.8+9+0+a+b+c+d+e+~ :+                                          ",
"                                        f+g+h+i+j+k+l+m+n+o+p+q+U.y.M.r+s+e.t+u+v+~ :+                                          ",
"                                        w+x+y+z+A+B+C+D+E+F+G+H+I+J+K+L+M+N+O+P+Q+R+S+                                          ",
"                                      T+U+V+W+X+Y+Z+`+ @.@+@@@#@$@%@&@<+*@=@-@;@>@,@'@                                          ",
"                                        5 )@!@~@{@]@^@/@i (@h _@~ :@&@<@[@}@|@1@2@i.3@                                          ",
"                                          4@5@6@7@8@~.9@0@a@b@c@d@e@f@g@h@i@! j@k@l@m@                                          ",
"                                            n@o@p@q@r@  o s@t@t@u@v@w@x@y@z@A@,@B@C@                                            ",
"                                                # !@r@    # # #   # # g.D@c@E@F@G@                                              ",
"                                                          # # #   # # w 4.H@I@G@                                                ",
"                                                          # # #   # #   J@K@L@                                                  ",
"                                                                          #                                                     ",
"                                                                                                                                ",
"                                                                                                                                ",
"                                                                                                                                ",
"                                                                                                                                ",
"                                                                                                                                ",
"                                                                                                                                ",
"                                                                                                                                ",
"                                                                                                                                ",
"                                                                                                                                ",
"                                                                                                                                ",
"                                                                                                                                ",
"                                                                                                                                ",
"                                                                                                                                ",
"                                                                                                                                ",
"                                                                                                                                ",
"                                                                                                                                ",
"                                                                                                                                ",
"                                                                                                                                ",
"                                                                                                                                ",
"                                                                                                                                "};
