/* XPM */
static char * lp2_xpm[] = {
"64 64 350 2",
"  	c None",
". 	c #1C2E39",
"+ 	c #22404D",
"@ 	c #295665",
"# 	c #161C2E",
"$ 	c #294F53",
"% 	c #4B9591",
"& 	c #55ABA7",
"* 	c #56ACA8",
"= 	c #428C99",
"- 	c #316878",
"; 	c #182133",
"> 	c #3B7676",
", 	c #54A9A6",
"' 	c #57AEAA",
") 	c #50A3A4",
"! 	c #5AB2AC",
"~ 	c #54A9A7",
"{ 	c #3E8698",
"] 	c #346377",
"^ 	c #171F31",
"/ 	c #2C585F",
"( 	c #52A5A5",
"_ 	c #57AEA9",
": 	c #4D9EA2",
"< 	c #59B1AA",
"[ 	c #4C9792",
"} 	c #458B8C",
"| 	c #3B7F90",
"1 	c #3E7B90",
"2 	c #2A3752",
"3 	c #52A4A0",
"4 	c #499291",
"5 	c #294E52",
"6 	c #181E31",
"7 	c #2E3856",
"8 	c #396079",
"9 	c #3E8597",
"0 	c #35546E",
"a 	c #192738",
"b 	c #4D9D9F",
"c 	c #32666C",
"d 	c #56ABA7",
"e 	c #35696D",
"f 	c #161D2E",
"g 	c #313D5D",
"h 	c #404E75",
"i 	c #3F6582",
"j 	c #252E48",
"k 	c #192033",
"l 	c #417287",
"m 	c #396777",
"n 	c #3F7B8B",
"o 	c #172032",
"p 	c #1F273D",
"q 	c #364264",
"r 	c #2E3A57",
"s 	c #1F273E",
"t 	c #2D5567",
"u 	c #2F5166",
"v 	c #34697B",
"w 	c #D5B583",
"x 	c #5F5750",
"y 	c #706456",
"z 	c #243A4D",
"A 	c #2E445D",
"B 	c #262A3F",
"C 	c #6B5851",
"D 	c #483E3E",
"E 	c #C0B09C",
"F 	c #DCC29E",
"G 	c #302F38",
"H 	c #C9C1B8",
"I 	c #E8E2DA",
"J 	c #D4D4D3",
"K 	c #D5D5D6",
"L 	c #D6D6D8",
"M 	c #D3C5B4",
"N 	c #8B8075",
"O 	c #1B1F2F",
"P 	c #989686",
"Q 	c #FAF6F2",
"R 	c #C4B093",
"S 	c #343035",
"T 	c #C8AB7D",
"U 	c #ECDEB3",
"V 	c #F2E7CA",
"W 	c #ECDEBC",
"X 	c #EDDFAE",
"Y 	c #EFE2AE",
"Z 	c #D3C495",
"` 	c #998068",
" .	c #5D4D49",
"..	c #94906F",
"+.	c #F5F0DC",
"@.	c #EDEBE0",
"#.	c #BAA077",
"$.	c #9B8968",
"%.	c #EBDBA8",
"&.	c #E0DCD7",
"*.	c #F9F5E8",
"=.	c #F4ECCC",
"-.	c #F4EAC9",
";.	c #EFE1AC",
">.	c #DEC692",
",.	c #BD9F79",
"'.	c #866D60",
").	c #928D6D",
"!.	c #DCC593",
"~.	c #F4EFDC",
"{.	c #D4CABC",
"].	c #C7BB99",
"^.	c #E1CCA2",
"/.	c #61574D",
"(.	c #F5EEDA",
"_.	c #EFE2AD",
":.	c #EFE1AB",
"<.	c #E6D39E",
"[.	c #D8BB88",
"}.	c #C9AA7E",
"|.	c #8F7566",
"1.	c #232331",
"2.	c #323136",
"3.	c #C3AF81",
"4.	c #DBC391",
"5.	c #E5E1C4",
"6.	c #373839",
"7.	c #65594C",
"8.	c #DFD2B1",
"9.	c #B39A73",
"0.	c #34363F",
"a.	c #F7F3E7",
"b.	c #F2E8C1",
"c.	c #E1CA97",
"d.	c #D6B684",
"e.	c #D4B482",
"f.	c #997D6C",
"g.	c #5B4C49",
"h.	c #73624E",
"i.	c #D4B583",
"j.	c #E5D79F",
"k.	c #A5A17B",
"l.	c #2B2D35",
"m.	c #BFB087",
"n.	c #6F604D",
"o.	c #2D303C",
"p.	c #EBE9E2",
"q.	c #ECDFAB",
"r.	c #DBC390",
"s.	c #D2B382",
"t.	c #D3B382",
"u.	c #A68A70",
"v.	c #816E55",
"w.	c #272731",
"x.	c #252631",
"y.	c #BDA075",
"z.	c #C3AB7D",
"A.	c #D1CB99",
"B.	c #5B574B",
"C.	c #605B4F",
"D.	c #171D2E",
"E.	c #333337",
"F.	c #44413E",
"G.	c #A49774",
"H.	c #CBAD7E",
"I.	c #B89A77",
"J.	c #7F685D",
"K.	c #1F2130",
"L.	c #2D2B33",
"M.	c #AF956E",
"N.	c #847157",
"O.	c #181F30",
"P.	c #C7AA7B",
"Q.	c #B3AA83",
"R.	c #B9AE87",
"S.	c #E0CCA3",
"T.	c #564B41",
"U.	c #64656A",
"V.	c #CFCCC0",
"W.	c #C9BE92",
"X.	c #E5D4A0",
"Y.	c #DCC18E",
"Z.	c #CAAB7E",
"`.	c #BC9E79",
" +	c #866E61",
".+	c #524740",
"++	c #AD936D",
"@+	c #877B66",
"#+	c #316978",
"$+	c #285261",
"%+	c #BCA075",
"&+	c #907B62",
"*+	c #CBC08F",
"=+	c #1A2936",
"-+	c #C1B288",
";+	c #F2E9CF",
">+	c #A68E6C",
",+	c #9D9D9E",
"'+	c #F3E9C5",
")+	c #EEE0AA",
"!+	c #D9BB89",
"~+	c #B09470",
"{+	c #7B675B",
"]+	c #7B6955",
"^+	c #A38B68",
"/+	c #B99B77",
"(+	c #877E74",
"_+	c #3F8496",
":+	c #295463",
"<+	c #B69A73",
"[+	c #957F60",
"}+	c #947E5F",
"|+	c #3D7B7F",
"1+	c #438889",
"2+	c #7F7962",
"3+	c #DBCBA3",
"4+	c #C1BEB1",
"5+	c #F1E4B6",
"6+	c #E7D49F",
"7+	c #D2B281",
"8+	c #413C3B",
"9+	c #D5CA97",
"0+	c #9E916E",
"a+	c #8C7E61",
"b+	c #A9906A",
"c+	c #B3A68A",
"d+	c #47959E",
"e+	c #252531",
"f+	c #977E66",
"g+	c #584A46",
"h+	c #B99D73",
"i+	c #2C414B",
"j+	c #418589",
"k+	c #3B6E6D",
"l+	c #B9A57C",
"m+	c #EEE0B4",
"n+	c #F9F4E3",
"o+	c #E4D29E",
"p+	c #A68D69",
"q+	c #6F5F4D",
"r+	c #2E2B33",
"s+	c #B6A47A",
"t+	c #A38B67",
"u+	c #D4B483",
"v+	c #DEC893",
"w+	c #C3C8A2",
"x+	c #47949E",
"y+	c #192435",
"z+	c #51464B",
"A+	c #685650",
"B+	c #2C3C48",
"C+	c #347080",
"D+	c #428A94",
"E+	c #274153",
"F+	c #3C445F",
"G+	c #B9AE86",
"H+	c #E0D3A3",
"I+	c #B1A27C",
"J+	c #605B4D",
"K+	c #242D46",
"L+	c #2D2C34",
"M+	c #B0966F",
"N+	c #B89C73",
"O+	c #D8BC89",
"P+	c #E2D19B",
"Q+	c #9DBFA7",
"R+	c #428C9B",
"S+	c #488897",
"T+	c #535E60",
"U+	c #182435",
"V+	c #33596F",
"W+	c #323E5E",
"X+	c #3B5B78",
"Y+	c #335F6D",
"Z+	c #4E4546",
"`+	c #313E5D",
" @	c #3F6A85",
".@	c #2B3651",
"+@	c #2A2C34",
"@@	c #3C5474",
"#@	c #3E6A84",
"$@	c #2E2E37",
"%@	c #C2A47B",
"&@	c #DBC18D",
"*@	c #95AA9B",
"=@	c #A1AB99",
"-@	c #C9B086",
";@	c #857157",
">@	c #1E263C",
",@	c #323D5D",
"'@	c #2D3855",
")@	c #584D44",
"!@	c #BB9E76",
"~@	c #9E826D",
"{@	c #242534",
"]@	c #3B627D",
"^@	c #374365",
"/@	c #3F5679",
"(@	c #3F728A",
"_@	c #3E7289",
":@	c #2E2D36",
"<@	c #C0A27A",
"[@	c #BEA178",
"}@	c #D3B484",
"|@	c #A9A38D",
"1@	c #C5CAA4",
"2@	c #E3D39C",
"3@	c #71614D",
"4@	c #292832",
"5@	c #CBAC7E",
"6@	c #A0856C",
"7@	c #1E3646",
"8@	c #3B7387",
"9@	c #3F778E",
"0@	c #3E8194",
"a@	c #3E7088",
"b@	c #AD926F",
"c@	c #878679",
"d@	c #68989A",
"e@	c #C4C8A1",
"f@	c #DAC18D",
"g@	c #C8AA7C",
"h@	c #2B2932",
"i@	c #181D2E",
"j@	c #70604D",
"k@	c #6D5C4F",
"l@	c #3F3A45",
"m@	c #1F263D",
"n@	c #1E2B3F",
"o@	c #31596E",
"p@	c #355D74",
"q@	c #364E6A",
"r@	c #354163",
"s@	c #272734",
"t@	c #866F5E",
"u@	c #357081",
"v@	c #3F8798",
"w@	c #4B929C",
"x@	c #D3B482",
"y@	c #867258",
"z@	c #54656D",
"A@	c #799393",
"B@	c #877358",
"C@	c #171C2E",
"D@	c #3C343A",
"E@	c #435E69",
"F@	c #87958F",
"G@	c #1E2030",
"H@	c #5B4B48",
"I@	c #253B48",
"                                                                                                                                ",
"                                                                                                                                ",
"                                                                                                                                ",
"                                                                                                                                ",
"                                                                                                                                ",
"                                                                                                                                ",
"                                                                                                                                ",
"                                                                                                                                ",
"                                                                                                                                ",
"                                                                                                                                ",
"                                                                                                                                ",
"                                                                                                                                ",
"                                                                                                                                ",
"                                                                                                                                ",
"                                                                                                                                ",
"                                                                    . + @ #                                                     ",
"                                                                $ % & * = - ;                                                   ",
"                                                              > , ' ) ! ~ { ] ^                                                 ",
"                                                            / ( _ : < [ } | 1 2                                                 ",
"                                                            } 3 4 < 5 6 7 8 9 0                                                 ",
"                                                          a b c d e f g h i i j                                                 ",
"                                                          k l m n o # p q r s                                                   ",
"                                                            t u v #     #                                                       ",
"                                  w                       x y z A B C D                                                         ",
"                                  E F                   G H I J K L M N O                                                       ",
"                                  P Q R               S T U V W X Y Z `  .#                                                     ",
"                                  ..+.@.#.            $.%.&.*.=.-.;.>.,.'.O                                                     ",
"                                  ).!.~.{.          # ].^./.(._.:.<.[.}.|.1.                                                    ",
"                                  2.3.4.5.6.        7.8.9.0.a.b.c.d.w e.f.g.                                                    ",
"                                    h.i.j.k.        l.m.n.o.p.q.r.s.e.t.u.g.#     v.w.                                          ",
"                                    x.y.z.A.6.      B.C.D.# o.E.F.G.H.I.J.K.# L.M.N.O.                                          ",
"                                      h.P.Q.k.      R.S.T.U.V.W.X.Y.Z.`. +O .+++@+#+$+                                          ",
"                                      x.%+&+*+S   =+-+;+>+,+'+)+!+w ~+{+]+^+/+(+_+{ :+                                          ",
"                                        h.<+[+}+|+1+2+)+3+4+5+6+w 7+8+9+0+a+b+c+d+{ :+                                          ",
"                                        e+f+g+h+i+j+k+l+m+n+_.o+p+q+r+s+t+u+v+w+x+{ :+                                          ",
"                                        y+z+A+B+C+D+E+F+G+H+I+J+6 K+L+M+N+O+P+Q+R+S+T+                                          ",
"                                      U+V+K+W+X+Y+Z+`+ @.@+@p W+@@#@$@<+%@[.&@*@=@-@;@                                          ",
"                                        >@,@'@)@!@~@{@]@i ^@/@(@9 _@:@<@[@}@|@1@2@i.3@                                          ",
"                                          6 4@5@e.6@K.7@8@9@0@{ 9 a@$@b@c@d@~ e@f@g@h@                                          ",
"                                            i@j@k@l@m@# n@o@p@p@q@r@s@t@u@v@w@-@x@y@                                            ",
"                                                # '@m@    # # # # # #  .z@9 A@t.B@                                              ",
"                                                          # # #   # # C@D@E@F@B@                                                ",
"                                                          # # #   # #   G@H@I@                                                  ",
"                                                                          #                                                     ",
"                                                                                                                                ",
"                                                                                                                                ",
"                                                                                                                                ",
"                                                                                                                                ",
"                                                                                                                                ",
"                                                                                                                                ",
"                                                                                                                                ",
"                                                                                                                                ",
"                                                                                                                                ",
"                                                                                                                                ",
"                                                                                                                                ",
"                                                                                                                                ",
"                                                                                                                                ",
"                                                                                                                                ",
"                                                                                                                                ",
"                                                                                                                                ",
"                                                                                                                                ",
"                                                                                                                                ",
"                                                                                                                                ",
"                                                                                                                                "};
