/* XPM */
static char * lp5_xpm[] = {
"64 64 355 2",
"  	c None",
". 	c #1B2D38",
"+ 	c #336465",
"@ 	c #397070",
"# 	c #316877",
"$ 	c #2B5357",
"% 	c #3F7F82",
"& 	c #54A8A2",
"* 	c #4D9DA1",
"= 	c #57AFAA",
"- 	c #4C9B9D",
"; 	c #244957",
"> 	c #161C2E",
", 	c #1B2E3A",
"' 	c #499699",
") 	c #59B2AC",
"! 	c #4FA2A4",
"~ 	c #57AEAA",
"{ 	c #5AB3AC",
"] 	c #55AAA8",
"^ 	c #428B99",
"/ 	c #2A4459",
"( 	c #448A8B",
"_ 	c #55A8A2",
": 	c #468E8E",
"< 	c #509F99",
"[ 	c #39706F",
"} 	c #3B7778",
"| 	c #3E8597",
"1 	c #38677D",
"2 	c #1E263C",
"3 	c #192738",
"4 	c #4D9D9F",
"5 	c #32666C",
"6 	c #56ABA7",
"7 	c #428484",
"8 	c #192634",
"9 	c #2A334F",
"0 	c #2E3957",
"a 	c #356479",
"b 	c #3E758C",
"c 	c #253049",
"d 	c #192034",
"e 	c #427287",
"f 	c #396777",
"g 	c #3F7B8B",
"h 	c #172032",
"i 	c #242D46",
"j 	c #3F4D74",
"k 	c #405679",
"l 	c #3F768D",
"m 	c #3E7189",
"n 	c #202A40",
"o 	c #346377",
"p 	c #2F5166",
"q 	c #34697B",
"r 	c #181F32",
"s 	c #323D5D",
"t 	c #39476A",
"u 	c #39506F",
"v 	c #2A3550",
"w 	c #D5B583",
"x 	c #5F5650",
"y 	c #716B61",
"z 	c #243C4F",
"A 	c #2E445D",
"B 	c #262A3F",
"C 	c #6A5850",
"D 	c #433A3C",
"E 	c #171D30",
"F 	c #CFB692",
"G 	c #D6B888",
"H 	c #302F38",
"I 	c #C9C1B8",
"J 	c #E8E2DA",
"K 	c #D4D4D3",
"L 	c #D5D5D6",
"M 	c #D6D6D8",
"N 	c #D3C5B4",
"O 	c #8B8075",
"P 	c #1B1F2F",
"Q 	c #9D9C95",
"R 	c #F1E8DD",
"S 	c #C7AB80",
"T 	c #343035",
"U 	c #C8AB7D",
"V 	c #ECDEB3",
"W 	c #F2E7CA",
"X 	c #ECDEBC",
"Y 	c #EDDFAE",
"Z 	c #EFE2AE",
"` 	c #D3C495",
" .	c #998068",
"..	c #5D4D49",
"+.	c #949071",
"@.	c #FBF9EE",
"#.	c #DCD8CF",
"$.	c #968161",
"%.	c #9B8968",
"&.	c #EBDBA8",
"*.	c #E0DCD7",
"=.	c #F9F5E8",
"-.	c #F4ECCC",
";.	c #F4EAC9",
">.	c #EFE1AC",
",.	c #DEC692",
"'.	c #BD9F79",
").	c #866D60",
"!.	c #938F6F",
"~.	c #E1CEA5",
"{.	c #F8F5E6",
"].	c #D5C1A5",
"^.	c #C7BB99",
"/.	c #E1CCA2",
"(.	c #61574D",
"_.	c #F5EEDA",
":.	c #EFE2AD",
"<.	c #EFE1AB",
"[.	c #E6D39E",
"}.	c #D8BB88",
"|.	c #C9AA7E",
"1.	c #8F7566",
"2.	c #232331",
"3.	c #676452",
"4.	c #D2BE8C",
"5.	c #E3D1A8",
"6.	c #DEDCCF",
"7.	c #292B33",
"8.	c #65594C",
"9.	c #DFD2B1",
"0.	c #B39A73",
"a.	c #34363F",
"b.	c #F7F3E7",
"c.	c #F2E8C1",
"d.	c #E1CA97",
"e.	c #D6B684",
"f.	c #D4B482",
"g.	c #997D6C",
"h.	c #5B4C49",
"i.	c #957F60",
"j.	c #E9DFA7",
"k.	c #807D62",
"l.	c #2B2D35",
"m.	c #BFB087",
"n.	c #6F604D",
"o.	c #2D303C",
"p.	c #EBE9E2",
"q.	c #ECDFAB",
"r.	c #DBC390",
"s.	c #D2B382",
"t.	c #D3B382",
"u.	c #A68A70",
"v.	c #564B41",
"w.	c #212330",
"x.	c #322E34",
"y.	c #C8AA7C",
"z.	c #D2BB89",
"A.	c #D0CA98",
"B.	c #5B574B",
"C.	c #605B4F",
"D.	c #171D2E",
"E.	c #333337",
"F.	c #44413E",
"G.	c #A49774",
"H.	c #CBAD7E",
"I.	c #B89A77",
"J.	c #7F685D",
"K.	c #1F2130",
"L.	c #8C785B",
"M.	c #A18966",
"N.	c #202230",
"O.	c #947E5F",
"P.	c #BEA176",
"Q.	c #BEB68B",
"R.	c #B9AE87",
"S.	c #E0CCA3",
"T.	c #64656A",
"U.	c #CFCCC0",
"V.	c #C9BE92",
"W.	c #E5D4A0",
"X.	c #DCC18E",
"Y.	c #CAAB7E",
"Z.	c #BC9E79",
"`.	c #866E61",
" +	c #1B1E2F",
".+	c #212230",
"++	c #877358",
"@+	c #AE956E",
"#+	c #304D59",
"$+	c #234655",
"%+	c #C7A97B",
"&+	c #948469",
"*+	c #CDC493",
"=+	c #262631",
"-+	c #C1B288",
";+	c #F2E9CF",
">+	c #A68E6C",
",+	c #9D9D9E",
"'+	c #F3E9C5",
")+	c #EEE0AA",
"!+	c #D9BB89",
"~+	c #C1A37B",
"{+	c #8D7365",
"]+	c #453B3D",
"^+	c #70604D",
"/+	c #A1876A",
"(+	c #9F876C",
"_+	c #417988",
":+	c #295463",
"<+	c #AB916D",
"[+	c #A99670",
"}+	c #776650",
"|+	c #34686B",
"1+	c #3E7C7B",
"2+	c #7E775F",
"3+	c #DBCBA3",
"4+	c #C1BEB1",
"5+	c #F1E4B6",
"6+	c #E7D49F",
"7+	c #605447",
"8+	c #C3BC8E",
"9+	c #B6A47A",
"0+	c #9B8A68",
"a+	c #A68D69",
"b+	c #A7A18B",
"c+	c #3F8799",
"d+	c #3E8698",
"e+	c #AC9170",
"f+	c #66564A",
"g+	c #BA9E74",
"h+	c #335F67",
"i+	c #37737C",
"j+	c #355F60",
"k+	c #B9A57C",
"l+	c #EEE0B4",
"m+	c #F9F4E3",
"n+	c #E4D29E",
"o+	c #6F5F4D",
"p+	c #2E2C33",
"q+	c #B49F76",
"r+	c #857258",
"s+	c #DAC08D",
"t+	c #BDB997",
"u+	c #4D9EA2",
"v+	c #685650",
"w+	c #735E55",
"x+	c #6D5F4D",
"y+	c #2F5765",
"z+	c #4B999F",
"A+	c #305864",
"B+	c #3C445F",
"C+	c #B9AE86",
"D+	c #E0D3A3",
"E+	c #B1A27C",
"F+	c #605B4D",
"G+	c #181E31",
"H+	c #242E46",
"I+	c #2D2C34",
"J+	c #B39D74",
"K+	c #B39870",
"L+	c #D5B684",
"M+	c #E1CE98",
"N+	c #AFCAAB",
"O+	c #438E9B",
"P+	c #2E5563",
"Q+	c #182636",
"R+	c #345A70",
"S+	c #272E46",
"T+	c #2B3149",
"U+	c #385E77",
"V+	c #377687",
"W+	c #2A4A58",
"X+	c #2D3956",
"Y+	c #3F5C7C",
"Z+	c #2B3450",
"`+	c #2A2C34",
" @	c #1F273D",
".@	c #323F5E",
"+@	c #3C5C79",
"@@	c #3E6F88",
"#@	c #2E2E37",
"$@	c #B1966F",
"%@	c #C1A37A",
"&@	c #DAC18D",
"*@	c #E0CC96",
"=@	c #92AA9B",
"-@	c #658F96",
";@	c #A9A38D",
">@	c #827058",
",@	c #1F283E",
"'@	c #2E3856",
")@	c #384568",
"!@	c #30374B",
"~@	c #927C62",
"{@	c #8E7465",
"]@	c #202232",
"^@	c #35546D",
"/@	c #3F6481",
"(@	c #374365",
"_@	c #3F5779",
":@	c #3F778D",
"<@	c #3E768C",
"[@	c #C0A27A",
"}@	c #C3A47B",
"|@	c #C9B086",
"1@	c #B7C2A1",
"2@	c #E4D9A2",
"3@	c #837056",
"4@	c #242532",
"5@	c #B69A72",
"6@	c #AC8F72",
"7@	c #222331",
"8@	c #172031",
"9@	c #355D73",
"0@	c #3E768D",
"a@	c #3E8496",
"b@	c #3E7B91",
"c@	c #3F5F7D",
"d@	c #2E2D36",
"e@	c #B99D75",
"f@	c #A69374",
"g@	c #9AA292",
"h@	c #56A1A3",
"i@	c #C9D1A9",
"j@	c #DCC48F",
"k@	c #D2B281",
"l@	c #222330",
"m@	c #A38B67",
"n@	c #A38969",
"o@	c #60504B",
"p@	c #243149",
"q@	c #293751",
"r@	c #29344F",
"s@	c #29334E",
"t@	c #2A2933",
"u@	c #8F7861",
"v@	c #397180",
"w@	c #428C9B",
"x@	c #4F9CA1",
"y@	c #C0AD8A",
"z@	c #A48C68",
"A@	c #313C5B",
"B@	c #725D55",
"C@	c #496F7B",
"D@	c #648D95",
"E@	c #D3B483",
"F@	c #B0966E",
"G@	c #2D2B33",
"H@	c #181E32",
"I@	c #4D4344",
"J@	c #367080",
"K@	c #8A9891",
"L@	c #665551",
"M@	c #546669",
"N@	c #1C1F2F",
"                                                                                                                                ",
"                                                                                                                                ",
"                                                                                                                                ",
"                                                                                                                                ",
"                                                                                                                                ",
"                                                                                                                                ",
"                                                                                                                                ",
"                                                                                                                                ",
"                                                                                                                                ",
"                                                                                                                                ",
"                                                                                                                                ",
"                                                                                                                                ",
"                                                                                                                                ",
"                                                                                                                                ",
"                                                                                                                                ",
"                                                                                                                                ",
"                                                                  . + @ #                                                       ",
"                                                              $ % & * = - ; >                                                   ",
"                                                            , ' ) ! ~ { ] ^ /                                                   ",
"                                                            ( _ : ~ < [ } | 1 2                                                 ",
"                                                          3 4 5 6 7 8 9 0 a b c                                                 ",
"                                                          d e f g h i j k l m n                                                 ",
"                                                            o p q > r s t u v                                                   ",
"                                  w                       x y z A B C D E E                                                     ",
"                                  F G                   H I J K L M N O P                                                       ",
"                                  Q R S               T U V W X Y Z `  ...>                                                     ",
"                                  +.@.#.$.            %.&.*.=.-.;.>.,.'.).P                                                     ",
"                                  !.~.{.].          > ^./.(._.:.<.[.}.|.1.2.                                                    ",
"                                  3.4.5.6.7.        8.9.0.a.b.c.d.e.w f.g.h.                                                    ",
"                                    i.e.j.k.        l.m.n.o.p.q.r.s.f.t.u.h.>     v.w.                                          ",
"                                    x.y.z.A.7.      B.C.D.> o.E.F.G.H.I.J.K.>   L.M.N.                                          ",
"                                      O.P.Q.k.      R.S.v.T.U.V.W.X.Y.Z.`. +.+++@+#+$+                                          ",
"                                      x.%+&+*+=+  > -+;+>+,+'+)+!+w ~+{+]+^+/+(+_+| :+                                          ",
"                                        O.<+[+}+|+1+2+)+3+4+5+6+w s.7+8+9+0+a+b+c+d+:+                                          ",
"                                        x.e+f+g+h+i+j+k+l+m+:.n+a+o+p+q+r+y.s+t+u+d+:+                                          ",
"                                        > v+w+x+y+z+A+B+C+D+E+F+G+H+I+J+K+L+M+N+O+d+P+                                          ",
"                                      Q+R+S+T+U+V+W+X+Y+Z+`+ @.@+@@@#@$@%@&@*@=@-@;@>@                                          ",
"                                        ,@'@)@!@~@{@]@^@/@(@_@:@d+<@#@[@}@w |@1@2@w 3@                                          ",
"                                        G+i 4@5@w 6@7@8@9@0@a@| b@c@d@e@f@g@h@i@j@k@T                                           ",
"                                            l@m@n@o@E   E p@q@q@r@s@t@u@v@w@x@y@w z@                                            ",
"                                              > > A@i     > > >   > P B@C@d+D@E@F@G@                                            ",
"                                                  H@>     > > >   > > .+I@J@K@F@G@                                              ",
"                                                          > > >   > >   .+L@M@G@                                                ",
"                                                                          N@>                                                   ",
"                                                                                                                                ",
"                                                                                                                                ",
"                                                                                                                                ",
"                                                                                                                                ",
"                                                                                                                                ",
"                                                                                                                                ",
"                                                                                                                                ",
"                                                                                                                                ",
"                                                                                                                                ",
"                                                                                                                                ",
"                                                                                                                                ",
"                                                                                                                                ",
"                                                                                                                                ",
"                                                                                                                                ",
"                                                                                                                                ",
"                                                                                                                                ",
"                                                                                                                                ",
"                                                                                                                                ",
"                                                                                                                                ",
"                                                                                                                                "};
