/* XPM */
static char * Exit1_xpm[] = {
"64 64 454 2",
"  	c None",
". 	c #181D2E",
"+ 	c #2D2730",
"@ 	c #2E2830",
"# 	c #332B31",
"$ 	c #473735",
"% 	c #AE7F53",
"& 	c #886446",
"* 	c #876346",
"= 	c #674C3C",
"- 	c #3C3033",
"; 	c #3B2F32",
"> 	c #2F2831",
", 	c #342F32",
"' 	c #9A8054",
") 	c #876446",
"! 	c #AC7D52",
"~ 	c #AF7F53",
"{ 	c #B18154",
"] 	c #B28355",
"^ 	c #B08154",
"/ 	c #B18054",
"( 	c #AD7E53",
"_ 	c #AF7F54",
": 	c #C19961",
"< 	c #C29A61",
"[ 	c #C19960",
"} 	c #B78C5A",
"| 	c #BA8E5B",
"1 	c #976E4B",
"2 	c #684F3D",
"3 	c #2E2831",
"4 	c #1A1E2E",
"5 	c #A38858",
"6 	c #B2905C",
"7 	c #463738",
"8 	c #86634C",
"9 	c #A07655",
"0 	c #B49061",
"a 	c #B59162",
"b 	c #957655",
"c 	c #694E45",
"d 	c #6B5045",
"e 	c #6C5045",
"f 	c #694F45",
"g 	c #6B5046",
"h 	c #876453",
"i 	c #886553",
"j 	c #8B6854",
"k 	c #8A6754",
"l 	c #6E5447",
"m 	c #6D5347",
"n 	c #6B5146",
"o 	c #705547",
"p 	c #9E7554",
"q 	c #9F7454",
"r 	c #87634D",
"s 	c #473739",
"t 	c #967850",
"u 	c #B89961",
"v 	c #352F32",
"w 	c #161C2E",
"x 	c #A18657",
"y 	c #CEA869",
"z 	c #4F3F3E",
"A 	c #73564D",
"B 	c #866353",
"C 	c #856252",
"D 	c #684D46",
"E 	c #664C45",
"F 	c #8F6952",
"G 	c #866247",
"H 	c #926B53",
"I 	c #9D7354",
"J 	c #9C7254",
"K 	c #906A52",
"L 	c #826051",
"M 	c #473939",
"N 	c #24222F",
"O 	c #B4925D",
"P 	c #BE9E63",
"Q 	c #2D2A32",
"R 	c #47383D",
"S 	c #6C5149",
"T 	c #7E5D50",
"U 	c #846152",
"V 	c #836152",
"W 	c #75574B",
"X 	c #77584C",
"Y 	c #694F46",
"Z 	c #74564B",
"` 	c #4C3B3E",
" .	c #3D3337",
"..	c #332D32",
"+.	c #1C1F2F",
"@.	c #554244",
"#.	c #644C48",
"$.	c #70544C",
"%.	c #71554C",
"&.	c #72554C",
"*.	c #74574D",
"=.	c #77594D",
"-.	c #75584D",
";.	c #674E49",
">.	c #4E3E41",
",.	c #322B35",
"'.	c #373133",
").	c #D5B16E",
"!.	c #95774F",
"~.	c #212130",
"{.	c #624A44",
"].	c #674D44",
"^.	c #795946",
"/.	c #9E7353",
"(.	c #9D734D",
"_.	c #856246",
":.	c #A27651",
"<.	c #906A4E",
"[.	c #866246",
"}.	c #846146",
"|.	c #694E44",
"1.	c #664C44",
"2.	c #614943",
"3.	c #1E202F",
"4.	c #967750",
"5.	c #D3AF6D",
"6.	c #775B47",
"7.	c #574240",
"8.	c #936C53",
"9.	c #B28155",
"0.	c #B28255",
"a.	c #B38255",
"b.	c #B48355",
"c.	c #A97B54",
"d.	c #503D3C",
"e.	c #87654D",
"f.	c #D2AE6C",
"g.	c #695045",
"h.	c #A07554",
"i.	c #695145",
"j.	c #3C3434",
"k.	c #CAA467",
"l.	c #684F45",
"m.	c #6B4F46",
"n.	c #5C4741",
"o.	c #866547",
"p.	c #B3905C",
"q.	c #76584D",
"r.	c #6B5148",
"s.	c #A08456",
"t.	c #A28758",
"u.	c #936C52",
"v.	c #AF8054",
"w.	c #9E7453",
"x.	c #9D7353",
"y.	c #BB8E5B",
"z.	c #C49B61",
"A.	c #C39A61",
"B.	c #B18254",
"C.	c #A77A53",
"D.	c #B38355",
"E.	c #946D53",
"F.	c #805F50",
"G.	c #A38758",
"H.	c #624A43",
"I.	c #644B44",
"J.	c #6B4F45",
"K.	c #7A5A46",
"L.	c #876347",
"M.	c #B28154",
"N.	c #8D6848",
"O.	c #8C6848",
"P.	c #896446",
"Q.	c #886447",
"R.	c #A17654",
"S.	c #8C6748",
"T.	c #A1754E",
"U.	c #795A4D",
"V.	c #584341",
"W.	c #876352",
"X.	c #B18155",
"Y.	c #866352",
"Z.	c #9C7253",
"`.	c #BD8F5B",
" +	c #B58456",
".+	c #977850",
"++	c #B68556",
"@+	c #C79E63",
"#+	c #B78757",
"$+	c #B68656",
"%+	c #BF935D",
"&+	c #C89F64",
"*+	c #564240",
"=+	c #363133",
"-+	c #D4B06D",
";+	c #936D4E",
">+	c #82604D",
",+	c #946D4F",
"'+	c #AB7D55",
")+	c #BE915C",
"!+	c #C89E64",
"~+	c #C79D63",
"{+	c #B6925D",
"]+	c #A28557",
"^+	c #A18456",
"/+	c #8A6647",
"(+	c #A38757",
"_+	c #A48858",
":+	c #96764F",
"<+	c #966D4E",
"[+	c #916B52",
"}+	c #48393D",
"|+	c #916C4F",
"1+	c #68503E",
"2+	c #554243",
"3+	c #B08054",
"4+	c #B28254",
"5+	c #A57953",
"6+	c #9B7253",
"7+	c #815F51",
"8+	c #986F52",
"9+	c #9C7252",
"0+	c #876452",
"a+	c #574343",
"b+	c #886647",
"c+	c #D5B06D",
"d+	c #6B5246",
"e+	c #6B514B",
"f+	c #A27654",
"g+	c #946C4D",
"h+	c #A0754E",
"i+	c #9E7454",
"j+	c #75574D",
"k+	c #D6B26E",
"l+	c #886453",
"m+	c #7A5A4C",
"n+	c #A18557",
"o+	c #654C45",
"p+	c #9D724D",
"q+	c #A2784F",
"r+	c #C59D63",
"s+	c #4A3A3D",
"t+	c #73564C",
"u+	c #926B52",
"v+	c #AE7E53",
"w+	c #352C31",
"x+	c #746145",
"y+	c #856E4B",
"z+	c #A98355",
"A+	c #C69D63",
"B+	c #CCA568",
"C+	c #AA7E56",
"D+	c #856251",
"E+	c #2F2933",
"F+	c #85624E",
"G+	c #6A4F45",
"H+	c #654B3C",
"I+	c #8D684B",
"J+	c #5C483E",
"K+	c #BB9B62",
"L+	c #BC9C62",
"M+	c #846E4B",
"N+	c #C59C62",
"O+	c #BE905C",
"P+	c #AA7C54",
"Q+	c #8A6547",
"R+	c #D5B06E",
"S+	c #8D7250",
"T+	c #816051",
"U+	c #684D45",
"V+	c #A87B54",
"W+	c #876245",
"X+	c #AF8053",
"Y+	c #9A704D",
"Z+	c #986F54",
"`+	c #9E744D",
" @	c #816B4A",
".@	c #9B8154",
"+@	c #7F5E50",
"@@	c #684D3C",
"#@	c #725F44",
"$@	c #9D8255",
"%@	c #755942",
"&@	c #825F44",
"*@	c #AA7C55",
"=@	c #7F6949",
"-@	c #796447",
";@	c #78594E",
">@	c #866346",
",@	c #B79860",
"'@	c #806A49",
")@	c #735544",
"!@	c #A1774F",
"~@	c #6A503D",
"{@	c #3F3835",
"]@	c #A28657",
"^@	c #9F7453",
"/@	c #634A3C",
"(@	c #846145",
"_@	c #B1885B",
":@	c #7E6048",
"<@	c #BA9A61",
"[@	c #7D6849",
"}@	c #AC8556",
"|@	c #776447",
"1@	c #815F4A",
"2@	c #76584C",
"3@	c #9E8356",
"4@	c #93744F",
"5@	c #7C5B46",
"6@	c #76574B",
"7@	c #382D32",
"8@	c #BE9762",
"9@	c #A47A51",
"0@	c #765744",
"a@	c #A1764F",
"b@	c #393033",
"c@	c #85624D",
"d@	c #6F5447",
"e@	c #8B6748",
"f@	c #89644D",
"g@	c #94754E",
"h@	c #8B6848",
"i@	c #614942",
"j@	c #523F3F",
"k@	c #634A43",
"l@	c #A67953",
"m@	c #634A3B",
"n@	c #825F45",
"o@	c #AB7C54",
"p@	c #BD905C",
"q@	c #9A7355",
"r@	c #C29961",
"s@	c #443A36",
"t@	c #9C714D",
"u@	c #7E6748",
"v@	c #766346",
"w@	c #805D43",
"x@	c #A77A54",
"y@	c #513E3E",
"z@	c #523F3B",
"A@	c #B38456",
"B@	c #9E8255",
"C@	c #342B31",
"D@	c #6D513E",
"E@	c #9F8456",
"F@	c #7B6647",
"G@	c #9B7152",
"H@	c #B68657",
"I@	c #4E3C3C",
"J@	c #856145",
"K@	c #B7945E",
"L@	c #A68958",
"M@	c #70543F",
"N@	c #815F44",
"O@	c #A58858",
"P@	c #B69362",
"Q@	c #776346",
"R@	c #976F54",
"S@	c #CAA366",
"T@	c #846151",
"U@	c #A47853",
"V@	c #816A49",
"W@	c #745544",
"X@	c #A27755",
"Y@	c #B69262",
"Z@	c #AF8E5E",
"`@	c #B79462",
" #	c #674E3D",
".#	c #735543",
"+#	c #AE7F54",
"@#	c #996F4B",
"##	c #4C3B3B",
"$#	c #473C37",
"%#	c #AD7E54",
"&#	c #413836",
"*#	c #725741",
"=#	c #987E53",
"-#	c #4D3B3B",
";#	c #936B4D",
">#	c #916A4C",
",#	c #735841",
"'#	c #9B714D",
")#	c #3E3735",
"!#	c #6E513E",
"~#	c #6D503E",
"{#	c #956D4E",
"]#	c #49393A",
"^#	c #9C724D",
"/#	c #9E734D",
"(#	c #7B6748",
"_#	c #A47A55",
":#	c #292830",
"<#	c #242230",
"[#	c #5F4842",
"}#	c #382E32",
"|#	c #805E43",
"1#	c #9B714C",
"2#	c #996F4C",
"3#	c #795945",
"4#	c #866245",
"5#	c #836045",
"6#	c #684D44",
"7#	c #4A393A",
"8#	c #20202F",
"9#	c #26232F",
"0#	c #302931",
"a#	c #52403D",
"b#	c #B38356",
"c#	c #CDA668",
"d#	c #5F4740",
"e#	c #8F694D",
"f#	c #A0744E",
"g#	c #795941",
"h#	c #272430",
"i#	c #312931",
"j#	c #9B7153",
"k#	c #B79362",
"l#	c #2D2A31",
"m#	c #B48A5C",
"n#	c #B48456",
"o#	c #8E6948",
"p#	c #3C3435",
"q#	c #846252",
"r#	c #785A46",
"s#	c #BE9E64",
"t#	c #B48556",
"u#	c #A08557",
"v#	c #393134",
"w#	c #9C8255",
"x#	c #353033",
"y#	c #352B31",
"z#	c #AB7C52",
"A#	c #A68858",
"B#	c #AD8757",
"C#	c #D3AF6C",
"D#	c #443B36",
"E#	c #1F202F",
"F#	c #262431",
"G#	c #725540",
"H#	c #B88D5A",
"I#	c #A58958",
"J#	c #191E2E",
"K#	c #5E463A",
"L#	c #8A664D",
"M#	c #D2AF6C",
"N#	c #7D6848",
"O#	c #23222F",
"P#	c #A08556",
"Q#	c #312D32",
"R#	c #161B2C",
"S#	c #171D2E",
"T#	c #786547",
"U#	c #907850",
"                                                                                                                                ",
"                                                                                                                                ",
"                                                                                                                                ",
"                                                                                                                                ",
"                                                                                                                                ",
"                                                                                                                                ",
"                                                                                                                                ",
"                                                                                                                                ",
"                                                                                                                                ",
"                                                                                                                                ",
"                                                                                                                                ",
"                                                                                                                                ",
"                                                                                                                                ",
"                          . + @ @ @ @ @ # $ % & * * = @ @ @ @ @ @ @ @ @ @ @ @ @ # - - ; > @ @ @ @ + .                           ",
"                        , ' ) ! ~ { ] ] ] ^ / { { { ~ ( ( ( ( _ ^ : < : [ } ( ( ( ( ( } : | { ~ ( 1 2 3                         ",
"                        4 5 6 7 8 9 0 a a b c c c d e f c c g h i j k l m n c c c c c n o p q r s t u v                         ",
"                        w x y z A B B B B C D E E F G H I H B B B B B B B B B B B B B h J K C L M y x w                         ",
"                        N O P Q R S T B B B U V W X U h i h B B B B B B B B B B B B B B h Y Z `  .P O N                         ",
"                        ..y x +.@.#.$.%.&.*.=.=.=.*.%.%.%.*.=.=.=.=.=.-.A %.%.%.%.%.%.%.%.%.;.>.,.x y ..                        ",
"                        '.).!.~.{.].].].^./.{ { { (._._._.(.{ { { { { :.<.[._._._._.}.|.].].1.2.3.4.).'.                        ",
"                        '.5.6.7.8.9.0.0.a.b.b.b.b.b.b.b.b.b.b.b.b.b.b.b.b.b.b.b.b.b.b.0.0.0.c.8.d.e.5.'.                        ",
"                        '.f.g.E h.b.b.b.b.b.b.b.b.b.b.b.b.b.b.b.b.b.b.b.b.b.b.b.b.b.b.b.b.b.b.9.c i.f.'.                        ",
"                      w j.k.l.m.9.b.b.b.b.b.b.b.b.b.b.b.b.b.b.b.b.b.b.b.b.b.b.b.b.b.b.b.b.b.b.0.c n.k.j.w                       ",
"                      w o.p.X h 9.b.b.b.b.b.b.b.b.b.b.b.b.b.b.b.b.b.b.b.b.b.b.b.b.b.b.b.b.b.b.9.q.r.p.o.w                       ",
"                      w s.t.L U u.v.w.x.x.h.a.y.z.A.B.{ { C.x.q q h.9.0.0.y.z.A.D.b.b.b.b.b.9.E.S F.t.s.w                       ",
"                      w x G.H.I.J.K.f J.L.q M.N.O.O.P.P.P.& Q.w.q q R.R.h.S.O.O.T.b.b.b.b.a.h.U.V.2.G.x w                       ",
"                      w x G.H.W.X.a.0.0.b.b.b.b.b.b.b.b.b.b.b.b.b.b.b.b.b.b.b.b.b.b.b.b.b.b.b.X.Y.H.G.x w                       ",
"                      N O G.H.Z.b.b.b.b.b.b.b.b.b.b.b.b.b.b.b.b.b.b.b.b.b.b.b.b.b.b.b.b.b.b.b.b.Z.H.G.O N                       ",
"                      ..y G.H.x.b.b.b.b.b.b.b.b.b.b.b.b.b.b.`. +b.b.b.b.b.b.b.b.b.b.b.b.b.b.b.b.x.H.G.y ..                      ",
"                      '.)..+H.x.b.b.b.b.b.++@+@+#+$+$+++b.b. +b.b.b.b.b.b.++$+%+&+%+ +b.b.b.b.b.x.*+t ).'.                      ",
"                      =+-+;+7.>+,+h.'+b.b.)+!+!+~+{+]+^+/+P.P.& * * * * Q.^+]+(+_+(+:+P.P.P.P.<+[+}+|+-+=+w                     ",
"                    w 1+5.l 2+Y.3+0.a.b.b.b.b.b.b.4+{ { _ 5+6+F 7+7+L 8+9+3+{ { { { { { { { { 3+0+a+m 5.1+w                     ",
"                    w b+c+d+e+q b.b.b.b.b.b.b.b.b.b.b.a.f+h.q g+* * * P.h+b.b.b.b.b.b.b.b.b.b.b.i+j+m c+b+w                     ",
"                    w s.k+m l+9.b.b.b.b.b.b.b.b.b.b.b.b.b.b.b.b.b.b.a.f+f+a.b.b.b.b.b.b.b.b.b.b.9.l+m k+s.w                     ",
"                    w x k+d+m+9.b.b.b.b.b.b.b.b.b.b.b.b.b.b.b.b.b.b.b.0.0.b.b.b.b.b.b.b.b.b.b.b.9.m+d+k+x w                     ",
"                    w n+).i.o+q a.b.b.b.b.b.b.b.b.b.b.p+& q+{ b.b.b.b.b.b.b.b.b.b.b.b.b.b.b.b.a.q E i.).n+w                     ",
"                    N 6 r+d+s+t+u+w.w.x.x.x.C.{ { { v+w+x+u y+z+A+%+ +b.a.{ { { 3+w.x.x.x.x.x.u+C I.d+r+6 N                     ",
"                    ..B+C+D+E+1.[.F+=.G+^.* & P.P.P.H+H+I+J+K+L+M+N+O+b.P+Q+P.P.P.* [.J.c J.[.[.c d.D+C+B+..                    ",
"                    '.R+S+T+U+V+b.a.0.0.a.{ W+p+4+X+; Y+Z+{ `+ @.@W+b.b.b.b.b.b.b.b.b.0.0.0.b.b.V+Y T+S+R+'.                    ",
"                    '.k+G.V +@0.b.b.b.b.4+@@#@$@%@&@H+c.0.*@3+=@-@p+b.b.b.b.b.b.b.b.b.b.b.b.b.b.0.h V G.k+=+w                   ",
"                  w =+k+G.L ;@9.b.b.b.b.p+w+>@.+,@'@)@f+9.Z+!@u ~@4+b.b.b.b.b.b.b.b.b.b.b.b.b.b.9.i V G.k+=+w                   ",
"                  w {@y ]@L W x.{ 3+^@w./@(@b._@:@<@[@Y+Z+0.}@|@1@^@9.0.0.y.z.A.D.b.b.b.b.b.0.0.w.2@L ]@y {@w                   ",
"                  w 3@@+4@F.d.K.P.5@m+6@7@X+%+8@*@9@' 0@c.a@<@b@(@c@i i h d@e@O.T.b.b.b.b.a.f+R.f@d.;@4@!+3@w                   ",
"                  . g@h@i@j@k@l@{ 3+( m@n@o@p@q@a.r@s@t@X+u@v@w@l@Y.V V C x@b.b.{ { { { { { { { l@I.y@z@A@B@w                   ",
"                  C@1 D@E@x ]@G._+_+F@C@G@c.c.c.H@B@I@^@& .@b@J@& .+G.G.G.K@&+@+L@_+_+_+_+_+_+_+G.]@x 3@M@N@w                   ",
"                  . C@(@O@A+L@O@P@O@Q@n@Z+c.R@D.S@s@T@U@V@.@W@q X@Y@Z@_+_+_+_+O@`@Z@_+_+_+_+_+_+_+_+_+(+ #+ w                   ",
"                  w .#+#{ b.{ { 0.@#; X+a.a.M.%@.@##l+J@.@$#L Y.%#_ % ( ~ { ~ ( 3+{ { { { { { { { { { { +#.#w                   ",
"                  w H.w.9.0.b.b.4+H+(@b.b.b.p+' &#W x.*#=#2.C ^.P.P.P.P.h+b.h+P.<+'+b.{ { 0.b.b.b.b.9.c.w.H.w                   ",
"                  w -#;#R.f+a.'+>#; X+b.*@M.,#.@##l+'#$@)#2.h l@b.{ { b.b.b.b.b.'+h.& !#~#e {#h.'+a.f+h.;#-#w                   ",
"                  w ]#].>#^#/#% m@(@b.9.R@t@$@(#W q _#u :#<#[#}#|#w+w+1#M.a.b.b.M.( &@(@( ( 2#3#% p+4#5#6#7#w                   ",
"                    w w 8#9#  0#w+X+b.R.c.>@.@a#l+b#c#(#w w w   w   w N d#e#h+f#g#w+. . w+w+h#  i#9#  w w w                     ",
"                              . n@o@a.R.% u@|@Z j#k#P l#                                                                        ",
"                              C@9+m#n#'+o#,@p#q#r#s#E@w                                                                         ",
"                            . (@t#~+b.b.@+u#]#F.v#w#x#w                                                                         ",
"                            y#z#A#%+4+B#C#D#E#F#  w w w w                                                                       ",
"                          w w@G#H#'+p+I#5 J#                                                                                    ",
"                          w K#|#L#x@,#M#N#                                                                                      ",
"                            w O#m@@#P#P Q#                                                                                      ",
"                            R#R#S#O#T#U#                                                                                        ",
"                                                                                                                                ",
"                                                                                                                                ",
"                                                                                                                                ",
"                                                                                                                                ",
"                                                                                                                                "};
