/* XPM */
static char * Floor6_xpm[] = {
"64 64 451 2",
"  	c #295D61",
". 	c #20282F",
"+ 	c #223035",
"@ 	c #3D9191",
"# 	c #368081",
"$ 	c #46A8A6",
"% 	c #47ABA9",
"& 	c #3E9594",
"* 	c #357E7F",
"= 	c #2A6064",
"- 	c #25282F",
"; 	c #2F3131",
"> 	c #1A2735",
", 	c #2B5D5F",
"' 	c #1E2E36",
") 	c #337A7B",
"! 	c #273036",
"~ 	c #347C7D",
"{ 	c #45A6A5",
"] 	c #3E9392",
"^ 	c #303837",
"/ 	c #303231",
"( 	c #326162",
"_ 	c #3D9393",
": 	c #2A6164",
"< 	c #45A7A5",
"[ 	c #566538",
"} 	c #283130",
"| 	c #859F46",
"1 	c #252930",
"2 	c #2F3231",
"3 	c #295E61",
"4 	c #243C40",
"5 	c #2B4240",
"6 	c #3C908F",
"7 	c #253F41",
"8 	c #577A4D",
"9 	c #445F42",
"0 	c #2B6466",
"a 	c #A4A051",
"b 	c #BAB559",
"c 	c #6C6C3F",
"d 	c #689057",
"e 	c #293031",
"f 	c #6B693E",
"g 	c #212E31",
"h 	c #56784C",
"i 	c #253B3D",
"j 	c #6E6F44",
"k 	c #BBB75A",
"l 	c #28363B",
"m 	c #8A8748",
"n 	c #3A6562",
"o 	c #23363B",
"p 	c #33625F",
"q 	c #1C363F",
"r 	c #243A3D",
"s 	c #336464",
"t 	c #46A9A8",
"u 	c #1C353F",
"v 	c #566839",
"w 	c #708640",
"x 	c #8C8948",
"y 	c #728940",
"z 	c #9BB94E",
"A 	c #98B64D",
"B 	c #3A4032",
"C 	c #6D6C3F",
"D 	c #97B44C",
"E 	c #5A6E3E",
"F 	c #5B7D4D",
"G 	c #7AA863",
"H 	c #75A260",
"I 	c #222E32",
"J 	c #313D3C",
"K 	c #888547",
"L 	c #BFBA5B",
"M 	c #A8A554",
"N 	c #7CA762",
"O 	c #8F8D4B",
"P 	c #BDB85A",
"Q 	c #587A4D",
"R 	c #7DA963",
"S 	c #63804E",
"T 	c #BEBA5B",
"U 	c #AFBA55",
"V 	c #B4B857",
"W 	c #6C6C3E",
"X 	c #393F32",
"Y 	c #445F41",
"Z 	c #4D6342",
"` 	c #313231",
" .	c #A6A252",
"..	c #323D3C",
"+.	c #2C6467",
"@.	c #486140",
"#.	c #98B54D",
"$.	c #A1A650",
"%.	c #87A147",
"&.	c #8B8C48",
"*.	c #AFB955",
"=.	c #97A155",
"-.	c #92B353",
";.	c #9AB74D",
">.	c #99B74E",
",.	c #92B455",
"'.	c #5D7F4E",
").	c #6E6C3F",
"!.	c #716F40",
"~.	c #A2B25F",
"{.	c #AEB55D",
"].	c #454535",
"^.	c #969D54",
"/.	c #BCB95C",
"(.	c #A9A653",
"_.	c #A7B952",
":.	c #9DB94F",
"<.	c #9CB94E",
"[.	c #9BB74E",
"}.	c #8F9F4A",
"|.	c #6F6F3F",
"1.	c #AAA653",
"2.	c #9AA04D",
"3.	c #788F42",
"4.	c #6E9759",
"5.	c #90AD61",
"6.	c #B9B65A",
"7.	c #727040",
"8.	c #425F45",
"9.	c #7F9E4E",
"0.	c #2A3E3C",
"a.	c #A6B952",
"b.	c #8CA549",
"c.	c #99B64D",
"d.	c #94B555",
"e.	c #85AE5D",
"f.	c #9AB94E",
"g.	c #9EA54F",
"h.	c #ACB654",
"i.	c #BCB75A",
"j.	c #B7BA58",
"k.	c #BDBA5A",
"l.	c #A2B650",
"m.	c #ABB854",
"n.	c #9AB74E",
"o.	c #AFB65C",
"p.	c #B0BA55",
"q.	c #A8A452",
"r.	c #5A7E4F",
"s.	c #8BB05A",
"t.	c #97B44D",
"u.	c #728840",
"v.	c #BCBA5A",
"w.	c #AEBA55",
"x.	c #9CB850",
"y.	c #A5B951",
"z.	c #B6BA58",
"A.	c #B6BA57",
"B.	c #9CB74E",
"C.	c #6E703F",
"D.	c #374334",
"E.	c #76A461",
"F.	c #7BA962",
"G.	c #90B153",
"H.	c #414F34",
"I.	c #2A3D3B",
"J.	c #ADB954",
"K.	c #ACB955",
"L.	c #A4B951",
"M.	c #ACB954",
"N.	c #88A348",
"O.	c #96B54F",
"P.	c #82AC5E",
"Q.	c #8CB159",
"R.	c #9AB850",
"S.	c #8BB159",
"T.	c #9AB84F",
"U.	c #AEB955",
"V.	c #9AB94F",
"W.	c #8DB158",
"X.	c #799243",
"Y.	c #79A863",
"Z.	c #96B15C",
"`.	c #8DB159",
" +	c #93B554",
".+	c #7DAA61",
"++	c #84AD5D",
"@+	c #99B850",
"#+	c #96B44D",
"$+	c #526B41",
"%+	c #283230",
"&+	c #1E3B43",
"*+	c #94B553",
"=+	c #99B84F",
"-+	c #83AD5E",
";+	c #7DA962",
">+	c #80AA62",
",+	c #A2B25E",
"'+	c #BDBA5B",
")+	c #B1B65C",
"!+	c #92AE60",
"~+	c #8AB05A",
"{+	c #7CA961",
"]+	c #95B24C",
"^+	c #293C3B",
"/+	c #44A3A2",
"(+	c #98B751",
"_+	c #9AB751",
":+	c #98B750",
"<+	c #85AD5D",
"[+	c #83AC5E",
"}+	c #222F32",
"|+	c #85A763",
"1+	c #84A764",
"2+	c #8FAF5B",
"3+	c #A6B15F",
"4+	c #889F6D",
"5+	c #6D9473",
"6+	c #799E6B",
"7+	c #8DAE5C",
"8+	c #6E9573",
"9+	c #7A9E6C",
"0+	c #7BA863",
"a+	c #7AA862",
"b+	c #7EA06B",
"c+	c #9AA669",
"d+	c #709573",
"e+	c #879E6E",
"f+	c #869E6F",
"g+	c #94A865",
"h+	c #BEB95C",
"i+	c #ABAF63",
"j+	c #6C9374",
"k+	c #6E9473",
"l+	c #769B6F",
"m+	c #9EB060",
"n+	c #89AF59",
"o+	c #838D47",
"p+	c #324241",
"q+	c #9CB05D",
"r+	c #89A06D",
"s+	c #9EA968",
"t+	c #BBB85D",
"u+	c #BDB95B",
"v+	c #BBB85C",
"w+	c #B0B55D",
"x+	c #ACAF63",
"y+	c #9DA868",
"z+	c #BDB95C",
"A+	c #9FB557",
"B+	c #9BB94F",
"C+	c #7EAA62",
"D+	c #7FAA62",
"E+	c #87AE5E",
"F+	c #90B259",
"G+	c #9BB05D",
"H+	c #88AE5E",
"I+	c #ADB955",
"J+	c #A1B15F",
"K+	c #A0B15F",
"L+	c #A1B25F",
"M+	c #ABB857",
"N+	c #9CB94F",
"O+	c #86AE5D",
"P+	c #9EB15F",
"Q+	c #A1B25E",
"R+	c #BAB95B",
"S+	c #BBB95B",
"T+	c #ADB956",
"U+	c #9DB15F",
"V+	c #ADB55E",
"W+	c #8CB15A",
"X+	c #8DB15A",
"Y+	c #94B554",
"Z+	c #87AE5D",
"`+	c #7EA861",
" @	c #516944",
".@	c #2B6164",
"+@	c #89B05B",
"@@	c #7CA962",
"#@	c #8FB159",
"$@	c #8AAE57",
"%@	c #586B3A",
"&@	c #9EB850",
"*@	c #B5B958",
"=@	c #BEBA5A",
"-@	c #576B3E",
";@	c #A4B952",
">@	c #AFB55D",
",@	c #BCB95B",
"'@	c #9FB15F",
")@	c #8EAD60",
"!@	c #8FAD60",
"~@	c #98B54E",
"{@	c #7CAA61",
"]@	c #8DB258",
"^@	c #6C965A",
"/@	c #5A7D4E",
"(@	c #476040",
"_@	c #1B2F3A",
":@	c #99B751",
"<@	c #81AA5C",
"[@	c #496341",
"}@	c #192735",
"|@	c #8EAF5B",
"1@	c #709672",
"2@	c #869D6F",
"3@	c #6C9473",
"4@	c #82A565",
"5@	c #6F9573",
"6@	c #7FA06A",
"7@	c #A7B55B",
"8@	c #98B44E",
"9@	c #44A5A3",
"0@	c #6B9473",
"a@	c #6B9374",
"b@	c #98A66A",
"c@	c #ADB063",
"d@	c #889E6E",
"e@	c #A8B25E",
"f@	c #B5BA58",
"g@	c #A5A251",
"h@	c #383933",
"i@	c #686B46",
"j@	c #799D6C",
"k@	c #BAB75D",
"l@	c #6F9474",
"m@	c #8CA06D",
"n@	c #A5B952",
"o@	c #90AF5B",
"p@	c #6F9672",
"q@	c #868E46",
"r@	c #B8B358",
"s@	c #2E3031",
"t@	c #AEB162",
"u@	c #92AD61",
"v@	c #92AE61",
"w@	c #9DB15C",
"x@	c #7E9F6B",
"y@	c #A5B851",
"z@	c #BBB759",
"A@	c #95B555",
"B@	c #98B15C",
"C@	c #8CB05A",
"D@	c #7EA962",
"E@	c #ACB956",
"F@	c #B5BA57",
"G@	c #706F40",
"H@	c #21292F",
"I@	c #82AC5F",
"J@	c #84AD5E",
"K@	c #B5B959",
"L@	c #89A348",
"M@	c #9BB850",
"N@	c #89A549",
"O@	c #60804E",
"P@	c #83AA5C",
"Q@	c #456041",
"R@	c #A5B953",
"S@	c #597C4E",
"T@	c #1D2730",
"U@	c #2F3C33",
"V@	c #8EB258",
"W@	c #B4B957",
"X@	c #78A762",
"Y@	c #4A6745",
"Z@	c #689157",
"`@	c #80A85B",
" #	c #718841",
".#	c #356764",
"+#	c #9EB94F",
"@#	c #A8B953",
"##	c #A9B65A",
"$#	c #739E6B",
"%#	c #729E6C",
"&#	c #78A764",
"*#	c #77A562",
"=#	c #74A268",
"-#	c #719D6C",
";#	c #709D6D",
">#	c #679175",
",#	c #769C6D",
"'#	c #83A665",
")#	c #96B653",
"!#	c #6C9870",
"~#	c #76A368",
"{#	c #8DAE5A",
"]#	c #95B34E",
"^#	c #678449",
"/#	c #759852",
"(#	c #576939",
"_#	c #689274",
":#	c #9AA769",
"<#	c #749772",
"[#	c #B4BA57",
"}#	c #93995A",
"|#	c #464A35",
"1#	c #263031",
"2#	c #2F6161",
"3#	c #BBBA5A",
"4#	c #79A467",
"5#	c #6F9870",
"6#	c #9FB94F",
"7#	c #B3B958",
"8#	c #8DA549",
"9#	c #A4A251",
"0#	c #A9B453",
"a#	c #5A6E3B",
"b#	c #2C3130",
"c#	c #78A561",
"d#	c #91B456",
"e#	c #1A2F3A",
"f#	c #81AB5E",
"g#	c #516D44",
"h#	c #6E843F",
"i#	c #293736",
"j#	c #3D9392",
"k#	c #91B455",
"l#	c #98B64E",
"m#	c #B9B75A",
"n#	c #908E4A",
"o#	c #353E37",
"p#	c #7D8744",
"q#	c #8AA548",
"r#	c #5A6E3C",
"s#	c #5A7D4D",
"t#	c #476141",
"u#	c #9DAF5E",
"v#	c #6D9559",
"w#	c #608350",
"x#	c #739652",
"y#	c #2E3931",
"z#	c #182735",
"A#	c #727240",
"B#	c #B3B656",
"C#	c #BCB85A",
"D#	c #9DB74F",
"E#	c #A3A050",
"F#	c #92A24B",
"G#	c #5C6F3A",
"H#	c #25292F",
"I#	c #BAB859",
"J#	c #7B8F43",
"K#	c #576E42",
"L#	c #6B9459",
"M#	c #324135",
"N#	c #2F6160",
"O#	c #8AAF58",
"P#	c #81A95D",
"Q#	c #76A361",
"R#	c #446246",
"    . + @ # # $ $ $ % & * # $ % $ = - ; > , ' ) ! ; > ~ # { ] ^ / ( & $ # * # $ _ + + & $ $ $ : - / ! & % % % % < # # < % % % % ",
"[ } | | + 1 2 3 4 5 6 7 8 9 0 { * 2 a b c d d e a b f g h i j b k a l   2 m m n o | | p q r 3 ! a k a s { $ t & u v w 5 _ % % % ",
"x y z A B a b C | D E F G H I J ! K L L M N N O P L m Q R S b T U V W - m L L a X D z y Y H Z ` k L  ./ ..J +.) @.#.z | 4 $ % % ",
"$.A z %.&.*.U =.-.z ;.>.,.'.).b  .!. .L L ~.{.L L b ].^./.(.P _.:.<.[.}.|.1.U *.2.3.z #.4.5.6.7.k P 7.a k b f 8.9.z z A 0.$ % % ",
"T a.z b.c.z z d.e.f.z z <.g.h.T L i.1.T T T L T T 1. .T L L T j.k.a.z <.l.m.<.z <.n.z z d.o.p.(.P P q.T T P m r.s.z t.u.+ _ % % ",
"L U a.v.w.:.:.:.x.<.z z <.y.z a.w.z.T _.:.z.z.a.a.A.a._.T L L L L U a.v.w.:.:.:.:.<.z z <.y.z a.w.z.T _.B.C.D.E.F.G.H.w w I.& % ",
"T k.k.T z.J.K.K.K.L.z z z z z z z :.J.<.z M.:.z z <.z :.v.T z.U k.k.k.T z.J.K.K.K.L.z z z z z z z :.J.<.;.N.O.P.G Q.A z z w * % ",
":.:.:.:.R.S.F.F.F.,.Q.Q.T.z :.U.a.z z z z <.T.V.z z z z :.:.<.z :.:.:.:.R.S.F.F.F.,.Q.Q.T.z :.U.a.z z z z W.F.G S.>.X.t.D v # % ",
"z z V.,.F.G F.F.Y.G Y.Y.Z.K.k.L T U K.`. +,..+++T.z z V.T.z z z z z V.,.F.G F.F.Y.G Y.Y.Z.K.k.L T U K.`. +,.F.F.@+z #+$+%+&+< % ",
"V.*+e.F.F.,.T.=+-+F.s.-+;+>+,+'+)+,+!+~+{+e.@+++e.f.T.++F.,.=+W.T.*+e.F.F.,.T.=+-+F.s.-+;+>+,+'+)+,+!+~+{+e.@+-+S.z z ]+^+/+% % ",
"e.W.=+T.T.z z z  + +z R.(+(+@+:._+@+:+Q.@+=+ +s.,.z S.Y.F.F.F.Y.<+W.=+T.T.z z z  + +z R.(+(+@+:._+@+:+Q.@+=+ +[+F.S.=+9.}+# % % ",
"T.T.z @+|+1+2+2+|+@+a.3+4+5+6+7+8+9+0+Y.[+F.G Y.F.~+F.-+=+ +S.Q.=+T.z @+|+1+2+2+|+@+a.3+4+5+6+7+8+9+0+Y.[+F.G Y.Y.Y.F.a+h = < % ",
"z @+2+b+c+c+d+e+f+g+T L h+i+j+k+i+i+l+m+R [+-+-+s.F.G ,.T.T.V.z z @+2+b+c+c+d+e+f+g+T L h+i+j+k+i+i+l+m+R [+-+-+s.F.G n+o+m p+& ",
"q+r+s+t+L u+v+h+h+h+L w+~.u+x+y+z.z.z+L w+A+B+V.z s.Y.F.C+D+E+F+G+r+s+t+L u+v+h+h+h+L w+~.u+x+y+z.z.z+L w+A+B+V.z s.Y.H+'+L m * ",
"I+I+U v.,+>+5.w+w+J+K+R Y.5.L+M+N+:.U.w.z.v.y.z f.O+P+Q+R+S+S+S+T+I+U v.,+>+5.w+w+J+K+R Y.5.L+M+N+:.U.w.z.v.y.z f.O+U+V+k b f # ",
":.<.z :.T.=+Q.Q.;+F.Y.Y.Y.Y.Y.F.-+Q.=+ +W+X+Y+z z T.:.:.:.:.:.:.:.<.z :.T.=+Q.Q.;+F.Y.Y.Y.Y.Y.F.-+Q.=+ +W+X+Y+z z =+Z+`+ @2 .@$ ",
"T A.:.<.z V.T.@+s.+@G -+s.F.Y.Y.Y.F.{+@@5.K+#@z z z z z z :.:.A.T A.:.<.z V.T.@+s.+@G -+s.F.Y.Y.Y.F.{+@@5.K+#@z z z T.=+$@%@: t ",
"w.z.T A.:.*+W.W.S.S.Q.T.z S.F.-+Q.x.K.&@'+L *@<.z z z z <.J.v.=@U z.T A.:.*+W.W.S.S.Q.T.z S.F.-+Q.x.K.&@'+L *@<.z z z z z A -@& ",
"z :.U.U.L.z z z z z z z z V.T.V.;@S+u+S+>@~.,@U U.:.:.B+T.z :.y.z :.U.U.L.z z z z z z z z V.T.V.;@S+u+S+>@~.,@U U.:.:.B+z z y * ",
"T.T.T.T.z z z z z z z z z z T.,.;+D+X+C+0+Y.5.J+J+'@'@)@F.s.S. +T.T.T.T.z z z z z z z z z z T.,.;+D+X+C+0+Y.5.J+J+'@'@!@,.~@v * ",
"{@.+Q.]@f.z z z z z z z z f.]@Q.Q.=+z  +s.F.Y.F.F.Y.Y.Y.Y.Y.Y.F.{@.+Q.]@f.z z z z z z z z f.]@Q.Q.=+z  +s.F.Y.F.F.Y.Y.^@/@(@_@& ",
"T.T.z z z z z z :@|+1+2+z 2+1+|+@+z :.U.a.s.-+=+=+<+s.-+-+S.Q.=+T.T.z z z z z z :@|+1+2+z 2+1+|+@+z :.U.a.s.-+=+=+<+s.<@[@}@_ % ",
"z z T.@+@+z @+|@1@c+2@3@4@5@c+c+6@R.A.L T 7@Z+f.z f.z N+N+a.w.I+<.z T.@+@+z @+|@1@c+2@3@4@5@c+c+6@R.A.L T 7@Z+f.z f.z N+8@I.9@t ",
"@+@+6+5@0@4@8+a@b@L h+c@d@x+L L t+e@T L L L T+<.z y.U k.T T T f@R.@+6+5@0@4@8+a@b@L h+c@d@x+L L t+e@T L L L T+<.z L.I+k.g@h@i@.@",
"8+j@2@k@d@l@i+c@m@z+L L h+L L T T L L T T L T w.:.n@w.w.w.w.a.o@p@j@2@k@d@l@i+c@m@z+L L h+L L T T L L T T L T w.:.<.:.U.q@a r@s@",
"c@c@t@T h+/.T T u+L w+J+w+T z.:.:.f@,@u@v@T L T v.y.z z <.a.w@x@i+c@t@T h+/.T T u+L w+J+w+T z.:.:.f@,@u@v@T L T v.y.z z y@z@).3 ",
"L k.a.:.z.T _.A@B@K+R Y.;+x.L.z  +C@D@Y.@@E@w.U.:.<.z a.F@k.h+/.L k.a.:.z.T _.A@B@K+R Y.;+x.L.z  +C@D@Y.@@E@w.U.:.:.J.w.V G@H@  ",
"U.:.z z y.F@R.F.Y.Y.Y.Y.I@S. +,.F.Y.-+-+G J@=+z z <.J.v.a.:.A.k.w.:.z z y.F@R.F.Y.Y.Y.Y.I@S. +,.F.Y.-+-+G J@=+z z z a.K@V L@| . ",
"z z f.]@Q.C@F.F.s.-+Y.F.G Y.G G F.F.=+V. +S.]@f.z z :.M@V.z <.:.z z f.]@Q.C@F.F.s.-+Y.F.G Y.G G F.F.=+V. +S.]@f.z z N@O@P@V.A %+",
"z z z M@ +s.F.S.z =+e.=+ +-+F.++@+e. +z z z z T.V.z ,.F.++V.z z z z z M@ +s.F.S.z =+e.=+ +-+F.++@+e. +z z z z T.V.z G.Q@[@#+| + ",
"z <.a.v.a.:.R@U.a.<.f.z z T.@+T.z V.V.z z z ,.F.-+s.F.Y.F.@+V.z z <.a.v.a.:.R@U.a.<.f.z z T.@+T.z V.V.z z z ,.F.-+s.F.S@T@U@+ @ ",
"V@W@T L T T T u+L+Z.@+Q.S.-+F.-+ + +S. +T.,.F.Y.Y.Y.Y.Y.Y.F.-+S.V@W@T L T T T u+L+Z.@+Q.S.-+F.-+ + +S. +T.,.F.Y.Y.Y.X@Y@Z@`@ #.#",
"T.+#@#T L T ##!+s.-+@@G Y.Y.Y.Y.G G Y.Y.$#%#Y.F.F.F.Y.&#Y.Y.-+Q.=++#@#T L T ##!+s.-+@@G Y.Y.Y.Y.G G Y.Y.$#%#Y.F.F.F.G *#-+T.z w ",
"U k.T L L w.V.T.V.W.~+I@Y.Y.Y.Y.Y.=#-#;#>#>#,#'#1+)#9+5+!#~#@+:.w.k.T L L w.V.T.V.W.~+I@Y.Y.Y.Y.Y.=#-#;#>#>#,#'#{#]#^#S@/#f.;.(#",
"w.w.z.L T +#:.z z =+S.F.F.Y.Y.Y.=#_#l@:#c+j+j+c+c+<#i+t+d@k+q+[#U w.z.L T +#:.z z =+S.F.F.Y.Y.Y.=#_#l@:#c+j+j+c+}#|#m f 1#| | 2#",
":.z :.w.T j.3#a.z z z T.@+;+R 4#5#d@t+L L y+x+L L z+L L h+/.,@6#:.z :.w.T j.3#a.z z z T.@+;+R 4#5#d@t+L L y+x+L L i.L i.f . + _ ",
"k.a.z :.a.U.:.L.<.z z z <.7#T+S+t@/.L T T h+L T T L T T L L T j.k.a.z :.a.U.:.L.<.z z z <.7#T+S+t@/.L T T h+L T T L T z@).f f .@",
"L U a.v.w.:.:.:.:.<.z z <.y.z a.w.z.T _.:.z.z.a.a.A.a._.T L L L L U a.v.w.:.:.:.:.<.z z <.y.z a.w.z.T _.:.z.z.a.a.A.a.8#9#P b ; ",
"T k.k.T z.J.K.K.K.L.z z z z z z z :.J.<.z M.:.z z <.z :.v.T z.U k.k.k.T z.J.K.K.K.L.z z z z z z z :.J.<.z M.:.z z <.z z :.z.b ; ",
":.:.:.:.R.S.F.F.F.,.Q.Q.T.z :.U.a.z z z z <.T.V.z z z z :.:.<.z :.:.:.:.R.S.F.F.F.,.Q.Q.T.z :.U.a.z z z z <.T.V.z z z ;.A 0#).> ",
"z z V.,.F.G F.F.Y.G Y.Y.Z.K.k.L T U K.`. +,..+++T.z z V.T.z z z z z V.,.F.G F.F.Y.G Y.Y.Z.K.k.L T U K.`. +,..+++T.z z N@a#b#3 & ",
"V.*+e.F.F.,.T.=+-+F.s.-+;+>+,+'+)+,+!+~+{+e.@+++e.f.T.++F.,.=+W.T.*+e.F.F.,.T.=+-+F.s.-+;+>+,+'+)+,+!+~+{+e.@+++<+Q.=+++c#Y : t ",
"e.W.=+T.T.z z z  + +z R.(+(+@+:._+@+:+Q.@+=+ +s.,.z S.Y.F.F.F.Y.<+W.=+T.T.z z z  + +z R.(+(+@+:._+@+:+Q.@+=+ +s.d#W.s.Y.*#Y e#$ ",
"T.T.z @+|+1+2+2+|+@+a.3+4+5+6+7+8+9+0+Y.[+F.G Y.F.~+F.-+=+ +S.Q.=+T.z @+|+1+2+2+|+@+a.3+4+5+6+7+8+9+0+Y.[+F.G Y.F.~+F.f#g#h#i#j#",
"z @+2+b+c+c+d+e+f+g+T L h+i+j+k+i+i+l+m+R [+-+-+s.F.G ,.T.T.V.z z @+2+b+c+c+d+e+f+g+T L h+i+j+k+i+i+l+m+R [+-+-+s.F.G k#l#z | + ",
"q+r+s+t+L u+v+h+h+h+L w+~.u+x+y+z.z.z+L w+A+B+V.z s.Y.F.C+D+E+F+G+r+s+t+L u+v+h+h+h+L w+~.u+x+y+z.z.z+L w+A+B+V.z s.Y.F.Z+~@| + ",
"I+I+U v.,+>+5.w+w+J+K+R Y.5.L+M+N+:.U.w.z.v.y.z f.O+P+Q+R+S+S+S+T+I+U v.,+>+5.w+w+J+K+R Y.5.L+M+N+:.U.w.z.v.y.z f.O+P+Q+m#n#o#@ ",
":.<.z :.T.=+Q.Q.;+F.Y.Y.Y.Y.Y.F.-+Q.=+ +W+X+Y+z z T.:.:.:.:.:.:.:.<.z :.T.=+Q.Q.;+F.Y.Y.Y.Y.Y.F.-+Q.=+ +W+X+Y+z z T.:.:.:.J.p## ",
"T A.:.<.z V.T.@+s.+@G -+s.F.Y.Y.Y.F.{+@@5.K+#@z z z z z z :.:.A.T A.:.<.z V.T.@+s.+@G -+s.F.Y.Y.Y.F.{+@@5.K+#@z z z z q#A z w * ",
"w.z.T A.:.*+W.W.S.S.Q.T.z S.F.-+Q.x.K.&@'+L *@<.z z z z <.J.v.=@U z.T A.:.*+W.W.S.S.Q.T.z S.F.-+Q.x.K.&@'+L *@<.z z z y v w i#_ ",
"z :.U.U.L.z z z z z z z z V.T.V.;@S+u+S+>@~.,@U U.:.:.B+T.z :.y.z :.U.U.L.z z z z z z z z V.T.V.;@S+u+S+>@~.,@U U.:.[.r#8 s#t#: ",
"T.T.T.T.z z z z z z z z z z T.,.;+D+X+C+0+Y.5.J+J+'@'@)@F.s.S. +T.T.T.T.z z z z z z z z z z T.,.;+D+X+C+0+Y.5.J+J+'@u#v#G ,.#+} ",
"{@.+Q.]@f.z z z z z z z z f.]@Q.Q.=+z  +s.F.Y.F.F.Y.Y.Y.Y.Y.Y.F.{@.+Q.]@f.z z z z z z z z f.]@Q.Q.=+z  +s.F.Y.F.F.Y.Y.X@w##+| + ",
"T.T.z z z z z z :@|+1+2+z 2+1+|+@+z :.U.a.s.-+=+=+<+s.-+-+S.Q.=+T.T.z z z z z z :@|+1+2+z 2+1+|+@+z :.U.a.s.-+=+=+<+s.-+x#y#+ j#",
"z z T.@+@+z @+|@1@c+2@3@4@5@c+c+6@R.A.L T 7@Z+f.z f.z N+N+a.w.I+<.z T.@+@+z @+|@1@c+2@3@4@5@c+c+6@R.A.L T 7@Z+f.z f.z B+t.} z#j#",
"@+@+6+5@0@4@8+a@b@L h+c@d@x+L L t+e@T L L L T+<.z y.U k.T T T f@R.@+6+5@0@4@8+a@b@L h+c@d@x+L L t+e@T L L L T+<.z <.:.V A#f f > ",
"8+j@2@k@d@l@i+c@m@z+L L h+L L T T L L T T L T w.:.n@w.w.w.w.a.o@p@j@2@k@d@l@i+c@m@z+L L h+L L T T L L T T L T w.:.L.J.U.B#C#b ; ",
"c@c@t@T h+/.T T u+L w+J+w+T z.:.:.f@,@u@v@T L T v.y.z z <.a.w@x@i+c@t@T h+/.T T u+L w+J+w+T z.:.:.f@,@u@v@T L T v.y.z z <.D#E#! ",
"L k.a.:.z.T _.A@B@K+R Y.;+x.L.z  +C@D@Y.@@E@w.U.:.<.z a.F@k.h+/.L k.a.:.z.T _.A@B@K+R Y.;+x.L.z  +C@D@Y.@@E@w.U.:.<.z a.F#G#H#) ",
"U.:.z z y.F@R.F.Y.Y.Y.Y.I@S. +,.F.Y.-+-+G J@=+z z <.J.v.a.:.A.k.w.:.z z y.F@R.F.Y.Y.Y.Y.I@S. +,.F.Y.-+-+G J@=+z z <.J.I#J#]+v z#",
"z z f.]@Q.C@F.F.s.-+Y.F.G Y.G G F.F.=+V. +S.]@f.z z :.M@V.z <.:.z z f.]@Q.C@F.F.s.-+Y.F.G Y.G G F.F.=+V. +S.]@f.z z :.M@V.z y z#",
"z z z M@ +s.F.S.z =+e.=+ +-+F.++@+e. +z z z z T.V.z ,.F.++V.z z z z z M@ +s.F.S.z =+e.=+ +-+F.++@+e. +z z z z T.V.z ,.F.++#+K#_ ",
"z <.a.v.a.:.R@U.a.<.f.z z T.@+T.z V.V.z z z ,.F.-+s.F.Y.F.@+V.z z <.a.v.a.:.R@U.a.<.f.z z T.@+T.z V.V.z z z ,.F.-+s.F.Y.L#M#N#& ",
"`.*@T L T T T T ~.Z.T.Q.S.-+F.-+ + +S. +z  +F.Y.Y.Y.Y.Y.Y.F.-+S.`.*@T L T T T T ~.Z.T.Q.S.-+F.-+ + +S. +z  +F.Y.Y.Y.[+S.O#P#Q#R#"};
