/* XPM */
static char * Floor6_xpm[] = {
"128 128 6 1",
" 	c #161C2E",
".	c #47ABA9",
"+	c #9BB94E",
"@	c #BFBA5B",
"#	c #79A863",
"$	c #679175",
" ..     ...........................       .   ..      ........     ...............    .........       ..........................",
"         .    .........     ......                        ...        ...      ...      .......         ...........    ..........",
"     ++        .    ..       ....    @@@   ##    @@@          @@@@@   .        .   ++  .     .   @@@@  .........        ........",
"+   ++++             .  ###   ...   @@@@@ ####  @@@@@   ##   @@@@@@@      @@@@    ++++          @@@@@@  .......    +++   .......",
"@  +++++   @@@   +++   #####       @@@@@@ ####  @@@@@  #### @@@@@@@@     @@@@@@   +++++   ##    @@@@@@       ..   +++++   ......",
"@  +++++  @@@@@ +++++  #####       @@@@@@@####@@@@@@@  #### @@@@+++@@    @@@@@@@  +++++  ####   @@@@@         .  #++++++  ......",
"@ ++++++ @@@@@@ +++++++++##   @@@   @@@@@@@##@@@@@@@   #@@@ @@@+++++++@  @@@@@@@@  +++++ ###@@  @@@@@  @@@@@     +++++++  ......",
"@++++++  @++++@##+++++++++#  @@@@@@  @@@@@@#@@@@@@@@  @@@@@@@@++++++++++   @++++@+ +++++###@@@@ @@@@  @@@@@@@  ##+++++++  ......",
"@@+++++ +++++++##++++++++++ @@@@@@@@ @@@@@@@@@@@@@@  @@@@@@@@@+@@@+++++++@@@+++++++++++++##@@@@ @@@@ @@@@@@@@  ##+++++++  ......",
"@@@+++++++++++++##++++++++@@++@@@@@@@@@@@@@@@@@@@@@@@@@@@@@@@@@@@@@+++++++++++++++++++++++@@++@@@@@@@@@@@@@@@  ##+++++     .....",
"@@@+++@@++++++++++++++++++@++++@@@@@@@@+++@@@@@++@@@@++@@@@@@@@@@@@+++@@++++++++++++++++++@++++@@@@@@@@+++@   ####++        ....",
"@@@++@@@@@+++++++++++++++++++++++++@@@+++++@@++++++@++++@@@@@@@@@@@++@@@@@+++++++++++++++++++++++++@@@++++    #####+  ++++   ...",
"@@@@@@@@@@@@@@@@@@@+++++++++++++++++@@+++++@++++++++++++@@@@@@@@@@@@@@@@@@@@@@@@@@@+++++++++++++++++@@++++ +++#####++++++++  ...",
"@@@@@@@@@++++++++++++++++++++++++++++++++++@++++++++++++@@@@@+++@@@@@@@@@++++++++++++++++++++++++++++++++++++++####++++++++  ...",
"++++++++++++######++++++++++++++++++++++++++++++++++++++++++++++++++++++++++######+++++++++++++++++++++++++######++++++++++  ...",
"++++++++++#########+####++++++@@@+++++++++++++++++++++++++++++++++++++++++#########+####++++++@@@++++++++++######+++  ++++   ...",
"++++++++#################+++@@@@@@++++++++++###+++++++++++++++++++++++++#################+++@@@@@@++++++++++####++++++      ....",
"+++++++##################@@@@@@@@@@@@@###++#####+++++++++++++++++++++++##################@@@@@@@@@@@@@###++#####++++++#     ....",
"+++++######+++++############@@@@@@@@@#######++###++++++###+++++++++++######+++++############@@@@@@@@@#######++###+++++++  ......",
"+++#######+++++++###+++#######@@@#####++###++++###++++#####+++##+++#######+++++++###+++#######@@@#####++###++++##+++++++  ......",
"#++++++++++++++++##++++++++++++++++++++++++++++++++++############++++++++++++++++##++++++++++++++++++++++++++++###+++++    .....",
"####++++++++++++++++++++++++++++++++++##+++++####++++###############++++++++++++++++++++++++++++++++++##+++++#######+++#   .....",
"+++++++++++++++++++++++$$$$$$+++$$$+#####+########++####+++#####+++++++++++++++++++++++$$$$$$+++$$$+#####+###############  .....",
"++++++++$$$$$++$$$+++@@@@$$$$$+$$$$$###################+++++++++++++++++$$$$$++$$$+++@@@@$$$$$+$$$$$#####################   ....",
"+++++++$$$$$$$$$$$$+@@@@@@@$$$$$$@@$$##################++++++++++++++++$$$$$$$$$$$$+@@@@@@@$$$$$$@@$$###################      ..",
"+++++$$$@@@@$$$@@$$@@@@@@@@@$$$$@@@@$$@@###++##+++####+++++++++++++++$$$@@@@$$$@@$$@@@@@@@@@$$$$@@@@$$@@###++##+++####+++@@@   .",
"++$$$$@@@@@@@@@@@@@@@@@@@@@@@$$@@@@@@@@@@##++++++++##########+++++$$$$@@@@@@@@@@@@@@@@@@@@@@@$$@@@@@@@@@@##++++++++####+@@@@@  .",
"@$$@@@@@@@@@@@@@@@@@@@@###@@@@$@@++@@@@@@@@++++++++#############@$$@@@@@@@@@@@@@@@@@@@@###@@@@$@@++@@@@@@@@++++++++#####@@@@@  .",
"@@@@@@@@@@###@@@@@@@@@#####@@@@@++++@@@@@@@@@++++++#####@@@@@@@@@@@@@@@@@@###@@@@@@@@@#####@@@@@++++@@@@@@@@@++++++####@@@@@@  .",
"++++++@@#######@@#############+++++++++++@@@++++++##@@@@@@@@@@@@++++++@@#######@@#############+++++++++++@@@++++++##@@@@@@@@   .",
"++++++++++++#####################+++++++++++++++++++++++++++++++++++++++++++#####################++++++++++++++++++++###      ..",
"++++++++++++++++####################+++######+++++++++++++++++++++++++++++++++++####################+++######+++++++#####    ...",
"@@@+++++++++++++++++#########################++++++++++++++++++@@@@+++++++++++++++++#########################+++++++++++##   ...",
"@@@@++++++++++++#######+++###############@@@#+++++++++++++++++@@@@@@++++++++++++#######+++###############@@@#++++++++++++++   ..",
"@@@@@@@++++###########+++++#######++++++@@@@@+++++++++++++@@@@@@@@@@@@@++++###########+++++#######++++++@@@@@+++++++++++++++  ..",
"+++@@@@@+++++++++++++++++++####+++++@@++@@@@@@++++++++++++++@@@@+++@@@@@+++++++++++++++++++####+++++@@++@@@@@@+++++++++++++++  .",
"++++@@@@@+++++++++++++++++++++++++@@@@@@@@@@@@++++++++++++++++@+++++@@@@@+++++++++++++++++++++++++@@@@@@@@@@@@+++++++++++++++  .",
"+++++++++++++++++++++++++++++++++@@@@@@@@###@@@@@@+++++++++++++++++++++++++++++++++++++++++++++++@@@@@@@@###@@@@@@+++++++++++  .",
"++++++++++++++++++++++++++++++++#############@@@@@@@@@@###++++++++++++++++++++++++++++++++++++++#############@@@@@@@@@@#+++++  .",
"+++++++++++++++++++++++++++++++#####++#########################++++++++++++++++++++++++++++++++#####++###################+++   .",
"########++++++++++++++++++++######+++++#################################++++++++++++++++++++######+++++####################    .",
"####++++++++++++++++++++++++++++++++++++++##########################++++++++++++++++++++++++++++++++++++++#############       ..",
"+++++++++++++++++++++++++++++++++++++++++++###++++############+++++++++++++++++++++++++++++++++++++++++++++###++++######     ...",
"++++++++++++++++++$$$$$++++$$$$$++++++@@@++##++++++#+++##+++++++++++++++++++++++++$$$$$++++$$$$$++++++@@@++##++++++#+++##   ....",
"++++++++++++++++$$$$$$$$++$$$$$$$++++@@@@@+##+++++++++++++++++++++++++++++++++++$$$$$$$$++$$$$$$$++++@@@@@+##+++++++++++++  ....",
"+++++++++++++++$$$@@@$$$$$$$@@@@$$++@@@@@@@@##+++++++++++++@@@@@+++++++++++++++$$$@@@$$$$$$$@@@@$$++@@@@@@@@##++++++++++++  ....",
"+++++$$$$$++$$$$$@@@@@@$$$$@@@@@@@$+@@@@@@@@@+++++++++@@@@@@@@@@+++++$$$$$++$$$$$@@@@@@$$$$@@@@@@@$+@@@@@@@@@+++++++++@@@@     .",
"++++$$$$$$$$$$$$$@@@@@@@@$@@@@@@@@@@@@@@@@@@@++++++@@@@@@@@@@@@+++++$$$$$$$$$$$$$@@@@@@@@$@@@@@@@@@@@@@@@@@@@++++++@@@@@@   @   ",
"$$+$$$@@$$$$$@@$$$@@@@@@@@@@@@@@@@@@@@@@@@@@@@@++++@@@@@@@@@@+++$$+$$$@@$$$$$@@$$$@@@@@@@@@@@@@@@@@@@@@@@@@@@@@+++++++@@@  @@@  ",
"$$$$$@@@@$$$@@@@@$@@@@@@@@@@@@@@@@@@@@@@@@@@@@@++++++++++++++++$$$$$$@@@@$$$@@@@@$@@@@@@@@@@@@@@@@@@@@@@@@@@@@@++++++++++ @@@@  ",
"$@@$$@@@@@@@@@@@@@@@@@@@@@@@@@++++@@@@@##@@@@@@@@@+++++++++++++$$@@$$@@@@@@@@@@@@@@@@@@@@@@@@@++++@@@@@##@@@@@@@@@+++++++@@@@   ",
"@@@@@@@@@@@@@@@@@@@@@####@@@@++++++@@@####@@@@@@@@@++++++++@@$$$@@@@@@@@@@@@@@@@@@@@@####@@@@++++++@@@####@@@@@@@@@+++++++@@   .",
"@@@@@+++@@@@@++++@@@######++@+++++++######@@@@@@+++++++++@@@@@@@@@@@@+++@@@@@++++@@@######++@+++++++######@@@@@@+++++++++@@    .",
"@@@@+++++@@@+++###########+++++++#########+++++++++++++@@@@@@@@@@@@@+++++@@@+++###########+++++++#########++++++++++@@@@@@      ",
"@@+++++++@@@++###########+++++++###########+++++++++++@@@+++@@@@@@+++++++@@@++###########+++++++###########++++++++++@@@@@ ++   ",
"+++++++++++@++###############++######++#####++++++++@@@@+++++@@@+++++++++++@++###############++######++#####+++++++++++@@+++++  ",
"++++++++++++########################+++++#####++++++++++++++++++++++++++++++########################+++++#####++++++++###+++++  ",
"++++++##########+++#################++++++++++++++++++++++++++++++++++##########+++#################+++++++++++++++++   ##++++  ",
"+++++++++######+++++##+++#######++##++++++++++++++++++###++++++++++++++++######+++++##+++#######++##++++++++++++++++++   #++++  ",
"++++++++++++###+++++#++++++####++++##++++++++++++++++#####++++++++++++++++++###+++++#++++++####++++##++++++++++++++++##   +++   ",
"++++++@@++++++++++++++++++++++++++++++++++++++###+++######++++++++++++@@++++++++++++++++++++++++++++++++++++++###+++###        .",
"+++++@@@@++++@@@@++++++++++++++++++++++++++++#############+++++++++++@@@@++++@@@@++++++++++++++++++++++++++++##########       ..",
"+++@@@@@@@@@@@@@@@@++++++++####+++++++++++++#################++++++@@@@@@@@@@@@@@@@++++++++####+++++++++++++###########  ###   .",
"##@@@@@@@@@@@@@@####++###########++####++++#######################@@@@@@@@@@@@@@####++###########++####++++###########  ###+++  ",
"+++++@@@@@@@@@@#################################################+++++@@@@@@@@@@###########################################+++++ ",
"++++++@@@@@@+###+++#####################$$$$#################+++++++++@@@@@@+###+++#####################$$$$#############++++++ ",
"++@@@@@@@@@++++++++++++################$$$$$$++++++++$$$$###++++++@@@@@@@@@++++++++++++################$$$$$$++++++++####++++++ ",
"@@@@@@@@@@@+++++++#################$$$#$$$$$$$$$$$++$$$$$$$#++++@@@@@@@@@@@+++++++#################$$$#$$$$$$$$$$+++     #++++  ",
"@@@@@@@@@@++++++++++##############$$$$$$$$$$$$$$$$$$$@@@$$$$+++@@@@@@@@@@@++++++++++##############$$$$$$$$$$$$$$$         ++++  ",
"+++++@@@@@++++++++++++###########$$$$$@@@@$$$$@@@@$$@@@@@$$$$@@@+++++@@@@@++++++++++++###########$$$$$@@@@$$$$@@@@  @@@    ++  .",
"++++++@@@@@+@@++++++++++++#######$$$@@@@@@@$$@@@@@@@@@@@@@@@@@++++++++@@@@@+@@++++++++++++#######$$$@@@@@@@$$@@@@@@@@@@@       .",
"++++++++@@@@@@@+++++++++++#####$$$$@@@@@@@@$@@@@@@@@@@@@@@@@@@++++++++++@@@@@@@+++++++++++#####$$$$@@@@@@@@$@@@@@@@@@@@@@     ..",
"@@+++++++@@@+++@+++++++++++@@@@@@$@@@@@@@@@@@@@@@@@@@@@@@@@@@@+@@@+++++++@@@+++@+++++++++++@@@@@@$@@@@@@@@@@@@@@@@@@@@@@@      .",
"@@@+++++++++++++++++++++++@@++@@@@@@@@@@@@@@@@@@@@@@@@@@@@@@@@@@@@@+++++++++++++++++++++++@@++@@@@@@@@@@@@@@@@@@@@@@@@@@   @@   ",
"@@@+++@@++++++++++++++++++@++++@@@@@@@@+++@@@@@++@@@@++@@@@@@@@@@@@+++@@++++++++++++++++++@++++@@@@@@@@+++@@@@@++@@@@++  @@@@@  ",
"@@@++@@@@@+++++++++++++++++++++++++@@@+++++@@++++++@++++@@@@@@@@@@@++@@@@@+++++++++++++++++++++++++@@@+++++@@++++++@++++@@@@@@  ",
"@@@@@@@@@@@@@@@@@@@+++++++++++++++++@@+++++@++++++++++++@@@@@@@@@@@@@@@@@@@@@@@@@@@+++++++++++++++++@@+++++@++++++++++++++@@@@  ",
"@@@@@@@@@++++++++++++++++++++++++++++++++++@++++++++++++@@@@@+++@@@@@@@@@++++++++++++++++++++++++++++++++++@+++++++++++++++@@@  ",
"++++++++++++######++++++++++++++++++++++++++++++++++++++++++++++++++++++++++######+++++++++++++++++++++++++++++++++++++++++@@   ",
"++++++++++#########+####++++++@@@+++++++++++++++++++++++++++++++++++++++++#########+####++++++@@@++++++++++++++++++++++++++@    ",
"++++++++#################+++@@@@@@++++++++++###+++++++++++++++++++++++++#################+++@@@@@@++++++++++###++++++++        .",
"+++++++##################@@@@@@@@@@@@@###++#####+++++++++++++++++++++++##################@@@@@@@@@@@@@###++#####+++++++++    ...",
"+++++######+++++############@@@@@@@@@#######++###++++++###+++++++++++######+++++############@@@@@@@@@#######++###++++++###   ...",
"+++#######+++++++###+++#######@@@#####++###++++###++++#####+++##+++#######+++++++###+++#######@@@#####++###++++#####++#####   ..",
"#++++++++++++++++##++++++++++++++++++++++++++++++++++############++++++++++++++++##+++++++++++++++++++++++++++++++##+######   ..",
"####++++++++++++++++++++++++++++++++++##+++++####++++###############++++++++++++++++++++++++++++++++++##+++++####++++#####    ..",
"+++++++++++++++++++++++$$$$$$+++$$$+#####+########++####+++#####+++++++++++++++++++++++$$$$$$+++$$$+#####+########++#####     ..",
"++++++++$$$$$++$$$+++@@@@$$$$$+$$$$$###################+++++++++++++++++$$$$$++$$$+++@@@@$$$$$+$$$$$###################+  ++   .",
"+++++++$$$$$$$$$$$$+@@@@@@@$$$$$$@@$$##################++++++++++++++++$$$$$$$$$$$$+@@@@@@@$$$$$$@@$$##################++++++   ",
"+++++$$$@@@@$$$@@$$@@@@@@@@@$$$$@@@@$$@@###++##+++####+++++++++++++++$$$@@@@$$$@@$$@@@@@@@@@$$$$@@@@$$@@###++##+++####++++++++  ",
"++$$$$@@@@@@@@@@@@@@@@@@@@@@@$$@@@@@@@@@@##++++++++##########+++++$$$$@@@@@@@@@@@@@@@@@@@@@@@$$@@@@@@@@@@##++++++++######+++++  ",
"@$$@@@@@@@@@@@@@@@@@@@@###@@@@$@@++@@@@@@@@++++++++#############@$$@@@@@@@@@@@@@@@@@@@@###@@@@$@@++@@@@@@@@++++++++#######+++   ",
"@@@@@@@@@@###@@@@@@@@@#####@@@@@++++@@@@@@@@@++++++#####@@@@@@@@@@@@@@@@@@###@@@@@@@@@#####@@@@@++++@@@@@@@@@++++++#####@@     .",
"++++++@@#######@@#############+++++++++++@@@++++++##@@@@@@@@@@@@++++++@@#######@@#############+++++++++++@@@++++++##@@@@@@@@  ..",
"++++++++++++#####################+++++++++++++++++++++++++++++++++++++++++++#####################+++++++++++++++++++++++++@@@  .",
"++++++++++++++++####################+++######+++++++++++++++++++++++++++++++++++####################+++######++++++++++++++++  .",
"@@@+++++++++++++++++#########################++++++++++++++++++@@@@+++++++++++++++++#########################++++++++++++++++  .",
"@@@@++++++++++++#######+++###############@@@#+++++++++++++++++@@@@@@++++++++++++#######+++###############@@@#++++++++++ +++++  .",
"@@@@@@@++++###########+++++#######++++++@@@@@+++++++++++++@@@@@@@@@@@@@++++###########+++++#######++++++@@@@@++++++++++  +++   .",
"+++@@@@@+++++++++++++++++++####+++++@@++@@@@@@++++++++++++++@@@@+++@@@@@+++++++++++++++++++####+++++@@++@@@@@@+++++++++       ..",
"++++@@@@@+++++++++++++++++++++++++@@@@@@@@@@@@++++++++++++++++@+++++@@@@@+++++++++++++++++++++++++@@@@@@@@@@@@+++++++++        .",
"+++++++++++++++++++++++++++++++++@@@@@@@@###@@@@@@+++++++++++++++++++++++++++++++++++++++++++++++@@@@@@@@###@@@@@@++++  #####   ",
"++++++++++++++++++++++++++++++++#############@@@@@@@@@@###++++++++++++++++++++++++++++++++++++++#############@@@@@@@@@ ####+++  ",
"+++++++++++++++++++++++++++++++#####++#########################++++++++++++++++++++++++++++++++#####++####################++++  ",
"########++++++++++++++++++++######+++++#################################++++++++++++++++++++######+++++###################++++  ",
"####++++++++++++++++++++++++++++++++++++++##########################++++++++++++++++++++++++++++++++++++++##############  +++   ",
"+++++++++++++++++++++++++++++++++++++++++++###++++############+++++++++++++++++++++++++++++++++++++++++++++###++++#######      .",
"++++++++++++++++++$$$$$++++$$$$$++++++@@@++##++++++#+++##+++++++++++++++++++++++++$$$$$++++$$$$$++++++@@@++##++++++#+++##+    ..",
"++++++++++++++++$$$$$$$$++$$$$$$$++++@@@@@+##+++++++++++++++++++++++++++++++++++$$$$$$$$++$$$$$$$++++@@@@@+##+++++++++++++    ..",
"+++++++++++++++$$$@@@$$$$$$$@@@@$$++@@@@@@@@##+++++++++++++@@@@@+++++++++++++++$$$@@@$$$$$$$@@@@$$++@@@@@@@@##++++++++++++     .",
"+++++$$$$$++$$$$$@@@@@@$$$$@@@@@@@$+@@@@@@@@@+++++++++@@@@@@@@@@+++++$$$$$++$$$$$@@@@@@$$$$@@@@@@@$+@@@@@@@@@++++++++++@@       ",
"++++$$$$$$$$$$$$$@@@@@@@@$@@@@@@@@@@@@@@@@@@@++++++@@@@@@@@@@@@+++++$$$$$$$$$$$$$@@@@@@@@$@@@@@@@@@@@@@@@@@@@+++++++++@@   @@   ",
"$$+$$$@@$$$$$@@$$$@@@@@@@@@@@@@@@@@@@@@@@@@@@@@++++@@@@@@@@@@+++$$+$$$@@$$$$$@@$$$@@@@@@@@@@@@@@@@@@@@@@@@@@@@@++++@@@@@@@@@@@  ",
"$$$$$@@@@$$$@@@@@$@@@@@@@@@@@@@@@@@@@@@@@@@@@@@++++++++++++++++$$$$$$@@@@$$$@@@@@$@@@@@@@@@@@@@@@@@@@@@@@@@@@@@++++++++++@@@@@  ",
"$@@$$@@@@@@@@@@@@@@@@@@@@@@@@@++++@@@@@##@@@@@@@@@+++++++++++++$$@@$$@@@@@@@@@@@@@@@@@@@@@@@@@++++@@@@@##@@@@@@@@@++++++++++@@  ",
"@@@@@@@@@@@@@@@@@@@@@####@@@@++++++@@@####@@@@@@@@@++++++++@@$$$@@@@@@@@@@@@@@@@@@@@@####@@@@++++++@@@####@@@@@@@@@+++++++++@   ",
"@@@@@+++@@@@@++++@@@######++@+++++++######@@@@@@+++++++++@@@@@@@@@@@@+++@@@@@++++@@@######++@+++++++######@@@@@@+++++++++++    .",
"@@@@+++++@@@+++###########+++++++#########+++++++++++++@@@@@@@@@@@@@+++++@@@+++###########+++++++#########+++++++++++++@@      .",
"@@+++++++@@@++###########+++++++###########+++++++++++@@@+++@@@@@@+++++++@@@++###########+++++++###########+++++++++++@@  ++    ",
"+++++++++++@++###############++######++#####++++++++@@@@+++++@@@+++++++++++@++###############++######++#####++++++++@@@@+++++   ",
"++++++++++++########################+++++#####++++++++++++++++++++++++++++++########################+++++#####+++++++++++++++   ",
"++++++##########+++#################++++++++++++++++++++++++++++++++++##########+++#################+++++++++++++++++++++++++   ",
"+++++++++######+++++##+++#######++##++++++++++++++++++###++++++++++++++++######+++++##+++#######++##++++++++++++++++++###++++  .",
"++++++++++++###+++++#++++++####++++##++++++++++++++++#####++++++++++++++++++###+++++#++++++####++++##++++++++++++++++#####++  ..",
"++++++@@++++++++++++++++++++++++++++++++++++++###+++######++++++++++++@@++++++++++++++++++++++++++++++++++++++###+++######   ...",
"+++++@@@@++++@@@@++++++++++++++++++++++++++++#############+++++++++++@@@@++++@@@@++++++++++++++++++++++++++++############      .",
"+++@@@@@@@@@@@@@@@@++++++++####+++++++++++++#################++++++@@@@@@@@@@@@@@@@++++++++####+++++++++++++##################  ",
"##@@@@@@@@@@@@@@####++###########++####++++#######################@@@@@@@@@@@@@@####++###########++####++++##########++++++#### "};
