/* XPM */
static char * Floor3_xpm[] = {
"64 64 437 2",
"  	c #223035",
". 	c #708640",
"+ 	c #87A147",
"@ 	c #9CB74E",
"# 	c #BEBA5B",
"$ 	c #A9B65A",
"% 	c #91AE60",
"& 	c #8BB05A",
"* 	c #83AD5E",
"= 	c #7BA962",
"- 	c #7AA863",
"; 	c #79A863",
"> 	c #78A764",
", 	c #719D6C",
"' 	c #8CB159",
") 	c #9AB94F",
"! 	c #9DB94F",
"~ 	c #A7B952",
"{ 	c #BFBA5B",
"] 	c #8BB159",
"^ 	c #3E9594",
"/ 	c #285B5E",
"( 	c #3C3F33",
"_ 	c #A7A452",
": 	c #AEBA55",
"< 	c #9AB84F",
"[ 	c #8DB158",
"} 	c #8AB05A",
"| 	c #82AC5F",
"1 	c #74A268",
"2 	c #709D6D",
"3 	c #679175",
"4 	c #769C6D",
"5 	c #83A665",
"6 	c #84A764",
"7 	c #96B653",
"8 	c #7A9E6C",
"9 	c #6D9473",
"0 	c #6C9870",
"a 	c #76A368",
"b 	c #99B850",
"c 	c #BDBA5A",
"d 	c #9CB94E",
"e 	c #3D9393",
"f 	c #6B6E47",
"g 	c #BAB559",
"h 	c #9EB94F",
"i 	c #9BB94E",
"j 	c #99B84F",
"k 	c #689274",
"l 	c #6F9474",
"m 	c #9AA769",
"n 	c #9AA669",
"o 	c #6C9374",
"p 	c #749772",
"q 	c #ABAF63",
"r 	c #BBB85D",
"s 	c #889E6E",
"t 	c #6E9473",
"u 	c #9CB05D",
"v 	c #B4BA57",
"w 	c #AFBA55",
"x 	c #B6BA58",
"y 	c #B5BA57",
"z 	c #182735",
"A 	c #8D8949",
"B 	c #B7BA58",
"C 	c #BBBA5A",
"D 	c #A6B952",
"E 	c #7DA962",
"F 	c #7DA963",
"G 	c #79A467",
"H 	c #6F9870",
"I 	c #9DA868",
"J 	c #ACAF63",
"K 	c #BDB95C",
"L 	c #BEB95C",
"M 	c #BCB95C",
"N 	c #BCB95B",
"O 	c #9FB94F",
"P 	c #6B693E",
"Q 	c #BAB759",
"R 	c #AEB955",
"S 	c #A4B951",
"T 	c #B3B958",
"U 	c #ADB956",
"V 	c #BBB95B",
"W 	c #AEB162",
"X 	c #337A7B",
"Y 	c #21292F",
"Z 	c #3A4032",
"` 	c #859F47",
" .	c #A5B951",
"..	c #B6BA57",
"+.	c #BCBA5A",
"@.	c #859F46",
"#.	c #98B64D",
"$.	c #88A147",
"%.	c #828E45",
"&.	c #ABB854",
"*.	c #ACB955",
"=.	c #ADB954",
"-.	c #ACB954",
";.	c #283130",
">.	c #97B44C",
",.	c #9AB74D",
"'.	c #9AB850",
").	c #92B455",
"!.	c #192735",
"~.	c #566839",
"{.	c #576939",
"].	c #5E713B",
"^.	c #8CB058",
"/.	c #96B15C",
"(.	c #8DB159",
"_.	c #93B554",
":.	c #7DAA61",
"<.	c #84AD5D",
"[.	c #3D9392",
"}.	c #80AA62",
"|.	c #A2B25E",
"1.	c #BDBA5B",
"2.	c #B1B65C",
"3.	c #92AE60",
"4.	c #7CA961",
"5.	c #85AE5D",
"6.	c #9AB94E",
"7.	c #94B553",
"8.	c #233538",
"9.	c #455F42",
"0.	c #99B750",
"a.	c #85A763",
"b.	c #91B159",
"c.	c #98B751",
"d.	c #9AB751",
"e.	c #98B750",
"f.	c #85AD5D",
"g.	c #1E2E36",
"h.	c #689158",
"i.	c #6F9B6A",
"j.	c #53735C",
"k.	c #769B6C",
"l.	c #779C6D",
"m.	c #8FAF5B",
"n.	c #A6B15F",
"o.	c #889F6D",
"p.	c #799E6B",
"q.	c #8DAE5C",
"r.	c #6E9573",
"s.	c #7BA863",
"t.	c #83AC5E",
"u.	c #212E31",
"v.	c #76A361",
"w.	c #709D6C",
"x.	c #5B8168",
"y.	c #6E9372",
"z.	c #87A764",
"A.	c #869E6F",
"B.	c #94A865",
"C.	c #769B6F",
"D.	c #9EB060",
"E.	c #7EA06B",
"F.	c #709573",
"G.	c #879E6E",
"H.	c #2A6164",
"I.	c #445F42",
"J.	c #597C4E",
"K.	c #577A4D",
"L.	c #6D6D41",
"M.	c #B8B65C",
"N.	c #BBB85C",
"O.	c #B0B55D",
"P.	c #A2B25F",
"Q.	c #BDB95B",
"R.	c #9FB557",
"S.	c #9BB94F",
"T.	c #7EAA62",
"U.	c #7FAA62",
"V.	c #87AE5E",
"W.	c #90B259",
"X.	c #9BB05D",
"Y.	c #89A06D",
"Z.	c #9EA968",
"`.	c #8FB259",
" +	c #293736",
".+	c #718640",
"++	c #67693D",
"@+	c #75834B",
"#+	c #90AD61",
"$+	c #A1B15F",
"%+	c #A0B15F",
"&+	c #A1B25F",
"*+	c #ABB857",
"=+	c #9CB94F",
"-+	c #86AE5D",
";+	c #9EB15F",
">+	c #A1B25E",
",+	c #BAB95B",
"'+	c #ADB955",
")+	c #357E7F",
"!+	c #99B64D",
"~+	c #89A549",
"{+	c #8CB15A",
"]+	c #8DB15A",
"^+	c #94B554",
"/+	c #368081",
"(+	c #89B05B",
"_+	c #7CA962",
":+	c #8FB159",
"<+	c #3D9191",
"[+	c #2F3E36",
"}+	c #768D42",
"|+	c #9AB74E",
"1+	c #9CB850",
"2+	c #9EB850",
"3+	c #B5B958",
"4+	c #BEBA5A",
"5+	c #A4B952",
"6+	c #AFB55D",
"7+	c #A5B952",
"8+	c #93B454",
"9+	c #9FB15F",
"0+	c #8EAD60",
"a+	c #6E843F",
"b+	c #536D43",
"c+	c #83AC5D",
"d+	c #8DB258",
"e+	c #7CAA61",
"f+	c #46A8A6",
"g+	c #1A2F3A",
"h+	c #98B54E",
"i+	c #99B751",
"j+	c #46A9A8",
"k+	c #8DAD59",
"l+	c #6F9471",
"m+	c #869D6F",
"n+	c #6C9473",
"o+	c #82A565",
"p+	c #6F9573",
"q+	c #7FA06A",
"r+	c #A7B55B",
"s+	c #87AE5D",
"t+	c #8EAF5B",
"u+	c #709672",
"v+	c #295E61",
"w+	c #303231",
"x+	c #393F32",
"y+	c #373F32",
"z+	c #373D34",
"A+	c #707043",
"B+	c #BDB85A",
"C+	c #ADB063",
"D+	c #A8B25E",
"E+	c #B5BA58",
"F+	c #6B9473",
"G+	c #6B9374",
"H+	c #98A66A",
"I+	c #1A2735",
"J+	c #6E6C3F",
"K+	c #383932",
"L+	c #A4A051",
"M+	c #BBB75A",
"N+	c #BCB75A",
"O+	c #90AF5B",
"P+	c #6F9672",
"Q+	c #799D6C",
"R+	c #BAB75D",
"S+	c #8CA06D",
"T+	c #91B05A",
"U+	c #2F3131",
"V+	c #92AD61",
"W+	c #92AE61",
"X+	c #9DB15C",
"Y+	c #7E9F6B",
"Z+	c #7B9E6C",
"`+	c #B8B559",
" @	c #95B555",
".@	c #98B15C",
"+@	c #8CB05A",
"@@	c #7EA962",
"#@	c #ACB956",
"$@	c #2B6164",
"%@	c #5A693A",
"&@	c #84AD5E",
"*@	c #738B42",
"=@	c #9BB850",
"-@	c #376562",
";@	c #8FA04A",
">@	c #A5B953",
",@	c #9AB64E",
"'@	c #8EB258",
")@	c #B4B957",
"!@	c #356764",
"~@	c #728940",
"{@	c #717240",
"]@	c #BCB85A",
"^@	c #739E6B",
"/@	c #729E6C",
"(@	c #A8B953",
"_@	c #222E32",
":@	c #1C2630",
"<@	c #8C8949",
"[@	c #689057",
"}@	c #77A561",
"|@	c #68693D",
"1@	c #99B54E",
"2@	c #78A561",
"3@	c #5D7F4E",
"4@	c #6E9759",
"5@	c #6C9559",
"6@	c #93B354",
"7@	c #295D61",
"8@	c #1D2730",
"9@	c #6D6F40",
"0@	c #BBB85A",
"a@	c #596B39",
"b@	c #9BB64E",
"c@	c #273030",
"d@	c #95B24C",
"e@	c #778D43",
"f@	c #556B42",
"g@	c #2C3832",
"h@	c #6A9358",
"i@	c #44A5A3",
"j@	c #243A3D",
"k@	c #77A460",
"l@	c #47ABA9",
"m@	c #576A3B",
"n@	c #96B44D",
"o@	c #1B2F3A",
"p@	c #8FAE59",
"q@	c #8F8C49",
"r@	c #8E8C49",
"s@	c #969B5B",
"t@	c #9BA769",
"u@	c #686C42",
"v@	c #9EB557",
"w@	c #60723B",
"x@	c #69693E",
"y@	c #B3B657",
"z@	c #728640",
"A@	c #2B4240",
"B@	c #758D42",
"C@	c #91B354",
"D@	c #45A6A5",
"E@	c #5A7B4D",
"F@	c #313D3C",
"G@	c #A5A252",
"H@	c #B5B959",
"I@	c #A4B953",
"J@	c #AFB261",
"K@	c #8A8748",
"L@	c #B4B958",
"M@	c #ADB857",
"N@	c #918E4A",
"O@	c #B1B556",
"P@	c #324241",
"Q@	c #888547",
"R@	c #5B6C3A",
"S@	c #8AA548",
"T@	c #A0B657",
"U@	c #94B455",
"V@	c #243C40",
"W@	c #81A04F",
"X@	c #8BB058",
"Y@	c #768F43",
"Z@	c #7AA962",
"`@	c #7F9E4F",
" #	c #92B353",
".#	c #98B74F",
"+#	c #9CA24E",
"@#	c #88A34A",
"##	c #80A04F",
"$#	c #91B253",
"%#	c #77A562",
"&#	c #779B55",
"*#	c #97A54C",
"=#	c #7C9B4C",
"-#	c #576839",
";#	c #466243",
">#	c #699258",
",#	c #486544",
"'#	c #79A762",
")#	c #89AE58",
"!#	c #90B153",
"~#	c #6E8A49",
"{#	c #85A047",
"]#	c #8CA549",
"^#	c #5F6F3B",
"/#	c #344234",
"(#	c #81A95B",
"_#	c #699358",
":#	c #496543",
"<#	c #748B41",
"[#	c #8AAF59",
"}#	c #99B74E",
"|#	c #8BA548",
"1#	c #596C3A",
"2#	c #23363B",
"3#	c #2A3D3C",
"4#	c #45654A",
"5#	c #222F32",
"6#	c #586B3A",
"7#	c #333F31",
"8#	c #20282F",
"9#	c #5A6C39",
"0#	c #748D43",
"a#	c #79A761",
"b#	c #87A44A",
"c#	c #56784C",
"d#	c #273130",
"e#	c #728941",
"f#	c #5A6E3E",
"g#	c #6C6C3E",
"h#	c #89A348",
"i#	c #2B6467",
"j#	c #2D6364",
"k#	c #293D3C",
"l#	c #1C363F",
"m#	c #33625F",
"n#	c #346562",
"o#	c #5A6E3F",
"p#	c #2A3D3B",
"q#	c #6E8440",
"r#	c #253031",
"s#	c #849F47",
"t#	c #243031",
"u#	c #2B6466",
"v#	c #3C908F",
"w#	c #2F3231",
"x#	c #252930",
"y#	c #576B3E",
"z#	c #3E9392",
"A#	c #171D2E",
"B#	c #2B5D5F",
"C#	c #2A6064",
"D#	c #285A5E",
"  . + @ # # $ % & * = - ; ; ; ; ; ; ; > , , ; = = = ; > ; ; * ' ) ! ~ # { # $ % & * = - ; ; ; ; ; ; ; > , , ; = = = ; > ; ; * ] ",
"^ / ( _ { : ) < ) [ } | ; ; ; ; ; 1 , 2 3 3 4 5 6 7 8 9 0 a b ! : c # { { : ) < ) [ } | ; ; ; ; ; 1 , 2 3 3 4 5 6 7 8 9 0 a b d ",
"e f g { # h ! i i j ] = = ; ; ; 1 k l m n o o n n p q r s t u v w : x { # h ! i i j ] = = ; ; ; 1 k l m n o o n n p q r s t u y ",
"z A { { # B C D i i i < b E F G H s r { { I J { { K { { L M N O ! i ! : # B C D i i i < b E F G H s r { { I J { { K { { L M N O ",
"z P g Q ~ R ! S d i i i d T U V W M { # # L { # # { # # { { # B c D i ! D R ! S d i i i d T U V W M { # # L { # # { # # { { # B ",
"X Y Z Z ` ! ! ! ! d i i d  .i D : x # ~ ! x x D D ..D ~ # { { { { w D +.: ! ! ! ! d i i d  .i D : x # ~ ! x x D D ..D ~ # { { { ",
"  @.#.$.%.&.*.*.*.S i i i i i i i ! =.d i -.! i i d i ! +.# x w c c c # x =.*.*.*.S i i i i i i i ! =.d i -.! i i d i ! +.# x : ",
";.>.,.#.'.] = = = ).' ' < i ! R D i i i i d < ) i i i i ! ! d i ! ! ! ! '.] = = = ).' ' < i ! R D i i i i d < ) i i i i ! ! d i ",
"!.~.{.].^.* = = ; - ; ; /.*.c { # w *.(._.).:.<.< i i ) < i i i i i ) ).= - = = ; - ; ; /.*.c { # w *.(._.).:.<.< i i ) < i i i ",
"[.z ;.>.i ) < j * = & * E }.|.1.2.|.3.} 4.5.b <.5.6.< <.= ).j [ < 7.5.= = ).< j * = & * E }.|.1.2.|.3.} 4.5.b <.5.6.< <.= ).j ' ",
"[.8.9.` 0.a.b.i _._.i '.c.c.b ! d.b e.' b j _.& ).i ] ; = = = ; f.[ j < < i i i _._.i '.c.c.b ! d.b e.' b j _.& ).i ] ; = = = ; ",
"g.h.i.j.k.l.0.m.a.b D n.o.9 p.q.r.8 s.; t.= - ; = } = * j _.] ' j < i b a.6 m.m.a.b D n.o.9 p.q.r.8 s.; t.= - ; = } = * j _.] ] ",
"u.v.> w.x.y.z.o.A.B.# { L q o t q q C.D.F t.* * & = - ).< < ) i i b m.E.n n F.G.A.B.# { L q o t q q C.D.F t.* * & = - ).< < ) i ",
"H.I.J.K.L.M.N.L L L { O.P.Q.J I x x K { O.R.S.) i & ; = T.U.V.W.X.Y.Z.r { Q.N.L L L { O.P.Q.J I x x K { O.R.S.) i & ; = T.U.V.`.",
"e  +.+++@+}.#+O.O.$+%+F ; #+&+*+=+! R : x +. .i 6.-+;+>+,+V V V U '+w +.|.}.#+O.O.$+%+F ; #+&+*+=+! R : x +. .i 6.-+;+>+,+V V V ",
")+. i !+~+j ' ' E = ; ; ; ; ; = * ' j _.{+]+^+i i < ! ! ! ! ! ! ! d i ! < j ' ' E = ; ; ; ; ; = * ' j _.{+]+^+i i < ! ! ! ! ! h ",
"/+. i i i i i 7.& (+- * & = ; ; ; = 4._+#+%+:+i i i i i i ! ! ..# ..! d i ) < b & (+- * & = ; ; ; = 4._+#+%+:+i i i i i i ! ! ..",
"<+[+}+|+i i i ) _.] ' < i ] = * ' 1+*.2+1.{ 3+d i i i i d =.+.4+w x # ..! 7.[ [ ] ] ' < i ] = * ' 1+*.2+1.{ 3+d i i i i d =.+.# ",
"  @.#.i i i i i i i i i i ) < ) 5+V Q.V 6+P.N w R ! ! S.< i !  .i ! R R S i i i i i i i i ) < ) 5+V Q.V 6+P.N w R ! ! S.< i ! 7+",
"  @.i #.8+] ] _.j ' 7.i i i < ).E U.]+T.s.; #+$+$+9+9+0+= & ] _.< < < < i i i i i i i i i i < ).E U.]+T.s.; #+$+$+9+9+0+= & ] _.",
"[. +a+b+c+] * 4.' ' < i i 6.d+' ' j i _.& = ; = = ; ; ; ; ; ; = e+:.' d+6.i i i i i i i i 6.d+' ' j i _.& = ; = = ; ; ; ; ; ; = ",
"f+g+~.h+) i ) < c.a.6 m.i m.6 a.b i ! R D & * j j f.& * * ] ' j < < i i i i i i i+a.6 m.i m.6 a.b i ! R D & * j j f.& * * ] ' j ",
"j+H.~.>.,.i #.k+l+n m+n+o+p+n n q+'...{ # r+s+6.i 6.i =+=+D : '+d i < b b i b t+u+n m+n+o+p+n n q+'...{ # r+s+6.i 6.i =+=+D : : ",
"^ v+w+x+{.. y+z+A+B+L C+s J { { r D+# { { { U d i  .w c # # # E+'.b p.p+F+o+r.G+H+{ L C+s J { { r D+# { { { U d i  .w c # # # x ",
"I+J+g g J+K+L+M+N+{ { { L { { # # { { # # { # : ! 7+: : : : D O+P+Q+m+R+s l q C+S+K { { L { { # # { { # # { # : ! 7+: : : : D T+",
"U+g # # B+N+# # # { O.$+O.# x ! ! E+N V+W+# { # +. .i i d D X+Y+q C+W # L M # # Q.{ O.$+O.# x ! ! E+N V+W+# { # +. .i i d D X+Z+",
"U+`+D ! x # ~  @.@%+F ; E 1+S i _.+@@@; _+#@: R ! d i D y c L M { c D ! x # ~  @.@%+F ; E 1+S i _.+@@@; _+#@: R ! d i D y c L M ",
"$@%@+ i  .y '.= ; ; ; ; | ] _.).= ; * * - &@j i i d =.+.D ! ..c : ! i i  .y '.= ; ; ; ; | ] _.).= ; * * - &@j i i d =.+.D ! ..# ",
"e  +*@^.' +@= = & * ; = - ; - - = = j ) _.] d+6.i i ! =@) i d ! i i 6.d+' +@= = & * ; = - ; - - = = j ) _.] d+6.i i ! =@) i d ! ",
"-@;@i < _.& = ] i j 5.j _.* = <.b 5._.i i i i < ) i ).= <.) i i i i i =@_.& = ] i j 5.j _.* = <.b 5._.i i i i < ) i ).= <.) i i ",
". d i i i D U R D d 6.i i < b < i ) ) i i i ).= * & = ; = b ) i i d D +.D ! >@R D d 6.i i < b < i ) ) i i i ).= * & = ; = b ) i ",
". i i i ,@c { Q.&+/.b ' ] * = * _._.] _.< ).= ; ; ; ; ; ; = * ] '@)@# { # # # Q.&+/.b ' ] * = * _._.] _.< ).= ; ; ; ; ; ; = * ] ",
"!@. ~@. {@]@$ 3.& * _+- ; ; ; ; - - ; ; ^@/@; = = = ; > ; ; * ' j h (@# { # $ 3.& * _+- ; ; ; ; - - ; ; ^@/@; = = = ; > ; ; * ] ",
"<+g._@:@<@: ) < ) [ } | ; ; ; ; ; 1 , 2 3 3 4 5 6 7 8 9 0 a b ! : c # { { : ) < ) [ } | ; ; ; ; ; 1 , 2 3 3 4 5 6 7 8 9 0 a b d ",
"g.[@}@J.|@1@< i i j ] = = ; ; ; 1 k l m n o o n n p q r s t u v w : x { # h ! i i j ] = = ; ; ; 1 k l m n o o n n p q r s t u y ",
"_@}@; 2@3@4@_+b ) i i < b E F G H s r { { I J { { K { { L M N O ! i ! : # B C D i i i < b E F G H s r { { I J { { K { { L M N O ",
":@[@5@6@< _.] [ 7.i i i d T U V W M { # # L { # # { # # { { # B c D i ! D R ! S d i i i d T U V W M { # # L { # # { # # { { # B ",
"7@8@9@0@: ! ! ! ! d i i d  .i D : x # ~ ! x x D D ..D ~ # { { { { w D +.: ! ! ! ! d i i d  .i D : x # ~ ! x x D D ..D ~ # { { { ",
"v+a@b@0@x =.*.*.*.S i i i i i i i ! =.d i -.! i i d i ! +.# x w c c c # x =.*.*.*.S i i i i i i i ! =.d i -.! i i d i ! +.# x : ",
"c@d@` e@'.] = = = ).' ' < i ! R D i i i i d < ) i i i i ! ! d i ! ! ! ! '.] = = = ).' ' < i ! R D i i i i d < ) i i i i ! ! d i ",
"H.f@g@h@= - = = ; - ; ; /.*.c { # w *.(._.).:.<.< i i ) < i i i i i ) ).= - = = ; - ; ; /.*.c { # w *.(._.).:.<.< i i ) < i i i ",
"j+i@j@k@* _.< j * = & * E }.|.1.2.|.3.} 4.5.b <.5.6.< <.= ).j [ < 7.5.= = ).< j * = & * E }.|.1.2.|.3.} 4.5.b <.5.6.< <.= ).j ' ",
"l@e !.m@n@,.i i _._.i '.c.c.b ! d.b e.' b j _.& ).i ] ; = = = ; f.[ j < < i i i _._.i '.c.c.b ! d.b e.' b j _.& ).i ] ; = = = ; ",
"^ o@P P x+{.+ p@a.b D n.o.9 p.q.r.8 s.; t.= - ; = } = * j _.] ' j < i b a.6 m.m.a.b D n.o.9 p.q.r.8 s.; t.= - ; = } = * j _.] ] ",
")+P N+B+g q@r@s@t@n.# { L q o t q q C.D.F t.* * & = - ).< < ) i i b m.E.n n F.G.A.B.# { L q o t q q C.D.F t.* * & = - ).< < ) i ",
")+<@x w # Q.# { { { { O.P.Q.J I x x K { O.R.S.) i & ; = T.U.V.W.X.Y.Z.r { Q.N.L L L { O.P.Q.J I x x K { O.R.S.) i & ; = T.U.V.`.",
"^ u@,@i v@}.#+O.O.$+%+F ; #+&+*+=+! R : x +. .i 6.-+;+>+,+V V V U '+w +.|.}.#+O.O.$+%+F ; #+&+*+=+! R : x +. .i 6.-+;+>+,+V V V ",
"j+H.a@#.) j ' ' E = ; ; ; ; ; = * ' j _.{+]+^+i i < ! ! ! ! ! ! ! d i ! < j ' ' E = ; ; ; ; ; = * ' j _.{+]+^+i i < ! ! ! ! ! h ",
"f+$@w+w@|+) < b & (+- * & = ; ; ; = 4._+#+%+:+i i i i i i ! ! ..# ..! d i ) < b & (+- * & = ; ; ; = 4._+#+%+:+i i i i i i ! ! ..",
"/+x@g y@! 7.[ [ ] ] ' < i ] = * ' 1+*.2+1.{ 3+d i i i i d =.+.4+w x # ..! 7.[ [ ] ] ' < i ] = * ' 1+*.2+1.{ 3+d i i i i d =.+.# ",
")+z@'+R S i i i i i i i i ) < ) 5+V Q.V 6+P.N w R ! ! S.< i !  .i ! R R S i i i i i i i i ) < ) 5+V Q.V 6+P.N w R ! ! S.< i ! 7+",
"^ A@. B@C@] ] _.) i i i i i < ).E U.]+T.s.; #+$+$+9+9+0+= & ] _.< < < < i i i i i i i i i i < ).E U.]+T.s.; #+$+$+9+9+0+= & ] _.",
"l@D@7@E@@@E & ' 7.i i i i 6.d+' ' j i _.& = ; = = ; ; ; ; ; ; = e+:.' d+6.i i i i i i i i 6.d+' ' j i _.& = ; = = ; ; ; ; ; ; = ",
"l@e F@G@Q.H@I@b c.a.6 m.i m.6 a.b i ! R D & * j j f.& * * ] ' j < < i i i i i i i+a.6 m.i m.6 a.b i ! R D & * j j f.& * * ] ' j ",
"^ F@L+{ { { J@o.u+n m+n+o+p+n n q+'...{ # r+s+6.i 6.i =+=+D : '+d i < b b i b t+u+n m+n+o+p+n n q+'...{ # r+s+6.i 6.i =+=+D : : ",
")+K@{ B+{ { { L@M@{ L C+s J { { r D+# { { { U d i  .w c # # # E+'.b p.p+F+o+r.G+H+{ L C+s J { { r D+# { { { U d i  .w c # # # x ",
")+K@{ N@O@: R ! y { # # L { { # # { { # # { # : ! 7+: : : : D O+P+Q+m+R+s l q C+S+K { { L { { # # { { # # { # : ! 7+: : : : D T+",
"^ P@Q@w+R@S@6.i ! v h T@1.# x ! ! E+N V+W+# { # +. .i i d D X+Y+q C+W # L M # # Q.{ O.$+O.# x ! ! E+N V+W+# { # +. .i i d D X+Z+",
"l@D@7@;.@.,.d+j i |+< ] U@! S i _.+@@@; _+#@: R ! d i D y c L M { c D ! x # ~  @.@%+F ; E 1+S i _.+@@@; _+#@: R ! ! D : y c L M ",
"l@f+V@@.i i W@X@i Y@k@- Z@`@ #C@4@- * * - &@.#i i d &.Q D ! ..c : ! i i  .+#@#= ; ; ; ; | ##$#).= %#&#* - &@j i i S x N+*#! ..# ",
"l@f+A@>.i i *@=#>.-#;#%#>#,#'#2@,#)#) ~+!#] ~#{#i i ]#^#@.,.d ! i ,.S@i + /#(#] ] | ; = - _#:#h@v.;#<#) C@[#d+}#|#! x r@+ i d ! ",
"l@l@)+1#>.>.~.2#3#H.H.4#I.>#; }@5#6#d@{.~@i >.7#@.i i . 8#9#,.i i >.<#i . . 6.,.0#a#'#b#_.* c#g.j@d#d@i e#f#>.@.g#`+L+Z #.i h#,.",
"l@l@f+i#3#3#i#D@f+j+j+D@j#[@}@[@g.v+k#l#m#@.@.2#n#. . ;.7@2#@.i #.o#p#q#;.~.>.@.r#[@[@6#>.s#t#)+D@u#~.. A@v#A@V@v+w#x#  @.@.7#>.",
"l@l@l@j+f+f+j+l@l@l@l@l@^ g._@:@H.f+f+f+^     e f+/+)+/+f+^ n#. y#z#D@/+7@A#;.  X g.B#!.;.8#C#f+l@f+/+)+^ l@f+f+f+/+/+<+  8#D#y#"};
