/* XPM */
static char * Floor1_xpm[] = {
"64 64 192 2",
"  	c #9AB84F",
". 	c #9BB94E",
"+ 	c #9DB94F",
"@ 	c #9CB94E",
"# 	c #A4B951",
"$ 	c #ADB955",
"% 	c #AEBA55",
"& 	c #A5B951",
"* 	c #A5B952",
"= 	c #99B84F",
"- 	c #8CB159",
"; 	c #8BB159",
"> 	c #7BA962",
", 	c #94B555",
"' 	c #BDBA5A",
") 	c #B6BA57",
"! 	c #9AB94F",
"~ 	c #93B554",
"{ 	c #79A863",
"] 	c #83AC5E",
"^ 	c #83AD5E",
"/ 	c #7AA863",
"( 	c #8EAD61",
"_ 	c #A1B25E",
": 	c #BCB95B",
"< 	c #BFBA5B",
"[ 	c #BEBA5B",
"} 	c #BBB95B",
"| 	c #ADB55D",
"1 	c #7EAA61",
"2 	c #85AD5D",
"3 	c #8AB05A",
"4 	c #7CA962",
"5 	c #92B455",
"6 	c #8BB05A",
"7 	c #90B259",
"8 	c #9FB657",
"9 	c #8FB259",
"0 	c #8EB159",
"a 	c #97B751",
"b 	c #9AB94E",
"c 	c #84AD5D",
"d 	c #93B159",
"e 	c #86A763",
"f 	c #84A764",
"g 	c #8FAF5B",
"h 	c #99B850",
"i 	c #85A763",
"j 	c #8DB258",
"k 	c #99B751",
"l 	c #B6BA58",
"m 	c #BDB95B",
"n 	c #ADB063",
"o 	c #869D6F",
"p 	c #6A9374",
"q 	c #779C6D",
"r 	c #879F6E",
"s 	c #75A268",
"t 	c #7DA963",
"u 	c #709672",
"v 	c #6F9573",
"w 	c #789D6C",
"x 	c #7A9E6C",
"y 	c #6E9573",
"z 	c #91AF5B",
"A 	c #90AF5B",
"B 	c #BCB95C",
"C 	c #889E6E",
"D 	c #9EA968",
"E 	c #BAB85C",
"F 	c #92AD61",
"G 	c #8CB15A",
"H 	c #9AB850",
"I 	c #87A863",
"J 	c #7FA06B",
"K 	c #9CA868",
"L 	c #BBB85D",
"M 	c #9DA869",
"N 	c #AEB162",
"O 	c #7FA963",
"P 	c #AEB55D",
"Q 	c #BAB85D",
"R 	c #ADB261",
"S 	c #A6B952",
"T 	c #BDBA5B",
"U 	c #B6B958",
"V 	c #A0B15F",
"W 	c #A1B15F",
"X 	c #A2B25F",
"Y 	c #A3B25E",
"Z 	c #ACB161",
"` 	c #ABB062",
" .	c #BBB95C",
"..	c #B0B55D",
"+.	c #7BA863",
"@.	c #7EA962",
"#.	c #8DB05A",
"$.	c #9CB94F",
"%.	c #A5B953",
"&.	c #ACB955",
"*.	c #8EB258",
"=.	c #AAB855",
"-.	c #AEB955",
";.	c #7DA962",
">.	c #92AE60",
",.	c #90AD61",
"'.	c #7EAA62",
").	c #89B05B",
"!.	c #8DB15A",
"~.	c #AFB55D",
"{.	c #A0B657",
"].	c #ACB954",
"^.	c #AFBA55",
"/.	c #94B553",
"(.	c #8DB158",
"_.	c #7DAA61",
":.	c #7CA961",
"<.	c #7CAA61",
"[.	c #9BB850",
"}.	c #BCBA5A",
"|.	c #B0BA55",
"1.	c #9EB94F",
"2.	c #B5BA57",
"3.	c #96B15C",
"4.	c #A2B25E",
"5.	c #9DB557",
"6.	c #9BB94F",
"7.	c #85AE5D",
"8.	c #98B751",
"9.	c #6D9473",
"0.	c #799E6B",
"a.	c #98B652",
"b.	c #8FB15A",
"c.	c #9BB84F",
"d.	c #9CB850",
"e.	c #869E6F",
"f.	c #9DA968",
"g.	c #96B15A",
"h.	c #99B25B",
"i.	c #BEB95C",
"j.	c #B7BA58",
"k.	c #ADB954",
"l.	c #BEBA5A",
"m.	c #A4B854",
"n.	c #86A862",
"o.	c #8DAE5C",
"p.	c #98A66A",
"q.	c #6C9374",
"r.	c #879E6E",
"s.	c #9BA769",
"t.	c #91AD61",
"u.	c #AEB956",
"v.	c #A4B853",
"w.	c #AEB261",
"x.	c #B5B958",
"y.	c #B5B959",
"z.	c #94B455",
"A.	c #A3B853",
"B.	c #84AD5E",
"C.	c #8DB159",
"D.	c #95B554",
"E.	c #B4B958",
"F.	c #A3B952",
"G.	c #83AC5F",
"H.	c #80AA62",
"I.	c #82AC5F",
"J.	c #78A764",
"K.	c #74A268",
"L.	c #689374",
"M.	c #7DA665",
"N.	c #89AF5B",
"O.	c #7EA764",
"P.	c #709D6C",
"Q.	c #97B554",
"R.	c #6D9870",
"S.	c #719970",
"T.	c #679175",
"U.	c #699274",
"V.	c #83A565",
"W.	c #889F6D",
"X.	c #9AA669",
"Y.	c #6D9374",
"Z.	c #6E9970",
"`.	c #9AB751",
" +	c #A7B952",
".+	c #98B15C",
"++	c #9FB15F",
"@+	c #9EAD64",
"#+	c #899F6E",
"$+	c #ACAF63",
"%+	c #B0B262",
"&+	c #B3BA57",
"    . . . + @ . . . . # @ . . . . @ $ % & @ $ % % % * = - ; -       . . . + @ . . . . # @ . . . . @ $ % & @ $ % % % * = - ; -   ",
"> > , + % ' ) + +   !   - ~ . . . . . . . . . . .   ; > { { { ] > > , + % ' ) + +   !   - ~ . . . . . . . . . . .   ; > { { { ^ ",
"> / ( _ : < [ } | 1 ^ 2 3 4 5 . . ~ -   .   . ! ~ ^ { ^ ; 6 > { > / ( _ : < [ } | 1 ^ 2 3 4 5 . . ~ -   .   . ! ~ ^ { ^ ; 6 > { ",
"  ~ ; ; 7 $ 8 9 0 a - ~ ! 5 - b ~ > { ^ 6 4 5 ~ - ; -   . . ; c = ~ ; ; 7 $ 8 9 0 a - ~ ! 5 - b ~ > { ^ 6 4 5 ~ - ; -   . . ; ^ ",
"@ d e f g h i g ; 4 5 - ^ > c h ^ > 6 ^ > > ; j b . h h     k ! @ d e f g h i g ; 4 5 - ^ > c h ^ > 6 ^ > > ; j b . h h     k ! ",
"l m n o p q o r s t / / / / > > { ; . !     . .   g u v w x y z ) m n o p q o r s t / / / / > > { ; . !     . .   g u v w x y A ",
"< [ m B C o B B D E F G ~ ~ = ^ / 3 ; ; ~   H I J K L L M n n N < [ m B C o B B D E F G ~ ~ = ^ / 3 ; ; ~   H I J K L L M n n N ",
"B F O P Q R S S ' [ T U # . . 6 t O V W X Y Z `  .< : X ..[ [ m B F O P Q R S S ' [ T U # . . 6 t O V W X Y Z `  .< : X ..[ [ m ",
"t { { +.@.#.~   + $.%.&.$.. b *.=.&.-.% % -.+ + + &.7 6 ;.>.,.t t { { +.@.#.~   + $.%.&.$.. b *.=.&.-.% % -.+ + + &.7 6 ;.>.,.t ",
"{ / > { { { / > 6 ^ ;.'.- . . . . . . . . S % S . . . .   h 6 )./ / > { { { / > 6 ^ ;.'.- . . . . . . . . S % S . . . .   h 6 3 ",
"> 5 = ^ { / > 6 !.G ~.B {.. . . . . @ ].^.[ [ ' ^.S . /.(.- _.:.> 5 = ^ { / > 6 !.G ~.B {.. . . . . @ ].^.[ [ ' ^.S . /.(.- _.<.",
"  . . ~ ; ~ [.-.}.|.T m ' 1.+ . . . . + % 2.+ S ' }.& !           . . ~ ; ~ [.-.}.|.T m ' 1.+ . . . . + % 2.+ S ' }.& !         ",
". . . . .   3.W 4.W ,.O P } } &.&.5.- =   6.. . + + @ . . . . . . . . . .   3.W 4.W ,.O P } } &.&.5.- =   6.. . + + @ . . . . . ",
". . . b j 7.> ; h c > { +.t t t t +.{ > > ^ ; ; (.j b . . . . . . . . b j 7.> ; h c > { +.t t t t +.{ > > ^ ; ; (.j b . . . . . ",
"h   .   8.8.  . . $.H ^ > 6 6 > > / / > > 6 ; - =   . . . . . h h   .   8.8.  . . $.H ^ > 6 6 > > / / > > 6 ; - =   . . . . . h ",
"9.0.a.0.v u g . S ' ) b.3 . . ~ = ~ ~ c.d.+ . . . . . . . h f u 9.0.a.0.v u g . S ' ) b.3 . . ~ = ~ ~ c.d.+ . . . . . . . h f u ",
"n e.9.C L L f.g.' < < : h.b . @ + -.% l [ }.+ . g f i a.i w o L n e.9.C L L f.g.' < < : h.b . @ + -.% l [ }.+ . g f i a.i w o L ",
"< i.N B < < < m < < < < j.& . k.}.l.[ [ l m.n.o.v p.q.p o o C i.< i.N B < < < m < < < < j.& . k.}.l.[ [ l m.n.o.v p.q.p o o C i.",
"[ m [ < [ ^.^.[ < ....< < j.-.+ + + + 1.d.f e.r.s.< n M B i.N i.[ m [ < [ ^.^.[ < ....< < j.-.+ + + + 1.d.f e.r.s.< n M B i.N i.",
",.t t.u.$ . ! v.V t O : [ ' ^.# . @ S l w.D B i.x.^.[ < l -.y.B F t t.u.$ . ! v.V t O : [ ' ^.# . @ S l w.D B i.x.^.[ < l -.y.m ",
"{ { ] h 6.  c > / / / z.+ + . . + 2.) ^.[ < ' % + . -.' + c 4 t { { ] h 6.  c > / / / z.+ + . . + 2.) ^.[ < ' % + . -.' + c 4 t ",
"{ { / > ^ ^ { / 5 ~ ^ :.(.b . @ ].$ + . S -.+ . .   c.A.G / > / { { / > ^ ^ { / 5 ~ ^ :.(.b . @ ].$ + . S -.+ . .   c.A.G / > / ",
"> 6 ^ / { > 3 4 = . !     . . .   - ~ . . . . . b j 7.4 { ^ = 5 > 6 ^ / { > 3 4 = . !     . . .   - ~ . . . . . b j 7.4 { ^ = ~ ",
"~ . ! ~ ; ~ . ~ /.. . .   - ~ = B.{ >   . . . . + k.$.= C.D.@ ! ~ . ! ~ ; ~ . ~ /.. . .   - ~ = B.{ >   . . . . + k.$.= C.D.@ . ",
".     ~ ; ~ ! !   ! .   B.{ / > { { / 6 ~     S l < l % l [ E.F..     ~ ; ~ ! !   ! .   B.{ / > { { / 6 ~     S l < l % l [ E.F.",
"6 > > / { / ^ ^ > ^ 6 G.{ { { { { { { { > _.0 &.l < < < T P H.;.3 > > / { / ^ ^ > ^ 6 G.{ { { { { { { { > _.0 &.l < < < T P H.;.",
"3 I.{ { { { { { J.K.L.L.M.N.N.; O.P.K.{ 5   + -.|.[ < l Q.0 h 5 3 I.{ { { { { { J.K.L.L.M.N.N.; O.P.K.{ 5   + -.|.[ < l Q.0 h 5 ",
":./ { { { { J.R.L.S.q.T.U.v u V.W.X.Y.Z.`.S }.l.[ < [ S . . b (._./ { { { { J.R.L.S.q.T.U.v u V.W.X.Y.Z.`.S }.l.[ < [ S . . b j ",
"= - 6 / { { P.q.s.L L o C L L D B < n s.R -.+ + S ' [  +k.+ . . = - 6 / { { P.q.s.L L o C L L D B < n s.R -.+ + S ' [  +k.+ . . ",
". . ! .+++@+#+$+< < < %+B < < < < < < < [  +-.+ . + ) }.^.].@ . . . ! .+++@+#+$+< < < %+B < < < < < < < [  +-.+ . + ) }.^.].@ . ",
". . + &+1.) : [ < l ^.[ [ l l [ l l < < < [ < -.+ k.1.+ . @ . . . . + &+1.) : [ < l ^.[ [ l l [ l l < < < [ < -.+ k.1.+ . @ . . ",
". . . @ . @ + S }.+ . -. +@ @ * + + [ < [ [ < j.l < }.$ k.k.k.# . . . @ . @ + S }.+ . -. +@ @ * + + [ < [ [ < j.l < }.$ k.k.k.# ",
"    . . . + @ . + . . # @ . . . . @ $ % S + -.% % % S [.0 !.0 c.    . . . + @ . + . . # @ . . . . @ $ % S + -.% % % S [.0 !.0 c.",
"> > , + % ' ) + +   !   - ~ . . . . . . . . . . .   ; > { { { ] > > , + % ' ) + +   !   - ~ . . . . . . . . . . .   ; > { { { ^ ",
"> / ( _ : < [ } | 1 ^ 2 3 4 5 . . ~ -   .   . ! ~ ^ { ^ ; 6 > { > / ( _ : < [ } | 1 ^ 2 3 4 5 . . ~ -   .   . ! ~ ^ { ^ ; 6 > { ",
"  ~ ; ; 7 $ 8 9 0 a - ~ ! 5 - b ~ > { ^ 6 4 5 ~ - ; -   . . ; c = ~ ; ; 7 $ 8 9 0 a - ~ ! 5 - b ~ > { ^ 6 4 5 ~ - ; -   . . ; ^ ",
"@ d e f g h i g ; 4 5 - ^ > c h ^ > 6 ^ > > ; j b . h h     k ! @ d e f g h i g ; 4 5 - ^ > c h ^ > 6 ^ > > ; j b . h h     k ! ",
"l m n o p q o r s t / / / / > > { ; . !     . .   g u v w x y z ) m n o p q o r s t / / / / > > { ; . !     . .   g u v w x y A ",
"< [ m B C o B B D E F G ~ ~ = ^ / 3 ; ; ~   H I J K L L M n n N < [ m B C o B B D E F G ~ ~ = ^ / 3 ; ; ~   H I J K L L M n n N ",
"B F O P Q R S S ' [ T U # . . 6 t O V W X Y Z `  .< : X ..[ [ m B F O P Q R S S ' [ T U # . . 6 t O V W X Y Z `  .< : X ..[ [ m ",
"t { { +.@.#.~   + $.%.&.$.. b *.=.&.-.% % -.+ + + &.7 6 ;.>.,.t t { { +.@.#.~   + $.%.&.$.. b *.=.&.-.% % -.+ + + &.7 6 ;.>.,.t ",
"{ / > { { { / > 6 ^ ;.'.- . . . . . . . . S % S . . . .   h 6 )./ / > { { { / > 6 ^ ;.'.- . . . . . . . . S % S . . . .   h 6 3 ",
"> 5 = ^ { / > 6 !.G ~.B {.. . . . . @ ].^.[ [ ' ^.S . /.(.- _.:.> 5 = ^ { / > 6 !.G ~.B {.. . . . . @ ].^.[ [ ' ^.S . /.(.- _.<.",
"  . . ~ ; ~ [.-.}.|.T m ' 1.+ . . . . + % 2.+ S ' }.& !           . . ~ ; ~ [.-.}.|.T m ' 1.+ . . . . + % 2.+ S ' }.& !         ",
"! . . . .   3.W 4.W ,.O P } } &.&.5.- =   6.. . + + @ . . . . . . . . . .   3.W 4.W ,.O P } } &.&.5.- =   6.. . + + @ . . . . . ",
"/.. . b j 7.> ; h c > { +.t t t t +.{ > > ^ ; ; (.j b . . . . . . . . b j 7.> ; h c > { +.t t t t +.{ > > ^ ; ; (.j b . . . . . ",
"h   .   8.8.  . . $.H ^ > 6 6 > > / / > > 6 ; - =   . . . . . h h   .   8.8.  . . $.H ^ > 6 6 > > / / > > 6 ; - =   . . . . . h ",
"9.0.a.0.v u g . S ' ) b.3 . . ~ = ~ ~ c.d.+ . . . . . . . h f u 9.0.a.0.v u g . S ' ) b.3 . . ~ = ~ ~ c.d.+ . . . . . . . h f u ",
"n e.9.C L L f.g.' < < : h.b . @ + -.% l [ }.+ . g f i a.i w o L n e.9.C L L f.g.' < < : h.b . @ + -.% l [ }.+ . g f i a.i w o L ",
"< i.N B < < < m < < < < j.& . k.}.l.[ [ l m.n.o.v p.q.p o o C i.< i.N B < < < m < < < < j.& . k.}.l.[ [ l m.n.o.v p.q.p o o C i.",
"[ m [ < [ ^.^.[ < ....< < j.-.+ + + + 1.d.f e.r.s.< n M B i.N i.[ m [ < [ ^.^.[ < ....< < j.-.+ + + + 1.d.f e.r.s.< n M B i.N i.",
",.t t.u.$ . ! v.V t O : [ ' ^.# . @ S l w.D B i.x.^.[ < l -.y.B F t t.u.$ . ! v.V t O : [ ' ^.# . @ S l w.D B i.x.^.[ < l -.y.m ",
"{ { ] h 6.  c > / / / z.+ + . . + 2.) ^.[ < ' % + . -.' + c 4 t { { ] h 6.  c > / / / z.+ + . . + 2.) ^.[ < ' % + . -.' + c 4 t ",
"{ { / > ^ ^ { / 5 ~ ^ :.(.b . @ ].$ + . S -.+ . .   c.A.G / > / { { / > ^ ^ { / 5 ~ ^ :.(.b . @ ].$ + . S -.+ . .   c.A.G / > / ",
"> 6 ^ / { > 3 4 = . !     . . .   - ~ . . . . . b j 7.4 { ^ = 5 > 6 ^ / { > 3 4 = . !     . . .   - ~ . . . . . b j 7.4 { ^ = ~ ",
"~ . ! ~ ; ~ . ~ /.. . .   - ~ = B.{ >   . . . . + k.$.= C.D.@ ! ~ . ! ~ ; ~ . ~ /.. . .   - ~ = B.{ >   . . . . + k.$.= C.D.@ . ",
".     ~ ; ~ ! !   ! .   B.{ / > { { / 6 ~     S l < l % l [ E.F..     ~ ; ~ ! !   ! .   B.{ / > { { / 6 ~     S l < l % l [ E.F.",
"6 > > / { / ^ ^ > ^ 6 G.{ { { { { { { { > _.0 &.l < < < T P H.;.3 > > / { / ^ ^ > ^ 6 G.{ { { { { { { { > _.0 &.l < < < T P H.;.",
"3 I.{ { { { { { J.K.L.L.M.N.N.; O.P.K.{ 5   + -.|.[ < l Q.0 h 5 3 I.{ { { { { { J.K.L.L.M.N.N.; O.P.K.{ 5   + -.|.[ < l Q.0 h 5 ",
":./ { { { { J.R.L.S.q.T.U.v u V.W.X.Y.Z.`.S }.l.[ < [ S . . b (._./ { { { { J.R.L.S.q.T.U.v u V.W.X.Y.Z.`.S }.l.[ < [ S . . b j ",
"= - 6 / { { P.q.s.L L o C L L D B < n s.R -.+ + S ' [  +k.+ . . = - 6 / { { P.q.s.L L o C L L D B < n s.R -.+ + S ' [  +k.+ . . ",
". . ! .+++@+#+$+< < < %+B < < < < < < < [  +-.+ . + ) }.^.].@ . . . ! .+++@+#+$+< < < %+B < < < < < < < [  +-.+ . + ) }.^.].@ . ",
". . + &+1.) : [ < l ^.[ [ l l [ l l < < < [ < -.+ k.1.+ . @ . . . . + &+1.) : [ < l ^.[ [ l l [ l l < < < [ < -.+ k.1.+ . @ . . ",
". . . @ . @ +  +' + . -. +@ @ * + + [ < < < < j.l < ' ^.% % % & . . . @ . @ +  +' + . -. +@ @ * + + [ < < < < j.l < ' ^.% % % & "};
