/* XPM */
static char * Floor4_xpm[] = {
"128 128 6 1",
" 	c #161C2E",
".	c #9BB94E",
"+	c #79A863",
"@	c #BFBA5B",
"#	c #47ABA9",
"$	c #679175",
"  ... .+++......................+++++++++++++@@@@@@@@@@+++......................................+++++++++++++@@@@@@@@@@+++......",
"  ..  ++++++...................+++++..+++++++++++++++++++++++++................................+++++..+++++++++++++++++++++++++.",
"      +++++++...............++++++.....+++++++++++++++++++++++++++++++++....................++++++.....+++++++++++++++++++++++++",
"#    ......++++...........................++++++++++++++++++++++++++......................................++++++++++++++++++++++",
"##  .......................................+++....++++++++++++.............................................+++....++++++++++++..",
"## ...............$$$$$....$$$$$......@@@..++......+...++.........................$$$$$....$$$$$......@@@..++......+...++.......",
"#  .............$$$$$$$$..$$$$$$$....@@@@@.++...................................$$$$$$$$..$$$$$$$....@@@@@.++...................",
"#  ............$$$@@@$$$$$$$@@@@$$..@@@@@@@@++.............@@@@@...............$$$@@@$$$$$$$@@@@$$..@@@@@@@@++.............@@@@@",
"#   ...   ..$$$$$@@@@@@$$$$@@@@@@@$.@@@@@@@@@.........@@@@@@@@@@.....$$$$$..$$$$$@@@@@@$$$$@@@@@@@$.@@@@@@@@@.........@@@@@@@@@@",
"#          $$$$$$@@@@@@@@$@@@@@@@@@@@@@@@@@@@......@@@@@@@@@@@@.....$$$$$$$$$$$$$@@@@@@@@$@@@@@@@@@@@@@@@@@@@......@@@@@@@@@@@@.",
"##      @@  $@@$$$@@@@@@@@@@@@@@@@@@@@@@@@@@@@@....@@@@@@@@@@...$$.$$$@@$$$$$@@$$$@@@@@@@@@@@@@@@@@@@@@@@@@@@@@....@@@@@@@@@@...",
"##    @@@@@@@@@@@$@@@@@@@@@@@@@@@@@@@@@@@@@@@@@................$$$$$$@@@@$$$@@@@@$@@@@@@@@@@@@@@@@@@@@@@@@@@@@@................$",
"#   ....@@@@@@@@@@@@@@@@@@@@@@....@@@@@++@@@@@@@@@.............$$@@$$@@@@@@@@@@@@@@@@@@@@@@@@@....@@@@@++@@@@@@@@@.............$",
"#  ......@@@@@@@@@@@@++++@@@@......@@@++++@@@@@@@@@........@@$$$@@@@@@@@@@@@@@@@@@@@@++++@@@@......@@@++++@@@@@@@@@........@@$$$",
"#  ......@@@@....@@@++++++..@.......++++++@@@@@@.........@@@@@@@@@@@@...@@@@@....@@@++++++..@.......++++++@@@@@@.........@@@@@@@",
"#  ......@@@...+++++++++++.......+++++++++.............@@@@@@@@@@@@@.....@@@...+++++++++++.......+++++++++.............@@@@@@@@@",
"#   .....@@@..+++++++++++.......+++++++++++...........@@@...@@@@@@.......@@@..+++++++++++.......+++++++++++...........@@@...@@@@",
"##    .....@..+++++++++++++++..++++++..+++++........@@@@.....@@@...........@..+++++++++++++++..++++++..+++++........@@@@.....@@@",
"##   .......++++++++++++++++++++++++.....+++++..............................++++++++++++++++++++++++.....+++++..................",
"##  ..++++++++++...+++++++++++++++++..................................++++++++++...+++++++++++++++++............................",
"#   .....++++++.....++...+++++++..++..................+++................++++++.....++...+++++++..++..................+++.......",
"     .......+++.....+......++++....++................+++++..................+++.....+......++++....++................+++++......",
"  ............................................+++...++++++............@@......................................+++...++++++......",
" ......@@@@..@@@@............................+++++++++++++...........@@@@....@@@@............................+++++++++++++......",
" .......@@@@@@@@@@@........++++.............+++++++++++++++++......@@@@@@@@@@@@@@@@........++++.............+++++++++++++++++...",
" .......@@@@@@@@++++..+++++++++++..++++....+++++++++++++++++++++++@@@@@@@@@@@@@@++++..+++++++++++..++++....+++++++++++++++++++++",
"  ......@@@@@@@+++++++++++++++++++++++++++++++++++++++++++++++++.....@@@@@@@@@@+++++++++++++++++++++++++++++++++++++++++++++++++",
"     ...@@@@.+++...+++++++++++++++++++++$$$$+++++++++++++++++.........@@@@@@.+++...+++++++++++++++++++++$$$$+++++++++++++++++...",
"#      @@@@............++++++++++++++++$$$$$$........$$$$+++......@@@@@@@@@............++++++++++++++++$$$$$$........$$$$+++....",
"###   @@@@@.......+++++++++++++++++$$$+$$$$$$$$$$$..$$$$$$$+....@@@@@@@@@@@.......+++++++++++++++++$$$+$$$$$$$$$$$..$$$$$$$+....",
"##  @@@@@@..........++++++++++++++$$$$$$$$$$$$$$$$$$$@@@$$$$...@@@@@@@@@@@..........++++++++++++++$$$$$$$$$$$$$$$$$$$@@@$$$$...@",
"#  @@@@@@@............+++++++++++$$$$$@@@@$$$$@@@@$$@@@@@$$$$@@@.....@@@@@............+++++++++++$$$$$@@@@$$$$@@@@$$@@@@@$$$$@@@",
"   @@@@@@@@.@@............+++++++$$$@@@@@@@$$@@@@@@@@@@@@@@@@@........@@@@@.@@............+++++++$$$@@@@@@@$$@@@@@@@@@@@@@@@@@..",
"   @@@@@@@@@@@@...........+++++$$$$@@@@@@@@$@@@@@@@@@@@@@@@@@@..........@@@@@@@...........+++++$$$$@@@@@@@@$@@@@@@@@@@@@@@@@@@..",
"   @@@@@.@@@...@...........@@@@@@$@@@@@@@@@@@@@@@@@@@@@@@@@@@@.@@@.......@@@...@...........@@@@@@$@@@@@@@@@@@@@@@@@@@@@@@@@@@@.@",
"    @@@@..................@@..@@@@@@@@@@@@@@@@@@@@@@@@@@@@@@@@@@@@@.......................@@..@@@@@@@@@@@@@@@@@@@@@@@@@@@@@@@@@@",
"#       ..................@....@@@@@@@@...@@@@@..@@@@..@@@@@@@@@@@@...@@..................@....@@@@@@@@...@@@@@..@@@@..@@@@@@@@@",
"#        ..........................@@@.....@@......@....@@@@@@@@@@@..@@@@@.........................@@@.....@@......@....@@@@@@@@",
"   ....   @@@@@@@@@.................@@.....@............@@@@@@@@@@@@@@@@@@@@@@@@@@@.................@@.....@............@@@@@@@@",
"  ......@..................................@............@@@@@...@@@@@@@@@..................................@............@@@@@...",
"  ..........++++++..........................................................++++++..............................................",
"  ........+++++++++.++++......@@@.........................................+++++++++.++++......@@@...............................",
"   ..   +++++++++++++++++...@@@@@@..........+++.........................+++++++++++++++++...@@@@@@..........+++.................",
"       ....++++++++++++++@@@@@@@@@@@@@+++..+++++.......................++++++++++++++++++@@@@@@@@@@@@@+++..+++++................",
"#     ..........++++++++++++@@@@@@@@@+++++++..+++......+++...........++++++.....++++++++++++@@@@@@@@@+++++++..+++......+++......",
"##    ...........+++...+++++++@@@+++++..+++....+++....+++++...++...+++++++.......+++...+++++++@@@+++++..+++....+++....+++++...++",
"##    ...........++..................................++++++++++++................++..................................+++++++++++",
"#   +  ...$$$.........................++.....++++....+++++++++++++++..................................++.....++++....+++++++++++",
"   ++$  .$$$...........$$$$$$...$$$.+++++.++++++++..++++...+++++.......................$$$$$$...$$$.+++++.++++++++..++++...+++++",
"  +++$$$$$$....$$$...@@@@$$$$$.$$$$$+++++++++++++++++++.................$$$$$..$$$...@@@@$$$$$.$$$$$+++++++++++++++++++.........",
"  ++++$$$$$$..$$$$$.@@@@@@@$$$$$$@@$$++++++++++++++++++................$$$$$$$$$$$$.@@@@@@@$$$$$$@@$$++++++++++++++++++.........",
"  ++++++$ $$$$$@@$$@@@@@@@@@$$$$@@@@$$@@+++..++...++++...............$$$@@@@$$$@@$$@@@@@@@@@$$$$@@@@$$@@+++..++...++++..........",
"   +++++  @@@@@@@@@@@@@@@@@@@$$@@@@@@@@@@++........++++++++++.....$$$$@@@@@@@@@@@@@@@@@@@@@@@$$@@@@@@@@@@++........++++++++++...",
"#        @@@@@@@@@@@@@@+++@@@@$@@..@@@@@@@@........+++++++++++++@$$@@@@@@@@@@@@@@@@@@@@+++@@@@$@@..@@@@@@@@........+++++++++++++",
"##       @+++@@@@@@@@@+++++@@@@@....@@@@@@@@@......+++++@@@@@@@@@@@@@@@@@@+++@@@@@@@@@+++++@@@@@....@@@@@@@@@......+++++@@@@@@@@",
"#   ..@  ++++++@@+++++++++++++...........@@@......++@@@@@@@@@@@@......@@+++++++@@+++++++++++++...........@@@......++@@@@@@@@@@@@",
"#  ..... ...+++++++++++++++++++++...........................................+++++++++++++++++++++...............................",
"#  .............++++++++++++++++++++...++++++...................................++++++++++++++++++++...++++++...................",
"#  .................+++++++++++++++++++++++++..................@@@@.................+++++++++++++++++++++++++..................@",
"#  ............++++++++...+++++++++++++++@@@+.................@@@@@@............+++++++...+++++++++++++++@@@+.................@@",
"##  .............+++++.....+++++++......@@@@@.............@@@@@@@@@@@@@....+++++++++++.....+++++++......@@@@@.............@@@@@@",
"#     .....................++++.....@@..@@@@@@..............@@@@...@@@@@...................++++.....@@..@@@@@@..............@@@@",
"   ...............................@@@@@@@@@@@@................@.....@@@@@.........................@@@@@@@@@@@@................@.",
"  ...............................@@@@@@@@+++@@@@@@...............................................@@@@@@@@+++@@@@@@..............",
"  ..............................+++++++++++++@@@@@@@@@@+++......................................+++++++++++++@@@@@@@@@@+++......",
"   ......++++++...+++..........+++++..+++++++++++++++++++++++++................................+++++..+++++++++++++++++++++++++.",
"#   ..  ++++++++++++........++++++.....+++++++++++++++++++++++++++++++++....................++++++.....+++++++++++++++++++++++++",
"##     ++....+++..........................++++++++++++++++++++++++++......................................++++++++++++++++++++++",
"##    .....................................+++....++++++++++++.............................................+++....++++++++++++..",
"##   .............$$$$$....$$$$$......@@@..++......+...++.........................$$$$$....$$$$$......@@@..++......+...++.......",
"##   ...........$$$$$$$$..$$$$$$$....@@@@@.++...................................$$$$$$$$..$$$$$$$....@@@@@.++...................",
"###   .........$$$@@@$$$$$$$@@@@$$..@@@@@@@@++.............@@@@@...............$$$@@@$$$$$$$@@@@$$..@@@@@@@@++.............@@@@@",
"###      ...     @@@@@@$$$$@@@@@@@$.@@@@@@@@@.........@@@@@@@@@@.....$$$$$..$$$$$@@@@@@$$$$@@@@@@@$.@@@@@@@@@.........@@@@@@@@@@",
"#                 @@@@@@@$@@@@@@@@@@@@@@@@@@@......@@@@@@@@@@@@.....$$$$$$$$$$$$$@@@@@@@@$@@@@@@@@@@@@@@@@@@@......@@@@@@@@@@@@.",
"    @@@@     @@@@@@@@@@@@@@@@@@@@@@@@@@@@@@@@@@....@@@@@@@@@@...$$.$$$@@$$$$$@@$$$@@@@@@@@@@@@@@@@@@@@@@@@@@@@@....@@@@@@@@@@...",
"   @@@@@@   @@@@@@@@@@@@@@@@@@@@@@@@@@@@@@@@@@@................$$$$$$@@@@$$$@@@@@$@@@@@@@@@@@@@@@@@@@@@@@@@@@@@................$",
"  @@@@@@@@@@@@@@@@@@@@@@@@@@@@....@@@@@++@@@@@@@@@.............$$@@$$@@@@@@@@@@@@@@@@@@@@@@@@@....@@@@@++@@@@@@@@@.............$",
"  @@@@@@@@@@@@@@@@@@@++++@@@@......@@@++++@@@@@@@@@........@@$$$@@@@@@@@@@@@@@@@@@@@@++++@@@@......@@@++++@@@@@@@@@........@@$$$",
"  @@@...@@@@@....@@@++++++..@.......++++++@@@@@@.........@@@@@@@@@@@@...@@@@@....@@@++++++..@.......++++++@@@@@@.........@@@@@@@",
"  @@.....@@@...+++++++++++.......+++++++++.............@@@@@@@@@@@@@.....@@@...+++++++++++.......+++++++++.............@@@@@@@@@",
"   ......@@@..+++++++++++.......+++++++++++...........@@@...@@@@@@.......@@@..+++++++++++.......+++++++++++...........@@@...@@@@",
"#    ......@..+++++++++++++++..++++++..+++++........@@@@.....@@@...........@..+++++++++++++++..++++++..+++++........@@@@.....@@@",
"##    ......++++++++++++++++++++++++.....+++++..............................++++++++++++++++++++++++.....+++++..................",
"#   ..++++++++++...+++++++++++++++++..................................++++++++++...+++++++++++++++++............................",
"#  ......++++++.....++...+++++++..++..................+++................++++++.....++...+++++++..++..................+++.......",
"  @.........+++.....+......++++....++................+++++..................+++.....+......++++....++................+++++......",
" .............................................+++...++++++............@@......................................+++...++++++......",
" ..........@@@@@@............................+++++++++++++...........@@@@....@@@@............................+++++++++++++......",
" .........@@@@@@@@@........++++.............+++++++++++++++++......@@@@@@@@@@@@@@@@........++++.............+++++++++++++++++...",
" .........@@@@@@++++..+++++++++++..++++....+++++++++++++++++++++++@@@@@@@@@@@@@@++++..+++++++++++..++++....+++++++++++++++++++++",
"  ......  @@@@@+++++++++++++++++++++++++++++++++++++++++++++++++.....@@@@@@@@@@+++++++++++++++++++++++++++++++++++++++++++++++++",
"#        @@@.+++...+++++++++++++++++++++$$$$+++++++++++++++++.........@@@@@@.+++...+++++++++++++++++++++$$$$+++++++++++++++++...",
"##       @@............++++++++++++++++$$$$$$........$$$$+++......@@@@@@@@@............++++++++++++++++$$$$$$........$$$$+++....",
"#        @@.......+++++++++++++++++$$$+$$$$$$$$$$$..$$$$$$$+....@@@@@@@@@@@.......+++++++++++++++++$$$+$$$$$$$$$$$..$$$$$$$+....",
"   ++++  @..........++++++++++++++$$$$$$$$$$$$$$$$$$$@@@$$$$...@@@@@@@@@@@..........++++++++++++++$$$$$$$$$$$$$$$$$$$@@@$$$$...@",
"  +++++   ............+++++++++++$$$$$@@@@$$$$@@@@$$@@@@@$$$$@@@.....@@@@@............+++++++++++$$$$$@@@@$$$$@@@@$$@@@@@$$$$@@@",
"  ++++++   +++............+++++++$$$@@@@@@@$$@@@@@@@@@@@@@@@@@........@@@@@.@@............+++++++$$$@@@@@@@$$@@@@@@@@@@@@@@@@@..",
"  ++++++++++++............+++++$$$$@@@@@@@@$@@@@@@@@@@@@@@@@@@..........@@@@@@@...........+++++$$$$@@@@@@@@$@@@@@@@@@@@@@@@@@@..",
"  +++++....++++++..........@@@@@@$@@@@@@@@@@@@@@@@@@@@@@@@@@@@.@@@.......@@@...@...........@@@@@@$@@@@@@@@@@@@@@@@@@@@@@@@@@@@.@",
"   ++ ....................@@..@@@@@@@@@@@@@@@@@@@@@@@@@@@@@@@@@@@@@.......................@@..@@@@@@@@@@@@@@@@@@@@@@@@@@@@@@@@@@",
"      @@..................@....@@@@@@@@...@@@@@..@@@@..@@@@@@@@@@@@...@@..................@....@@@@@@@@...@@@@@..@@@@..@@@@@@@@@",
"#    @@@@@.........................@@@.....@@......@....@@@@@@@@@@@..@@@@@.........................@@@.....@@......@....@@@@@@@@",
"#   ..@@@@@@@@@@@@@.................@@.....@............@@@@@@@@@@@@@@@@@@@@@@@@@@@.................@@.....@............@@@@@@@@",
"   ...@@@..................................@............@@@@@...@@@@@@@@@..................................@............@@@@@...",
"  .... .....++++++..........................................................++++++..............................................",
"  ...  ...+++++++++.++++......@@@.........................................+++++++++.++++......@@@...............................",
"   .   ++++++++++++++++++...@@@@@@..........+++.........................+++++++++++++++++...@@@@@@..........+++.................",
"#     +++++++++++++++++++@@@@@@@@@@@@@+++..+++++.......................++++++++++++++++++@@@@@@@@@@@@@+++..+++++................",
"####  +++++.....++++++++++++@@@@@@@@@+++++++..+++......+++...........++++++.....++++++++++++@@@@@@@@@+++++++..+++......+++......",
"####  +++........+++...+++++++@@@+++++..+++....+++....+++++...++...+++++++.......+++...+++++++@@@+++++..+++....+++....+++++...++",
"####   ..........++..................................++++++++++++................++..................................+++++++++++",
"###     ..............................++.....++++....+++++++++++++++..................................++.....++++....+++++++++++",
"##         ............$$$$$$...$$$.+++++.++++++++..++++...+++++.......................$$$$$$...$$$.+++++.++++++++..++++...+++++",
"#    @@      ..$$$...@@@@$$$$$.$$$$$+++++++++++++++++++.................$$$$$..$$$...@@@@$$$$$.$$$$$+++++++++++++++++++.........",
"#   @@@@@@     $$$$.@@@@@@@$$$$$$@@$$++++++++++++++++++................$$$$$$$$$$$$.@@@@@@@$$$$$$@@$$++++++++++++++++++.........",
"#  @@@@@@@@@@@@@@@@@@@@@@@@@$$$$@@@@$$@@+++..++...++++...............$$$@@@@$$$@@$$@@@@@@@@@$$$$@@@@$$@@+++..++...++++..........",
"#  @@@@@@@@@@@@@@@@@@@@@@@@@@$$@@@@@@@@@@++........++++++++++.....$$$$@@@@@@@@@@@@@@@@@@@@@@@$$@@@@@@@@@@++........++++++++++...",
"#  @@...@@@@@@@@@@@@@@@+++@@@@$@@..@@@@@@@@........+++++++++++++@$$@@@@@@@@@@@@@@@@@@@@+++@@@@$@@..@@@@@@@@........+++++++++++++",
"#  @.....@+++@@@@@@@@@+++++@@@@@....@@@@@@@@@......+++++@@@@@@@@@@@@@@@@@@+++@@@@@@@@@+++++@@@@@....@@@@@@@@@......+++++@@@@@@@@",
"##  .....++++++@@+++++++++++++...........@@@......++@@@@@@@@@@@@......@@+++++++@@+++++++++++++...........@@@......++@@@@@@@@@@@@",
"##   .......+++++++++++++++++++++...........................................+++++++++++++++++++++...............................",
"###   ..........++++++++++++++++++++...++++++...................................++++++++++++++++++++...++++++...................",
"###    .............+++++++++++++++++++++++++..................@@@@.................+++++++++++++++++++++++++..................@",
"##      ........+++++++...+++++++++++++++@@@+.................@@@@@@............+++++++...+++++++++++++++@@@+.................@@",
"#   @@@....+++++++++++.....+++++++......@@@@@.............@@@@@@@@@@@@@....+++++++++++.....+++++++......@@@@@.............@@@@@@",
"#  @@@@@...................++++.....@@..@@@@@@..............@@@@...@@@@@...................++++.....@@..@@@@@@..............@@@@",
"#  .@@@@@.........................@@@@@@@@@@@@................@.....@@@@@.........................@@@@@@@@@@@@................@.",
"#  ..............................@@@@@@@@+++@@@@@@...............................................@@@@@@@@+++@@@@@@.............."};
