/* XPM */
static char * Floor1_xpm[] = {
"128 128 4 1",
" 	c #9BB94E",
".	c #BFBA5B",
"+	c #79A863",
"@	c #679175",
"                       .            .....   .........                                  .            .....   .........           ",
"                                                        ++++++                                                          ++++++  ",
"++++      ...                                         +++++++++ ++++      ...                                         +++++++++ ",
"+++++   ......          +++                         +++++++++++++++++   ......          +++                         ++++++++++++",
"+++++.............+++  +++++                       ++++++++++++++++++.............+++  +++++                       +++++++++++++",
"++++++++.........+++++++  +++      +++           ++++++     ++++++++++++.........+++++++  +++      +++           ++++++     ++++",
"   +++++++...+++++  +++    +++    +++++   ++   +++++++       +++   +++++++...+++++  +++    +++    +++++   ++   +++++++       +++",
"                                 ++++++++++++                ++                                  ++++++++++++                ++ ",
"                  ++     ++++    +++++++++++++++                                  ++     ++++    +++++++++++++++                ",
"   @@@@@@   @@@ +++++ ++++++++  ++++   +++++                       @@@@@@   @@@ +++++ ++++++++  ++++   +++++                    ",
" ....@@@@@ @@@@@+++++++++++++++++++                 @@@@@  @@@   ....@@@@@ @@@@@+++++++++++++++++++                 @@@@@  @@@  ",
".......@@@@@@..@@++++++++++++++++++                @@@@@@@@@@@@ .......@@@@@@..@@++++++++++++++++++                @@@@@@@@@@@@ ",
"........@@@@....@@..+++  ++   ++++               @@@....@@@..@@.........@@@@....@@..+++  ++   ++++               @@@....@@@..@@.",
".........@@..........++        ++++++++++     @@@@.......................@@..........++        ++++++++++     @@@@..............",
"...+++....@..  ........        +++++++++++++.@@....................+++....@..  ........        +++++++++++++.@@.................",
"..+++++.....    .........      +++++..................+++.........+++++.....    .........      +++++..................+++.......",
"++++++++++           ...      ++............      ..+++++++..+++++++++++++           ...      ++............      ..+++++++..+++",
"+++++++++++++                                           +++++++++++++++++++++                                           ++++++++",
"++++++++++++++++   ++++++                                   ++++++++++++++++++++   ++++++                                   ++++",
"+++++++++++++++++++++++++                  ....                 +++++++++++++++++++++++++                  ....                 ",
"+++   +++++++++++++++...+                 ......            +++++++   +++++++++++++++...+                 ......            ++++",
"++     +++++++      .....             .............    +++++++++++     +++++++      .....             .............    +++++++++",
"       ++++     ..  ......              ....   .....                   ++++     ..  ......              ....   .....            ",
"              ............                .     .....                         ............                .     .....           ",
"             ........+++......                                               ........+++......                                  ",
"            +++++++++++++..........+++                                      +++++++++++++..........+++                          ",
"           +++++  +++++++++++++++++++++++++                                +++++  +++++++++++++++++++++++++                     ",
"        ++++++     +++++++++++++++++++++++++++++++++                    ++++++     +++++++++++++++++++++++++++++++++            ",
"                      ++++++++++++++++++++++++++                                      ++++++++++++++++++++++++++                ",
"                       +++    ++++++++++++                                             +++    ++++++++++++                      ",
"@@@    @@@@@      ...  ++      +   ++                         @@@@@    @@@@@      ...  ++      +   ++                         @@",
"@@@@  @@@@@@@    ..... ++                                   @@@@@@@@  @@@@@@@    ..... ++                                   @@@@",
".@@@@@@@....@@  ........++             .....               @@@...@@@@@@@....@@  ........++             .....               @@@..",
"...@@@@.......@ .........         ..........     @@@@@  @@@@@......@@@@.......@ .........         ..........     @@@@@  @@@@@...",
".....@...................      ............     @@@@@@@@@@@@@........@...................      ............     @@@@@@@@@@@@@...",
"...........................    ..........   @@ @@@..@@@@@..@@@.............................    ..........   @@ @@@..@@@@@..@@@..",
"...........................                @@@@@@....@@@.....@.............................                @@@@@@....@@@.....@..",
"..........    .....++.........             @@..@@.........................    .....++.........             @@..@@...............",
".++++....      ...++++.........        ..@@@.....................++++....      ...++++.........        ..@@@....................",
"++++++  .       ++++++......         ............   .....    ...++++++  .       ++++++......         ............   .....    ...",
"++++++       +++++++++             .............     ...   +++++++++++       +++++++++             .............     ...   +++++",
"+++++       +++++++++++           ...   ......       ...  +++++++++++       +++++++++++           ...   ......       ...  ++++++",
"+++++++++  ++++++  +++++        ....     ...           .  +++++++++++++++  ++++++  +++++        ....     ...           .  ++++++",
"++++++++++++++++     +++++                              ++++++++++++++++++++++++     +++++                              ++++++++",
"++++++++++++++++                                  ++++++++++   +++++++++++++++++                                  ++++++++++   +",
"++   +++++++  ++                  +++                ++++++     ++   +++++++  ++                  +++                ++++++     ",
"+      ++++    ++                +++++                  +++     +      ++++    ++                +++++                  +++     ",
"                          +++   ++++++            ..                                      +++   ++++++            ..            ",
"                         +++++++++++++           ....    ....                            +++++++++++++           ....    ....   ",
"       ++++             +++++++++++++++++      ................        ++++             +++++++++++++++++      ................ ",
"  +++++++++++  ++++    +++++++++++++++++++++++..............++++  +++++++++++  ++++    +++++++++++++++++++++++..............++++",
"++++++++++++++++++++++++++++++++++++++++++++     ..........+++++++++++++++++++++++++++++++++++++++++++++++++     ..........+++++",
"++++++++++++++++++++@@@@+++++++++++++++++         ...... +++   +++++++++++++++++++++@@@@+++++++++++++++++         ...... +++   +",
"   ++++++++++++++++@@@@@@        @@@@+++      .........            ++++++++++++++++@@@@@@        @@@@+++      .........         ",
"+++++++++++++++@@@+@@@@@@@@@@@  @@@@@@@+    ...........       +++++++++++++++++@@@+@@@@@@@@@@@  @@@@@@@+    ...........       ++",
"++++++++++++++@@@@@@@@@@@@@@@@@@@...@@@@   ...........          ++++++++++++++@@@@@@@@@@@@@@@@@@@...@@@@   ...........          ",
"  +++++++++++@@@@@....@@@@....@@.....@@@@...     .....            +++++++++++@@@@@....@@@@....@@.....@@@@...     .....          ",
"      +++++++@@@.......@@.................        ..... ..            +++++++@@@.......@@.................        ..... ..      ",
"      +++++@@@@........@..................          .......           +++++@@@@........@..................          .......     ",
"       ......@............................ ...       ...   .           ......@............................ ...       ...   .    ",
"      ..  .....................................                       ..  .....................................                 ",
"      .    ........   .....  ....  ............   ..                  .    ........   .....  ....  ............   ..            ",
"               ...     ..      .    ...........  .....                         ...     ..      .    ...........  .....          ",
"                ..     .            ...........................                 ..     .            ........................... ",
"                       .            .....   .........                                  .            .....   .........           ",
"                                                        ++++++                                                          ++++++  ",
"++++      ...                                         +++++++++ ++++      ...                                         +++++++++ ",
"+++++   ......          +++                         +++++++++++++++++   ......          +++                         ++++++++++++",
"+++++.............+++  +++++                       ++++++++++++++++++.............+++  +++++                       +++++++++++++",
"++++++++.........+++++++  +++      +++           ++++++     ++++++++++++.........+++++++  +++      +++           ++++++     ++++",
"   +++++++...+++++  +++    +++    +++++   ++   +++++++       +++   +++++++...+++++  +++    +++    +++++   ++   +++++++       +++",
"                                 ++++++++++++                ++                                  ++++++++++++                ++ ",
"                  ++     ++++    +++++++++++++++                                  ++     ++++    +++++++++++++++                ",
"   @@@@@@   @@@ +++++ ++++++++  ++++   +++++                       @@@@@@   @@@ +++++ ++++++++  ++++   +++++                    ",
" ....@@@@@ @@@@@+++++++++++++++++++                 @@@@@  @@@   ....@@@@@ @@@@@+++++++++++++++++++                 @@@@@  @@@  ",
".......@@@@@@..@@++++++++++++++++++                @@@@@@@@@@@@ .......@@@@@@..@@++++++++++++++++++                @@@@@@@@@@@@ ",
"........@@@@....@@..+++  ++   ++++               @@@....@@@..@@.........@@@@....@@..+++  ++   ++++               @@@....@@@..@@.",
".........@@..........++        ++++++++++     @@@@.......................@@..........++        ++++++++++     @@@@..............",
"...+++....@..  ........        +++++++++++++.@@....................+++....@..  ........        +++++++++++++.@@.................",
"..+++++.....    .........      +++++..................+++.........+++++.....    .........      +++++..................+++.......",
"++++++++++           ...      ++............      ..+++++++..+++++++++++++           ...      ++............      ..+++++++..+++",
"+++++++++++++                                           +++++++++++++++++++++                                           ++++++++",
"++++++++++++++++   ++++++                                   ++++++++++++++++++++   ++++++                                   ++++",
"+++++++++++++++++++++++++                  ....                 +++++++++++++++++++++++++                  ....                 ",
"+++   +++++++++++++++...+                 ......            +++++++   +++++++++++++++...+                 ......            ++++",
"++     +++++++      .....             .............    +++++++++++     +++++++      .....             .............    +++++++++",
"       ++++     ..  ......              ....   .....                   ++++     ..  ......              ....   .....            ",
"              ............                .     .....                         ............                .     .....           ",
"             ........+++......                                               ........+++......                                  ",
"            +++++++++++++..........+++                                      +++++++++++++..........+++                          ",
"+          +++++  +++++++++++++++++++++++++                                +++++  +++++++++++++++++++++++++                     ",
"        ++++++     +++++++++++++++++++++++++++++++++                    ++++++     +++++++++++++++++++++++++++++++++            ",
"                      ++++++++++++++++++++++++++                                      ++++++++++++++++++++++++++                ",
"                       +++    ++++++++++++                                             +++    ++++++++++++                      ",
"@@@    @@@@@      ...  ++      +   ++                         @@@@@    @@@@@      ...  ++      +   ++                         @@",
"@@@@  @@@@@@@    ..... ++                                   @@@@@@@@  @@@@@@@    ..... ++                                   @@@@",
".@@@@@@@....@@  ........++             .....               @@@...@@@@@@@....@@  ........++             .....               @@@..",
"...@@@@.......@ .........         ..........     @@@@@  @@@@@......@@@@.......@ .........         ..........     @@@@@  @@@@@...",
".....@...................      ............     @@@@@@@@@@@@@........@...................      ............     @@@@@@@@@@@@@...",
"...........................    ..........   @@ @@@..@@@@@..@@@.............................    ..........   @@ @@@..@@@@@..@@@..",
"...........................                @@@@@@....@@@.....@.............................                @@@@@@....@@@.....@..",
"..........    .....++.........             @@..@@.........................    .....++.........             @@..@@...............",
".++++....      ...++++.........        ..@@@.....................++++....      ...++++.........        ..@@@....................",
"++++++  .       ++++++......         ............   .....    ...++++++  .       ++++++......         ............   .....    ...",
"++++++       +++++++++             .............     ...   +++++++++++       +++++++++             .............     ...   +++++",
"+++++       +++++++++++           ...   ......       ...  +++++++++++       +++++++++++           ...   ......       ...  ++++++",
"+++++++++  ++++++  +++++        ....     ...           .  +++++++++++++++  ++++++  +++++        ....     ...           .  ++++++",
"++++++++++++++++     +++++                              ++++++++++++++++++++++++     +++++                              ++++++++",
"++++++++++++++++                                  ++++++++++   +++++++++++++++++                                  ++++++++++   +",
"++   +++++++  ++                  +++                ++++++     ++   +++++++  ++                  +++                ++++++     ",
"+      ++++    ++                +++++                  +++     +      ++++    ++                +++++                  +++     ",
"                          +++   ++++++            ..                                      +++   ++++++            ..            ",
"                         +++++++++++++           ....    ....                            +++++++++++++           ....    ....   ",
"       ++++             +++++++++++++++++      ................        ++++             +++++++++++++++++      ................ ",
"  +++++++++++  ++++    +++++++++++++++++++++++..............++++  +++++++++++  ++++    +++++++++++++++++++++++..............++++",
"++++++++++++++++++++++++++++++++++++++++++++     ..........+++++++++++++++++++++++++++++++++++++++++++++++++     ..........+++++",
"++++++++++++++++++++@@@@+++++++++++++++++         ...... +++   +++++++++++++++++++++@@@@+++++++++++++++++         ...... +++   +",
"   ++++++++++++++++@@@@@@        @@@@+++      .........            ++++++++++++++++@@@@@@        @@@@+++      .........         ",
"+++++++++++++++@@@+@@@@@@@@@@@  @@@@@@@+    ...........       +++++++++++++++++@@@+@@@@@@@@@@@  @@@@@@@+    ...........       ++",
"++++++++++++++@@@@@@@@@@@@@@@@@@@...@@@@   ...........          ++++++++++++++@@@@@@@@@@@@@@@@@@@...@@@@   ...........          ",
"  +++++++++++@@@@@....@@@@....@@.....@@@@...     .....            +++++++++++@@@@@....@@@@....@@.....@@@@...     .....          ",
"      +++++++@@@.......@@.................        ..... ..            +++++++@@@.......@@.................        ..... ..      ",
"      +++++@@@@........@..................          .......           +++++@@@@........@..................          .......     ",
"       ......@............................ ...       ...   .           ......@............................ ...       ...   .    ",
"      ..  .....................................                       ..  .....................................                 ",
"      .    ........   .....  ....  ............   ..                  .    ........   .....  ....  ............   ..            ",
"               ...     ..      .    ...........  .....                         ...     ..      .    ...........  .....          ",
"                ..     .            ...........................                 ..     .            ........................... "};
