/* XPM */
static char * Floor2_xpm[] = {
"64 64 434 2",
"  	c #47ABA9",
". 	c #3E9594",
"+ 	c #357E7F",
"@ 	c #46A9A7",
"# 	c #46A8A6",
"$ 	c #46A9A8",
"% 	c #2A6164",
"& 	c #1C2630",
"* 	c #212E31",
"= 	c #192735",
"- 	c #3D9393",
"; 	c #3D9392",
"> 	c #273036",
", 	c #2F3131",
"' 	c #295E61",
") 	c #295D61",
"! 	c #20282F",
"~ 	c #223035",
"{ 	c #3D9191",
"] 	c #368081",
"^ 	c #2A6064",
"/ 	c #25282F",
"( 	c #1A2735",
"_ 	c #2B5D5F",
": 	c #1E2E36",
"< 	c #337A7B",
"[ 	c #347C7D",
"} 	c #45A6A5",
"| 	c #3E9392",
"1 	c #303837",
"2 	c #2A3D3B",
"3 	c #708640",
"4 	c #1A2F3A",
"5 	c #689057",
"6 	c #76A361",
"7 	c #466243",
"8 	c #336262",
"9 	c #324241",
"0 	c #367E7F",
"a 	c #313D3C",
"b 	c #8A8748",
"c 	c #6B693E",
"d 	c #1B2F3A",
"e 	c #243B3D",
"f 	c #273136",
"g 	c #A4A051",
"h 	c #B9B559",
"i 	c #5B683A",
"j 	c #283130",
"k 	c #859F46",
"l 	c #252930",
"m 	c #2F3231",
"n 	c #243C40",
"o 	c #2B4240",
"p 	c #3C908F",
"q 	c #253F41",
"r 	c #577A4D",
"s 	c #445F42",
"t 	c #2B6466",
"u 	c #BAB559",
"v 	c #6C6C3F",
"w 	c #293031",
"x 	c #56784C",
"y 	c #253B3D",
"z 	c #6E6F44",
"A 	c #9BB94E",
"B 	c #728940",
"C 	c #283230",
"D 	c #576939",
"E 	c #293736",
"F 	c #6E843F",
"G 	c #313E32",
"H 	c #699258",
"I 	c #79A863",
"J 	c #75A260",
"K 	c #353C34",
"L 	c #303736",
"M 	c #BFBA5B",
"N 	c #445F41",
"O 	c #4F6643",
"P 	c #BBB75A",
"Q 	c #8C8948",
"R 	c #98B64D",
"S 	c #3A4032",
"T 	c #6D6C3F",
"U 	c #97B44C",
"V 	c #5A6E3E",
"W 	c #5B7D4D",
"X 	c #7AA863",
"Y 	c #222E32",
"Z 	c #888547",
"` 	c #A8A554",
" .	c #7CA762",
"..	c #8F8D4B",
"+.	c #BDB85A",
"@.	c #587A4D",
"#.	c #7DA963",
"$.	c #63804E",
"%.	c #BEBA5B",
"&.	c #566839",
"*.	c #97B44D",
"=.	c #768D42",
"-.	c #9AB74D",
";.	c #99B44D",
">.	c #98A155",
",.	c #90AD61",
"'.	c #658450",
").	c #8D8949",
"!.	c #373832",
"~.	c #77A562",
"{.	c #7F8A4E",
"].	c #BCB75A",
"^.	c #A1A650",
"/.	c #87A147",
"(.	c #8B8C48",
"_.	c #AFB955",
":.	c #AFBA55",
"<.	c #97A155",
"[.	c #92B353",
"}.	c #99B74E",
"|.	c #92B455",
"1.	c #5D7F4E",
"2.	c #6E6C3F",
"3.	c #A6A252",
"4.	c #716F40",
"5.	c #A2B25F",
"6.	c #AEB55D",
"7.	c #454535",
"8.	c #969D54",
"9.	c #BCB95C",
"0.	c #A9A653",
"a.	c #A7B952",
"b.	c #2B6467",
"c.	c #233538",
"d.	c #1D2730",
"e.	c #586B3A",
"f.	c #8BB058",
"g.	c #9AB84F",
"h.	c #9AB74E",
"i.	c #5F723B",
"j.	c #9BB74E",
"k.	c #B4BA57",
"l.	c #B0BA55",
"m.	c #BDBA5B",
"n.	c #BCB85B",
"o.	c #92904A",
"p.	c #93904B",
"q.	c #B8B358",
"r.	c #556A44",
"s.	c #BBB85B",
"t.	c #A6B952",
"u.	c #8CA549",
"v.	c #99B64D",
"w.	c #94B555",
"x.	c #85AE5D",
"y.	c #9AB94E",
"z.	c #9CB94E",
"A.	c #9EA54F",
"B.	c #ACB654",
"C.	c #AAA653",
"D.	c #B7BA58",
"E.	c #4A6643",
"F.	c #79A661",
"G.	c #94B553",
"H.	c #A5B951",
"I.	c #AEBA55",
"J.	c #B6BA58",
"K.	c #9DB94F",
"L.	c #B6BA57",
"M.	c #A4B851",
"N.	c #A2B651",
"O.	c #BCBA5A",
"P.	c #9CB850",
"Q.	c #597C4E",
"R.	c #91B354",
"S.	c #9AB94F",
"T.	c #ADB954",
"U.	c #ACB954",
"V.	c #BDBA5A",
"W.	c #ACB955",
"X.	c #A4B951",
"Y.	c #6C9558",
"Z.	c #97B54E",
"`.	c #99B84F",
" +	c #85AD5D",
".+	c #8CB159",
"++	c #AEB955",
"@+	c #9AB850",
"#+	c #8BB159",
"$+	c #7BA962",
"%+	c #293632",
"&+	c #2C3832",
"*+	c #7CAA61",
"=+	c #7CA962",
"-+	c #96B15C",
";+	c #8DB159",
">+	c #93B554",
",+	c #7DAA61",
"'+	c #84AD5D",
")+	c #768F43",
"!+	c #83AD5E",
"~+	c #8BB05A",
"{+	c #7DA962",
"]+	c #80AA62",
"^+	c #A2B25E",
"/+	c #B1B65C",
"(+	c #92AE60",
"_+	c #8AB05A",
":+	c #7CA961",
"<+	c #99B850",
"[+	c #8DB158",
"}+	c #98B751",
"|+	c #9AB751",
"1+	c #98B750",
"2+	c #748B41",
"3+	c #A6B15F",
"4+	c #889F6D",
"5+	c #6D9473",
"6+	c #799E6B",
"7+	c #8DAE5C",
"8+	c #6E9573",
"9+	c #7A9E6C",
"0+	c #7BA863",
"a+	c #83AC5E",
"b+	c #85A763",
"c+	c #84A764",
"d+	c #8FAF5B",
"e+	c #263035",
"f+	c #383932",
"g+	c #3C3F33",
"h+	c #3A4033",
"i+	c #889047",
"j+	c #BEB95C",
"k+	c #ABAF63",
"l+	c #6C9374",
"m+	c #6E9473",
"n+	c #769B6F",
"o+	c #9EB060",
"p+	c #7EA06B",
"q+	c #9AA669",
"r+	c #709573",
"s+	c #879E6E",
"t+	c #869E6F",
"u+	c #94A865",
"v+	c #3E9393",
"w+	c #6B6E47",
"x+	c #B8B459",
"y+	c #A7A453",
"z+	c #B0B55D",
"A+	c #BDB95B",
"B+	c #ACAF63",
"C+	c #9DA868",
"D+	c #BDB95C",
"E+	c #9FB557",
"F+	c #9BB94F",
"G+	c #7EAA62",
"H+	c #7FAA62",
"I+	c #87AE5E",
"J+	c #90B259",
"K+	c #9BB05D",
"L+	c #89A06D",
"M+	c #9EA968",
"N+	c #BBB85D",
"O+	c #BBB85C",
"P+	c #8FB259",
"Q+	c #2F3737",
"R+	c #91904B",
"S+	c #A0B05E",
"T+	c #A1B15F",
"U+	c #A0B15F",
"V+	c #A1B25F",
"W+	c #ABB857",
"X+	c #9CB94F",
"Y+	c #86AE5D",
"Z+	c #9EB15F",
"`+	c #A1B25E",
" @	c #BAB95B",
".@	c #BBB95B",
"+@	c #ADB956",
"@@	c #ADB955",
"#@	c #859F47",
"$@	c #8CB15A",
"%@	c #8DB15A",
"&@	c #94B554",
"*@	c #9EB94F",
"=@	c #275A5E",
"-@	c #89B05B",
";@	c #8FB159",
">@	c #45A7A5",
",@	c #253C3F",
"'@	c #8F8E49",
")@	c #9EB850",
"!@	c #B5B958",
"~@	c #BEBA5A",
"{@	c #306464",
"]@	c #869F47",
"^@	c #AAB653",
"/@	c #A3B952",
"(@	c #A4B952",
"_@	c #AFB55D",
":@	c #BCB95B",
"<@	c #A5B952",
"[@	c #94B14B",
"}@	c #5D713B",
"|@	c #81AA5D",
"1@	c #9FB15F",
"2@	c #8EAD60",
"3@	c #8AAF58",
"4@	c #8DB258",
"5@	c #44A5A3",
"6@	c #576D42",
"7@	c #99B751",
"8@	c #8EAF5B",
"9@	c #709672",
"0@	c #869D6F",
"a@	c #6C9473",
"b@	c #82A565",
"c@	c #6F9573",
"d@	c #7FA06A",
"e@	c #A7B55B",
"f@	c #87AE5D",
"g@	c #3D4533",
"h@	c #789554",
"i@	c #6B9374",
"j@	c #98A66A",
"k@	c #ADB063",
"l@	c #889E6E",
"m@	c #A8B25E",
"n@	c #B5BA58",
"o@	c #6B9473",
"p@	c #1B2E39",
"q@	c #313831",
"r@	c #8B8948",
"s@	c #908E4D",
"t@	c #ACAF62",
"u@	c #8CA06D",
"v@	c #90AF5B",
"w@	c #6F9672",
"x@	c #799D6C",
"y@	c #BAB75D",
"z@	c #6F9474",
"A@	c #91B05A",
"B@	c #92AD61",
"C@	c #92AE61",
"D@	c #9DB15C",
"E@	c #7E9F6B",
"F@	c #AEB162",
"G@	c #7B9E6C",
"H@	c #95B555",
"I@	c #98B15C",
"J@	c #8CB05A",
"K@	c #7EA962",
"L@	c #ACB956",
"M@	c #B5BA57",
"N@	c #82AC5F",
"O@	c #84AD5E",
"P@	c #23363B",
"Q@	c #849F47",
"R@	c #9BB850",
"S@	c #2E3931",
"T@	c #88A348",
"U@	c #A5B953",
"V@	c #8EB258",
"W@	c #B4B957",
"X@	c #9CB74E",
"Y@	c #A9B65A",
"Z@	c #739E6B",
"`@	c #729E6C",
" #	c #78A764",
".#	c #A8B953",
"+#	c #285B5E",
"@#	c #A7A452",
"##	c #74A268",
"$#	c #719D6C",
"%#	c #709D6D",
"&#	c #679175",
"*#	c #769C6D",
"=#	c #83A665",
"-#	c #96B653",
";#	c #6C9870",
">#	c #76A368",
",#	c #689274",
"'#	c #9AA769",
")#	c #749772",
"!#	c #9CB05D",
"~#	c #182735",
"{#	c #BBBA5A",
"]#	c #79A467",
"^#	c #6F9870",
"/#	c #9FB94F",
"(#	c #BAB759",
"_#	c #B3B958",
":#	c #21292F",
"<#	c #88A147",
"[#	c #828E45",
"}#	c #ABB854",
"|#	c #5E713B",
"1#	c #8CB058",
"2#	c #455F42",
"3#	c #99B750",
"4#	c #91B159",
"5#	c #689158",
"6#	c #6F9B6A",
"7#	c #53735C",
"8#	c #769B6C",
"9#	c #779C6D",
"0#	c #709D6C",
"a#	c #5B8168",
"b#	c #6E9372",
"c#	c #87A764",
"d#	c #6D6D41",
"e#	c #B8B65C",
"f#	c #718640",
"g#	c #67693D",
"h#	c #75834B",
"i#	c #89A549",
"j#	c #2F3E36",
"k#	c #93B454",
"l#	c #536D43",
"m#	c #83AC5D",
"n#	c #98B54E",
"o#	c #8DAD59",
"p#	c #6F9471",
"q#	c #303231",
"r#	c #393F32",
"s#	c #373F32",
"t#	c #373D34",
"u#	c #707043",
"v#	c #B8B559",
"w#	c #2B6164",
"x#	c #5A693A",
"y#	c #738B42",
"z#	c #376562",
"A#	c #8FA04A",
"      . + + . @ # $     $ % & * = - @ #     . + + . @ # # ; > , ' ) ! ~ { ] ] # # #   . + ] #   # ^ / , ( _ : < > , ( [ ] } | 1 ",
"    . 2 3 3 2 ' 4 % . . [ : 5 6 7 4 8 9 0 { a b c d ' e e f g h i j k k ~ l m ' n o p q r s t } + m g u v 5 5 w g u c * x y z u ",
"    + 3 A A B C 3 D ~ E F G H I J K g u c L g M u , N 6 6 O P M Q B A R S g u T k U V W X J Y a > Z M M `  . ...+.M b @.#.$.u %.",
"  $ [ &.R A *.=.A -.3 3 A ;.>.,.'.g M M b ).M M g !.s ~.,.{.].M ^.R A /.(._.:.<.[.A -.}.|.1.2.u 3.4.3.M M 5.6.M M u 7.8.9.0.+.a.",
"# b.c.d.e.f.g.h.A A /.i.j.k.l.m.n.M M +.o.].M +.p.q.T r.s.+.M M %.t.A u.v.A A w.x.y.A A z.A.B.%.M ].C.%.%.%.M %.%.C.3.%.M M %.D.",
"] s 6 H E.F.x.G.A A A R z.H.A t.I.J.%.a.K.J.J.t.t.L.M.N.%.M M M M :.t.O.I.K.K.K.P.z.A A z.H.A t.I.J.%.a.K.J.J.t.t.L.t.a.%.M M M ",
"+ Q.I X R.g.g.S.y.A A A A A A A A K.T.z.A U.K.A A z.A K.O.%.J.:.V.V.V.%.J.T.W.W.W.X.A A A A A A A K.T.z.A U.K.A A z.A K.O.%.J.I.",
"] s 6 Y.Z.g.g.`. +|..+.+g.A K.++t.A A A A z.g.S.A A A A K.K.z.A K.K.K.K.@+#+$+$+$+|..+.+g.A K.++t.A A A A z.g.S.A A A A K.K.z.A ",
"# ' %+&+W $+*+=+I X I I -+W.V.M %.:.W.;+>+|.,+'+g.A A S.g.A A A A A S.|.$+X $+$+I X I I -+W.V.M %.:.W.;+>+|.,+'+g.A A S.g.A A A ",
"# n k U )+[.g.`.!+$+~+!+{+]+^+m./+^+(+_+:+x.<+'+x.y.g.'+$+|.`.[+g.G.x.$+$+|.g.`.!+$+~+!+{+]+^+m./+^+(+_+:+x.<+'+x.y.g.'+$+|.`..+",
"# o U A A A A A >+>+A @+}+}+<+K.|+<+1+.+<+`.>+~+|.A #+I $+$+$+I  +[+`.g.g.A A A >+>+A @+}+}+<+K.|+<+1+.+<+`.>+~+|.A #+I $+$+$+I ",
"  + &.B B /.R /.2+R t.3+4+5+6+7+8+9+0+I a+$+X I $+_+$+!+`.>+#+.+`.g.A <+b+c+d+d+b+<+t.3+4+5+6+7+8+9+0+I a+$+X I $+_+$+!+`.>+#+#+",
"  { e+f+Z g+h+Q b i+%.M j+k+l+m+k+k+n+o+#.a+!+!+~+$+X |.g.g.S.A A <+d+p+q+q+r+s+t+u+%.M j+k+l+m+k+k+n+o+#.a+!+!+~+$+X |.g.g.S.A ",
"v+w+3.].M x+y+M M +.M z+5.A+B+C+J.J.D+M z+E+F+S.A ~+I $+G+H+I+J+K+L+M+N+M A+O+j+j+j+M z+5.A+B+C+J.J.D+M z+E+F+S.A ~+I $+G+H+I+P+",
"Q+q.].R+S+]+,.z+z+T+U+#.I ,.V+W+X+K.++I.J.O.H.A y.Y+Z+`+ @.@.@.@+@@@:.O.^+]+,.z+z+T+U+#.I ,.V+W+X+K.++I.J.O.H.A y.Y+Z+`+ @.@.@.@",
"( c T #@g.`..+.+{+$+I I I I I $+!+.+`.>+$@%@&@A A g.K.K.K.K.K.K.K.z.A K.g.`..+.+{+$+I I I I I $+!+.+`.>+$@%@&@A A g.K.K.K.K.K.*@",
". =@! k A S.g.<+~+-@X !+~+$+I I I $+:+=+,.U+;@A A A A A A K.K.L.%.L.K.z.A S.g.<+~+-@X !+~+$+I I I $+:+=+,.U+;@A A A A A A K.K.L.",
">@,@c '@j.G.[+[+#+#+.+g.A #+$+!+.+P.W.)@m.M !@z.A A A A z.T.O.~@:.J.%.L.K.G.[+[+#+#+.+g.A #+$+!+.+P.W.)@m.M !@z.A A A A z.T.O.%.",
"{@]@^@++/@A A A A A A A A S.g.S.(@.@A+.@_@5.:@:.++K.K.F+g.A K.H.A K.++++X.A A A A A A A A S.g.S.(@.@A+.@_@5.:@:.++K.K.F+g.A K.<@",
"j [@}@|@$+#+g.A A A A A A A g.|.{+H+%@G+0+I ,.T+T+1@1@2@$+~+#+>+g.g.g.g.A A A A A A A A A A g.|.{+H+%@G+0+I ,.T+T+1@1@2@$+~+#+>+",
"% j e.3@#+!+x.G.A A A A A y.4@.+.+`.A >+~+$+I $+$+I I I I I I $+*+,+.+4@y.A A A A A A A A y.4@.+.+`.A >+~+$+I $+$+I I I I I I $+",
"5@6@R A A S.g.S.7@b+c+d+A d+c+b+<+A K.++t.~+!+`.`. +~+!+!+#+.+`.g.g.A A A A A A 7@b+c+d+A d+c+b+<+A K.++t.~+!+`.`. +~+!+!+#+.+`.",
"] 3 A -.R A <+8@9@q+0@a@b@c@q+q+d@@+L.M %.e@f@y.A y.A X+X+t.I.@@z.A g.<+<+A <+8@9@q+0@a@b@c@q+q+d@@+L.M %.e@f@y.A y.A X+X+t.I.I.",
"] j 3 D g@h@8+i@j@M j+k@l@B+M M N+m@%.M M M +@z.A H.:.V.%.%.%.n@@+<+6+c@o@b@8+i@j@M j+k@l@B+M M N+m@%.M M M +@z.A H.:.V.%.%.%.J.",
"5@p@q@r@q.s@t@k@u@D+M M j+M M %.%.M M %.%.M %.I.K.<@I.I.I.I.t.v@w@x@0@y@l@z@k+k@u@D+M M j+M M %.%.M M %.%.M %.I.K.<@I.I.I.I.t.A@",
"] &.*.K.J.M %.%.A+M z+T+z+%.J.K.K.n@:@B@C@%.M %.O.H.A A z.t.D@E@k+k@F@%.j+9.%.%.A+M z+T+z+%.J.K.K.n@:@B@C@%.M %.O.H.A A z.t.D@G@",
"+ 3 A A I.%.a.H@I@U+#.I {+P.X.A >+J@K@I =+L@I.++K.z.A t.M@V.j+9.M V.t.K.J.%.a.H@I@U+#.I {+P.X.A >+J@K@I =+L@I.++K.z.A t.M@V.j+9.",
". E 2+h.H.M@@+$+I I I I N@#+>+|.$+I !+!+X O@`.A A z.T.O.t.K.L.V.I.K.A A H.M@@+$+I I I I N@#+>+|.$+I !+!+X O@`.A A z.T.O.t.K.L.%.",
"} P@Q@4@.+J@$+$+~+!+I $+X I X X $+$+`.S.>+#+4@y.A A K.R@S.A z.K.A A y.4@.+J@$+$+~+!+I $+X I X X $+$+`.S.>+#+4@y.A A K.R@S.A z.K.",
"% S@T@g.>+~+$+#+A `.x.`.>+!+$+'+<+x.>+A A A A g.S.A |.$+'+S.A A A A A R@>+~+$+#+A `.x.`.>+!+$+'+<+x.>+A A A A g.S.A |.$+'+S.A A ",
"&.U -.X.++t.U@++t.z.y.A A g.<+g.A S.S.A A A |.$+!+~+$+I $+<+S.A A z.t.O.t.K.U@++t.z.y.A A g.<+g.A S.S.A A A |.$+!+~+$+I $+<+S.A ",
"3 A A K.%.%.%.A+V+-+<+.+#+!+$+!+>+>+#+>+g.|.$+I I I I I I $+!+#+V@W@%.M %.%.%.A+V+-+<+.+#+!+$+!+>+>+#+>+g.|.$+I I I I I I $+!+#+",
"E 3 /.X@%.%.Y@(+~+!+=+X I I I I X X I I Z@`@I $+$+$+I  #I I !+.+`.*@.#%.M %.Y@(+~+!+=+X I I I I X X I I Z@`@I $+$+$+I  #I I !+#+",
". +#g+@#M I.S.g.S.[+_+N@I I I I I ##$#%#&#&#*#=#c+-#9+5+;#>#<+K.I.V.%.M M I.S.g.S.[+_+N@I I I I I ##$#%#&#&#*#=#c+-#9+5+;#>#<+z.",
"- w+u M %.*@K.A A `.#+$+$+I I I ##,#z@'#q+l+l+q+q+)#k+N+l@m+!#k.:.I.J.M %.*@K.A A `.#+$+$+I I I ##,#z@'#q+l+l+q+q+)#k+N+l@m+!#M@",
"~#).M M %.D.{#t.A A A g.<+{+#.]#^#l@N+M M C+B+M M D+M M j+9.:@/#K.A K.I.%.D.{#t.A A A g.<+{+#.]#^#l@N+M M C+B+M M D+M M j+9.:@/#",
"~#c u (#a.++K.X.z.A A A z._#+@.@F@9.M %.%.j+M %.%.M %.%.M M %.D.V.t.A K.t.++K.X.z.A A A z._#+@.@F@9.M %.%.j+M %.%.M %.%.M M %.D.",
"< :#S S #@K.K.K.K.z.A A z.H.A t.I.J.%.a.K.J.J.t.t.L.t.a.%.M M M M :.t.O.I.K.K.K.K.z.A A z.H.A t.I.J.%.a.K.J.J.t.t.L.t.a.%.M M M ",
"~ k R <#[#}#W.W.W.X.A A A A A A A K.T.z.A U.K.A A z.A K.O.%.J.:.V.V.V.%.J.T.W.W.W.X.A A A A A A A K.T.z.A U.K.A A z.A K.O.%.J.I.",
"j U -.R @+#+$+$+$+|..+.+g.A K.++t.A A A A z.g.S.A A A A K.K.z.A K.K.K.K.@+#+$+$+$+|..+.+g.A K.++t.A A A A z.g.S.A A A A K.K.z.A ",
"= &.D |#1#!+$+$+I X I I -+W.V.M %.:.W.;+>+|.,+'+g.A A S.g.A A A A A S.|.$+X $+$+I X I I -+W.V.M %.:.W.;+>+|.,+'+g.A A S.g.A A A ",
"; ~#j U A S.g.`.!+$+~+!+{+]+^+m./+^+(+_+:+x.<+'+x.y.g.'+$+|.`.[+g.G.x.$+$+|.g.`.!+$+~+!+{+]+^+m./+^+(+_+:+x.<+'+x.y.g.'+$+|.`..+",
"; c.2##@3#b+4#A >+>+A @+}+}+<+K.|+<+1+.+<+`.>+~+|.A #+I $+$+$+I  +[+`.g.g.A A A >+>+A @+}+}+<+K.|+<+1+.+<+`.>+~+|.A #+I $+$+$+I ",
": 5#6#7#8#9#3#d+b+<+t.3+4+5+6+7+8+9+0+I a+$+X I $+_+$+!+`.>+#+.+`.g.A <+b+c+d+d+b+<+t.3+4+5+6+7+8+9+0+I a+$+X I $+_+$+!+`.>+#+#+",
"* 6  #0#a#b#c#4+t+u+%.M j+k+l+m+k+k+n+o+#.a+!+!+~+$+X |.g.g.S.A A <+d+p+q+q+r+s+t+u+%.M j+k+l+m+k+k+n+o+#.a+!+!+~+$+X |.g.g.S.A ",
"% s Q.r d#e#O+j+j+j+M z+5.A+B+C+J.J.D+M z+E+F+S.A ~+I $+G+H+I+J+K+L+M+N+M A+O+j+j+j+M z+5.A+B+C+J.J.D+M z+E+F+S.A ~+I $+G+H+I+P+",
"- E f#g#h#]+,.z+z+T+U+#.I ,.V+W+X+K.++I.J.O.H.A y.Y+Z+`+ @.@.@.@+@@@:.O.^+]+,.z+z+T+U+#.I ,.V+W+X+K.++I.J.O.H.A y.Y+Z+`+ @.@.@.@",
"+ 3 A v.i#`..+.+{+$+I I I I I $+!+.+`.>+$@%@&@A A g.K.K.K.K.K.K.K.z.A K.g.`..+.+{+$+I I I I I $+!+.+`.>+$@%@&@A A g.K.K.K.K.K.*@",
"] 3 A A A A A G.~+-@X !+~+$+I I I $+:+=+,.U+;@A A A A A A K.K.L.%.L.K.z.A S.g.<+~+-@X !+~+$+I I I $+:+=+,.U+;@A A A A A A K.K.L.",
"{ j#=.h.A A A S.>+#+.+g.A #+$+!+.+P.W.)@m.M !@z.A A A A z.T.O.~@:.J.%.L.K.G.[+[+#+#+.+g.A #+$+!+.+P.W.)@m.M !@z.A A A A z.T.O.%.",
"~ k R A A A A A A A A A A S.g.S.(@.@A+.@_@5.:@:.++K.K.F+g.A K.H.A K.++++X.A A A A A A A A S.g.S.(@.@A+.@_@5.:@:.++K.K.F+g.A K.<@",
"~ k A R k##+#+>+`..+G.A A A g.|.{+H+%@G+0+I ,.T+T+1@1@2@$+~+#+>+g.g.g.g.A A A A A A A A A A g.|.{+H+%@G+0+I ,.T+T+1@1@2@$+~+#+>+",
"; E F l#m##+!+:+.+.+g.A A y.4@.+.+`.A >+~+$+I $+$+I I I I I I $+*+,+.+4@y.A A A A A A A A y.4@.+.+`.A >+~+$+I $+$+I I I I I I $+",
"# 4 &.n#S.A S.g.}+b+c+d+A d+c+b+<+A K.++t.~+!+`.`. +~+!+!+#+.+`.g.g.A A A A A A 7@b+c+d+A d+c+b+<+A K.++t.~+!+`.`. +~+!+!+#+.+`.",
"$ % &.U -.A R o#p#q+0@a@b@c@q+q+d@@+L.M %.e@f@y.A y.A X+X+t.I.@@z.A g.<+<+A <+8@9@q+0@a@b@c@q+q+d@@+L.M %.e@f@y.A y.A X+X+t.I.I.",
". ' q#r#D 3 s#t#u#+.j+k@l@B+M M N+m@%.M M M +@z.A H.:.V.%.%.%.n@@+<+6+c@o@b@8+i@j@M j+k@l@B+M M N+m@%.M M M +@z.A H.:.V.%.%.%.J.",
"( 2.u u 2.f+g P ].M M M j+M M %.%.M M %.%.M %.I.K.<@I.I.I.I.t.v@w@x@0@y@l@z@k+k@u@D+M M j+M M %.%.M M %.%.M %.I.K.<@I.I.I.I.t.A@",
", u %.%.+.].%.%.%.M z+T+z+%.J.K.K.n@:@B@C@%.M %.O.H.A A z.t.D@E@k+k@F@%.j+9.%.%.A+M z+T+z+%.J.K.K.n@:@B@C@%.M %.O.H.A A z.t.D@G@",
", v#t.K.J.%.a.H@I@U+#.I {+P.X.A >+J@K@I =+L@I.++K.z.A t.M@V.j+9.M V.t.K.J.%.a.H@I@U+#.I {+P.X.A >+J@K@I =+L@I.++K.z.A t.M@V.j+9.",
"w#x#/.A H.M@@+$+I I I I N@#+>+|.$+I !+!+X O@`.A A z.T.O.t.K.L.V.I.K.A A H.M@@+$+I I I I N@#+>+|.$+I !+!+X O@`.A A z.T.O.t.K.L.%.",
"- E y#1#.+J@$+$+~+!+I $+X I X X $+$+`.S.>+#+4@y.A A K.R@S.A z.K.A A y.4@.+J@$+$+~+!+I $+X I X X $+$+`.S.>+#+4@y.A A K.R@S.A z.K.",
"z#A#A g.>+~+$+#+A `.x.`.>+!+$+'+<+x.>+A A A A g.S.A |.$+'+S.A A A A A R@>+~+$+#+A `.x.`.>+!+$+'+<+x.>+A A A A g.S.A |.$+'+S.A A ",
"3 z.A A A t.+@++t.z.y.A A g.<+g.A S.S.A A A |.$+!+~+$+I $+<+S.A A z.t.O.t.K.U@++t.z.y.A A g.<+g.A S.S.A A A |.$+!+~+$+I $+<+S.A ",
"B A A A K.V.M %.5.-+g..+#+!+$+!+>+>+#+>+A >+$+I I I I I I $+!+#+;+!@%.M %.%.%.%.5.-+g..+#+!+$+!+>+>+#+>+A >+$+I I I I I I $+!+#+"};
