/* XPM */
static char * Floor2_xpm[] = {
"128 128 6 1",
" 	c #47ABA9",
".	c #161C2E",
"+	c #79A863",
"@	c #BFBA5B",
"#	c #9BB94E",
"$	c #679175",
"                           .......                          .....  .....                           ....... ...  ......        ..",
"       ......             .........          ......        .............. ....         .....      ........................   ...",
"      ........ ....       ...+++.... ...    ........ ........@@@.....##........ ....  .......    ....@@@...++....@@@..........@@",
"     ...####.........  .....+++++......... ...@@@...........@@@@#...####............. ..+++...   ...@@@@@.++++..@@@@@...++...@@@",
"     ..######...............++++++...@@@.....@@@@@....++++..@@@@@..#####...@@@...###...+++++.......@@@@@@.++++..@@@@@..++++.@@@@",
"     ..######...###.....##...+++++..@@@@@...@@@@@@...++++++.@@@@@..#####..@@@@@.#####..+++++.......@@@@@@@++++@@@@@@@..++++.@@@@",
"     ..#######.######..#####.++++..@@@@@@..@@@@@@@...++++++.@@@@@.######.@@@@@@.#########++...@@@...@@@@@@@++@@@@@@@...+@@@.@@@#",
"     ...######.######..#####@@@++.@@@@@@@..@@@@@@.....+++@@.@@@@@######..@####@++#########+..@@@@@@..@@@@@@+@@@@@@@@..@@@@@@@@##",
"   ......############..####@@@@@@@@@@@@@..@@@@@@..@@...+@@@@@@@@@@#####.#######++##########.@@@@@@@@.@@@@@@@@@@@@@@..@@@@@@@@@#@",
"  ........++##########..##@@##@@@@@@@@@@@@@@@@@@@@@@@...@@@@@@@@@@@#############++########@@##@@@@@@@@@@@@@@@@@@@@@@@@@@@@@@@@@@",
" ...+++...+++#############@####@@@@@@@@###@@@@@##@@@@##@@@@@@@@@@@@###@@##################@####@@@@@@@@###@@@@@##@@@@##@@@@@@@@@",
" ..++++++.+++++####################@@@#####@@######@####@@@@@@@@@@@##@@@@@#########################@@@#####@@######@####@@@@@@@@",
" ..++++++###########################@@#####@############@@@@@@@@@@@@@@@@@@@@@@@@@@@#################@@#####@############@@@@@@@@",
" ..+++++###################################@############@@@@@###@@@@@@@@@##################################@############@@@@@###",
" ..+++++#########+##########################################################++++++##############################################",
" ...+++.########+++#++++######@@@#########################################+++++++++#++++######@@@###############################",
"  .......++++++++++++++++###@@@@@@##########+++#########################+++++++++++++++++###@@@@@@##########+++#################",
"   ......++++++++++++++++@@@@@@@@@@@@@+++##+++++#######################++++++++++++++++++@@@@@@@@@@@@@+++##+++++################",
"  ...###..+#####++++++++++++@@@@@@@@@+++++++##+++######+++###########++++++#####++++++++++++@@@@@@@@@+++++++##+++######+++######",
"  ..#############+++###+++++++@@@+++++##+++####+++####+++++###++###+++++++#######+++###+++++++@@@+++++##+++####+++####+++++###++",
"  ..#############++##################################++++++++++++################++##################################+++++++++++",
"  ..##################################++#####++++####+++++++++++++++##################################++#####++++####+++++++++++",
"   ..##################$$$$$$###$$$#+++++#++++++++##++++###+++++#######################$$$$$$###$$$#+++++#++++++++##++++###+++++",
"   ........####...###@@@@$$$$$#$$$$$+++++++++++++++++++#################$$$$$##$$$###@@@@$$$$$#$$$$$+++++++++++++++++++#########",
"    ...............#@@@@@@@$$$$$$@@$$++++++++++++++++++################$$$$$$$$$$$$#@@@@@@@$$$$$$@@$$++++++++++++++++++#########",
"   .....@@....@@@@.@@@@@@@@@$$$$@@@@$$@@+++##++###++++###############$$$@@@@$$$@@$$@@@@@@@@@$$$$@@@@$$@@+++##++###++++##########",
"  ...@@@@@@@.@@@@@@@@@@@@@@@@$$@@@@@@@@@@++########++++++++++#####$$$$@@@@@@@@@@@@@@@@@@@@@@@$$@@@@@@@@@@++########++++++++++###",
" ..@@@@@@@@@@@@@@@@@@@@+++@@@@$@@##@@@@@@@@########+++++++++++++@$$@@@@@@@@@@@@@@@@@@@@+++@@@@$@@##@@@@@@@@########+++++++++++++",
"..@@@@@@@@+++@@@@@@@@@+++++@@@@@####@@@@@@@@@######+++++@@@@@@@@@@@@@@@@@@+++@@@@@@@@@+++++@@@@@####@@@@@@@@@######+++++@@@@@@@@",
"..@@@@..+++++++@@+++++++++++++###########@@@######++@@@@@@@@@@@@######@@+++++++@@+++++++++++++###########@@@######++@@@@@@@@@@@@",
"...@@..#####+++++++++++++++++++++###########################################+++++++++++++++++++++###############################",
"......##########++++++++++++++++++++###++++++###################################++++++++++++++++++++###++++++###################",
" .....##############+++++++++++++++++++++++++##################@@@@#################+++++++++++++++++++++++++##################@",
"   ....#########+++++++###+++++++++++++++@@@+#################@@@@@@############+++++++###+++++++++++++++@@@+#################@@",
"  ......###+++++++++++#####+++++++######@@@@@#############@@@@@@@@@@@@@####+++++++++++#####+++++++######@@@@@#############@@@@@@",
"  ...@@@###################++++#####@@##@@@@@@##############@@@@###@@@@@###################++++#####@@##@@@@@@##############@@@@",
" ..#@@@@@#########################@@@@@@@@@@@@################@#####@@@@@#########################@@@@@@@@@@@@################@#",
"..###############################@@@@@@@@+++@@@@@@###############################################@@@@@@@@+++@@@@@@##############",
"..###.#+++######################+++++++++++++@@@@@@@@@@+++######################################+++++++++++++@@@@@@@@@@+++######",
"..##..++++++###################+++++##+++++++++++++++++++++++++################################+++++##+++++++++++++++++++++++++#",
"......+++++++###############++++++#####+++++++++++++++++++++++++++++++++####################++++++#####+++++++++++++++++++++++++",
" ....######++++###########################++++++++++++++++++++++++++######################################++++++++++++++++++++++",
"  ..#######################################+++####++++++++++++#############################################+++####++++++++++++##",
"  .###############$$$$$####$$$$$######@@@##++######+###++#########################$$$$$####$$$$$######@@@##++######+###++#######",
" ..#############$$$$$$$$##$$$$$$$####@@@@@#++###################################$$$$$$$$##$$$$$$$####@@@@@#++###################",
" ..############$$$@@@$$$$$$$@@@@$$##@@@@@@@@++#############@@@@@###############$$$@@@$$$$$$$@@@@$$##@@@@@@@@++#############@@@@@",
" ...###...##$$$$$@@@@@@$$$$@@@@@@@$#@@@@@@@@@#########@@@@@@@@@@#####$$$$$##$$$$$@@@@@@$$$$@@@@@@@$#@@@@@@@@@#########@@@@@@@@@@",
" ..........$$$$$$@@@@@@@@$@@@@@@@@@@@@@@@@@@@######@@@@@@@@@@@@#####$$$$$$$$$$$$$@@@@@@@@$@@@@@@@@@@@@@@@@@@@######@@@@@@@@@@@@#",
"  ......@@..$@@$$$@@@@@@@@@@@@@@@@@@@@@@@@@@@@@####@@@@@@@@@@###$$#$$$@@$$$$$@@$$$@@@@@@@@@@@@@@@@@@@@@@@@@@@@@####@@@@@@@@@@###",
"  ....@@@@@@@@@@@$@@@@@@@@@@@@@@@@@@@@@@@@@@@@@################$$$$$$@@@@$$$@@@@@$@@@@@@@@@@@@@@@@@@@@@@@@@@@@@################$",
" ...####@@@@@@@@@@@@@@@@@@@@@@####@@@@@++@@@@@@@@@#############$$@@$$@@@@@@@@@@@@@@@@@@@@@@@@@####@@@@@++@@@@@@@@@#############$",
" ..######@@@@@@@@@@@@++++@@@@######@@@++++@@@@@@@@@########@@$$$@@@@@@@@@@@@@@@@@@@@@++++@@@@######@@@++++@@@@@@@@@########@@$$$",
" ..######@@@@####@@@++++++##@#######++++++@@@@@@#########@@@@@@@@@@@@###@@@@@####@@@++++++##@#######++++++@@@@@@#########@@@@@@@",
" ..######@@@###+++++++++++#######+++++++++#############@@@@@@@@@@@@@#####@@@###+++++++++++#######+++++++++#############@@@@@@@@@",
" ...#####@@@##+++++++++++#######+++++++++++###########@@@###@@@@@@#######@@@##+++++++++++#######+++++++++++###########@@@###@@@@",
"  ....#####@##+++++++++++++++##++++++##+++++########@@@@#####@@@###########@##+++++++++++++++##++++++##+++++########@@@@#####@@@",
"  ...#######++++++++++++++++++++++++#####+++++##############################++++++++++++++++++++++++#####+++++##################",
"  ..##++++++++++###+++++++++++++++++##################################++++++++++###+++++++++++++++++############################",
" ...#####++++++#####++###+++++++##++##################+++################++++++#####++###+++++++##++##################+++#######",
".....#######+++#####+######++++####++################+++++##################+++#####+######++++####++################+++++######",
"..############################################+++###++++++############@@######################################+++###++++++######",
".######@@@@##@@@@############################+++++++++++++###########@@@@####@@@@############################+++++++++++++######",
".#######@@@@@@@@@@@########++++#############+++++++++++++++++######@@@@@@@@@@@@@@@@########++++#############+++++++++++++++++###",
".#######@@@@@@@@++++##+++++++++++##++++####+++++++++++++++++++++++@@@@@@@@@@@@@@++++##+++++++++++##++++####+++++++++++++++++++++",
"..######@@@@@@@+++++++++++++++++++++++++++++++++++++++++++++++++#####@@@@@@@@@@+++++++++++++++++++++++++++++++++++++++++++++++++",
".....###@@@@#+++###+++++++++++++++++++++$$$$+++++++++++++++++#########@@@@@@#+++###+++++++++++++++++++++$$$$+++++++++++++++++###",
" ......@@@@############++++++++++++++++$$$$$$########$$$$+++######@@@@@@@@@############++++++++++++++++$$$$$$########$$$$+++####",
"   ...@@@@@#######+++++++++++++++++$$$+$$$$$$$$$$$##$$$$$$$+####@@@@@@@@@@@#######+++++++++++++++++$$$+$$$$$$$$$$$##$$$$$$$+####",
"  ..@@@@@@##########++++++++++++++$$$$$$$$$$$$$$$$$$$@@@$$$$###@@@@@@@@@@@##########++++++++++++++$$$$$$$$$$$$$$$$$$$@@@$$$$###@",
" ..@@@@@@@############+++++++++++$$$$$@@@@$$$$@@@@$$@@@@@$$$$@@@#####@@@@@############+++++++++++$$$$$@@@@$$$$@@@@$$@@@@@$$$$@@@",
"...@@@@@@@@#@@############+++++++$$$@@@@@@@$$@@@@@@@@@@@@@@@@@########@@@@@#@@############+++++++$$$@@@@@@@$$@@@@@@@@@@@@@@@@@##",
"...@@@@@@@@@@@@###########+++++$$$$@@@@@@@@$@@@@@@@@@@@@@@@@@@##########@@@@@@@###########+++++$$$$@@@@@@@@$@@@@@@@@@@@@@@@@@@##",
"...@@@@@#@@@###@###########@@@@@@$@@@@@@@@@@@@@@@@@@@@@@@@@@@@#@@@#######@@@###@###########@@@@@@$@@@@@@@@@@@@@@@@@@@@@@@@@@@@#@",
"....@@@@##################@@##@@@@@@@@@@@@@@@@@@@@@@@@@@@@@@@@@@@@@#######################@@##@@@@@@@@@@@@@@@@@@@@@@@@@@@@@@@@@@",
" .......##################@####@@@@@@@@###@@@@@##@@@@##@@@@@@@@@@@@###@@##################@####@@@@@@@@###@@@@@##@@@@##@@@@@@@@@",
" ........##########################@@@#####@@######@####@@@@@@@@@@@##@@@@@#########################@@@#####@@######@####@@@@@@@@",
"...####...@@@@@@@@@#################@@#####@############@@@@@@@@@@@@@@@@@@@@@@@@@@@#################@@#####@############@@@@@@@@",
"..######@##################################@############@@@@@###@@@@@@@@@##################################@############@@@@@###",
"..##########++++++##########################################################++++++##############################################",
"..########+++++++++#++++######@@@#########################################+++++++++#++++######@@@###############################",
"...##...+++++++++++++++++###@@@@@@##########+++#########################+++++++++++++++++###@@@@@@##########+++#################",
".......####++++++++++++++@@@@@@@@@@@@@+++##+++++#######################++++++++++++++++++@@@@@@@@@@@@@+++##+++++################",
" .....##########++++++++++++@@@@@@@@@+++++++##+++######+++###########++++++#####++++++++++++@@@@@@@@@+++++++##+++######+++######",
"  ....###########+++###+++++++@@@+++++##+++####+++####+++++###++###+++++++#######+++###+++++++@@@+++++##+++####+++####+++++###++",
"  ....###########++##################################++++++++++++################++##################################+++++++++++",
" ...+..###$$$#########################++#####++++####+++++++++++++++##################################++#####++++####+++++++++++",
"...++$..#$$$###########$$$$$$###$$$#+++++#++++++++##++++###+++++#######################$$$$$$###$$$#+++++#++++++++##++++###+++++",
"..+++$$$$$$####$$$###@@@@$$$$$#$$$$$+++++++++++++++++++#################$$$$$##$$$###@@@@$$$$$#$$$$$+++++++++++++++++++#########",
"..++++$$$$$$##$$$$$#@@@@@@@$$$$$$@@$$++++++++++++++++++################$$$$$$$$$$$$#@@@@@@@$$$$$$@@$$++++++++++++++++++#########",
"..++++++$.$$$$$@@$$@@@@@@@@@$$$$@@@@$$@@+++##++###++++###############$$$@@@@$$$@@$$@@@@@@@@@$$$$@@@@$$@@+++##++###++++##########",
"...+++++..@@@@@@@@@@@@@@@@@@@$$@@@@@@@@@@++########++++++++++#####$$$$@@@@@@@@@@@@@@@@@@@@@@@$$@@@@@@@@@@++########++++++++++###",
" ........@@@@@@@@@@@@@@+++@@@@$@@##@@@@@@@@########+++++++++++++@$$@@@@@@@@@@@@@@@@@@@@+++@@@@$@@##@@@@@@@@########+++++++++++++",
"  .......@+++@@@@@@@@@+++++@@@@@####@@@@@@@@@######+++++@@@@@@@@@@@@@@@@@@+++@@@@@@@@@+++++@@@@@####@@@@@@@@@######+++++@@@@@@@@",
" ...##@..++++++@@+++++++++++++###########@@@######++@@@@@@@@@@@@######@@+++++++@@+++++++++++++###########@@@######++@@@@@@@@@@@@",
" ..#####.###+++++++++++++++++++++###########################################+++++++++++++++++++++###############################",
" ..#############++++++++++++++++++++###++++++###################################++++++++++++++++++++###++++++###################",
" ..#################+++++++++++++++++++++++++##################@@@@#################+++++++++++++++++++++++++##################@",
" ..############++++++++###+++++++++++++++@@@+#################@@@@@@############+++++++###+++++++++++++++@@@+#################@@",
"  ..#############+++++#####+++++++######@@@@@#############@@@@@@@@@@@@@####+++++++++++#####+++++++######@@@@@#############@@@@@@",
" .....#####################++++#####@@##@@@@@@##############@@@@###@@@@@###################++++#####@@##@@@@@@##############@@@@",
"...###############################@@@@@@@@@@@@################@#####@@@@@#########################@@@@@@@@@@@@################@#",
"..###############################@@@@@@@@+++@@@@@@###############################################@@@@@@@@+++@@@@@@##############",
"..##############################+++++++++++++@@@@@@@@@@+++######################################+++++++++++++@@@@@@@@@@+++######",
"...######++++++###+++##########+++++##+++++++++++++++++++++++++################################+++++##+++++++++++++++++++++++++#",
" ...##..++++++++++++########++++++#####+++++++++++++++++++++++++++++++++####################++++++#####+++++++++++++++++++++++++",
"  .....++####+++##########################++++++++++++++++++++++++++######################################++++++++++++++++++++++",
"  ....#####################################+++####++++++++++++#############################################+++####++++++++++++##",
"  ...#############$$$$$####$$$$$######@@@##++######+###++#########################$$$$$####$$$$$######@@@##++######+###++#######",
"  ...###########$$$$$$$$##$$$$$$$####@@@@@#++###################################$$$$$$$$##$$$$$$$####@@@@@#++###################",
"   ...#########$$$@@@$$$$$$$@@@@$$##@@@@@@@@++#############@@@@@###############$$$@@@$$$$$$$@@@@$$##@@@@@@@@++#############@@@@@",
"   ......###.....@@@@@@$$$$@@@@@@@$#@@@@@@@@@#########@@@@@@@@@@#####$$$$$##$$$$$@@@@@@$$$$@@@@@@@$#@@@@@@@@@#########@@@@@@@@@@",
" .................@@@@@@@$@@@@@@@@@@@@@@@@@@@######@@@@@@@@@@@@#####$$$$$$$$$$$$$@@@@@@@@$@@@@@@@@@@@@@@@@@@@######@@@@@@@@@@@@#",
"....@@@@.....@@@@@@@@@@@@@@@@@@@@@@@@@@@@@@@@@@####@@@@@@@@@@###$$#$$$@@$$$$$@@$$$@@@@@@@@@@@@@@@@@@@@@@@@@@@@@####@@@@@@@@@@###",
"...@@@@@@...@@@@@@@@@@@@@@@@@@@@@@@@@@@@@@@@@@@################$$$$$$@@@@$$$@@@@@$@@@@@@@@@@@@@@@@@@@@@@@@@@@@@################$",
"..@@@@@@@@@@@@@@@@@@@@@@@@@@@@####@@@@@++@@@@@@@@@#############$$@@$$@@@@@@@@@@@@@@@@@@@@@@@@@####@@@@@++@@@@@@@@@#############$",
"..@@@@@@@@@@@@@@@@@@@++++@@@@######@@@++++@@@@@@@@@########@@$$$@@@@@@@@@@@@@@@@@@@@@++++@@@@######@@@++++@@@@@@@@@########@@$$$",
"..@@@###@@@@@####@@@++++++##@#######++++++@@@@@@#########@@@@@@@@@@@@###@@@@@####@@@++++++##@#######++++++@@@@@@#########@@@@@@@",
"..@@#####@@@###+++++++++++#######+++++++++#############@@@@@@@@@@@@@#####@@@###+++++++++++#######+++++++++#############@@@@@@@@@",
"...######@@@##+++++++++++#######+++++++++++###########@@@###@@@@@@#######@@@##+++++++++++#######+++++++++++###########@@@###@@@@",
" ....######@##+++++++++++++++##++++++##+++++########@@@@#####@@@###########@##+++++++++++++++##++++++##+++++########@@@@#####@@@",
"  ....######++++++++++++++++++++++++#####+++++##############################++++++++++++++++++++++++#####+++++##################",
" ...##++++++++++###+++++++++++++++++##################################++++++++++###+++++++++++++++++############################",
" ..######++++++#####++###+++++++##++##################+++################++++++#####++###+++++++##++##################+++#######",
"..@#########+++#####+######++++####++################+++++##################+++#####+######++++####++################+++++######",
".#############################################+++###++++++############@@######################################+++###++++++######",
".##########@@@@@@############################+++++++++++++###########@@@@####@@@@############################+++++++++++++######",
".#########@@@@@@@@@########++++#############+++++++++++++++++######@@@@@@@@@@@@@@@@########++++#############+++++++++++++++++###",
".#########@@@@@@++++##+++++++++++##++++####+++++++++++++++++++++++@@@@@@@@@@@@@@++++##+++++++++++##++++####+++++++++++++++++++++"};
