/* XPM */
static char * Floor8_xpm[] = {
"128 128 6 1",
" 	c #79A863",
".	c #9BB94E",
"+	c #161C2E",
"@	c #47ABA9",
"#	c #679175",
"$	c #BFBA5B",
"        ....................      .....                                 ....................      .....                    ++++@",
"    ......................................                          ......................................             +++++++@@",
"...........................................   ....            .............................................   ....      +++++@@@",
"..................#####....#####......$$$..  ...... ...  .........................#####....#####......$$$..  ...... ...  +++@@@@",
"................########..#######....$$$$$.  ...................................########..#######....$$$$$.  .............++@@@@",
"...............###$$$#######$$$$##..$$$$$$$$  .............$$$$$...............###$$$#######$$$$##..$$$$$$$$  ............++@@@@",
".....#####..#####$$$$$$####$$$$$$$#.$$$$$$$$$.........$$$$$$$$$$.....#####..#####$$$$$$####$$$$$$$#.$$$$$$$$$.........$$$$+++++@",
"....#############$$$$$$$$#$$$$$$$$$$$$$$$$$$$......$$$$$$$$$$$$.....#############$$$$$$$$#$$$$$$$$$$$$$$$$$$$......$$$$$$+++$+++",
"##.###$$#####$$###$$$$$$$$$$$$$$$$$$$$$$$$$$$$$....$$$$$$$$$$...##.###$$#####$$###$$$$$$$$$$$$$$$$$$$$$$$$$$$$$.......$$$++$$$++",
"#####$$$$###$$$$$#$$$$$$$$$$$$$$$$$$$$$$$$$$$$$................######$$$$###$$$$$#$$$$$$$$$$$$$$$$$$$$$$$$$$$$$..........+$$$$++",
"#$$##$$$$$$$$$$$$$$$$$$$$$$$$$....$$$$$  $$$$$$$$$.............##$$##$$$$$$$$$$$$$$$$$$$$$$$$$....$$$$$  $$$$$$$$$.......$$$$+++",
"$$$$$$$$$$$$$$$$$$$$$    $$$$......$$$    $$$$$$$$$........$$###$$$$$$$$$$$$$$$$$$$$$    $$$$......$$$    $$$$$$$$$.......$$+++@",
"$$$$$...$$$$$....$$$      ..$.......      $$$$$$.........$$$$$$$$$$$$...$$$$$....$$$      ..$.......      $$$$$$.........$$++++@",
"$$$$.....$$$...           .......         .............$$$$$$$$$$$$$.....$$$...           .......         ..........$$$$$$++++++",
"$$.......$$$..           .......           ...........$$$...$$$$$$.......$$$..           .......           ..........$$$$$+..+++",
"...........$..               ..      ..     ........$$$$.....$$$...........$..               ..      ..     ...........$$.....++",
"............                        .....     ..............................                        .....     ........   .....++",
"......          ...                 ..................................          ...                 .................+++  ....++",
".........      .....  ...       ..  ..................   ................      .....  ...       ..  ..................+++ ....++",
"............   ..... ......    ....  ................     ..................   ..... ......    ....  ................  +++...+++",
"......$$......................................   ...      ............$$......................................   ...   ++++++++@",
".....$$$$....$$$$............................             ...........$$$$....$$$$............................          +++++++@@",
"...$$$$$$$$$$$$$$$$........    .............                 ......$$$$$$$$$$$$$$$$........    .............           ++   +++@",
"  $$$$$$$$$$$$$$    ..           ..    ....                       $$$$$$$$$$$$$$    ..           ..    ....           ++   ...++",
".....$$$$$$$$$$                                                 .....$$$$$$$$$$                                           .....+",
"......$$$$$$.   ...                     ####                 .........$$$$$$.   ...                     ####             ......+",
"..$$$$$$$$$............                ######........####   ......$$$$$$$$$............                ######........    ......+",
"$$$$$$$$$$$.......                 ### ###########..####### ....$$$$$$$$$$$.......                 ### ##########...+++++ ....++",
"$$$$$$$$$$..........              ###################$$$####...$$$$$$$$$$$..........              ###############+++++++++....++",
".....$$$$$............           #####$$$$####$$$$##$$$$$####$$$.....$$$$$............           #####$$$$####$$$$++$$$++++..++@",
"......$$$$$.$$............       ###$$$$$$$##$$$$$$$$$$$$$$$$$........$$$$$.$$............       ###$$$$$$$##$$$$$$$$$$$+++++++@",
"........$$$$$$$...........     ####$$$$$$$$#$$$$$$$$$$$$$$$$$$..........$$$$$$$...........     ####$$$$$$$$#$$$$$$$$$$$$$+++++@@",
"$$.......$$$...$...........$$$$$$#$$$$$$$$$$$$$$$$$$$$$$$$$$$$.$$$.......$$$...$...........$$$$$$#$$$$$$$$$$$$$$$$$$$$$$$++++++@",
"$$$.......................$$..$$$$$$$$$$$$$$$$$$$$$$$$$$$$$$$$$$$$$.......................$$..$$$$$$$$$$$$$$$$$$$$$$$$$$+++$$+++",
"$$$...$$..................$....$$$$$$$$...$$$$$..$$$$..$$$$$$$$$$$$...$$..................$....$$$$$$$$...$$$$$..$$$$..++$$$$$++",
"$$$..$$$$$.........................$$$.....$$......$....$$$$$$$$$$$..$$$$$.........................$$$.....$$......$....$$$$$$++",
"$$$$$$$$$$$$$$$$$$$.................$$.....$............$$$$$$$$$$$$$$$$$$$$$$$$$$$.................$$.....$..............$$$$++",
"$$$$$$$$$..................................$............$$$$$...$$$$$$$$$..................................$...............$$$++",
"............      ..........................................................      .........................................$$+++",
"..........         .    ......$$$.........................................         .    ......$$$..........................$++++",
"........                 ...$$$$$$..........   .........................                 ...$$$$$$..........   ........++++++++@",
".......                  $$$$$$$$$$$$$   ..     .......................                  $$$$$$$$$$$$$   ..     .........++++@@@",
".....      .....            $$$$$$$$$       ..   ......   ...........      .....            $$$$$$$$$       ..   ......   +++@@@",
"...       .......   ...       $$$     ..   ....   ....     ...  ...       .......   ...       $$$     ..   ....     ..     +++@@",
" ................  ..................................            ................  ...............................  .      +++@@",
"    ..................................  .....    ....               ..................................  .....    ....     ++++@@",
".......................######...###.     .        ..    ...     .......................######...###.     .        ..     +++++@@",
"........#####..###...$$$$#####.#####                   .................#####..###...$$$$#####.#####                   .++..+++@",
".......############.$$$$$$$######$$##                  ................############.$$$$$$$######$$##                  ......+++",
".....###$$$$###$$##$$$$$$$$$####$$$$##$$   ..  ...    ...............###$$$$###$$##$$$$$$$$$####$$$$##$$   ..  ...    ........++",
"..####$$$$$$$$$$$$$$$$$$$$$$$##$$$$$$$$$$  ........          .....####$$$$$$$$$$$$$$$$$$$$$$$##$$$$$$$$$$  ........      .....++",
"$##$$$$$$$$$$$$$$$$$$$$   $$$$#$$..$$$$$$$$........             $##$$$$$$$$$$$$$$$$$$$$   $$$$#$$..$$$$$$$$........       ...+++",
"$$$$$$$$$$   $$$$$$$$$     $$$$$....$$$$$$$$$......     $$$$$$$$$$$$$$$$$$   $$$$$$$$$     $$$$$....$$$$$$$$$......     $$+++++@",
"......$$       $$             ...........$$$......  $$$$$$$$$$$$......$$       $$             ...........$$$......  $$$$$$$$++@@",
"............                     ...........................................                     .........................$$$++@",
"................                    ...      ...................................                    ...      ................++@",
"$$$.................                         ..................$$$$.................                         ................++@",
"$$$$............       ...               $$$ .................$$$$$$............       ...               $$$ ..........+.....++@",
"$$$$$$$....           .....       ......$$$$$.............$$$$$$$$$$$$$....           .....       ......$$$$$..........++...+++@",
"...$$$$$...................    .....$$..$$$$$$..............$$$$...$$$$$...................    .....$$..$$$$$$.........+++++++@@",
"....$$$$$.........................$$$$$$$$$$$$................$.....$$$$$.........................$$$$$$$$$$$$.........++++++++@",
".................................$$$$$$$$   $$$$$$...............................................$$$$$$$$   $$$$$$....++     +++",
"................................             $$$$$$$$$$   ......................................             $$$$$$$$$+    ...++",
"...............................     ..                         ................................     ..                    ....++",
"        ....................      .....                                 ....................      .....                   ....++",
"    ......................................                          ......................................              ++...+++",
"...........................................   ....            .............................................   ....       ++++++@",
"..................#####....#####......$$$..  ...... ...  .........................#####....#####......$$$..  ...... ...  .++++@@",
"................########..#######....$$$$$.  ...................................########..#######....$$$$$.  .............++++@@",
"...............###$$$#######$$$$##..$$$$$$$$  .............$$$$$...............###$$$#######$$$$##..$$$$$$$$  ............+++++@",
".....#####..#####$$$$$$####$$$$$$$#.$$$$$$$$$.........$$$$$$$$$$.....#####..#####$$$$$$####$$$$$$$#.$$$$$$$$$..........$$+++++++",
"....#############$$$$$$$$#$$$$$$$$$$$$$$$$$$$......$$$$$$$$$$$$.....#############$$$$$$$$#$$$$$$$$$$$$$$$$$$$.........$$+++$$+++",
"##.###$$#####$$###$$$$$$$$$$$$$$$$$$$$$$$$$$$$$....$$$$$$$$$$...##.###$$#####$$###$$$$$$$$$$$$$$$$$$$$$$$$$$$$$....$$$$$$$$$$$++",
"#####$$$$###$$$$$#$$$$$$$$$$$$$$$$$$$$$$$$$$$$$................######$$$$###$$$$$#$$$$$$$$$$$$$$$$$$$$$$$$$$$$$..........$$$$$++",
"#$$##$$$$$$$$$$$$$$$$$$$$$$$$$....$$$$$  $$$$$$$$$.............##$$##$$$$$$$$$$$$$$$$$$$$$$$$$....$$$$$  $$$$$$$$$..........$$++",
"$$$$$$$$$$$$$$$$$$$$$    $$$$......$$$    $$$$$$$$$........$$###$$$$$$$$$$$$$$$$$$$$$    $$$$......$$$    $$$$$$$$$.........$+++",
"$$$$$...$$$$$....$$$      ..$.......      $$$$$$.........$$$$$$$$$$$$...$$$$$....$$$      ..$.......      $$$$$$...........++++@",
"$$$$.....$$$...           .......         .............$$$$$$$$$$$$$.....$$$...           .......         .............$$++++++@",
"$$.......$$$..           .......           ...........$$$...$$$$$$.......$$$..           .......           ...........$$++..++++",
"...........$..               ..      ..     ........$$$$.....$$$...........$..               ..      ..     ........$$$$.....+++",
"............                        .....     ..............................                        .....     ...............+++",
"......          ...                 ..................................          ...                 .........................+++",
".........      .....  ...       ..  ..................   ................      .....  ...       ..  ..................   ....++@",
"............   ..... ......    ....  ................     ..................   ..... ......    ....  ................     ..++@@",
"......$$......................................   ...      ............$$......................................   ...      +++@@@",
".....$$$$....$$$$............................             ...........$$$$....$$$$............................            ++++++@",
"...$$$$$$$$$$$$$$$$........    .............                 ......$$$$$$$$$$$$$$$$........    .............                  ++",
"  $$$$$$$$$$$$$$    ..           ..    ....                       $$$$$$$$$$$$$$    ..           ..    ....          ......    +",
".....$$$$$$$$$$                                                 .....$$$$$$$$$$                                      ..........+",
"......$$$$$$.   ...                     ####                 .........$$$$$$.   ...                     ####            .......+",
"..$$$$$$$$$............                ######........####   ......$$$$$$$$$............                ######  +++++     ......+",
"$$$$$$$$$$$.......                 ### ###########..####### ....$$$$$$$$$$$.......                 ### ###### +++++++ ++++....++",
"$$$$$$$$$$..........              ###################$$$####...$$$$$$$$$$$..........              ###########+++$$+++++++++..+++",
".....$$$$$............           #####$$$$####$$$$##$$$$$####$$$.....$$$$$............           #####$$$$###$$$$$$$++$$$+++++++",
"......$$$$$.$$............       ###$$$$$$$##$$$$$$$$$$$$$$$$$........$$$$$.$$............       ###$$$$$$$##$$$$$$$$$$$$$+++++@",
"........$$$$$$$...........     ####$$$$$$$$#$$$$$$$$$$$$$$$$$$..........$$$$$$$...........     ####$$$$$$$$#$$$$$$$$$$$$$$$+++@@",
"$$.......$$$...$...........$$$$$$#$$$$$$$$$$$$$$$$$$$$$$$$$$$$.$$$.......$$$...$...........$$$$$$#$$$$$$$$$$$$$$$$$$$$$$$$++++@@",
"$$$.......................$$..$$$$$$$$$$$$$$$$$$$$$$$$$$$$$$$$$$$$$.......................$$..$$$$$$$$$$$$$$$$$$$$$$$$$$$$$$+++@",
"$$$...$$..................$....$$$$$$$$...$$$$$..$$$$..$$$$$$$$$$$$...$$..................$....$$$$$$$$...$$$$$..$$$$....$$$$++@",
"$$$..$$$$$.........................$$$.....$$......$....$$$$$$$$$$$..$$$$$.........................$$$.....$$......$......$$$++@",
"$$$$$$$$$$$$$$$$$$$.................$$.....$............$$$$$$$$$$$$$$$$$$$$$$$$$$$.................$$.....$..............$$$++@",
"$$$$$$$$$..................................$............$$$$$...$$$$$$$$$..................................$..............$$+++@",
"............      ..........................................................      ........................................++++@@",
"..........         .    ......$$$.........................................         .    ......$$$........................+++++@@",
"........                 ...$$$$$$..........   .........................                 ...$$$$$$..........   ...........+++++@",
".......                  $$$$$$$$$$$$$   ..     .......................                  $$$$$$$$$$$$$   ..     ............+++@",
".....      .....            $$$$$$$$$       ..   ......   ...........      .....            $$$$$$$$$       ..   ...... .....++@",
"...       .......   ...       $$$     ..   ....   ....     ...  ...       .......   ...       $$$     ..   ....   ....  .....++@",
" ................  ..................................            ................  ..................................    ....+@@",
"    ..................................  .....    ....               ..................................  .....    ....       ++@@",
".......................######...###.     .        ..    ...     .......................######...###.     .        ..    ...++++@",
"........#####..###...$$$$#####.#####                   .................#####..###...$$$$#####.#####                   ...++++++",
".......############.$$$$$$$######$$##                  ................############.$$$$$$$######$$##                  ...++  ++",
".....###$$$$###$$##$$$$$$$$$####$$$$##$$   ..  ...    ...............###$$$$###$$##$$$$$$$$$####$$$$##$$   ..  ...    ....+   ++",
"..####$$$$$$$$$$$$$$$$$$$$$$$##$$$$$$$$$$  ........          .....####$$$$$$$$$$$$$$$$$$$$$$$##$$$$$$$$$$  ........           ++",
"$##$$$$$$$$$$$$$$$$$$$$   $$$$#$$..$$$$$$$$........             $##$$$$$$$$$$$$$$$$$$$$   $$$$#$$..$$$$$$$$........          ++@",
"$$$$$$$$$$   $$$$$$$$$     $$$$$....$$$$$$$$$......     $$$$$$$$$$$$$$$$$$   $$$$$$$$$     $$$$$....$$$$$$$$$......        +++@@",
"......$$       $$             ...........$$$......  $$$$$$$$$$$$......$$       $$             ...........$$$......  ... ++++++@@",
"............                     ...........................................                     ........................++++@@@",
"................                    ...      ...................................                    ...      .............+++++@",
"$$$.................                         ..................$$$$.................                         .............++++++",
"$$$$............       ...               $$$ .................$$$$$$............       ...               $$$ ............++..+++",
"$$$$$$$....           .....       ......$$$$$.............$$$$$$$$$$$$$....           .....       ......$$$$$...........++....++",
"...$$$$$...................    .....$$..$$$$$$..............$$$$...$$$$$...................    .....$$..$$$$$$................++",
"....$$$$$.........................$$$$$$$$$$$$................$.....$$$$$.........................$$$$$$$$$$$$...............++@",
".................................$$$$$$$$   $$$$$$...............................................$$$$$$$$   $$$$$$.........+++@@",
"................................             $$$$$$$$$$   ......................................             $$$$$$$$$$ +++++@@@",
"...............................     ..                         ................................     ..                   +++@@@@"};
