/* XPM */
static char * Player1_xpm[] = {
"64 64 472 2",
"  	c None",
". 	c #1B303F",
"+ 	c #161D2F",
"@ 	c #161C2E",
"# 	c #182435",
"$ 	c #367384",
"% 	c #377685",
"& 	c #346768",
"* 	c #428481",
"= 	c #41827F",
"- 	c #1F3840",
"; 	c #1D313B",
"> 	c #1D303B",
", 	c #161D2E",
"' 	c #254C5B",
") 	c #397A89",
"! 	c #57AEA9",
"~ 	c #59B1AA",
"{ 	c #54A8A7",
"] 	c #54AAA8",
"^ 	c #58B0A9",
"/ 	c #4D9A95",
"( 	c #1C313E",
"_ 	c #3D8495",
": 	c #47949E",
"< 	c #55AAA8",
"[ 	c #5AB2AC",
"} 	c #4FA1A4",
"| 	c #53A8A7",
"1 	c #59B2AC",
"2 	c #4D9D9F",
"3 	c #326365",
"4 	c #242E47",
"5 	c #376A7F",
"6 	c #3F8798",
"7 	c #53A7A6",
"8 	c #5AB3AC",
"9 	c #54A9A7",
"0 	c #48959E",
"a 	c #4FA0A3",
"b 	c #4E9C97",
"c 	c #1B2C39",
"d 	c #264D5C",
"e 	c #3E8496",
"f 	c #3E8698",
"g 	c #408999",
"h 	c #57ADA7",
"i 	c #438683",
"j 	c #58AEA8",
"k 	c #59B1AB",
"l 	c #3E7E81",
"m 	c #479091",
"n 	c #59B2AB",
"o 	c #3A767B",
"p 	c #181E31",
"q 	c #375A74",
"r 	c #3E7C91",
"s 	c #2F6373",
"t 	c #1D333E",
"u 	c #1C303A",
"v 	c #53A7A5",
"w 	c #58AFA9",
"x 	c #2C5863",
"y 	c #4C9B9E",
"z 	c #192838",
"A 	c #192033",
"B 	c #3E607E",
"C 	c #3E8497",
"D 	c #316777",
"E 	c #2F3B59",
"F 	c #303B5A",
"G 	c #26304A",
"H 	c #316775",
"I 	c #53A6A6",
"J 	c #3A757A",
"K 	c #418180",
"L 	c #407388",
"M 	c #192436",
"N 	c #3D6B84",
"O 	c #3E7A8F",
"P 	c #405177",
"Q 	c #404E75",
"R 	c #3E4B71",
"S 	c #26354D",
"T 	c #3F7B8F",
"U 	c #385D75",
"V 	c #3E788C",
"W 	c #3E5F7C",
"X 	c #192034",
"Y 	c #303D5B",
"Z 	c #405478",
"` 	c #3E8194",
" .	c #40607F",
"..	c #3F4D73",
"+.	c #27314B",
"@.	c #3C8092",
"#.	c #1F3143",
"$.	c #27364E",
"%.	c #D5B583",
"&.	c #2F3A59",
"*.	c #303F5C",
"=.	c #252432",
"-.	c #171D2E",
";.	c #1A293A",
">.	c #36667B",
",.	c #2F3F5B",
"'.	c #367182",
").	c #182333",
"!.	c #D5B584",
"~.	c #D6B787",
"{.	c #D1B281",
"].	c #2E2B34",
"^.	c #725E54",
"/.	c #826B5E",
"(.	c #292837",
"_.	c #374365",
":.	c #26324B",
"<.	c #32384B",
"[.	c #9D896D",
"}.	c #7C6E5F",
"|.	c #30333E",
"1.	c #E2CEB3",
"2.	c #D2CAC0",
"3.	c #463E3B",
"4.	c #756655",
"5.	c #E2D4C4",
"6.	c #DCD1C5",
"7.	c #BFBFC4",
"8.	c #BFC1C9",
"9.	c #BCBDBE",
"0.	c #BCBCBE",
"a.	c #BFC0C1",
"b.	c #FAF8F6",
"c.	c #EEE8E0",
"d.	c #88888A",
"e.	c #B39971",
"f.	c #FDFCFA",
"g.	c #B6B4A6",
"h.	c #524444",
"i.	c #564846",
"j.	c #555251",
"k.	c #C8B58F",
"l.	c #F6EFD8",
"m.	c #F7F1DA",
"n.	c #F2E8D5",
"o.	c #ECE0CF",
"p.	c #ECDFCD",
"q.	c #E5D1A2",
"r.	c #CEBE92",
"s.	c #A79773",
"t.	c #776650",
"u.	c #191E2E",
"v.	c #826F56",
"w.	c #B2A99E",
"x.	c #FDFDFC",
"y.	c #FAF9EC",
"z.	c #AFAB84",
"A.	c #171C2E",
"B.	c #715D54",
"C.	c #997D6B",
"D.	c #D6BC8B",
"E.	c #ECDDA8",
"F.	c #EFE1AB",
"G.	c #EFE2AD",
"H.	c #EFE2AF",
"I.	c #F2E8C5",
"J.	c #F6EFD9",
"K.	c #F3E9C6",
"L.	c #DEC594",
"M.	c #D0B181",
"N.	c #3E3838",
"O.	c #C0A67C",
"P.	c #F2EED8",
"Q.	c #EDE3C0",
"R.	c #AFAA81",
"S.	c #2D2934",
"T.	c #937869",
"U.	c #AB8E72",
"V.	c #D4B483",
"W.	c #E3CD99",
"X.	c #F3E8C3",
"Y.	c #F7EFD7",
"Z.	c #F7F0D9",
"`.	c #FBF7EC",
" +	c #FEFEFC",
".+	c #FAFAF9",
"++	c #F5EDD5",
"@+	c #E8D5A1",
"#+	c #9F8967",
"$+	c #1A1E2F",
"%+	c #8A765A",
"&+	c #E9DCC9",
"*+	c #F7F4DE",
"=+	c #EBDECD",
"-+	c #DCC591",
";+	c #AEA980",
">+	c #6D5A52",
",+	c #977B6B",
"'+	c #B99B78",
")+	c #E2CC98",
"!+	c #EEDFAA",
"~+	c #F0E2AF",
"{+	c #F3ECD5",
"]+	c #5E5B5A",
"^+	c #D8C090",
"/+	c #DDC896",
"(+	c #363135",
"_+	c #494A4D",
":+	c #F9F8F5",
"<+	c #ECE2BF",
"[+	c #D8BB8D",
"}+	c #DDCB96",
"|+	c #847F63",
"1+	c #292832",
"2+	c #73634E",
"3+	c #5A4A48",
"4+	c #977C6B",
"5+	c #C7A87D",
"6+	c #D6B684",
"7+	c #DDC390",
"8+	c #F3EAC6",
"9+	c #F3EDDA",
"0+	c #3E3E43",
"a+	c #9D8664",
"b+	c #E6D5B3",
"c+	c #EEE4BF",
"d+	c #3B3A3A",
"e+	c #1A1F2F",
"f+	c #F1ECC4",
"g+	c #DCC490",
"h+	c #D5B684",
"i+	c #A59872",
"j+	c #B39870",
"k+	c #9D8564",
"l+	c #383337",
"m+	c #7F675C",
"n+	c #9A7E6C",
"o+	c #D3B382",
"p+	c #DCC28F",
"q+	c #E4CE9A",
"r+	c #FDFCF8",
"s+	c #FAF9F8",
"t+	c #3F4149",
"u+	c #D3B687",
"v+	c #ECDDAC",
"w+	c #9D896B",
"x+	c #332F34",
"y+	c #444440",
"z+	c #E7E0A8",
"A+	c #E6D9A1",
"B+	c #CFB080",
"C+	c #3E3738",
"D+	c #172233",
"E+	c #343035",
"F+	c #B79C72",
"G+	c #3D3638",
"H+	c #735F55",
"I+	c #D0B180",
"J+	c #3D3E43",
"K+	c #B99E74",
"L+	c #E7D6B4",
"M+	c #B7B1A0",
"N+	c #191F2F",
"O+	c #EAE2A9",
"P+	c #D6B886",
"Q+	c #2D606F",
"R+	c #363A41",
"S+	c #776651",
"T+	c #B99E73",
"U+	c #DEC996",
"V+	c #EBDDA8",
"W+	c #EFE6C4",
"X+	c #DBDBDB",
"Y+	c #2F323E",
"Z+	c #73634F",
"`+	c #827B62",
" @	c #44443F",
".@	c #E5DEA6",
"+@	c #908B6B",
"@@	c #3C8294",
"#@	c #426A75",
"$@	c #9E8767",
"%@	c #B29574",
"&@	c #766155",
"*@	c #423A3A",
"=@	c #353135",
"-@	c #383638",
";@	c #3B3A3B",
">@	c #191E2F",
",@	c #39383A",
"'@	c #ACA77F",
")@	c #D8CF9D",
"!@	c #7E6D55",
"~@	c #418697",
"{@	c #788183",
"]@	c #B69A77",
"^@	c #CEAF7F",
"/@	c #CBAD7E",
"(@	c #A18B68",
"_@	c #786751",
":@	c #3A3B3B",
"<@	c #2C2E35",
"[@	c #3A393A",
"}@	c #3C3D42",
"|@	c #191E30",
"1@	c #9F8A6A",
"2@	c #E8DDBA",
"3@	c #44433F",
"4@	c #ADA880",
"5@	c #A59778",
"6@	c #A18966",
"7@	c #3F8899",
"8@	c #9F9F8E",
"9@	c #BEA176",
"0@	c #7F6D54",
"a@	c #4F4740",
"b@	c #AAA37C",
"c@	c #BFAD81",
"d@	c #ABA57E",
"e@	c #EAE1BE",
"f@	c #F4F1E8",
"g@	c #8F9092",
"h@	c #DBC291",
"i@	c #EFE1AF",
"j@	c #ADA37E",
"k@	c #7F7B61",
"l@	c #7B6759",
"m@	c #46929D",
"n@	c #4D9EA2",
"o@	c #A2A390",
"p@	c #D6B785",
"q@	c #D4B583",
"r@	c #403C3B",
"s@	c #A28D69",
"t@	c #9E8865",
"u@	c #EBDEAC",
"v@	c #BCBCBC",
"w@	c #BBA078",
"x@	c #F3EBE0",
"y@	c #F3E8C4",
"z@	c #B0A57F",
"A@	c #181D2E",
"B@	c #B4CBAB",
"C@	c #EBE3AA",
"D@	c #DCC590",
"E@	c #9A8362",
"F@	c #ACA57D",
"G@	c #9E8966",
"H@	c #F3E9C5",
"I@	c #BBBBBA",
"J@	c #D9BF8E",
"K@	c #E7D6A2",
"L@	c #7A6B54",
"M@	c #B59875",
"N@	c #386572",
"O@	c #3F8698",
"P@	c #46939D",
"Q@	c #6BB6AC",
"R@	c #E3D8A2",
"S@	c #E1CE98",
"T@	c #9E8765",
"U@	c #EFE2AE",
"V@	c #D8D1B9",
"W@	c #D3CCC3",
"X@	c #E9D8A5",
"Y@	c #D0C395",
"Z@	c #2D2E35",
"`@	c #6F5B53",
" #	c #957969",
".#	c #342F35",
"+#	c #988365",
"@#	c #A1A08E",
"##	c #528997",
"$#	c #5AA0A2",
"%#	c #DDCD99",
"&#	c #E6D8A1",
"*#	c #E0CD98",
"=#	c #B69976",
"-#	c #9F8866",
";#	c #EAD9A5",
">#	c #DFC996",
",#	c #796A54",
"'#	c #1F2130",
")#	c #80695D",
"!#	c #D0B485",
"~#	c #B1BCA1",
"{#	c #65A2A1",
"]#	c #D2B686",
"^#	c #B89B77",
"/#	c #AD926F",
"(#	c #E6D9A5",
"_#	c #EEE0AC",
":#	c #F6EFD5",
"<#	c #EADBA7",
"[#	c #7D6E58",
"}#	c #272F48",
"|#	c #202130",
"1#	c #222435",
"2#	c #364465",
"3#	c #2E5F6F",
"4#	c #182535",
"5#	c #DBC38F",
"6#	c #D2D8AB",
"7#	c #A4A38F",
"8#	c #D0B384",
"9#	c #423F3D",
"0#	c #9D8867",
"a#	c #D0C496",
"b#	c #867F65",
"c#	c #313C5A",
"d#	c #384568",
"e#	c #252E48",
"f#	c #252D47",
"g#	c #2F5166",
"h#	c #E1CF99",
"i#	c #E9E3AB",
"j#	c #5DA2A3",
"k#	c #59979D",
"l#	c #A1A18E",
"m#	c #A08867",
"n#	c #3F5E7D",
"o#	c #2F3958",
"p#	c #313C5B",
"q#	c #D7B886",
"r#	c #60ABA7",
"s#	c #4C9CA1",
"t#	c #538B98",
"u#	c #73756C",
"v#	c #8C765E",
"w#	c #9B8463",
"x#	c #3D4B70",
"y#	c #1B2136",
"z#	c #3F5176",
"A#	c #3E5175",
"B#	c #1A2135",
"C#	c #D3B483",
"D#	c #809794",
"E#	c #86715B",
"F#	c #3E6B85",
"G#	c #3F788E",
"H#	c #3E637F",
"I#	c #7B6952",
"J#	c #A3A18E",
"K#	c #386473",
"L#	c #544745",
"M#	c #264F5D",
"N#	c #3D8597",
"O#	c #3F7A90",
"P#	c #3F6E88",
"Q#	c #3F798F",
"R#	c #3E7088",
"S#	c #264A5A",
"T#	c #4C8897",
"U#	c #367484",
"V#	c #6B5C56",
"W#	c #574846",
"X#	c #274B5B",
"Y#	c #3D8294",
"Z#	c #3D798D",
"`#	c #CDB082",
" $	c #4D8897",
".$	c #282E3B",
"+$	c #4E4242",
"@$	c #2E3C59",
"#$	c #30405D",
"$$	c #1A2538",
"%$	c #736654",
"&$	c #3E7382",
"*$	c #554B4B",
"=$	c #695650",
"-$	c #4F4242",
";$	c #272632",
"                                                                                                                                ",
"                                                                                                                                ",
"                                                                                                                                ",
"                                                                                                                                ",
"                                                                                                                                ",
"                                                                                                                                ",
"                                                                                                                                ",
"                                                                                                                                ",
"                                                                                                                                ",
"                                                                                                                                ",
"                                                                                                                                ",
"                                                                                                                                ",
"                                                                                                                                ",
"                                                                                                                                ",
"                                                                                                                                ",
"                                                                                                                                ",
"                                                . + @                                                                           ",
"                                            # $ % & * = - ; >                                                                   ",
"                                          , ' ) ! ~ { ] ^ ^ / ( +                                                               ",
"                                        @ ' _ : < [ } | { [ 1 2 3 @                                                             ",
"                                      @ 4 5 6 7 8 8 8 9 0 a ~ 1 b c                                                             ",
"                                      @ d e f g h i i j ~ k l m n o +                                                           ",
"                                      p q r _ s t + + u & v w x b y z                                                           ",
"                                    @ A B C D E F F G @ , H I J K L M                                                           ",
"                                      A N C O P Q Q R A @ S T U V W X                                                           ",
"                                      @ Y Z `  .Q ..+.@ @ z @.#.$ $.@                         %.                                ",
"                                        A &.*.F F G @ =.-.;.>.,.'.).@                       !.~.{.                              ",
"                                          @ @ @ @ ].^./.(._.:.p <.[.}.|.                  !.1.2.3.                              ",
"                                                @ 4.5.6.7.8.9.0.a.b.c.d.@               e.1.f.g.@                               ",
"                                              @ h.i.j.k.l.m.n.o.p.q.r.s.t.u.          v.w.x.y.z.@                               ",
"                                              A.B.C.D.E.F.G.H.I.J.m.K.L.M.N.          O.P.x.Q.R.@                               ",
"                                            @ S.T.U.V.W.F.X.Y.Z.`. +.+++@+#+$+      %+&+*+=+-+;+@                               ",
"                                            @ >+,+'+%.)+!+F.F.F.~+{+]+^+!+/+(+      _+:+<+[+}+|+                                ",
"                                      1+2+u.-.3+4+5+%.6+7+!+F.F.8+9+0+a+b+c+d+    e+z.f+g+h+i+u.                                ",
"                                    @ 1+j+k+l+m+n+o+%.%.6+p+q+H.r+s+t+N.u+v+w+x+  y+z+A+6+B+C+                                  ",
"                                    @ D+E+F+F+G+H+I+%.%.%.%.)+F.8+9+J+1+K+L+M+u.N+R.O+P+%.a+u.                                  ",
"                                    @ Q+s R+F+F+N.S+T+{.{.{.U+V+W+X+Y+@ Z+s.`+@  @.@+@{.B+C+                                    ",
"                                    @ s f @@#@$@%@&@*@(+=@=@-@;@J+Y+@ @ @ >@,@>@'@)@!@o+a+u.                                    ",
"                                    @ s f f ~@{@]@^@/@(@_@:@<@>@[@}@|@@ 1+1@2@3@4@5@6@B+C+                                      ",
"                                    @ s f 6 7@8@9@0@a@b@c@.@d@[@e@f@g@@ S+h@i@j@k@l@B+a+u.                                      ",
"                                    @ s f m@n@o@p@q@B+a+r@s@t@;@u@m.v@1+w@x@y@z@A@k+B+C+                                        ",
"                                    @ s f 6 n@B@C@D@%.%.E@F@G@;@V+H@I@N.J@i@K@L@S.M@k+u.                                        ",
"                                    @ N@O@f P@Q@R@S@p@%.T@T@a+;@V+U@V@W@X@F.Y@Z@`@ #.#                                          ",
"                                    @ +#@###6 $#%#&#*#%.=#-#a+;@V+G.m.m.;#>#,#'#)#`@p @                                         ",
"                                    @ a+%.!#~#{#]#6+6+%.^#/#a+[@(#_#:#X.<#[#}#@ |#1#2#3#4#                                      ",
"                                    @ E@%.5#C@6#7#8#%.%.^#'+a+>@9#0#Y@a#b#c#d#A e#f#G g#).                                      ",
"                                      N.{.p@h#i#j#k#l#8#m#=#a+@ A @ Z@Z@+.B n#o#o#p#o#p                                         ",
"                                      1+T+%.q#%#r#| s#t#u#v#w#A x#F y#+.z#` A#B#p G G @                                         ",
"                                      @ t.{.%.C#D#s#7@f s B.E#M F#P ..z#G#H#+.@ @ @ @                                           ",
"                                        u.I#{.%.J#O@f f K#)#L#M#N#O#P#Q#R#S#@ @ @                                               ",
"                                          u.I#{.8#T#f U#V#W#X#Y#C C C Z#S#@ @ @                                                 ",
"                                            u.I#`# $U#.$+$p @$#$#$#$,.$$@ @ @ @                                                 ",
"                                              u.%$&$*$=$@ @ @ @ @ @ @ @ @ @ @ @ @                                               ",
"                                              @ , D+-$;$@                 @ @ @ @ @                                             ",
"                                              @ @ @ @ @ @                     @ @ @                                             ",
"                                                  @ @ @                                                                         ",
"                                                                                                                                ",
"                                                                                                                                ",
"                                                                                                                                ",
"                                                                                                                                ",
"                                                                                                                                ",
"                                                                                                                                ",
"                                                                                                                                ",
"                                                                                                                                "};
