/* XPM */
static char * Wall2_xpm[] = {
"128 128 5 1",
" 	c #161C2E",
".	c #506A69",
"+	c #669D9D",
"@	c #8CC3C4",
"#	c #D0DEB5",
" .+++++++++@@@@@@@@@@++++++++++++++@@@@@@@@@@@@@@...++@@@@@@@@@@@@@@@@@@@@@@@@@@@@@@@@@++++++++++++++@@@@@@@@@@@@@@@@@@+@@@@@+++",
" .+++++++++@@@@@@@@@@@@@@@@@@+++@@@@@@@@@@@@@@@@@++++++@@@@@@@@@@@@@@@@@@@@@@@@@@@@@@@@@@@@@@@@+++@@@@@@@@@@@@@@@@@@@@@@++++++++",
"..+++++++++@@@@@@@@@@@@@@@@@@@@@@@@@@@@@@@@@@@@@@@@+++++++@@@@@@@@@@@@@@@@@@@@@@@@@@@@@@@@@@@@@@@@@@@@@@@@@@@@@@@@@@@@@@+++++++.",
"..+++++++++@@@@@@@@@@@@@@@@@@@@@@@@@@@@@@@@@@@@@@@@@@++++++@@@##@@@@@@@@@@@@@@@@@@@@@@@@@@@@@@@@@@@@@@@@@@@@@@@@@@@@@@@@+++++++.",
"..+++++++++@@@@@@@@@@@@@@@@@@@@@@@@@@@@@@@@@@@@@@@@@@@@@@@@@@####@@@@@@@@@@@@@@@@@@@@@@@@@@@@@@@@@@@@@@@@@@@@@@@@@@@@@@@@@+++...",
"...+@@@++++@@@@@@@@@@@@@@@@@@@@@@@@@@@@@@@@@@@@@@@@@@@@@@@@########@#@@@@@@@@@@@@@@@@@@@@@@@@@@@@@@@@@@@@@@@@@@@@@@@@@@@@@@@+...",
"...+@@@@++++@@@@@@@@@@@@@@@@@@@@@@@@@@@@@@@@@@@@@@@@@@@@@@@###########@@@@@@@@@@@@@@@@@@@@@@@@@@@@@@@@@@@@@@@@@@@@@@@@@@@@@+++..",
"....+@@@@+++++@@@@@@@@@@@@@@@@@@@@@@@@@@@@@@@@@@@@@@@@@@@@+@#####@@######@@@@@@@@@@@@@@@@@@@@@@@@@@@@@@@@@@@@@@@@@@@@@@@@@@@@+++",
".....+@@@+++++@@@@@@@@@@@@@@@@#@@@@@@@@@@@@@@@@@@@@@@@@@@@++@@###@@@############@@@@@@@@@@@@@@@@@@@@@@@@@@@@@@@@@@@@@@@@@@@@@+++",
"..+....@@+++++++@@@@@@@@@@@@@##@@+@@@@@@@@@@@@@@@@@@@@@@@@+++@@@##@@##############@@@@@@@@@@@@@@@@@@@@@@@@@@@@@@@@@@@@@@@@@@@+++",
"..++++..++++++++@@@@@@@@@@@@##@@++@@@@@@@@@@@@@@@@@@@@@@@@@++++++@@@@@@@@@@@+++++++@@@@@@@@@@@@@@@@@@@@@@@@@@+@@@@@@@@@@@@@@@+++",
"..++++++++++@@@@@@@@@@@@@@###@@++@@@@@@@@@@@@@@@@@@@@@@@@@@@+++++++++++++++++++++++++++++++@@@@@++@@@@@@@@@@@++@@@@@@@@@@@@##+++",
"...++++++++++@@@@@@@@@@######@+++@@@@@@@@@@@@@@@@@@@@@@@@@@@@++++++.+....+++++++++++++@@@@@@@@@+++@@@@@@@@@@@++@@@@@@@@@@####+++",
"....++++++++++@@@@@@@@#####@++++@@@@@@@@@@@@@@@@@@@@@@@@@@@@@+++..........+++++++++++@@@@++++++++@@@@@@@@@@@@@+++@@@@@######+++.",
"......+++++++++++@@@@@@@@@+++.++@@@@@@@@@@@@@@@@@@@@@@@@@@@@@@++........+++@@@@@@@@@@@@@@++++++++@@@@@@@@@@@@@@+++++@@#####++++.",
"...+++++++++++++++++@@@++++...++@@@@@@@@@@@@@@@@@@@@@@@@###@@@++++++++@@@@@@@@@@@@@@@@@@@@@@@@++++@@@@@@@@@@@@@+++++++++++++++. ",
"...+++++++++@@@@@@@@@@@++++....+@@@@@@@@@@@@@@@@@@@@#######@@@+++@@@@@@@@@@@@@@@@@@@@@@@@@@@@@@++++@@@@@@@@@@@++@@@@@@+++++++.  ",
"..++++++++@@@@@@@@@@@@@@@@@++..+@@@@@@@@@@@@@@@############@@++@@@@@@@@@@@@@@@@@@@@@@@@@@@@@@@@++++@@@@@@@@@@@@@@@@@@@@++++.....",
"..+++++++@@@@@@@@@@@@@@@@@@+++...@@@@@@@@@@@@@@@@@#########@++@@@@@@@@@@@@@@@@@@@@@@@@@@@@@@@@+++++@@@@@@@@@@@@@@@@@@@@@++++++..",
"..+++++++@@@@@@@@@@@@@@@@@@@@@+..+@@@@@@@@@@@@@@@@@@#####@@++@@@@@@@@@@@@@@@@@@@@@@@@@@@@@@@++++++++@@@@@@@@@@@@@@@@@@@@+++++++.",
"..++++++@@@@@@@@@@@@@@@@@@@@@@@+++@@@@@@@@@@@@@@@@@#####@@++@@@@@@@@@@@@@@@@@@@@@@@@@@@@@@@@@@@@+++++++@@@@@@@@@@@@##@@+@@@+++..",
"...+++++@@@@@@@@@@@@@@@@@@@@@@@+++++@@@@@@@@@@@@#######@+++@@@@@@@@@@@@@@@@@@@@@@@@@@@@@@@@@@@@@@++++++@##@@@@@@@####@@@@@@++...",
" ..+++++@##@@@@@@@@@@@@@@@@@@@@++++++++@@@@@@#########@+++@@@@@@@@@@@@@@@@@@@@@@@+@@@@@@@@@@@@@@@+++++++############++@@@@++..++",
" ...++++@###@@@@@@@@@@@@@@@@@@+++++++++@@@@#########@@+++@@@@@@@@@@@@@@@@@@@@@@@@+@@@@@@@@@@@@@@++++++++++########+++++++++..+++",
"  ...++++####@@@@@@@@@@@@@@@@@++++@@@+++++@@@@@@@@@@+++++@@@@@@@@@@@@@@@@@@@@@@@++@@@@@@@@@@@@@+++++@@@+++++@@@@++++++++++..++++",
"   .....++#####@++@@@@@@@@@@@++++@@@@@++++++++++++++++++@@#@@@@++@@@@@@@@@@@@@@@+++@@@@@@@@@@@@++++@@@@@+++++++++++++++.....++++",
".. .......@@@@@@+++@@@@@@@@@@@++@@@@@@@@+++++++++++++++++@##@@@+++@@@@@@@@@@@@@@++++@@@@@@@@@@@@++@@@@@@@@+++++++...........++++",
"...  ..........++++@@@@@@@@@@@@@@@@@@+++++++++++++.....++@###@@++++@@@@@@@@@+++++++++@@@@@@@@@@@@@@@@@@+++++++++++...........   ",
"...     .......++++++@@@@@@@@@@@@@@@@@@++@@@@@@@++.....+++###@@@+++@@@@@@@@+++++++++++++@@@@@@@@@@@@@@@@@++@@@@@@@@@......      ",
"    .....+++++@@@@++++@@@@@++@@@@@@@@@@@@@@@@@@@@++....+++@###@@@@@@@@@@@@++++++++@@+++..++@+++@@@@@@@@@@@@@@@@@@@@@@.......    ",
"   ...+++++++@@@@@@@...@@@++@@@@@@@@@@@@@@@@@@@@@@++....+++####@@@@@@@@@@@+++++@@@@@++....++++@@@@@@@@@@@@@@@@@@@@@@@@@@...++++.",
"   ..+++++@@+@@@@@@@@.....++@@@@@@@@@@@@@@@@@@@@@@@@+...++++#############@@@@@@@@@@@+...++++++@@@@@@@@@@@@@@@@@@@@@@@@@@..+++++.",
"   .++++++@@@@@@@@@@@..++++@@@@@@@@@@@@@@@@@@@@@@@@@@+...+++@##########@@@@@@@@@@@@@@@..+++++@@@@@@@@@@@@@@@@@@@@@@@@@@@@..+++++",
"   .++++++@@@@@@@@@@@.++@@@@@+++@@@@@@@@@@@@@@@@@@@@@++..+++++@@@@@@@@@@@@@@@@@@@@@@@...++@@@@@+++@@@@@@@@@@@@@@@@@@@@@@@..+++++",
"   .+++++++@+@@@@@@@..+@@@++++++@@@@@@@@@@@@@@@@@@@@@++..++++@##@@@@@@@@@@@@@@@@@@@@@..++@@@++++++@@@@@@@@@@@@@@@@@@@@@@@..+++++",
"  ..+++++++++@@@@@@@..+@@@+++++@@@@@@@@@@@@@@@@@@@@@@++..++#####@@@@@@@@@@@@@@@@@@@@...++@@@+++++@@@@@@@@@@@@@@@@@@@@@@@@..+++++",
"  ...++++++++@@@@@@@..@@@++++++++@@@@@@@@@@@@@@@@@@@@@+..+@####@@@@@@@@@@@@@@@@@@@++...++@@@@++++@@@@@@@@@@@@@@@@@@@@@@@@.+++++.",
"  ...+++++++++@@@@....@@@++++++++@@@@@@@@@@@@@@@@@@@@@++++@############@@@@@@@@@+++....++@@@@++++++@@@@@@@@@@@@@@@@@@###@@@+++..",
"  +++.+++++++++++....++@@@@++++++@@@@@@@@@@@@@@@@@@@@@++++@@#############@@@@@@++.......+@@@@@+++++@@@@@@@@@@@@@@@@#####@@@++..+",
"  +++++++++++++++...++++++@@@@@@@@@@@@@@@@@@@@@@###@@@+++++@@##############@@++......++..@@@@@@@@@@@@@@@@@@@@@@@@######@@@@++.++",
"  .+++.++++++++++++++++@@@@@@@@@@@@@@@@@@@#########@@@++++..+@@@###########++++...@@@@@@@@@@@@@@@@@@@@@@@@@@@@#########@@@++++++",
" ...++..++++++@@@@@@@@@@@@@@@@@@@@@@@@############@@++++++.....@@@@@@@@@@@+++++.@@@@@@@@@@@@@@@@@@@@@@@@@@#############@@++..+++",
" .........+++@@@@@@@@@@@@@@@@@@@@@@@@@@@@@@@@@@@@+++++++++......+++++++++++++++@@@@@@@@@@@@@@@@@@@@@@@@@@@##########@+.......+++",
" .......++++@@@@@@@@@@@@@@@@@@@@@@@@@@@@@@@@@@@@@@@@@+++++++++++++++++++++++++@@@@@@@@@@@@@@@@@@@@@@@@@@@@@@@@@@@@@@@@@@@.......",
" ....++++++@@@@@@@@@@@@@@@@@@@@@@@@@@@@@@@@@@@@@@@@@@@@@@++++++@@@@@@@@@@@+++@@@@@@@@@@@@@@@@@@@@@@@@@@@@@@@@@@@@@@@@@@@@@...++.",
"....+++++++@@@@@@@@@@@@@@@@@@@@@@@@@@@@@@@@@@@@@@@@@@@@@@++++@@@@@@@@@@@@@+++@@@@@@@@@@@@@@@@@@@@@@@@@@@@@@@@@@@@@@@@@@@@@@..+++",
"....++++++++@@@@@@@@@@@@@@@@@@@@@@@@@@@@@@@@@@@@@@@@@@@@@+++@@@@@@@@@@@@@@++++@@@@@@@@@@@@@@@@@@@@@@@@@@@@@@@@@@@@@@@@@@@@@@.+++",
"...+++++@@@+@@@@@@@@@@@@@@@@@@@@@@@@@@@@@@@@@@@@@@@@@@@@@+++@@@@@@@@@@@@@@@+++@@@@@@@@@@@@@@@@@@@@@@@@@@@@@@@@@@@@@@@@@@@@@@++++",
"...+++++@@@+@@@@@@@@@@@@@@@@@@@@@@@@@@@@@@@@@@@@@@@@@@@@+++@@@@@@@@@@@@@@@@++++@@@@@@@@@@@@@@@@@@@@@@@@@@@@@@@@@@@@@@@@@@@@@++++",
"...++++++@@++@@@@@@@@@@@@@@@@@@@@@@@@@@@@@@@@@@@@@@@@@@@++++@@@@@@@@@@@@@@@++++@@@@@@@@@@@@@@@@@@@@@@@@@@@@@@@@@@@@@@@@@@@@+++++",
"...+++++++++++@@@@@@@@@@@@@@@@@@@@@@@@@@@@@@@@@@@@@@@@@@++++@@@@@@@@@@@@@@@@++++@@@@@@@@@@@@@@@@@@@@@@@@@@@@@@@@@@@@@@@@@@@+++++",
"...++++++++++++@@@@@@@@@@@@@@@@@@@@@@@@@@@@@@@@@@@@@@@@@+++@@@@@@@@@@@@@@@@@@@+++@@@@@@@@@@@@@@@@@@@@@@@@@@@@@@@@@@@@@@@@@@+@@@+",
"....+++++++++++@@@@@@@@@@@@@@@@@@@@@@@@@@@@@@@@@@@@@@@@@@++@@@@@@@@@@@@@@@@@+++@###########@@@@@@@@@@@@@@@@@@@@@@@@@@@@@@++@@@@@",
"....+++++++++++@@@@@@@@@@@@@@@@@@@@@@@@@@@@@@@@@@@@@@@@@@@@@@@@@@@@@@@@@@@@@@++@+@@@#######@@@@@@@@@@@@@@@@@@@@@@@@@@@@@@@@@@@@@",
".++.@@@@++++++++@@@@@@@@@@@@@@@@@@@@@@@@@@@@@@@@@@@@@@@@@+++@@@@@@@@@@@@@@@@@@+@++@@@@@@@@@@@@@@@@@@@@@@@@@@@@@@@@@@@@@@@+++@@@@",
".+++@@@@@+++++++++@@@@@@@@@@@@@@@@@@@@@@@@@@@#######@@++++++@@@@@@@@@@@@@@@@@++++++@@@@@@@@@@@@@@@@@@@@@@@@@@#######@@++++++@@++",
".++++@@@@@@@++++++++@@++@@@@@@@@@@@@@@@@@@#########++++++++@@@@@@@@@@@@@@@@+++++++@@@@++@@@@@@@@@@@@@@@@@@#########++++++++@@@++",
".++++..@@@@@@++@@+++@@+++@@@@@@@@@@@@@@@@@@@#####++++++++@@@@@@@@@@@@@@++++++++@@+@@@@+++@@@@@@@@@@@@@@@@@@@#####++++++++@@@@@++",
"..+++.....++++@@@@@@@@@+++++@@@@@@@@@@@@@@@@@@+++++++++@@@@@@@@@@@@@@@++++++++@@@+@@@@@+++++@@@@@@@@@@@@@@@@@@+++++++++@@@@@++++",
"...++...++++++@@@@@@@@@+++++++@@@@@@@@@+++++++++++++++@@@@@@@@@@@@@@++++++++++@@@@@@@@@+++++++@@@@@@@@@+++++++++++++++@@@@@@++++",
".......+++++++@@@@@@@@@+++++.+++++++++++++++++++.+++++@@@@@@@@@@@@@@@@@@@@++++@@@@@@@@@+++++.+++++++++++++++++++.+++++@@@@@@++++",
".......+++++++@@@@@@@@@+++++.+++++++++++++++++++.+++++@@@@@@@@@@@@@@@@@@@@++++@@@@@@@@@+++++.+++++++++++++++.....+++@@@@@@+++.. ",
"......++++++++@@@@@@@@@@@+++...+++++++++++++++....+++++@@@@@@@@@@@@@@@@@@@@+++@@@@@@@@@@@+++...++++++++++........+++@@@@@@+++.. ",
" .....++++++@++@@@@@@@@@@+++......++...............++++@@@@@@@@@@@@@@@@@@@@@@++@@@@@@@@@@+++.....+++.......@@@.......@@@@++++.  ",
" .... ++++++@@@@@@@@@@@++++++.........+++++@@@@+...++++@@@@@@@@@@@@@@@@@@@@@@@@@@@@@@@@++++++.........@@@@@@@@@@...+@@@@++++..  ",
" .... ++++@@@@@@@@@@@++++++++++++++@@@@@@@@@@@@@@+++++++@@@@@@@@@@@@@@@@@@@@@@@@@@@@@++++++++++++++@@@@@@@@@@@@@@@@+@@@++++...  ",
"  ..  +++@@@@@@@@@@@@@@@@@@@@+++@@@@@@@@@@@@@@@@@++++++++@@@@@@@@@@@@@@@@@@@@@@@@@@@@@@@@@@@@+++@@@@@@@@@@@@@@@@@@@@++++++....  ",
"      +++@@@@@@@@@@@@@@@@@@@@@@@@@@@@@@@@@@@@@@@@@@@@++++@@@@@@@@@@@@@@@@@@@@@@@@@@@@@@@@@@@@@@@@@@@@@@@@@@@@@@@@@@@+++++....   ",
"       ++@@@@@@@@@@@@@@@@@@@@@@@@@@@@@@@@@@@@@@@@@@@@@+++@@@@@##@@@@@@@@@@@@@@@@@@@@@@@@@@@@@@@@@@@@@@@@@@@@@@@@@@@@@++....     ",
"       @@@@@@@@@@@@@@@@@@@@@@@@@@@@@@@@@@@@@@@@@@@@@@@@+@@@@@####@@@@@@@@@@@@@@@@@@@@@@@@@@@@@@@@@@@@@@@@@@@@@@@@@@@@+++......  ",
"   ..   @@@@@@@@@@@@@@@@@@@@@@@@@@@@@@@@@@@@@@@@@@@@@@@@@@@########@@@@@@@@@@@@@@@@@@@@@@@@@@@@@@@@@@@@@@@@@@@@@@@@@+++..+++..  ",
"  ....  @@@@@@@@@@@@@@@@@@@@@@@@@@@@@@@@@@@@@@@@@@@@@@@@@@@#########@@@@@@@@@@@@@@@@@@@@@@@@@@@@@@@@@@@@@@@@@@@@@@@@++..++++..  ",
"  .....  ##@@@@@@@@@@@@@@@@@@@@@@@@@@@@@@@@@@@@@@@@@@@@@@@+@###########@@@@@@@@@@@@@@@@@@@@@@@@@@@@@@@@@@@@@@@@@@++++...++++..  ",
"  .....  ###@@@@@@@@@@@++@@@@@@@@@@@@@@@@@@@@@@@@@@@@@@@@@++@@##################@@@@@@@@@@@@@@@@@@@@@@@@@@@@@@@@@@@...........  ",
" .......  #####@@@@@@++++@@@@@@@@@@@@@@@@@@@@@@@@@@@@@@@@@+++@@@################@@@@@@@@@@@@@@@@@@@@@@@@@@@@@@@@@@@++++.......  ",
" ...........######++++++@@@@@@@@@@@@@@@@@@@@@@@@@@@@@@@@@@@++++++@@@@@@@@@+++++++++++++++@@@++++@@@@@@@@@@@@@@@@@+++++++.....   ",
" ....++.........++++++@@@@@@@@@@@@@@@@@@@@@@@@@@@@@@@@@@@@@@++++++++++++++++++++++++++++++++++++@@@@@@@@@@@@@@@+++++++++.....   ",
" ...++++........++++++@@@@@@@@@@@@@@@@@@@@@@@@@@@@@@@@@@@@@@@++++++.....++++++++++++++++++++++++@@@@@@@@@@@@@@@@@@@++++...      ",
" ...++++++..........+#@@@@@@@@@@@@@@@@@@@@@@@@@@@@@@@@@@@@@@@+++........+++++++++++@@....++++++@@@@@@@@@@@@@@@@@@@@@@@          ",
"  ..++++++++.......++#@@@@@@@@@@@@@@@@@@@@@@@@@@@@@@@@@@@@@@@@@.......+++@@++@@@@@@@@@@..+...++@@@@@@@@@@@@@@@@@@@@@@#@     .   ",
"  ..++++++++++. .+++##@@@@@@@@@@@@@@@@@@@@@@@@@@@@@@@@@@###@@@..++++@@@@@@@@@@@@@@@@@@@@@@.....+@@@@@@@@@@@@@@@@@@@@##++   ...  ",
"  ...+++++++++  .+++###@@@@@@@@@@@@@@@@@@@@@@@@@@@@@######@@@@.++@@@@@@@@@@@@@@@@@@@@@@@@@@....++@@@@@@@@@@@@@@@@@@###++. ....  ",
"  ....++++++++   .+++####@@@@@@@@@@@@@@@@@@@@@@#########@@@@@@++@@@@@@@@@@@@@@@@@@@@@@@@@@@+++++ @@@@@@@@@@@@@@@@@###+++. ++... ",
"   ....+++++++   .+++#######@@@@@@@@@@@@@@@@@@@@@@######@@@@@+++@@@@@@@@@@@@@@@@@@@@@@@@@@@+++++ @@@@@@@@@@@@#######++++.+++... ",
"   ......++++  +   +++##########@@@@@++@@@@@@@@@@@@@####@@@@++++@@@@@@@@@@@@@@@@@@@@@@@@@@@@@@++  @@@@@@@###########++++++++... ",
"     .....++   +@@++++++########@@+++++@@@@@@@@@@###########++++@@@@@@@@@@@@@@@@@@@@@@@@@@@@@@@+   @@@@@@##########+++++++++... ",
"       ....   ++@@@@+++++++##+++++++++@@@@@@@@##############..++@@@@@@@@@@@@@@@@@@@@@@@@@@@@@@@+    @@@@@@@#######+++++..+++... ",
"       +++++++++@@@@@@++++++++++++++@@@@@@@@###############...++.@@@@@@@@@@@@@@@@@@@@@@@@@@@@@@@ .......@@@#####+++++++..++.... ",
"   .. .+++++++++@@@@@@@@@@@++++++++++@@@@@@@########@@@@@.....++.@@@@@@@@@@@@@@@@@@@@@@@@@@@@@@@@............+++++++++........  ",
"  .....++++@@+++@@@@@@@@@@@@@@@@@++++++++++..++@@@@@+++...+++..+.@@@@@@@@@@@@@@@@@@@@@@@@@@@@@@@@@@..........++++++++.........  ",
"  .....++++@@@++@@@@@@@@@@@@@@@@@@+++++++......@@@@@@@@@@+++++.+..@@@@@@@@@@@@@@@@@@@@@@@@@@@@@#@@@@@@@....++++++++++..@@....   ",
"  ......+@@@@@@@@@@@@@@@@@@@@@@@@@@@@@@.......@@@@@@@@@@@@++++.. ..@@@@@@@@@@@@@@@@@@@@@@@@@@@@#@@@@@@+++++++++++++++@@@@@..    ",
"   .....+@@@@@@@@@@@@@@@@@@@@@@@@@@@@++....##+@@@@@@@@@@@@++....  .##@@@@@@@@@@@@@@@@@@@@@@@@@@@@@@@@@++++++++++++..@@@@@@.     ",
"   .....+@@@@@@@@@@@@@@@@@@@@@@@@@@@@@@+...###@@@@@@@@@@@.....     ###@@@@@@@@@@@@@@@@@@@@@@@@@@@@@@@@@+++++++++++@@@@@@@@...   ",
"    ....++@@@@@@+@@@@@@@@@@@@@@@####...+###+############+.....     ####@@@@@@@@@@@@@@@@@@@@@@@@@####...+++++@@@@@@@@@@@@@....   ",
"    .....+@@@@@@++@@@@@@@@@@@@@#####+..  +++######++++++++++...    ######@@@@@@@@@@@@@@@@@@@@@@#####+.. +++@@@@@@@@@@@@......   ",
"    +++..+++++@@+++@@@@@@########### .. ..@@+++++++++++++++++...    #########@@@@@@@@@@@@########### .. .@@@@@@@@@#@@##.......  ",
"    ++++..+++++++++###############     .@@@@@@@@@++++++++++++...      ###+++++@@@@################     .@@@@@@@@######+.......  ",
"   ..++++++.++++++++++##########       .@@@@@@@@@+++++++++++++...  ..    +++++++++++++########## ....  .@@@@@@@#####+++..++++.  ",
"   ..++++++........+++++++++++++++++.  .@@@@@@@+++++++++++++++...  .......+++++++++++++++@@@@@@@.....  .@@@@@@@##++++++.+++++.  ",
"   ....++++.....+++++++++++++++++....  .++@@++++++++++++++++++... ......++++++++++++++++@@@@@@@@+....  .++@@+@@++++++++++++++.  ",
"   ............+++++++++++++++++++...  ++++++++++++++++++++++++.. .....++++++++++++++++++++++@@@++...  +++++++++++++++++++++..  ",
"   ............++++++++++++++++++++..  ++++++++++++++++++++++++....++++++++++++++++++++++++++++++++... +++++++++++++++++++....  ",
"   ...........+++++++++++++++++++++....++++++++++++++++++++++++....++++++++++++++++++++++++++++++++....++++++++++++++++++.....  ",
"  ............+++++++++++++++++++++....++++++++++++++++++++++++.....+++++++++++++++++++++++++++++++....++++++++++++++++++.....  ",
"  ....+.......+++++++++++++++++++++....++++++++++++++++++++++++........++++++++++++++++++++++++++++....++++++++++++++++++.....  ",
"  ....++.....+++++++++++++++++++++++.....++++++++++++++++++++++.....++++++++++++++++++++++++++++++++.....++++++++++++++++.....  ",
"  ....++++++++++++++++++++++++++++++......+++++++++++++++++++++.....++++++++++++++++++++++++++++++++.....+++++++++++++........  ",
"  ....+++++++++++++++++++++++++++++.........++++++++++++++++++++....+++++++++++++++++++++++++++++++......++....+++++..........  ",
"  ......+++++++++++++++++++++++++..............+++++++++++++++++.....+++++++++++++++++++++++++++..............@@@+++....+.....  ",
"  ..........++++++++++++++++++++.......@@@.......+++++++++++++++.....+++++++++++++++++++++++++++.............@@@@++++++++....   ",
"   ...........+++++++++++++++++++++....@@@@@@@@@@+++++++++++++++......++++++++++++++++++++++++++..+++...+@@@@@@@@++++++++....   ",
"   .............+++++++++++++++++++....+@@@@@@@@@@@@+++++++++++..+++....+++++++++++++++++++++++++++++...+@@@@@@++++++++++....   ",
"   ................++++++++++++++++......@@@@@@@@@+++++++++++++...++++@............+++++++++++++++++.....+@@+++++++++++++...    ",
"   ..........++++++++++++++++++++++......+@@@@+++++++++++++++++.  .+++@@@@@@@....++++++++++++++++++......++++++++++++++++..     ",
"    .........++++++++++++++++++++++... ...++++++++++++++++++++.   ..@@@@@@@@@@@@@++++++++++++++++++... ...++++++++++++++...     ",
"      .....+++++++++++++++++++++++++.. ...+++++++++++++++++++..   ...@@@@@@@@@@++++++++++++++++++++... ....+++++++++++++....+++ ",
"       .....++++++++++++++++++..++++..  ...++++++++++++++++++..  .....++++++++++++++++++++++++++++....  ...+++++++++++++..+++++ ",
"        ......+++++++++++++++...++++..  ...+++++++++++++++.....  ....+++++++++++++++++++++++++++++....   ...+++++++++++++@+++++ ",
"    ..     .....++++++++++++....++++..    ..+++++++++++++......   ...++++++++++++++++++++++++++.++....    .....+++++++++@+++++  ",
"   .............++++++++++....@@+++...   ++....+++++++.......@@@  .....++++++++++++++++++++++...+....   +++@@@+++++@@@@@@+++++  ",
"   ...........++++++++++++..@@@@+++...   +++@@@@@@@@@@@@@@@@@@@@   .......++++++++++++++++++++++.....    +++@@@@@@@@@@@@@++++.  ",
"    ..........+++++++++++++.@@@++++..     ###@@@@@@@@@@@@@@@@###   ...++++++++++++++++++++++++++....      ###@@@@@@@@@@@@++...  ",
"    .......+++++++++++++++++++++++..      #######@@@@@@@@@######   ...++++++++++++++++++++++++++...       #######@@@@@@@@.....  ",
"   +++.....+++++++++++++++++++++++.        #############@@#####+    .....+++++++++++++++++++++++...        #########@@@.......  ",
"  +++++++++++++++++++++++++++++++          @@@@#######@@@@###+++    .....+++++++++++++++++++++++      ..   @@@@###++++........  ",
"  +++++++++@@@+++++++++++++++      ++      ++++@++@@@+++++++++++    +.......++++++++++++++++++++   +++..   ++++@++++++........  ",
"  ++++++++@@@@@@@@@@@+++++@@@@@@@@@+++++  ++++++++++++++++++@@++.  ++++@@@@++++++++++++++++++++.@@@+++..  ++++++++++++++++....  "};
