/* XPM */
static char * Wall4_xpm[] = {
"128 128 9 1",
" 	c #9BB94E",
".	c #506A69",
"+	c #8CC3C4",
"@	c #161C2E",
"#	c #506D6C",
"$	c #506B6A",
"%	c #669D9D",
"&	c #D0DEB5",
"*	c #506C6B",
"                                             ...++++++.@@@@@@@@@@@@@@+@@@..#                                                    ",
"                       .........          ........................+++++++........                  $......                      ",
"                ....@@@@.......................................+++++++++++...................................                   ",
"               ....@@@++++++++++........................%%%...%+++++++++++%%%%.....................%%%%%%......                 ",
"          ........@@@++++++++++++++++++.....++++++.....%%%%...%%++++++++++++%%%%%%+++++%%...++++%%%%%%%%%%......                ",
"         .....@@@@@@++++++++++++++++++++++++++++++%%..%%%%%%..%%%%+&++++++++++%%%%+++++%..++++++++%%%%%%%%%...........$         ",
"        ....@@@@@@@@++++++++++++++++++++++++++++++%%..%%&+%%%.%%&&&&++++++++++++%%%++%%%..++++++++%%+++++++++++...........*     ",
"       ......++@@@@@+++++++++++++++++++++++++++++++%%.%&&+%%%.%%&&&&++++++++++++%%%%%%%%..++++++++%+++++++++++++++...........$  ",
"       ....%++++++@@+++++++++++++++++++++++++++++++%%%%&&++%%.%%&&&&&&&&++++++++%%%%%%%.....++++%%%++++++++++++++++...%%%.....  ",
" @@@@.....%+++++++%@@++++++++++++++++++++++++++++++%%%%&&++%%%%%&&&&&&&&&+++++++%%%%%%...%%%%%%%%%%++++++++++++++++++.%%%%%...  ",
" @@......+++++++++%+%%%%+++++++++++++++++++++&&&+++%%%%%%++%%%..%&&&&&&&&&&&&&+%%%%%%%%%%%%%%%%%%%%+++++++++++++++&&&+%%%%%%... ",
" .@..%%.+++++++++++++%%%%%+++++++++++++&&&&&&&&&++%%%%%%%+%%%%...%%%&&&&&&&&%%%%%%%%%%%%%%%%%%%%%%%%%+++++++&&&&&&&&&++%%%%%... ",
" ...%%%%++++++++++++++%%%%%+++++++++&&&&&&&&&&&++%%%%..%%%%%++%.....%%%%%%%%%%%%%%%+++++++%%%+++++%%%%%%+&&&&&&&&&&&++%%%%%%%...",
" ..%%%%%++++++++++++++++%%%%%%%+++++++++++++++%%%%%%%....%%%+++%.....%%%%%%%%%%%%%+++++++++++++++++%%%%%%%%%%%%%%%%%%%%%%%%%%%..",
" ..%%%%%++++++++++++++++%%%%%%%%%%%%++++++++++++++%%%%%..+%%++++%%%%%%%%%%%%%%%%%+++++++++++++++++++++%%%%%%%%%%%%%%%%++++%%%%..",
" .%%%%%%%&&+++++++++++++%%%%%%%%%+++++++++++++++++++++%..+++%+++%%%%+++++++++%%%+++++++++++++++++++++++%%%%%+++++++++++++++%%%..",
" .%%%%.%%&&+++++++++++++%%%%%%%+++++++++++++++++++++++%%%+++%%%%%%+++++++++++%%%++++++++++++++++++++++++%%%++++++++++++++++%%%..",
" .%%%..%%&&&&&+++++++++%%%%%%%++++++++++++++++++++++++%%%+++++%%%++++++++++++%%%%++++++++++++++++++++++++%%++++++++++++++++%%%..",
" ......%%%&&&&&&&&&+%%%%%%%%++++++++++++++++++++++++++%%%+++++%%%+++++++++++++%%%++++++++++++++++++++++++%%+++++++++++++++++%%..",
"....%%%%%%&&&&&&&&%%%%%%%%+++++++++++++++++++++++++++%%%++++++%%++++++++++++++%%%%++++++++++++++++++++++++%%++++++++++++++++%%..",
"....%%%%%%%%&&&&%%%%%%%%%++++++++++++++++++++++++++++%%%++++++%%++++++++++++++%%%%+++++++++++++++++++++++++%++++++++++++++++%%%.",
"...%%%%++%%%%%%+++%%%%%++++++++++++++++++++++++++++++%%%++++++%%+++++++++++++++%%%%+++++++++++++++++++++++++++++++++++++++++%%%.",
"...%%+++++%%%%%++++%%%%++++++++++++++++++++++++++++++%%%+++++++%+++++++++++++++++%%%+++++++++++++++++++++++++++++++++++++++%%%%.",
"..%%%+++++++%%%++++++%%++++++++++++++++++++++++++++++%%%+++++++%+++++++++++++++++%%%%%+++++++++++++++++++++++++++++++++++++%%%..",
"..%%%.........%%%%%%+++%%%%%%%%++++++++++++++++++++++++++++++%%%........%%%%%%%%%%%++++%%%%%%%%+++++++++++++++++++++++%++++%%%..",
".......%%%%%%++++++++++%%%%%%%%+++++++++++++++++++++++++++++++%%......%%%++%%++++++++++%%%%%%%%+++++++++++++++++++++++%++%%%%%..",
".....%%%%%++++++++++++++++++%%%%++++++++++++++++++++++++&&&+++%%%%%%++++++++++++++++++++++++%%%%++++++++++++++++++++++%%%%%%%...",
"...%%%%%+++++++++++++++++++%%%%%%+++++++++++++++++++&&&&&&&+++%%+++++++++++++++++++++++++++%%%%%%++++++++++++++++++++%%%%%%%%...",
"...%%%%++++++++++++++++++++%%%%%%++++++++++++++&&&&&&&&&&&&++%%++++++++++++++++++++++++++++%%%%%%++++++++++++++&&&&&%%%%%%%%....",
"..%%%%%++++++++++++++++++++%%%%%%+++++++++++++++++&&&&&&&&&+%%+++++++++++++++++++++++++++++%%%%%%+++++++++++++++++&&&&&%%%&&&...",
"..%%%++%++++++++++++++++++++++%%%%++++++++++++++++++&&&&&++%%+++++++++++++++++++++++++++++++++%%%%++++++++++++++++++&&&&&&&&&..@",
"..%%%++++++++++++++++++++++++++%%%%%%++++++++++++++&&&&&++%%+++++++++++++++++++++++++++++++++++%%%%%%++++++++++++++&&++&&&&&%..@",
"..%%%+++%++++++++++++++++++++++%%%%%%+++++++++++&&&&&&&+%%%++++++++++++++++++++++++++++++++++++%%%%%%+++++++++++&&&++++&&&&%...@",
"..%%%++++%+++++++++++++++++++++%%%%%%%%++++&&&&&&&&&&&+%%%+++++++++++++++++++++%+++++++++++++++%%%%%%%%++++&&&&&&&&+++&&&&%%...@",
"@%%%%%+++%%+++++++++++++++++++%%%%%%%%%++++&&&&&&&&&++%%%++++++++++++++++++++++%++++++++++++++%%%%%%%%%++++&&&&&&&&++&&&%%%%..@@",
"@%%%%%%++%%%++++++%%+++++++++%%%+++++%%%%%++++++++++%%%%%+++++++++++++++++++++%%+++++++++++++%%%%%+++%%%%%+++++++&&&&%%%%%%...@@",
"@@%%%%%%%%%%%++++%%%+++++++++%++++++++%%%%%%%%%%%%%%%%%%++&+++++++++++++++++++%%%++++++++++++%%%%+++++%%%%%%%%%%%%%%%%%%%.....@@",
"@@%%%%%%%%%%%%%%%%%+++++++++++++++++++++%%%%%%%%%%%%%%%%%+&&++++++++++++++++++%%%%++++++++++++%%++++++++%%%%%%%%%%%%%%%.......@@",
"@@%%%%%%%%%%%%%%%%%++++++++++++++++++%%%%%%%%%%%%%.....%%+&&&+++++++++++++%%%%%%%%%++++++++++++++++++%%%%%%%%%%%%%.............@",
"...@%%%%%%%%%%%%%%%%%%+++++++++++++++++%%+++++++%%.....%%%&&&++++++++++++%%%%%%%%%%%%%+++++++++++++++++%%+++++++%%......@@@@@..@",
"...@@@@%%%%%%%%%++%%%%%++++++++++++++++++++++++++%%....%%%+&&&++++++++++%%%%%%%%++%%%%.%%+%%%++++++++++++++++++++%%...%%%%%@@..@",
"@@@@@@@@@@%%%+++++++%%%%%%++++++++++++++++++++++++%%....%%%&&&&+++++++++%%%%%+++++%%%...%%%%++++++++++++++++++++++%%..%%%%%%@@@@",
"@.........%%%++++++++++++++++++++++++++++++++++++%%%%%%%%%......%%%%%%%%%%%%%%%+++++++++++++++++++++++++++&&&&&&&&&&+%.......%%%",
"@.......%%%%+++++++++++++++++++++++++++++++++++++++++%%%%%%%%%%%%%%%%%%%%%%%%%+++++++++++++++++++++++++++++++++++++++++++.......",
"@....%%%%%%++++++++++++++++++++++++++++++++++++++++++++++%%%%%%+++++++++++%%%+++++++++++++++++++++++++++++++++++++++++++++...%%.",
"....%%%%%%%++++++++++++++++++++++++++++++++++++++++++++++%%%%+++++++++++++%%%++++++++++++++++++++++++++++++++++++++++++++++..%%%",
"....%%%%%%%%+++++++++++++++++++++++++++++++++++++++++++++%%%++++++++++++++%%%%++++++++++++++++++++++++++++++++++++++++++++++.%%%",
"...%%%%%+++%+++++++++++++++++++++++++++++++++++++++++++++%%%+++++++++++++++%%%++++++++++++++++++++++++++++++++++++++++++++++%%%%",
"...%%%%%+++%++++++++++++++++++++++++++++++++++++++++++++%%%++++++++++++++++%%%%+++++++++++++++++++++++++++++++++++++++++++++%%%%",
"...%%%%%%++%%+++++++++++++++++++++++++++++++++++++++++++%%%%+++++++++++++++%%%%++++++++++++++++++++++++++++++++++++++++++++%%%%%",
"...%%%%%%%%%%%++++++++++++++++++++++++++++++++++++++++++%%%%++++++++++++++++%%%%+++++++++++++++++++++++++++++++++++++++++++%%%%%",
"...%%%%%%%%%%%%+++++++++++++++++++++++++++++++++++++++++%%%+++++++++++++++++++%%%++++++++++++++++++++++++++++++++++++++++++%+++%",
"....%%%%%%%%%%%++++++++++++++++++++++++++++++++++++++++++%%+++++++++++++++++%%%+&&&&&&&&&&&++++++++++++++++++++++++++++++%%+++++",
"....%%%%%%%%%%%++++++++++++++++++++++++++++++++++++++++++++++++++++++++++++++%%+%+++&&&&&&&+++++++++++++++++++++++++++++++++++++",
".%%.++++%%%%%%%%+++++++++++++++++++++++++++++++++++++++++%%%++++++++++++++++++%+%%+++++++++++++++++++++++++++++++++++++++%%%++++",
".%%%+++++%%%%%%%%%+++++++++++++++++++++++++++&&&&&&&++%%%%%%+++++++++++++++++%%%%%%++++++++++++++++++++++++++&&&&&&&++%%%%%%++%%",
".%%%%+++++++%%%%%%%%++%%++++++++++++++++++&&&&&&&&&%%%%%%%%++++++++++++++++%%%%%%%++++%%++++++++++++++++++&&&&&&&&&%%%%%%%%+++%%",
".%%%%..++++++%%++%%%++%%%+++++++++++++++++++&&&&&%%%%%%%%++++++++++++++%%%%%%%%++%++++%%%+++++++++++++++++++&&&&&%%%%%%%%+++++%%",
"..%%%.....%%%%+++++++++%%%%%++++++++++++++++++%%%%%%%%%+++++++++++++++%%%%%%%%+++%+++++%%%%%++++++++++++++++++%%%%%%%%%+++++%%%%",
"...%%...%%%%%%+++++++++%%%%%%%+++++++++%%%%%%%%%%%%%%%++++++++++++++%%%%%%%%%%+++++++++%%%%%%%+++++++++%%%%%%%%%%%%%%%++++++%%%%",
".......%%%%%%%+++++++++%%%%%.%%%%%%%%%%%%%%%%%%%.%%%%%++++++++++++++++++++%%%%+++++++++%%%%%.%%%%%%%%%%%%%%%%%%%.%%%%%++++++%%%%",
".......%%%%%%%+++++++++%%%%%.%%%%%%%%%%%%%%%%%%%.%%%%%++++++++++++++++++++%%%%+++++++++%%%%%.%%%%%%%%%%%%%%%.....%%%++++++%%%..@",
"......%%%%%%%%+++++++++++%%%...%%%%%%%%%%%%%%%....%%%%%++++++++++++++++++++%%%+++++++++++%%%...%%%%%%%%%%........%%%++++++%%%..@",
"@.....%%%%%%+%%++++++++++%%%......%%...............%%%%++++++++++++++++++++++%%++++++++++%%%.....%%%.......+++.......++++%%%%.@@",
"@....@%%%%%%+++++++++++%%%%%%.........%%%%%++++%...%%%%++++++++++++++++++++++++++++++++%%%%%%.........++++++++++...%++++%%%%..@@",
"@....@%%%%+++++++++++%%%%%%%%%%%%%%++++++++++++++%%%%%%%+++++++++++++++++++++++++++++%%%%%%%%%%%%%%++++++++++++++++%+++%%%%...@@",
"@@..@@%%%++++++++++++++++++++%%%+++++++++++++++++%%%%%%%%++++++++++++++++++++++++++++++++++++%%%++++++++++++++++++++%%%%%%....@@",
"@@@@@@%%%++++++++++++++++++++++++++++++++++++++++++++%%%%+++++++++++++++++++++++++++++++++++++++++++++++++++++++++++%%%%%....@@@",
"@@@@@@@%%+++++++++++++++++++++++++++++++++++++++++++++%%%+++++&&+++++++++++++++++++++++++++++++++++++++++++++++++++++%%....@@@@@",
"@@@@@@@++++++++++++++++++++++++++++++++++++++++++++++++%+++++&&&&++++++++++++++++++++++++++++++++++++++++++++++++++++%%%......@@",
"@@@..@@@+++++++++++++++++++++++++++++++++++++++++++++++++++&&&&&&&&+++++++++++++++++++++++++++++++++++++++++++++++++%%%..%%%..@@",
"@@....@@+++++++++++++++++++++++++++++++++++++++++++++++++++&&&&&&&&&++++++++++++++++++++++++++++++++++++++++++++++++%%..%%%%..@@",
"@@.....@@&&+++++++++++++++++++++++++++++++++++++++++++++++%+&&&&&&&&&&&++++++++++++++++++++++++++++++++++++++++++%%%%...%%%%..@@",
"@@.....@@&&&+++++++++++%%+++++++++++++++++++++++++++++++++%%++&&&&&&&&&&&&&&&&&&+++++++++++++++++++++++++++++++++++...........@@",
"@.......@@&&&&&++++++%%%%+++++++++++++++++++++++++++++++++%%%+++&&&&&&&&&&&&&&&&+++++++++++++++++++++++++++++++++++%%%%.......@@",
"@...........&&&&&&%%%%%%+++++++++++++++++++++++++++++++++++%%%%%%+++++++++%%%%%%%%%%%%%%%+++%%%%+++++++++++++++++%%%%%%%.....@@@",
"@....%%.........%%%%%%++++++++++++++++++++++++++++++++++++++%%%%%%%%%%%%%%%%%%%%%%%%%%%%%%%%%%%%+++++++++++++++%%%%%%%%%.....@@@",
"@...%%%%........%%%%%%+++++++++++++++++++++++++++++++++++++++%%%%%%.....%%%%%%%%%%%%%%%%%%%%%%%%+++++++++++++++++++%%%%...@@@@@@",
"@...%%%%%%..........%&+++++++++++++++++++++++++++++++++++++++%%%........%%%%%%%%%%%++....%%%%%%+++++++++++++++++++++++@@@@@@@@@@",
"@@..%%%%%%%%.......%%&+++++++++++++++++++++++++++++++++++++++++.......%%%++%%++++++++++..%...%%++++++++++++++++++++++&+@@@@@.@@@",
"@@..%%%%%%%%%%.@.%%%&&++++++++++++++++++++++++++++++++++&&&+++..%%%%++++++++++++++++++++++.....%++++++++++++++++++++&&%%@@@...@@",
"@@...%%%%%%%%%@@.%%%&&&+++++++++++++++++++++++++++++&&&&&&++++.%%++++++++++++++++++++++++++....%%++++++++++++++++++&&&%%.@....@@",
"@@....%%%%%%%%@@@.%%%&&&&++++++++++++++++++++++&&&&&&&&&++++++%%+++++++++++++++++++++++++++%%%%%@+++++++++++++++++&&&%%%.@%%...@",
"@@@....%%%%%%%@@@.%%%&&&&&&&++++++++++++++++++++++&&&&&&+++++%%%+++++++++++++++++++++++++++%%%%%@++++++++++++&&&&&&&%%%%.%%%...@",
"@@@......%%%%@@%@@@%%%&&&&&&&&&&+++++%%+++++++++++++&&&&++++%%%%++++++++++++++++++++++++++++++%%@@+++++++&&&&&&&&&&&%%%%%%%%...@",
"@@@@@.....%%@@@%++%%%%%%&&&&&&&&++%%%%%++++++++++&&&&&&&&&&&%%%%+++++++++++++++++++++++++++++++%@@@++++++&&&&&&&&&&%%%%%%%%%...@",
"@@@@@@@....@@@%%++++%%%%%%%&&%%%%%%%%%++++++++&&&&&&&&&&&&&&..%%+++++++++++++++++++++++++++++++%@@@@+++++++&&&&&&&%%%%%..%%%...@",
"@@@@@@@%%%%%%%%%++++++%%%%%%%%%%%%%%++++++++&&&&&&&&&&&&&&&...%%.+++++++++++++++++++++++++++++++@.......+++&&&&&%%%%%%%..%%....@",
"@@@..@.%%%%%%%%%+++++++++++%%%%%%%%%%+++++++&&&&&&&&+++++.....%%.++++++++++++++++++++++++++++++++............%%%%%%%%%........@@",
"@@.....%%%%++%%%+++++++++++++++++%%%%%%%%%%..%%+++++%%%...%%%..%.++++++++++++++++++++++++++++++++++..........%%%%%%%%.........@@",
"@@.....%%%%+++%%++++++++++++++++++%%%%%%%......++++++++++%%%%%.%..+++++++++++++++++++++++++++++&+++++++....%%%%%%%%%%..++....@@@",
"@@......%++++++++++++++++++++++++++++++.......++++++++++++%%%%..@..++++++++++++++++++++++++++++&++++++%%%%%%%%%%%%%%%+++++..@@@@",
"@@@.....%++++++++++++++++++++++++++++%%....&&%++++++++++++%%....@@.&&+++++++++++++++++++++++++++++++++%%%%%%%%%%%%..++++++.@@@@@",
"@@@.....%++++++++++++++++++++++++++++++%...&&&+++++++++++.....@@@@@&&&+++++++++++++++++++++++++++++++++%%%%%%%%%%%++++++++...@@@",
"@@@@....%%++++++%+++++++++++++++&&&&...%&&&%&&&&&&&&&&&&%.....@@@@@&&&&+++++++++++++++++++++++++&&&&...%%%%%+++++++++++++....@@@",
"@@@@.....%++++++%%+++++++++++++&&&&&%..@@%%%&&&&&&%%%%%%%%%%...@@@@&&&&&&++++++++++++++++++++++&&&&&%..@%%%++++++++++++......@@@",
"@@@@%%%..%%%%%++%%%++++++&&&&&&&&&&&@..@..++%%%%%%%%%%%%%%%%%...@@@@&&&&&&&&&++++++++++++&&&&&&&&&&&@..@.+++++++++&++&&.......@@",
"@@@@%%%%..%%%%%%%%%&&&&&&&&&&&&&&&@@@@@.+++++++++%%%%%%%%%%%%...@@@@@@&&&%%%%%++++&&&&&&&&&&&&&&&&@@@@@.++++++++&&&&&&%.......@@",
"@@@..%%%%%%.%%%%%%%%%%&&&&&&&&&&@@@@@@@.+++++++++%%%%%%%%%%%%%...@@..@@@@%%%%%%%%%%%%%&&&&&&&&&&@....@@.+++++++&&&&&%%%..%%%%.@@",
"@@@..%%%%%%........%%%%%%%%%%%%%%%%%.@@.+++++++%%%%%%%%%%%%%%%...@@.......%%%%%%%%%%%%%%%+++++++.....@@.+++++++&&%%%%%%.%%%%%.@@",
"@@@....%%%%.....%%%%%%%%%%%%%%%%%....@@.%%++%%%%%%%%%%%%%%%%%%...@......%%%%%%%%%%%%%%%%++++++++%....@@.%%++%++%%%%%%%%%%%%%%.@@",
"@@@............%%%%%%%%%%%%%%%%%%%...@@%%%%%%%%%%%%%%%%%%%%%%%%..@.....%%%%%%%%%%%%%%%%%%%%%%+++%%...@@%%%%%%%%%%%%%%%%%%%%%..@@",
"@@@............%%%%%%%%%%%%%%%%%%%%..@@%%%%%%%%%%%%%%%%%%%%%%%%....%%%%%%%%%%%%%%%%%%%%%%%%%%%%%%%%...@%%%%%%%%%%%%%%%%%%%....@@",
"@@@...........%%%%%%%%%%%%%%%%%%%%%....%%%%%%%%%%%%%%%%%%%%%%%%....%%%%%%%%%%%%%%%%%%%%%%%%%%%%%%%%....%%%%%%%%%%%%%%%%%%.....@@",
"@@............%%%%%%%%%%%%%%%%%%%%%....%%%%%%%%%%%%%%%%%%%%%%%%.....%%%%%%%%%%%%%%%%%%%%%%%%%%%%%%%....%%%%%%%%%%%%%%%%%%.....@@",
"@@....%.......%%%%%%%%%%%%%%%%%%%%%....%%%%%%%%%%%%%%%%%%%%%%%%........%%%%%%%%%%%%%%%%%%%%%%%%%%%%....%%%%%%%%%%%%%%%%%%.....@@",
"@@....%%.....%%%%%%%%%%%%%%%%%%%%%%%.....%%%%%%%%%%%%%%%%%%%%%%.....%%%%%%%%%%%%%%%%%%%%%%%%%%%%%%%%.....%%%%%%%%%%%%%%%%.....@@",
"@@....%%%%%%%%%%%%%%%%%%%%%%%%%%%%%%......%%%%%%%%%%%%%%%%%%%%%.....%%%%%%%%%%%%%%%%%%%%%%%%%%%%%%%%.....%%%%%%%%%%%%%........@@",
"@@....%%%%%%%%%%%%%%%%%%%%%%%%%%%%%.........%%%%%%%%%%%%%%%%%%%%....%%%%%%%%%%%%%%%%%%%%%%%%%%%%%%%......%%....%%%%%..........@@",
"@@......%%%%%%%%%%%%%%%%%%%%%%%%%..............%%%%%%%%%%%%%%%%%.....%%%%%%%%%%%%%%%%%%%%%%%%%%%..............+++%%%....%.....@@",
"@@..........%%%%%%%%%%%%%%%%%%%%.......+++.......%%%%%%%%%%%%%%%.....%%%%%%%%%%%%%%%%%%%%%%%%%%%.............++++%%%%%%%%....@@@",
"@@@...........%%%%%%%%%%%%%%%%%%%%%....++++++++++%%%%%%%%%%%%%%%......%%%%%%%%%%%%%%%%%%%%%%%%%%..%%%...%++++++++%%%%%%%%....@@@",
"@@@.............%%%%%%%%%%%%%%%%%%%....%++++++++++++%%%%%%%%%%%..%%%....%%%%%%%%%%%%%%%%%%%%%%%%%%%%%...%++++++%%%%%%%%%%....@@@",
"@@@................%%%%%%%%%%%%%%%%......+++++++++%%%%%%%%%%%%%...%%%%+............%%%%%%%%%%%%%%%%%.....%++%%%%%%%%%%%%%...@@@@",
"@@@..........%%%%%%%%%%%%%%%%%%%%%%......%++++%%%%%%%%%%%%%%%%%.@@.%%%+++++++....%%%%%%%%%%%%%%%%%%......%%%%%%%%%%%%%%%%..@@@@@",
"@@@@.........%%%%%%%%%%%%%%%%%%%%%%...@...%%%%%%%%%%%%%%%%%%%%.@@@..+++++++++++++%%%%%%%%%%%%%%%%%%...@...%%%%%%%%%%%%%%...@@@@@",
"@@@@@@.....%%%%%%%%%%%%%%%%%%%%%%%%%..@...%%%%%%%%%%%%%%%%%%%..@@@...++++++++++%%%%%%%%%%%%%%%%%%%%...@....%%%%%%%%%%%%%....%%%@",
"@@@@@@@.....%%%%%%%%%%%%%%%%%%..%%%%..@@...%%%%%%%%%%%%%%%%%%..@@.....%%%%%%%%%%%%%%%%%%%%%%%%%%%%....@@...%%%%%%%%%%%%%..%%%%%@",
"@@@@@@@@......%%%%%%%%%%%%%%%...%%%%..@@...%%%%%%%%%%%%%%%.....@@....%%%%%%%%%%%%%%%%%%%%%%%%%%%%%....@@@...%%%%%%%%%%%%%+%%%%%@",
"@@@@..@@@@@.....%%%%%%%%%%%%....%%%%..@@@@..%%%%%%%%%%%%%......@@@...%%%%%%%%%%%%%%%%%%%%%%%%%%.%%....@@@@.....%%%%%%%%%+%%%%%@@",
"@@@.............%%%%%%%%%%....++%%%...@@@%%....%%%%%%%.......+++@@.....%%%%%%%%%%%%%%%%%%%%%%...%....@@@%%%+++%%%%%++++++%%%%%@@",
"@@@...........%%%%%%%%%%%%..++++%%%...@@@%%%++++++++++++++++++++@@@.......%%%%%%%%%%%%%%%%%%%%%%.....@@@@%%%+++++++++++++%%%%.@@",
"@@@@..........%%%%%%%%%%%%%.+++%%%%..@@@@@&&&++++++++++++++++&&&@@@...%%%%%%%%%%%%%%%%%%%%%%%%%%....@@@@@@&&&++++++++++++%%...@@",
"@@@@.......%%%%%%%%%%%%%%%%%%%%%%%..@@@@@@&&&&&&&+++++++++&&&&&&@@@...%%%%%%%%%%%%%%%%%%%%%%%%%%...@@@@@@@&&&&&&&++++++++.....@@",
"@@@%%%.....%%%%%%%%%%%%%%%%%%%%%%%.@@@@@@@@&&&&&&&&&&&&&++&&&&&%@@@@.....%%%%%%%%%%%%%%%%%%%%%%%...@@@@@@@@&&&&&&&&&+++.......@@",
"@@%%%%%%%%%%%%%%%%%%%%%%%%%%%%%%%@@@@@@@@@@++++&&&&&&&++++&&&%%%@@@@.....%%%%%%%%%%%%%%%%%%%%%%%@@@@@@..@@@++++&&&%%%%........@@",
"@@%%%%%%%%%+++%%%%%%%%%%%%%%%@@@@@@%%@@@@@@%%%%+%%+++%%%%%%%%%%%@@@@%.......%%%%%%%%%%%%%%%%%%%%@@@%%%..@@@%%%%+%%%%%%........@@",
"@@%%%%%%%%+++++++++++%%%%%+++++++++%%%%%@@%%%%%%%%%%%%%%%%%%++%%.@@%%%%++++%%%%%%%%%%%%%%%%%%%%.+++%%%..@@%%%%%%%%%%%%%%%%....@@"};
