/* XPM */
static char * Wall3_xpm[] = {
"128 128 18 1",
" 	c #47ABA9",
".	c #4AACAA",
"+	c #4AAAA8",
"@	c #4AABAA",
"#	c #49ACAA",
"$	c #48ABA9",
"%	c #4EADAB",
"&	c #506A69",
"*	c #8CC3C4",
"=	c #161C2E",
"-	c #506D6C",
";	c #4CACAA",
">	c #4BACAA",
",	c #49ABAA",
"'	c #506B6A",
")	c #669D9D",
"!	c #D0DEB5",
"~	c #506C6B",
"                       .++@@@@@@###########$%&&&******&==============*===&&-                                                    ",
"                       &&&&&&&&&;>,,,,,###&&&&&&&&&&&&&&&&&&&&&&&&*******&&&&&&&&                  '&&&&&&                      ",
"                &&&&====&&&&&&&&&&&&&&&&&&&&&&&&&&&&&&&&&&&&&&&***********&&&&&&&&&&&&&&&&&&&&&&&&&&&&&&&&&&&                   ",
"               &&&&===**********&&&&&&&&&&&&&&&&&&&&&&&&)))&&&)***********))))&&&&&&&&&&&&&&&&&&&&&))))))&&&&&&                 ",
"          &&&&&&&&===******************&&&&&******&&&&&))))&&&))************))))))*****))&&&****))))))))))&&&&&&                ",
"         &&&&&======******************************))&&))))))&&))))*!**********))))*****)&&********)))))))))&&&&&&&&&&&'         ",
"        &&&&========******************************))&&))!*)))&))!!!!************)))**)))&&********))***********&&&&&&&&&&&~     ",
"       &&&&&&**=====*******************************))&)!!*)))&))!!!!************))))))))&&********)***************&&&&&&&&&&&'  ",
"       &&&&)******==*******************************))))!!**))&))!!!!!!!!********)))))))&&&&&****)))****************&&&)))&&&&&  ",
" ====&&&&&)*******)==******************************))))!!**)))))!!!!!!!!!*******))))))&&&))))))))))******************&)))))&&&  ",
" ==&&&&&&*********)*))))*********************!!!***))))))**)))&&)!!!!!!!!!!!!!*))))))))))))))))))))***************!!!*))))))&&& ",
" &=&&))&*************)))))*************!!!!!!!!!**)))))))*))))&&&)))!!!!!!!!)))))))))))))))))))))))))*******!!!!!!!!!**)))))&&& ",
" &&&))))**************)))))*********!!!!!!!!!!!**))))&&)))))**)&&&&&)))))))))))))))*******)))*****))))))*!!!!!!!!!!!**)))))))&&&",
" &&)))))****************)))))))***************)))))))&&&&)))***)&&&&&)))))))))))))*****************)))))))))))))))))))))))))))&&",
" &&)))))****************))))))))))))**************)))))&&*))****)))))))))))))))))*********************))))))))))))))))****))))&&",
" &)))))))!!*************)))))))))*********************)&&***)***))))*********)))***********************)))))***************)))&&",
" &))))&))!!*************)))))))***********************)))***))))))***********)))************************)))****************)))&&",
" &)))&&))!!!!!*********)))))))************************)))*****)))************))))************************))****************)))&&",
" &&&&&&)))!!!!!!!!!*))))))))**************************)))*****)))*************)))************************))*****************))&&",
"&&&&))))))!!!!!!!!))))))))***************************)))******))**************))))************************))****************))&&",
"&&&&))))))))!!!!)))))))))****************************)))******))**************))))*************************)****************)))&",
"&&&))))**))))))***)))))******************************)))******))***************))))*****************************************)))&",
"&&&))*****)))))****))))******************************)))*******)*****************)))***************************************))))&",
"&&)))*******)))******))******************************)))*******)*****************)))))*************************************)))&&",
"&&)))&&&&&&&&&))))))***))))))))******************************)))&&&&&&&&)))))))))))****))))))))***********************)****)))&&",
"&&&&&&&))))))**********))))))))*******************************))&&&&&&)))**))**********))))))))***********************)**)))))&&",
"&&&&&)))))******************))))************************!!!***))))))************************))))**********************)))))))&&&",
"&&&)))))*******************))))))*******************!!!!!!!***))***************************))))))********************))))))))&&&",
"&&&))))********************))))))**************!!!!!!!!!!!!**))****************************))))))**************!!!!!))))))))&&&&",
"&&)))))********************))))))*****************!!!!!!!!!*))*****************************))))))*****************!!!!!)))!!!&&&",
"&&)))**)**********************))))******************!!!!!**))*********************************))))******************!!!!!!!!!&&=",
"&&)))**************************))))))**************!!!!!**))***********************************))))))**************!!**!!!!!)&&=",
"&&)))***)**********************))))))***********!!!!!!!*)))************************************))))))***********!!!****!!!!)&&&=",
"&&)))****)*********************))))))))****!!!!!!!!!!!*)))*********************)***************))))))))****!!!!!!!!***!!!!))&&&=",
"=)))))***))*******************)))))))))****!!!!!!!!!**)))**********************)**************)))))))))****!!!!!!!!**!!!))))&&==",
"=))))))**)))******))*********)))*****)))))**********)))))*********************))*************)))))***)))))*******!!!!))))))&&&==",
"==)))))))))))****)))*********)********))))))))))))))))))**!*******************)))************))))*****)))))))))))))))))))&&&&&==",
"==)))))))))))))))))*********************)))))))))))))))))*!!******************))))************))********)))))))))))))))&&&&&&&==",
"==)))))))))))))))))******************)))))))))))))&&&&&))*!!!*************)))))))))******************)))))))))))))&&&&&&&&&&&&&=",
"&&&=))))))))))))))))))*****************))*******))&&&&&)))!!!************)))))))))))))*****************))*******))&&&&&&=====&&=",
"&&&====)))))))))**)))))**************************))&&&&)))*!!!**********))))))))**))))&))*)))********************))&&&)))))==&&=",
"==========)))*******))))))************************))&&&&)))!!!!*********)))))*****)))&&&))))**********************))&&))))))====",
"=====*****************))))))************************)&&&))))!!!!!!!!!!!***********))&&&&))))************************)&)))))))===",
"====******************)))))**************************)&&&)))*!!!!!!!!*************&&&&&&)))**************************)&&)))))===",
"===*********************))***)))*********************))&&)))))*******************&&&&&))*****)))*********************))&)))))&==",
"===***********************))))))*********************))&&))))*!!*****************)))&&)***)))))**********************))&&))))&==",
"==************************)))))**********************))&&))!!!!!*****************)))&&)***)))))**********************))&&))))&==",
"==*******************))**))))))))*********************)&&)*!!!!*****************)))&&&****)))))***********************)&&))))&&=",
"==***************)))))***))))))))*********************&&&)*!!!!!!!!!!**********))))&&))***))))))**********************))))))&&&=",
"==)**********))))))))))****))))))*********************&&&)**!!!!!!!!!!!******)))))&&*))****))))))*********************))))))&&&=",
"==)))*******))))))))))))))**********************!!!***&&&&)**!!!!!!!!!!!!**))))))&&**)))******************************)))))&&&&=",
"=&&))))))))))))))))))))*******************!!!!!!!!!***&&&&&&)***!!!!!!!!!))))))&&&***))***************************!***)))))&&))&",
"&&&)))))))))&*************************!!!!!!!!!!!!***&&&&&&&&&&*********))))))**************************************)))))&&&)))&",
"&&&&)))))&&&*************************************)))&&&)))&&&&&&)))))))))))))************************************)))))))&&&&)))&",
"&&&&&&&&&&&&*******************************************)))))))))))))))))))))*****************************************)))))))&&&&",
"&&&&&&&&&&&**********************************************))))))*********)))********************************************))))))&&&",
"&&&&&&&&&&&**********************************************))))***********)))*********************************************)))))&&&",
"&&&&&&))&&&**********************************************)))************))))********************************************))))))&&",
"&&&)))))))&&*********************************************)))*************)))********************************************))))))&&",
"&&&))))))))&&*******************************************)))**************))))*******************************************)))))))&",
"&&&))))))))&&&******************************************))))*************))))*******************************************)))))))&",
"&&))))))))))&&&*****************************************))))**************))))******************************************)))))))&",
"&&))))))))))&&&*****************************************)))*****************)))*****************************************)))))))&",
"&&)))))))))))&&&*****************************************))*****************)))****************************************))***))&&",
"=&)))))))))))))))************************************************************))*)*************************************))****)&&=",
"==&))***))))))))))))*************************************)))******************)*))***********************************)*****))&==",
"===&)****)))))))))))*************************!!!!!!!**))))))*****************))))))**************************!!!!!!!******))&&==",
"&&&=&*******))))******))******************!!!!!!!!!))))))))****************)))))))****))******************!!!!!!!!!))))))))&&===",
"&&&=&&******)))*******)))*******************!!!!!))))))))*************)))))))))**)****)))*******************!!!!!))))))))))==&&=",
"=&&===&&&&&&))*********)))))******************)))))))))**************)))))))))***)*****)))))******************))))))))))))==&&&=",
"======&&&&&&))*********)))))))*********)))))))))&)))))**************))))))))))*********)))))))*********))))))))))&&))))=====&&&=",
"===&&))&&&&)))*********))))&&&))))))))))))))))))&)))))********************))))*********)))))&)))))))))))))))))))&&&))))))))))===",
"===)))))))))))***********)))&&&&&)))&&&&&&&&&&&&&&))))*********************)))***********)))&&&)))))))))))))))&&&&)))*)))))))===",
"==&)))))))))*************))))&&&&&&&&&&&&****&&&&&&)))***********************))**********)))&&&&&&))&&&&&&&&&&&&&&&))*******)===",
"==&))))))))************))))))))&&&&&&&)))*****))&&&)))*********************************))))))&&&&&&&&&)))*******&&&)))******))==",
"=&)))))))))**********))))))))))))))**************&&&))*******************************))))))))))))))******************)*****)))==",
"=&)))))))))******************)))*****************))))))**************************************)))**********************))))))))&&",
"&&)))))))))****************************************)))))))************************************************************)))))))&&&",
"&&)))))))))******************************************))))))***!!******************************************************)))))))&&&",
"&&)))))))))**************************************************!!!!*******************************************************)))&&&&&",
"&&&)***))))************************************************!!!!!!!!*******************************************************)&&&&&",
"&&&)****))))***********************************************!!!!!!!!!*****************************************************)))&&&&",
"&&&&)****)))))********************************************)*!!!!!**!!!!****************************************************)))&&",
"&&&&&)***)))))****************!***************************))**!!!***!!!!!!!!!!*********************************************))))&",
"&&)&&&&**)))))))*************!!**)************************)))***!!**!!!!!!!!!!!!*******************************************))))&",
"&&))))&&))))))))************!!**))*************************))))))*********)))))))**************************)***************))))&",
"&&))))))))))**************!!!**))***************************)))))))))))))))))))))))))))))*****))***********))************!!)))&&",
"&&&))))))))))**********!!!!!!*)))****************************))))))&&&&)))))))))))))*********)))***********))**********!!!!)))&&",
"&&&&))))))))))********!!!!!*))))*****************************)))&&&&&&&&)))))))))))****))))))))*************)))*****!!!!!!)))&&=",
"&&&&&&)))))))))))*********)))&))******************************))&&&&&&)))**************))))))))**************)))))**!!!!!))))&&=",
"&&&)))))))))))))))))***))))&&&))************************!!!***))))))************************))))*************)))))))))))))))&===",
"&&&)))))))))***********))))&&&&)********************!!!!!!!***)))****************************))))***********))******)))))))&====",
"&&))))))))*****************))&&)***************!!!!!!!!!!!!**))******************************))))********************))))&&&&&==",
"&&)))))))******************)))&&&*****************!!!!!!!!!*))******************************)))))*********************))))))&&==",
"&&)))))))*********************)&&)******************!!!!!**))*****************************))))))))********************)))))))&&&",
"&&))))))***********************)))*****************!!!!!**))**********************************)))))))************!!**)***)))&&&&",
"&&&)))))***********************)))))************!!!!!!!*)))************************************))))))*!!*******!!!!******))&&&&&",
"=&&)))))*!!********************))))))))******!!!!!!!!!*)))*********************)***************)))))))!!!!!!!!!!!!))****))&&)))&",
"=&&&))))*!!!******************)))))))))****!!!!!!!!!**)))**********************)**************))))))))))!!!!!!!!)))))))))&&))))&",
"==&&&))))!!!!*****************))))***)))))**********)))))*********************))*************)))))***)))))****))))))))))&&)))))&",
"===&&&&&))!!!!!*))***********))))*****))))))))))))))))))**!****))*************)))************))))*****)))))))))))))))&&&&&)))))=",
"&&=&&&&&&&******)))***********))********)))))))))))))))))*!!***)))**********))))))************))********)))))))&&&&&&&&&&&))))==",
"&&&==&&&&&&&&&&))))******************)))))))))))))&&&&&))*!!!**))))*******)))))))))******************)))))))))))&&&&&&&&&&&=====",
"&&&=====&&&&&&&))))))******************))*******))&&&&&)))!!!***)))******)))))))))))))*****************))*********&&&&&&========",
"====&&&&&)))))****))))*****))********************))&&&&)))*!!!**********))))))))**)))&&))*)))**********************&&&&&&&======",
"===&&&)))))))*******&&&***))**********************))&&&&)))!!!!*********)))))*****))&&&&))))**************************&&&))))&==",
"===&&)))))**)********&&&&&))************************)&&&))))!!!!!!!!!!!***********)&&&))))))**************************&&)))))&==",
"===&))))))***********&&))))**************************)&&&)))*!!!!!!!!***************&&)))))****************************&&)))))==",
"===&))))))***********&))*****)))*********************))&&)))))**********************&&))*****)))***********************&&)))))==",
"===&)))))))*)*******&&)***))))))*********************))&&))))*!!********************&))***))))))***********************&&)))))&&",
"==&&)))))))))*******&&)***)))))**********************))&&))!!!!!******************))&))***)))))************************&&)))))&&",
"==&&&))))))))*******&&***))))))))*********************)&&)*!!!!*****************))))&))****))))************************&)))))&&&",
"==&&&)))))))))****&&&&***))))))))*********************))))*!!!!!!!!!!*********)))))&&))****))))))******************!!!***)))&&&&",
"==)))&)))))))))))&&&&))****))))))*********************))))**!!!!!!!!!!!******))))))))&)*****)))))****************!!!!!***))&&))&",
"==)))))))))))))))&&&))))))**********************!!!***)))))**!!!!!!!!!!!!**))))))))))&&************************!!!!!!****))&)))&",
"==&)))&))))))))))))))))*******************!!!!!!!!!***))))&&)***!!!!!!!!!))))))))))))***********************!!!!!!!!!***)))))))&",
"=&&&))&&))))))************************!!!!!!!!!!!!**))))))&&&&&*********))))))**************************!!!!!!!!!!!!!**))&&))))&",
"=&&&&&&&&&)))************************************)))))))))&&&&&&)))))))))))))***************************!!!!!!!!!!*)&&&&&&&)))&&",
"=&&&&&&&))))*****************************************)))))))))))))))))))))))*******************************************&&&&&&&&&",
"=&&&&))))))**********************************************))))))*********)))*********************************************&&&))&&&",
"&&&&)))))))**********************************************))))***********)))**********************************************&&)))&&",
"&&&&))))))))*********************************************)))************))))**********************************************&)))&&",
"&&&)))))***)*********************************************)))*************)))*!!*******************************************))))&&",
"&&&)))))***)********************************************)))**************))))!!!******************************************))))&&",
"&&&))))))**))*******************************************))))*************))))*!!!!***************************************)))))&&",
"&&&)))))))))))******************************************))))**************))))!!!!!**************************************)))))&&",
"&&&))))))))))))*****************************************)))*****************)))!!!!**************************************)***)&&",
"&&&&)))))))))))******************************************))*****************)))*!!!!!************************************)***)&&"};
