/* XPM */
static char * lp3_xpm[] = {
"64 64 344 2",
"  	c None",
". 	c #1E353E",
"+ 	c #386F6E",
"@ 	c #3B7678",
"# 	c #346F7E",
"$ 	c #192737",
"% 	c #161C2E",
"& 	c #387276",
"* 	c #56ACA7",
"= 	c #50A2A4",
"- 	c #57AEAA",
"; 	c #4B9BA1",
"> 	c #3D8496",
", 	c #2A455A",
"' 	c #458B8C",
") 	c #5AB2AC",
"! 	c #55AAA8",
"~ 	c #5AB3AC",
"{ 	c #52A6A6",
"] 	c #3E8698",
"^ 	c #3D7B8F",
"/ 	c #243048",
"( 	c #316163",
"_ 	c #57AEA9",
": 	c #52A5A1",
"< 	c #55A9A3",
"[ 	c #3F7D7B",
"} 	c #34676B",
"| 	c #357181",
"1 	c #3E8597",
"2 	c #325269",
"3 	c #4C9A9B",
"4 	c #48918F",
"5 	c #4E9B98",
"6 	c #54A8A2",
"7 	c #274A4F",
"8 	c #1F273D",
"9 	c #394669",
"0 	c #3F5F7E",
"a 	c #3F758C",
"b 	c #2E3A57",
"c 	c #192536",
"d 	c #4A9097",
"e 	c #31646C",
"f 	c #51A3A3",
"g 	c #213E4B",
"h 	c #313D5C",
"i 	c #3F4D74",
"j 	c #395672",
"k 	c #2E3B58",
"l 	c #181F32",
"m 	c #191F32",
"n 	c #3B677F",
"o 	c #33566C",
"p 	c #386D81",
"q 	c #171D30",
"r 	c #171D2F",
"s 	c #244857",
"t 	c #31586D",
"u 	c #316072",
"v 	c #171C2E",
"w 	c #D9BF99",
"x 	c #282B38",
"y 	c #A9A4A0",
"z 	c #A79E95",
"A 	c #383D4B",
"B 	c #414961",
"C 	c #44485B",
"D 	c #9A836E",
"E 	c #796756",
"F 	c #D3D2CB",
"G 	c #E5D3BC",
"H 	c #70614E",
"I 	c #C5B899",
"J 	c #EDE2CC",
"K 	c #EFE7DD",
"L 	c #F4EFE2",
"M 	c #F6F2E3",
"N 	c #C9C0AF",
"O 	c #716B6B",
"P 	c #3A3339",
"Q 	c #C9C5A2",
"R 	c #FEFDFB",
"S 	c #AEA89B",
"T 	c #615346",
"U 	c #D9BF8E",
"V 	c #F3EAD2",
"W 	c #FAF5E7",
"X 	c #F7F0DC",
"Y 	c #F4EAC9",
"Z 	c #EFE1AC",
"` 	c #E5D19D",
" .	c #AE9173",
"..	c #695750",
"+.	c #C3BA8C",
"@.	c #EADBC8",
"#.	c #F3EEDA",
"$.	c #BAA17B",
"%.	c #AE9C77",
"&.	c #EBDBA7",
"*.	c #BBB3AA",
"=.	c #F6F0DB",
"-.	c #F0E2AF",
";.	c #EFE2AE",
">.	c #EFE0AA",
",.	c #DEC592",
"'.	c #C3A47B",
").	c #8E7466",
"!.	c #1F2130",
"~.	c #8D8063",
"{.	c #DCC693",
"].	c #EEE5C6",
"^.	c #AFAEA6",
"/.	c #242431",
"(.	c #CBC19F",
"_.	c #D2BC97",
":.	c #413F42",
"<.	c #F7F3E5",
"[.	c #F1E5B8",
"}.	c #EEE0AA",
"|.	c #DFC693",
"1.	c #D5B583",
"2.	c #CEAF80",
"3.	c #907666",
"4.	c #3C343A",
"5.	c #262631",
"6.	c #BDA176",
"7.	c #DBC28E",
"8.	c #DFD8A3",
"9.	c #373839",
"0.	c #60564B",
"a.	c #E7D8B5",
"b.	c #A58D69",
"c.	c #34363E",
"d.	c #DCC28F",
"e.	c #D4B483",
"f.	c #A1846E",
"g.	c #5D4D49",
"h.	c #2D2B33",
"i.	c #4F453E",
"j.	c #73624E",
"k.	c #D8CA96",
"l.	c #A5A17B",
"m.	c #222531",
"n.	c #8C8165",
"o.	c #50463F",
"p.	c #232836",
"q.	c #C1BFBA",
"r.	c #C8BD92",
"s.	c #BAA57C",
"t.	c #B39870",
"u.	c #CBAC7D",
"v.	c #C4A57C",
"w.	c #927965",
"x.	c #4D4142",
"y.	c #615446",
"z.	c #AE946D",
"A.	c #534840",
"B.	c #252631",
"C.	c #BDA075",
"D.	c #9B8564",
"E.	c #D4CD9B",
"F.	c #7E7761",
"G.	c #A0947E",
"H.	c #202230",
"I.	c #32343A",
"J.	c #383739",
"K.	c #938B6D",
"L.	c #CDBC8E",
"M.	c #D4B583",
"N.	c #8D7365",
"O.	c #171D2E",
"P.	c #5A4E43",
"Q.	c #BB9F74",
"R.	c #585955",
"S.	c #285362",
"T.	c #B8AD85",
"U.	c #A19974",
"V.	c #C7BC91",
"W.	c #E7D7B4",
"X.	c #71614E",
"Y.	c #868689",
"Z.	c #F5F1E2",
"`.	c #ECDFAA",
" +	c #E3CE9A",
".+	c #D6B684",
"++	c #AC8F72",
"@+	c #6E5B52",
"#+	c #564B41",
"$+	c #947D62",
"%+	c #A78C6F",
"&+	c #67797A",
"*+	c #347081",
"=+	c #BCA075",
"-+	c #806E58",
";+	c #BEA67A",
">+	c #2F2E36",
",+	c #428483",
"'+	c #2F5D5E",
")+	c #B1A27C",
"!+	c #F2E6C0",
"~+	c #B7A078",
"{+	c #9D9C9D",
"]+	c #F1E5BA",
"^+	c #ECDCA7",
"/+	c #967F60",
"(+	c #A7A17B",
"_+	c #B9AB80",
":+	c #AB9B74",
"<+	c #988161",
"[+	c #BDA57F",
"}+	c #478898",
"|+	c #3E8798",
"1+	c #72614E",
"2+	c #987E67",
"3+	c #947E5F",
"4+	c #947F61",
"5+	c #326771",
"6+	c #408488",
"7+	c #615E51",
"8+	c #E9DAA5",
"9+	c #ECDEBA",
"0+	c #E1DDD1",
"a+	c #EFE2AD",
"b+	c #E7D49F",
"c+	c #C8AA7C",
"d+	c #6D5E4C",
"e+	c #B39D75",
"f+	c #625748",
"g+	c #D6B987",
"h+	c #DBC693",
"i+	c #56A1A2",
"j+	c #428C9A",
"k+	c #1C2030",
"l+	c #846C60",
"m+	c #534644",
"n+	c #6C5F4F",
"o+	c #357080",
"p+	c #4B999A",
"q+	c #2A3750",
"r+	c #897862",
"s+	c #EBDCA8",
"t+	c #F5ECCD",
"u+	c #EEE0AB",
"v+	c #CEBE90",
"w+	c #272731",
"x+	c #B29C74",
"y+	c #89755A",
"z+	c #DCC48F",
"A+	c #D3D6A7",
"B+	c #509EA2",
"C+	c #397180",
"D+	c #244958",
"E+	c #344B68",
"F+	c #212436",
"G+	c #303A57",
"H+	c #3A7186",
"I+	c #336979",
"J+	c #233A48",
"K+	c #7F7962",
"L+	c #B7AC85",
"M+	c #726450",
"N+	c #232633",
"O+	c #242D47",
"P+	c #324160",
"Q+	c #283D54",
"R+	c #AF956E",
"S+	c #9F8568",
"T+	c #D5B684",
"U+	c #E2D09A",
"V+	c #BDBA97",
"W+	c #4D8F9B",
"X+	c #999D8F",
"Y+	c #A49173",
"Z+	c #172031",
"`+	c #344062",
" @	c #323E5E",
".@	c #57504E",
"+@	c #998067",
"@@	c #735F56",
"#@	c #405D7D",
"$@	c #354263",
"%@	c #192034",
"&@	c #2E3856",
"*@	c #3C4C70",
"=@	c #3F6B85",
"-@	c #3E7F93",
";@	c #293751",
">@	c #B0966F",
",@	c #B09374",
"'@	c #D3B484",
")@	c #B0B396",
"!@	c #DFDDAA",
"~@	c #D8BC89",
"{@	c #B1976F",
"]@	c #1F263D",
"^@	c #605247",
"/@	c #C9AB7C",
"(@	c #D3B382",
"_@	c #80695C",
":@	c #171E30",
"<@	c #355C72",
"[@	c #3F6682",
"}@	c #3F5075",
"|@	c #3E8094",
"1@	c #294156",
"2@	c #957E64",
"3@	c #AAA78F",
"4@	c #6B9D9D",
"5@	c #9DBEA7",
"6@	c #E3D29B",
"7@	c #847057",
"8@	c #544940",
"9@	c #937B63",
"0@	c #3E363C",
"a@	c #3E758B",
"b@	c #3E768C",
"c@	c #3E768D",
"d@	c #3E7189",
"e@	c #3F5779",
"f@	c #29334E",
"g@	c #917962",
"h@	c #355763",
"i@	c #428B9A",
"j@	c #49979F",
"k@	c #9CA393",
"l@	c #D5B683",
"m@	c #C8AA7B",
"n@	c #322E34",
"o@	c #181E31",
"p@	c #374466",
"q@	c #181E32",
"r@	c #5F6366",
"s@	c #428798",
"t@	c #BFAC88",
"u@	c #5C4F44",
"v@	c #4E4142",
"w@	c #2E5765",
"x@	c #488796",
"y@	c #C6A97D",
"z@	c #66544E",
"A@	c #325663",
"B@	c #564D45",
"C@	c #1E2030",
"                                                                                                                                ",
"                                                                                                                                ",
"                                                                                                                                ",
"                                                                                                                                ",
"                                                                                                                                ",
"                                                                                                                                ",
"                                                                                                                                ",
"                                                                                                                                ",
"                                                                                                                                ",
"                                                                                                                                ",
"                                                                                                                                ",
"                                                                                                                                ",
"                                                                                                                                ",
"                                                                                                                                ",
"                                                                                                                                ",
"                                                                                                                                ",
"                                                                  . + @ # $ %                                                   ",
"                                                                & * = - ; > , %                                                 ",
"                                                              ' ) ! - ~ { ] ^ /                                                 ",
"                                                            ( _ : { < [ } | 1 2                                                 ",
"                                                            3 4 5 6 7 8 9 0 a b                                                 ",
"                                                          c d e f g % h i j k l                                                 ",
"                                                          m n o p q   r l q                                                     ",
"                                                            s t u v                                                             ",
"                                  w                     x y z A B C D E                                                         ",
"                                  F G                   H I J K L M N O P                                                       ",
"                                  Q R S               T U V W X Y Z `  ...%                                                     ",
"                                  +.@.#.$.            %.&.*.=.-.;.>.,.'.).!.                                                    ",
"                                  ~.{.].^.          /.(._.:.<.[.}.|.1.2.3.4.                                                    ",
"                                  5.6.7.8.9.        0.a.b.c.M [.d.1.1.e.f.g.      h.i.                                          ",
"                                    j.e.k.l.        m.n.o.p.q.r.s.t.u.v.w.x.%   y.z.A.                                          ",
"                                    B.C.D.E.9.      F.G.H.r I.J.K.L.M.'.N.!.O.P.Q.R.S.                                          ",
"                                      j.6.T.U.      V.W.X.Y.Z.`. +.+'.++@+#+$+%+&+> *+                                          ",
"                                      B.=+-+;+>+,+'+)+!+~+{+]+^+.+1./+(+_+:+<+[+}+|+*+                                          ",
"                                        1+2+3+4+5+6+7+8+9+0+a+b+e.c+d+e+f+C.g+h+i+j+*+                                          ",
"                                        k+l+m+n+o+p+q+r+s+t+u+v+X.w+r x+y+1.z+A+B+] C+                                          ",
"                                      D+E+F+G+H+I+J+9 9 K+L+M+N+O+P+Q+R+S+T+U+V+W+X+Y+                                          ",
"                                      Z+O+`+ @.@+@@@b #@$@%@&@*@=@-@;@>@,@1.'@)@!@~@{@                                          ",
"                                        ]@8 ^@/@(@_@:@<@[@}@[@|@] |@1@R+2@3@4@5@6@T+7@                                          ",
"                                            8@>@9@0@% Z+u a@b@c@d@e@f@g@h@i@j@k@l@m@n@                                          ",
"                                              % o@p@q@  % l l l l l r g.r@1 s@t@c+u@                                            ",
"                                                  o@      % % %   % % v v@w@x@y@u@                                              ",
"                                                          % % %   % %   % z@A@B@                                                ",
"                                                                          C@v                                                   ",
"                                                                                                                                ",
"                                                                                                                                ",
"                                                                                                                                ",
"                                                                                                                                ",
"                                                                                                                                ",
"                                                                                                                                ",
"                                                                                                                                ",
"                                                                                                                                ",
"                                                                                                                                ",
"                                                                                                                                ",
"                                                                                                                                ",
"                                                                                                                                ",
"                                                                                                                                ",
"                                                                                                                                ",
"                                                                                                                                ",
"                                                                                                                                ",
"                                                                                                                                ",
"                                                                                                                                ",
"                                                                                                                                ",
"                                                                                                                                "};
