/* XPM */
static char * lp4_xpm[] = {
"64 64 347 2",
"  	c None",
". 	c #1B2D38",
"+ 	c #1D333D",
"@ 	c #2D606F",
"# 	c #28505C",
"$ 	c #458A87",
"% 	c #4D9B9C",
"& 	c #58B0AA",
"* 	c #4A969A",
"= 	c #244957",
"- 	c #161C2E",
"; 	c #3E7F87",
"> 	c #59B1AB",
", 	c #55AAA8",
"' 	c #52A6A6",
") 	c #58AFAA",
"! 	c #428B99",
"~ 	c #2A4459",
"{ 	c #387175",
"] 	c #59B0AA",
"^ 	c #4C9898",
"/ 	c #59B1AA",
"( 	c #4C9792",
"_ 	c #4A9595",
": 	c #3E8697",
"< 	c #38677D",
"[ 	c #1E263C",
"} 	c #182636",
"| 	c #4F9F9E",
"1 	c #3D7B7B",
"2 	c #54A7A2",
"3 	c #52A4A0",
"4 	c #284C50",
"5 	c #2A3550",
"6 	c #356479",
"7 	c #3E758C",
"8 	c #253049",
"9 	c #192335",
"0 	c #458190",
"a 	c #346A73",
"b 	c #488E97",
"c 	c #1A2938",
"d 	c #3C4A6F",
"e 	c #404F75",
"f 	c #3F6B86",
"g 	c #3E7189",
"h 	c #202A40",
"i 	c #191F32",
"j 	c #3B677F",
"k 	c #2F4B62",
"l 	c #346E7F",
"m 	c #202940",
"n 	c #3C496E",
"o 	c #3F5578",
"p 	c #395773",
"q 	c #232430",
"r 	c #304C58",
"s 	c #305167",
"t 	c #315268",
"u 	c #1C2031",
"v 	c #41383C",
"w 	c #192033",
"x 	c #171D30",
"y 	c #D5B685",
"z 	c #252937",
"A 	c #C7C0B9",
"B 	c #D8D2CB",
"C 	c #9D9EA0",
"D 	c #9FA1A7",
"E 	c #A1A3AA",
"F 	c #CABBAE",
"G 	c #928477",
"H 	c #D9D2CA",
"I 	c #DCC29E",
"J 	c #262631",
"K 	c #A48C68",
"L 	c #D4C598",
"M 	c #EADAB2",
"N 	c #EDE0C5",
"O 	c #F2E7C9",
"P 	c #F4EBCB",
"Q 	c #C4B58D",
"R 	c #796759",
"S 	c #4D4142",
"T 	c #CCC9AE",
"U 	c #FAF7F3",
"V 	c #9A8E80",
"W 	c #7A6953",
"X 	c #E3CF9C",
"Y 	c #F6F2E8",
"Z 	c #FEFDFB",
"` 	c #F8F2DE",
" .	c #EFE1AC",
"..	c #E1CA97",
"+.	c #B69876",
"@.	c #756057",
"#.	c #171C2E",
"$.	c #C6C091",
"%.	c #F2EADF",
"&.	c #E7E1CC",
"*.	c #D1B384",
"=.	c #C0B187",
"-.	c #E6D3A0",
";.	c #7E7160",
">.	c #F1E7C4",
",.	c #EFE1AB",
"'.	c #EAD9A4",
").	c #DBC08D",
"!.	c #C4A57C",
"~.	c #947969",
"{.	c #222331",
"].	c #AD9E77",
"^.	c #E0CAA1",
"/.	c #F4EEDA",
"(.	c #9B9691",
"_.	c #5D5145",
":.	c #D5C8A4",
"<.	c #C4AD8D",
"[.	c #393A42",
"}.	c #FBFAF8",
"|.	c #F2E8C2",
"1.	c #E7D49F",
"2.	c #D5B583",
"3.	c #D3B382",
"4.	c #927767",
"5.	c #4E4142",
"6.	c #333236",
"7.	c #CBB181",
"8.	c #E0CD99",
"9.	c #D4CFA6",
"0.	c #292B33",
"a.	c #3A393D",
"b.	c #E4D5B2",
"c.	c #947E5F",
"d.	c #33353E",
"e.	c #F4EFDD",
"f.	c #EFE2AD",
"g.	c #DEC592",
"h.	c #D4B583",
"i.	c #A78B71",
"j.	c #5D4D49",
"k.	c #D5B684",
"l.	c #E6DAA2",
"m.	c #807D62",
"n.	c #232631",
"o.	c #363538",
"p.	c #202230",
"q.	c #171D2F",
"r.	c #858587",
"s.	c #948C6F",
"t.	c #897A5F",
"u.	c #998363",
"v.	c #CAAB7D",
"w.	c #BD9F79",
"x.	c #81695D",
"y.	c #3A3239",
"z.	c #937E5F",
"A.	c #6B5C4B",
"B.	c #322E34",
"C.	c #C8AA7C",
"D.	c #A08F6C",
"E.	c #CFC997",
"F.	c #A69D7B",
"G.	c #C9B794",
"H.	c #2D2B33",
"I.	c #2C303C",
"J.	c #959182",
"K.	c #958D6F",
"L.	c #C7BB8F",
"M.	c #E1CC98",
"N.	c #C7A87D",
"O.	c #8E7465",
"P.	c #1F2130",
"Q.	c #2A2932",
"R.	c #AE946D",
"S.	c #867359",
"T.	c #1F3846",
"U.	c #B39870",
"V.	c #C6BC90",
"W.	c #7F7C62",
"X.	c #C8BC91",
"Y.	c #F0E5CC",
"Z.	c #947F62",
"`.	c #9B9C9D",
" +	c #F8F2DD",
".+	c #DCC18E",
"++	c #BEA07A",
"@+	c #997D6B",
"#+	c #5E4E4A",
"$+	c #574945",
"%+	c #A18869",
"&+	c #888170",
"*+	c #387788",
"=+	c #347080",
"-+	c #C6A87A",
";+	c #8D7E64",
">+	c #C0AC7F",
",+	c #232531",
"'+	c #326364",
")+	c #27494E",
"!+	c #9E906F",
"~+	c #C6B084",
"{+	c #9F9C95",
"]+	c #F1E5B8",
"^+	c #E9D8A3",
"/+	c #AB916D",
"(+	c #93886D",
"_+	c #998968",
":+	c #B5A279",
"<+	c #B0966F",
"[+	c #AB9579",
"}+	c #508593",
"|+	c #3E8698",
"1+	c #347081",
"2+	c #937C61",
"3+	c #726351",
"4+	c #42888D",
"5+	c #377075",
"6+	c #313338",
"7+	c #D7C594",
"8+	c #F0E3BE",
"9+	c #F6F1DE",
"0+	c #50463F",
"a+	c #B7A67B",
"b+	c #827C61",
"c+	c #978262",
"d+	c #BEA276",
"e+	c #D2B584",
"f+	c #4F949D",
"g+	c #428C9A",
"h+	c #282732",
"i+	c #8D7365",
"j+	c #635549",
"k+	c #927D5E",
"l+	c #2A5866",
"m+	c #52A5A4",
"n+	c #223144",
"o+	c #5E575B",
"p+	c #E0D2A1",
"q+	c #F3E9C7",
"r+	c #DCCC9B",
"s+	c #A29674",
"t+	c #181F32",
"u+	c #1D253A",
"v+	c #877559",
"w+	c #DDC692",
"x+	c #E0DEAA",
"y+	c #57A5A5",
"z+	c #213F4E",
"A+	c #2D425B",
"B+	c #4E4243",
"C+	c #3D3945",
"D+	c #315C70",
"E+	c #3A7D8E",
"F+	c #2A5664",
"G+	c #313E5D",
"H+	c #3C5A78",
"I+	c #363844",
"J+	c #7B755E",
"K+	c #282833",
"L+	c #242D47",
"M+	c #32405F",
"N+	c #3C617C",
"O+	c #29344F",
"P+	c #AF956E",
"Q+	c #988063",
"R+	c #E2D19B",
"S+	c #C1C29D",
"T+	c #46929D",
"U+	c #648D96",
"V+	c #878678",
"W+	c #1E3847",
"X+	c #253149",
"Y+	c #2A3451",
"Z+	c #345667",
"`+	c #6B5B54",
" @	c #3C5B79",
".@	c #3C5374",
"+@	c #2A3450",
"@@	c #39476A",
"#@	c #3F5F7E",
"$@	c #3E8094",
"%@	c #3F738B",
"&@	c #293F55",
"*@	c #B0966E",
"=@	c #AB8F71",
"-@	c #B8B291",
";@	c #BAC6A5",
">@	c #D3B685",
",@	c #B2986F",
"'@	c #29324D",
")@	c #2D3755",
"!@	c #3F373D",
"~@	c #B1966F",
"{@	c #CDAE80",
"]@	c #80695D",
"^@	c #1E3646",
"/@	c #3B6D84",
"(@	c #3F6683",
"_@	c #3E7B91",
":@	c #3E8597",
"<@	c #3F7089",
"[@	c #A3896B",
"}@	c #C9B086",
"|@	c #9AA292",
"1@	c #9DB7A3",
"2@	c #E7DBA3",
"3@	c #D8BB88",
"4@	c #957F60",
"5@	c #6F5F4C",
"6@	c #D1B281",
"7@	c #BB9D78",
"8@	c #5F4F4A",
"9@	c #1E2B3F",
"0@	c #31596E",
"a@	c #355D74",
"b@	c #364E6A",
"c@	c #364264",
"d@	c #242D46",
"e@	c #A08768",
"f@	c #596161",
"g@	c #4E929C",
"h@	c #4FA0A3",
"i@	c #94AE9D",
"j@	c #D8BC89",
"k@	c #D2B382",
"l@	c #5B4F43",
"m@	c #181D2E",
"n@	c #232432",
"o@	c #313C5B",
"p@	c #735E55",
"q@	c #475E67",
"r@	c #3F8798",
"s@	c #B4A78A",
"t@	c #D3B482",
"u@	c #877358",
"v@	c #171E30",
"w@	c #212230",
"x@	c #665551",
"y@	c #367080",
"z@	c #488897",
"A@	c #D0B283",
"B@	c #1C1F2F",
"C@	c #5B4D4B",
"D@	c #3E707E",
"E@	c #837159",
"F@	c #1B2131",
"                                                                                                                                ",
"                                                                                                                                ",
"                                                                                                                                ",
"                                                                                                                                ",
"                                                                                                                                ",
"                                                                                                                                ",
"                                                                                                                                ",
"                                                                                                                                ",
"                                                                                                                                ",
"                                                                                                                                ",
"                                                                                                                                ",
"                                                                                                                                ",
"                                                                                                                                ",
"                                                                                                                                ",
"                                                                                                                                ",
"                                                                                                                                ",
"                                                                    . + @                                                       ",
"                                                                # $ % & * = -                                                   ",
"                                                              ; > , ' ) , ! ~                                                   ",
"                                                            { ] ^ ' / ( _ : < [                                                 ",
"                                                          } | 1 2 3 4 [ 5 6 7 8                                                 ",
"                                                          9 0 a b c [ d e f g h                                                 ",
"                                                          i j k l - m n o p 5                                                   ",
"                                                          q r s t u v u w x                                                     ",
"                                  y                     z A B C D E F G -                                                       ",
"                                  H I                 J K L M N O P Q R S                                                       ",
"                                  T U V               W X Y Z ` P  ...+.@.#.                                                    ",
"                                  $.%.&.*.            =.-.;.>.,.,.'.).!.~.{.                                                    ",
"                                  ].^./.(.          _.:.<.[.}.|.1.).2.3.4.5.                                                    ",
"                                  6.7.8.9.0.        a.b.c.d.e.f.g.2.2.h.i.j.-       q                                           ",
"                                    c.k.l.m.        n.o.p.q.r.s.t.u.v.w.x.y.-     z.A.                                          ",
"                                    B.C.D.E.0.      F.G.H.I.J.K.L.M.h.N.O.P.  Q.R.S.T.                                          ",
"                                      c.U.V.W.      X.Y.Z.`. + ..+2.++@+#+p.$+%+&+*+=+                                          ",
"                                      B.-+;+>+,+'+)+!+ .~+{+]+^+2.2./+(+_+:+<+[+}+|+1+                                          ",
"                                        c.2+K 3+4+5+6+7+8+9+ .1.C.K 0+a+b+c+d+e+f+g+1+                                          ",
"                                        h+i+j+k+l+m+n+o+p+q+r+s+H.t+u+:+v+2.w+x+y+|+1+                                          ",
"                                      z+A+B+C+D+E+F+G+H+I+J+K+L+M+N+O+P+Q+k.R+S+T+U+V+                                          ",
"                                      W+X+Y+n Z+`+j.[  @.@+@@@#@$@%@&@*@=@2.k.-@;@>@,@                                          ",
"                                        '@)@!@~@{@]@- ^@/@(@_@|+:@<@O+<+[@}@|@1@2@3@4@                                          ",
"                                            5@6@7@8@- - 9@0@a@a@b@c@d@e@f@g@h@i@j@k@l@                                          ",
"                                            m@H.n@o@t+    - - - - - - p@q@|+r@s@t@u@                                            ",
"                                                v@d@-     - - -   - - w@x@y@z@A@u@                                              ",
"                                                          - - -   - -   B@C@D@E@                                                ",
"                                                                          v F@                                                  ",
"                                                                                                                                ",
"                                                                                                                                ",
"                                                                                                                                ",
"                                                                                                                                ",
"                                                                                                                                ",
"                                                                                                                                ",
"                                                                                                                                ",
"                                                                                                                                ",
"                                                                                                                                ",
"                                                                                                                                ",
"                                                                                                                                ",
"                                                                                                                                ",
"                                                                                                                                ",
"                                                                                                                                ",
"                                                                                                                                ",
"                                                                                                                                ",
"                                                                                                                                ",
"                                                                                                                                ",
"                                                                                                                                ",
"                                                                                                                                "};
