/* XPM */
static char * lp6_xpm[] = {
"64 64 353 2",
"  	c None",
". 	c #1C2E39",
"+ 	c #2B5966",
"@ 	c #2C5D6C",
"# 	c #32666D",
"$ 	c #48918F",
"% 	c #53A7A5",
"& 	c #59B1AA",
"* 	c #3D7F87",
"= 	c #1E3948",
"- 	c #161C2E",
"; 	c #458B8C",
"> 	c #5AB2AC",
", 	c #55AAA8",
"' 	c #52A6A6",
") 	c #52A5A5",
"! 	c #3E8596",
"~ 	c #2A455A",
"{ 	c #316163",
"] 	c #57AEA9",
"^ 	c #52A5A1",
"/ 	c #4C9792",
"( 	c #448B91",
"_ 	c #3E8597",
": 	c #3D7B8F",
"< 	c #243048",
"[ 	c #4C9A9B",
"} 	c #4E9B98",
"| 	c #54A8A2",
"1 	c #284C50",
"2 	c #1E263C",
"3 	c #29344F",
"4 	c #2A5767",
"5 	c #3E8093",
"6 	c #324964",
"7 	c #1A2638",
"8 	c #4A9097",
"9 	c #31646C",
"0 	c #51A3A3",
"a 	c #213E4B",
"b 	c #171E30",
"c 	c #3C496E",
"d 	c #404E75",
"e 	c #3F6481",
"f 	c #3E7C91",
"g 	c #232B44",
"h 	c #3B6780",
"i 	c #33566C",
"j 	c #386D81",
"k 	c #171D30",
"l 	c #252E48",
"m 	c #364264",
"n 	c #3F5678",
"o 	c #385773",
"p 	c #1F273E",
"q 	c #244857",
"r 	c #31586D",
"s 	c #316072",
"t 	c #171C2E",
"u 	c #181F32",
"v 	c #D5B583",
"w 	c #282B38",
"x 	c #A9A4A0",
"y 	c #A79E95",
"z 	c #383D4B",
"A 	c #414961",
"B 	c #44485B",
"C 	c #9A836E",
"D 	c #796756",
"E 	c #C0B09C",
"F 	c #DCC29E",
"G 	c #70614E",
"H 	c #C5B899",
"I 	c #EDE2CC",
"J 	c #EFE7DD",
"K 	c #F4EFE2",
"L 	c #F6F2E3",
"M 	c #C9C0AF",
"N 	c #716B6B",
"O 	c #3A3339",
"P 	c #989686",
"Q 	c #FAF6F2",
"R 	c #C4B093",
"S 	c #615346",
"T 	c #D9BF8E",
"U 	c #F3EAD2",
"V 	c #FAF5E7",
"W 	c #F7F0DC",
"X 	c #F4EAC9",
"Y 	c #EFE1AC",
"Z 	c #E5D19D",
"` 	c #AE9173",
" .	c #695750",
"..	c #94906F",
"+.	c #F5F0DC",
"@.	c #EDEBE0",
"#.	c #BAA077",
"$.	c #AE9C77",
"%.	c #EBDBA7",
"&.	c #BBB3AA",
"*.	c #F6F0DB",
"=.	c #F0E2AF",
"-.	c #EFE2AE",
";.	c #EFE0AA",
">.	c #DEC592",
",.	c #C3A47B",
"'.	c #8E7466",
").	c #1F2130",
"!.	c #928D6D",
"~.	c #DCC593",
"{.	c #F4EFDC",
"].	c #D4CABC",
"^.	c #242431",
"/.	c #CBC19F",
"(.	c #D2BC97",
"_.	c #413F42",
":.	c #F7F3E5",
"<.	c #F1E5B8",
"[.	c #EEE0AA",
"}.	c #DFC693",
"|.	c #CEAF80",
"1.	c #907666",
"2.	c #3C343A",
"3.	c #323136",
"4.	c #C3AF81",
"5.	c #DBC391",
"6.	c #E5E1C4",
"7.	c #373839",
"8.	c #60564B",
"9.	c #E7D8B5",
"0.	c #A58D69",
"a.	c #34363E",
"b.	c #DCC28F",
"c.	c #D4B483",
"d.	c #A1846E",
"e.	c #5D4D49",
"f.	c #73624E",
"g.	c #D4B583",
"h.	c #E5D79F",
"i.	c #A5A17B",
"j.	c #222531",
"k.	c #8C8165",
"l.	c #50463F",
"m.	c #232836",
"n.	c #C1BFBA",
"o.	c #C8BD92",
"p.	c #BAA57C",
"q.	c #B39870",
"r.	c #CBAC7D",
"s.	c #C4A57C",
"t.	c #927965",
"u.	c #4D4142",
"v.	c #816E55",
"w.	c #272731",
"x.	c #252631",
"y.	c #BDA075",
"z.	c #C3AB7D",
"A.	c #D1CB99",
"B.	c #7E7761",
"C.	c #A0947E",
"D.	c #202230",
"E.	c #171D2F",
"F.	c #32343A",
"G.	c #383739",
"H.	c #938B6D",
"I.	c #CDBC8E",
"J.	c #8D7365",
"K.	c #2D2B33",
"L.	c #AF956E",
"M.	c #847157",
"N.	c #181F30",
"O.	c #C7AA7B",
"P.	c #B3AA83",
"Q.	c #C7BC91",
"R.	c #E7D7B4",
"S.	c #71614E",
"T.	c #868689",
"U.	c #F5F1E2",
"V.	c #ECDFAA",
"W.	c #E3CE9A",
"X.	c #D6B684",
"Y.	c #C3A57C",
"Z.	c #756057",
"`.	c #524740",
" +	c #AD936D",
".+	c #877B66",
"++	c #316978",
"@+	c #285261",
"#+	c #BCA075",
"$+	c #907B62",
"%+	c #CBC08F",
"&+	c #343035",
"*+	c #1A2936",
"=+	c #B1A27C",
"-+	c #F2E6C0",
";+	c #B7A078",
">+	c #9D9C9D",
",+	c #F1E5BA",
"'+	c #ECDCA7",
")+	c #B09570",
"!+	c #7A675A",
"~+	c #72624F",
"{+	c #A38B68",
"]+	c #B99B77",
"^+	c #877E74",
"/+	c #3F8496",
"(+	c #3E8698",
"_+	c #295463",
":+	c #B69A73",
"<+	c #957F60",
"[+	c #947E5F",
"}+	c #3D7B7F",
"|+	c #438889",
"1+	c #605D50",
"2+	c #E9DAA5",
"3+	c #ECDEBA",
"4+	c #E1DDD1",
"5+	c #EFE2AD",
"6+	c #E7D49F",
"7+	c #C7A97B",
"8+	c #3D3A39",
"9+	c #D5CA97",
"0+	c #9E916E",
"a+	c #8C7E61",
"b+	c #A9906A",
"c+	c #B3A68A",
"d+	c #47959E",
"e+	c #252531",
"f+	c #977E66",
"g+	c #584A46",
"h+	c #B99D73",
"i+	c #2C414B",
"j+	c #418589",
"k+	c #386D6D",
"l+	c #897861",
"m+	c #EBDCA8",
"n+	c #F5ECCD",
"o+	c #EEE0AB",
"p+	c #CEBE90",
"q+	c #B6A47A",
"r+	c #A38B67",
"s+	c #DEC893",
"t+	c #C3C8A2",
"u+	c #47949E",
"v+	c #192435",
"w+	c #51464B",
"x+	c #685650",
"y+	c #2C3C48",
"z+	c #347080",
"A+	c #428A94",
"B+	c #2F485F",
"C+	c #39476A",
"D+	c #7F7962",
"E+	c #B7AC85",
"F+	c #726450",
"G+	c #232633",
"H+	c #242D47",
"I+	c #313F5D",
"J+	c #2E2C35",
"K+	c #B0966F",
"L+	c #B89C73",
"M+	c #D8BC89",
"N+	c #E2D19B",
"O+	c #9DBFA7",
"P+	c #428C9B",
"Q+	c #488897",
"R+	c #535E60",
"S+	c #182435",
"T+	c #33596F",
"U+	c #242D46",
"V+	c #323E5E",
"W+	c #3B5B78",
"X+	c #335F6D",
"Y+	c #4E4546",
"Z+	c #2E3957",
"`+	c #3F748C",
" @	c #354465",
".@	c #192034",
"+@	c #2E3856",
"@@	c #3C4C70",
"#@	c #3F6B85",
"$@	c #3E758C",
"%@	c #2E2E37",
"&@	c #C2A47B",
"*@	c #D8BB88",
"=@	c #DBC18D",
"-@	c #95AA9B",
";@	c #A1AB99",
">@	c #C9B086",
",@	c #857157",
"'@	c #323D5D",
")@	c #2D3855",
"!@	c #584D44",
"~@	c #BB9E76",
"{@	c #9E826D",
"]@	c #232433",
"^@	c #35556E",
"/@	c #3F758C",
"(@	c #3F5075",
"_@	c #3F6682",
":@	c #3E8094",
"<@	c #3E768C",
"[@	c #C0A27A",
"}@	c #BEA178",
"|@	c #D3B484",
"1@	c #A9A38D",
"2@	c #C5CAA4",
"3@	c #E3D39C",
"4@	c #71614D",
"5@	c #181E31",
"6@	c #292832",
"7@	c #CBAC7E",
"8@	c #D4B482",
"9@	c #A0856C",
"0@	c #172031",
"a@	c #355E74",
"b@	c #3E8396",
"c@	c #3E8497",
"d@	c #3E7B91",
"e@	c #3F5F7D",
"f@	c #2E2D36",
"g@	c #AD926F",
"h@	c #878679",
"i@	c #68989A",
"j@	c #54A9A7",
"k@	c #C4C8A1",
"l@	c #DAC18D",
"m@	c #C8AA7C",
"n@	c #2B2932",
"o@	c #181D2E",
"p@	c #70604D",
"q@	c #6D5C4F",
"r@	c #3F3A45",
"s@	c #1F263D",
"t@	c #243149",
"u@	c #293751",
"v@	c #29334E",
"w@	c #272633",
"x@	c #866F5E",
"y@	c #357081",
"z@	c #3F8798",
"A@	c #4B929C",
"B@	c #D3B482",
"C@	c #867258",
"D@	c #54656D",
"E@	c #799393",
"F@	c #D3B382",
"G@	c #877358",
"H@	c #435E69",
"I@	c #87958F",
"J@	c #1E2030",
"K@	c #5B4B48",
"L@	c #253B48",
"                                                                                                                                ",
"                                                                                                                                ",
"                                                                                                                                ",
"                                                                                                                                ",
"                                                                                                                                ",
"                                                                                                                                ",
"                                                                                                                                ",
"                                                                                                                                ",
"                                                                                                                                ",
"                                                                                                                                ",
"                                                                                                                                ",
"                                                                                                                                ",
"                                                                                                                                ",
"                                                                                                                                ",
"                                                                                                                                ",
"                                                                    . + @                                                       ",
"                                                                # $ % & * = -                                                   ",
"                                                              ; > , ' > ) ! ~ -                                                 ",
"                                                            { ] ^ ' & / ( _ : <                                                 ",
"                                                            [ $ } | 1 2 3 4 5 6                                                 ",
"                                                          7 8 9 0 a b c d e f 6                                                 ",
"                                                          g h i j k   l m n o p                                                 ",
"                                                            q r s t     - u k                                                   ",
"                                  v                     w x y z A B C D                                                         ",
"                                  E F                   G H I J K L M N O                                                       ",
"                                  P Q R               S T U V W X Y Z `  .-                                                     ",
"                                  ..+.@.#.            $.%.&.*.=.-.;.>.,.'.).                                                    ",
"                                  !.~.{.].          ^./.(._.:.<.[.}.v |.1.2.                                                    ",
"                                  3.4.5.6.7.        8.9.0.a.L <.b.v v c.d.e.                                                    ",
"                                    f.g.h.i.        j.k.l.m.n.o.p.q.r.s.t.u.-     v.w.                                          ",
"                                    x.y.z.A.7.      B.C.D.E.F.G.H.I.g.,.J.).- K.L.M.N.                                          ",
"                                      f.O.P.i.      Q.R.S.T.U.V.W.X.Y.` Z.t `. +.+++@+                                          ",
"                                      x.#+$+%+&+  *+=+-+;+>+,+'+X.v )+!+~+{+]+^+/+(+_+                                          ",
"                                        f.:+<+[+}+|+1+2+3+4+5+6+c.7+8+9+0+a+b+c+d+(+_+                                          ",
"                                        e+f+g+h+i+j+k+l+m+n+o+p+S.w.K.q+r+c.s+t+u+(+_+                                          ",
"                                        v+w+x+y+z+A+B+C+D+E+F+G+H+I+J+K+L+M+N+O+P+Q+R+                                          ",
"                                      S+T+U+V+W+X+Y+Z+`+ @.@+@@@#@$@%@:+&@*@=@-@;@>@,@                                          ",
"                                        2 '@)@!@~@{@]@^@/@(@_@:@(+<@%@[@}@|@1@2@3@g.4@                                          ",
"                                          5@6@7@8@9@).0@a@b@c@_ d@e@f@g@h@i@j@k@l@m@n@                                          ",
"                                            o@p@q@r@s@  k t@u@u@3 v@w@x@y@z@A@>@B@C@                                            ",
"                                                - )@s@    - - -   - - e.D@_ E@F@G@                                              ",
"                                                          - - -   - - t 2.H@I@G@                                                ",
"                                                          - - -   - -   J@K@L@                                                  ",
"                                                                          -                                                     ",
"                                                                                                                                ",
"                                                                                                                                ",
"                                                                                                                                ",
"                                                                                                                                ",
"                                                                                                                                ",
"                                                                                                                                ",
"                                                                                                                                ",
"                                                                                                                                ",
"                                                                                                                                ",
"                                                                                                                                ",
"                                                                                                                                ",
"                                                                                                                                ",
"                                                                                                                                ",
"                                                                                                                                ",
"                                                                                                                                ",
"                                                                                                                                ",
"                                                                                                                                ",
"                                                                                                                                ",
"                                                                                                                                ",
"                                                                                                                                "};
