/* XPM */
static char * dp1_xpm[] = {
"64 64 112 2",
"  	c None",
". 	c #D5B583",
"+ 	c #151C2E",
"@ 	c #232430",
"# 	c #2E2F35",
"$ 	c #171D2E",
"% 	c #161C2E",
"& 	c #999172",
"* 	c #D5BD8C",
"= 	c #F0E2AD",
"- 	c #F0E2AC",
"; 	c #EFE1AB",
"> 	c #D5C999",
", 	c #39383A",
"' 	c #9A9272",
") 	c #F4EAC8",
"! 	c #FCF9F0",
"~ 	c #D9CC9B",
"{ 	c #000D2A",
"] 	c #000429",
"^ 	c #8A8267",
"/ 	c #292A33",
"( 	c #9C9373",
"_ 	c #F1E2AC",
": 	c #F4EBCA",
"< 	c #FBF8EF",
"[ 	c #F0E2AA",
"} 	c #CDC194",
"| 	c #151B2E",
"1 	c #9A9171",
"2 	c #42403E",
"3 	c #00112B",
"4 	c #E7D29D",
"5 	c #F1E3AC",
"6 	c #A09774",
"7 	c #000021",
"8 	c #A29977",
"9 	c #AAA17C",
"0 	c #0F172C",
"a 	c #CACACA",
"b 	c #EFE2B1",
"c 	c #484541",
"d 	c #10182D",
"e 	c #000029",
"f 	c #E7D29E",
"g 	c #B4A983",
"h 	c #171C2E",
"i 	c #555248",
"j 	c #B7AD85",
"k 	c #BFB48A",
"l 	c #F7F0D9",
"m 	c #F0E3B1",
"n 	c #F1E3AD",
"o 	c #C0B58B",
"p 	c #0E172C",
"q 	c #877358",
"r 	c #D5B582",
"s 	c #EAD9A4",
"t 	c #6D6855",
"u 	c #B5AA81",
"v 	c #BCB086",
"w 	c #DFC996",
"x 	c #9E8663",
"y 	c #B3A983",
"z 	c #0D162C",
"A 	c #D8B784",
"B 	c #DEC491",
"C 	c #EDDCA6",
"D 	c #000024",
"E 	c #04112B",
"F 	c #B1A780",
"G 	c #F7F6F5",
"H 	c #ACA382",
"I 	c #ECDFA9",
"J 	c #0C162C",
"K 	c #897559",
"L 	c #D6B683",
"M 	c #BCA075",
"N 	c #00072A",
"O 	c #00082A",
"P 	c #A69672",
"Q 	c #F7F0DC",
"R 	c #E9D6A0",
"S 	c #EFE2AC",
"T 	c #C9BE91",
"U 	c #917C5E",
"V 	c #D6B684",
"W 	c #D6B583",
"X 	c #DABD8B",
"Y 	c #E4D7A4",
"Z 	c #453E3B",
"` 	c #B2976F",
" .	c #131A2D",
"..	c #8F7A5D",
"+.	c #C9AA7E",
"@.	c #D2B282",
"#.	c #CDC193",
"$.	c #63524D",
"%.	c #9A7D6C",
"&.	c #907666",
"*.	c #987C6B",
"=.	c #C3A579",
"-.	c #B39870",
";.	c #181E2F",
">.	c #282733",
",.	c #5A4B48",
"'.	c #262532",
").	c #C8AA7C",
"!.	c #CBAD7D",
"~.	c #AD936D",
"{.	c #D3B382",
"].	c #B49971",
"                                                                                                                                ",
"                                                                                                                                ",
"                                                                                                                                ",
"                                                                                                                                ",
"                                                                                                                                ",
"                                                                                                                                ",
"                                                                                                                                ",
"                                                                                                                                ",
"                                                                                                                                ",
"                                                                                                                                ",
"                                                                                                                                ",
"                                                                                                                                ",
"                                                                                                                                ",
"                                                                                                                                ",
"                                                                                                                                ",
"                                                                                                                                ",
"                                                                                                                                ",
"                                                                                                                                ",
"                                                                . . . . . . .                                                   ",
"                                                          . . . . . . . . . . . . .                                             ",
"                                                        . . . . .           . . . . .                                           ",
"                                                    . . . .                       . . . .                                       ",
"                                                  . . .                               . . .                                     ",
"                                                . . .                                   . . .                                   ",
"                                                . .                                       . .                                   ",
"                                              . .                                           . .                                 ",
"                                            . . .               + @ # # # $ %               . . .                               ",
"                                            . .               % & * = - ; > , $               . .                               ",
"                                            . .             % ' - ) ! ~ { ] ^ / %             . . .                             ",
"                                          . . .           % ( _ : < [ } % % | 1 2 %           . . .                             ",
"                                          . .             3 4 ; 5 6 7 8 9 + 0 a b c d           . .                             ",
"                                          . .           % e f ; g h % % i j k l m n o p         . .                             ",
"                                          . .           % q r s g h % % % t u v w x y z         . .                             ",
"                                          . .           % 3 A B C D % % E F G H ; I J %         . .                             ",
"                                          . .             % K L . M N O P ; Q R S T z           . .                             ",
"                                          . . .           % U V . . W W X ; Y Z `  .          . . .                             ",
"                                            . .           % % ..+.L . @.. s - #.%             . . .                             ",
"                                            . .               % $.%.&.*.=.-.# ;.              . .                               ",
"                                            . . .               + >.,.'.% %                 . . .                               ",
"                                              . .                   % %                     . .                                 ",
"                                                . .                                       . .                                   ",
"                                                . . .                                   . . .                                   ",
"                                                  . . .                               . . .                                     ",
"                                                    . . . .                       . . . .                                       ",
"                                                        . . . . .           ).!.. . .                                           ",
"                                                          . . . . . . . . . . . . . ~.                                          ",
"                                                                . . W W W W {.].                                                ",
"                                                                                                                                ",
"                                                                                                                                ",
"                                                                                                                                ",
"                                                                                                                                ",
"                                                                                                                                ",
"                                                                                                                                ",
"                                                                                                                                ",
"                                                                                                                                ",
"                                                                                                                                ",
"                                                                                                                                ",
"                                                                                                                                ",
"                                                                                                                                ",
"                                                                                                                                ",
"                                                                                                                                ",
"                                                                                                                                ",
"                                                                                                                                ",
"                                                                                                                                "};
