/* XPM */
static char * dp2_xpm[] = {
"64 64 179 2",
"  	c None",
". 	c #977B6B",
"+ 	c #161C2E",
"@ 	c #04112B",
"# 	c #6E6654",
"$ 	c #675B4B",
"% 	c #716B58",
"& 	c #696453",
"* 	c #0D162C",
"= 	c #5F5B4D",
"- 	c #ECDEA9",
"; 	c #D9BD8A",
"> 	c #EFE1AD",
", 	c #F1E5B7",
"' 	c #EEE0AB",
") 	c #EADDA8",
"! 	c #E4D7A4",
"~ 	c #282A33",
"{ 	c #151C2E",
"] 	c #000027",
"^ 	c #EADCA7",
"/ 	c #F1E4B4",
"( 	c #F9F4E4",
"_ 	c #F3EAC6",
": 	c #FEFEFB",
"< 	c #FCFAF2",
"[ 	c #EFE1AB",
"} 	c #E5D8A4",
"| 	c #DED19F",
"1 	c #827B62",
"2 	c #151B2E",
"3 	c #000D2B",
"4 	c #DAC694",
"5 	c #EFE1A9",
"6 	c #FEFEFD",
"7 	c #F0E3B2",
"8 	c #FEFDF9",
"9 	c #FBF8ED",
"0 	c #F1E6BB",
"a 	c #EFE2B1",
"b 	c #222531",
"c 	c #1C202F",
"d 	c #D6CA9A",
"e 	c #847D64",
"f 	c #A18966",
"g 	c #E4CF9B",
"h 	c #EFE0A9",
"i 	c #F9F3E2",
"j 	c #EFE3B5",
"k 	c #EBDEA8",
"l 	c #F4EAC8",
"m 	c #EEEEED",
"n 	c #181E2F",
"o 	c #D4C899",
"p 	c #181D2E",
"q 	c #00112B",
"r 	c #D6B683",
"s 	c #F0E2AC",
"t 	c #CDC193",
"u 	c #615C4E",
"v 	c #39393A",
"w 	c #928A6D",
"x 	c #E0D3A0",
"y 	c #1A1F2F",
"z 	c #8F876B",
"A 	c #9D8564",
"B 	c #D5B482",
"C 	c #EFE2AC",
"D 	c #F1E3AC",
"E 	c #11192D",
"F 	c #938B6D",
"G 	c #CDC194",
"H 	c #171D2E",
"I 	c #CFC395",
"J 	c #000429",
"K 	c #B1966F",
"L 	c #D5B583",
"M 	c #E3CE9A",
"N 	c #BDB289",
"O 	c #12192D",
"P 	c #958C6E",
"Q 	c #555248",
"R 	c #0E172C",
"S 	c #C3C4C5",
"T 	c #EAE0BB",
"U 	c #968E6F",
"V 	c #6C5D4B",
"W 	c #D6B684",
"X 	c #D4B382",
"Y 	c #BEB38A",
"Z 	c #131A2D",
"` 	c #E3D6A3",
" .	c #C6BB8F",
"..	c #EADCA8",
"+.	c #FDFBF5",
"@.	c #F1E2AC",
"#.	c #09142C",
"$.	c #000C2B",
"%.	c #BDA075",
"&.	c #DABD8B",
"*.	c #BEB48A",
"=.	c #B3A882",
"-.	c #F1E3AE",
";.	c #F6EED3",
">.	c #EFE1AA",
",.	c #EAD9A4",
"'.	c #ABA17D",
").	c #171C2E",
"!.	c #7F6D55",
"~.	c #D7B684",
"{.	c #D7B784",
"].	c #000029",
"^.	c #373739",
"/.	c #EBDEAC",
"(.	c #615F5C",
"_.	c #000E2B",
":.	c #E2D5A2",
"<.	c #E7D39F",
"[.	c #957E5E",
"}.	c #E4CD99",
"|.	c #F4E6AF",
"1.	c #000026",
"2.	c #0B172D",
"3.	c #C3A679",
"4.	c #C4A77A",
"5.	c #826F56",
"6.	c #00082A",
"7.	c #00042A",
"8.	c #988464",
"9.	c #EDDFAA",
"0.	c #F7F0D8",
"a.	c #FEFEFE",
"b.	c #48453F",
"c.	c #645F50",
"d.	c #000028",
"e.	c #72604C",
"f.	c #857157",
"g.	c #D9BC89",
"h.	c #E6D29C",
"i.	c #EFE0AA",
"j.	c #F3E5AE",
"k.	c #0E192D",
"l.	c #A78C6F",
"m.	c #C2A37B",
"n.	c #B9A178",
"o.	c #D0B180",
"p.	c #D4C798",
"q.	c #7A735D",
"r.	c #09172C",
"s.	c #8D7265",
"t.	c #C6A87D",
"u.	c #C6A77D",
"v.	c #BC9E79",
"w.	c #B49676",
"x.	c #D8BA88",
"y.	c #3D3D3C",
"z.	c #0C162C",
"A.	c #0D182D",
"B.	c #876E61",
"C.	c #8C7264",
"D.	c #D5C798",
"E.	c #0B172C",
"F.	c #8A7063",
"G.	c #8B7164",
"H.	c #222331",
"I.	c #292832",
"J.	c #2C2D34",
"K.	c #2D2E35",
"L.	c #866D61",
"M.	c #8D7365",
"N.	c #8A7163",
"O.	c #917768",
"P.	c #886F62",
"Q.	c #967A6A",
"R.	c #896F62",
"S.	c #80695D",
"T.	c #846C5F",
"U.	c #836B5F",
"V.	c #987C6C",
"                                                                                                                                ",
"                                                                                                                                ",
"                                                                                                                                ",
"                                                                                                                                ",
"                                                                                                                                ",
"                                                                                                                                ",
"                                                                                                                                ",
"                                                                                                                                ",
"                                                                                                                                ",
"                                                                                                                                ",
"                                                                                                                                ",
"                                                                                                                                ",
"                                                                                                                                ",
"                                                                                                                                ",
"                                                                                                                                ",
"                                                                                                                                ",
"                                                                                                                                ",
"                                                                  . . . .                                                       ",
"                                                            . . .                       .                                       ",
"                                                          .                               . .                                   ",
"                                                        .           + + + + +                 .                                 ",
"                                                      .         + + @ # $ % & * * +             .                               ",
"                                                    .       + + * = - ; > , ' ) ! ~ {             .                             ",
"                                                  .       + + ] ^ / ( _ : < [ [ } | 1 2             .                           ",
"                                                          + 3 4 5 6 7 8 9 0 a & b c d e 2           .                           ",
"                                                        + { f g [ h i j k l m + + + n o p             .                         ",
"                                                        + q r s [ [ t u v w x n + + + y z {           .                         ",
"                                                        + A B C [ D ] + + E F G H + + + I J             .                       ",
"                                                        + K L M [ N + + + + O P Q + R S T U +           .                       ",
"                                            .           + V W X s Y + + + + + Z `  ...+.l @.1 #.        .                       ",
"                                            .           + $.%.L &.*.+ + + + + + ! =.-.;.>.,.s '.).                              ",
"                                            .           + !.~.L L {.].+ + + + ^./.(._.:.<.[.}.|.1.                              ",
"                                            .           + 2.3.L L L 4.5.6.7.8.9.0.a.b.o [ c.d.e.).                              ",
"                                            .           + + f.W L L L L ~.~.g.[ h h.i.[ [ j.] +                                 ",
"                                            .             + k.l.m.L L L L r g.[ [ n.o.h p.q.+           .                       ",
"                                                            + r.s.t.u.u.v.w.x.i.[ - y.z.Z +             .                       ",
"                                                              + A.B.C.. . L r D.9.[ c.+ +               .                       ",
"                                              .                 + E.F.G.H.I.I.p J.K.+                                           ",
"                                                                  + + + + +     + +                                             ",
"                                                .                                                                               ",
"                                                                                                                                ",
"                                                  .                                                                             ",
"                                                    .                                                                           ",
"                                                                                                                                ",
"                                                                                                                                ",
"                                                            . .                       L.M.N.                                    ",
"                                                                . O.G.          P.N.Q.R.S.                                      ",
"                                                                  T.U.V.V.V.V.V.B.T.                                            ",
"                                                                                                                                ",
"                                                                                                                                ",
"                                                                                                                                ",
"                                                                                                                                ",
"                                                                                                                                ",
"                                                                                                                                ",
"                                                                                                                                ",
"                                                                                                                                ",
"                                                                                                                                ",
"                                                                                                                                ",
"                                                                                                                                ",
"                                                                                                                                ",
"                                                                                                                                ",
"                                                                                                                                ",
"                                                                                                                                ",
"                                                                                                                                "};
