/* XPM */
static char * dp4_xpm[] = {
"64 64 168 2",
"  	c None",
". 	c #161C2E",
"+ 	c #11192D",
"@ 	c #00102B",
"# 	c #000829",
"$ 	c #333337",
"% 	c #8A8265",
"& 	c #8A8267",
"* 	c #8A8367",
"= 	c #8A8368",
"- 	c #483E3A",
"; 	c #0A152C",
"> 	c #00122C",
", 	c #968060",
"' 	c #DBC08D",
") 	c #EEE0AB",
"! 	c #EEE0AA",
"~ 	c #FAF7EB",
"{ 	c #FFFEFE",
"] 	c #FCF9F1",
"^ 	c #F1E5B9",
"/ 	c #F2E7BE",
"( 	c #F3E8C3",
"_ 	c #F3E8C4",
": 	c #BEB38A",
"< 	c #000529",
"[ 	c #3E3838",
"} 	c #D4B482",
"| 	c #D6B785",
"1 	c #EFE1AB",
"2 	c #F2E7BF",
"3 	c #FCFAF4",
"4 	c #FFFFFF",
"5 	c #F7F0D9",
"6 	c #6E6856",
"7 	c #12192D",
"8 	c #5A4E43",
"9 	c #D6B684",
"0 	c #DDC390",
"a 	c #E1D4A1",
"b 	c #E1D4A5",
"c 	c #E1D4A6",
"d 	c #E1D5A6",
"e 	c #F0E3B0",
"f 	c #F0E2B0",
"g 	c #E6D9A5",
"h 	c #E0D3A1",
"i 	c #E1D4A2",
"j 	c #4F4C44",
"k 	c #947E5F",
"l 	c #D5B583",
"m 	c #D7CB9B",
"n 	c #1D2130",
"o 	c #181E2F",
"p 	c #CDC194",
"q 	c #F9F8F8",
"r 	c #222229",
"s 	c #141B2E",
"t 	c #9D9473",
"u 	c #0C162C",
"v 	c #DDD09F",
"w 	c #1C202F",
"x 	c #171D2E",
"y 	c #CBC093",
"z 	c #968E6F",
"A 	c #91896C",
"B 	c #C5B98E",
"C 	c #978161",
"D 	c #C7A97B",
"E 	c #D6B784",
"F 	c #EFE0AA",
"G 	c #625D4F",
"H 	c #07132C",
"I 	c #999071",
"J 	c #000028",
"K 	c #CFC395",
"L 	c #A18966",
"M 	c #D6B583",
"N 	c #292832",
"O 	c #C1B58B",
"P 	c #000128",
"Q 	c #7F6A59",
"R 	c #BFA17A",
"S 	c #AE946D",
"T 	c #C7BC90",
"U 	c #8F876A",
"V 	c #1F2230",
"W 	c #1F2332",
"X 	c #202433",
"Y 	c #857E65",
"Z 	c #CEC294",
"` 	c #42383C",
" .	c #866F5E",
"..	c #D6B683",
"+.	c #D0B180",
"@.	c #B89C72",
"#.	c #363135",
"$.	c #0E182D",
"%.	c #0B152C",
"&.	c #B7AC85",
"*.	c #F0E2AA",
"=.	c #FEFCF7",
"-.	c #F3E8BF",
";.	c #0E172D",
">.	c #6C5952",
",.	c #A1846F",
"'.	c #AF9274",
").	c #D8B986",
"!.	c #EFE1AA",
"~.	c #F1E3AC",
"{.	c #F8F1DB",
"].	c #FAF5E6",
"^.	c #A0A1A4",
"/.	c #000E2B",
"(.	c #B4AA83",
"_.	c #EEE0A8",
":.	c #FAF6E7",
"<.	c #F6EFD5",
"[.	c #D6C99A",
"}.	c #09172C",
"|.	c #7E675C",
"1.	c #987C6B",
"2.	c #9F836E",
"3.	c #B49676",
"4.	c #B39675",
"5.	c #B89A77",
"6.	c #E4CF9B",
"7.	c #F6ECCB",
"8.	c #F6EED3",
"9.	c #D5CBA8",
"0.	c #000019",
"a.	c #B4A981",
"b.	c #F0E3AC",
"c.	c #897253",
"d.	c #E0C792",
"e.	c #F0E2AC",
"f.	c #2E2F35",
"g.	c #111A2D",
"h.	c #41383C",
"i.	c #786259",
"j.	c #A68A71",
"k.	c #D8B784",
"l.	c #EDDDA8",
"m.	c #7A745D",
"n.	c #988160",
"o.	c #E7D49F",
"p.	c #F6ECC9",
"q.	c #F4E9C3",
"r.	c #8C8469",
"s.	c #000025",
"t.	c #DFC491",
"u.	c #E4D6A3",
"v.	c #232631",
"w.	c #131B2D",
"x.	c #02142B",
"y.	c #3C3637",
"z.	c #B8AC84",
"A.	c #BEB389",
"B.	c #04122B",
"C.	c #C6A87A",
"D.	c #F2E4AD",
"E.	c #06132B",
"F.	c #000229",
"G.	c #B2A781",
"H.	c #06122B",
"I.	c #01132C",
"J.	c #000027",
"K.	c #000026",
"                                                                                                                                ",
"                                                                                                                                ",
"                                                                                                                                ",
"                                                                                                                                ",
"                                                                                                                                ",
"                                                                                                                                ",
"                                                                                                                                ",
"                                                                                                                                ",
"                                                                                                                                ",
"                                                                                                                                ",
"                                                                                                                                ",
"                                                                                                                                ",
"                                                                                                                                ",
"                                                                                                                                ",
"                                                                                                                                ",
"                                                                                                                                ",
"                                                                                                                                ",
"                                                                                                                                ",
"                                                                                                                                ",
"                                                                                                                                ",
"                                                                                                                                ",
"                                                                                                                                ",
"                                                                                                                                ",
"                                                                                                                                ",
"                                                                                                                                ",
"                                                                                                                                ",
"                                                                                                                                ",
"                                                                                                                                ",
"                                                                                                                                ",
"                                                                                                                                ",
"                                                                                                                                ",
"                                                                                                                                ",
"                                                                                                                                ",
"                                                                                                                                ",
"                                                                        . . . . . . . . .                                       ",
"                                                                    . + @ # $ % % % & * = - # ; .                               ",
"                                                                . . > , ' ) ! ~ { ] ^ / ( _ ! : < . .                           ",
"                                                              . . [ } | ! 1 1 1 2 2 3 4 4 5 1 1 ) 6 7 .                         ",
"                                                              . + 8 9 0 1 1 1 a b c d e f / g h h i j . .                       ",
"                                                            . . k l l 0 1 1 m n . . o p 1 q r . . s t u .                       ",
"                                                            . . k l l 0 1 v w . . . . x y z . . . . A B .                       ",
"                                                            . C D l l E F G . . . . . . H I . . . . J K .                       ",
"                                                            . L l l l l M N . . . . . . s O P . . . J K .                       ",
"                                                            . Q R l l l l S . . . . . . . T U V W X Y Z . .                     ",
"                                                            . `  ...l l l +.@.#.$.u %.&.Z &.K *.=.4 -.Z ;..                     ",
"                                                            . . >.,.'...l l l 9 ).!.~.{.].^./.(._.:.<.1 [..                     ",
"                                                              . }.|.1.2.3.4.5.l 6.1 1 7.8.9.0.a.b.c.d.1 e.f..                   ",
"                                                                . g.h.>.i.j.k.l l.1 1 m.n.o.p.q.e.r.s.t.u.v..                   ",
"                                                                  . . . w.x.y.L z.1 1 A.B.C.D.~.D.&.E.F.J .                     ",
"                                                                          . . . s G.: A.H.I.J.J.K.x . . .                       ",
"                                                                                  . . .                                         ",
"                                                                                                                                ",
"                                                                                                                                ",
"                                                                                                                                ",
"                                                                                                                                ",
"                                                                                                                                ",
"                                                                                                                                ",
"                                                                                                                                ",
"                                                                                                                                ",
"                                                                                                                                ",
"                                                                                                                                ",
"                                                                                                                                ",
"                                                                                                                                ",
"                                                                                                                                "};
