/* XPM */
static char * dp5_xpm[] = {
"64 64 148 2",
"  	c None",
". 	c #161C2E",
"+ 	c #303136",
"@ 	c #BEB38A",
"# 	c #7E7760",
"$ 	c #131B2E",
"% 	c #262531",
"& 	c #B6A982",
"* 	c #EFE1A9",
"= 	c #EFE0A9",
"- 	c #EFE1AA",
"; 	c #E6D39E",
"> 	c #BBA47B",
", 	c #000024",
"' 	c #171C2E",
") 	c #11192D",
"! 	c #9C8463",
"~ 	c #D8B986",
"{ 	c #EFE1AB",
"] 	c #F7EFD7",
"^ 	c #FFFFFF",
"/ 	c #F1E5BA",
"( 	c #F4EBC9",
"_ 	c #F8F1D9",
": 	c #F2E4AC",
"< 	c #7C765F",
"[ 	c #00082A",
"} 	c #9B8463",
"| 	c #D6B785",
"1 	c #EEDFA9",
"2 	c #EFE1AC",
"3 	c #F6EED3",
"4 	c #FDFBF6",
"5 	c #F0E2AC",
"6 	c #D6CA9A",
"7 	c #0B152C",
"8 	c #3F3938",
"9 	c #927D5E",
"0 	c #D8BA88",
"a 	c #F0E2AB",
"b 	c #F5ECCE",
"c 	c #F1E3AC",
"d 	c #F2E4AD",
"e 	c #7A735D",
"f 	c #131A2E",
"g 	c #907B5D",
"h 	c #D5B583",
"i 	c #EEE0AA",
"j 	c #5F5B4D",
"k 	c #000F2B",
"l 	c #E6D9A5",
"m 	c #FAF5E4",
"n 	c #918868",
"o 	c #000027",
"p 	c #BCB188",
"q 	c #131A2D",
"r 	c #08162C",
"s 	c #D4B482",
"t 	c #D5C899",
"u 	c #0F182D",
"v 	c #F3E5AE",
"w 	c #000026",
"x 	c #999071",
"y 	c #6B6654",
"z 	c #363235",
"A 	c #867258",
"B 	c #D7B987",
"C 	c #EDDFA9",
"D 	c #5B574B",
"E 	c #C2B78C",
"F 	c #04112B",
"G 	c #CFC395",
"H 	c #181D2E",
"I 	c #D3B382",
"J 	c #E2D19E",
"K 	c #B4AA83",
"L 	c #000028",
"M 	c #CEAF7F",
"N 	c #141B2E",
"O 	c #CFB080",
"P 	c #1E212F",
"Q 	c #363638",
"R 	c #212531",
"S 	c #D1B181",
"T 	c #625546",
"U 	c #151B2E",
"V 	c #E8DAA6",
"W 	c #E0D29F",
"X 	c #EFEFEF",
"Y 	c #EFEADB",
"Z 	c #CEC294",
"` 	c #111A2D",
" .	c #A0846E",
"..	c #CDAD7F",
"+.	c #605346",
"@.	c #2A2832",
"#.	c #2E2F35",
"$.	c #B6AC84",
"%.	c #F1E3AE",
"&.	c #BDB289",
"*.	c #F5EDD0",
"=.	c #FDFCF7",
"-.	c #F1E5B7",
";.	c #95796A",
">.	c #A78B71",
",.	c #D2B282",
"'.	c #D6B683",
").	c #E6D19D",
"!.	c #F7F1DB",
"~.	c #FFFFFB",
"{.	c #000000",
"].	c #F4EAC9",
"^.	c #F7F0DA",
"/.	c #CEC295",
"(.	c #282632",
"_.	c #62514C",
":.	c #987C6C",
"<.	c #AC8F73",
"[.	c #AE9173",
"}.	c #D6B684",
"|.	c #F2E7BF",
"1.	c #F6ECCA",
"2.	c #000012",
"3.	c #C9BB8E",
"4.	c #DFC692",
"5.	c #1F2230",
"6.	c #685650",
"7.	c #BEA07A",
"8.	c #B2A27C",
"9.	c #DCC08C",
"0.	c #F1E3AD",
"a.	c #4B413C",
"b.	c #E5D09B",
"c.	c #1B1F2F",
"d.	c #8F795D",
"e.	c #D8B885",
"f.	c #938B6D",
"g.	c #A98F6A",
"h.	c #EFE2AC",
"i.	c #F4E5AE",
"j.	c #968566",
"k.	c #1A1F2F",
"l.	c #00072A",
"m.	c #989070",
"n.	c #F4E6AE",
"o.	c #00001F",
"p.	c #ADA37E",
"q.	c #000022",
"                                                                                                                                ",
"                                                                                                                                ",
"                                                                                                                                ",
"                                                                                                                                ",
"                                                                                                                                ",
"                                                                                                                                ",
"                                                                                                                                ",
"                                                                                                                                ",
"                                                                                                                                ",
"                                                                                                                                ",
"                                                                                                                                ",
"                                                                                                                                ",
"                                                                                                                                ",
"                                                                                                                                ",
"                                                                                                                                ",
"                                                                                                                                ",
"                                                                                                                                ",
"                                                                                                                                ",
"                                                                                                                                ",
"                                                                                                                                ",
"                                                                                                                                ",
"                                                                                                                                ",
"                                                                                                                                ",
"                                                                                                                                ",
"                                                                                                                                ",
"                                                                                                                                ",
"                                                                                                                                ",
"                                                                                                                                ",
"                                                                                                                                ",
"                                                                                . . . . . . .                                   ",
"                                                                            . . . + @ @ @ @ # . .                               ",
"                                                                            . $ % & * = - ; > , ' .                             ",
"                                                                          . ) ! ~ { ] ^ / ( _ : < [ .                           ",
"                                                                          $ } | 1 { 2 3 4 ^ ^ = 5 6 7 .                         ",
"                                                                        . 8 9 0 { { 5 a a = b a c d e .                         ",
"                                                                        f g h 0 { i j 7 k l m n 7 o p q                         ",
"                                                                        r s h 0 { t u . . k v w . . x y .                       ",
"                                                                      . z A h B C D . . . . E w . . F G .                       ",
"                                                                      . H I h h J q . . . . K o . . L G .                       ",
"                                                                      . r I h h M N . . . . . . . . L G .                       ",
"                                                                      . r I h h O P . . . . N Q . . R G .                       ",
"                                                                      . r S I h h T . . . U K V W X Y Z .                       ",
"                                                                        `  ...h h h +.@.#.$.%.&.*.=.-.Z .                       ",
"                                                                        ` ;.>.,.h h '.).5 !.~.{.c ].^./..                       ",
"                                                                          (._.:.<.[.}.1 { |.1.2.c 3.4.c 5..                     ",
"                                                                          U 6.:.:.7.}.{ { 8.9.0.{ &.a.b.5..                     ",
"                                                                          . U r c.d.e.5 { f.g.h.{ i.o j.k..                     ",
"                                                                              . . U l.m.d n.o.p.p.q.' . .                       ",
"                                                                                    . . w w ' . . . .                           ",
"                                                                                      . . . . . .                               ",
"                                                                                                                                ",
"                                                                                                                                ",
"                                                                                                                                ",
"                                                                                                                                ",
"                                                                                                                                ",
"                                                                                                                                ",
"                                                                                                                                ",
"                                                                                                                                ",
"                                                                                                                                ",
"                                                                                                                                ",
"                                                                                                                                ",
"                                                                                                                                ",
"                                                                                                                                ",
"                                                                                                                                "};
