/* XPM */
static char * dp6_xpm[] = {
"64 64 159 2",
"  	c None",
". 	c #161C2E",
"+ 	c #000026",
"@ 	c #000028",
"# 	c #171C2E",
"$ 	c #000C2B",
"% 	c #8A765A",
"& 	c #ACA27E",
"* 	c #F2E3AB",
"= 	c #F1E2AA",
"- 	c #F1E3AC",
"; 	c #EBD9A3",
"> 	c #CAB386",
", 	c #000024",
"' 	c #000529",
") 	c #222330",
"! 	c #CFB07F",
"~ 	c #EBDAA5",
"{ 	c #EFE1AB",
"] 	c #F6EFD5",
"^ 	c #FFFFFF",
"/ 	c #F3E8C3",
"( 	c #F3E8C1",
"_ 	c #F7EFD3",
": 	c #F5EBC6",
"< 	c #DACE9D",
"[ 	c #322E34",
"} 	c #D0B180",
"| 	c #DEC592",
"1 	c #F5ECCE",
"2 	c #FBF8EE",
"3 	c #F2E7BF",
"4 	c #F1E3AD",
"5 	c #867F65",
"6 	c #151C2E",
"7 	c #776650",
"8 	c #CEAF7F",
"9 	c #ECDCA6",
"0 	c #F0E2AC",
"a 	c #F0E2AB",
"b 	c #EFE1AA",
"c 	c #F4EAC9",
"d 	c #F2E6BD",
"e 	c #DED19F",
"f 	c #1F2230",
"g 	c #2F2C33",
"h 	c #D5B583",
"i 	c #F0E1AB",
"j 	c #7B755E",
"k 	c #05122B",
"l 	c #E5D8A4",
"m 	c #F7F0D8",
"n 	c #F1EDDE",
"o 	c #0F172D",
"p 	c #726C59",
"q 	c #76705B",
"r 	c #594D42",
"s 	c #77715B",
"t 	c #03102B",
"u 	c #F4E5AF",
"v 	c #111C33",
"w 	c #02102B",
"x 	c #DDD09E",
"y 	c #202431",
"z 	c #2C2A32",
"A 	c #5A4E43",
"B 	c #D0B080",
"C 	c #E9D7A2",
"D 	c #E1D4A1",
"E 	c #06122B",
"F 	c #151B2E",
"G 	c #B2A882",
"H 	c #000027",
"I 	c #3C3B3B",
"J 	c #1E212F",
"K 	c #D1B281",
"L 	c #D6B785",
"M 	c #706A57",
"N 	c #ACA27D",
"O 	c #B8AD86",
"P 	c #0F192D",
"Q 	c #645648",
"R 	c #323337",
"S 	c #C0B58B",
"T 	c #131A2D",
"U 	c #A78B70",
"V 	c #C8AA7C",
"W 	c #0B172D",
"X 	c #EDDFA9",
"Y 	c #353538",
"Z 	c #3D3D40",
"` 	c #3C3E49",
" .	c #E1D4A2",
"..	c #131B2D",
"+.	c #957A69",
"@.	c #A68970",
"#.	c #D1B181",
"$.	c #6A5B4A",
"%.	c #1D202F",
"&.	c #0D162C",
"*.	c #E7D9A5",
"=.	c #F1E4B3",
"-.	c #F0E2AE",
";.	c #3E353B",
">.	c #AD9073",
",.	c #D6B683",
"'.	c #C5A77A",
").	c #BDA175",
"!.	c #D5C99A",
"~.	c #E4D7A4",
"{.	c #F7EFD1",
"].	c #000014",
"^.	c #B1A680",
"/.	c #F3E9C4",
"(.	c #F2E7BE",
"_.	c #C9BD91",
":.	c #262532",
"<.	c #947969",
"[.	c #987C6B",
"}.	c #D0B181",
"|.	c #E7D39F",
"1.	c #F8F2DE",
"2.	c #000016",
"3.	c #968D6F",
"4.	c #E3CFB4",
"5.	c #EBDDA8",
"6.	c #3F3E3C",
"7.	c #2A2833",
"8.	c #95796A",
"9.	c #967A6B",
"0.	c #B89B77",
"a.	c #E7D39E",
"b.	c #E6D39D",
"c.	c #D5C998",
"d.	c #423B3A",
"e.	c #E1CB97",
"f.	c #494741",
"g.	c #60504B",
"h.	c #65534E",
"i.	c #927868",
"j.	c #D7B784",
"k.	c #EFE2AC",
"l.	c #A9A07C",
"m.	c #B4986F",
"n.	c #F4EAC8",
"o.	c #615345",
"p.	c #323237",
"q.	c #09172C",
"r.	c #998262",
"s.	c #DCD09E",
"t.	c #D4C899",
"u.	c #675848",
"v.	c #E3CA96",
"w.	c #E0D3A1",
"x.	c #989071",
"y.	c #11192D",
"z.	c #B7AC85",
"A.	c #000C2A",
"B.	c #000329",
"                                                                                                                                ",
"                                                                                                                                ",
"                                                                                                                                ",
"                                                                                                                                ",
"                                                                                                                                ",
"                                                                                                                                ",
"                                                                                                                                ",
"                                                                                                                                ",
"                                                                                                                                ",
"                                                                                                                                ",
"                                                                                                                                ",
"                                                                                                                                ",
"                                                                                                                                ",
"                                                                                                                                ",
"                                                                                                                                ",
"                                                                                                                                ",
"                                                                                                                                ",
"                                                                                                                                ",
"                                                                                                                                ",
"                                                                                                                                ",
"                                                                                                                                ",
"                                                                                                                                ",
"                                                                                                                                ",
"                                                                                                                                ",
"                                                                                                                                ",
"                                                                                                                                ",
"                                                                                                                                ",
"                                                                                                                                ",
"                                                                                                                                ",
"                                                                                                                                ",
"                                                                                      . . . . .                                 ",
"                                                                                  . . . + + + + @ # .                           ",
"                                                                              . . $ % & * = - ; > , ' .                         ",
"                                                                              . ) ! ~ { ] ^ / ( _ : < + .                       ",
"                                                                            . [ } | { { { 1 2 ^ ^ 3 { 4 5 .                     ",
"                                                                          . 6 7 8 9 { { 0 a a b c d 0 0 e f .                   ",
"                                                                          . g } h 9 { i j f k l m n o f p q .                   ",
"                                                                          . r h h 9 { s . . . t u v . . w x y                   ",
"                                                                        . z A B h C D E . . . F G H . . 6 j I .                 ",
"                                                                        . J K h h L M . . . . . N O . . . p I .                 ",
"                                                                        . P K h h h Q . . . . . R S . . . p I .                 ",
"                                                                        . T U h h h V W . . . . # X Y Z `  .I .                 ",
"                                                                          ..+.@.#.h h $.%.. . &.*.X i =.^ -.I .                 ",
"                                                                          . ;.>.h h h ,.'.).!.~.{.].^./.(.{ _..                 ",
"                                                                          . :.<.[.}.h h h |.{ 1.^ 2.3.{ 4.{ 5.6..               ",
"                                                                            . 7.8.9.9.0.h 0 { a.b.D c.0 d.e.{ f..               ",
"                                                                            . F g.h.i.j.h k.{ l.m.a n.i l.o.*.p..               ",
"                                                                              . . . q.$ r.s.{ t.u.v.- w.x.y.H .                 ",
"                                                                                    . . . + z.z.A.@ + B..   .                   ",
"                                                                                          . . . . . . .                         ",
"                                                                                                                                ",
"                                                                                                                                ",
"                                                                                                                                ",
"                                                                                                                                ",
"                                                                                                                                ",
"                                                                                                                                ",
"                                                                                                                                ",
"                                                                                                                                ",
"                                                                                                                                ",
"                                                                                                                                ",
"                                                                                                                                ",
"                                                                                                                                ",
"                                                                                                                                ",
"                                                                                                                                "};
