/* XPM */
static char * en1_xpm[] = {
"64 64 292 2",
"  	c None",
". 	c #9E7466",
"+ 	c #D9945F",
"@ 	c #DA965F",
"# 	c #EEC952",
"$ 	c #E9BD56",
"% 	c #FDEA46",
"& 	c #E2AD5A",
"* 	c #DEA35C",
"= 	c #E6B757",
"- 	c #DB995E",
"; 	c #D8935F",
"> 	c #E7B957",
", 	c #FEEB45",
"' 	c #E3AE5A",
") 	c #222030",
"! 	c #BA8153",
"~ 	c #FAE449",
"{ 	c #FEEE73",
"] 	c #C18456",
"^ 	c #966457",
"/ 	c #733B40",
"( 	c #171C2E",
"_ 	c #B77F52",
": 	c #FAE455",
"< 	c #FFFADF",
"[ 	c #F3D453",
"} 	c #D6935E",
"| 	c #403033",
"1 	c #2E2632",
"2 	c #B87766",
"3 	c #BC6C61",
"4 	c #734143",
"5 	c #191D2F",
"6 	c #986849",
"7 	c #EFCC55",
"8 	c #FFF5B6",
"9 	c #FFF191",
"0 	c #E2AE5A",
"a 	c #9C6B4A",
"b 	c #976558",
"c 	c #C37D6B",
"d 	c #BD7063",
"e 	c #834D5C",
"f 	c #3A273C",
"g 	c #261F30",
"h 	c #161C2E",
"i 	c #253431",
"j 	c #507340",
"k 	c #392C32",
"l 	c #E0AD59",
"m 	c #FFF3A6",
"n 	c #FFF8D6",
"o 	c #DFAC58",
"p 	c #393533",
"q 	c #5D9148",
"r 	c #5F9C4C",
"s 	c #1D3130",
"t 	c #966055",
"u 	c #BD6D61",
"v 	c #95515B",
"w 	c #63364B",
"x 	c #7F404D",
"y 	c #9D4C56",
"z 	c #51314B",
"A 	c #203030",
"B 	c #7BBE58",
"C 	c #618C47",
"D 	c #312831",
"E 	c #CF9D6A",
"F 	c #F9EFC6",
"G 	c #F3E4A2",
"H 	c #AE845D",
"I 	c #3A5437",
"J 	c #73A550",
"K 	c #8CC95D",
"L 	c #5AB955",
"M 	c #506D4C",
"N 	c #A44F53",
"O 	c #A24E57",
"P 	c #A85056",
"Q 	c #9F4D57",
"R 	c #6D3B52",
"S 	c #4A2D43",
"T 	c #6D363E",
"U 	c #42523D",
"V 	c #308A44",
"W 	c #89755A",
"X 	c #E5D39E",
"Y 	c #EBDBA6",
"Z 	c #B29971",
"` 	c #4F733F",
" .	c #7EC95C",
"..	c #3C995C",
"+.	c #555553",
"@.	c #B55455",
"#.	c #8B4759",
"$.	c #97484C",
"%.	c #984A57",
"&.	c #A04E57",
"*.	c #653A57",
"=.	c #2C2736",
"-.	c #A28B67",
";.	c #CEB586",
">.	c #8B785C",
",.	c #BAA87F",
"'.	c #1B242F",
").	c #6BB153",
"!.	c #3BA05A",
"~.	c #456B63",
"{.	c #B35555",
"].	c #B65555",
"^.	c #974A57",
"/.	c #6B3D5A",
"(.	c #683C5A",
"_.	c #402A41",
":.	c #51473F",
"<.	c #2E2B33",
"[.	c #6B5C4B",
"}.	c #2F2C33",
"|.	c #52393C",
"1.	c #945F55",
"2.	c #438344",
"3.	c #3F8463",
"4.	c #35504E",
"5.	c #A24C4E",
"6.	c #9A4B58",
"7.	c #844355",
"8.	c #55324B",
"9.	c #2C2737",
"0.	c #265E3A",
"a.	c #296E3E",
"b.	c #2D6F3D",
"c.	c #182C30",
"d.	c #504448",
"e.	c #77625C",
"f.	c #222331",
"g.	c #7B534C",
"h.	c #C37F6B",
"i.	c #A4785E",
"j.	c #9E675F",
"k.	c #A34F50",
"l.	c #B55555",
"m.	c #69394E",
"n.	c #1D2132",
"o.	c #325953",
"p.	c #339E4B",
"q.	c #38B151",
"r.	c #3BB351",
"s.	c #8ACF5F",
"t.	c #76BD58",
"u.	c #244E35",
"v.	c #5A4B4D",
"w.	c #947869",
"x.	c #272632",
"y.	c #79524B",
"z.	c #C07667",
"A.	c #C27A69",
"B.	c #C4816D",
"C.	c #BC6B60",
"D.	c #2A3D41",
"E.	c #365D58",
"F.	c #417368",
"G.	c #39AA55",
"H.	c #35A84E",
"I.	c #309548",
"J.	c #49AD50",
"K.	c #78C65B",
"L.	c #71A550",
"M.	c #493F44",
"N.	c #7D675F",
"O.	c #232331",
"P.	c #262230",
"Q.	c #965F55",
"R.	c #BA6C60",
"S.	c #B75756",
"T.	c #B65656",
"U.	c #98484B",
"V.	c #171E2F",
"W.	c #345955",
"X.	c #417168",
"Y.	c #3A675E",
"Z.	c #264342",
"`.	c #1F3039",
" +	c #182A2F",
".+	c #23673A",
"++	c #56B654",
"@+	c #214F35",
"#+	c #4C6D3E",
"$+	c #263232",
"%+	c #287B40",
"&+	c #1F1E31",
"*+	c #7A4054",
"=+	c #854352",
"-+	c #A14E57",
";+	c #A95056",
">+	c #8A4658",
",+	c #432C43",
"'+	c #365E59",
")+	c #297F41",
"!+	c #256E3C",
"~+	c #75BD58",
"{+	c #8BC75C",
"]+	c #2D733E",
"^+	c #256F3D",
"/+	c #271F30",
"(+	c #8A4246",
"_+	c #8D4347",
":+	c #B45455",
"<+	c #7F4359",
"[+	c #4A3047",
"}+	c #365855",
"|+	c #417067",
"1+	c #3E6B63",
"2+	c #22323B",
"3+	c #1E5035",
"4+	c #183030",
"5+	c #3BB050",
"6+	c #63BE57",
"7+	c #3C753F",
"8+	c #161D2E",
"9+	c #1D1D2E",
"0+	c #7A3B41",
"a+	c #AC5051",
"b+	c #8A4759",
"c+	c #6A3D5B",
"d+	c #693D5B",
"e+	c #633A57",
"f+	c #465558",
"g+	c #58515C",
"h+	c #613956",
"i+	c #1B1D30",
"j+	c #2F9447",
"k+	c #1C4834",
"l+	c #222330",
"m+	c #6B5A4D",
"n+	c #735F4D",
"o+	c #733E41",
"p+	c #743C41",
"q+	c #6B3C43",
"r+	c #593650",
"s+	c #583550",
"t+	c #58354F",
"u+	c #57344F",
"v+	c #452F43",
"w+	c #4C3147",
"x+	c #4B3047",
"y+	c #235E39",
"z+	c #26703D",
"A+	c #38323B",
"B+	c #37313A",
"C+	c #232430",
"D+	c #6C5A4E",
"E+	c #806C58",
"F+	c #A08768",
"G+	c #917962",
"H+	c #AC926C",
"I+	c #594C4C",
"J+	c #705C55",
"K+	c #655451",
"L+	c #504343",
"M+	c #8A7164",
"N+	c #67554F",
"O+	c #625250",
"P+	c #319448",
"Q+	c #37AF50",
"R+	c #5A4B4A",
"S+	c #4D4142",
"T+	c #673541",
"U+	c #884558",
"V+	c #773E52",
"W+	c #5C354F",
"X+	c #59354F",
"Y+	c #3A293D",
"Z+	c #4C4043",
"`+	c #1C1F2F",
" @	c #2A7444",
".@	c #2C8944",
"+@	c #17262F",
"@@	c #4C2A35",
"#@	c #803D43",
"$@	c #97484B",
"%@	c #96474B",
"&@	c #7A4055",
"*@	c #673C5A",
"=@	c #6F5C58",
"-@	c #433A3E",
";@	c #544748",
">@	c #6F5C55",
",@	c #212230",
"'@	c #1E1E30",
")@	c #3D353A",
"                                                                                                                                ",
"                                                                                                                                ",
"                                                                                                                                ",
"                                                                                                                                ",
"                                                                                                                                ",
"                                                                                                                                ",
"                                                                                                                                ",
"                                                                                                                                ",
"                                                                                                                                ",
"                                                                                                                                ",
"                                                                                                                                ",
"                                                                                                                                ",
"                                                                                                                                ",
"                                                                                                                                ",
"                                                                                                                                ",
"                                      .                                                                                         ",
"                                    .                                                                                           ",
"                                              + +                                                                               ",
"                                          + + @ # @                                                                             ",
"                                              $ % &                                                                             ",
"                                          + * = - +                                                                             ",
"                                        ; > , ' + +         )                                                                   ",
"                                        ! ~ { * ]           ^ / (                                                               ",
"                                        _ : < [ } |       1 2 3 4 5                                                             ",
"                                        6 7 8 9 0 a       b c d e f g h     i j                                                 ",
"                                        k l m n o p q r s t u v w x y z 5 A B C                                                 ",
"                                        D E F G H I J K L M N O P Q R S T U V                                                   ",
"                                          W X Y Z     `  ...+.@.P #.$.%.&.*.=.                                                  ",
"                                          -.;.>.,.    '.).!.~.{.].].O ^./.(._.                                                  ",
"                                          :.<.[.}.  |.1.2.3.4.5.6.7.8.9.0.a.b.c.                                                ",
"                                            d.e.f.  g.h.i.j.k.l.m.n.o.p.q.r.s.t.u.                                              ",
"                                            v.w.x.  y.z.A.B.C.5.D.E.F.G.H.I.J.K.L.                                              ",
"                                            M.N.O.  P.Q.R.S.T.U.V.W.X.Y.Z.`. +.+++@+                                            ",
"                                            #+$+%+  &+*+=+-+;+>+,+'+X.X.X.'+    )+!+                                            ",
"                                           +~+{+]+^+/+(+_+].].:+<+[+}+|+1+2+    3+c.                                            ",
"                                          4+5+6+7+8+9+0+a+].l.b+c+d+e+f+g+h+i+                                                  ",
"                                            )+j+k+l+m+n+o+p+q+r+s+t+u+v+w+x+y+z+                                                ",
"                                            h A+B+C+D+E+F+G+H+I+J+K+L+M+N+O+P+Q+4+                                              ",
"                                            h R+S+T+U+V+W+X+t+t+w+Y+S+Z+S+`+ @.@+@                                              ",
"                                                  @@#@$@%@&@(.*@s+Y+=@-@;@>@,@                                                  ",
"                                                      h h i+'@'@h ( S+`+h )@                                                    ",
"                                                      h h               h h                                                     ",
"                                                    h h                 h h                                                     ",
"                                                                                                                                ",
"                                                                                                                                ",
"                                                                                                                                ",
"                                                                                                                                ",
"                                                                                                                                ",
"                                                                                                                                ",
"                                                                                                                                ",
"                                                                                                                                ",
"                                                                                                                                ",
"                                                                                                                                ",
"                                                                                                                                ",
"                                                                                                                                ",
"                                                                                                                                ",
"                                                                                                                                ",
"                                                                                                                                ",
"                                                                                                                                ",
"                                                                                                                                ",
"                                                                                                                                ",
"                                                                                                                                ",
"                                                                                                                                ",
"                                                                                                                                "};
