/* XPM */
static char * en3_xpm[] = {
"64 64 283 2",
"  	c None",
". 	c #9E7466",
"+ 	c #DA965F",
"@ 	c #E6B658",
"# 	c #F1D050",
"$ 	c #DA985E",
"% 	c #D9945F",
"& 	c #E3AE5A",
"* 	c #EFCC51",
"= 	c #F3D54E",
"- 	c #E7B957",
"; 	c #D9955F",
"> 	c #FBE548",
", 	c #FEEB45",
"' 	c #DEA35C",
") 	c #E2AD5A",
"! 	c #E8BB56",
"~ 	c #E7B857",
"{ 	c #222030",
"] 	c #52383C",
"^ 	c #FAE348",
"/ 	c #342933",
"( 	c #BA6F62",
"_ 	c #794A47",
": 	c #171C2E",
"< 	c #DCA25B",
"[ 	c #FEF089",
"} 	c #FFED52",
"| 	c #D7A855",
"1 	c #6E4D3D",
"2 	c #8A5B52",
"3 	c #BD6D61",
"4 	c #BA7869",
"5 	c #4D3046",
"6 	c #191D2F",
"7 	c #5A8144",
"8 	c #7B5540",
"9 	c #EAC254",
"0 	c #FFF7C8",
"a 	c #FAE88F",
"b 	c #A9764D",
"c 	c #4E703F",
"d 	c #182D30",
"e 	c #2C2531",
"f 	c #BD7465",
"g 	c #BE7164",
"h 	c #915D62",
"i 	c #5D3752",
"j 	c #5D303A",
"k 	c #3A273C",
"l 	c #171D2E",
"m 	c #5D8E48",
"n 	c #233531",
"o 	c #312831",
"p 	c #DAB153",
"q 	c #FBEA91",
"r 	c #FFF8D4",
"s 	c #D8A959",
"t 	c #5A4038",
"u 	c #7AB054",
"v 	c #76BD58",
"w 	c #2C623A",
"x 	c #A55A55",
"y 	c #A55B5D",
"z 	c #7D4156",
"A 	c #8D4348",
"B 	c #884658",
"C 	c #683D5A",
"D 	c #4F304A",
"E 	c #161C2E",
"F 	c #68A750",
"G 	c #352F34",
"H 	c #E0C788",
"I 	c #F0E4BB",
"J 	c #F1E091",
"K 	c #89684C",
"L 	c #405D39",
"M 	c #8DC95D",
"N 	c #63BC57",
"O 	c #566057",
"P 	c #9D4C53",
"Q 	c #AD5256",
"R 	c #81445A",
"S 	c #653B57",
"T 	c #593142",
"U 	c #733A45",
"V 	c #58354F",
"W 	c #43553E",
"X 	c #2E7B40",
"Y 	c #242531",
"Z 	c #AE9C76",
"` 	c #E7D6A1",
" .	c #D4BE8D",
"..	c #8A7B5F",
"+.	c #67944A",
"@.	c #64BE57",
"#.	c #3E8A61",
"$.	c #765553",
"%.	c #A95156",
"&.	c #A24E57",
"*.	c #A64F56",
"=.	c #994B57",
"-.	c #76405A",
";.	c #693D5B",
">.	c #623A56",
",.	c #1C1D30",
"'.	c #2C2A33",
").	c #BB9F75",
"!.	c #867359",
"~.	c #A6916D",
"{.	c #766C56",
"].	c #1F1F2F",
"^.	c #2A3632",
"/.	c #60BA56",
"(.	c #3F8463",
"_.	c #665855",
":.	c #A85056",
"<.	c #924958",
"[.	c #77415A",
"}.	c #683C5A",
"|.	c #583550",
"1.	c #57344F",
"2.	c #1A1D2F",
"3.	c #202230",
"4.	c #37313B",
"5.	c #3E373D",
"6.	c #976558",
"7.	c #945A52",
"8.	c #3E864F",
"9.	c #456B62",
"0.	c #733B41",
"a.	c #713E56",
"b.	c #492E46",
"c.	c #2D2A38",
"d.	c #226039",
"e.	c #2F9447",
"f.	c #449A4A",
"g.	c #459047",
"h.	c #18272F",
"i.	c #1E2130",
"j.	c #735F5B",
"k.	c #735E57",
"l.	c #A3695C",
"m.	c #BF7566",
"n.	c #BB6D61",
"o.	c #B45655",
"p.	c #B55555",
"q.	c #9E4C53",
"r.	c #2D2739",
"s.	c #2B4849",
"t.	c #3D8960",
"u.	c #38B151",
"v.	c #38B251",
"w.	c #4BB753",
"x.	c #8BD060",
"y.	c #61A44E",
"z.	c #18262F",
"A.	c #74605B",
"B.	c #7E675C",
"C.	c #945E55",
"D.	c #B85C58",
"E.	c #B65555",
"F.	c #71383F",
"G.	c #294547",
"H.	c #3A655F",
"I.	c #407B66",
"J.	c #379C54",
"K.	c #297D40",
"L.	c #25703D",
"M.	c #49A44D",
"N.	c #7DC95C",
"O.	c #407940",
"P.	c #4A3F44",
"Q.	c #5A4B4A",
"R.	c #182A2F",
"S.	c #322537",
"T.	c #834048",
"U.	c #A54E53",
"V.	c #B45455",
"W.	c #6A3745",
"X.	c #1F323A",
"Y.	c #406F67",
"Z.	c #417168",
"`.	c #345955",
" +	c #365E59",
".+	c #22373D",
"++	c #256F3D",
"@+	c #329D4A",
"#+	c #297C40",
"$+	c #203030",
"%+	c #71A24F",
"&+	c #3B5838",
"*+	c #319B49",
"=+	c #563041",
"-+	c #9F4D56",
";+	c #A14E56",
">+	c #A44F57",
",+	c #894658",
"'+	c #453849",
")+	c #375E59",
"!+	c #417067",
"~+	c #253E42",
"{+	c #182B2F",
"]+	c #17262F",
"^+	c #286F3D",
"/+	c #7ECA5C",
"(+	c #82BC58",
"_+	c #17252F",
":+	c #452734",
"<+	c #502B36",
"[+	c #A34D4E",
"}+	c #A65057",
"|+	c #6A3D5A",
"1+	c #52344C",
"2+	c #3C5253",
"3+	c #2B2236",
"4+	c #23643A",
"5+	c #3AB251",
"6+	c #3CB051",
"7+	c #262631",
"8+	c #713C40",
"9+	c #98484B",
"0+	c #97474B",
"a+	c #613853",
"b+	c #673D5A",
"c+	c #4A4C54",
"d+	c #56364F",
"e+	c #5C3752",
"f+	c #2C2236",
"g+	c #256D3C",
"h+	c #235E39",
"i+	c #161D2E",
"j+	c #8E7761",
"k+	c #9F8667",
"l+	c #A08768",
"m+	c #917962",
"n+	c #AE946D",
"o+	c #998264",
"p+	c #57494C",
"q+	c #564747",
"r+	c #554647",
"s+	c #504343",
"t+	c #7C655B",
"u+	c #5E4D4A",
"v+	c #1A1E2F",
"w+	c #685653",
"x+	c #212231",
"y+	c #332438",
"z+	c #5B354F",
"A+	c #4E3047",
"B+	c #493344",
"C+	c #483144",
"D+	c #4B3544",
"E+	c #493244",
"F+	c #442E43",
"G+	c #544646",
"H+	c #40373C",
"I+	c #594B4B",
"J+	c #252532",
"K+	c #1B2830",
"L+	c #319B4A",
"M+	c #183030",
"N+	c #191E2F",
"O+	c #6E363E",
"P+	c #AB5155",
"Q+	c #7E4359",
"R+	c #663B59",
"S+	c #3D313D",
"T+	c #7A655D",
"U+	c #282633",
"V+	c #725E59",
"W+	c #3D4F3E",
"X+	c #215F39",
"Y+	c #181C2E",
"Z+	c #271F30",
"`+	c #291F30",
" @	c #412A41",
".@	c #38273C",
"+@	c #1D1E30",
"@@	c #67554F",
"#@	c #473D40",
"$@	c #3C343A",
"%@	c #695650",
"                                                                                                                                ",
"                                                                                                                                ",
"                                                                                                                                ",
"                                                                                                                                ",
"                                                                                                                                ",
"                                                                                                                                ",
"                                                                                                                                ",
"                                                                                                                                ",
"                                                                                                                                ",
"                                                                                                                                ",
"                                                                                                                                ",
"                                                                                                                                ",
"                                                                                                                                ",
"                                                                                                                                ",
"                                                                                                                                ",
"                                                                                                                                ",
"                                                .                                                                               ",
"                                    + @                                                                                         ",
"                                      # $                                                                                       ",
"                                          % % % %                                                                               ",
"                                    % % % & * = - %                                                                             ",
"                                      % ; @ * > , ' %                                                                           ",
"                                          % ) ! > ~ %     { ]                                                                   ",
"                                            ' ^ > ~       / ( _ :                                                               ",
"                                            < [ } | 1     2 3 4 5 6         7                                                   ",
"                                          8 9 0 a b c d e f g h i j k 6   l m n                                                 ",
"                                        o p q r s t u v w x y z A B C D E c F                                                   ",
"                                        G H I J K   L M N O P Q R S T U V W X                                                   ",
"                                        Y Z `  ...    +.@.#.$.%.&.*.=.-.;.>.,.                                                  ",
"                                        '.).!.~.{.  ].^./.(._.:.<.[.}.|.V 1.2.                                                  ",
"                                          3.4.5.    6.7.8.9.0.Q a.b.c.d.e.f.g.h.                                                ",
"                                          i.j.k.    l.m.n.o.p.q.r.s.t.u.v.w.x.y.z.                                              ",
"                                            A.B.    C.D.E.E.E.F.G.H.I.J.K.L.M.N.O.                                              ",
"                                            P.Q.R.  S.T.U.V.V.W.X.Y.Z.`. +.+  ++@+#+                                            ",
"                                          $+%+&+*+  =+-+;+>+%.,+'+)+Z.Z.!+~+    {+]+                                            ",
"                                          ^+/+(+^+_+:+<+[+E.E.}+|+1+2+Z.2+3+                                                    ",
"                                          4+5+6+R.l 7+8+9+9+0+a+}.}.b+c+d+e+f+E                                                 ",
"                                            g+h+i+'.j+k+l+m+n+o+p+q+r+s+t+u+P.g+]+                                              ",
"                                            v+w+x+y+z+A+B+C+D+E+F+r+G+H+I+J+K+L+M+                                              ",
"                                            N+G+  O+9+P+-+Q+;.;.;.R+S+T+U+V+W+X+                                                ",
"                                                    Y+Z+`+k  @ @.@+@@@#@E $@%@                                                  ",
"                                                      E E           E   E E                                                     ",
"                                                    E E                 E E                                                     ",
"                                                                                                                                ",
"                                                                                                                                ",
"                                                                                                                                ",
"                                                                                                                                ",
"                                                                                                                                ",
"                                                                                                                                ",
"                                                                                                                                ",
"                                                                                                                                ",
"                                                                                                                                ",
"                                                                                                                                ",
"                                                                                                                                ",
"                                                                                                                                ",
"                                                                                                                                ",
"                                                                                                                                ",
"                                                                                                                                ",
"                                                                                                                                ",
"                                                                                                                                ",
"                                                                                                                                ",
"                                                                                                                                ",
"                                                                                                                                ",
"                                                                                                                                "};
