/* XPM */
static char * en4_xpm[] = {
"64 64 287 2",
"  	c None",
". 	c #E0A75B",
"+ 	c #E2AE5A",
"@ 	c #D9945F",
"# 	c #9E7466",
"$ 	c #F3D34F",
"% 	c #E9BD56",
"& 	c #F1D050",
"* 	c #DB995E",
"= 	c #DA975E",
"- 	c #D9955F",
"; 	c #EABF55",
"> 	c #F3D44F",
", 	c #E7B95E",
"' 	c #EBC254",
") 	c #FFF2A1",
"! 	c #F3D890",
"~ 	c #DA965F",
"{ 	c #644543",
"] 	c #6B4041",
"^ 	c #D8935F",
"/ 	c #DA985E",
"( 	c #FEEB46",
"_ 	c #FFED4D",
": 	c #E7B857",
"< 	c #8A5C52",
"[ 	c #BA675E",
"} 	c #733A40",
"| 	c #171C2E",
"1 	c #D8975D",
"2 	c #FEEC52",
"3 	c #FFF5B1",
"4 	c #F2D34F",
"5 	c #946648",
"6 	c #523A3C",
"7 	c #B87766",
"8 	c #BD6D62",
"9 	c #B06D64",
"0 	c #4B2E46",
"a 	c #161C2E",
"b 	c #3E5A39",
"c 	c #385337",
"d 	c #5D4239",
"e 	c #E9C154",
"f 	c #FFF191",
"g 	c #FFF6C7",
"h 	c #D7A854",
"i 	c #323232",
"j 	c #71A34F",
"k 	c #244E35",
"l 	c #78514A",
"m 	c #BD6C61",
"n 	c #B66A61",
"o 	c #75485A",
"p 	c #5A3142",
"q 	c #95474B",
"r 	c #4C2E46",
"s 	c #1B1D30",
"t 	c #1C262F",
"u 	c #7AB756",
"v 	c #295637",
"w 	c #996B4A",
"x 	c #F5DE67",
"y 	c #FFF6C5",
"z 	c #F6E194",
"A 	c #996A49",
"B 	c #243331",
"C 	c #8BC85D",
"D 	c #6CBA56",
"E 	c #32703F",
"F 	c #AA5152",
"G 	c #944A58",
"H 	c #9C4A50",
"I 	c #AC5155",
"J 	c #894659",
"K 	c #5D3753",
"L 	c #3C273C",
"M 	c #222B31",
"N 	c #60B153",
"O 	c #183030",
"P 	c #847056",
"Q 	c #D8C391",
"R 	c #EFE1AA",
"S 	c #D6C18F",
"T 	c #352E34",
"U 	c #507340",
"V 	c #85CC5E",
"W 	c #3CA657",
"X 	c #565D58",
"Y 	c #AA5052",
"Z 	c #9C4C58",
"` 	c #6F3F5B",
" .	c #743C4E",
"..	c #8D4347",
"+.	c #A24D52",
"@.	c #643A56",
"#.	c #2F483B",
"$.	c #574C42",
"%.	c #D6C190",
"&.	c #BEAB81",
"*.	c #D1BA8A",
"=.	c #393739",
"-.	c #171D2E",
";.	c #71A550",
">.	c #3DB252",
",.	c #407367",
"'.	c #9A5857",
").	c #B45455",
"!.	c #A85056",
"~.	c #914958",
"{.	c #6C3E5B",
"].	c #693D5B",
"^.	c #57344F",
"/.	c #554A41",
"(.	c #927D5E",
"_.	c #584D42",
":.	c #927D5F",
"<.	c #262631",
"[.	c #654543",
"}.	c #4F6F3F",
"|.	c #3DA557",
"1.	c #3D6B63",
"2.	c #814045",
"3.	c #A95156",
"4.	c #693D5A",
"5.	c #51324B",
"6.	c #412E41",
"7.	c #413542",
"8.	c #37323D",
"9.	c #17222F",
"0.	c #2B2935",
"a.	c #584A4C",
"b.	c #38323B",
"c.	c #312733",
"d.	c #C1806C",
"e.	c #935D53",
"f.	c #797C5D",
"g.	c #765553",
"h.	c #AB5051",
"i.	c #9F4D57",
"j.	c #25323B",
"k.	c #276541",
"l.	c #329E4A",
"m.	c #37B050",
"n.	c #6DC058",
"o.	c #6BB053",
"p.	c #245036",
"q.	c #443B41",
"r.	c #897065",
"s.	c #5D4D4A",
"t.	c #C17E6B",
"u.	c #C07666",
"v.	c #BE7163",
"w.	c #B85C58",
"x.	c #B55555",
"y.	c #673F47",
"z.	c #294647",
"A.	c #3D6A63",
"B.	c #3BA05A",
"C.	c #38B251",
"D.	c #4CB653",
"E.	c #86CD5E",
"F.	c #82C35B",
"G.	c #255236",
"H.	c #413940",
"I.	c #7F6860",
"J.	c #222030",
"K.	c #A0675A",
"L.	c #B9625B",
"M.	c #B65555",
"N.	c #B45454",
"O.	c #282130",
"P.	c #2A4848",
"Q.	c #3E6B63",
"R.	c #407B65",
"S.	c #2B7345",
"T.	c #193132",
"U.	c #1D4D35",
"V.	c #2C7F41",
"W.	c #369748",
"X.	c #37AD4F",
"Y.	c #1E4E35",
"Z.	c #1E2730",
"`.	c #423C40",
" +	c #2E4B39",
".+	c #215B38",
"++	c #4D2F46",
"@+	c #733B4A",
"#+	c #9C4C57",
"$+	c #9B4C57",
"%+	c #442B42",
"&+	c #2E4F4E",
"*+	c #417168",
"=+	c #3A655F",
"-+	c #3D6962",
";+	c #182231",
">+	c #161D2E",
",+	c #1C4734",
"'+	c #5B8E47",
")+	c #84BD59",
"!+	c #3D6B3C",
"~+	c #2F9447",
"{+	c #8C444B",
"]+	c #98484B",
"^+	c #894658",
"/+	c #432F44",
"(+	c #375E59",
"_+	c #365E59",
":+	c #172030",
"<+	c #339648",
"[+	c #76C65B",
"}+	c #5E9B4C",
"|+	c #1C4533",
"1+	c #2B2030",
"2+	c #7F3D43",
"3+	c #AF5356",
"4+	c #80435A",
"5+	c #5D3853",
"6+	c #4A4F56",
"7+	c #416E66",
"8+	c #50354C",
"9+	c #3B283E",
"0+	c #297D40",
"a+	c #2C8944",
"b+	c #482C36",
"c+	c #763E42",
"d+	c #97484A",
"e+	c #87424C",
"f+	c #683C5A",
"g+	c #673C5A",
"h+	c #4B3248",
"i+	c #5C3752",
"j+	c #191D2F",
"k+	c #17252F",
"l+	c #1A2B30",
"m+	c #2B2C35",
"n+	c #7F6B57",
"o+	c #9F8667",
"p+	c #917962",
"q+	c #A08768",
"r+	c #998264",
"s+	c #594A4C",
"t+	c #4E4144",
"u+	c #504243",
"v+	c #735E56",
"w+	c #695650",
"x+	c #675551",
"y+	c #36393B",
"z+	c #2E9146",
"A+	c #17262F",
"B+	c #41383F",
"C+	c #705C55",
"D+	c #54324A",
"E+	c #55324B",
"F+	c #483144",
"G+	c #493344",
"H+	c #493244",
"I+	c #4D3A45",
"J+	c #4E4242",
"K+	c #4F4344",
"L+	c #4D4144",
"M+	c #202231",
"N+	c #1A2F30",
"O+	c #1A1E2F",
"P+	c #242431",
"Q+	c #70373E",
"R+	c #B15354",
"S+	c #B25354",
"T+	c #9F4D56",
"U+	c #904858",
"V+	c #492F46",
"W+	c #5E4F4F",
"X+	c #5F4F4C",
"Y+	c #62514F",
"Z+	c #493E42",
"`+	c #1C4433",
" @	c #215F39",
".@	c #2C2030",
"+@	c #291F30",
"@@	c #281F30",
"#@	c #332437",
"$@	c #412A41",
"%@	c #2C2236",
"&@	c #5C4C49",
"*@	c #584948",
"=@	c #212231",
"-@	c #796359",
"                                                                                                                                ",
"                                                                                                                                ",
"                                                                                                                                ",
"                                                                                                                                ",
"                                                                                                                                ",
"                                                                                                                                ",
"                                                                                                                                ",
"                                                                                                                                ",
"                                                                                                                                ",
"                                                                                                                                ",
"                                                                                                                                ",
"                                                                                                                                ",
"                                                                                                                                ",
"                                                                                                                                ",
"                                                                                                                                ",
"                                                                                                                                ",
"                                                                                                                                ",
"                                    . + @     # #                                                                               ",
"                                    $ %                                                                                         ",
"                                    & *                                                                                         ",
"                                      @ = @ @ @                                                                                 ",
"                                    @ - ; > , - @                                                                               ",
"                                      @ @ ' ) ! ~         { ]                                                                   ",
"                                        ^ / ( _ :         < [ } |                                                               ",
"                                          1 2 3 4 5     6 7 8 9 0 a       b c                                                   ",
"                                        d e f g h i j k l m n o p q r s t u v                                                   ",
"                                        w x y z A B C D E F G H I J K L M N O                                                   ",
"                                        P Q R S T   U V W X Y Z `  ...+.@.#.                                                    ",
"                                        $.%.&.*.=.  -.;.>.,.'.).).!.~.{.].^.                                                    ",
"                                        /.(._.:.<.  [.}.|.1.2.3.J 4.5.6.7.8.9.                                                  ",
"                                          0.a.b.  c.d.e.f.g.h.i.0 j.k.l.m.n.o.p.                                                ",
"                                          q.r.s.  c.t.u.v.w.x.y.z.A.B.C.m.D.E.F.G.                                              ",
"                                          H.I.s.  J.K.L.M.M.N.O.P.Q.R.S.T.U.V.W.X.Y.                                            ",
"                                          Z.`. +.+  ++@+#+3.$+%+&+*+*+=+-+;+  >+Y.,+                                            ",
"                                          '+)+!+~+  {+]+).x.).^+/+(+*+*+_+:+                                                    ",
"                                          <+[+}+|+a 1+2+x.M.3+4+].5+6+7+8+9+                                                    ",
"                                          0+m.a+a a b+c+d+]+e+K f+f+g+h+K i+j+k+                                                ",
"                                            l+m+    n+o+p+q+q+r+s+t+u+v+w+x+y+z+A+                                              ",
"                                            B+C+    D+E+F+G+G+H+I+t+J+K+L+M+N+X.O                                               ",
"                                            O+P+  Q+R+S+T+U+].].g+V+W+X+Y+Z+`+ @                                                ",
"                                                    .@+@@@#@$@$@%@&@*@=@-@=@                                                    ",
"                                                      a a               a a                                                     ",
"                                                    a a                 a a                                                     ",
"                                                                                                                                ",
"                                                                                                                                ",
"                                                                                                                                ",
"                                                                                                                                ",
"                                                                                                                                ",
"                                                                                                                                ",
"                                                                                                                                ",
"                                                                                                                                ",
"                                                                                                                                ",
"                                                                                                                                ",
"                                                                                                                                ",
"                                                                                                                                ",
"                                                                                                                                ",
"                                                                                                                                ",
"                                                                                                                                ",
"                                                                                                                                ",
"                                                                                                                                ",
"                                                                                                                                ",
"                                                                                                                                ",
"                                                                                                                                ",
"                                                                                                                                "};
