/* XPM */
static char * en5_xpm[] = {
"64 64 280 2",
"  	c None",
". 	c #D9945F",
"+ 	c #9E7466",
"@ 	c #DEA25C",
"# 	c #EAC155",
"$ 	c #EFCB52",
"% 	c #F0CD51",
"& 	c #DEA35C",
"* 	c #EECA52",
"= 	c #D9955F",
"- 	c #E2AC5A",
"; 	c #E7B857",
"> 	c #DA965F",
", 	c #4A3539",
"' 	c #312733",
") 	c #C18456",
"! 	c #DDA35B",
"~ 	c #FEEB45",
"{ 	c #FEF08B",
"] 	c #F3D353",
"^ 	c #7B534C",
"/ 	c #B57263",
"( 	c #4A2935",
"_ 	c #AB754F",
": 	c #F4D54E",
"< 	c #FFF3A6",
"[ 	c #FEEF8C",
"} 	c #CE9059",
"| 	c #2A2431",
"1 	c #AF7463",
"2 	c #BD6D61",
"3 	c #B0625A",
"4 	c #3C273C",
"5 	c #161C2E",
"6 	c #1E2A2F",
"7 	c #1D282F",
"8 	c #956648",
"9 	c #FFF7C5",
"0 	c #FEEB52",
"a 	c #B88152",
"b 	c #1B252F",
"c 	c #507440",
"d 	c #17252F",
"e 	c #78514B",
"f 	c #C5826D",
"g 	c #BB685E",
"h 	c #A55C5D",
"i 	c #4F2F46",
"j 	c #6E363E",
"k 	c #462835",
"l 	c #171D2E",
"m 	c #70A34F",
"n 	c #406D3D",
"o 	c #AA784D",
"p 	c #FFFCED",
"q 	c #F3D55A",
"r 	c #A9744E",
"s 	c #263631",
"t 	c #8BCD5F",
"u 	c #459A4A",
"v 	c #50543F",
"w 	c #B7615B",
"x 	c #B05356",
"y 	c #88434D",
"z 	c #A14C4E",
"A 	c #AD5256",
"B 	c #6A3D59",
"C 	c #37263B",
"D 	c #222F30",
"E 	c #73C059",
"F 	c #193030",
"G 	c #A87B55",
"H 	c #F1E1A1",
"I 	c #FAEFB8",
"J 	c #DEBB74",
"K 	c #7E5741",
"L 	c #68954B",
"M 	c #7FCA5D",
"N 	c #399D54",
"O 	c #775553",
"P 	c #AE5255",
"Q 	c #AE5256",
"R 	c #994B58",
"S 	c #5F3750",
"T 	c #663440",
"U 	c #8B4247",
"V 	c #53324B",
"W 	c #2A6D3D",
"X 	c #6D5E4C",
"Y 	c #CCB88A",
"Z 	c #EDDFA9",
"` 	c #D8BE8D",
" .	c #343135",
"..	c #202D30",
"+.	c #83BD59",
"@.	c #59B956",
"#.	c #3E6D63",
"$.	c #9A5152",
"%.	c #A34F57",
"&.	c #A24E57",
"*.	c #B45455",
"=.	c #9A4B58",
"-.	c #6A3D5B",
";.	c #50314B",
">.	c #6F5F4C",
",.	c #D7BC8B",
"'.	c #8C795D",
").	c #CDB788",
"!.	c #383738",
"~.	c #242130",
"{.	c #5B8345",
"].	c #5AB558",
"^.	c #407167",
"/.	c #8E4E4E",
"(.	c #B55555",
"_.	c #A85056",
":.	c #924958",
"<.	c #713E56",
"[.	c #58354F",
"}.	c #492E46",
"|.	c #282832",
"1.	c #534940",
"2.	c #50463F",
"3.	c #574B42",
"4.	c #B67967",
"5.	c #65433E",
"6.	c #448F5E",
"7.	c #3F5955",
"8.	c #97474A",
"9.	c #A14E57",
"0.	c #5F3853",
"a.	c #412C42",
"b.	c #1E2C32",
"c.	c #297C40",
"d.	c #309548",
"e.	c #53A04C",
"f.	c #438443",
"g.	c #182B2F",
"h.	c #37313B",
"i.	c #735F5B",
"j.	c #4B4043",
"k.	c #C3816D",
"l.	c #BD7364",
"m.	c #B65C58",
"n.	c #B65555",
"o.	c #7D404D",
"p.	c #1D2433",
"q.	c #365E59",
"r.	c #3A9E59",
"s.	c #38B251",
"t.	c #64BF57",
"u.	c #92D361",
"v.	c #6AA850",
"w.	c #1D2D30",
"x.	c #483E43",
"y.	c #897065",
"z.	c #5E4E4A",
"A.	c #B87A68",
"B.	c #C07667",
"C.	c #BC695F",
"D.	c #BB665E",
"E.	c #B45554",
"F.	c #303039",
"G.	c #2E4F4E",
"H.	c #3E6C64",
"I.	c #3E8B61",
"J.	c #33984D",
"K.	c #256F3D",
"L.	c #297D40",
"M.	c #49A44D",
"N.	c #62BC56",
"O.	c #349D4A",
"P.	c #183030",
"Q.	c #332E39",
"R.	c #554746",
"S.	c #5A3C45",
"T.	c #955A54",
"U.	c #B25E5B",
"V.	c #AD5255",
"W.	c #332437",
"X.	c #417168",
"Y.	c #417067",
"Z.	c #305250",
"`.	c #335754",
" +	c #171F2F",
".+	c #215C38",
"++	c #3C5738",
"@+	c #3F5839",
"#+	c #225B38",
"$+	c #7D3F4D",
"%+	c #A14E56",
"&+	c #A34E57",
"*+	c #A95156",
"=+	c #353F46",
"-+	c #3D6A63",
";+	c #3D6A62",
">+	c #182231",
",+	c #539649",
"'+	c #92D261",
")+	c #507740",
"!+	c #2C8743",
"~+	c #7E3D42",
"{+	c #753940",
"]+	c #B55454",
"^+	c #633A57",
"/+	c #4C3C4D",
"(+	c #395F5B",
"_+	c #3B3945",
":+	c #1C1D30",
"<+	c #2F9447",
"[+	c #59BB55",
"}+	c #529E4C",
"|+	c #16212E",
"1+	c #452734",
"2+	c #9F4B4D",
"3+	c #693D5B",
"4+	c #64455C",
"5+	c #564957",
"6+	c #57344F",
"7+	c #1A1D2F",
"8+	c #23643A",
"9+	c #256E3C",
"0+	c #615147",
"a+	c #7B6553",
"b+	c #743F42",
"c+	c #743E41",
"d+	c #693B42",
"e+	c #55364D",
"f+	c #583550",
"g+	c #462F44",
"h+	c #4C3147",
"i+	c #4B3047",
"j+	c #235E39",
"k+	c #26703D",
"l+	c #292834",
"m+	c #423940",
"n+	c #605148",
"o+	c #786653",
"p+	c #907861",
"q+	c #A08768",
"r+	c #7D6A59",
"s+	c #705C55",
"t+	c #655451",
"u+	c #504343",
"v+	c #8A7164",
"w+	c #67554F",
"x+	c #625250",
"y+	c #319448",
"z+	c #37AF50",
"A+	c #39323B",
"B+	c #685650",
"C+	c #292030",
"D+	c #834354",
"E+	c #844355",
"F+	c #5D364F",
"G+	c #5A354F",
"H+	c #3A293D",
"I+	c #4D4142",
"J+	c #4C4043",
"K+	c #1C1F2F",
"L+	c #2A7444",
"M+	c #2C8944",
"N+	c #17262F",
"O+	c #442734",
"P+	c #72383F",
"Q+	c #96474B",
"R+	c #894450",
"S+	c #683C5A",
"T+	c #673C5A",
"U+	c #4E3A45",
"V+	c #6F5C58",
"W+	c #43393E",
"X+	c #60504E",
"Y+	c #675551",
"Z+	c #191D2F",
"`+	c #1E1E30",
" @	c #4B4041",
".@	c #282633",
"+@	c #1F2130",
"@@	c #514443",
"                                                                                                                                ",
"                                                                                                                                ",
"                                                                                                                                ",
"                                                                                                                                ",
"                                                                                                                                ",
"                                                                                                                                ",
"                                                                                                                                ",
"                                                                                                                                ",
"                                                                                                                                ",
"                                                                                                                                ",
"                                                                                                                                ",
"                                                                                                                                ",
"                                                                                                                                ",
"                                                                                                                                ",
"                                                                                                                                ",
"                                                                                                                                ",
"                                                                                                                                ",
"                                      . . .   +                                                                                 ",
"                                    @ #         +                                                                               ",
"                                  . $ % .                                                                                       ",
"                                  . & * = .                                                                                     ",
"                                    . . - ; & >           , '                                                                   ",
"                                      ) ! ~ { ] >         ^ / (                                                                 ",
"                                        _ : < [ }       | 1 2 3 4 5       6 7                                                   ",
"                                        8 : 9 0 a b c d e f g h i j k   l m n                                                   ",
"                                        o 0 p q r s t u v w x y z A B C D E F                                                   ",
"                                        G H I J K   L M N O P Q R S T U V W                                                     ",
"                                        X Y Z `  .  ..+.@.#.$.%.&.P *.=.-.;.                                                    ",
"                                        >.,.'.).!.  ~.{.].^./.(._.:.<.[.[.}.5                                                   ",
"                                        |.1.2.3.  | 4.5.6.7.8.9.0.a.b.c.d.e.f.g.                                                ",
"                                          h.i.j.  ' k.k.l.m.n.o.p.q.r.s.s.t.u.v.w.                                              ",
"                                          x.y.z.  | A.B.C.D.E.F.G.H.I.J.K.L.M.N.O.P.                                            ",
"                                          Q.i.R.    S.T.U.(.V.W.G.X.Y.Z.`. +  P.c..+                                            ",
"                                          ++@+#+c.  $+%+&+*+&+<.=+-+X.X.;+>+                                                    ",
"                                          ,+'+)+!+  ~+{+]+n.(.:.^+/+(+Y._+:+                                                    ",
"                                          <+[+}+|+5 1+2+n.n.&.3+3+3+4+5+3+6+7+                                                  ",
"                                          8+d.9+5   0+a+b+c+d+e+f+[.6+g+h+i+j+k+                                                ",
"                                            l+m+    n+o+p+q+q+r+s+t+u+v+w+x+y+z+P.                                              ",
"                                            A+B+  C+D+E+F+G+[.[.h+H+I+J+I+K+L+M+N+                                              ",
"                                                  O+P+8.Q+R+S+T+f+U+V+W+X+Y+5                                                   ",
"                                                      5 5 Z+`+`+5  @.@5 +@@@                                                    ",
"                                                      5 5               5 5                                                     ",
"                                                    5 5                 5 5                                                     ",
"                                                                                                                                ",
"                                                                                                                                ",
"                                                                                                                                ",
"                                                                                                                                ",
"                                                                                                                                ",
"                                                                                                                                ",
"                                                                                                                                ",
"                                                                                                                                ",
"                                                                                                                                ",
"                                                                                                                                ",
"                                                                                                                                ",
"                                                                                                                                ",
"                                                                                                                                ",
"                                                                                                                                ",
"                                                                                                                                ",
"                                                                                                                                ",
"                                                                                                                                ",
"                                                                                                                                ",
"                                                                                                                                ",
"                                                                                                                                ",
"                                                                                                                                "};
