/* XPM */
static char * Exit1_xpm[] = {
"64 64 376 2",
"  	c None",
". 	c #574238",
"+ 	c #70523F",
"@ 	c #70533F",
"# 	c #735540",
"$ 	c #906948",
"% 	c #A4774F",
"& 	c #986F4B",
"* 	c #926B49",
"= 	c #725540",
"- 	c #725640",
"; 	c #805D43",
"> 	c #846145",
", 	c #7B5C43",
"' 	c #71543F",
") 	c #554038",
"! 	c #594B3C",
"~ 	c #B7965F",
"{ 	c #775843",
"] 	c #A57854",
"^ 	c #B58D5E",
"/ 	c #B68E5E",
"( 	c #9E7954",
"_ 	c #85624A",
": 	c #86634A",
"< 	c #88644B",
"[ 	c #976F54",
"} 	c #A5815C",
"| 	c #9F7F59",
"1 	c #977A55",
"2 	c #88664C",
"3 	c #937552",
"4 	c #A88057",
"5 	c #A57954",
"6 	c #795944",
"7 	c #A28355",
"8 	c #765E44",
"9 	c #0E172D",
"0 	c #D4AF6D",
"a 	c #4C3E3D",
"b 	c #7E5E50",
"c 	c #866353",
"d 	c #826051",
"e 	c #705349",
"f 	c #684E46",
"g 	c #8A654E",
"h 	c #8F6952",
"i 	c #956D54",
"j 	c #8E6953",
"k 	c #82604D",
"l 	c #78594D",
"m 	c #503F3C",
"n 	c #6D5540",
"o 	c #BF9E64",
"p 	c #2B2733",
"q 	c #554242",
"r 	c #73564D",
"s 	c #795A4E",
"t 	c #7B5B4F",
"u 	c #7C5C4F",
"v 	c #7B5C4F",
"w 	c #795A4F",
"x 	c #795B4F",
"y 	c #77594E",
"z 	c #654D48",
"A 	c #3A3038",
"B 	c #7C6748",
"C 	c #B7955F",
"D 	c #46373A",
"E 	c #7D5D4A",
"F 	c #86624A",
"G 	c #89654A",
"H 	c #A87A54",
"I 	c #B28255",
"J 	c #9A704C",
"K 	c #976E4B",
"L 	c #9B714D",
"M 	c #B08054",
"N 	c #9C7350",
"O 	c #966D4B",
"P 	c #77584A",
"Q 	c #403337",
"R 	c #BA9660",
"S 	c #A38559",
"T 	c #694F46",
"U 	c #B48355",
"V 	c #B38255",
"W 	c #755747",
"X 	c #A5875A",
"Y 	c #876E4B",
"Z 	c #967451",
"` 	c #84614C",
" .	c #7E5D49",
"..	c #91714F",
"+.	c #A78958",
"@.	c #705548",
"#.	c #896552",
"$.	c #AC7D54",
"%.	c #A67954",
"&.	c #A97B54",
"*.	c #B58656",
"=.	c #BF935E",
"-.	c #B88A59",
";.	c #B28154",
">.	c #A67A54",
",.	c #A87B54",
"'.	c #BD905C",
").	c #BE925D",
"!.	c #B38355",
"~.	c #AD7E54",
"{.	c #77594B",
"].	c #161C2E",
"^.	c #AB8E5B",
"/.	c #59463F",
"(.	c #765749",
"_.	c #8D674B",
":.	c #87634B",
"<.	c #90694B",
"[.	c #A77A50",
"}.	c #9B724D",
"|.	c #9A714C",
"1.	c #99704C",
"2.	c #9A704D",
"3.	c #A77A54",
"4.	c #9A724C",
"5.	c #AF8053",
"6.	c #9D7352",
"7.	c #715449",
"8.	c #111A2E",
"9.	c #B6955F",
"0.	c #58453F",
"a.	c #9B7253",
"b.	c #00132D",
"c.	c #D3AD6C",
"d.	c #58453E",
"e.	c #A07553",
"f.	c #B58556",
"g.	c #B98A59",
"h.	c #B58455",
"i.	c #00122C",
"j.	c #CEA768",
"k.	c #5C4641",
"l.	c #8E694F",
"m.	c #A47853",
"n.	c #AF7F55",
"o.	c #BE915C",
"p.	c #CDA567",
"q.	c #C39860",
"r.	c #AC8858",
"s.	c #A78355",
"t.	c #986F4C",
"u.	c #9A714D",
"v.	c #AA8657",
"w.	c #B08F5B",
"x.	c #B6965F",
"y.	c #A27C52",
"z.	c #986F53",
"A.	c #4E3D3E",
"B.	c #553F37",
"C.	c #BC9C62",
"D.	c #6B5049",
"E.	c #966E53",
"F.	c #B28254",
"G.	c #A37753",
"H.	c #725549",
"I.	c #7D5C4A",
"J.	c #986F4F",
"K.	c #6E534A",
"L.	c #776145",
"M.	c #BD9D63",
"N.	c #805F51",
"O.	c #AD7E55",
"P.	c #7E6949",
"Q.	c #77584C",
"R.	c #89704C",
"S.	c #B28F5B",
"T.	c #674E46",
"U.	c #866350",
"V.	c #B18154",
"W.	c #60473A",
"X.	c #91774F",
"Y.	c #9B7950",
"Z.	c #BB905C",
"`.	c #BC8E5B",
" +	c #6F5349",
".+	c #967052",
"++	c #644B44",
"@+	c #82604A",
"#+	c #986F4E",
"$+	c #8C674F",
"%+	c #8B664B",
"&+	c #805E43",
"*+	c #755641",
"=+	c #7F5E49",
"-+	c #A98A59",
";+	c #A18657",
">+	c #B18B59",
",+	c #B68656",
"'+	c #99704B",
")+	c #996F4C",
"!+	c #86634B",
"~+	c #88634B",
"{+	c #84614B",
"]+	c #6C5148",
"^+	c #7E5C43",
"/+	c #946E4B",
"(+	c #654B3C",
"_+	c #A67952",
":+	c #B08055",
"<+	c #A67951",
"[+	c #8F774F",
"}+	c #916A49",
"|+	c #7F5E50",
"1+	c #AA8E5B",
"2+	c #A4865A",
"3+	c #7E5D50",
"4+	c #A77A51",
"5+	c #644A3B",
"6+	c #9B744F",
"7+	c #A28657",
"8+	c #776146",
"9+	c #A57853",
"0+	c #A37754",
"a+	c #A57D53",
"b+	c #816949",
"c+	c #B58456",
"d+	c #856253",
"e+	c #07152D",
"f+	c #BE9A61",
"g+	c #9B7B55",
"h+	c #6C5047",
"i+	c #88634A",
"j+	c #936B4A",
"k+	c #815F4F",
"l+	c #55403D",
"m+	c #A3774F",
"n+	c #C29861",
"o+	c #A37853",
"p+	c #AD8C5A",
"q+	c #795945",
"r+	c #A77953",
"s+	c #B18F5C",
"t+	c #634A3E",
"u+	c #88644F",
"v+	c #9C7B53",
"w+	c #A58154",
"x+	c #AF7F53",
"y+	c #926B50",
"z+	c #987954",
"A+	c #BF9A61",
"B+	c #483735",
"C+	c #A07950",
"D+	c #5E4941",
"E+	c #52413D",
"F+	c #926C4C",
"G+	c #9A724D",
"H+	c #906949",
"I+	c #6A4E3E",
"J+	c #AC8259",
"K+	c #B58557",
"L+	c #866E4B",
"M+	c #9B714E",
"N+	c #896948",
"O+	c #6C5A42",
"P+	c #8D6748",
"Q+	c #785A4B",
"R+	c #76594B",
"S+	c #AF8054",
"T+	c #59453F",
"U+	c #4E3E3B",
"V+	c #B68D5A",
"W+	c #00142D",
"X+	c #4C3A36",
"Y+	c #5F473A",
"Z+	c #BA9961",
"`+	c #BF9C63",
" @	c #B89861",
".@	c #BB9A62",
"+@	c #7F6A49",
"@@	c #936C4E",
"#@	c #BB945E",
"$@	c #614A42",
"%@	c #9B7151",
"&@	c #A08456",
"*@	c #6A4E40",
"=@	c #B99361",
"-@	c #B79760",
";@	c #B5965F",
">@	c #B89860",
",@	c #C09D66",
"'@	c #B4955F",
")@	c #62493B",
"!@	c #121A2E",
"~@	c #0E192D",
"{@	c #9D7353",
"]@	c #A47850",
"^@	c #97704C",
"/@	c #806B4A",
"(@	c #7B5B4D",
"_@	c #886648",
":@	c #836D4B",
"<@	c #7E5D4F",
"[@	c #A4784F",
"}@	c #B08053",
"|@	c #966E4B",
"1@	c #8B664C",
"2@	c #AE7F55",
"3@	c #6C503E",
"4@	c #B18155",
"5@	c #AE7F53",
"6@	c #876F4C",
"7@	c #56433E",
"8@	c #966E52",
"9@	c #8A714C",
"0@	c #483B39",
"a@	c #886453",
"b@	c #846148",
"c@	c #A47852",
"d@	c #A27754",
"e@	c #141B2E",
"f@	c #53403D",
"g@	c #825F46",
"h@	c #8E6848",
"i@	c #71533F",
"j@	c #9E7454",
"k@	c #8B6647",
"l@	c #9F8456",
"m@	c #7C5C4D",
"n@	c #AF8256",
"o@	c #A68A59",
"p@	c #151C2E",
"q@	c #4B3A3B",
"r@	c #594339",
"s@	c #3D3133",
"t@	c #5C4539",
"u@	c #9F7450",
"v@	c #9D724D",
"w@	c #765740",
"x@	c #836044",
"y@	c #956D4A",
"z@	c #755643",
"A@	c #815E44",
"B@	c #5A443F",
"C@	c #A0754F",
"D@	c #8D714C",
"E@	c #604C41",
"F@	c #936C53",
"G@	c #CBA568",
"H@	c #4C4138",
"I@	c #AE855A",
"J@	c #AB7F53",
"K@	c #A28757",
"L@	c #664C45",
"M@	c #7C6048",
"N@	c #B79860",
"O@	c #171C2E",
"P@	c #C59C62",
"Q@	c #AD7E53",
"R@	c #C9A165",
"S@	c #705E44",
"T@	c #513E3D",
"U@	c #2C2832",
"V@	c #262630",
"W@	c #8C6949",
"X@	c #A77B55",
"Y@	c #95704C",
"Z@	c #BF9F64",
"`@	c #191D2E",
" #	c #1D1F2E",
".#	c #423434",
"+#	c #976E4D",
"@#	c #9C8154",
"##	c #8D764F",
"$#	c #161B2D",
"%#	c #1E1F2F",
"&#	c #7A6647",
"                                                                                                                                ",
"                                                                                                                                ",
"                                                                                                                                ",
"                                                                                                                                ",
"                                                                                                                                ",
"                                                                                                                                ",
"                                                                                                                                ",
"                                                                                                                                ",
"                                                                                                                                ",
"                                                                                                                                ",
"                                                                                                                                ",
"                                                                                                                                ",
"                                                                                                                                ",
"                                                                                                                                ",
"                                                                                                                                ",
"                                                                                                                                ",
"                                                                                                                                ",
"                                                                                                                                ",
"                                                                                                                                ",
"                                                                                                                                ",
"                                                                                                                                ",
"                                                                                                                                ",
"                                                                                                                                ",
"                                                                                                                                ",
"                                                                                                                                ",
"                                                                                                                                ",
"                                                                                                                                ",
"                                                                                                                                ",
"                                                                                                                                ",
"                                                                                                                                ",
"                  . + @ @ # $ % & * + @ @ + = - - @ + ; > , ' @ @ )                                                             ",
"                ! ~ { ] ^ / ( _ _ : _ _ < [ } | 1 2 _ _ _ 3 4 5 6 7 8                                                           ",
"                9 0 a b c c d e f g h i c c c c c c c c c j k l m 0 9                                                           ",
"                n o p q r s t u v s s w u u u u x s s s s s y z A o n                                                           ",
"                B C D E F G H I I J K L I I I M N K K K O _ F P Q R B                                                           ",
"                B S T I U U U U U U U U U U U U U U U U U U U V W X B                                                           ",
"                Y Z ` U U U U U U U U U U U U U U U U U U U U U  ...Y                                                           ",
"                +.@.#.$.%.5 &.*.=.-.;.M 5 >.,.V V '.).!.U U U ~.{.@.+.                                                          ",
"              ].^./.(._.:.<.,.[.}.|.1.1.2.3.3.H %.|.4.5.U U !.6.7./.^.].                                                        ",
"              8.9.0.a.U U U U U U U U U U U U U U U U U U U U U a.0.9.8.                                                        ",
"              b.c.d.e.U U U U f.U U U U g.U U U U U h.f.U U U U e.d.c.b.                                                        ",
"              i.j.k.l.m.n.U o.p.q.r.s.1.1.t.& & u.v.w.x.y.1.1.J z.A.j.i.                                                        ",
"              B.C.D.E.V U U U U U F.M G.E.P H.I.J.;.;.;.;.;.;.;.E.K.C.B.                                                        ",
"              L.M.N.O.U U U U U U U U V V F.;.$.H U U U U U U U O.N.M.L.                                                        ",
"              P.M.Q.O.U U U U U U U V F.U U U !.V U U U U U U U O.Q.M.P.                                                        ",
"              R.S.T.U.] %.5 ] V.;.F.W.X.Y.Z.`.U !.;.;.$.5 5 5 ] j  +S.R.                                                        ",
"              +..+++@+#+$+%+K K 1.&+*+=+-+;+>+,+~.'+1.)+K !+~+t.{+]+.++.].                                                      ",
"              ^.S v I U U U ^+R./+(+_+:+<+[+}+U U U U U U U U U I |+S ^.].                                                      ",
"            ].1+2+3+O.U V 4+5+6+7+8+9+0+a+b+M U U c+f.U U U U U O.d+2+1+].                                                      ",
"            e+f+g+h+i+j+k+l+m+n+o+p+q+r+s+t+u+[ E.v+w+x+U U !.%.y+h+z+A+e+                                                      ",
"            B+C+D+E+F+G+H+I+&.J+K+L+M+N+O+P+Q+R+Q+S+!.4.}.}.}.}.F+T+U+V+W+                                                      ",
"            X+Y+Z+`+ @.@+@@@&.3.#@$@%@&@*@] =@-@;@-@>@,@;@;@;@;@;@;@'@)@!@                                                      ",
"            ~@{@F.V F.]@+ U !.^@/@(@_@:@<@:.t.K [@}@|@9+;.;.;.;.;.;.V.{@~@                                                      ",
"            !@1@%.2@O.3@[@4@5@6@7@8@9@0@a@~.}@V.V U ;.&.2.P+b@c@O.2@d@1@!@                                                      ",
"            e@f@g@> h@i@U j@k@l@m@n@o@p@q@r@s@t@u@4@!.v@w@x@y@z@}+A@' B@e@                                                      ",
"                    ].C@4@,.D@E@F@G@H@                                                                                          ",
"                    i@I@I J@K@L@M@N@                                                                                            ",
"                  O@y@P@Q@R@S@T@U@V@].                                                                                          ",
"                  )@W@X@Y@Z@`@                                                                                                  ",
"                   #.#+#@###                                                                                                    ",
"                    $#%#&#                                                                                                      ",
"                                                                                                                                ",
"                                                                                                                                ",
"                                                                                                                                "};
