/* XPM */
static char * Floor8_xpm[] = {
"64 64 372 2",
"  	c #7BA962",
". 	c #8BB05A",
"+ 	c #8CB159",
"@ 	c #9AB94F",
"# 	c #9BB94E",
"$ 	c #8BB159",
"% 	c #93B554",
"& 	c #79A863",
"* 	c #6C965A",
"= 	c #597C4E",
"- 	c #425C40",
"; 	c #1A2E3A",
"> 	c #3E9594",
", 	c #9AB84F",
"' 	c #99B751",
") 	c #85A763",
"! 	c #84A764",
"~ 	c #8FAF5B",
"{ 	c #99B850",
"] 	c #9DB94F",
"^ 	c #AEB955",
"/ 	c #A6B952",
"( 	c #83AD5E",
"_ 	c #99B84F",
": 	c #85AD5D",
"< 	c #81AA5C",
"[ 	c #496341",
"} 	c #192735",
"| 	c #3D9393",
"1 	c #47ABA9",
"2 	c #8EAF5B",
"3 	c #709672",
"4 	c #9AA669",
"5 	c #869D6F",
"6 	c #6C9473",
"7 	c #82A565",
"8 	c #6F9573",
"9 	c #7FA06A",
"0 	c #9AB850",
"a 	c #B6BA57",
"b 	c #BFBA5B",
"c 	c #BEBA5B",
"d 	c #A7B55B",
"e 	c #87AE5D",
"f 	c #9AB94E",
"g 	c #9CB94F",
"h 	c #AEBA55",
"i 	c #ADB955",
"j 	c #9CB94E",
"k 	c #98B44E",
"l 	c #2A3D3B",
"m 	c #44A5A3",
"n 	c #46A9A8",
"o 	c #799E6B",
"p 	c #6B9473",
"q 	c #6E9573",
"r 	c #6B9374",
"s 	c #98A66A",
"t 	c #BEB95C",
"u 	c #ADB063",
"v 	c #889E6E",
"w 	c #ACAF63",
"x 	c #BBB85D",
"y 	c #A8B25E",
"z 	c #ADB956",
"A 	c #A5B951",
"B 	c #AFBA55",
"C 	c #BDBA5A",
"D 	c #B5BA58",
"E 	c #A4B951",
"F 	c #A5A251",
"G 	c #383933",
"H 	c #686B46",
"I 	c #2B6164",
"J 	c #799D6C",
"K 	c #BAB75D",
"L 	c #6F9474",
"M 	c #ABAF63",
"N 	c #8CA06D",
"O 	c #BDB95C",
"P 	c #A5B952",
"Q 	c #90AF5B",
"R 	c #6F9672",
"S 	c #868E46",
"T 	c #A4A051",
"U 	c #B8B358",
"V 	c #2E3031",
"W 	c #AEB162",
"X 	c #BCB95C",
"Y 	c #BDB95B",
"Z 	c #B0B55D",
"` 	c #A1B15F",
" .	c #B6BA58",
"..	c #BCB95B",
"+.	c #92AD61",
"@.	c #92AE61",
"#.	c #BCBA5A",
"$.	c #9DB15C",
"%.	c #7E9F6B",
"&.	c #A5B851",
"*.	c #BBB759",
"=.	c #6E6C3F",
"-.	c #295E61",
";.	c #A7B952",
">.	c #95B555",
",.	c #98B15C",
"'.	c #A0B15F",
").	c #7DA963",
"!.	c #7DA962",
"~.	c #9CB850",
"{.	c #8CB05A",
"].	c #7EA962",
"^.	c #7CA962",
"/.	c #ACB956",
"(.	c #B5BA57",
"_.	c #ADB954",
":.	c #B4B857",
"<.	c #706F40",
"[.	c #21292F",
"}.	c #295D61",
"|.	c #82AC5F",
"1.	c #92B455",
"2.	c #7AA863",
"3.	c #84AD5E",
"4.	c #B5B959",
"5.	c #89A348",
"6.	c #859F46",
"7.	c #20282F",
"8.	c #8DB258",
"9.	c #9BB850",
"0.	c #89A549",
"a.	c #60804E",
"b.	c #83AA5C",
"c.	c #98B64D",
"d.	c #283230",
"e.	c #85AE5D",
"f.	c #84AD5D",
"g.	c #90B153",
"h.	c #456041",
"i.	c #96B44D",
"j.	c #223035",
"k.	c #A5B953",
"l.	c #1D2730",
"m.	c #2F3C33",
"n.	c #3D9191",
"o.	c #8EB258",
"p.	c #B4B957",
"q.	c #A1B25F",
"r.	c #96B15C",
"s.	c #78A762",
"t.	c #4A6745",
"u.	c #689157",
"v.	c #80A85B",
"w.	c #718841",
"x.	c #356764",
"y.	c #9EB94F",
"z.	c #A8B953",
"A.	c #A9B65A",
"B.	c #92AE60",
"C.	c #739E6B",
"D.	c #729E6C",
"E.	c #78A764",
"F.	c #77A562",
"G.	c #708640",
"H.	c #8DB158",
"I.	c #8AB05A",
"J.	c #74A268",
"K.	c #719D6C",
"L.	c #709D6D",
"M.	c #679175",
"N.	c #769C6D",
"O.	c #83A665",
"P.	c #96B653",
"Q.	c #7A9E6C",
"R.	c #6D9473",
"S.	c #6C9870",
"T.	c #76A368",
"U.	c #8DAE5A",
"V.	c #95B34E",
"W.	c #678449",
"X.	c #759852",
"Y.	c #9AB74D",
"Z.	c #576939",
"`.	c #689274",
" +	c #9AA769",
".+	c #6C9374",
"++	c #749772",
"@+	c #6E9473",
"#+	c #9CB05D",
"$+	c #B4BA57",
"%+	c #93995A",
"&+	c #464A35",
"*+	c #8A8748",
"=+	c #6B693E",
"-+	c #263031",
";+	c #2F6161",
">+	c #B7BA58",
",+	c #BBBA5A",
"'+	c #79A467",
")+	c #6F9870",
"!+	c #9DA868",
"~+	c #9FB94F",
"{+	c #BCB75A",
"]+	c #B3B958",
"^+	c #BBB95B",
"/+	c #8DA549",
"(+	c #A4A251",
"_+	c #BDB85A",
":+	c #BAB559",
"<+	c #2F3131",
"[+	c #ACB955",
"}+	c #ACB954",
"|+	c #A9B453",
"1+	c #1A2735",
"2+	c #8DB159",
"3+	c #7DAA61",
"4+	c #5A6E3B",
"5+	c #2C3130",
"6+	c #94B553",
"7+	c #80AA62",
"8+	c #A2B25E",
"9+	c #BDBA5B",
"0+	c #B1B65C",
"a+	c #7CA961",
"b+	c #78A561",
"c+	c #445F41",
"d+	c #2A6164",
"e+	c #98B751",
"f+	c #9AB751",
"g+	c #98B750",
"h+	c #91B456",
"i+	c #1A2F3A",
"j+	c #46A8A6",
"k+	c #A6B15F",
"l+	c #889F6D",
"m+	c #8DAE5C",
"n+	c #7BA863",
"o+	c #83AC5E",
"p+	c #81AB5E",
"q+	c #516D44",
"r+	c #6E843F",
"s+	c #293736",
"t+	c #3D9392",
"u+	c #7EA06B",
"v+	c #709573",
"w+	c #879E6E",
"x+	c #869E6F",
"y+	c #94A865",
"z+	c #769B6F",
"A+	c #9EB060",
"B+	c #91B455",
"C+	c #98B64E",
"D+	c #89A06D",
"E+	c #9EA968",
"F+	c #BBB85C",
"G+	c #A2B25F",
"H+	c #9FB557",
"I+	c #9BB94F",
"J+	c #7EAA62",
"K+	c #7FAA62",
"L+	c #87AE5E",
"M+	c #90B259",
"N+	c #9BB05D",
"O+	c #98B54E",
"P+	c #90AD61",
"Q+	c #ABB857",
"R+	c #86AE5D",
"S+	c #9EB15F",
"T+	c #A1B25E",
"U+	c #BAB95B",
"V+	c #B9B75A",
"W+	c #908E4A",
"X+	c #353E37",
"Y+	c #8CB15A",
"Z+	c #8DB15A",
"`+	c #94B554",
" @	c #7D8744",
".@	c #368081",
"+@	c #89B05B",
"@@	c #8FB159",
"#@	c #8AA548",
"$@	c #357E7F",
"%@	c #9EB850",
"&@	c #B5B958",
"*@	c #BEBA5A",
"=@	c #728940",
"-@	c #566839",
";@	c #A4B952",
">@	c #AFB55D",
",@	c #9BB74E",
"'@	c #5A6E3C",
")@	c #577A4D",
"!@	c #5A7D4D",
"~@	c #476141",
"{@	c #9FB15F",
"]@	c #8EAD60",
"^@	c #9DAF5E",
"/@	c #6D9559",
"(@	c #283130",
"_@	c #7CAA61",
":@	c #608350",
"<@	c #739652",
"[@	c #2E3931",
"}@	c #97B44D",
"|@	c #182735",
"1@	c #727240",
"2@	c #B3B656",
"3@	c #BCB85A",
"4@	c #9DB74F",
"5@	c #A3A050",
"6@	c #273036",
"7@	c #92A24B",
"8@	c #5C6F3A",
"9@	c #25292F",
"0@	c #337A7B",
"a@	c #BAB859",
"b@	c #7B8F43",
"c@	c #95B24C",
"d@	c #576E42",
"e@	c #6B9459",
"f@	c #324135",
"g@	c #2F6160",
"h@	c #8AAF58",
"i@	c #77A460",
"j@	c #466345",
"k@	c #78A662",
"l@	c #77A561",
"m@	c #82AC5E",
"n@	c #6E9A6B",
"o@	c #466243",
"p@	c #353C34",
"q@	c #273533",
"r@	c #678F57",
"s@	c #5A7E4F",
"t@	c #698548",
"u@	c #7D8F63",
"v@	c #8F8C4A",
"w@	c #8D8949",
"x@	c #414435",
"y@	c #BBB75A",
"z@	c #67653D",
"A@	c #303837",
"B@	c #B9B559",
"C@	c #88A348",
"D@	c #343932",
"E@	c #1B2E39",
"F@	c #8AAE57",
"G@	c #566D43",
"H@	c #98B64F",
"I@	c #576B3B",
"J@	c #212E32",
"K@	c #97B54E",
"L@	c #4D6944",
"M@	c #73A05F",
"N@	c #212E31",
"O@	c #7AA962",
"P@	c #689158",
"Q@	c #2D6364",
"R@	c #82AB5D",
"S@	c #5D814F",
"T@	c #445F42",
"U@	c #213A40",
"V@	c #45A7A5",
"W@	c #275A5E",
"X@	c #596C39",
"Y@	c #9AB74E",
"Z@	c #788F42",
"`@	c #283736",
" #	c #87A147",
".#	c #3E9393",
"+#	c #8EAC60",
"@#	c #4B6643",
"    . + @ # # # # # # # # @ + $ + @ # % .   &     & & & & & &       . + @ # # # # # # # # @ + $ + @ # % .   &     & & * = - ; > ",
", , # # # # # # ' ) ! ~ # ~ ! ) { # ] ^ / . ( _ _ : . ( ( $ + _ , , # # # # # # ' ) ! ~ # ~ ! ) { # ] ^ / . ( _ _ : . < [ } | 1 ",
"# # , { { # { 2 3 4 5 6 7 8 4 4 9 0 a b c d e f # f # g g / h i j # , { { # { 2 3 4 5 6 7 8 4 4 9 0 a b c d e f # f # g k l m n ",
"{ { o 8 p 7 q r s b t u v w b b x y c b b b z j # A B C c c c D 0 { o 8 p 7 q r s b t u v w b b x y c b b b z j # E i C F G H I ",
"q J 5 K v L M u N O b b t b b c c b b c c b c h ] P h h h h / Q R J 5 K v L M u N O b b t b b c c b b c c b c h ] j ] ^ S T U V ",
"u u W c t X c c Y b Z ` Z c  .] ] D ..+.@.c b c #.A # # j / $.%.M u W c t X c c Y b Z ` Z c  .] ] D ..+.@.c b c #.A # # &.*.=.-.",
"b C / ]  .c ;.>.,.'.).& !.~.E # % {.].& ^./.h ^ ] j # / (.C t X b C / ]  .c ;.>.,.'.).& !.~.E # % {.].& ^./.h ^ ] ] _.h :.<.[.}.",
"^ ] # # A (.0   & & & & |.$ % 1.  & ( ( 2.3._ # # j _.#./ ] a C h ] # # A (.0   & & & & |.$ % 1.  & ( ( 2.3._ # # # / 4.:.5.6.7.",
"# # f 8.+ {.    . ( &   2.& 2.2.    _ @ % $ 8.f # # ] 9.@ # j ] # # f 8.+ {.    . ( &   2.& 2.2.    _ @ % $ 8.f # # 0.a.b.@ c.d.",
"# # # 9.% .   $ # _ e._ % (   f.{ e.% # # # # , @ # 1.  f.@ # # # # # 9.% .   $ # _ e._ % (   f.{ e.% # # # # , @ # g.h.[ i.6.j.",
"# j / #./ ] k.^ / j f # # , { , # @ @ # # # 1.  ( .   &   { @ # # j / #./ ] k.^ / j f # # , { , # @ @ # # # 1.  ( .   = l.m.j.n.",
"o.p.c b c c c Y q.r.{ + $ (   ( % % $ % , 1.  & & & & & &   ( $ o.p.c b c c c Y q.r.{ + $ (   ( % % $ % , 1.  & & & s.t.u.v.w.x.",
", y.z.c b c A.B.. ( ^.2.& & & & 2.2.& & C.D.&       & E.& & ( + _ y.z.c b c A.B.. ( ^.2.& & & & 2.2.& & C.D.&       2.F.( , # G.",
"B C c b b h @ , @ H.I.|.& & & & & J.K.L.M.M.N.O.! P.Q.R.S.T.{ ] h C c b b h @ , @ H.I.|.& & & & & J.K.L.M.M.N.O.U.V.W.= X.f Y.Z.",
"h h  .b c y.] # # _ $     & & & J.`.L  +4 .+.+4 4 ++M x v @+#+$+B h  .b c y.] # # _ $     & & & J.`.L  +4 .+.+4 %+&+*+=+-+6.6.;+",
"] # ] h c >+,+/ # # # , { !.).'+)+v x b b !+w b b O b b t X ..~+] # ] h c >+,+/ # # # , { !.).'+)+v x b b !+w b b {+b {+=+7.j.| ",
"C / # ] / ^ ] E j # # # j ]+z ^+W X b c c t b c c b c c b b c >+C / # ] / ^ ] E j # # # j ]+z ^+W X b c c t b c c b c *.=.=+=+I ",
"b B / #.h ] ] ] ] j # # j A # / h  .c ;.]  . ./ / a / ;.c b b b b B / #.h ] ] ] ] j # # j A # / h  .c ;.]  . ./ / a / /+(+_+:+<+",
"c C C c  ._.[+[+[+E # # # # # # # ] _.j # }+] # # j # ] #.c  .B C C C c  ._.[+[+[+E # # # # # # # ] _.j # }+] # # j # # ]  .:+<+",
"] ] ] ] 0 $       1.+ + , # ] ^ / # # # # j , @ # # # # ] ] j # ] ] ] ] 0 $       1.+ + , # ] ^ / # # # # j , @ # # # Y.c.|+=.1+",
"# # @ 1.  2.    & 2.& & r.[+C b c B [+2+% 1.3+f., # # @ , # # # # # @ 1.  2.    & 2.& & r.[+C b c B [+2+% 1.3+f., # # 0.4+5+-.> ",
"@ 6+e.    1., _ (   . ( !.7+8+9+0+8+B.I.a+e.{ f.e.f , f.  1._ H., 6+e.    1., _ (   . ( !.7+8+9+0+8+B.I.a+e.{ f.: + _ f.b+c+d+n ",
"e.H._ , , # # # % % # 0 e+e+{ ] f+{ g++ { _ % . 1.# $ &       & : H._ , , # # # % % # 0 e+e+{ ] f+{ g++ { _ % . h+H.. & F.c+i+j+",
", , # { ) ! ~ ~ ) { / k+l+R.o m+q Q.n+& o+  2.&   I.  ( _ % $ + _ , # { ) ! ~ ~ ) { / k+l+R.o m+q Q.n+& o+  2.&   I.  p+q+r+s+t+",
"# { ~ u+4 4 v+w+x+y+c b t M .+@+M M z+A+).o+( ( .   2.1., , @ # # { ~ u+4 4 v+w+x+y+c b t M .+@+M M z+A+).o+( ( .   2.B+C+# 6.j.",
"#+D+E+x b Y F+t t t b Z G+Y w !+ . .O b Z H+I+@ # . &   J+K+L+M+N+D+E+x b Y F+t t t b Z G+Y w !+ . .O b Z H+I+@ # . &   e O+6.j.",
"i i B #.8+7+P+Z Z ` '.).& P+q.Q+g ] ^ h  .#.A # f R+S+T+U+^+^+^+z i B #.8+7+P+Z Z ` '.).& P+q.Q+g ] ^ h  .#.A # f R+S+T+V+W+X+n.",
"] j # ] , _ + + !.  & & & & &   ( + _ % Y+Z+`+# # , ] ] ] ] ] ] ] j # ] , _ + + !.  & & & & &   ( + _ % Y+Z+`+# # , ] ] ] _. @.@",
"c a ] j # @ , { . +@2.( .   & & &   a+^.P+'.@@# # # # # # ] ] a c a ] j # @ , { . +@2.( .   & & &   a+^.P+'.@@# # # # #@c.# G.$@",
"h  .c a ] 6+H.H.$ $ + , # $   ( + ~.[+%@9+b &@j # # # # j _.#.*@B  .c a ] 6+H.H.$ $ + , # $   ( + ~.[+%@9+b &@j # # # =@-@G.s+| ",
"# ] ^ ^ E # # # # # # # # @ , @ ;@^+Y ^+>@G+..B ^ ] ] I+, # ] A # ] ^ ^ E # # # # # # # # @ , @ ;@^+Y ^+>@G+..B ^ ] ,@'@)@!@~@d+",
", , , , # # # # # # # # # # , 1.!.K+Z+J+n+& P+` ` {@{@]@  . $ % , , , , # # # # # # # # # # , 1.!.K+Z+J+n+& P+` ` {@^@/@2.1.i.(@",
"_@3++ 8.f # # # # # # # # f 8.+ + _ # % .   &     & & & & & &   _@3++ 8.f # # # # # # # # f 8.+ + _ # % .   &     & & s.:@i.6.j.",
", , # # # # # # ' ) ! ~ # ~ ! ) { # ] ^ / . ( _ _ : . ( ( $ + _ , , # # # # # # ' ) ! ~ # ~ ! ) { # ] ^ / . ( _ _ : . ( <@[@j.t+",
"# # , { { # { 2 3 4 5 6 7 8 4 4 9 0 a b c d e f # f # g g / h i j # , { { # { 2 3 4 5 6 7 8 4 4 9 0 a b c d e f # f # I+}@(@|@t+",
"{ { o 8 p 7 q r s b t u v w b b x y c b b b z j # A B C c c c D 0 { o 8 p 7 q r s b t u v w b b x y c b b b z j # j ] :.1@=+=+1+",
"q J 5 K v L M u N O b b t b b c c b b c c b c h ] P h h h h / Q R J 5 K v L M u N O b b t b b c c b b c c b c h ] E _.^ 2@3@:+<+",
"u u W c t X c c Y b Z ` Z c  .] ] D ..+.@.c b c #.A # # j / $.%.M u W c t X c c Y b Z ` Z c  .] ] D ..+.@.c b c #.A # # j 4@5@6@",
"b C / ]  .c ;.>.,.'.).& !.~.E # % {.].& ^./.h ^ ] j # / (.C t X b C / ]  .c ;.>.,.'.).& !.~.E # % {.].& ^./.h ^ ] j # / 7@8@9@0@",
"^ ] # # A (.0   & & & & |.$ % 1.  & ( ( 2.3._ # # j _.#./ ] a C h ] # # A (.0   & & & & |.$ % 1.  & ( ( 2.3._ # # j _.a@b@c@-@|@",
"# # f 8.+ {.    . ( &   2.& 2.2.    _ @ % $ 8.f # # ] 9.@ # j ] # # f 8.+ {.    . ( &   2.& 2.2.    _ @ % $ 8.f # # ] 9.@ # =@|@",
"# # # 9.% .   $ # _ e._ % (   f.{ e.% # # # # , @ # 1.  f.@ # # # # # 9.% .   $ # _ e._ % (   f.{ e.% # # # # , @ # 1.  f.i.d@| ",
"# j / #./ ] k.^ / j f # # , { , # @ @ # # # 1.  ( .   &   { @ # # j / #./ ] k.^ / j f # # , { , # @ @ # # # 1.  ( .   & e@f@g@> ",
"o.p.c b c c c Y q.r.{ + $ (   ( % % $ % , 1.  & & & & & &   ( $ o.p.c b c c c Y q.r.{ + $ (   ( % % $ % , 1.  & & & o+$ h@< i@j@",
", y.z.c b c A.B.. ( ^.2.& & & & 2.2.& & C.D.&       & E.& & ( + _ y.z.c b c A.B.. ( ^.2.& & & & 2.2.& & C.D.E.k@l@F.m@+ , @ , w.",
"B C c b b h @ , @ H.I.|.& & & & & J.K.L.M.M.N.O.! P.Q.R.S.T.{ ] h C c b b h @ , @ H.I.|.& & & & & J.K.L.M.M.n@o@p@q@r@s@t@c.c.-@",
"h h  .b c y.] # # _ $     & & & J.`.L  +4 .+.+4 4 ++M x v @+#+$+B h  .b c y.] # # _ $     & & & J.`.L  +4 .+u@v@U w@x@*+=+Z.-@} ",
"] # ] h c >+,+/ # # # , { !.).'+)+v x b b !+w b b O b b t X ..~+] # ] h c >+,+/ # # # , { !.).'+)+v x b b !+u b b b {+b y@z@|@t+",
"C / # ] / ^ ] E j # # # j ]+z ^+W X b c c t b c c b c c b b c >+C / # ] / ^ ] E j # # # j ]+z ^+W X b c c t b c c b c c _+v@A@> ",
"b B / #.h ] ] ] ] j # # j A # / h  .c ;.]  . ./ / a / ;.c b b b b B / #.h ] ] ] ] j # # j A # / h  .c ;.]  . ./ / a / ] ;.c *+$@",
"c C C c  ._.[+[+[+E # # # # # # # ] _.j # }+] # # j # ] #.c  .B C C C c  ._.[+[+[+E # # # # # # # ] _.j # }+] # # j # # ] B@=+.@",
"] ] ] ] 0 $       1.+ + , # ] ^ / # # # # j , @ # # # # ] ] j # ] ] ] ] 0 $       1.+ + , # ] ^ / # # # # j , @ # # # # C@D@E@m ",
"# # @ 1.  2.    & 2.& & r.[+C b c B [+2+% 1.3+f., # # @ , # # # # # @ 1.  2.    & 2.& & r.[+C b c B [+2+% 1.3+f., # # f c.=@(@.@",
"@ 6+e.    1., _ (   . ( !.7+8+9+0+8+B.I.a+e.{ f.e.f , f.  1._ H., 6+e.    1., _ (   . ( !.7+8+9+0+8+B.I.a+e.{ f.e.f , e._ # G..@",
"e.H._ , , # # # % % # 0 e+e+{ ] f+{ g++ { _ % . 1.# $ &       & : H._ , , # # # % % # 0 e+e+{ ] f+{ g++ { _ % . 1.# $ & : F@G@m ",
", , # { ) ! ~ ~ ) { / k+l+R.o m+q Q.n+& o+  2.&   I.  ( _ % $ + _ , # { ) ! ~ ~ ) { / k+l+R.o m+q Q.n+& o+  2.&   I.  ( H@I@J@d+",
"# { ~ u+4 4 v+w+x+y+c b t M .+@+M M z+A+).o+( ( .   2.1., , @ # # { ~ u+4 4 v+w+x+y+c b t M .+@+M M z+A+).o+( ( .   2.1.K@L@M@N@",
"#+D+E+x b Y F+t t t b Z G+Y w !+ . .O b Z H+I+@ # . &   J+K+L+M+N+D+E+x b Y F+t t t b Z G+Y w !+ . .O b Z H+I+@ # . &   O@l@P@Q@",
"i i B #.8+7+P+Z Z ` '.).& P+q.Q+g ] ^ h  .#.A # f R+S+T+U+^+^+^+z i B #.8+7+P+Z Z ` '.).& P+q.Q+g ] ^ h  .#.A # f e.. R@S@T@U@V@",
"] j # ] , _ + + !.  & & & & &   ( + _ % Y+Z+`+# # , ] ] ] ] ] ] ] j # ] , _ + + !.  & & & & &   ( + _ % Y+Z+`+# # , # f 6.7.W@> ",
"c a ] j # @ , { . +@2.( .   & & &   a+^.P+'.@@# # # # # # ] ] a c a ] j # @ , { . +@2.( .   & & &   a+^.P+'.@@# # # # # 6.X@-@} ",
"h  .c a ] 6+H.H.$ $ + , # $   ( + ~.[+%@9+b &@j # # # # j _.#.*@B  .c a ] 6+H.H.$ $ + , # $   ( + ~.[+%@9+b &@j # # # Y@Z@c.c@`@",
"# ] ^ ^ E # # # # # # # # @ , @ ;@^+Y ^+>@G+..B ^ ] ] I+, # ] A # ] ^ ^ E # # # # # # # # @ , @ ;@^+Y ^+>@G+..B ^ ] ] I+c. #d@.#",
"# # # # # # # # # # # # # # # % !.].Z+].n+& P+` ` {@{@]@  . $ % # # # # # # # # # # # # # # # % !.].Z+].n+& P+` ` {@{@+#@#j.| 1 "};
