/* XPM */
static char * Floor7_xpm[] = {
"64 64 453 2",
"  	c #9BB94E",
". 	c #9DB94F",
"+ 	c #A7B952",
"@ 	c #BEBA5B",
"# 	c #BFBA5B",
"$ 	c #A9B65A",
"% 	c #91AE60",
"& 	c #8BB05A",
"* 	c #83AD5E",
"= 	c #7BA962",
"- 	c #7AA863",
"; 	c #79A863",
"> 	c #78A764",
", 	c #719D6C",
"' 	c #8CB159",
") 	c #9AB94F",
"! 	c #728940",
"~ 	c #AFBA55",
"{ 	c #BDBA5A",
"] 	c #AEBA55",
"^ 	c #9AB84F",
"/ 	c #8DB158",
"( 	c #8AB05A",
"_ 	c #82AC5F",
": 	c #74A268",
"< 	c #709D6D",
"[ 	c #679175",
"} 	c #769C6D",
"| 	c #83A665",
"1 	c #84A764",
"2 	c #96B653",
"3 	c #7A9E6C",
"4 	c #6D9473",
"5 	c #6C9870",
"6 	c #76A368",
"7 	c #99B850",
"8 	c #8DAE5A",
"9 	c #95B34E",
"0 	c #678449",
"a 	c #597C4E",
"b 	c #759852",
"c 	c #9AB94E",
"d 	c #9AB74D",
"e 	c #576939",
"f 	c #B6BA58",
"g 	c #9EB94F",
"h 	c #99B84F",
"i 	c #8BB159",
"j 	c #689274",
"k 	c #6F9474",
"l 	c #9AA769",
"m 	c #9AA669",
"n 	c #6C9374",
"o 	c #749772",
"p 	c #ABAF63",
"q 	c #BBB85D",
"r 	c #889E6E",
"s 	c #6E9473",
"t 	c #9CB05D",
"u 	c #B4BA57",
"v 	c #93995A",
"w 	c #464A35",
"x 	c #8A8748",
"y 	c #6B693E",
"z 	c #263031",
"A 	c #859F46",
"B 	c #2F6161",
"C 	c #B7BA58",
"D 	c #BBBA5A",
"E 	c #A6B952",
"F 	c #7DA962",
"G 	c #7DA963",
"H 	c #79A467",
"I 	c #6F9870",
"J 	c #9DA868",
"K 	c #ACAF63",
"L 	c #BDB95C",
"M 	c #BEB95C",
"N 	c #BCB95C",
"O 	c #BCB95B",
"P 	c #9FB94F",
"Q 	c #BCB75A",
"R 	c #20282F",
"S 	c #223035",
"T 	c #3D9393",
"U 	c #AEB955",
"V 	c #A4B951",
"W 	c #9CB94E",
"X 	c #B3B958",
"Y 	c #ADB956",
"Z 	c #BBB95B",
"` 	c #AEB162",
" .	c #BBB759",
"..	c #6E6C3F",
"+.	c #2B6164",
"@.	c #BCBA5A",
"#.	c #A5B951",
"$.	c #B6BA57",
"%.	c #8DA549",
"&.	c #A4A251",
"*.	c #BDB85A",
"=.	c #BAB559",
"-.	c #2F3131",
";.	c #ADB954",
">.	c #ACB955",
",.	c #ACB954",
"'.	c #9AB850",
").	c #92B455",
"!.	c #98B64D",
"~.	c #A9B453",
"{.	c #1A2735",
"].	c #96B15C",
"^.	c #8DB159",
"/.	c #93B554",
"(.	c #7DAA61",
"_.	c #84AD5D",
":.	c #89A549",
"<.	c #5A6E3B",
"[.	c #2C3130",
"}.	c #295E61",
"|.	c #3E9594",
"1.	c #94B553",
"2.	c #85AE5D",
"3.	c #80AA62",
"4.	c #A2B25E",
"5.	c #BDBA5B",
"6.	c #B1B65C",
"7.	c #92AE60",
"8.	c #7CA961",
"9.	c #85AD5D",
"0.	c #78A561",
"a.	c #445F41",
"b.	c #2A6164",
"c.	c #46A9A8",
"d.	c #98B751",
"e.	c #9AB751",
"f.	c #98B750",
"g.	c #91B456",
"h.	c #77A562",
"i.	c #1A2F3A",
"j.	c #46A8A6",
"k.	c #85A763",
"l.	c #8FAF5B",
"m.	c #A6B15F",
"n.	c #889F6D",
"o.	c #799E6B",
"p.	c #8DAE5C",
"q.	c #6E9573",
"r.	c #7BA863",
"s.	c #83AC5E",
"t.	c #81AB5E",
"u.	c #516D44",
"v.	c #6E843F",
"w.	c #293736",
"x.	c #3D9392",
"y.	c #7EA06B",
"z.	c #709573",
"A.	c #879E6E",
"B.	c #869E6F",
"C.	c #94A865",
"D.	c #769B6F",
"E.	c #9EB060",
"F.	c #91B455",
"G.	c #98B64E",
"H.	c #89A06D",
"I.	c #9EA968",
"J.	c #BDB95B",
"K.	c #BBB85C",
"L.	c #B0B55D",
"M.	c #A2B25F",
"N.	c #9FB557",
"O.	c #9BB94F",
"P.	c #7EAA62",
"Q.	c #7FAA62",
"R.	c #87AE5E",
"S.	c #90B259",
"T.	c #9BB05D",
"U.	c #87AE5D",
"V.	c #98B54E",
"W.	c #ADB955",
"X.	c #90AD61",
"Y.	c #A1B15F",
"Z.	c #A0B15F",
"`.	c #A1B25F",
" +	c #ABB857",
".+	c #9CB94F",
"++	c #86AE5D",
"@+	c #9EB15F",
"#+	c #A1B25E",
"$+	c #BAB95B",
"%+	c #B9B75A",
"&+	c #908E4A",
"*+	c #353E37",
"=+	c #3D9191",
"-+	c #8CB15A",
";+	c #8DB15A",
">+	c #94B554",
",+	c #7D8744",
"'+	c #368081",
")+	c #89B05B",
"!+	c #7CA962",
"~+	c #8FB159",
"{+	c #8AA548",
"]+	c #708640",
"^+	c #357E7F",
"/+	c #9CB850",
"(+	c #9EB850",
"_+	c #B5B958",
":+	c #BEBA5A",
"<+	c #566839",
"[+	c #A4B952",
"}+	c #AFB55D",
"|+	c #9BB74E",
"1+	c #5A6E3C",
"2+	c #577A4D",
"3+	c #5A7D4D",
"4+	c #476141",
"5+	c #9FB15F",
"6+	c #8EAD60",
"7+	c #9DAF5E",
"8+	c #6D9559",
"9+	c #96B44D",
"0+	c #283130",
"a+	c #7CAA61",
"b+	c #8DB258",
"c+	c #78A762",
"d+	c #608350",
"e+	c #99B751",
"f+	c #739652",
"g+	c #2E3931",
"h+	c #8EAF5B",
"i+	c #709672",
"j+	c #869D6F",
"k+	c #6C9473",
"l+	c #82A565",
"m+	c #6F9573",
"n+	c #7FA06A",
"o+	c #A7B55B",
"p+	c #97B44D",
"q+	c #182735",
"r+	c #6B9473",
"s+	c #6B9374",
"t+	c #98A66A",
"u+	c #ADB063",
"v+	c #A8B25E",
"w+	c #B5BA58",
"x+	c #B4B857",
"y+	c #727240",
"z+	c #799D6C",
"A+	c #BAB75D",
"B+	c #8CA06D",
"C+	c #A5B952",
"D+	c #90AF5B",
"E+	c #6F9672",
"F+	c #B3B656",
"G+	c #BCB85A",
"H+	c #92AD61",
"I+	c #92AE61",
"J+	c #9DB15C",
"K+	c #7E9F6B",
"L+	c #9DB74F",
"M+	c #A3A050",
"N+	c #273036",
"O+	c #95B555",
"P+	c #98B15C",
"Q+	c #8CB05A",
"R+	c #7EA962",
"S+	c #ACB956",
"T+	c #B5BA57",
"U+	c #92A24B",
"V+	c #5C6F3A",
"W+	c #25292F",
"X+	c #337A7B",
"Y+	c #84AD5E",
"Z+	c #BAB859",
"`+	c #7B8F43",
" @	c #95B24C",
".@	c #9BB850",
"+@	c #576E42",
"@@	c #A5B953",
"#@	c #6B9459",
"$@	c #324135",
"%@	c #2F6160",
"&@	c #8EB258",
"*@	c #B4B957",
"=@	c #8AAF58",
"-@	c #81AA5C",
";@	c #77A460",
">@	c #466345",
",@	c #A8B953",
"'@	c #739E6B",
")@	c #729E6C",
"!@	c #78A662",
"~@	c #77A561",
"{@	c #82AC5E",
"]@	c #718841",
"^@	c #6E9A6B",
"/@	c #466243",
"(@	c #353C34",
"_@	c #273533",
":@	c #678F57",
"<@	c #5A7E4F",
"[@	c #698548",
"}@	c #7D8F63",
"|@	c #8F8C4A",
"1@	c #B8B358",
"2@	c #8D8949",
"3@	c #414435",
"4@	c #192735",
"5@	c #BBB75A",
"6@	c #67653D",
"7@	c #303837",
"8@	c #B9B559",
"9@	c #88A348",
"0@	c #343932",
"a@	c #1B2E39",
"b@	c #44A5A3",
"c@	c #8AAE57",
"d@	c #566D43",
"e@	c #98B64F",
"f@	c #576B3B",
"g@	c #212E32",
"h@	c #97B54E",
"i@	c #4D6944",
"j@	c #73A05F",
"k@	c #212E31",
"l@	c #7AA962",
"m@	c #689158",
"n@	c #2D6364",
"o@	c #82AB5D",
"p@	c #5D814F",
"q@	c #445F42",
"r@	c #213A40",
"s@	c #45A7A5",
"t@	c #275A5E",
"u@	c #596C39",
"v@	c #9AB74E",
"w@	c #788F42",
"x@	c #283736",
"y@	c #87A147",
"z@	c #3E9393",
"A@	c #8EAC60",
"B@	c #4B6643",
"C@	c #47ABA9",
"D@	c #7F9E4E",
"E@	c #97B44C",
"F@	c #2B4240",
"G@	c #7AA762",
"H@	c #758E44",
"I@	c #243C40",
"J@	c #699358",
"K@	c #719E6C",
"L@	c #B1B65D",
"M@	c #8FAC61",
"N@	c #6D996F",
"O@	c #689374",
"P@	c #6D9870",
"Q@	c #B3B657",
"R@	c #7BA661",
"S@	c #ADB55D",
"T@	c #90AD60",
"U@	c #7AA764",
"V@	c #5C8267",
"W@	c #4C6B58",
"X@	c #23393D",
"Y@	c #9CA24E",
"Z@	c #88A34A",
"`@	c #80A04F",
" #	c #91B253",
".#	c #779B55",
"+#	c #97A54C",
"@#	c #99B74E",
"##	c #91B354",
"$#	c #506A44",
"%#	c #6C6C3E",
"&#	c #96B24D",
"*#	c #61844F",
"=#	c #5D8251",
"-#	c #93B454",
";#	c #4C6844",
">#	c #6E9457",
",#	c #799C53",
"'#	c #97B64F",
")#	c #7D9C4E",
"!#	c #344234",
"~#	c #81A95B",
"{#	c #496543",
"]#	c #6A9358",
"^#	c #76A361",
"/#	c #748B41",
"(#	c #8AAF59",
"_#	c #8BA548",
":#	c #8E8C49",
"<#	c #62844F",
"[#	c #2B3731",
"}#	c #6A9257",
"|#	c #699157",
"1#	c #5F8350",
"2#	c #6E9759",
"3#	c #96B34E",
"4#	c #9AB84E",
"5#	c #6F8640",
"6#	c #556839",
"7#	c #748D43",
"8#	c #79A761",
"9#	c #79A762",
"0#	c #87A44A",
"a#	c #56784C",
"b#	c #1E2E36",
"c#	c #243A3D",
"d#	c #273130",
"e#	c #728941",
"f#	c #5A6E3E",
"g#	c #B8B559",
"h#	c #A4A051",
"i#	c #3A4032",
"j#	c #89A348",
"k#	c #88AC57",
"l#	c #859F47",
"m#	c #263536",
"n#	c #293934",
"o#	c #7FA75B",
"p#	c #86A148",
"q#	c #333F31",
"r#	c #1B2F3A",
"s#	c #2A3D3C",
"t#	c #283230",
"u#	c #5A6E3F",
"v#	c #2A3D3B",
"w#	c #6E8440",
"x#	c #253031",
"y#	c #689057",
"z#	c #586B3A",
"A#	c #849F47",
"B#	c #243031",
"C#	c #45A6A5",
"D#	c #2B6466",
"E#	c #3C908F",
"F#	c #2F3231",
"G#	c #252930",
"H#	c #223135",
"I#	c #243B3D",
"J#	c #254041",
"K#	c #2C6162",
"L#	c #347C7D",
"M#	c #576B3E",
"N#	c #3E9392",
"O#	c #295D61",
"P#	c #171D2E",
"Q#	c #2B5D5F",
"R#	c #2A6064",
"S#	c #285A5E",
"T#	c #46A9A7",
"  . + @ # @ $ % & * = - ; ; ; ; ; ; ; > , , ; = = = ; > ; ; * ' ) . + @ # @ $ % & * = - ; ; ; ; ; ; ; > , , ; = = = - ; * )   ! ",
"~ { @ # # ] ) ^ ) / ( _ ; ; ; ; ; : , < [ [ } | 1 2 3 4 5 6 7 . ] { @ # # ] ) ^ ) / ( _ ; ; ; ; ; : , < [ [ } | 8 9 0 a b c d e ",
"] ] f # @ g .     h i = = ; ; ; : j k l m n n m m o p q r s t u ~ ] f # @ g .     h i = = ; ; ; : j k l m n n m v w x y z A A B ",
".   . ] @ C D E       ^ 7 F G H I r q # # J K # # L # # M N O P .   . ] @ C D E       ^ 7 F G H I r q # # J K # # Q # Q y R S T ",
"{ E   . E U . V W       W X Y Z ` N # @ @ M # @ @ # @ @ # # @ C { E   . E U . V W       W X Y Z ` N # @ @ M # @ @ # @  ...y y +.",
"# ~ E @.] . . . . W     W #.  E ] f @ + . f f E E $.E + @ # # # # ~ E @.] . . . . W     W #.  E ] f @ + . f f E E $.E %.&.*.=.-.",
"@ { { @ f ;.>.>.>.V               . ;.W   ,..     W   . @.@ f ~ { { { @ f ;.>.>.>.V               . ;.W   ,..     W     . f =.-.",
". . . . '.i = = = ).' ' ^   . U E         W ^ )         . . W   . . . . '.i = = = ).' ' ^   . U E         W ^ )       d !.~...{.",
"    ) ).= - = = ; - ; ; ].>.{ # @ ~ >.^./.).(._.^     ) ^           ) ).= - = = ; - ; ; ].>.{ # @ ~ >.^./.).(._.^     :.<.[.}.|.",
") 1.2.= = ).^ h * = & * F 3.4.5.6.4.7.( 8.2.7 _.2.c ^ _.= ).h / ^ 1.2.= = ).^ h * = & * F 3.4.5.6.4.7.( 8.2.7 _.9.' h _.0.a.b.c.",
"2./ h ^ ^       /./.  '.d.d.7 . e.7 f.' 7 h /.& ).  i ; = = = ; 9./ h ^ ^       /./.  '.d.d.7 . e.7 f.' 7 h /.& g./ & ; h.a.i.j.",
"^ ^   7 k.1 l.l.k.7 E m.n.4 o.p.q.3 r.; s.= - ; = ( = * h /.i ' h ^   7 k.1 l.l.k.7 E m.n.4 o.p.q.3 r.; s.= - ; = ( = t.u.v.w.x.",
"  7 l.y.m m z.A.B.C.@ # M p n s p p D.E.G s.* * & = - ).^ ^ )     7 l.y.m m z.A.B.C.@ # M p n s p p D.E.G s.* * & = - F.G.  A S ",
"t H.I.q # J.K.M M M # L.M.J.K J f f L # L.N.O.)   & ; = P.Q.R.S.T.H.I.q # J.K.M M M # L.M.J.K J f f L # L.N.O.)   & ; = U.V.A S ",
"W.W.~ @.4.3.X.L.L.Y.Z.G ; X.`. +.+. U ] f @.#.  c ++@+#+$+Z Z Z Y W.~ @.4.3.X.L.L.Y.Z.G ; X.`. +.+. U ] f @.#.  c ++@+#+%+&+*+=+",
". W   . ^ h ' ' F = ; ; ; ; ; = * ' h /.-+;+>+    ^ . . . . . . . W   . ^ h ' ' F = ; ; ; ; ; = * ' h /.-+;+>+    ^ . . . ;.,+'+",
"@ $.. W   ) ^ 7 & )+- * & = ; ; ; = 8.!+X.Z.~+            . . $.@ $.. W   ) ^ 7 & )+- * & = ; ; ; = 8.!+X.Z.~+        {+!.  ]+^+",
"] f @ $.. 1./ / i i ' ^   i = * ' /+>.(+5.# _+W         W ;.@.:+~ f @ $.. 1./ / i i ' ^   i = * ' /+>.(+5.# _+W       ! <+]+w.T ",
"  . U U V                 ) ^ ) [+Z J.Z }+M.O ~ U . . O.^   . #.  . U U V                 ) ^ ) [+Z J.Z }+M.O ~ U . |+1+2+3+4+b.",
"^ ^ ^ ^                     ^ ).F Q.;+P.r.; X.Y.Y.5+5+6+= & i /.^ ^ ^ ^                     ^ ).F Q.;+P.r.; X.Y.Y.5+7+8+- ).9+0+",
"a+(.' b+c                 c b+' ' h   /.& = ; = = ; ; ; ; ; ; = a+(.' b+c                 c b+' ' h   /.& = ; = = ; ; c+d+9+A S ",
"^ ^             e+k.1 l.  l.1 k.7   . U E & * h h 9.& * * i ' h ^ ^             e+k.1 l.  l.1 k.7   . U E & * h h 9.& * f+g+S x.",
"    ^ 7 7   7 h+i+m j+k+l+m+m m n+'.$.# @ o+U.c   c   .+.+E ] W.W   ^ 7 7   7 h+i+m j+k+l+m+m m n+'.$.# @ o+U.c   c   O.p+0+q+x.",
"7 7 o.m+r+l+q.s+t+# M u+r K # # q v+@ # # # Y W   #.~ { @ @ @ w+'.7 o.m+r+l+q.s+t+# M u+r K # # q v+@ # # # Y W   W . x+y+y y {.",
"q.z+j+A+r k p u+B+L # # M # # @ @ # # @ @ # @ ] . C+] ] ] ] E D+E+z+j+A+r k p u+B+L # # M # # @ @ # # @ @ # @ ] . V ;.U F+G+=.-.",
"u+u+` @ M N @ @ J.# L.Y.L.@ f . . w+O H+I+@ # @ @.#.    W E J+K+p u+` @ M N @ @ J.# L.Y.L.@ f . . w+O H+I+@ # @ @.#.    W L+M+N+",
"# { E . f @ + O+P+Z.G ; F /+V   /.Q+R+; !+S+] U . W   E T+{ M N # { E . f @ + O+P+Z.G ; F /+V   /.Q+R+; !+S+] U . W   E U+V+W+X+",
"U .     #.T+'.= ; ; ; ; _ i /.).= ; * * - Y+h     W ;.@.E . $.{ ] .     #.T+'.= ; ; ; ; _ i /.).= ; * * - Y+h     W ;.Z+`+ @<+q+",
"    c b+' Q+= = & * ; = - ; - - = = h ) /.i b+c     . .@)   W .     c b+' Q+= = & * ; = - ; - - = = h ) /.i b+c     . .@)   ! q+",
"      .@/.& = i   h 2.h /.* = _.7 2./.        ^ )   ).= _.)           .@/.& = i   h 2.h /.* = _.7 2./.        ^ )   ).= _.9++@T ",
"  W E @.E . @@U E W c     ^ 7 ^   ) )       ).= * & = ; = 7 )     W E @.E . @@U E W c     ^ 7 ^   ) )       ).= * & = ; #@$@%@|.",
"&@*@@ # @ @ @ J.`.].7 ' i * = * /./.i /.^ ).= ; ; ; ; ; ; = * i &@*@@ # @ @ @ J.`.].7 ' i * = * /./.i /.^ ).= ; ; ; s.i =@-@;@>@",
"^ g ,@@ # @ $ 7.& * !+- ; ; ; ; - - ; ; '@)@; = = = ; > ; ; * ' h g ,@@ # @ $ 7.& * !+- ; ; ; ; - - ; ; '@)@> !@~@h.{@' ^ ) ^ ]@",
"~ { @ # # ] ) ^ ) / ( _ ; ; ; ; ; : , < [ [ } | 1 2 3 4 5 6 7 . ] { @ # # ] ) ^ ) / ( _ ; ; ; ; ; : , < [ [ ^@/@(@_@:@<@[@!.!.<+",
"] ] f # @ g .     h i = = ; ; ; : j k l m n n m m o p q r s t u ~ ] f # @ g .     h i = = ; ; ; : j k l m n }@|@1@2@3@x y e <+4@",
".   . ] @ C D E       ^ 7 F G H I r q # # J K # # L # # M N O P .   . ] @ C D E       ^ 7 F G H I r q # # J u+# # # Q # 5@6@q+x.",
"{ E   . E U . V W       W X Y Z ` N # @ @ M # @ @ # @ @ # # @ C { E   . E U . V W       W X Y Z ` N # @ @ M # @ @ # @ @ *.|@7@|.",
"# ~ E @.] . . . . W     W #.  E ] f @ + . f f E E $.E + @ # # # # ~ E @.] . . . . W     W #.  E ] f @ + . f f E E $.E . + @ x ^+",
"@ { { @ f ;.>.>.>.V               . ;.W   ,..     W   . @.@ f ~ { { { @ f ;.>.>.>.V               . ;.W   ,..     W     . 8@y '+",
". . . . '.i = = = ).' ' ^   . U E         W ^ )         . . W   . . . . '.i = = = ).' ' ^   . U E         W ^ )         9@0@a@b@",
"    ) ).= - = = ; - ; ; ].>.{ # @ ~ >.^./.).(._.^     ) ^           ) ).= - = = ; - ; ; ].>.{ # @ ~ >.^./.).(._.^     c !.! 0+'+",
") 1.2.= = ).^ h * = & * F 3.4.5.6.4.7.( 8.2.7 _.2.c ^ _.= ).h / ^ 1.2.= = ).^ h * = & * F 3.4.5.6.4.7.( 8.2.7 _.2.c ^ 2.h   ]+'+",
"2./ h ^ ^       /./.  '.d.d.7 . e.7 f.' 7 h /.& ).  i ; = = = ; 9./ h ^ ^       /./.  '.d.d.7 . e.7 f.' 7 h /.& ).  i ; 9.c@d@b@",
"^ ^   7 k.1 l.l.k.7 E m.n.4 o.p.q.3 r.; s.= - ; = ( = * h /.i ' h ^   7 k.1 l.l.k.7 E m.n.4 o.p.q.3 r.; s.= - ; = ( = * e@f@g@b.",
"  7 l.y.m m z.A.B.C.@ # M p n s p p D.E.G s.* * & = - ).^ ^ )     7 l.y.m m z.A.B.C.@ # M p n s p p D.E.G s.* * & = - ).h@i@j@k@",
"t H.I.q # J.K.M M M # L.M.J.K J f f L # L.N.O.)   & ; = P.Q.R.S.T.H.I.q # J.K.M M M # L.M.J.K J f f L # L.N.O.)   & ; = l@~@m@n@",
"W.W.~ @.4.3.X.L.L.Y.Z.G ; X.`. +.+. U ] f @.#.  c ++@+#+$+Z Z Z Y W.~ @.4.3.X.L.L.Y.Z.G ; X.`. +.+. U ] f @.#.  c 2.& o@p@q@r@s@",
". W   . ^ h ' ' F = ; ; ; ; ; = * ' h /.-+;+>+    ^ . . . . . . . W   . ^ h ' ' F = ; ; ; ; ; = * ' h /.-+;+>+    ^   c A R t@|.",
"@ $.. W   ) ^ 7 & )+- * & = ; ; ; = 8.!+X.Z.~+            . . $.@ $.. W   ) ^ 7 & )+- * & = ; ; ; = 8.!+X.Z.~+          A u@<+4@",
"] f @ $.. 1./ / i i ' ^   i = * ' /+>.(+5.# _+W         W ;.@.:+~ f @ $.. 1./ / i i ' ^   i = * ' /+>.(+5.# _+W       v@w@!. @x@",
"  . U U V                 ) ^ ) [+Z J.Z }+M.O ~ U . . O.^   . #.  . U U V                 ) ^ ) [+Z J.Z }+M.O ~ U . . O.!.y@+@z@",
"^ ^ ^ ^                     ^ ).F Q.;+P.r.; X.Y.Y.5+5+6+= & i /.^ ^ ^ ^                     ^ ).F Q.;+P.r.; X.Y.Y.5+5+A@B@S =+C@",
"a+(.' b+c                 c b+' ' h   /.& = ; = = ; ; ; ; ; ; = a+(.' b+c                 c b+' ' h   /.& = ; = - ; = & D@<+^+C@",
"^ ^             e+k.1 l.  l.1 k.7   . U E & * h h 9.& * * i ' h ^ ^             e+k.1 l.  l.1 k.7   . U E & * h ).- (     E@F@j.",
"    ^ 7 7   7 h+i+m j+k+l+m+m m n+'.$.# @ o+U.c   c   .+.+E ] W.W   ^ 7 7   7 h+i+m j+k+l+m+m m n+'.$.# @ o+~+  /.- G@H@E@A I@j.",
"7 7 o.m+r+l+q.s+t+# M u+r K # # q v+@ # # # Y W   #.~ { @ @ @ w+'.7 o.m+r+l+q.s+t+# M u+r K # # q v+@ # # # U h * ; ; J@B@S =+C@",
"q.z+j+A+r k p u+B+L # # M # # @ @ # # @ @ # @ ] . C+] ] ] ] E D+E+z+j+A+r k p u+B+L # # M # # @ @ # # @ @ # 5.7.> K@; ; h.q@'+C@",
"u+u+` @ M N @ @ J.# L.Y.L.@ f . . w+O H+I+@ # @ @.#.    W E J+K+p u+` @ M N @ @ J.# L.Y.L.@ f . . w+O H+I+@ L@M@N@O@P@> > 2+^+C@",
"# { E . f @ + O+P+Z.G ; F /+V   /.Q+R+; !+S+] U . . E ] T+{ M N # { E . Q@*.+ O+P+Z.G ; F /+V   /.Q+R+; R@S@T@= > U@P@V@W@X@|.C@",
"U .     #.Y@Z@= ; ; ; ; _ `@ #).= h..#* - Y+h     V f Q +#. $.{ ] . @###$#%#&#*#c+; h.=#t.i -###= ; * o@;#>#7 h ,#'#' )#w.=+C@C@",
"  d {+  y@!#~#i i _ ; = - J@{#]#^#/@/#) ##(#b+@#_#. f :#y@  W .   !.<#- h.a.[#}#& * a 2+; ; |#1#= 2#3#4#5#6#p+E@V+!.    ]+'+C@C@",
"  E@/#  ]+]+c d 7#8#9#0#/.* a#b#c#d# @  e#f#E@A %#g#h#i#!.  j#d   !.B@^#^#a.k@k#  l#m#q@^#m@n#o#h p#q#v.0+r#s#w.t#E@  !.<+'+C@C@",
"!.u#v#w#0+<+E@A x#y#y#z#E@A#B#^+C#D#<+]+F@E#F@I@}.F#G#S A A q#E@  A H#I#I#}.i.6#]+v#=+^+J#K#i.z#E@A S L#'+C#j.|.b.M#! <+D#j.C@C@",
"M#N#C#'+O#P#0+S X+b#Q#4@0+R R#j.C@j.'+^+|.C@j.j.j.'+'+=+S R S#M#]+w.x.j.j.T#|.^+^+|.C@C@j.T#T 4@0+R b.c.C@C@C@C@c.|.^+'+j.C@C@C@"};
