/* XPM */
static char * Floor5_xpm[] = {
"64 64 334 2",
"  	c #46A9A7",
". 	c #46A8A6",
"+ 	c #46A9A8",
"@ 	c #47ABA9",
"# 	c #368081",
"$ 	c #357E7F",
"% 	c #45A6A5",
"& 	c #2B6164",
"* 	c #2F3131",
"= 	c #273036",
"- 	c #337A7B",
"; 	c #192735",
"> 	c #273030",
", 	c #2A6164",
"' 	c #3D9393",
") 	c #3E9594",
"! 	c #1A2735",
"~ 	c #25282F",
"{ 	c #285A5E",
"] 	c #223437",
"^ 	c #295E61",
"/ 	c #295D61",
"( 	c #336464",
"_ 	c #303231",
": 	c #303837",
"< 	c #367E7F",
"[ 	c #2A5E61",
"} 	c #324241",
"| 	c #336465",
"1 	c #2C6466",
"2 	c #6B693E",
"3 	c #8A8748",
"4 	c #2F3231",
"5 	c #213B40",
"6 	c #243B3D",
"7 	c #1F353B",
"8 	c #BAB559",
"9 	c #9CA04E",
"0 	c #21292F",
"a 	c #596B39",
"b 	c #95B24C",
"c 	c #566839",
"d 	c #192734",
"e 	c #28363B",
"f 	c #2A3D3C",
"g 	c #316767",
"h 	c #347C7D",
"i 	c #445F42",
"j 	c #577A4D",
"k 	c #243A3D",
"l 	c #44A5A3",
"m 	c #1D353F",
"n 	c #6E6C3F",
"o 	c #A4A051",
"p 	c #4A6342",
"q 	c #75A260",
"r 	c #445F41",
"s 	c #262930",
"t 	c #446246",
"u 	c #313D3C",
"v 	c #BBB75A",
"w 	c #1B2F3A",
"x 	c #8D8949",
"y 	c #6B6E47",
"z 	c #5A6E3F",
"A 	c #20353C",
"B 	c #275A5E",
"C 	c #273035",
"D 	c #BCB75A",
"E 	c #BFBA5B",
"F 	c #1C2630",
"G 	c #689057",
"H 	c #77A561",
"I 	c #8D8B4A",
"J 	c #BBB759",
"K 	c #3E4533",
"L 	c #97B44D",
"M 	c #9BB94E",
"N 	c #728940",
"O 	c #5B6C3A",
"P 	c #97B44C",
"Q 	c #859F47",
"R 	c #354739",
"S 	c #77A460",
"T 	c #79A863",
"U 	c #56784C",
"V 	c #B8B358",
"W 	c #BDB85A",
"X 	c #889C58",
"Y 	c #859A57",
"Z 	c #A8A452",
"` 	c #353D34",
" .	c #78A461",
"..	c #7AA460",
"+.	c #8C8B4A",
"@.	c #B6BA58",
"#.	c #AFBA55",
"$.	c #A4A251",
"%.	c #343831",
"&.	c #708640",
"*.	c #313E32",
"=.	c #6A9157",
"-.	c #292F31",
";.	c #454535",
">.	c #293031",
",.	c #689158",
"'.	c #7DA963",
").	c #9DAE5E",
"!.	c #92904B",
"~.	c #8BA349",
"{.	c #9AB74D",
"].	c #62723C",
"^.	c #B1B556",
"/.	c #AEBA55",
"(.	c #B3B857",
"_.	c #7B9C54",
":.	c #9AB94F",
"<.	c #98B64D",
"[.	c #99B84F",
"}.	c #82AA5C",
"|.	c #384235",
"1.	c #8D8A49",
"2.	c #757241",
"3.	c #BCB95B",
"4.	c #95AE60",
"5.	c #BDB95B",
"6.	c #6C6C3F",
"7.	c #AFB45C",
"8.	c #BBB85B",
"9.	c #AAA653",
"0.	c #9EB94F",
"a.	c #9CB94E",
"b.	c #A0B450",
"c.	c #5F6F3B",
"d.	c #918E4A",
"e.	c #B5B857",
"f.	c #B2B656",
"g.	c #64753C",
"h.	c #7F9E4E",
"i.	c #7AA762",
"j.	c #AEB55D",
"k.	c #8F8C4A",
"l.	c #A9A653",
"m.	c #A6A252",
"n.	c #384334",
"o.	c #979F55",
"p.	c #B6BA57",
"q.	c #9AB74E",
"r.	c #8AA348",
"s.	c #9BB94F",
"t.	c #85AE5D",
"u.	c #93B554",
"v.	c #A3B751",
"w.	c #9DA44F",
"x.	c #BEBA5B",
"y.	c #94904B",
"z.	c #BAB759",
"A.	c #B7BA58",
"B.	c #BDBA5A",
"C.	c #B5BA57",
"D.	c #9BB74E",
"E.	c #AAB653",
"F.	c #A5B951",
"G.	c #9AB84F",
"H.	c #99B25C",
"I.	c #B5B958",
"J.	c #B4B857",
"K.	c #9DB94F",
"L.	c #A7B952",
"M.	c #9AB64E",
"N.	c #9FB94F",
"O.	c #A6B952",
"P.	c #9CB94F",
"Q.	c #A4B951",
"R.	c #AEB955",
"S.	c #ADB954",
"T.	c #ADB955",
"U.	c #BEBA5A",
"V.	c #BCBA5A",
"W.	c #ACB955",
"X.	c #ABB954",
"Y.	c #83AD5E",
"Z.	c #7BA962",
"`.	c #84AD5D",
" +	c #92B455",
".+	c #8BB159",
"++	c #9DB557",
"@+	c #8CB159",
"#+	c #99B850",
"$+	c #7CA961",
"%+	c #7AA863",
"&+	c #7CA962",
"*+	c #AAB856",
"=+	c #A1B25E",
"-+	c #87AE5E",
";+	c #7DAA61",
">+	c #8DB158",
",+	c #8BB05A",
"'+	c #7EAA62",
")+	c #92AE60",
"!+	c #B1B65C",
"~+	c #BDBA5B",
"{+	c #A3B25E",
"]+	c #98B751",
"^+	c #9CB850",
"/+	c #7FA763",
"(+	c #83AC5E",
"_+	c #8FAF5B",
":+	c #84A764",
"<+	c #85A763",
"[+	c #98B652",
"}+	c #9CA967",
"|+	c #719672",
"1+	c #6B9473",
"2+	c #8DAE5C",
"3+	c #799E6B",
"4+	c #709672",
"5+	c #7EA764",
"6+	c #6F9573",
"7+	c #879E6E",
"8+	c #8DA866",
"9+	c #90AD61",
"0+	c #8AB05A",
"a+	c #86A763",
"b+	c #889F6D",
"c+	c #9BA769",
"d+	c #869E6F",
"e+	c #98A66A",
"f+	c #749772",
"g+	c #B4B859",
"h+	c #BBB85D",
"i+	c #889E6E",
"j+	c #699274",
"k+	c #BAB75D",
"l+	c #899F6E",
"m+	c #BEB95C",
"n+	c #A2B25E",
"o+	c #7DA962",
"p+	c #7FAA62",
"q+	c #8EB159",
"r+	c #9EB557",
"s+	c #81A16A",
"t+	c #9BA868",
"u+	c #ADB063",
"v+	c #BBB95C",
"w+	c #BCB95C",
"x+	c #BDB95C",
"y+	c #A2B25F",
"z+	c #B0B55D",
"A+	c #8CA06D",
"B+	c #BAB85C",
"C+	c #B0BA55",
"D+	c #B4BA57",
"E+	c #8FAD60",
"F+	c #9FB15F",
"G+	c #BBB95B",
"H+	c #ABB856",
"I+	c #80AA62",
"J+	c #A1B15F",
"K+	c #A0B15F",
"L+	c #A6B45B",
"M+	c #A4B953",
"N+	c #8DB15A",
"O+	c #8DB159",
"P+	c #7EA962",
"Q+	c #82AC5F",
"R+	c #A5B953",
"S+	c #ADB956",
"T+	c #8DB258",
"U+	c #94B555",
"V+	c #A5B952",
"W+	c #B3B958",
"X+	c #9EB15F",
"Y+	c #84AD5E",
"Z+	c #7CAA61",
"`+	c #94B553",
" @	c #9BB850",
".@	c #B6B958",
"+@	c #94B554",
"@@	c #9AB94E",
"#@	c #9AA669",
"$@	c #6F9474",
"%@	c #789D6C",
"&@	c #869D6F",
"*@	c #90AF5B",
"=@	c #9EB950",
"-@	c #8EAF5B",
";@	c #6E9573",
">@	c #6D9473",
",@	c #6C9374",
"'@	c #8A9F6E",
")@	c #AEB261",
"!@	c #B6B959",
"~@	c #AEB162",
"{@	c #9DB850",
"]@	c #7B9E6C",
"^@	c #ABAF63",
"/@	c #A0A967",
"(@	c #89A863",
"_@	c #9EA968",
":@	c #85AD5E",
"<@	c #7BA863",
"[@	c #96B15D",
"}@	c #8FB15A",
"|@	c #9BB84F",
"1@	c #9AB850",
"2@	c #9FB657",
"3@	c #9FB15E",
"4@	c #76A368",
"5@	c #729E6C",
"6@	c #75A268",
"7@	c #78A764",
"8@	c #709D6C",
"9@	c #74A169",
"0@	c #689274",
"a@	c #679175",
"b@	c #82A565",
"c@	c #83A665",
"d@	c #6B9474",
"e@	c #8AB05B",
"f@	c #89B05B",
"g@	c #719D6C",
"h@	c #6A9275",
"i@	c #7E9F6B",
"j@	c #6D9870",
"k@	c #AFB955",
"l@	c #7DA863",
"m@	c #759F6C",
"n@	c #6D9474",
"o@	c #6A9374",
"p@	c #A3B951",
"q@	c #B4B958",
"r@	c #9FB557",
"s@	c #B1B65D",
"  . + @ . # $ # . . . % & * = - ; > , ' $ )   . + . # $ ) @ @ ' ! * ~ { ] ^ ^ * ~ / $ ) % ( _ : < . ) $ $ ) . , > , . . . ) ! * ",
"[ } | ' 1 2 3 4 / 5 6 7 2 8 9 0 a b c d * e ^ f g h i j k ' l m n 8 o p q r 2 8 o s r t u o v 8 2 / w 2 x y ^ c b z ^ A 5 B 2 8 ",
"n 8 o C n D E 3 F G H G I E J K L M N n 8 o O P Q R S T U = u 4 V E W X T Y Z E 8 `  ...+.E @.#.$.%._ 8 E D n &.M L *.G =.-.x E ",
"W E 8 ;.8 E D n >.,.'.).!.E W ~.M {.].^./.(._.:.M <.[.}.|.o 8 1.2.W E 3.4.5.E E 1.6.7.8.9.@.0.a.a.b.c.d.e./.f.g.<.M h.i.j.o k.E ",
"E E l.m.E E l.m.o n.o.E W E E p.a.q.r.a.M s.t.u.M M M v.w.@.E E Z W x.x.x.E x.W y.z.E E E A.B.C.a.a.D.E.F.M a.q.M M G.H.I.J.9.E ",
"x.@.K.L.B./.0./.C.M.J.E E E E x.N.p.@.O.K.K.P.P.M M M Q.K.K.R.#.x.@.K.L.B./.0./.C.0.@.E E E E x.N.p.@.O.K.K.K.K.M M M Q.K.K.R./.",
"O.F.M K.S.M M M a.M T.x.B.#.@.U.V.U.B.R.W.W.W.X.a.M M M M M M M O.F.M K.S.M M M a.M T.x.B.#.@.U.V.U.B.R.W.W.W.X.a.M M M M M M M ",
"M M M M s.G.M M M M a.K.K.M a.K.K.K.P.u.Y.Z.Z.`. +.+u.M a.O.R.K.M M M M s.G.M M M M a.K.K.M a.K.K.K.P.u.Y.Z.Z.`. +.+u.M a.O.R.K.",
"R.++@+#+t.$+ +M M M G.:.M M M M M [.`.%+Z.Z.%+T %+T &+*+I.x.E @.R.++@+#+t.$+ +M M M G.:.M M M M M [.`.%+Z.Z.%+T %+T &+*+I.x.E @.",
"=+-+Y.;+ + +;+u.M  +Z.`.[.u.u.:.>+;+Z.`.[.G. +%+Y.,+&+'+)+!+~+{+=+-+Y.;+ + +;+u.M  +Z.`.[.u.u.:.>+;+Z.`.[.G. +%+Y.,+&+'+)+!+~+{+",
"#+ + +#+#+@+,+[.[.Z.%+Z.Z.%+Z.@+u.G.G.:.M M :.>+G.M ]+]+]+s.^+]+#+ + +#+#+@+,+[.[.Z.%+Z.Z.%+Z.@+u.G.G.:.M M :.>+G.M ]+]+]+s.^+]+",
"/+%+Z.(+Z.T T Y.Y.%+ +[.@+.+u.G.:.M _+:+<+[+<+_+K.T.}+|+1+2+3+4+5+%+Z.(+Z.T T Y.Y.%+ +[.@+.+u.G.:.M _+:+<+[+<+_+K.T.}+|+1+2+3+6+",
"7+8+9+%+0+&+,+Y.T (+#+G.G.M M G.]+a+b+c+d+|+e+f+g+E E h+i+j+i+k+l+8+9+%+0+&+,+Y.T (+#+G.G.M M G.]+a+b+c+d+|+e+f+g+E E h+i+j+i+h+",
"5.m+5.n+K.G.M [.Z.%+o+p+p+q+r+s+t+u+m+x.v+w+E x+E 5.y+z+w+A+B+C+3.m+5.n+K.G.M [.Z.%+o+p+p+q+r+s+t+u+m+x.v+w+E x+E 5.y+z+w+A+B+#.",
"O./.#.B.D+a.M u.E+F+j.G+G+G+I.H+R.@.!+)+I+J+v+y+J+9+T '.K+L+M+M O./.#.B.D+a.M u.E+F+j.G+G+G+I.H+R.@.!+)+I+J+v+y+J+9+T '.K+L+M+M ",
"u.[.@+N+O+:.M :.s.K.K.K.K.K.K.K.M a.s.G.u..+-+Z.%+T T T T %+Z.,+u.[.@+N+O+:.M :.s.K.K.K.K.K.K.K.M a.s.G.u..+-+Z.%+T T T T %+Z.,+",
"Z.$+P+K+)+G.M M M M M a.K.O.B.B.O.K.M M G.G. +0+Q+Z.,+Y.T T T %+Z.$+P+K+)+G.M M M M M a.K.O.B.B.O.K.M M G.G. +0+Q+Z.,+Y.T T T %+",
"R+R+S+E ~+O.M M M M M Q.C.U.@.#.B.B.O.M T+>+@+.+.+u.M [.&+Z.,+U+R+R+S+E ~+O.M M M M M Q.C.U.@.#.B.B.O.M T+>+@+.+.+u.M [.&+Z.,+U+",
"3.3.G+y+z+A./.O.K.K.G.:.a.V+K.M O./.S.a.M M M M M M M M G.G.s.W+3.3.G+y+z+A./.O.K.K.G.:.a.V+K.M O./.S.a.M M M M M M M M G.G.s.W+",
"-+-+'.T '.K+J+K+F+X+&+Y..+@+[.G.G.G.:.M M M M M M M M M :.[.Y+P+-+-+'.T '.K+J+K+F+X+&+Y..+@+[.G.G.G.:.M M M M M M M M M :.[.Y+P+",
":.G.@+Y.T %+Z.%+T T T T T %+$+Z+t.>+`+M M M M M M M M M `+>+.+u.:.G.@+Y.T %+Z.%+T T T T T %+$+Z+t.>+`+M M M M M M M M M `+>+.+u.",
"M O.R. @Z. +G. +`.,+&+,+.+u.G.G.:.M M M M M G._+:+<+#+#+<+:+_+M M O.R. @Z. +G. +`.,+&+,+.+u.G.G.:.M M M M M G._+:+<+#+#+<+:+_+M ",
"O.x.E .@)++@M M @@a.^+K.R./.F.M M #+#+G.G.]+3+7+#@$@%@%@&@c+b+*@O.x.E .@)++@M M @@a.^+K.R./.F.M M #+#+G.G.]+3+7+#@$@%@%@&@c+b+*@",
"A.E E E ~+=@M a.T.@.x.x.E B.R+G.-@;@>@%@%@6+,@k+E h+c+'@w+E m+)@!@E E E ~+=@M a.T.@.x.x.E B.R+G.-@;@>@%@%@6+,@k+E h+c+'@w+E m+~@",
"E E 5.E E B.0.K.T./././.R.{@3+]@>@^@^@$@i+k+c+/@E E E m+E x.x.x.E E 5.E E B.0.K.T./././.R.{@3+]@>@^@^@$@i+k+c+/@E E E m+E x.x.x.",
"~+j.I+z+E E B.D+a.M M K.W.(@l+k+_@3.x.w+m+x.x.m+5.y+y+3.x.L.K.O.~+j.I+z+E E B.D+a.M M K.W.(@l+k+_@3.x.w+m+x.x.m+5.y+y+3.x.L.K.O.",
":@<@T [@R./.O.K.M K.R.V.x.w+m+x.p.K.L.x.@.^+}@K+9+T T q+F.a.G.@+:@<@T [@R./.O.K.M K.R.V.x.w+m+x.p.K.L.x.@.^+}@K+9+T T q+F.a.G.@+",
"Z.0+Z.Z. +:.M M Q.C.C.K.O.B.@.O.a.M a.R.W..+T T T T %+0+@+#+Y+T Z.0+Z.Z. +:.M M Q.C.C.K.O.B.@.O.a.M a.R.W..+T T T T %+0+@+#+Y+T ",
",+M [.@+@+`+M M a.P.|@M M K.a.M M `+>+.+Y+%+Y.,+Z.%+Z.T T Z.%+%+,+M [.@+@+`+M M a.P.|@M M K.a.M M `+>+.+Y+%+Y.,+Z.%+Z.T T Z.%+%+",
"t.@@M M M :.G.M G.`.Z.u.M M M M M s.1@@+Y.&+[.M @+ +[..+Z.Z. + +t.@@M M M :.G.M G.`.Z.u.M M M M M s.1@@+Y.&+[.M @+ +[..+Z.Z. +u.",
"G.M M M G.`.Z.,+Y.T T ,+G.M M M K.p.p.K.K.T.T.K.M M M M #+#+M M G.M M M G.`.Z.,+Y.T T ,+G.M M M K.p.p.K.K.T.T.K.M M M M #+#+M M ",
".+@+[.[.Y+T T T T T T %+Z.,+@+2@V.E E x.x.E z+3@U+u..+,+Z.Z..+#+@+@+[.[.Y+T T T T T T %+Z.,+@+2@V.E E x.x.E z+3@U+u..+,+Z.Z..+[.",
"T T 4@5@6@Z.Z.Z.Z.7@7@T Z.,+u.P.N.A.E E .@=+-+,+$+Z.T T T T T Z.T T 4@5@6@Z.Z.Z.Z.7@7@T Z.,+u.P.N.A.E E .@=+-+,+$+Z.T T T T T Z.",
"8@9@0@a@j+b@c@-@2+;@d@8@e@M O.@.x.x.E B.K.G.:.`+,+f@%+T T T T 7@g@9@0@a@j+b@c@-@2+;@d@8@e@M O.@.x.x.E B.K.G.:.`+,+f@%+T T T T T ",
"h@7+c+&@a@&@c+7+l+h+^@$@i@T.C./.#.x.E C+a.a.M :.u.Y.Z.%+T T T j@h@7+c+&@a@&@c+7+l+h+^@$@i@T.C./.#.x.E C+a.a.M :.u.Y.Z.%+T T T j@",
"u+m+E h+A+w+E m+m+E E w+w+k@K.a.M O.@.x.@.D+K.M M :.G..+'.l@m@n@^@m+E h+A+w+E m+m+E E w+w+k@K.a.M O.@.x.@.D+K.M M :.G..+'.l@m@o@",
"E E x.x.m+E x.E E x.E E E A.B.C.a.a.K.R.O.K.p@M M M M V+W+q@h+~@E E x.x.m+E x.E E x.E E E A.B.C.a.a.K.R.O.K.p@M M M M V+W+q@h+~@",
"x.@.K.L.B./.0./.C.0.@.E E E E x.N.p.@.O.K.K.K.K.M M M Q.K.K.R.#.x.@.K.L.B./.0./.C.0.@.E E E E x.N.p.@.O.K.K.K.K.M M M Q.K.K.R./.",
"O.F.M K.S.M M M a.M T.x.B.#.@.U.V.U.B.R.W.W.W.X.a.M M M M M M M O.F.M K.S.M M M a.M T.x.B.#.@.U.V.U.B.R.W.W.W.X.a.M M M M M M M ",
"M M M M s.G.M M M M a.K.K.M a.K.K.K.P.u.Y.Z.Z.`. +.+u.M a.O.R.K.M M M M s.G.M M M M a.K.K.M a.K.K.K.P.u.Y.Z.Z.`. +.+u.M a.O.R.K.",
"R.++@+#+t.$+ +M M M G.:.M M M M M [.`.%+Z.Z.%+T %+T &+*+I.x.E @.R.++@+#+t.$+ +M M M G.:.M M M M M [.`.%+Z.Z.%+T %+T &+*+I.x.E @.",
"=+-+Y.;+ + +;+u.M  +Z.`.[.u.u.:.>+;+Z.`.[.G. +%+Y.,+&+'+)+!+~+{+=+-+Y.;+ + +;+u.M  +Z.`.[.u.u.:.>+;+Z.`.[.G. +%+Y.,+&+'+)+!+~+{+",
"#+ + +#+#+@+,+[.[.Z.%+Z.Z.%+Z.@+u.G.G.:.M M :.>+G.M ]+]+]+s.^+]+#+ + +#+#+@+,+[.[.Z.%+Z.Z.%+Z.@+u.G.G.:.M M :.>+G.M ]+]+]+s.^+]+",
"/+%+Z.(+Z.T T Y.Y.%+ +[.@+.+u.G.:.M _+:+<+[+<+_+K.T.}+|+1+2+3+4+5+%+Z.(+Z.T T Y.Y.%+ +[.@+.+u.G.:.M _+:+<+[+<+_+K.T.}+|+1+2+3+6+",
"7+8+9+%+0+&+,+Y.T (+#+G.G.M M G.]+a+b+c+d+|+e+f+g+E E h+i+j+i+k+l+8+9+%+0+&+,+Y.T (+#+G.G.M M G.]+a+b+c+d+|+e+f+g+E E h+i+j+i+h+",
"5.m+5.n+K.G.M [.Z.%+o+p+p+q+r+s+t+u+m+x.v+w+E x+E 5.y+z+w+A+B+C+3.m+5.n+K.G.M [.Z.%+o+p+p+q+r+s+t+u+m+x.v+w+E x+E 5.y+z+w+A+B+#.",
"O./.#.B.D+a.M u.E+F+j.G+G+G+I.H+R.@.!+)+I+J+v+y+J+9+T '.K+L+M+M O./.#.B.D+a.M u.E+F+j.G+G+G+I.H+R.@.!+)+I+J+v+y+J+9+T '.K+L+M+M ",
"u.[.@+N+O+:.M :.s.K.K.K.K.K.K.K.M a.s.G.u..+-+Z.%+T T T T %+Z.,+u.[.@+N+O+:.M :.s.K.K.K.K.K.K.K.M a.s.G.u..+-+Z.%+T T T T %+Z.,+",
"Z.$+P+K+)+G.M M M M M a.K.O.B.B.O.K.M M G.G. +0+Q+Z.,+Y.T T T %+Z.$+P+K+)+G.M M M M M a.K.O.B.B.O.K.M M G.G. +0+Q+Z.,+Y.T T T %+",
"R+R+S+E ~+O.M M M M M Q.C.U.@.#.B.B.O.M T+>+@+.+.+u.M [.&+Z.,+U+R+R+S+E ~+O.M M M M M Q.C.U.@.#.B.B.O.M T+>+@+.+.+u.M [.&+Z.,+U+",
"3.3.G+y+z+A./.O.K.K.G.:.a.V+K.M O./.S.a.M M M M M M M M G.G.s.W+3.3.G+y+z+A./.O.K.K.G.:.a.V+K.M O./.S.a.M M M M M M M M G.G.s.W+",
"-+-+'.T '.K+J+K+F+X+&+Y..+@+[.G.G.G.:.M M M M M M M M M :.[.Y+P+-+-+'.T '.K+J+K+F+X+&+Y..+@+[.G.G.G.:.M M M M M M M M M :.[.Y+P+",
":.G.@+Y.T %+Z.%+T T T T T %+$+Z+t.>+`+M M M M M M M M M `+>+.+u.:.G.@+Y.T %+Z.%+T T T T T %+$+Z+t.>+`+M M M M M M M M M `+>+.+u.",
"M O.R. @Z. +G. +`.,+&+,+.+u.G.G.:.M M M M M G._+:+<+#+#+<+:+_+M M O.R. @Z. +G. +`.,+&+,+.+u.G.G.:.M M M M M G._+:+<+#+#+<+:+_+M ",
"O.x.E .@)++@M M @@a.^+K.R./.F.M M #+#+G.G.]+3+7+#@$@%@%@&@c+b+*@O.x.E .@)++@M M @@a.^+K.R./.F.M M #+#+G.G.]+3+7+#@$@%@%@&@c+b+*@",
"A.E E E ~+=@M a.T.@.x.x.E B.R+G.-@;@>@%@%@6+,@k+E h+c+'@w+E m+)@!@E E E ~+=@M a.T.@.x.x.E B.R+G.-@;@>@%@%@6+,@k+E h+c+'@w+E m+~@",
"E E 5.E E B.0.K.T./././.R.{@3+]@>@^@^@$@i+k+c+/@E E E m+E x.x.x.E E 5.E E B.0.K.T./././.R.{@3+]@>@^@^@$@i+k+c+/@E E E m+E x.x.x.",
"~+j.I+z+E E B.D+a.M M K.W.(@l+k+_@3.x.w+m+x.x.m+5.y+y+3.x.L.K.O.~+j.I+z+E E B.D+a.M M K.W.(@l+k+_@3.x.w+m+x.x.m+5.y+y+3.x.L.K.O.",
":@<@T [@R./.O.K.M K.R.V.x.w+m+x.p.K.L.x.@.^+}@K+9+T T q+F.a.G.@+:@<@T [@R./.O.K.M K.R.V.x.w+m+x.p.K.L.x.@.^+}@K+9+T T q+F.a.G.@+",
"Z.0+Z.Z. +:.M M Q.C.C.K.O.B.@.O.a.M a.R.W..+T T T T %+0+@+#+Y+T Z.0+Z.Z. +:.M M Q.C.C.K.O.B.@.O.a.M a.R.W..+T T T T %+0+@+#+Y+T ",
",+M [.@+@+`+M M a.P.|@M M K.a.M M `+>+.+Y+%+Y.,+Z.%+Z.T T Z.%+%+,+M [.@+@+`+M M a.P.|@M M K.a.M M `+>+.+Y+%+Y.,+Z.%+Z.T T Z.%+%+",
"t.@@M M M :.G.M G.`.Z.u.M M M M M s.1@@+Y.&+[.M @+ +[..+Z.Z. + +t.@@M M M :.G.M G.`.Z.u.M M M M M s.1@@+Y.&+[.M @+ +[..+Z.Z. +u.",
"G.M M M G.`.Z.,+Y.T T ,+G.M M M K.p.p.K.K.T.T.K.M M M M #+#+M M G.M M M G.`.Z.,+Y.T T ,+G.M M M K.p.p.K.K.T.T.K.M M M M #+#+M M ",
".+@+:.:.`.T T T T T T %+Z.,+.+r@B.E E x.x.E s@3@+@u..+,+Z.Z..+G.@+@+:.:.`.T T T T T T %+Z.,+.+r@B.E E x.x.E s@3@+@u..+,+Z.Z..+:."};
