/* XPM */
static char * Floor4_xpm[] = {
"64 64 363 2",
"  	c #283130",
". 	c #94B14B",
"+ 	c #5B6E3B",
"@ 	c #80A95D",
"# 	c #7AA863",
"$ 	c #8BB159",
"% 	c #9AB84F",
"& 	c #9BB94E",
"* 	c #92B455",
"= 	c #7BA962",
"- 	c #8AB05A",
"; 	c #79A863",
"> 	c #8FAD61",
", 	c #A1B15F",
"' 	c #8BB05A",
") 	c #93B554",
"! 	c #2A6164",
"~ 	c #586B3A",
"{ 	c #8AAF58",
"] 	c #83AD5E",
"^ 	c #85AE5D",
"/ 	c #94B553",
"( 	c #9AB94E",
"_ 	c #8DB258",
": 	c #8CB159",
"< 	c #99B84F",
"[ 	c #7CAA61",
"} 	c #7DAA61",
"| 	c #44A5A3",
"1 	c #576D42",
"2 	c #98B64D",
"3 	c #9AB94F",
"4 	c #99B751",
"5 	c #85A763",
"6 	c #84A764",
"7 	c #8FAF5B",
"8 	c #99B850",
"9 	c #9DB94F",
"0 	c #AEB955",
"a 	c #A6B952",
"b 	c #85AD5D",
"c 	c #368081",
"d 	c #708640",
"e 	c #9AB74D",
"f 	c #8EAF5B",
"g 	c #709672",
"h 	c #9AA669",
"i 	c #869D6F",
"j 	c #6C9473",
"k 	c #82A565",
"l 	c #6F9573",
"m 	c #7FA06A",
"n 	c #9AB850",
"o 	c #B6BA57",
"p 	c #BFBA5B",
"q 	c #BEBA5B",
"r 	c #A7B55B",
"s 	c #87AE5D",
"t 	c #9CB94F",
"u 	c #AEBA55",
"v 	c #ADB955",
"w 	c #9CB94E",
"x 	c #576939",
"y 	c #3D4533",
"z 	c #789554",
"A 	c #6E9573",
"B 	c #6B9374",
"C 	c #98A66A",
"D 	c #BEB95C",
"E 	c #ADB063",
"F 	c #889E6E",
"G 	c #ACAF63",
"H 	c #BBB85D",
"I 	c #A8B25E",
"J 	c #ADB956",
"K 	c #A5B951",
"L 	c #AFBA55",
"M 	c #BDBA5A",
"N 	c #B5BA58",
"O 	c #799E6B",
"P 	c #6B9473",
"Q 	c #B6BA58",
"R 	c #1B2E39",
"S 	c #313831",
"T 	c #8B8948",
"U 	c #B8B358",
"V 	c #908E4D",
"W 	c #ACAF62",
"X 	c #8CA06D",
"Y 	c #BDB95C",
"Z 	c #A5B952",
"` 	c #90AF5B",
" .	c #6F9672",
"..	c #799D6C",
"+.	c #BAB75D",
"@.	c #6F9474",
"#.	c #ABAF63",
"$.	c #91B05A",
"%.	c #566839",
"&.	c #97B44D",
"*.	c #BDB95B",
"=.	c #B0B55D",
"-.	c #BCB95B",
";.	c #92AD61",
">.	c #92AE61",
",.	c #BCBA5A",
"'.	c #9DB15C",
").	c #7E9F6B",
"!.	c #AEB162",
"~.	c #BCB95C",
"{.	c #7B9E6C",
"].	c #357E7F",
"^.	c #A7B952",
"/.	c #95B555",
"(.	c #98B15C",
"_.	c #A0B15F",
":.	c #7DA963",
"<.	c #7DA962",
"[.	c #9CB850",
"}.	c #A4B951",
"|.	c #8CB05A",
"1.	c #7EA962",
"2.	c #7CA962",
"3.	c #ACB956",
"4.	c #B5BA57",
"5.	c #3E9594",
"6.	c #293736",
"7.	c #748B41",
"8.	c #9AB74E",
"9.	c #82AC5F",
"0.	c #84AD5E",
"a.	c #ADB954",
"b.	c #45A6A5",
"c.	c #23363B",
"d.	c #849F47",
"e.	c #9BB850",
"f.	c #2E3931",
"g.	c #88A348",
"h.	c #84AD5D",
"i.	c #97B44C",
"j.	c #A5B953",
"k.	c #A1B25F",
"l.	c #96B15C",
"m.	c #8EB258",
"n.	c #B4B957",
"o.	c #87A147",
"p.	c #9CB74E",
"q.	c #A9B65A",
"r.	c #92AE60",
"s.	c #739E6B",
"t.	c #729E6C",
"u.	c #78A764",
"v.	c #9EB94F",
"w.	c #A8B953",
"x.	c #285B5E",
"y.	c #3C3F33",
"z.	c #A7A452",
"A.	c #8DB158",
"B.	c #74A268",
"C.	c #719D6C",
"D.	c #709D6D",
"E.	c #679175",
"F.	c #769C6D",
"G.	c #83A665",
"H.	c #96B653",
"I.	c #7A9E6C",
"J.	c #6D9473",
"K.	c #6C9870",
"L.	c #76A368",
"M.	c #3D9393",
"N.	c #6B6E47",
"O.	c #BAB559",
"P.	c #689274",
"Q.	c #9AA769",
"R.	c #6C9374",
"S.	c #749772",
"T.	c #6E9473",
"U.	c #9CB05D",
"V.	c #B4BA57",
"W.	c #182735",
"X.	c #8D8949",
"Y.	c #B7BA58",
"Z.	c #BBBA5A",
"`.	c #79A467",
" +	c #6F9870",
".+	c #9DA868",
"++	c #9FB94F",
"@+	c #6B693E",
"#+	c #BAB759",
"$+	c #B3B958",
"%+	c #BBB95B",
"&+	c #337A7B",
"*+	c #21292F",
"=+	c #3A4032",
"-+	c #859F47",
";+	c #223035",
">+	c #859F46",
",+	c #88A147",
"'+	c #828E45",
")+	c #ABB854",
"!+	c #ACB955",
"~+	c #ACB954",
"{+	c #192735",
"]+	c #5E713B",
"^+	c #8CB058",
"/+	c #8DB159",
"(+	c #3D9392",
"_+	c #80AA62",
":+	c #A2B25E",
"<+	c #BDBA5B",
"[+	c #B1B65C",
"}+	c #7CA961",
"|+	c #233538",
"1+	c #455F42",
"2+	c #99B750",
"3+	c #91B159",
"4+	c #98B751",
"5+	c #9AB751",
"6+	c #98B750",
"7+	c #1E2E36",
"8+	c #689158",
"9+	c #6F9B6A",
"0+	c #53735C",
"a+	c #769B6C",
"b+	c #779C6D",
"c+	c #A6B15F",
"d+	c #889F6D",
"e+	c #8DAE5C",
"f+	c #7BA863",
"g+	c #83AC5E",
"h+	c #212E31",
"i+	c #76A361",
"j+	c #709D6C",
"k+	c #5B8168",
"l+	c #6E9372",
"m+	c #87A764",
"n+	c #869E6F",
"o+	c #94A865",
"p+	c #769B6F",
"q+	c #9EB060",
"r+	c #7EA06B",
"s+	c #709573",
"t+	c #879E6E",
"u+	c #445F42",
"v+	c #597C4E",
"w+	c #577A4D",
"x+	c #6D6D41",
"y+	c #B8B65C",
"z+	c #BBB85C",
"A+	c #A2B25F",
"B+	c #9FB557",
"C+	c #9BB94F",
"D+	c #7EAA62",
"E+	c #7FAA62",
"F+	c #87AE5E",
"G+	c #90B259",
"H+	c #9BB05D",
"I+	c #89A06D",
"J+	c #9EA968",
"K+	c #8FB259",
"L+	c #718640",
"M+	c #67693D",
"N+	c #75834B",
"O+	c #90AD61",
"P+	c #ABB857",
"Q+	c #86AE5D",
"R+	c #9EB15F",
"S+	c #A1B25E",
"T+	c #BAB95B",
"U+	c #99B64D",
"V+	c #89A549",
"W+	c #8CB15A",
"X+	c #8DB15A",
"Y+	c #94B554",
"Z+	c #89B05B",
"`+	c #8FB159",
" @	c #3D9191",
".@	c #2F3E36",
"+@	c #768D42",
"@@	c #9EB850",
"#@	c #B5B958",
"$@	c #BEBA5A",
"%@	c #A4B952",
"&@	c #AFB55D",
"*@	c #93B454",
"=@	c #9FB15F",
"-@	c #8EAD60",
";@	c #6E843F",
">@	c #536D43",
",@	c #83AC5D",
"'@	c #46A8A6",
")@	c #1A2F3A",
"!@	c #98B54E",
"~@	c #46A9A8",
"{@	c #8DAD59",
"]@	c #6F9471",
"^@	c #295E61",
"/@	c #303231",
"(@	c #393F32",
"_@	c #373F32",
":@	c #373D34",
"<@	c #707043",
"[@	c #BDB85A",
"}@	c #1A2735",
"|@	c #6E6C3F",
"1@	c #383932",
"2@	c #A4A051",
"3@	c #BBB75A",
"4@	c #BCB75A",
"5@	c #2F3131",
"6@	c #B8B559",
"7@	c #2B6164",
"8@	c #5A693A",
"9@	c #738B42",
"0@	c #376562",
"a@	c #8FA04A",
"b@	c #9AB64E",
"c@	c #356764",
"d@	c #728940",
"e@	c #717240",
"f@	c #BCB85A",
"g@	c #222E32",
"h@	c #1C2630",
"i@	c #8C8949",
"j@	c #689057",
"k@	c #77A561",
"l@	c #68693D",
"m@	c #99B54E",
"n@	c #78A561",
"o@	c #5D7F4E",
"p@	c #6E9759",
"q@	c #6C9559",
"r@	c #93B354",
"s@	c #295D61",
"t@	c #1D2730",
"u@	c #6D6F40",
"v@	c #BBB85A",
"w@	c #596B39",
"x@	c #9BB64E",
"y@	c #273030",
"z@	c #95B24C",
"A@	c #778D43",
"B@	c #556B42",
"C@	c #2C3832",
"D@	c #6A9358",
"E@	c #243A3D",
"F@	c #77A460",
"G@	c #47ABA9",
"H@	c #576A3B",
"I@	c #96B44D",
"J@	c #1B2F3A",
"K@	c #8FAE59",
"L@	c #8F8C49",
"M@	c #8E8C49",
"N@	c #969B5B",
"O@	c #9BA769",
"P@	c #686C42",
"Q@	c #9EB557",
"R@	c #60723B",
"S@	c #69693E",
"T@	c #B3B657",
"U@	c #748941",
"V@	c #B1B65D",
"  . + @ # $ % & & & & & & & % * # = - = ; ; > , , , , > # ' $ ) % % % % & & & & & & & & & & % * # = - = ; ; > , , , , > # ' $ ) ",
"!   ~ { $ ] ^ / & & & & & ( _ : : < & ) ' = ; = = ; ; ; ; ; ; = [ } : _ ( & & & & & & & & ( _ : : < & ) ' = ; = = ; ; ; ; ; ; = ",
"| 1 2 & & 3 % 3 4 5 6 7 & 7 6 5 8 & 9 0 a ' ] < < b ' ] ] $ : < % % & & & & & & 4 5 6 7 & 7 6 5 8 & 9 0 a ' ] < < b ' ] ] $ : < ",
"c d & e 2 & 8 f g h i j k l h h m n o p q r s ( & ( & t t a u v w & % 8 8 & 8 f g h i j k l h h m n o p q r s ( & ( & t t a u u ",
"c   d x y z A B C p D E F G p p H I q p p p J w & K L M q q q N n 8 O l P k A B C p D E F G p p H I q p p p J w & K L M q q q Q ",
"| R S T U V W E X Y p p D p p q q p p q q p q u 9 Z u u u u a `  ...i +.F @.#.E X Y p p D p p q q p p q q p q u 9 Z u u u u a $.",
"c %.&.9 Q p q q *.p =., =.q Q 9 9 N -.;.>.q p q ,.K & & w a '.).#.E !.q D ~.q q *.p =., =.q Q 9 9 N -.;.>.q p q ,.K & & w a '.{.",
"].d & & u q ^./.(._.:.; <.[.}.& ) |.1.; 2.3.u 0 9 w & a 4.M D ~.p M a 9 Q q ^./.(._.:.; <.[.}.& ) |.1.; 2.3.u 0 9 w & a 4.M D ~.",
"5.6.7.8.K 4.n = ; ; ; ; 9.$ ) * = ; ] ] # 0.< & & w a.,.a 9 o M u 9 & & K 4.n = ; ; ; ; 9.$ ) * = ; ] ] # 0.< & & w a.,.a 9 o q ",
"b.c.d._ : |.= = ' ] ; = # ; # # = = < 3 ) $ _ ( & & 9 e.3 & w 9 & & ( _ : |.= = ' ] ; = # ; # # = = < 3 ) $ _ ( & & 9 e.3 & w 9 ",
"! f.g.% ) ' = $ & < ^ < ) ] = h.8 ^ ) & & & & % 3 & * = h.3 & & & & & e.) ' = $ & < ^ < ) ] = h.8 ^ ) & & & & % 3 & * = h.3 & & ",
"%.i.e }.0 a j.0 a w ( & & % 8 % & 3 3 & & & * = ] ' = ; = 8 3 & & w a ,.a 9 j.0 a w ( & & % 8 % & 3 3 & & & * = ] ' = ; = 8 3 & ",
"d & & 9 q q q *.k.l.8 : $ ] = ] ) ) $ ) % * = ; ; ; ; ; ; = ] $ m.n.q p q q q *.k.l.8 : $ ] = ] ) ) $ ) % * = ; ; ; ; ; ; = ] $ ",
"6.d o.p.q q q.r.' ] 2.# ; ; ; ; # # ; ; s.t.; = = = ; u.; ; ] : < v.w.q p q q.r.' ] 2.# ; ; ; ; # # ; ; s.t.; = = = ; u.; ; ] $ ",
"5.x.y.z.p u 3 % 3 A.- 9.; ; ; ; ; B.C.D.E.E.F.G.6 H.I.J.K.L.8 9 u M q p p u 3 % 3 A.- 9.; ; ; ; ; B.C.D.E.E.F.G.6 H.I.J.K.L.8 w ",
"M.N.O.p q v.9 & & < $ = = ; ; ; B.P.@.Q.h R.R.h h S.#.H F T.U.V.L u Q p q v.9 & & < $ = = ; ; ; B.P.@.Q.h R.R.h h S.#.H F T.U.4.",
"W.X.p p q Y.Z.a & & & % 8 <.:.`. +F H p p .+G p p Y p p D ~.-.++9 & 9 u q Y.Z.a & & & % 8 <.:.`. +F H p p .+G p p Y p p D ~.-.++",
"W.@+O.#+^.0 9 }.w & & & w $+J %+!.~.p q q D p q q p q q p p q Y.M a & 9 a 0 9 }.w & & & w $+J %+!.~.p q q D p q q p q q p p q Y.",
"&+*+=+=+-+9 9 9 9 w & & w K & a u Q q ^.9 Q Q a a o a ^.q p p p p L a ,.u 9 9 9 9 w & & w K & a u Q q ^.9 Q Q a a o a ^.q p p p ",
";+>+2 ,+'+)+!+!+!+}.& & & & & & & 9 a.w & ~+9 & & w & 9 ,.q Q L M M M q Q a.!+!+!+}.& & & & & & & 9 a.w & ~+9 & & w & 9 ,.q Q u ",
"  i.e 2 n $ = = = * : : % & 9 0 a & & & & w % 3 & & & & 9 9 w & 9 9 9 9 n $ = = = * : : % & 9 0 a & & & & w % 3 & & & & 9 9 w & ",
"{+%.x ]+^+] = = ; # ; ; l.!+M p q L !+/+) * } h.% & & 3 % & & & & & 3 * = # = = ; # ; ; l.!+M p q L !+/+) * } h.% & & 3 % & & & ",
"(+W.  i.& 3 % < ] = ' ] <._+:+<+[+:+r.- }+^ 8 h.^ ( % h.= * < A.% / ^ = = * % < ] = ' ] <._+:+<+[+:+r.- }+^ 8 h.^ ( % h.= * < : ",
"(+|+1+-+2+5 3+& ) ) & n 4+4+8 9 5+8 6+: 8 < ) ' * & $ ; = = = ; b A.< % % & & & ) ) & n 4+4+8 9 5+8 6+: 8 < ) ' * & $ ; = = = ; ",
"7+8+9+0+a+b+2+7 5 8 a c+d+J.O e+A I.f+; g+= # ; = - = ] < ) $ : < % & 8 5 6 7 7 5 8 a c+d+J.O e+A I.f+; g+= # ; = - = ] < ) $ $ ",
"h+i+u.j+k+l+m+d+n+o+q p D #.R.T.#.#.p+q+:.g+] ] ' = # * % % 3 & & 8 7 r+h h s+t+n+o+q p D #.R.T.#.#.p+q+:.g+] ] ' = # * % % 3 & ",
"! u+v+w+x+y+z+D D D p =.A+*.G .+Q Q Y p =.B+C+3 & ' ; = D+E+F+G+H+I+J+H p *.z+D D D p =.A+*.G .+Q Q Y p =.B+C+3 & ' ; = D+E+F+K+",
"M.6.L+M+N+_+O+=.=., _.:.; O+k.P+t 9 0 u Q ,.K & ( Q+R+S+T+%+%+%+J v L ,.:+_+O+=.=., _.:.; O+k.P+t 9 0 u Q ,.K & ( Q+R+S+T+%+%+%+",
"].d & U+V+< : : <.= ; ; ; ; ; = ] : < ) W+X+Y+& & % 9 9 9 9 9 9 9 w & 9 % < : : <.= ; ; ; ; ; = ] : < ) W+X+Y+& & % 9 9 9 9 9 v.",
"c d & & & & & / ' Z+# ] ' = ; ; ; = }+2.O+_.`+& & & & & & 9 9 o q o 9 w & 3 % 8 ' Z+# ] ' = ; ; ; = }+2.O+_.`+& & & & & & 9 9 o ",
" @.@+@8.& & & 3 ) $ : % & $ = ] : [.!+@@<+p #@w & & & & w a.,.$@L Q q o 9 / A.A.$ $ : % & $ = ] : [.!+@@<+p #@w & & & & w a.,.q ",
";+>+2 & & & & & & & & & & 3 % 3 %@%+*.%+&@A+-.L 0 9 9 C+% & 9 K & 9 0 0 }.& & & & & & & & 3 % 3 %@%+*.%+&@A+-.L 0 9 9 C+% & 9 Z ",
";+>+& 2 *@$ $ ) < : / & & & % * <.E+X+D+f+; O+, , =@=@-@= ' $ ) % % % % & & & & & & & & & & % * <.E+X+D+f+; O+, , =@=@-@= ' $ ) ",
"(+6.;@>@,@$ ] }+: : % & & ( _ : : < & ) ' = ; = = ; ; ; ; ; ; = [ } : _ ( & & & & & & & & ( _ : : < & ) ' = ; = = ; ; ; ; ; ; = ",
"'@)@%.!@3 & 3 % 4+5 6 7 & 7 6 5 8 & 9 0 a ' ] < < b ' ] ] $ : < % % & & & & & & 4 5 6 7 & 7 6 5 8 & 9 0 a ' ] < < b ' ] ] $ : < ",
"~@! %.i.e & 2 {@]@h i j k l h h m n o p q r s ( & ( & t t a u v w & % 8 8 & 8 f g h i j k l h h m n o p q r s ( & ( & t t a u u ",
"5.^@/@(@x d _@:@<@[@D E F G p p H I q p p p J w & K L M q q q N n 8 O l P k A B C p D E F G p p H I q p p p J w & K L M q q q Q ",
"}@|@O.O.|@1@2@3@4@p p p D p p q q p p q q p q u 9 Z u u u u a `  ...i +.F @.#.E X Y p p D p p q q p p q q p q u 9 Z u u u u a $.",
"5@O.q q [@4@q q q p =., =.q Q 9 9 N -.;.>.q p q ,.K & & w a '.).#.E !.q D ~.q q *.p =., =.q Q 9 9 N -.;.>.q p q ,.K & & w a '.{.",
"5@6@a 9 Q q ^./.(._.:.; <.[.}.& ) |.1.; 2.3.u 0 9 w & a 4.M D ~.p M a 9 Q q ^./.(._.:.; <.[.}.& ) |.1.; 2.3.u 0 9 w & a 4.M D ~.",
"7@8@o.& K 4.n = ; ; ; ; 9.$ ) * = ; ] ] # 0.< & & w a.,.a 9 o M u 9 & & K 4.n = ; ; ; ; 9.$ ) * = ; ] ] # 0.< & & w a.,.a 9 o q ",
"M.6.9@^+: |.= = ' ] ; = # ; # # = = < 3 ) $ _ ( & & 9 e.3 & w 9 & & ( _ : |.= = ' ] ; = # ; # # = = < 3 ) $ _ ( & & 9 e.3 & w 9 ",
"0@a@& % ) ' = $ & < ^ < ) ] = h.8 ^ ) & & & & % 3 & * = h.3 & & & & & e.) ' = $ & < ^ < ) ] = h.8 ^ ) & & & & % 3 & * = h.3 & & ",
"d w & & & a J 0 a w ( & & % 8 % & 3 3 & & & * = ] ' = ; = 8 3 & & w a ,.a 9 j.0 a w ( & & % 8 % & 3 3 & & & * = ] ' = ; = 8 3 & ",
"d & & & b@M p *.k.l.8 : $ ] = ] ) ) $ ) % * = ; ; ; ; ; ; = ] $ m.n.q p q q q *.k.l.8 : $ ] = ] ) ) $ ) % * = ; ; ; ; ; ; = ] $ ",
"c@d d@d e@f@q.r.' ] 2.# ; ; ; ; # # ; ; s.t.; = = = ; u.; ; ] : < v.w.q p q q.r.' ] 2.# ; ; ; ; # # ; ; s.t.; = = = ; u.; ; ] $ ",
" @7+g@h@i@u 3 % 3 A.- 9.; ; ; ; ; B.C.D.E.E.F.G.6 H.I.J.K.L.8 9 u M q p p u 3 % 3 A.- 9.; ; ; ; ; B.C.D.E.E.F.G.6 H.I.J.K.L.8 w ",
"7+j@k@v+l@m@% & & < $ = = ; ; ; B.P.@.Q.h R.R.h h S.#.H F T.U.V.L u Q p q v.9 & & < $ = = ; ; ; B.P.@.Q.h R.R.h h S.#.H F T.U.4.",
"g@k@; n@o@p@2.8 3 & & % 8 <.:.`. +F H p p .+G p p Y p p D ~.-.++9 & 9 u q Y.Z.a & & & % 8 <.:.`. +F H p p .+G p p Y p p D ~.-.++",
"h@j@q@r@% ) $ A./ & & & w $+J %+!.~.p q q D p q q p q q p p q Y.M a & 9 a 0 9 }.w & & & w $+J %+!.~.p q q D p q q p q q p p q Y.",
"s@t@u@v@u 9 9 9 9 w & & w K & a u Q q ^.9 Q Q a a o a ^.q p p p p L a ,.u 9 9 9 9 w & & w K & a u Q q ^.9 Q Q a a o a ^.q p p p ",
"^@w@x@v@Q a.!+!+!+}.& & & & & & & 9 a.w & ~+9 & & w & 9 ,.q Q L M M M q Q a.!+!+!+}.& & & & & & & 9 a.w & ~+9 & & w & 9 ,.q Q u ",
"y@z@-+A@n $ = = = * : : % & 9 0 a & & & & w % 3 & & & & 9 9 w & 9 9 9 9 n $ = = = * : : % & 9 0 a & & & & w % 3 & & & & 9 9 w & ",
"! B@C@D@= # = = ; # ; ; l.!+M p q L !+/+) * } h.% & & 3 % & & & & & 3 * = # = = ; # ; ; l.!+M p q L !+/+) * } h.% & & 3 % & & & ",
"~@| E@F@] ) % < ] = ' ] <._+:+<+[+:+r.- }+^ 8 h.^ ( % h.= * < A.% / ^ = = * % < ] = ' ] <._+:+<+[+:+r.- }+^ 8 h.^ ( % h.= * < : ",
"G@M.{+H@I@e & & ) ) & n 4+4+8 9 5+8 6+: 8 < ) ' * & $ ; = = = ; b A.< % % & & & ) ) & n 4+4+8 9 5+8 6+: 8 < ) ' * & $ ; = = = ; ",
"5.J@@+@+(@x o.K@5 8 a c+d+J.O e+A I.f+; g+= # ; = - = ] < ) $ : < % & 8 5 6 7 7 5 8 a c+d+J.O e+A I.f+; g+= # ; = - = ] < ) $ $ ",
"].@+4@[@O.L@M@N@O@c+q p D #.R.T.#.#.p+q+:.g+] ] ' = # * % % 3 & & 8 7 r+h h s+t+n+o+q p D #.R.T.#.#.p+q+:.g+] ] ' = # * % % 3 & ",
"].i@Q L q *.q p p p p =.A+*.G .+Q Q Y p =.B+C+3 & ' ; = D+E+F+G+H+I+J+H p *.z+D D D p =.A+*.G .+Q Q Y p =.B+C+3 & ' ; = D+E+F+K+",
"5.P@b@& Q@_+O+=.=., _.:.; O+k.P+t 9 0 u Q ,.K & ( Q+R+S+T+%+%+%+J v L ,.:+_+O+=.=., _.:.; O+k.P+t 9 0 u Q ,.K & ( Q+R+S+T+%+%+%+",
"~@! w@2 3 < : : <.= ; ; ; ; ; = ] : < ) W+X+Y+& & % 9 9 9 9 9 9 9 w & 9 % < : : <.= ; ; ; ; ; = ] : < ) W+X+Y+& & % 9 9 9 9 9 v.",
"'@7@/@R@8.3 % 8 ' Z+# ] ' = ; ; ; = }+2.O+_.`+& & & & & & 9 9 o q o 9 w & 3 % 8 ' Z+# ] ' = ; ; ; = }+2.O+_.`+& & & & & & 9 9 o ",
"c S@O.T@9 / A.A.$ $ : % & $ = ] : [.!+@@<+p #@w & & & & w a.,.$@L Q q o 9 / A.A.$ $ : % & $ = ] : [.!+@@<+p #@w & & & & w a.,.q ",
"].U@0 0 }.& & & & & & & & 3 % 3 a M p q V@A+<+L v w & & & & 9 K & 9 0 0 }.& & & & & & & & 3 % 3 a M p q V@A+<+L v w & & & & 9 Z "};
