/* XPM */
static char * Floor9_xpm[] = {
"64 64 335 2",
"  	c #79A863",
". 	c #78A764",
"+ 	c #719D6C",
"@ 	c #7BA962",
"# 	c #83AD5E",
"$ 	c #8CB159",
"% 	c #9AB94F",
"& 	c #9DB94F",
"* 	c #A7B952",
"= 	c #BEBA5B",
"- 	c #BFBA5B",
"; 	c #A9B65A",
"> 	c #91AE60",
", 	c #8BB05A",
"' 	c #7AA863",
") 	c #74A268",
"! 	c #709D6D",
"~ 	c #679175",
"{ 	c #769C6D",
"] 	c #83A665",
"^ 	c #84A764",
"/ 	c #96B653",
"( 	c #7A9E6C",
"_ 	c #6D9473",
": 	c #6C9870",
"< 	c #76A368",
"[ 	c #99B850",
"} 	c #AEBA55",
"| 	c #BDBA5A",
"1 	c #9AB84F",
"2 	c #8DB158",
"3 	c #8AB05A",
"4 	c #82AC5F",
"5 	c #689275",
"6 	c #6F9474",
"7 	c #9AA769",
"8 	c #9AA669",
"9 	c #6C9374",
"0 	c #749772",
"a 	c #ABAF63",
"b 	c #BBB85D",
"c 	c #889E6E",
"d 	c #6E9473",
"e 	c #9CB05D",
"f 	c #B4BA57",
"g 	c #AFBA55",
"h 	c #B6BA58",
"i 	c #9EB94F",
"j 	c #9BB94E",
"k 	c #99B84F",
"l 	c #8BB159",
"m 	c #689274",
"n 	c #75A368",
"o 	c #9DA868",
"p 	c #ACAF63",
"q 	c #BDB95C",
"r 	c #BEB95C",
"s 	c #BCB95C",
"t 	c #BCB95B",
"u 	c #9FB94F",
"v 	c #B7BA58",
"w 	c #BBBA5A",
"x 	c #A6B952",
"y 	c #7DA962",
"z 	c #7DA963",
"A 	c #79A467",
"B 	c #6F9870",
"C 	c #AEB955",
"D 	c #A4B951",
"E 	c #9CB94E",
"F 	c #B3B958",
"G 	c #ADB956",
"H 	c #BBB95B",
"I 	c #AEB162",
"J 	c #ADB063",
"K 	c #B6BA57",
"L 	c #BCBA5A",
"M 	c #A5B951",
"N 	c #ADB954",
"O 	c #ACB954",
"P 	c #ACB955",
"Q 	c #9AB850",
"R 	c #92B455",
"S 	c #8DB159",
"T 	c #93B554",
"U 	c #7DAA61",
"V 	c #84AD5D",
"W 	c #96B15C",
"X 	c #A2B25E",
"Y 	c #92AE60",
"Z 	c #7CA961",
"` 	c #85AE5D",
" .	c #9AB94E",
"..	c #94B553",
"+.	c #80AA62",
"@.	c #BDBA5B",
"#.	c #B1B65C",
"$.	c #98B750",
"%.	c #85AD5D",
"&.	c #98B751",
"*.	c #9AB751",
"=.	c #7BA863",
"-.	c #83AC5E",
";.	c #85A763",
">.	c #8FAF5B",
",.	c #A6B15F",
"'.	c #889F6D",
").	c #799E6B",
"!.	c #8DAE5C",
"~.	c #6E9573",
"{.	c #769B6F",
"].	c #9EB060",
"^.	c #7EA06B",
"/.	c #709573",
"(.	c #879E6E",
"_.	c #869E6F",
":.	c #94A865",
"<.	c #B0B55D",
"[.	c #9FB557",
"}.	c #9BB94F",
"|.	c #7EAA62",
"1.	c #7FAA62",
"2.	c #87AE5E",
"3.	c #90B259",
"4.	c #9BB05D",
"5.	c #89A06D",
"6.	c #9EA968",
"7.	c #BDB95B",
"8.	c #BBB85C",
"9.	c #A2B25F",
"0.	c #86AE5D",
"a.	c #9EB15F",
"b.	c #A1B25E",
"c.	c #BAB95B",
"d.	c #ADB955",
"e.	c #90AD61",
"f.	c #A1B15F",
"g.	c #A0B15F",
"h.	c #A1B25F",
"i.	c #ABB857",
"j.	c #9CB94F",
"k.	c #8CB15A",
"l.	c #8DB15A",
"m.	c #94B554",
"n.	c #7CA962",
"o.	c #8FB159",
"p.	c #89B05B",
"q.	c #9CB850",
"r.	c #9EB850",
"s.	c #B5B958",
"t.	c #BEBA5A",
"u.	c #AFB55D",
"v.	c #A4B952",
"w.	c #A3B952",
"x.	c #9FB15F",
"y.	c #8EAD60",
"z.	c #7CAA61",
"A.	c #8DB258",
"B.	c #99B751",
"C.	c #9BB84F",
"D.	c #A7B55B",
"E.	c #87AE5D",
"F.	c #8EAF5B",
"G.	c #709672",
"H.	c #869D6F",
"I.	c #6C9473",
"J.	c #82A565",
"K.	c #6F9573",
"L.	c #7FA06A",
"M.	c #7FA06B",
"N.	c #A7B15F",
"O.	c #B5BA58",
"P.	c #6B9473",
"Q.	c #6B9374",
"R.	c #98A66A",
"S.	c #A8B25E",
"T.	c #A5B952",
"U.	c #90AF5B",
"V.	c #6F9672",
"W.	c #799D6C",
"X.	c #BAB75D",
"Y.	c #8CA06D",
"Z.	c #92AD61",
"`.	c #92AE61",
" +	c #9DB15C",
".+	c #7E9F6B",
"++	c #8CB05A",
"@+	c #7EA962",
"#+	c #ACB956",
"$+	c #B5BA57",
"%+	c #95B555",
"&+	c #98B15C",
"*+	c #84AD5E",
"=+	c #9BB850",
"-+	c #A5B953",
";+	c #8EB258",
">+	c #B4B957",
",+	c #739E6B",
"'+	c #729E6C",
")+	c #A8B953",
"!+	c #B3B657",
"~+	c #BDB85A",
"{+	c #98B74F",
"]+	c #ABB854",
"^+	c #BAB759",
"/+	c #9CA24E",
"(+	c #88A34A",
"_+	c #80A04F",
":+	c #91B253",
"<+	c #77A562",
"[+	c #779B55",
"}+	c #BCB75A",
"|+	c #97A54C",
"1+	c #99B74E",
"2+	c #91B354",
"3+	c #506A44",
"4+	c #6C6C3E",
"5+	c #96B24D",
"6+	c #61844F",
"7+	c #78A762",
"8+	c #5D8251",
"9+	c #81AB5E",
"0+	c #93B454",
"a+	c #8AAF59",
"b+	c #89A549",
"c+	c #90B153",
"d+	c #6E8A49",
"e+	c #85A047",
"f+	c #8CA549",
"g+	c #5F6F3B",
"h+	c #859F46",
"i+	c #9AB74D",
"j+	c #8AA548",
"k+	c #87A147",
"l+	c #344234",
"m+	c #81A95B",
"n+	c #699358",
"o+	c #496543",
"p+	c #6A9358",
"q+	c #76A361",
"r+	c #466243",
"s+	c #748B41",
"t+	c #8BA548",
"u+	c #8E8C49",
"v+	c #98B64D",
"w+	c #62844F",
"x+	c #445F41",
"y+	c #2B3731",
"z+	c #6A9257",
"A+	c #597C4E",
"B+	c #577A4D",
"C+	c #699157",
"D+	c #5F8350",
"E+	c #586B3A",
"F+	c #95B24C",
"G+	c #576939",
"H+	c #728940",
"I+	c #97B44C",
"J+	c #333F31",
"K+	c #708640",
"L+	c #20282F",
"M+	c #5A6C39",
"N+	c #748D43",
"O+	c #79A761",
"P+	c #79A762",
"Q+	c #87A44A",
"R+	c #56784C",
"S+	c #1E2E36",
"T+	c #243A3D",
"U+	c #273130",
"V+	c #728941",
"W+	c #5A6E3E",
"X+	c #B8B559",
"Y+	c #A4A051",
"Z+	c #3A4032",
"`+	c #89A348",
" @	c #4B6643",
".@	c #212E31",
"+@	c #88AC57",
"@@	c #859F47",
"#@	c #263536",
"$@	c #445F42",
"%@	c #689158",
"&@	c #293934",
"*@	c #7FA75B",
"=@	c #2A6164",
"-@	c #293D3C",
";@	c #1C363F",
">@	c #33625F",
",@	c #23363B",
"'@	c #346562",
")@	c #283130",
"!@	c #295D61",
"~@	c #5A6E3F",
"{@	c #2A3D3B",
"]@	c #6E8440",
"^@	c #566839",
"/@	c #253031",
"(@	c #689057",
"_@	c #849F47",
":@	c #243031",
"<@	c #357E7F",
"[@	c #45A6A5",
"}@	c #2B6466",
"|@	c #2B4240",
"1@	c #3C908F",
"2@	c #243C40",
"3@	c #295E61",
"4@	c #2F3231",
"5@	c #252930",
"6@	c #223035",
"7@	c #223135",
"8@	c #243B3D",
"9@	c #1A2F3A",
"0@	c #556839",
"a@	c #3D9191",
"b@	c #254041",
"c@	c #2C6162",
"d@	c #46A9A8",
"e@	c #46A8A6",
"f@	c #3E9594",
"g@	c #3D9393",
"h@	c #368081",
"i@	c #576B3E",
"j@	c #3E9392",
"k@	c #171D2E",
"l@	c #337A7B",
"m@	c #2B5D5F",
"n@	c #192735",
"o@	c #2A6064",
"p@	c #47ABA9",
"q@	c #285A5E",
"r@	c #293736",
"s@	c #3D9392",
"t@	c #46A9A7",
"    . + +   @ @ @   .     # $ % & * = - = ; > , # @ '               . + +   @ @ @   .     # $ % & * = - = ; > , # @ '           ",
") + ! ~ ~ { ] ^ / ( _ : < [ & } | = - - } % 1 % 2 3 4           ) + ! ~ ~ { ] ^ / ( _ : < [ & } | = - - } % 1 % 2 3 4           ",
"5 6 7 8 9 9 8 8 0 a b c d e f g } h - = i & j j k l @ @       ) m 6 7 8 9 9 8 8 0 a b c d e f g } h - = i & j j k l @ @       n ",
"c b - - o p - - q - - r s t u & j & } = v w x j j j 1 [ y z A B c b - - o p - - q - - r s t u & j & } = v w x j j j 1 [ y z A B ",
"r - = = r - = = - = = - - = v | x j & x C & D E j j j E F G H I s - = = r - = = - = = - - = v | x j & x C & D E j j j E F G H J ",
"h = * & h h x x K x * = - - - - g x L } & & & & E j j E M j x } h = * & h h x x K x * = - - - - g x L } & & & & E j j E M j x } ",
"& N E j O & j j E j & L = h g | | | = h N P P P D j j j j j j j & N E j O & j j E j & L = h g | | | = h N P P P D j j j j j j j ",
"j j j j E 1 % j j j j & & E j & & & & Q l @ @ @ R $ $ 1 j & C x j j j j E 1 % j j j j & & E j & & & & Q l @ @ @ R $ $ 1 j & C x ",
"} P S T R U V 1 j j % 1 j j j j j % R @ ' @ @   '     W P | - = g P S T R U V 1 j j % 1 j j j j j % R @ ' @ @   '     W P | - = ",
"X Y 3 Z ` [ V `  .1 V @ R k 2 1 ..` @ @ R 1 k # @ , # y +.X @.#.X Y 3 Z ` [ V `  .1 V @ R k 2 1 ..` @ @ R 1 k # @ , # y +.X @.#.",
"[ $.$ [ k T , R j l   @ @ @   %.2 k 1 1 j j j T T j Q &.&.[ & *.[ $.$ [ k T , R j l   @ @ @   %.2 k 1 1 j j j T T j Q &.&.[ & *.",
"( =.  -.@ '   @ 3 @ # k T l $ k 1 j [ ;.^ >.>.;.[ x ,.'._ ).!.~.( =.  -.@ '   @ 3 @ # k T l $ k 1 j [ ;.^ >.>.;.[ x ,.'._ ).!.~.",
"a {.].z -.# # , @ ' R 1 1 % j j [ >.^.8 8 /.(._.:.= - r a 9 d a a {.].z -.# # , @ ' R 1 1 % j j [ >.^.8 8 /.(._.:.= - r a 9 d a ",
"h q - <.[.}.% j ,   @ |.1.2.3.4.5.6.b - 7.8.r r r - <.9.7.p o h h q - <.[.}.% j ,   @ |.1.2.3.4.5.6.b - 7.8.r r r - <.9.7.p o h ",
"& C } h L M j  .0.a.b.c.H H H G d.g L X +.e.<.<.f.g.z   e.h.i.j.& C } h L M j  .0.a.b.c.H H H G d.g L X +.e.<.<.f.g.z   e.h.i.j.",
"$ k T k.l.m.j j 1 & & & & & & & E j & 1 k $ $ y @           @ # $ k T k.l.m.j j 1 & & & & & & & E j & 1 k $ $ y @           @ # ",
"@ Z n.e.g.o.j j j j j j & & K = K & E j % 1 [ , p.' # , @       @ Z n.e.g.o.j j j j j j & & K = K & E j % 1 [ , p.' # , @       ",
"q.P r.@.- s.E j j j j E N L t.g h = K & ..2 2 l l $ 1 j l @ # $ q.P r.@.- s.E j j j j E N L t.g h = K & ..2 2 l l $ 1 j l @ # l ",
"H 7.H u.9.t g C & & }.1 j & M j & C C D j j j j j j j j % 1 % v.H 7.H u.9.t g C & & }.1 j & M j & C C D j j j j j j j j % 1 % w.",
"1.l.|.=.  e.f.f.x.x.y.@ , l T 1 1 1 1 j j j j j j j j j j 1 R y 1.l.|.=.  e.f.f.x.x.y.@ , l T 1 1 1 1 j j j j j j j j j j 1 R y ",
"1 j T , @   @ @             @ z.U $ A. .j j j j j j j j  .A.$ $ k j T , @   @ @             @ z.U $ A. .j j j j j j j j  .A.$ l ",
"j & C x , # k k %., # # l $ k 1 1 j j j j j j B.;.^ >.j >.^ ;.[ j & C x , # k k %., # # l $ k 1 1 j j j j j j B.;.^ >.j >.^ ;.[ ",
"C.K - = D.E. .j  .j j.j.x } d.E j 1 [ [ j [ F.G.8 H.I.J.K.8 8 L.Q K - = D.E. .j  .j j.j.x } d.E j 1 [ [ j [ F.G.8 H.I.J.K.8 8 M.",
"N.= - - - G E j M g | = = = O.Q [ ).K.P.J.~.Q.R.- r J c p - - b S.= - - - G E j M g | = = = O.Q [ ).K.P.J.~.Q.R.- r J c p - - s ",
"- - = = - = } & T.} } } } x U.V.W.H.X.c 6 a J Y.q - - r - - = = - - = = - = } & T.} } } } x U.V.W.H.X.c 6 a J Y.q - - r - - = = ",
"h t Z.`.= - = L M j j E x  +.+a J I = r s = = 7.- <.f.<.= h & & O.t Z.`.= - = L M j j E x  +.+a J I = r s = = 7.- <.f.<.= h & & ",
"++@+  n.#+} C & E j x $+| r s - | x & h = * %+&+g.z   y q.D j T ++@+  n.#+} C & E j x $+| r s - | x & h = * %+&+g.z   y q.D j T ",
"  # # ' *+k j j E N L x & K | } & j j M $+Q @         4 l T R @   # # ' *+k j j E N L x & K | } & j j M $+Q @         4 l T R @ ",
"@ k % T l A. .j j & =+% j E & j j  .A.$ ++@ @ , #   @ '   ' ' @ @ k % T l A. .j j & =+% j E & j j  .A.$ ++@ @ , #   @ '   ' ' @ ",
"V T j j j j 1 % j R @ V % j j j j j =+T , @ l j k ` k T # @ V [ ` T j j j j 1 % j R @ V % j j j j j =+T , @ l j k ` k T # @ V k ",
"% % j j j R @ # , @   @ [ % j j E x L x & -+C x E  .j j 1 [ 1 j % % j j j R @ # , @   @ [ % j j E x L x & -+C x E  .j j 1 [ 1 j ",
"T l T 1 R @             @ # l ;+>+= - = = = 7.h.W [ $ l # @ # T T l T 1 R @             @ # l ;+>+= - = = = 7.h.W [ $ l # @ # T ",
"'     ,+'+  @ @ @   .     # $ k i )+= - = ; Y , # n.'         ' '     ,+'+  @ @ @   .     # $ k i )+= - = ; Y , # n.'         ' ",
") + ! ~ ~ { ] ^ / ( _ : < [ & } | = - - } % 1 % 2 3 4           ) + ! ~ ~ { ] ^ / ( _ : < [ & } | = - - } % 1 % 2 3 4           ",
"5 6 7 8 9 9 8 8 0 a b c d e f g } h - = i & j j k l @ @       ) m 6 7 8 9 9 8 8 0 a b c d e f g } h - = i & j j k l @ @       n ",
"c b - - o p - - q - - r s t u & j & } = v w x j j j 1 [ y z A B c b - - o p - - q - - r s t u & j & } = v w x j j j 1 [ y z A B ",
"r - = = r - = = - = = - - = v | x j & x C & D E j j j E F G H I s - = = r - = = - = = - - = v | x j & x C & D E j j j E F G H J ",
"h = * & h h x x K x * = - - - - g x L } & & & & E j j E M j x } h = * & h h x x K x * = - - - - g x L } & & & & E j j E M j x } ",
"& N E j O & j j E j & L = h g | | | = h N P P P D j j j j j j j & N E j O & j j E j & L = h g | | | = h N P P P D j j j j j j j ",
"j j j j E 1 % j j j j & & E j & & & & Q l @ @ @ R $ $ 1 j & C x j j j j E 1 % j j j j & & E j & & & & Q l @ @ @ R $ $ 1 j & C x ",
"} P S T R U V 1 j j % 1 j j j j j % R @ ' @ @   '     W P | - = g P S T R U V 1 j j % 1 j j j j j % R @ ' @ @   '     W P | - = ",
"X Y 3 Z ` [ V `  .1 V @ R k 2 1 ..` @ @ R 1 k # @ , # y +.X @.#.X Y 3 Z ` [ V `  .1 V @ R k 2 1 ..` @ @ R 1 k # @ , # y +.X @.#.",
"[ $.$ [ k T , R j l   @ @ @   %.2 k 1 1 j j j T T j Q &.&.[ & *.[ $.$ [ k T , R j l   @ @ @   %.2 k 1 1 j j j T T j Q &.&.[ & *.",
"( =.  -.@ '   @ 3 @ # k T l $ k 1 j [ ;.^ >.>.;.[ x ,.'._ ).!.~.( =.  -.@ '   @ 3 @ # k T l $ k 1 j [ ;.^ >.>.;.[ x ,.'._ ).!.~.",
"a {.].z -.# # , @ ' R 1 1 % j j [ >.^.8 8 /.(._.:.= - r a 9 d a a {.].z -.# # , @ ' R 1 1 % j j [ >.^.8 8 /.(._.:.= - r a 9 d a ",
"h q - <.[.}.% j ,   @ |.1.2.3.4.5.6.b - 7.8.r r r - <.9.7.p o h h q - <.[.}.% j ,   @ |.1.2.3.4.5.6.b - 7.8.r r r - <.9.7.p o h ",
"& C } h L M j  .0.a.b.c.H H H G d.g L X +.e.<.<.f.g.z   e.h.i.j.& C } h L M j  .0.a.b.c.H H H G d.g L X +.e.<.<.f.g.z   e.h.i.j.",
"$ k T k.l.m.j j 1 & & & & & & & E j & 1 k $ $ y @           @ # $ k T k.l.m.j j 1 & & & & & & & E j & 1 k $ $ y @           @ # ",
"@ Z n.e.g.o.j j j j j j & & K = K & E j % 1 [ , p.' # , @       @ Z n.e.g.o.j j j j j j & & K = K & E j % 1 [ , p.' # , @       ",
"q.P r.@.- s.E j j j j E N L t.g h = K & ..2 2 l l $ 1 j l @ # $ q.P r.@.- s.E j j j j E N L t.g h = K & ..2 2 l l $ 1 j l @ # l ",
"H 7.H u.9.t g C & & }.1 j & M j & C C D j j j j j j j j % 1 % v.H 7.H u.9.t g C & & }.1 j & M j & C C D j j j j j j j j % 1 % w.",
"1.l.|.=.  e.f.f.x.x.y.@ , l T 1 1 1 1 j j j j j j j j j j 1 R y 1.l.|.=.  e.f.f.x.x.y.@ , l T 1 1 1 1 j j j j j j j j j j 1 R y ",
"1 j T , @   @ @             @ z.U $ A. .j j j j j j j j  .A.$ $ k j T , @   @ @             @ z.U $ A. .j j j j j j j j  .A.$ l ",
"j & C x , # k k %., # # l $ k 1 1 j j j j j j B.;.^ >.j >.^ ;.[ j & C x , # k k %., # # l $ k 1 1 j j j j j j B.;.^ >.j >.^ ;.[ ",
"C.K - = D.E. .j  .j j.j.x } d.E j 1 [ [ j [ F.G.8 H.I.J.K.8 8 L.Q K - = D.E. .j  .j j.j.x } d.E j 1 [ [ j [ F.G.8 H.I.J.K.8 8 M.",
"N.= - - - G E j M g | = = = O.Q [ ).K.P.J.~.Q.R.- r J c p - - b S.= - - - G E j M g | = = = O.Q [ ).K.P.J.~.Q.R.- r J c p - - s ",
"- - = = - = } & T.} } } } x U.V.W.H.X.c 6 a J Y.q - - r - - = = - - = = - = } & T.} } } } x U.V.W.H.X.c 6 a J Y.q - - r - - = = ",
"h t Z.`.= - = L M j j E x  +.+a J I = r s = = 7.- <.f.<.= h & & O.t Z.`.= - = L M j j E x  +.+a J I = r s = = 7.- <.f.<.= h & & ",
"++@+  n.#+} C & E j x $+| r s - | x & h = * %+&+g.z   y q.D j T ++@+  n.#+} C & & x } $+| r s - | x & !+~+* %+&+g.z   y q.D j T ",
"' # # ' *+{+j j E ]+^+x & K | } & j j M /+(+@         4 _+:+R @ <+[+# ' *+k j j D h }+|+& K | } & 1+2+3+4+5+6+7+  <+8+9+l 0+2+@ ",
"a+% b+c+l d+e+j j f+g+h+i+E & j i+j+j k+l+m+l l 4   @ ' n+o+p+q+r+s+% 2+a+A.1+t+& h u+k+j E & j v+w+' <+x+y+z+, # A+B+    C+D+@ ",
"E+F+G+H+j I+J+h+j j K+L+M+i+j j I+s+j K+K+ .i+N+O+P+Q+T # R+S+T+U+F+j V+W+I+h+4+X+Y+Z+v+j `+i+j v+ @q+q+x+.@+@j @@#@$@q+%@&@*@k ",
"=@-@;@>@h+h+,@'@K+K+)@!@,@h+j v+~@{@]@)@^@I+h+/@(@(@E+I+_@:@<@[@}@^@K+|@1@|@2@3@4@5@6@h+h+J+I+j h+7@8@8@3@9@0@K+{@a@<@b@c@9@E+I+",
"d@e@e@f@6@6@g@e@h@<@h@e@f@'@K+i@j@[@h@!@k@)@6@l@S+m@n@)@L+o@e@p@e@h@<@f@p@e@e@e@h@h@a@6@L+q@i@K+r@s@e@e@t@f@<@<@f@p@p@e@t@g@n@)@"};
