/* XPM */
static char * obj1_xpm[] = {
"64 64 129 2",
"  	c None",
". 	c #161C2E",
"+ 	c #1E202F",
"@ 	c #242330",
"# 	c #202130",
"$ 	c #292531",
"% 	c #614943",
"& 	c #78594B",
"* 	c #9C7253",
"= 	c #8B664A",
"- 	c #23222F",
"; 	c #171C2E",
"> 	c #242230",
", 	c #4B3A3B",
"' 	c #76574B",
") 	c #876452",
"! 	c #9F7454",
"~ 	c #AF8055",
"{ 	c #936B4D",
"] 	c #413333",
"^ 	c #25232F",
"/ 	c #171D2E",
"( 	c #4C3A3B",
"_ 	c #664C44",
": 	c #866351",
"< 	c #9D7353",
"[ 	c #A97B54",
"} 	c #B28155",
"| 	c #A17654",
"1 	c #8C6753",
"2 	c #946D53",
"3 	c #B08054",
"4 	c #9B714C",
"5 	c #24222F",
"6 	c #634A43",
"7 	c #AB7E56",
"8 	c #B18154",
"9 	c #B38255",
"0 	c #B28255",
"a 	c #AF7F54",
"b 	c #2E2830",
"c 	c #A07655",
"d 	c #BD915D",
"e 	c #C59C62",
"f 	c #BA9A61",
"g 	c #6E523F",
"h 	c #A97C55",
"i 	c #B68556",
"j 	c #886346",
"k 	c #946C4D",
"l 	c #946D54",
"m 	c #77584B",
"n 	c #1F202F",
"o 	c #49383A",
"p 	c #75574B",
"q 	c #9E7454",
"r 	c #B58B5C",
"s 	c #B59161",
"t 	c #826249",
"u 	c #886446",
"v 	c #9D724D",
"w 	c #B48355",
"x 	c #BB905C",
"y 	c #BD9C63",
"z 	c #7B6548",
"A 	c #73564B",
"B 	c #836152",
"C 	c #826051",
"D 	c #191E2E",
"E 	c #7A6647",
"F 	c #A18657",
"G 	c #9D8255",
"H 	c #58443D",
"I 	c #9E7453",
"J 	c #B38355",
"K 	c #A77A54",
"L 	c #6F5447",
"M 	c #866453",
"N 	c #805F50",
"O 	c #644B44",
"P 	c #674E3D",
"Q 	c #CDA768",
"R 	c #CAA165",
"S 	c #C99F64",
"T 	c #B5925D",
"U 	c #B48456",
"V 	c #B78757",
"W 	c #C79D63",
"X 	c #D5B06E",
"Y 	c #CEA768",
"Z 	c #B58456",
"` 	c #886553",
" .	c #856252",
"..	c #74564B",
"+.	c #94764F",
"@.	c #D1A969",
"#.	c #D7B16E",
"$.	c #BF9963",
"%.	c #C8A469",
"&.	c #B6935D",
"*.	c #9E8255",
"=.	c #8D7250",
"-.	c #A27855",
";.	c #B28256",
">.	c #896553",
",.	c #866352",
"'.	c #9E8356",
").	c #B68656",
"!.	c #9F7555",
"~.	c #B79463",
"{.	c #A28657",
"].	c #846151",
"^.	c #9D7354",
"/.	c #886453",
"(.	c #624A43",
"_.	c #1E1F2F",
":.	c #403835",
"<.	c #D3AF6C",
"[.	c #C89E64",
"}.	c #A67C57",
"|.	c #CEA769",
"1.	c #A88355",
"2.	c #654C44",
"3.	c #BE9E63",
"4.	c #D5B06D",
"5.	c #B4925D",
"6.	c #654B3C",
"7.	c #2A2831",
"8.	c #373133",
"                                                                                                                                ",
"                                                                                                                                ",
"                                                                                                                                ",
"                                                                                                                                ",
"                                                                                                                                ",
"                                                                                                                                ",
"                                                                                                                                ",
"                                                                                                                                ",
"                                                                                                                                ",
"                                                                                                                                ",
"                                                                                                                                ",
"                                                                                                                                ",
"                                                                                                                                ",
"                                                                                                                                ",
"                                                                                                                                ",
"                                                                                                                                ",
"                                                                                                                                ",
"                                                                                                                                ",
"                                                                                                                                ",
"                                                                                                                                ",
"                                                                                                                                ",
"                                                                                                                                ",
"                                                                                                                                ",
"                                                                                                                                ",
"                                                                                                                                ",
"                                                                                                                                ",
"                                                                                                                                ",
"                                                                                                                                ",
"                                                                                                                                ",
"                                                                                                                                ",
"                                                                                                                                ",
"                                                                                                                                ",
"                                                                                                                                ",
"                                                                                                                                ",
"                                                                                                                                ",
"                                                                                                                                ",
"                                                                            . + @ #                                             ",
"                                                                        # $ % & * = -                                           ",
"                                                                  ; > , ' ) ! ~ { ] ^ .                                         ",
"                                                            / @ ( _ : < [ } | 1 2 3 4 5                                         ",
"                                                      . + $ 6 : < 7 8 [ | 9 0 0 9 9 a b                                         ",
"                                                  # $ % ' ) c d e f g < h i 0 j k l m n                                         ",
"                                            . . o p ) q [ 0 r s t u v w x y z A B C , .                                         ",
"                                        D E F G H I } w i i J 0 9 9 0 K L M N O , > ;                                           ",
"                                        P Q R S T U V W X Y Z 0 [ l `  ...% $ ; .                                               ",
"                                      . +.@.#.$.%.&.*.=.-.;.! >.,...% $ n .                                                     ",
"                                        '.S ).!.~.{.% ].^./.p (.( _..                                                           ",
"                                        :.<.[.}.|.1.2.C O ( _.. .                                                               ",
"                                        D E 3.4.5.6.n > ; .                                                                     ",
"                                          . 7.8.7.. .                                                                           ",
"                                                                                                                                ",
"                                                                                                                                ",
"                                                                                                                                ",
"                                                                                                                                ",
"                                                                                                                                ",
"                                                                                                                                ",
"                                                                                                                                ",
"                                                                                                                                ",
"                                                                                                                                ",
"                                                                                                                                ",
"                                                                                                                                ",
"                                                                                                                                ",
"                                                                                                                                ",
"                                                                                                                                "};
