/* XPM */
static char * Wall4_xpm[] = {
"64 64 598 2",
"  	c #9BB94E",
". 	c #99B74F",
"+ 	c #98B64D",
"@ 	c #8BA754",
"# 	c #7D985D",
"$ 	c #7E9A5C",
"% 	c #98B550",
"& 	c #698463",
"* 	c #526D6C",
"= 	c #729D9D",
"- 	c #739F9F",
"; 	c #496162",
"> 	c #3B4F52",
", 	c #3E5356",
"' 	c #425A5D",
") 	c #668E91",
"! 	c #7AAAAC",
"~ 	c #699395",
"{ 	c #5E8182",
"] 	c #536D69",
"^ 	c #7B975D",
"/ 	c #8CA856",
"( 	c #8CA857",
"_ 	c #9AB84F",
": 	c #8AA757",
"< 	c #577168",
"[ 	c #4B615B",
"} 	c #334241",
"| 	c #689191",
"1 	c #739E9F",
"2 	c #5A7671",
"3 	c #58746E",
"4 	c #57726B",
"5 	c #556F68",
"6 	c #506A69",
"7 	c #536F6F",
"8 	c #54706F",
"9 	c #516D6C",
"0 	c #5B8685",
"a 	c #567979",
"b 	c #516B6A",
"c 	c #75A5A6",
"d 	c #8AC0C1",
"e 	c #8CC3C4",
"f 	c #608C8B",
"g 	c #526E6D",
"h 	c #546F6B",
"i 	c #57736C",
"j 	c #557069",
"k 	c #56726B",
"l 	c #597D7A",
"m 	c #5C8786",
"n 	c #577B7A",
"o 	c #6B8663",
"p 	c #8BA757",
"q 	c #536C66",
"r 	c #405352",
"s 	c #3A4E51",
"t 	c #222F3A",
"u 	c #78A8AA",
"v 	c #7FB1B1",
"w 	c #74A0A1",
"x 	c #89BFC0",
"y 	c #89BEBF",
"z 	c #5E8988",
"A 	c #619190",
"B 	c #6A9F9E",
"C 	c #619291",
"D 	c #526F6E",
"E 	c #679D9D",
"F 	c #80B4B3",
"G 	c #A0CAC0",
"H 	c #8EC4C4",
"I 	c #8AC1C2",
"J 	c #7BB1B2",
"K 	c #689E9E",
"L 	c #88BEBF",
"M 	c #89C0C1",
"N 	c #78AEAE",
"O 	c #587C7B",
"P 	c #7AB0B0",
"Q 	c #689F9F",
"R 	c #597E7E",
"S 	c #56716B",
"T 	c #506B6A",
"U 	c #587A7C",
"V 	c #4E6E72",
"W 	c #25333E",
"X 	c #26343F",
"Y 	c #8BC2C3",
"Z 	c #72A8A8",
"` 	c #587E7D",
" .	c #8DB0A2",
"..	c #ADCDBA",
"+.	c #69A0A0",
"@.	c #5C8887",
"#.	c #6C9F9C",
"$.	c #CADAB3",
"%.	c #CDDCB6",
"&.	c #93C5C3",
"*.	c #90C4C3",
"=.	c #72A8A9",
"-.	c #669B9B",
";.	c #547271",
">.	c #73AAAA",
",.	c #536F6B",
"'.	c #55706A",
").	c #88A348",
"!.	c #728942",
"~.	c #789151",
"{.	c #6E9E9E",
"].	c #8BC1C2",
"^.	c #87BDBE",
"/.	c #446569",
"(.	c #669C9C",
"_.	c #A4C0A9",
":.	c #B0D0BC",
"<.	c #7AB1B1",
"[.	c #619393",
"}.	c #6C9E9C",
"|.	c #CBDBB4",
"1.	c #D0DEB5",
"2.	c #CEDDB6",
"3.	c #A4CBC0",
"4.	c #669D9D",
"5.	c #608D8C",
"6.	c #83B2B1",
"7.	c #688C8B",
"8.	c #659A9A",
"9.	c #619191",
"0.	c #577A7A",
"a.	c #77904F",
"b.	c #3C5053",
"c.	c #567A79",
"d.	c #587D7C",
"e.	c #7EAFB0",
"f.	c #82B9B9",
"g.	c #73A9A9",
"h.	c #A2CBC0",
"i.	c #B2D1BD",
"j.	c #C1D7B9",
"k.	c #CADBB7",
"l.	c #8EC3C2",
"m.	c #699E9D",
"n.	c #7CB1B1",
"o.	c #89A798",
"p.	c #A8C1A9",
"q.	c #CDDCB4",
"r.	c #CCDBB4",
"s.	c #C9DAB4",
"t.	c #A4C0AB",
"u.	c #74A9A8",
"v.	c #679E9E",
"w.	c #71A8A8",
"x.	c #83BABA",
"y.	c #91C5C3",
"z.	c #B1D1BD",
"A.	c #B3D2BC",
"B.	c #AECEBB",
"C.	c #71A7A8",
"D.	c #659B9B",
"E.	c #8CC2C2",
"F.	c #AECFBE",
"G.	c #B2D0BC",
"H.	c #96BCB0",
"I.	c #74AAAA",
"J.	c #5D8988",
"K.	c #577C7B",
"L.	c #639494",
"M.	c #89C0C0",
"N.	c #526F6F",
"O.	c #537170",
"P.	c #689693",
"Q.	c #6DA09E",
"R.	c #82B9BA",
"S.	c #7CB2B3",
"T.	c #73A9AA",
"U.	c #90B8AD",
"V.	c #A3C0AA",
"W.	c #A6C1AA",
"X.	c #A5C1AA",
"Y.	c #7EB2B1",
"Z.	c #6AA0A1",
"`.	c #609190",
" +	c #536E6A",
".+	c #7D995E",
"++	c #99C1B7",
"@+	c #A1CAC0",
"#+	c #7DB4B4",
"$+	c #5D8887",
"%+	c #729E9E",
"&+	c #7D9A60",
"*+	c #649A9A",
"=+	c #C2D8B9",
"-+	c #7BB1B1",
";+	c #619292",
">+	c #70A29F",
",+	c #92B9AE",
"'+	c #83BABB",
")+	c #ABC8B3",
"!+	c #82B5B2",
"~+	c #6BA1A2",
"{+	c #84BABB",
"]+	c #79AFB0",
"^+	c #79AEAF",
"/+	c #7AB0B1",
"(+	c #82B8B9",
"_+	c #6AA1A1",
":+	c #79B0B0",
"<+	c #7CB3B3",
"[+	c #5A7F7F",
"}+	c #5F8B8B",
"|+	c #618D8D",
"1+	c #6A9797",
"2+	c #8FC4C3",
"3+	c #557474",
"4+	c #557272",
"5+	c #577675",
"6+	c #7AAFB0",
"7+	c #83B9BA",
"8+	c #9FCAC1",
"9+	c #B1D0BD",
"0+	c #CBDCB7",
"a+	c #CFDDB5",
"b+	c #B0CFBC",
"c+	c #74ABAB",
"d+	c #C9DAB6",
"e+	c #A8C3AB",
"f+	c #8DB2A4",
"g+	c #A4BFA8",
"h+	c #819584",
"i+	c #4F6968",
"j+	c #84BBBC",
"k+	c #A6CCBF",
"l+	c #CFDEB5",
"m+	c #A2C9BE",
"n+	c #77ABAB",
"o+	c #A5CCC0",
"p+	c #BFD7BA",
"q+	c #C0D7B8",
"r+	c #869E8E",
"s+	c #9CC2B5",
"t+	c #6BA1A1",
"u+	c #8FB2A3",
"v+	c #4A7274",
"w+	c #9FC8BE",
"x+	c #B1D0BB",
"y+	c #B0CFBB",
"z+	c #81B3B1",
"A+	c #C0D6B8",
"B+	c #BED5B8",
"C+	c #A9C7B3",
"D+	c #70A19E",
"E+	c #4F6A69",
"F+	c #1D2634",
"G+	c #22323D",
"H+	c #86BAB9",
"I+	c #BDD6BA",
"J+	c #6BA09E",
"K+	c #6D9F9C",
"L+	c #699D9C",
"M+	c #4F6867",
"N+	c #3D5255",
"O+	c #547E7E",
"P+	c #639999",
"Q+	c #659C9C",
"R+	c #537070",
"S+	c #76AAA8",
"T+	c #CCDCB5",
"U+	c #405659",
"V+	c #465E5E",
"W+	c #304046",
"X+	c #22313B",
"Y+	c #3C5B60",
"Z+	c #4E787A",
"`+	c #ABC7B0",
" @	c #70A7A7",
".@	c #5D8383",
"+@	c #72A9A9",
"@@	c #6CA2A2",
"#@	c #699593",
"$@	c #649898",
"%@	c #639899",
"&@	c #578586",
"*@	c #33464B",
"=@	c #31444A",
"-@	c #3A4D51",
";@	c #4F6969",
">@	c #506C6B",
",@	c #5B8585",
"'@	c #71A7A7",
")@	c #618C8A",
"!@	c #658D8A",
"~@	c #638E8C",
"{@	c #AFD0BD",
"]@	c #ADCEBC",
"^@	c #84B8B8",
"/@	c #74A1A1",
"(@	c #658C8B",
"_@	c #557877",
":@	c #5A8484",
"<@	c #475E5E",
"[@	c #609090",
"}@	c #668B8B",
"|@	c #639595",
"1@	c #88BCBB",
"2@	c #7BB1B0",
"3@	c #A8C7B4",
"4@	c #CBDCB6",
"5@	c #88BFC0",
"6@	c #AFCFBD",
"7@	c #8FC3C2",
"8@	c #6E9F9F",
"9@	c #6BA2A2",
"0@	c #BBCFAF",
"a@	c #7EB2B0",
"b@	c #6EA19F",
"c@	c #516B6B",
"d@	c #629393",
"e@	c #547E7F",
"f@	c #5E8A89",
"g@	c #5E8A8A",
"h@	c #5F8B8A",
"i@	c #668C8C",
"j@	c #557271",
"k@	c #80B3B3",
"l@	c #2E3E44",
"m@	c #3F5558",
"n@	c #629292",
"o@	c #6A9696",
"p@	c #739FA0",
"q@	c #82B8B8",
"r@	c #699494",
"s@	c #6F9FA0",
"t@	c #1B2332",
"u@	c #394C50",
"v@	c #22303B",
"w@	c #455B5C",
"x@	c #192030",
"y@	c #161C2E",
"z@	c #192131",
"A@	c #598284",
"B@	c #CCDCB6",
"C@	c #496262",
"D@	c #2D3E47",
"E@	c #8ABFBF",
"F@	c #3C4F52",
"G@	c #96A389",
"H@	c #BFD6B9",
"I@	c #79ACAA",
"J@	c #CDDDB6",
"K@	c #6FA0A1",
"L@	c #4B5D5B",
"M@	c #A0B095",
"N@	c #C9D8B2",
"O@	c #BDD4B7",
"P@	c #ADCEBB",
"Q@	c #7EB3B2",
"R@	c #AAC8B3",
"S@	c #B1CFBB",
"T@	c #A7C2AA",
"U@	c #A5C0AA",
"V@	c #7DB2B2",
"W@	c #465C5D",
"X@	c #516A69",
"Y@	c #5A726D",
"Z@	c #5B7470",
"`@	c #6C9D9B",
" #	c #669C9B",
".#	c #6BA09F",
"+#	c #639393",
"@#	c #5F8F8F",
"##	c #4E6968",
"$#	c #2D3C43",
"%#	c #516E6D",
"&#	c #A3BFAA",
"*#	c #6B9B9C",
"=#	c #547170",
"-#	c #5E8989",
";#	c #80B2B3",
">#	c #9EC7BD",
",#	c #547375",
"'#	c #1B2432",
")#	c #649999",
"!#	c #34474C",
"~#	c #598382",
"{#	c #6C9F9D",
"]#	c #C9D9B4",
"^#	c #C9DBB7",
"/#	c #5C8282",
"(#	c #71A6A6",
"_#	c #658B8B",
":#	c #A3CBC0",
"<#	c #6C9E9B",
"[#	c #465E60",
"}#	c #4E6767",
"|#	c #21313C",
"1#	c #3D5457",
"2#	c #64999A",
"3#	c #689295",
"4#	c #90B3A4",
"5#	c #507576",
"6#	c #639898",
"7#	c #506A6A",
"8#	c #3B5C60",
"9#	c #4B7376",
"0#	c #669093",
"a#	c #5E8F90",
"b#	c #CEDDB5",
"c#	c #C8DAB5",
"d#	c #8EC2C1",
"e#	c #B6D3BC",
"f#	c #B4D2BC",
"g#	c #6B9F9E",
"h#	c #70A6A6",
"i#	c #2A3D46",
"j#	c #B9CEAE",
"k#	c #456568",
"l#	c #558081",
"m#	c #4C7678",
"n#	c #6FA2A0",
"o#	c #8EB3A5",
"p#	c #B6C5A4",
"q#	c #577371",
"r#	c #374C51",
"s#	c #42595B",
"t#	c #719C9D",
"u#	c #8BC0C0",
"v#	c #B1CFBA",
"w#	c #CDDBB3",
"x#	c #79A8A8",
"y#	c #A2B89F",
"z#	c #ACC9B3",
"A#	c #B1D0BC",
"B#	c #83B6B3",
"C#	c #7DACAB",
"D#	c #6C8F8D",
"E#	c #608987",
"F#	c #60908F",
"G#	c #8EC3C4",
"H#	c #7FB0B1",
"I#	c #658A8A",
"J#	c #587270",
"K#	c #6C9D9D",
"L#	c #566F6D",
"M#	c #587371",
"N#	c #80B1B2",
"O#	c #4B6566",
"P#	c #81B1B1",
"Q#	c #ADCFBE",
"R#	c #659C9B",
"S#	c #2F3F45",
"T#	c #83B8B9",
"U#	c #6C9C9C",
"V#	c #5A736F",
"W#	c #9FAF95",
"X#	c #BACEAF",
"Y#	c #91C4C2",
"Z#	c #9BA98F",
"`#	c #74A2A2",
" $	c #4B6565",
".$	c #1D2734",
"+$	c #649494",
"@$	c #CBDAB4",
"#$	c #61827E",
"$$	c #547473",
"%$	c #99AD96",
"&$	c #90B4A5",
"*$	c #CBDBB5",
"=$	c #A5C1AB",
"-$	c #A1BFAA",
";$	c #669594",
">$	c #97A185",
",$	c #517475",
"'$	c #82B3B2",
")$	c #658A89",
"!$	c #202E3A",
"~$	c #91B9AE",
"{$	c #AFCFBC",
"]$	c #CBD8B0",
"^$	c #99A488",
"/$	c #39494B",
"($	c #3F5457",
"_$	c #729E9F",
":$	c #81B5B4",
"<$	c #81B4B3",
"[$	c #77ABA9",
"}$	c #343B3D",
"|$	c #9AA588",
"1$	c #CAD8B0",
"2$	c #B9CDAE",
"3$	c #91B9AF",
"4$	c #CBD9B1",
"5$	c #9AA589",
"6$	c #3A4A4C",
"7$	c #7EB0B1",
"8$	c #BFD7B9",
"9$	c #BCD4B8",
"0$	c #859E8F",
"a$	c #5C8686",
"b$	c #5D8888",
"c$	c #659594",
"d$	c #5C7F7D",
"e$	c #4A7173",
"f$	c #2E3E45",
"g$	c #405759",
"h$	c #465D5E",
"i$	c #4A5C5A",
"j$	c #557776",
"k$	c #ADCAB4",
"l$	c #AFCEBA",
"m$	c #5A706B",
"n$	c #446568",
"o$	c #3E5355",
"p$	c #629392",
"q$	c #557978",
"r$	c #5B8584",
"s$	c #557E7F",
"t$	c #76A8A8",
"u$	c #537271",
"v$	c #567878",
"w$	c #719C9C",
"x$	c #6EA0A0",
"y$	c #689292",
"z$	c #5C8787",
"A$	c #6D9E9E",
"B$	c #2E3D44",
"C$	c #475F5F",
"D$	c #597D7C",
"E$	c #4D6F70",
"F$	c #212C38",
"G$	c #577B7B",
"H$	c #6B9C9C",
"I$	c #3D5254",
"J$	c #1E2C38",
"K$	c #1A2534",
"L$	c #455C5D",
"M$	c #314147",
"N$	c #4F6868",
"O$	c #5B8686",
"P$	c #212C37",
"Q$	c #567B7A",
"R$	c #41575A",
"S$	c #2F3E45",
"T$	c #1B2433",
"U$	c #53706F",
"V$	c #3A595E",
"W$	c #547372",
"X$	c #497073",
"Y$	c #699693",
"Z$	c #75A09F",
"`$	c #77A9AA",
" %	c #8BBEBD",
".%	c #273540",
"+%	c #5D8A89",
"@%	c #1A2433",
"#%	c #568485",
"$%	c #76A9A7",
"%%	c #1D2835",
"&%	c #212D39",
"*%	c #557979",
"=%	c #343C3F",
"-%	c #C7D6B0",
";%	c #C8D8B2",
">%	c #32393C",
",%	c #516C6C",
"'%	c #465D5D",
")%	c #76A7A7",
"!%	c #588788",
"~%	c #588889",
"{%	c #1B2534",
"]%	c #181E2F",
"^%	c #859C8E",
"/%	c #CCDBB5",
"(%	c #CADBB6",
"_%	c #AECFBC",
":%	c #90C3C2",
"<%	c #8CAFA1",
"[%	c #202D39",
"}%	c #3E5457",
"|%	c #2F4047",
"1%	c #1A2231",
"2%	c #CADAB4",
"3%	c #7DB1B1",
"4%	c #1E2C39",
"5%	c #72A3A4",
"6%	c #689294",
"7%	c #659596",
"8%	c #59898A",
"9%	c #5A8A8B",
"0%	c #74A8A8",
"a%	c #7FB2B0",
"b%	c #304349",
"c%	c #689393",
"d%	c #699696",
"e%	c #669092",
"f%	c #4F6B6A",
"g%	c #1F2B37",
"                . . + @ # # # $ % . . . % $ & * = - = ; > > > , ' ) ! ~ { ] ^ # / . . . . . . . . ( # # $ % _                   ",
"          . . : < [ } | 1 - - = 2 3 3 4 5 6 7 8 7 6 6 9 0 a b c d e e e d f 0 g h 3 3 i j 5 3 3 k l m m n 5 o /                 ",
"        p < q r s t u e e e e e d d d v - w x d y z 9 A B C D E F G H e e I J K E L M N O 1 x d P E Q Q E R 8 S ^ # # ( . _     ",
"      / 5 T U V W X x e e e e e e e e e e e e e Y Z `  ...+.@.#.$.%.&.*.e e e M Q =.=.-.;.L e e M >.I Y Y I d v = 7 6 ,.'.o $ _ ",
").!.~.& g {.I ].^./.! Y e e e e e e e e e e H *.e J (._.:.<.[.}.|.1.2.%.3.*.*.I Q 4.(.` n 5.P <.+.J e e e e e e e 6.7.8.9.0.5 % ",
"a.b.c.d.e.Y e e Y f.g.+.J Y e e e e *.h.i.i.j.k.l.=.(.m.n.=.E ;.o.p.|.q.r.s.t.u.4.v.Q E v.4.v.Q Q w.x.Y H y.z.i.A.%.B.C.4.D.g # ",
"# c.D.K Y e e e e e Y J v.=.J x.Y E.F.z.i.i.G.H.I.4.J.K.L.Q M.{.N.O.P.Q.Q.Q.4.4.Q R.Y Y I S.x.Y I T.+.+.U.V.W.W.W.X.Y.Z.Q 4.`. +",
".+9.4.E ++@+e e e e e Y Q 4.4.Q I.#+Y e e e e Y I S.P $+%+S.x.M.E K P J J J w.v.R.e e e e e e e e Y I g.4.Q <.J J J S.I I =.D.9 ",
"&+*+`.J._.=+z.y.*.H Y R.v.4.+.R.Y e e e e e e e e e Y K -+Y S.+.=.I e e e e S.v.x.e e e e e e e e e e Y =.<.e e e e e e e S.D.9 ",
"& g m ;+>+$.1.2.s.,++.v.Q J I e e e e e e e e e e e x.Q x.e Y +.x.e e e e e I Q =.Y e e e e e e e e e e '+I.Y e e e e e e I E g ",
"6 n E =.=.>+_.)+!+Q 4.w.'+e e e e e e e e e e e e e J Q Y e Y ~+Y e e e e e Y T.Q R.e e e e e e e e e e e {+Y e e e e e e I Q 0 ",
"b 9.]+M x ^+(./+Y (+=.J Y Y Y Y e e e e e e e e e e S._+Y e Y J x d d d Y Y Y I :++.<+Y Y Y Y Y e e e e e e e e e e e Y e S.(.n ",
"b 0 d.[+}+|+1+J <+#+Y S._+_+Q J e e e e e e e e e e Y Y 2+H {+E 3+4+5+|+T.I.I.<+S.x.Y <+_+_+Q J e e e e e e e e e e Y <+x.w.8.9 ",
"6 a 9.v.J I Y e e e e Y Y (+v.Q '+e e e e e e H *.y.z.A.%.z.I Z.6+-+d Y Y Y Y e e e e Y Y (+v.Q '+e e e e e e H *.2+7+Q v.4.m 6 ",
"b 9.v.<.e e e e e e e e e S.Q 4.<.e e e e e e 8+9+0+1.1.a+b+c+7+e e e e e e e e e e e e e S.Q 4.<.e e e e e e 8+9+d+e+f+>+g+h+i+",
"9 D.<.j+Y e e e e e e e e Y I =.Q <.{+e e e e e *.k+l+2.m+n+7+e e e e e e e e e e e e e e Y I =.Q <.{+e e e e e *.o+p+q+q.q.r+b.",
"9 D.<.Y #+Y e e e e e e e e e <.4.4.w.{+e @+i.A.%.a+%.s+t+7+e e e e e e e e e j+Y e e e e e e <.4.4.w.{+e @+i.A.%.i.y.j.r.u+g s ",
"v+4.Q R.<.g.Y e Y <+Y e e e '+t+<.J =.w.S.w+x+x+x+y+z+Q J H e e e e e e e e Y I.I e e e e e '+Q Q <.=.w.S.w+x+x+A+B+C+_.D+A E+F+",
"G+*+4.v.v.4.=.J =.=.Y e e e j+I e e I :+v.Q Q Q Q E D.E H+I+*.e e e e e e Y M Q g.Y e e e e '+Z.R.e I :+v.Q Q Q J+K+L+9.n b M+F+",
"N+O+P+Q+4.4.4.4.Q w.S.Y e e e e e e j+I.=.J J <.E R+9 @.S+T+i.e e e e e R.+.Q 4.Q =.S.d Y Y Y Y e e j+I.=.J J <.E R+9 9 U+N+V+s ",
"b.W+X+Y+Z+Q+w.S.M J +.I.#+Y e e e e e Y Y e e e (+C g d.E `+$.w+Y Y Y M +.4. @J M Z.L..@+@@@{+e e e e Y Y *.*.*.H+#@;.$@%@&@*@=@",
"-@M+;@>@,@v.'+e e e Y Y Y e e e e e e e e e e e j+J '@E E )@!@~@+._+_+_+Q 4.+.{+e Y I d Y Y e e e e e e H F.{@{@{@]@^@/@(@9 _@:@",
"<@b [@D.4.:+e e e e e e e e e e e e e e e e e e e e Y Y <.4.=.x.Y Y Y Y M Q :+e e e e e e e e e e e e e e e e e e e e e d }@0 9.",
"6 n (.v.<.I.Y e e e e e e e e e e e e e e e e e e e e e <.+.I e e e e e Y =.+.I e e e e e e e e e e e e e e e e e e e e e d |@4.",
"6 m 4.v.R.J R.e e e e e e e e e e e e e e e e e e e e Y +.w.Y e e e e e e S.4.J e e e e e e e e e e e e e e e e e e e e e x.v.4.",
"6 0 4.4.v.v.Q '+e e e e e e e e e e e e e e e e e e e Y +.=.Y e e e e e e Y :+_+1@*.*.*.*.H e e e e e e e e e e e e e e Y S.<.=.",
"b N.E Q 4.4.4.<.e e e e e e e e e e e e e e e e e e e e R.R.e e e e e e e Y c+2@3@9+k.4@4@{@e e e e e e e e e e e e e e {+R.e Y ",
"0 L.5@I T.Q 4.Q J I e Y e e e e e e e e e *.h.i.i.6@E.S.=.t+Y e e e e e e Y (+C.+.{+2+7@*.H e e e e e e e *.h.i.i.6@E.S.=.t+I S.",
"0 4.8@v M x w.=.=.9@d 9@R.Y e e e e e e H {@4@q.0@f+Q v.=.'+e e e e e '+J =.v.=.T.I Y 9@R.Y e e e e e e H {@4@q.0@f+Q v.=.x.M Q ",
"9 `.0 7 }+K +.I Y Y e <.v.+.-+I Y Y Y x.J J a@b@m.4.v.R.Y e e e e Y <+_+Q 4.Q I j+Y e <.v.+.-+I Y Y Y x.J J a@b@m.4.v.R.Y Y Z.4.",
"6 b c@m 4.4.Q Y e e e S.v.D.J.v.Q Q Q v.4.4.4.*+J.4.Q I e e e e e e Y Y M +.Q Y e e e S.v.D.J.v.Q Q Q v.(.8.@.0 J.v.J Y Y J d@e@",
"<@6 >@8.4.v.=.{+e e e Y :+D.D n @.*+@.J.J.f@g@;.9 9.4.S.e e e e e e e e e '+T.{+e e e Y :+D.D n 9.8.@.h@[+i@= j@c.J.k@e R.v.,@l@",
"s 6 m@*+Q J Y Y e e j+I.+.Q n@m z o@p@6+P (+d q@r@;+4.=.Y e e e e e e e e e Y Y e e j+I.+.Q n@m f@o@w x d Y e x w s@x R.Q `.T t@",
"t@u@v@P+<.e e e e e Y Y Y Y x.S.I Y e e e e e e {+J =.4.S.e e 2+e e e e e e e e e e Y Y Y Y x.S.I Y e e e e e e e I t+E `.>@w@x@",
"y@x@z@A@{+e e e e e e e e e e e e e e e e e e e e e Y >.'+H 3.B@3.H e e e e e e e e e e e e e e e e e e e e e e e e :+9.g C@> x@",
"x@w@w@D@E@H e e e e e e e e e e e e e e e e e e e e e Y e 6@a+1.a+p+y.H e e e e e e e e e e e e e e e e e e e e Y M K d.`.*+T t@",
"F+M+6 F@G@H@y.H e e Y x.{+e e e e e e e e e e e e e e e Y I@x+J@1.1.2.j.i.i.i.z.H e e e e e e e e e e e e e e e j+K@d.9 0 0 ;@t@",
"s 6 b E+L@M@N@O@P@Q@=.Z.'+e e e e e e e e e e e e e e e Y T.=.z+R@x+x+x+S@T@W.U@V@J J J x.I S.S.Y e e e e e e Y x.'@D.[@b 6 W@x@",
"> b [@`.g X@Y@Z@`@ #.#d e e e e e e e e e e e e e e e e e Y =.4.(.+#z g@v.4.4.4.4.v.E D.E Q 4.+.Y e e e e e e j+S.=.Q @###b.$#y@",
"l@>@D.4.D.m g i+%#` &#2+e e e e e e e e e e e e e e e e *.H {+*#R+g =#-#Z =.=.J J x.;#i@f@@.9.]+e e e e e e e e e Y >#,#'#t@$#y@",
"t@;@`.4.4.4.)#!#~#{#]#3.H e e e e e e e e e e H *.y.z.A.^#G d /#(#-+d Y Y Y Y e e e e Y d _#g h@R.e e e e e e e e :#s.<#=@[#}#F+",
"x@W@9 `.(.4.P+|#1#8.W.a+j.z.y.*.e e Y Y e e e 8+9+0+1.2.&.e R.Q I e e e e e e e e e e e e J E 2#3#e e e H *.h.i.A.T+4# #5#6#9 s ",
"y@$#W@7#K.P+8#9#0#a#Q.W.|.b#T+c#d#S.=.<+e e e *.h.e#l+a+f#b+g#Q Y e e e e e e e e e e e e Y I h#i#u e e {@%.a+1.1.j#B (.D.D.9 > ",
"y@x@'#k#m l#m#(.Y I J +.n#o#f+Q.Q v.<.Y e H i.%.a+1.2.2.q.p#q#-.;#e e e e e e e e e e e e e e q@r#s#t#w u#v#w#|.W.Q.4.m m [@T s ",
"x@w@V+,@4.w.=.Q Y e e Y Y x.J J =.4.=.J -+x#y#z#i.A#B#C#D#E#K.F#- e e e e e e e e e e e e e e G#H#I#8 * 7 J#!@Q.4.4.9.7 g b }#F+",
"t@}#6 n '@{+Y <+Y e e e e e e e Y S.<.K#n L#M#N#e e Y I q@v.)#c.O#P#H e e e e e e e e e e e e Q#2+Y M K#m 9.(.4.4.R#8@v e.T S#y@",
"y@> 6 9 ]+e e e Y e e e e e e e *.2+T#U#V#W#X#Y#*.*.*.2+v m 9 > F+Z#p+*.e e e e e e e e e e e H *.2+d '@4.4.Q Q Q `#I e x  $$#y@",
"y@.$T 9 +$M Y Y c+Y e e H *.*.3.%.@$#$$$%$&$$.*$s.=$V.-$;$0 >@S#y@>$1.j.h.*.H e e e e e H *.*.3.%.@$#$,$(.T.I Y Y H H '$)$6 b.y@",
"y@!$6#`.` E +.:+v.~${$i.j.2.2.a+]$^$/$($_$M :$<$[$4.4.4.4.4.m }#F+}$|$1$2$V.3$I E.]@{$i.j.2.2.a+4$5$6$($7$Y e *.i.8$9$0$b 9 ##t@",
"y@s a$(.D.b$0 m J.c$>+_.W.W.W.g+d$e$f$g$x e Y x.w.4.4.4.4.4.8.9 s > h$i$j$(.4.Q Q Q.>+_.k$i.i.l$m$i+-@g$x e Y 6@0@_.>+J.`.D.:@t@",
"y@> b n m a 6 0.8.(.4.4.4.4.4.4.;+D > n$Q :++.v.4.4.4.4.4.4.(.n o$##9 K.D.4.4.4.4.4.4.v.:+J x.M p$9 b.k#Q :+T.u.B 4.4.(.4.D.q$t@",
"y@b.6 6 6 6 b 9.4.4.4.4.4.4.4.4.4.0 <@e@4.4.4.4.4.4.4.4.4.4.4.m i+r$D.(.4.4.4.4.4.4.4.4.4.4.v.Q 4.0 M+s$4.4.4.4.4.4.4.4.9.g M+t@",
"t@}#b a 6 6 g D.4.4.4.4.4.4.4.4.4.@.6 0 (.4.4.4.4.4.4.4.4.4.4.m 6 9 @.[.4.4.4.4.4.4.4.4.4.4.4.4.4.@.6 0 (.4.4.4.4.4.4.4.m 6 M+t@",
"t@M+9 *+@.m 9.4.4.4.4.4.4.4.4.4.4.*+9 b K.D.4.4.4.4.4.4.4.4.4.@.6 9 *+(.4.4.4.4.4.4.4.4.4.4.4.4.4.*+9 b @.(.D.(.4.4.D.@.a 6 M+t@",
"t@M+b a$8.D.4.4.4.4.4.4.4.4.4.4.9.0.6 * 8 g 0 9.(.4.4.4.4.4.4.8.9 b 9.4.4.4.4.4.4.4.4.4.4.4.4.(.@.0.6 6 a n ;.t$w.D.u$g v$6 }#t@",
"x@W@6 6 9 g m D.4.4.4.4.4.4.4.(.J.a 6 w$x w - p@x$Q 4.4.4.4.4.8.g 9 n D.4.4.4.4.4.4.4.4.4.4.4.D.R+0 a b y$- v Y <.4.D.D.a$6 b.y@",
"y@> 6 6 6 6 c@R+@.[.4.4.4.4.4.4.4.m 6 O v e e Y M :+v.4.4.4.4.z$_@)#J._#g@}+J.m @.[.4.4.4.4.4.4.D.D.0.b A$M S.=.v.4.4.4.m M+B$y@",
"y@B$}#6 6 b m D.D.(.4.4.4.4.4.4.4.@.i+C$D$P <.+.Q 4.4.4.4.4.D.E$F$G$6+I d d v %+H$(.4.4.4.4.4.4.4.@.i+C$n E 4.4.4.4.4.(.n I$J$K$",
"y@y@F+L$6 a *+4.4.4.4.4.4.4.D.J.(.8.T M$7#9.4.4.4.4.4.4.4.D.a$> l@i+_#-+J J J =.v.4.4.4.4.4.4.4.(.n M+M$N$m 4.4.4.4.4.D.;.O$)#v+",
"y@t@u@P$b.C$g m (.4.4.4.4.D.K.;.D.8.T .$N+Q$8.(.4.4.4.D.`.g g R$S$i+r$(.4.4.4.4.4.4.4.4.4.4.(.;+*+9 }#T$!#U$g@d@4.v.Q +.N v.Q+V$",
"y@u@6 M+M+i+b m (.4.4.4.D.W$- ^.Q @.}#t@X$Y$Z$`$J J -+/@p@- P# %.%W@c@d.+%(.4.4.4.4.4.4.4.4.[.@.0.6 > @%#%$%u#J J x.Y Y J (.@#%%",
"y@&%T 6 6 a @.(.4.4.4.4.4.d@P =.(.*%S#y@=%-%j.i.h.*.*.*.H z.j.;%>%s ,%$@8.4.4.4.4.4.4.4.4.4.4.D.9 '%t@y@=%-%j.i.h.*.e Y )%n ;@t@",
"K$!%8.@.m d@Q 4.4.4.4.4.4.4.Q+*+~%=@{%y@]%^%x+A+/%4@(%_%:%*$0@<%[%.$E+9 m D.4.4.4.4.4.4.4.4.4.D.}%|%!$u@1%^%x+A+2%t.3%_#* 6 M+t@",
"4%*+4.4.v.R.I S.J J w.4.v.<.5%~ 6%7%8%v+4%9%Q 0%n#a%S+Q Q b@n.(.b%V$[@c%p@d%(.4.4.4.4.4.4.4.4.d@e%7%%@f%g%9%Q 0%b@4.(.@.0 b M+t@"};
