/* XPM */
static char * Wall2_xpm[] = {
"64 64 539 2",
"  	c #3E5457",
". 	c #659B9B",
"+ 	c #669D9D",
"@ 	c #7BB1B2",
"# 	c #8CC3C4",
"$ 	c #84BABB",
"% 	c #72A8A9",
"& 	c #69A0A0",
"* 	c #7AB1B1",
"= 	c #78A9AA",
"- 	c #5D8988",
"; 	c #679D9D",
"> 	c #82B9BA",
", 	c #8BC2C3",
"' 	c #71A8A8",
") 	c #669C9C",
"! 	c #506C6B",
"~ 	c #83BABA",
"{ 	c #6BA1A2",
"] 	c #90C4C3",
"^ 	c #B0D0BD",
"/ 	c #6AA0A1",
"( 	c #5C8786",
"_ 	c #516B6A",
": 	c #629292",
"< 	c #A0CAC0",
"[ 	c #C1D7B9",
"} 	c #D0DEB5",
"| 	c #A4CBC0",
"1 	c #A1CAC0",
"2 	c #8AC1C2",
"3 	c #5E8A89",
"4 	c #516B6B",
"5 	c #506A69",
"6 	c #587C7B",
"7 	c #82B8B8",
"8 	c #689F9F",
"9 	c #8EC4C4",
"0 	c #9BC3B7",
"a 	c #CDDCB6",
"b 	c #C2D8B9",
"c 	c #C0D7B9",
"d 	c #CEDDB6",
"e 	c #B3D2BC",
"f 	c #A2CBC0",
"g 	c #84BBBC",
"h 	c #70A6A6",
"i 	c #5C8887",
"j 	c #567979",
"k 	c #5A7F7E",
"l 	c #7FB0B1",
"m 	c #7AB0B1",
"n 	c #679E9E",
"o 	c #A3CBC0",
"p 	c #AECFBE",
"q 	c #6BA1A1",
"r 	c #88BBB9",
"s 	c #B1D0BB",
"t 	c #BDD5B9",
"u 	c #93C5C3",
"v 	c #CCDCB6",
"w 	c #CBDCB6",
"x 	c #CBDBB5",
"y 	c #CADAB5",
"z 	c #AECFBC",
"A 	c #8DC3C3",
"B 	c #516D6C",
"C 	c #649A9A",
"D 	c #659A9A",
"E 	c #5E8B8A",
"F 	c #79B0B0",
"G 	c #7CB2B3",
"H 	c #91C5C3",
"I 	c #B2D1BD",
"J 	c #BED6BA",
"K 	c #86BAB9",
"L 	c #74AAAA",
"M 	c #76AAA8",
"N 	c #7BB1B1",
"O 	c #7FB2B0",
"P 	c #7FB1B0",
"Q 	c #6EA19F",
"R 	c #6DA09E",
"S 	c #7CB3B3",
"T 	c #83BABB",
"U 	c #93B9AE",
"V 	c #577B7B",
"W 	c #73A9A9",
"X 	c #BDD6BA",
"Y 	c #BFD5B7",
"Z 	c #92B9AD",
"` 	c #577C7B",
" .	c #587E7D",
"..	c #73A9AA",
"+.	c #B1D1BD",
"@.	c #CCDBB4",
"#.	c #8DB2A4",
"$.	c #619292",
"%.	c #5D8989",
"&.	c #6AA1A1",
"*.	c #7DB4B4",
"=.	c #8CC2C3",
"-.	c #88BCBB",
";.	c #679695",
">.	c #587D7C",
",.	c #679C9C",
"'.	c #5E8988",
").	c #5F8A8A",
"!.	c #729F9F",
"~.	c #7AAFB0",
"{.	c #7EB3B2",
"].	c #A5C1AA",
"^.	c #A6C1AA",
"/.	c #669B9B",
"(.	c #4D6F70",
"_.	c #619191",
":.	c #6D9E9E",
"<.	c #577B7A",
"[.	c #8AC0C1",
"}.	c #9FCAC1",
"|.	c #619393",
"1.	c #3D5254",
"2.	c #5A7F7F",
"3.	c #6B9797",
"4.	c #B4D2BC",
"5.	c #CFDEB5",
"6.	c #99C1B6",
"7.	c #74ABAB",
"8.	c #89C0C1",
"9.	c #6AA0A0",
"0.	c #506A6A",
"a.	c #8CC2C2",
"b.	c #7AB0B0",
"c.	c #BFD5B8",
"d.	c #7FB3B1",
"e.	c #7DB2B2",
"f.	c #AFCFBC",
"g.	c #85BCBD",
"h.	c #609191",
"i.	c #526F6E",
"j.	c #3B4F52",
"k.	c #577A7A",
"l.	c #AFCFBB",
"m.	c #BFD7BA",
"n.	c #B1CFBB",
"o.	c #77ABA9",
"p.	c #6BA09F",
"q.	c #C9DAB4",
"r.	c #CADAB4",
"s.	c #6FA2A0",
"t.	c #629393",
"u.	c #1F2936",
"v.	c #465D5E",
"w.	c #8DB0A2",
"x.	c #CCDCB5",
"y.	c #9EC9C0",
"z.	c #7CB1B1",
"A.	c #7EB2B0",
"B.	c #84BAB9",
"C.	c #5B8685",
"D.	c #4E6767",
"E.	c #3C5053",
"F.	c #465C5D",
"G.	c #4F6868",
"H.	c #536F6E",
"I.	c #769E9D",
"J.	c #78A09E",
"K.	c #78A8A8",
"L.	c #639494",
"M.	c #557372",
"N.	c #4F6A69",
"O.	c #537C7D",
"P.	c #4B7476",
"Q.	c #2F3F45",
"R.	c #405659",
"S.	c #567A79",
"T.	c #76A8A8",
"U.	c #72A8A8",
"V.	c #8EC3C2",
"W.	c #649494",
"X.	c #76A7A7",
"Y.	c #89BFC0",
"Z.	c #668C8C",
"`.	c #536F6F",
" +	c #4F6968",
".+	c #3E5356",
"++	c #22313C",
"@+	c #1D2835",
"#+	c #161C2E",
"$+	c #3A4E51",
"%+	c #658B8B",
"&+	c #73A0A1",
"*+	c #597E7D",
"=+	c #526E6D",
"-+	c #8EB2A5",
";+	c #CDDCB5",
">+	c #659696",
",+	c #88BEBF",
"'+	c #567372",
")+	c #60908F",
"!+	c #5B8585",
"~+	c #3D5356",
"{+	c #729E9E",
"]+	c #79AFB0",
"^+	c #82B8B9",
"/+	c #95BBAE",
"(+	c #B4D2BB",
"_+	c #7EAEAF",
":+	c #537070",
"<+	c #729D9D",
"[+	c #192030",
"}+	c #476060",
"|+	c #567574",
"1+	c #8BB1A4",
"2+	c #ADC9B2",
"3+	c #C9DBB7",
"4+	c #8FC4C3",
"5+	c #658A89",
"6+	c #739F9F",
"7+	c #1B2432",
"8+	c #506B6A",
"9+	c #739E9F",
"0+	c #567373",
"a+	c #B0CFBB",
"b+	c #C3D8B9",
"c+	c #639393",
"d+	c #516C6B",
"e+	c #83B3B3",
"f+	c #1E2B38",
"g+	c #639898",
"h+	c #5F8B8A",
"i+	c #86B9B8",
"j+	c #BFD6B9",
"k+	c #CFDDB5",
"l+	c #6E9F9F",
"m+	c #547170",
"n+	c #597D7C",
"o+	c #609190",
"p+	c #2E3E44",
"q+	c #567B7A",
"r+	c #649999",
"s+	c #B1D0BD",
"t+	c #CADBB7",
"u+	c #A0C9BE",
"v+	c #547271",
"w+	c #6B9493",
"x+	c #85B3B0",
"y+	c #8CB2A5",
"z+	c #AFCEBA",
"A+	c #7DB3B3",
"B+	c #8ABCBA",
"C+	c #78A4A3",
"D+	c #668D8D",
"E+	c #475E5E",
"F+	c #609090",
"G+	c #668B8B",
"H+	c #639595",
"I+	c #526F6F",
"J+	c #7BB1B0",
"K+	c #A8C7B4",
"L+	c #AFD0BD",
"M+	c #88BFC0",
"N+	c #AFCFBD",
"O+	c #71A7A8",
"P+	c #8FC3C2",
"Q+	c #7FB1B1",
"R+	c #6BA2A2",
"S+	c #CDDCB4",
"T+	c #BBCFAF",
"U+	c #5F8B8B",
"V+	c #689E9E",
"W+	c #699E9D",
"X+	c #547E7F",
"Y+	c #5E8A8A",
"Z+	c #557271",
"`+	c #80B3B3",
" @	c #3F5558",
".@	c #6A9696",
"+@	c #739FA0",
"@@	c #699494",
"#@	c #74A0A1",
"$@	c #6F9FA0",
"%@	c #1B2332",
"&@	c #394C50",
"*@	c #22303B",
"=@	c #639999",
"-@	c #455B5C",
";@	c #192131",
">@	c #598284",
",@	c #73AAAA",
"'@	c #496262",
")@	c #2D3E47",
"!@	c #8ABFBF",
"~@	c #1D2634",
"{@	c #4F6867",
"]@	c #3C4F52",
"^@	c #96A389",
"/@	c #79ACAA",
"(@	c #CDDDB6",
"_@	c #6FA0A1",
":@	c #4F6969",
"<@	c #4B5D5B",
"[@	c #A0B095",
"}@	c #C9D8B2",
"|@	c #BDD4B7",
"1@	c #ADCEBB",
"2@	c #81B3B1",
"3@	c #AAC8B3",
"4@	c #A7C2AA",
"5@	c #A5C0AA",
"6@	c #71A7A7",
"7@	c #516A69",
"8@	c #5A726D",
"9@	c #5B7470",
"0@	c #6C9D9B",
"a@	c #669C9B",
"b@	c #5F8F8F",
"c@	c #4E6968",
"d@	c #2D3C43",
"e@	c #516E6D",
"f@	c #A3BFAA",
"g@	c #6B9B9C",
"h@	c #5E8989",
"i@	c #80B2B3",
"j@	c #9EC7BD",
"k@	c #547375",
"l@	c #34474C",
"m@	c #598382",
"n@	c #6C9F9D",
"o@	c #C9D9B4",
"p@	c #5C8282",
"q@	c #71A6A6",
"r@	c #6C9E9B",
"s@	c #31444A",
"t@	c #465E60",
"u@	c #21313C",
"v@	c #3D5457",
"w@	c #CBDCB7",
"x@	c #64999A",
"y@	c #689295",
"z@	c #90B3A4",
"A@	c #507576",
"B@	c #3B5C60",
"C@	c #4B7376",
"D@	c #669093",
"E@	c #5E8F90",
"F@	c #CBDBB4",
"G@	c #CEDDB5",
"H@	c #C8DAB5",
"I@	c #8EC2C1",
"J@	c #B6D3BC",
"K@	c #B0CFBC",
"L@	c #6B9F9E",
"M@	c #2A3D46",
"N@	c #78A8AA",
"O@	c #B9CEAE",
"P@	c #6A9F9E",
"Q@	c #456568",
"R@	c #558081",
"S@	c #4C7678",
"T@	c #8EB3A5",
"U@	c #B6C5A4",
"V@	c #577371",
"W@	c #374C51",
"X@	c #42595B",
"Y@	c #719C9D",
"Z@	c #8BC0C0",
"`@	c #B1CFBA",
" #	c #CDDBB3",
".#	c #465E5E",
"+#	c #79A8A8",
"@#	c #A2B89F",
"##	c #ACC9B3",
"$#	c #B1D0BC",
"%#	c #83B6B3",
"&#	c #7DACAB",
"*#	c #6C8F8D",
"=#	c #608987",
"-#	c #8EC3C4",
";#	c #658A8A",
">#	c #54706F",
",#	c #526D6C",
"'#	c #587270",
")#	c #658D8A",
"!#	c #6C9D9D",
"~#	c #566F6D",
"{#	c #587371",
"]#	c #80B1B2",
"^#	c #4B6566",
"/#	c #81B1B1",
"(#	c #ADCFBE",
"_#	c #659C9B",
":#	c #7EAFB0",
"<#	c #83B8B9",
"[#	c #6C9C9C",
"}#	c #5A736F",
"|#	c #9FAF95",
"1#	c #BACEAF",
"2#	c #91C4C2",
"3#	c #9BA98F",
"4#	c #74A2A2",
"5#	c #4B6565",
"6#	c #1D2734",
"7#	c #CBDAB4",
"8#	c #61827E",
"9#	c #547473",
"0#	c #99AD96",
"a#	c #90B4A5",
"b#	c #CADAB3",
"c#	c #A5C1AB",
"d#	c #A3C0AA",
"e#	c #A1BFAA",
"f#	c #669594",
"g#	c #97A185",
"h#	c #517475",
"i#	c #82B3B2",
"j#	c #202E3A",
"k#	c #91B9AE",
"l#	c #CBD8B0",
"m#	c #99A488",
"n#	c #39494B",
"o#	c #3F5457",
"p#	c #729E9F",
"q#	c #81B5B4",
"r#	c #81B4B3",
"s#	c #343B3D",
"t#	c #9AA588",
"u#	c #CAD8B0",
"v#	c #B9CDAE",
"w#	c #91B9AF",
"x#	c #ADCEBC",
"y#	c #CBD9B1",
"z#	c #9AA589",
"A#	c #3A4A4C",
"B#	c #7EB0B1",
"C#	c #BFD7B9",
"D#	c #BCD4B8",
"E#	c #859E8F",
"F#	c #5C8686",
"G#	c #5D8888",
"H#	c #659594",
"I#	c #70A29F",
"J#	c #A4C0A9",
"K#	c #A4BFA8",
"L#	c #5C7F7D",
"M#	c #4A7173",
"N#	c #2E3E45",
"O#	c #405759",
"P#	c #4A5C5A",
"Q#	c #557776",
"R#	c #ADCAB4",
"S#	c #5A706B",
"T#	c #3A4D51",
"U#	c #5A8484",
"V#	c #446568",
"W#	c #3E5355",
"X#	c #629392",
"Y#	c #74A9A8",
"Z#	c #557978",
"`#	c #5B8584",
" $	c #557E7F",
".$	c #537271",
"+$	c #567878",
"@$	c #719C9C",
"#$	c #6EA0A0",
"$$	c #689292",
"%$	c #5C8787",
"&$	c #557877",
"*$	c #2E3D44",
"=$	c #475F5F",
"-$	c #212C38",
";$	c #6B9C9C",
">$	c #1E2C38",
",$	c #1A2534",
"'$	c #455C5D",
")$	c #314147",
"!$	c #5B8686",
"~$	c #4A7274",
"{$	c #212C37",
"]$	c #3D5255",
"^$	c #41575A",
"/$	c #2F3E45",
"($	c #1B2433",
"_$	c #53706F",
":$	c #78AEAE",
"<$	c #659C9C",
"[$	c #3A595E",
"}$	c #547372",
"|$	c #87BDBE",
"1$	c #497073",
"2$	c #699693",
"3$	c #75A09F",
"4$	c #77A9AA",
"5$	c #74A1A1",
"6$	c #8BBEBD",
"7$	c #273540",
"8$	c #5D8A89",
"9$	c #1A2433",
"0$	c #568485",
"a$	c #76A9A7",
"b$	c #212D39",
"c$	c #557979",
"d$	c #343C3F",
"e$	c #C7D6B0",
"f$	c #C8D8B2",
"g$	c #32393C",
"h$	c #516C6C",
"i$	c #649898",
"j$	c #465D5D",
"k$	c #588788",
"l$	c #588889",
"m$	c #1B2534",
"n$	c #181E2F",
"o$	c #859C8E",
"p$	c #C0D6B8",
"q$	c #CCDBB5",
"r$	c #CADBB6",
"s$	c #90C3C2",
"t$	c #8CAFA1",
"u$	c #202D39",
"v$	c #2F4047",
"w$	c #1A2231",
"x$	c #A4C0AB",
"y$	c #7DB1B1",
"z$	c #1E2C39",
"A$	c #72A3A4",
"B$	c #699395",
"C$	c #689294",
"D$	c #659596",
"E$	c #59898A",
"F$	c #5A8A8B",
"G$	c #74A8A8",
"H$	c #304349",
"I$	c #689393",
"J$	c #699696",
"K$	c #669092",
"L$	c #639899",
"M$	c #4F6B6A",
"N$	c #1F2B37",
"  . + + + @ # # # # $ @ @ @ % & * $ # # # # # # = - ; > , # # # # # # # # # # # # # # $ @ @ @ % & * $ # # # # # # # # $ @ @ ' ) ",
"! . + + + @ # # # # # # # # , , # # # # # # # # , ~ % & { $ ] ^ ] # # # # # # # # # # # # # # , , # # # # # # # # # # , / + ) ( ",
"_ : * % + * # # # # # # # # # # # # # # # # # # # # , , , < [ } [ | 1 # # # # # # # # # # # # # # # # # # # # # # # # # 2 * 3 4 ",
"5 6 7 , % 8 @ , # # # # # # # 9 # # # # # # # # # # # # , 0 a } b c d e f ] ] ] # # # # # # # # # # # # # # # # # # # # # g h i ",
"_ j k l m + n @ , # # # # # o p $ , # # # # # # # # # # , q r s t u v d a w x y z A # # # # # # # # # # # # , # # # # # # # @ + ",
"B C D E ; n F G , # # 9 H I J K L , # # # # # # # # # # # > & 8 M N O P O O Q R R % @ S S g # , S , # # # # S T # # # # 9 f U + ",
"5 V . + + + W 2 , # 9 X w Y Z & ~ # # # # # # # # # # # # # @ ) i ` j B  .; 8 8 8 8 ..2 > * @ % % , # # # # T ..~ , 9 +.[ @.#.$.",
"5 j %.) + + 8 &.L *.=.-.O ;.>.,., # # # # # # # # # ] H +.1 2 n - '.).!.~.~ , , , , , # $ @ * 8 % , # # # # # F & { {.].^.#./.(.",
"_ _.+ + 8 @ 2 , , , # $ @ :.<.'.[.# # # # # # }.^ e a d } I > ..~ , , # # # # # # # # # # # # F + G # # # # , *.2 , 2 W + |.` 1.",
"B . + + @ # # # # # # # # $ ~.2.3., # # # # # 9 H 4.5.} [ 6.7., # # # # # # # # # # # # # , S / + % 2 , # # # # # 9 9 8.9.; D j ",
"0._.+ 8 a.9 # # # # # # # # # b.; @ 2 , # # 9 H +.[ } c.d.7., # # # # # # # # # , # # # # # , 2 % + 8 e.^ H ] ] f c f.g.2 F h.i.",
"j.k.. 8 l.m.] # # # # # # # , % + 8 & @ , }.J v d a n.o.% , # # # # # # # # # # S , # # # # # , % + 8 p.^.q.w w r.^.s.* * t. .D ",
"u.v.k.i w.x.J y.S , # # # # $ n W 2 > / & z.d.d.d.A.& n B.< # $ T # # # # # # , &.> # # # # # S + W 2 > & Q O O R /.. _.C.i.D + ",
"D.E.F.G.H.I.J.K.n @ , # # # , S , # g F 8 8 8 8 ) i ( $.d.w f G 8 T # # # , G * n 8 > , # # # , S , # g F 8 8 8 L.M.B _ 5 N.O.P.",
"j.Q.j.R.S.( '.T.* / U.2 # T g # # # , ~ ~ , , 2 % ` 5 C.p.Y [ V.G $ # # , ..+ n & F 8 W.X.> G g # # # , ~ ~ , , , Y.Z.`. +.+++@+",
"#+$+V D ; F G # # [.Z.%+&+&.2 # # # # # # # # # , b.*+=+. -+;+[ I I I +.y.G @ ~ , , >+=+i ; & 2 # # # # # # # # # # , ,+'+)+C !+",
"#+~+D + 8 2 , # # # {+: ]+^+~ G , # # # # # # # # # ~.<.i n /+(+I I I f 9 # # # # # _+:+; * ^+~ G , # # # # # # # # # # <+i + ) ",
"[+}+D + + ' S # # [.|+b.2 / n ' , # # # # # # # # # G ( ( 1+2+3+4+# # # # # # # # [.5+C.* , q n % , # # # # # # # # # # 6+i + ) ",
"7+8+i + + + % 2 [.9+0+Y.S n + n G # # # # # # # # # 2 L.L.a+} b+I I I f 9 # # , N c+d+C.@ # @ + ' $ # # # # # # # 9 f +.e+h . >.",
"f+g+|.. + + + 8 h+=+h.W S > @ @ $ # # # # ] ] H +.1 , 8 n i+j+d } } } k+[ < ~ l+<.m+n+2.= # , G @ $ # # # # # ] f [ k+[ 9 * %.o+",
"p+q+r+ .. + 8 * N b.@ ~ , # # # # # 9 p s+t+w v x.u+@ n . v+w+x+a+s s s n.y+n h+6+Y.2 2 , # # # # # # # 9 +.e a k+} ;+z+7 c+_.+ ",
"j.5 =+=+- n > # # # # # # # # # # # # ] ] ] ] ] -.A+% 8 ; i ( h+& &.&.&./ + 8 ^+# # # # # # # # # # # # 9 +.I I I +.B+C+D+d+<.i ",
"E+_ F+. + F # # # # # # # # # # # # # # # # # # # # , , * + % ~ , , , , 8.8 F # # # # # # # # # # # # # # # # # # # # # [.G+C._.",
"5 <.) n * L , # # # # # # # # # # # # # # # # # # # # # * & 2 # # # # # , % & 2 # # # # # # # # # # # # # # # # # # # # # [.H++ ",
"5 ( + n > @ > # # # # # # # # # # # # # # # # # # # # , & ' , # # # # # # G + @ # # # # # # # # # # # # # # # # # # # # # ~ n + ",
"5 C.+ + n n 8 T # # # # # # # # # # # # # # # # # # # , & % , # # # # # # , F &.-.] ] ] ] 9 # # # # # # # # # # # # # # , G * % ",
"_ I+; 8 + + + * # # # # # # # # # # # # # # # # # # # # > > # # # # # # # , 7.J+K+s+t+w w L+# # # # # # # # # # # # # # $ > # , ",
"C.L.M+2 ..8 + 8 @ 2 # , # # # # # # # # # ] f I I N+a.G % q , # # # # # # , ^+O+& $ 4+P+] 9 # # # # # # # ] f I I N+a.G % q 2 G ",
"C.+ l+Q+8.Y.' % % R+[.R+> , # # # # # # 9 L+w S+T+#.8 n % T # # # # # T @ % n % ..2 , R+> , # # # # # # 9 L+w S+T+#.8 n % ~ 8.8 ",
"B o+C.`.U+V+& 2 , , # * n & N 2 , , , ~ @ @ A.Q W++ n > , # # # # , S &.8 + 8 2 g , # * n & N 2 , , , ~ @ @ A.Q W++ n > , , / + ",
"5 _ 4 ( + + 8 , # # # G n . - n 8 8 8 n + + + C - + 8 2 # # # # # # , , 8.& 8 , # # # G n . - n 8 8 8 n ) D i C.- n @ , , @ t.X+",
"E+5 ! D + n % $ # # # , F . i.<.i C i - - 3 Y+v+B _.+ G # # # # # # # # # T ..$ # # # , F . i.<._.D i h+2.Z.<+Z+S.- `+# > n !+p+",
"$+5  @C 8 @ , , # # g L & 8 : ( '..@+@~.b.^+[.7 @@$.+ % , # # # # # # # # # , , # # g L & 8 : ( 3 .@#@Y.[., # Y.#@$@Y.> 8 o+8+%@",
"%@&@*@=@* # # # # # , , , , ~ G 2 , # # # # # # $ @ % + G # # 4+# # # # # # # # # # , , , , ~ G 2 , # # # # # # # 2 q ; o+! -@[+",
"#+[+;@>@$ # # # # # # # # # # # # # # # # # # # # # , ,@T 9 | v | 9 # # # # # # # # # # # # # # # # # # # # # # # # F _.=+'@j.[+",
"[+-@-@)@!@9 # # # # # # # # # # # # # # # # # # # # # , # N+k+} k+m.H 9 # # # # # # # # # # # # # # # # # # # # , 8.V+>.o+C 8+%@",
"~@{@5 ]@^@j+H 9 # # , ~ $ # # # # # # # # # # # # # # # , /@s (@} } d [ I I I +.9 # # # # # # # # # # # # # # # g _@>.B C.C.:@%@",
"$+5 _ N.<@[@}@|@1@{.% / T # # # # # # # # # # # # # # # , ..% 2@3@s s s n.4@^.5@e.@ @ @ ~ 2 G G , # # # # # # , ~ 6@. F+_ 5 F.[+",
"j._ F+o+=+7@8@9@0@a@p.[.# # # # # # # # # # # # # # # # # , % + ) c+'.Y+n + + + + n ; . ; 8 + & , # # # # # # g G % 8 b@c@E.d@#+",
"p+! . + . ( =+ +e@ .f@4+# # # # # # # # # # # # # # # # ] 9 $ g@:+=+m+h@U.% % @ @ ~ i@Z.3 i _.]+# # # # # # # # # , j@k@7+%@d@#+",
"%@:@o++ + + r+l@m@n@o@| 9 # # # # # # # # # # 9 ] H +.e 3+< [.p@q@N [., , , , # # # # , [.%+=+h+> # # # # # # # # o q.r@s@t@D.~@",
"[+F.B o+) + =@u@v@D ^.k+[ +.H ] # # , , # # # }.s+w@} d u # > 8 2 # # # # # # # # # # # # @ ; x@y@# # # 9 ] f I e x.z@a@A@g+B $+",
"#+d@F.0.` =@B@C@D@E@R ^.F@G@x.H@I@G % S # # # ] f J@5.k+4.K@L@8 , # # # # # # # # # # # # , 2 h M@N@# # L+a k+} } O@P@) . . B j.",
"#+[+7+Q@( R@S@) , 2 @ & s.T@#.R 8 n * , # 9 I a k+} d d S+U@V@/.i@# # # # # # # # # # # # # # 7 W@X@Y@#@Z@`@ #F@^.R + ( ( F+8+$+",
"[+-@.#!++ ' % 8 , # # , , ~ @ @ % + % @ N +#@###I $#%#&#*#=#` )+6+# # # # # # # # # # # # # # -#l ;#>#,#`.'#)#R + + _.`.=+_ D.~@",
"%@D.5 <.6@$ , S , # # # # # # # , G * !#<.~#{#]## # , 2 7 n r+S.^#/#9 # # # # # # # # # # # # (#4+, 8.!#( _.) + + _#l+Q+:#8+Q.#+",
"#+j.5 B ]+# # # , # # # # # # # ] 4+<#[#}#|#1#2#] ] ] 4+Q+( B j.~@3#m.] # # # # # # # # # # # 9 ] 4+[.6@+ + 8 8 8 4#2 # Y.5#d@#+",
"#+6#8+B W.8., , 7., # # 9 ] ] | a 7#8#9#0#a#b#x q.c#d#e#f#C.! Q.#+g#} [ f ] 9 # # # # # 9 ] ] | a 7#8#h#) ..2 , , 9 9 i#5+5 E.#+",
"#+j#g+o+ .; & F n k#f.I [ d d k+l#m#n#o#p#8.q#r#o.+ + + + + ( D.~@s#t#u#v#d#w#2 a.x#f.I [ d d k+y#z#A#o#B#, # ] I C#D#E#_ B c@%@",
"#+$+F#) . G#C.( - H#I#J#^.^.^.K#L#M#N#O#Y.# , ~ ' + + + + + D B $+j.v.P#Q#) + 8 8 R I#J#R#I I z+S# +T#O#Y.# , N+T+J#I#- o+. U#%@",
"#+j._ <.( j 5 k.D ) + + + + + + $.i.j.V#8 F & n + + + + + + ) <.W#c@B ` . + + + + + + n F @ ~ 8.X#B E.Q@8 F ..Y#P@+ + ) + . Z#%@",
"#+E.5 5 5 5 _ _.+ + + + + + + + + C.E+X++ + + + + + + + + + + (  +`#. ) + + + + + + + + + + n 8 + C.{@ $+ + + + + + + + _.=+{@%@",
"%@D._ j 5 5 =+. + + + + + + + + + i 5 C.) + + + + + + + + + + ( 5 B i |.+ + + + + + + + + + + + + i 5 C.) + + + + + + + ( 5 {@%@",
"%@{@B C i ( _.+ + + + + + + + + + C B _ ` . + + + + + + + + + i 5 B C ) + + + + + + + + + + + + + C B _ i ) . ) + + . i j 5 {@%@",
"%@{@_ F#D . + + + + + + + + + + _.k.5 ,#>#=+C._.) + + + + + + D B _ _.+ + + + + + + + + + + + ) i k.5 5 j <.v+T.' . .$=++$5 D.%@",
"[+F.5 5 B =+( . + + + + + + + ) - j 5 @$Y.#@6++@#$8 + + + + + D =+B <.. + + + + + + + + + + + . :+C.j _ $$6+Q+, * + . . F#5 E.#+",
"#+j.5 5 5 5 4 :+i |.+ + + + + + + ( 5 6 Q+# # , 8.F n + + + + %$&$r+- %+Y+U+- ( i |.+ + + + + + . . k._ :.8.G % n + + + ( {@*$#+",
"#+*$D.5 5 _ ( . . ) + + + + + + + i  +=$n+b.* & 8 + + + + + . (.-$V ~.2 [.[.Q+{+;$) + + + + + + + i  +=$<.; + + + + + ) <.1.>$,$",
"#+#+~@'$5 j C + + + + + + + . - ) D 8+)$0._.+ + + + + + + . F#j.p+ +%+N @ @ @ % n + + + + + + + ) <.{@)$G.( + + + + + . v+!$r+~$",
"#+%@&@{$E.=$=+( ) + + + + . ` v+. D 8+6#]$q+D ) + + + . o+=+=+^$/$ +`#) + + + + + + + + + + ) $.C B D.($l@_$Y+t.+ n 8 & :$n <$[$",
"#+&@5 {@{@ +_ ( ) + + + . }$6+|$8 i D.%@1$2$3$4$@ @ N 5$+@6+/#6$7$F.4 >.8$) + + + + + + + + |.i k.5 j.9$0$a$Z@@ @ ~ , , @ ) b@@+",
"#+b$8+5 5 j i ) + + + + + t.b.% ) c$Q.#+d$e$[ I f ] ] ] 9 +.[ f$g$$+h$i$D + + + + + + + + + + . B j$%@#+d$e$[ I f ] # , X.<.:@%@",
",$k$D i ( t.8 + + + + + + + <$C l$s@m$#+n$o$s p$q$w r$z s$x T+t$u$6#N.B ( . + + + + + + + + + .   v$j#&@w$o$s p$r.x$y$%+,#5 {@%@",
"z$C + + n > 2 G @ @ ' + n * A$B$C$D$E$~$z$F$8 G$s.O M 8 8 Q z.) H$[$F+I$+@J$) + + + + + + + + t.K$D$L$M$N$F$8 G$Q + ) i C._ {@%@"};
