/* XPM */
static char * Wall3_xpm[] = {
"64 64 474 2",
"  	c #47ABA9",
". 	c #47A9A7",
"+ 	c #46A8A6",
"@ 	c #499C9A",
"# 	c #4D8F8D",
"$ 	c #4D8F8E",
"% 	c #4D908F",
"& 	c #4BA9A7",
"* 	c #49A9A8",
"= 	c #49AAA8",
"- 	c #49A9A7",
"; 	c #4C918F",
"> 	c #4F7F7E",
", 	c #526D6C",
"' 	c #729D9D",
") 	c #739F9F",
"! 	c #496162",
"~ 	c #3B4F52",
"{ 	c #3E5356",
"] 	c #425A5D",
"^ 	c #668E91",
"/ 	c #7AAAAC",
"( 	c #699395",
"_ 	c #5E8182",
": 	c #506D6C",
"< 	c #4C8E8C",
"[ 	c #4C8F8E",
"} 	c #4A9D9B",
"| 	c #4B908F",
"1 	c #48A8A6",
"2 	c #47AAA8",
"3 	c #4A9C9A",
"4 	c #4F6F6E",
"5 	c #456061",
"6 	c #294049",
"7 	c #679193",
"8 	c #739E9F",
"9 	c #557575",
"0 	c #537372",
"a 	c #527070",
"b 	c #506E6D",
"c 	c #506A69",
"d 	c #536F6F",
"e 	c #54706F",
"f 	c #516D6C",
"g 	c #5B8685",
"h 	c #567979",
"i 	c #516B6A",
"j 	c #75A5A6",
"k 	c #8AC0C1",
"l 	c #8CC3C4",
"m 	c #608C8B",
"n 	c #526E6D",
"o 	c #516F6E",
"p 	c #527271",
"q 	c #506F6E",
"r 	c #51706F",
"s 	c #567C7B",
"t 	c #5C8786",
"u 	c #577B7A",
"v 	c #4E807F",
"w 	c #4E6B6A",
"x 	c #3C5355",
"y 	c #3A4E51",
"z 	c #222F3A",
"A 	c #78A8AA",
"B 	c #7FB1B1",
"C 	c #74A0A1",
"D 	c #89BFC0",
"E 	c #89BEBF",
"F 	c #5E8988",
"G 	c #619190",
"H 	c #6A9F9E",
"I 	c #619291",
"J 	c #526F6E",
"K 	c #679D9D",
"L 	c #80B4B3",
"M 	c #A0CAC0",
"N 	c #8EC4C4",
"O 	c #8AC1C2",
"P 	c #7BB1B2",
"Q 	c #689E9E",
"R 	c #88BEBF",
"S 	c #89C0C1",
"T 	c #78AEAE",
"U 	c #587C7B",
"V 	c #7AB0B0",
"W 	c #689F9F",
"X 	c #597E7E",
"Y 	c #52706F",
"Z 	c #506B6A",
"` 	c #587A7C",
" .	c #4E6E72",
"..	c #25333E",
"+.	c #26343F",
"@.	c #8BC2C3",
"#.	c #72A8A8",
"$.	c #587E7D",
"%.	c #8DB0A2",
"&.	c #ADCDBA",
"*.	c #69A0A0",
"=.	c #5C8887",
"-.	c #6C9F9C",
";.	c #CADAB3",
">.	c #CDDCB6",
",.	c #93C5C3",
"'.	c #90C4C3",
").	c #72A8A9",
"!.	c #669B9B",
"~.	c #547271",
"{.	c #73AAAA",
"].	c #516E6E",
"^.	c #4B918F",
"/.	c #3F9796",
"(.	c #367F80",
"_.	c #428887",
":.	c #4E7E7D",
"<.	c #6E9E9E",
"[.	c #8BC1C2",
"}.	c #87BDBE",
"|.	c #446569",
"1.	c #669C9C",
"2.	c #A4C0A9",
"3.	c #B0D0BC",
"4.	c #7AB1B1",
"5.	c #619393",
"6.	c #6C9E9C",
"7.	c #CBDBB4",
"8.	c #D0DEB5",
"9.	c #CEDDB6",
"0.	c #A4CBC0",
"a.	c #669D9D",
"b.	c #608D8C",
"c.	c #83B2B1",
"d.	c #688C8B",
"e.	c #659A9A",
"f.	c #619191",
"g.	c #577A7A",
"h.	c #418686",
"i.	c #3C5053",
"j.	c #567A79",
"k.	c #587D7C",
"l.	c #7EAFB0",
"m.	c #82B9B9",
"n.	c #73A9A9",
"o.	c #A2CBC0",
"p.	c #B2D1BD",
"q.	c #C1D7B9",
"r.	c #CADBB7",
"s.	c #8EC3C2",
"t.	c #699E9D",
"u.	c #7CB1B1",
"v.	c #89A798",
"w.	c #A8C1A9",
"x.	c #CDDCB4",
"y.	c #CCDBB4",
"z.	c #C9DAB4",
"A.	c #A4C0AB",
"B.	c #74A9A8",
"C.	c #679E9E",
"D.	c #71A8A8",
"E.	c #83BABA",
"F.	c #91C5C3",
"G.	c #B1D1BD",
"H.	c #B3D2BC",
"I.	c #AECEBB",
"J.	c #71A7A8",
"K.	c #659B9B",
"L.	c #516E6D",
"M.	c #8CC2C2",
"N.	c #AECFBE",
"O.	c #B2D0BC",
"P.	c #96BCB0",
"Q.	c #74AAAA",
"R.	c #5D8988",
"S.	c #577C7B",
"T.	c #639494",
"U.	c #89C0C0",
"V.	c #526F6F",
"W.	c #537170",
"X.	c #689693",
"Y.	c #6DA09E",
"Z.	c #82B9BA",
"`.	c #7CB2B3",
" +	c #73A9AA",
".+	c #90B8AD",
"++	c #A3C0AA",
"@+	c #A6C1AA",
"#+	c #A5C1AA",
"$+	c #7EB2B1",
"%+	c #6AA0A1",
"&+	c #609190",
"*+	c #4C908F",
"=+	c #99C1B7",
"-+	c #A1CAC0",
";+	c #7DB4B4",
">+	c #5D8887",
",+	c #729E9E",
"'+	c #4D9190",
")+	c #649A9A",
"!+	c #C2D8B9",
"~+	c #7BB1B1",
"{+	c #619292",
"]+	c #70A29F",
"^+	c #92B9AE",
"/+	c #83BABB",
"(+	c #ABC8B3",
"_+	c #82B5B2",
":+	c #6BA1A2",
"<+	c #84BABB",
"[+	c #79AFB0",
"}+	c #79AEAF",
"|+	c #7AB0B1",
"1+	c #82B8B9",
"2+	c #6AA1A1",
"3+	c #79B0B0",
"4+	c #7CB3B3",
"5+	c #5A7F7F",
"6+	c #5F8B8B",
"7+	c #618D8D",
"8+	c #6A9797",
"9+	c #8FC4C3",
"0+	c #557474",
"a+	c #557272",
"b+	c #577675",
"c+	c #7AAFB0",
"d+	c #83B9BA",
"e+	c #9FCAC1",
"f+	c #B1D0BD",
"g+	c #CBDCB7",
"h+	c #CFDDB5",
"i+	c #B0CFBC",
"j+	c #74ABAB",
"k+	c #C9DAB6",
"l+	c #A8C3AB",
"m+	c #8DB2A4",
"n+	c #A4BFA8",
"o+	c #819584",
"p+	c #4F6968",
"q+	c #84BBBC",
"r+	c #A6CCBF",
"s+	c #CFDEB5",
"t+	c #A2C9BE",
"u+	c #77ABAB",
"v+	c #A5CCC0",
"w+	c #BFD7BA",
"x+	c #C0D7B8",
"y+	c #869E8E",
"z+	c #9CC2B5",
"A+	c #6BA1A1",
"B+	c #8FB2A3",
"C+	c #4A7274",
"D+	c #9FC8BE",
"E+	c #B1D0BB",
"F+	c #B0CFBB",
"G+	c #81B3B1",
"H+	c #C0D6B8",
"I+	c #BED5B8",
"J+	c #A9C7B3",
"K+	c #70A19E",
"L+	c #4F6A69",
"M+	c #1D2634",
"N+	c #22323D",
"O+	c #86BAB9",
"P+	c #BDD6BA",
"Q+	c #6BA09E",
"R+	c #6D9F9C",
"S+	c #699D9C",
"T+	c #4F6867",
"U+	c #3D5255",
"V+	c #547E7E",
"W+	c #639999",
"X+	c #659C9C",
"Y+	c #537070",
"Z+	c #76AAA8",
"`+	c #CCDCB5",
" @	c #405659",
".@	c #465E5E",
"+@	c #2D3C43",
"@@	c #253540",
"#@	c #416266",
"$@	c #527C7E",
"%@	c #639393",
"&@	c #ABC8B2",
"*@	c #8DC2C2",
"=@	c #609191",
"-@	c #71A7A7",
";@	c #588788",
">@	c #31444A",
",@	c #161C2E",
"'@	c #89BFC1",
")@	c #8BC2C2",
"!@	c #6AA0A0",
"~@	c #6D9D9D",
"{@	c #6EA19F",
"]@	c #BED4B7",
"^@	c #CBDCB6",
"/@	c #BED6BA",
"(@	c #6D9E9E",
"_@	c #4B7375",
":@	c #171D2F",
"<@	c #679093",
"[@	c #7BB2B3",
"}@	c #7DAEAA",
"|@	c #B2D1BC",
"1@	c #78AAAA",
"2@	c #70A5A6",
"3@	c #5A8484",
"4@	c #1B2332",
"5@	c #70A7A7",
"6@	c #AAC7B2",
"7@	c #CDDCB5",
"8@	c #82B8B8",
"9@	c #5B8585",
"0@	c #2E3E44",
"a@	c #22303C",
"b@	c #81B7B8",
"c@	c #547170",
"d@	c #5E8887",
"e@	c #A0C9BE",
"f@	c #5A7F7E",
"g@	c #6B9B9C",
"h@	c #314248",
"i@	c #B0D0BD",
"j@	c #699494",
"k@	c #9AC0B4",
"l@	c #B3D0BB",
"m@	c #639595",
"n@	c #5B8181",
"o@	c #9DC9C1",
"p@	c #4E6F70",
"q@	c #7FB1B2",
"r@	c #ABC9B5",
"s@	c #80B4B2",
"t@	c #688F8F",
"u@	c #668D8C",
"v@	c #7FB2B1",
"w@	c #7FB3B1",
"x@	c #7FB2B0",
"y@	c #85BBBC",
"z@	c #7EB3B2",
"A@	c #649999",
"B@	c #658A8A",
"C@	c #5B8584",
"D@	c #506C6B",
"E@	c #658C8B",
"F@	c #304248",
"G@	c #5F8F8F",
"H@	c #5C8787",
"I@	c #304046",
"J@	c #3F5558",
"K@	c #75A6A6",
"L@	c #B7CDB0",
"M@	c #629393",
"N@	c #476060",
"O@	c #465C5D",
"P@	c #719C9D",
"Q@	c #729F9F",
"R@	c #90C3C2",
"S@	c #A7C2AA",
"T@	c #8DB1A3",
"U@	c #3C5B5F",
"V@	c #3A4D51",
"W@	c #192030",
"X@	c #2F4047",
"Y@	c #456668",
"Z@	c #5F8B8A",
"`@	c #649595",
" #	c #5B8C8D",
".#	c #4E787A",
"+#	c #4C7577",
"@#	c #4D6E6F",
"##	c #537C7D",
"$#	c #658B8B",
"%#	c #658C8C",
"&#	c #5E8A89",
"*#	c #5E8A8A",
"=#	c #557372",
"-#	c #516C6B",
";#	c #4E7779",
">#	c #161D2E",
",#	c #739FA0",
"'#	c #7BB0B0",
")#	c #648A89",
"!#	c #629292",
"~#	c #6A9696",
"{#	c #77A8A9",
"]#	c #22303B",
"^#	c #486162",
"/#	c #86BCBC",
"(#	c #CCDCB6",
"_#	c #AFCFBD",
":#	c #79ACAA",
"<#	c #CDDDB6",
"[#	c #B5D2BC",
"}#	c #60908F",
"|#	c #668D8D",
"1#	c #6BA2A2",
"2#	c #A1C9BF",
"3#	c #75ACAC",
"4#	c #A8C7B4",
"5#	c #B1CFBB",
"6#	c #A2BFAB",
"7#	c #85BABA",
"8#	c #7DB2B2",
"9#	c #81B8B8",
"0#	c #C0D7B9",
"a#	c #A3BFA9",
"b#	c #94B9AD",
"c#	c #679695",
"d#	c #537271",
"e#	c #8EC2C1",
"f#	c #C8DAB5",
"g#	c #B9CEAE",
"h#	c #5B8686",
"i#	c #5C8686",
"j#	c #6FA2A0",
"k#	c #609090",
"l#	c #34474C",
"m#	c #4E6969",
"n#	c #1F2936",
"o#	c #475E5E",
"p#	c #9FC9BF",
"q#	c #C7D9B5",
"r#	c #B3D1BC",
"s#	c #CADAB4",
"t#	c #95BBAF",
"u#	c #2E3D44",
"v#	c #9DC8BF",
"w#	c #679C9C",
"x#	c #3D5154",
"y#	c #506A6A",
"z#	c #658C89",
"A#	c #AECCB8",
"B#	c #AFCEBA",
"C#	c #9DC6BD",
"D#	c #3B5A5E",
"E#	c #4E6867",
"F#	c #314147",
"G#	c #3E5355",
"H#	c #304349",
"I#	c #1E2B38",
"J#	c #2F3F45",
"K#	c #618D8C",
"L#	c #7FB0B0",
"M#	c #5A8080",
"N#	c #557878",
"O#	c #436265",
"P#	c #3C5154",
"Q#	c #618E8D",
"R#	c #72A9A9",
"S#	c #53706F",
"T#	c #5F9090",
"U#	c #1D2835",
"V#	c #3E5457",
"W#	c #668C8C",
"X#	c #71A6A6",
"Y#	c #4E6968",
"Z#	c #567373",
"`#	c #689D9D",
" $	c #75A1A1",
".$	c #76A7A7",
"+$	c #557271",
"@$	c #8FC3C2",
"#$	c #1F2B37",
"$$	c #6E9F9F",
"%$	c #81B3B3",
"&$	c #80B3B2",
"*$	c #C9DBB7",
"=$	c #AECAB3",
"-$	c #8EAC9F",
";$	c #8DC3C3",
">$	c #79AAA8",
",$	c #96BBAE",
"                . . + @ # $ $ % & * * = - ; > , ' ) ' ! ~ ~ ~ { ] ^ / ( _ : < [ } . . . . . . . . } [ [ | 1 2                   ",
"          . . 3 4 5 6 7 8 ) ) ' 9 0 0 a b c d e d c c f g h i j k l l l k m g n o 0 0 p q b 0 0 r s t t u b v }                 ",
"        3 4 w x y z A l l l l l k k k B ) C D k E F f G H I J K L M N l l O P Q K R S T U 8 D k V K W W K X e Y < [ [ } . 2     ",
"      } b Z `  ...+.D l l l l l l l l l l l l l @.#.$.%.&.*.=.-.;.>.,.'.l l l S W ).).!.~.R l l S {.O @.@.O k B ' d c ].q v ^.2 ",
"/.(._.:.n <.O [.}.|./ @.l l l l l l l l l l N '.l P 1.2.3.4.5.6.7.8.9.>.0.'.'.O W a.1.$.u b.V 4.*.P l l l l l l l c.d.e.f.g.b 1 ",
"h.i.j.k.l.@.l l @.m.n.*.P @.l l l l '.o.p.p.q.r.s.).1.t.u.).K ~.v.w.7.x.y.z.A.B.a.C.W K C.a.C.W W D.E.@.N F.G.p.H.>.I.J.a.K.L.[ ",
"[ j.K.Q @.l l l l l @.P C.).P E.@.M.N.G.p.p.O.P.Q.a.R.S.T.W U.<.V.W.X.Y.Y.Y.a.a.W Z.@.@.O `.E.@.O  +*.*..+++@+@+@+#+$+%+W a.&+: ",
"*+f.a.K =+-+l l l l l @.W a.a.W Q.;+@.l l l l @.O `.V >+,+`.E.U.K Q V P P P D.C.Z.l l l l l l l l @.O n.a.W 4.P P P `.O O ).K.f ",
"'+)+&+R.2.!+G.F.'.N @.Z.C.a.*.Z.@.l l l l l l l l l @.Q ~+@.`.*.).O l l l l `.C.E.l l l l l l l l l l @.).4.l l l l l l l `.K.f ",
":.n t {+]+;.8.9.z.^+*.C.W P O l l l l l l l l l l l E.W E.l @.*.E.l l l l l O W ).@.l l l l l l l l l l /+Q.@.l l l l l l O K n ",
"c u K ).).]+2.(+_+W a.D./+l l l l l l l l l l l l l P W @.l @.:+@.l l l l l @. +W Z.l l l l l l l l l l l <+@.l l l l l l O W g ",
"i f.[+S D }+1.|+@.1+).P @.@.@.@.l l l l l l l l l l `.2+@.l @.P D k k k @.@.@.O 3+*.4+@.@.@.@.@.l l l l l l l l l l l @.l `.1.u ",
"i g k.5+6+7+8+P 4+;+@.`.2+2+W P l l l l l l l l l l @.@.9+N <+K 0+a+b+7+ +Q.Q.4+`.E.@.4+2+2+W P l l l l l l l l l l @.4+E.D.e.f ",
"c h f.C.P O @.l l l l @.@.1+C.W /+l l l l l l N '.F.G.H.>.G.O %+c+~+k @.@.@.@.l l l l @.@.1+C.W /+l l l l l l N '.9+d+W C.a.t c ",
"i f.C.4.l l l l l l l l l `.W a.4.l l l l l l e+f+g+8.8.h+i+j+d+l l l l l l l l l l l l l `.W a.4.l l l l l l e+f+k+l+m+]+n+o+p+",
"f K.4.q+@.l l l l l l l l @.O ).W 4.<+l l l l l '.r+s+9.t+u+d+l l l l l l l l l l l l l l @.O ).W 4.<+l l l l l '.v+w+x+x.x.y+i.",
"f K.4.@.;+@.l l l l l l l l l 4.a.a.D.<+l -+p.H.>.h+>.z+A+d+l l l l l l l l l q+@.l l l l l l 4.a.a.D.<+l -+p.H.>.p.F.q.y.B+n y ",
"C+a.W Z.4.n.@.l @.4+@.l l l /+A+4.P ).D.`.D+E+E+E+F+G+W P N l l l l l l l l @.Q.O l l l l l /+W W 4.).D.`.D+E+E+H+I+J+2.K+G L+M+",
"N+)+a.C.C.a.).P ).).@.l l l q+O l l O 3+C.W W W W K K.K O+P+'.l l l l l l @.S W n.@.l l l l /+%+Z.l O 3+C.W W W Q+R+S+f.u i T+M+",
"U+V+W+X+a.a.a.a.W D.`.@.l l l l l l q+Q.).P P 4.K Y+f =.Z+`+p.l l l l l Z.*.W a.W ).`.k @.@.@.@.l l q+Q.).P P 4.K Y+f f  @U+.@y ",
"~ +@@@#@$@C.).`.S P *.).`.O l l l l l @.@.l l l Z.%@f u K &@9.0.'.'.'.*@A+W ).`.S W =@5+-@2+<+l l l l @.@.l l l Z.%@J )+)+;@>@+@",
",@..A D '@)@@.l l l S !@a.j+@.@.l l l l l l l l l O ~@n f.{@]@>.^@^@/@e+@.@.@.l k F f J K  +@.@.l l l l l l l l l O (@R.1.a._@,@",
":@<@l l l l l l l l l O [@4.).A+@.l l l l l l l l l P g t H }@|@F.'.N l l l l l 1@g n 2@S P ).Q.@.l l l l l l l l l P t f.a.3@4@",
"..R l l l l l l @.@./+q+E.C.a.5@<+l l l l l l l l l E.t >+6@7@!+F.'.N l l l l @.).f.W.8@@.W a.4.l l l l l l l l l l E.R.=.a.9@0@",
"a@b@@.l l l /+P ).W W 1+Z.).W W `.l l l l l l l '.N k c@d@e@9.h+9.9.q.o.N @.E.).K.f@g@P @. +W 2+<+l l l l l l l l l @.Q 1.K.n ~ ",
"h@{+).P P 4.W W W W W  +;+@.@.@.@.l l '.F.G.p.H.>.i@D d f j@k@l@>.9.9.>.J+).C.m@n@l.`.Q.@.@.@.@.@.l l l l l l l N o@S W 1.t u p@",
"p+g.e.K.f.>+q@@.@.@.@.@.l l l l l l N N.i@p.p.p.r@s@t@U g n W.u@v@w@w@x@Q+a.n.k k l @.@.l l l l l l l l l l l l y@z@%+1.$.Y+A@g ",
"c c f f i B@@.l l l l l l l l l l l l l l l l l @.@.k d+J.K.1.-@P P P 4.C.).@.l l l l l l l l l l l l l l l l l @.@.E.).K.K.k.i ",
"c i n C@n ' l l l l l l l l l l l l l l l l l l l l l l P C.Z.@.l l l @.*.).@.l l l l l l l l l l l l l l l l l l l l O W a.f.i ",
"c g K.a.K.f@l.l l l l l l l l l l l l l l l l l l l l @.).D.@.l l l l l 4.C.E.l l l l l l l l l l l l l l l l l l l l @.W a.1.u ",
"i f.a.a.a.f.c@B l l l l l l l l l l l l l l l l l l l @.W %+@.l l l l l /+*.).@.l l l l l l l l l l l l l l l l l l l @.W a.a.t ",
"D@K.a.a.a.1.S.E@O l l l l l l l l l l l l l l l l l l @. +P l l l l l l l S *.[@@.l l l l l l l l l l l l l l l l l l Z. +4.1.j.",
"F@G@J.4.W a.1.K.).`.@.l l l l l l l l l l l N '.'.'.l @.Z.P @.l l l l l l l 1+3+j+@.l l l l l l l l l l l l N '.'.'.y@4+@.Z.H@I@",
"~ J@K@l /+4.C.W 4.`.@.4+@.l l l l l l l N N.q.9.`+L@u.*.W  +@.l l l l @.@.E.).W W <+@.4+@.l l l l l l l N N.q.9.`+L@u.P 4.M@N@4@",
"O@~  @P@) Q@Q Z.l l @.).).`.O l l l l @.@.R@F+S@T@H a.).E.@.l l l l Z.*.W C.C.Z.4+@.@.).).`.O l l l l @.@.R@F+S@T@t.a.X+W+U@O@V@",
"W@X@Y@j.f S.Q @.l l l `.C.M@Z@}+~+P V -@K K K e.R.a.W O l l l l l @.4+P 4.W W @.@.l l `.C.1.`@V P P P ).W W W K.S.R.C. #.#+#@#+@",
"W@##1.1.K.C.P @.l l l @.3+K.S.n u g n J $#C %#J f f.W @.l l l l l l l l l /+ +<+l l l @.3+K.J u =.)+=.R.&#6+*#=#-#&+[+[@P 4.;#>#",
"X@=@a.a.a.4.l l l l q+Q.*.W K f.F j@,#c+/+l O '#)#k.C.O l l l l l l l l l l @.@.l l q+Q.*.W !#t F ~#,#c+1+k k D C {#j+S @.Z.)+]#",
"^#K.a.a.a.P l l l l @.@.@.@.E.`.O @.l l l l l l /+-@C.).`.@.l 9+l l l l l l l l l l @.@.@.@.E.`.O @.l l l l l l l l O %+W C.f.L+",
"f K.W C.a.P l l l l l l l l l l l l l l l l l l l @.E.P P /#0.(#0.N l l l l l l l l l l l l l l l l l l l l l l l l @.P *.{+h c ",
"c F U.Z.W ).O l l l l l l l l l l l l l l l l l l l l l l _#h+8.9./@F.N l l l l l l l l l l l l l l l l l l l l l l l l Z.%@n c ",
"c n <.O 4.a.!@S l l l l l l '.e+@.l l l l l l l l l l l @.:#E+<#[#0.>.q.p.p.G.F.l l l l l l l l l l l l l l l l l l l l @.|+K.g.",
"f }#t |#-@a.W 1#@.l l l l F.P+2#3#@.l l l l l l l l l l @. +).G+4#s.i+E+5#S@@+6#7#@.@.@.@.l l @.l l l l l q+@.l l l l l N 8#a.g ",
"i &+a.K.a.C.9#@.l l l o.H.(#5#n.P l l l l l l l l l l l l @.).a.1.%@F %@W a.a.a.C.2+`.`.E.@.Z.1#@.l l l l `.P @.l l '.o.0#a#K.f ",
"c n R.1.a.a.W 4.E.@.N _#5#b#c#Q O l l l l l l l l l l l '.N E.1.d#n c@*##.P P P P /+l 4+2+2+C.3+l l l l l @. +).`.e#f#y.g#Y.h#~ ",
"c i#K.a.a.*.4.P `.;+@.4+2+*#n %@@.l l l l l l N '.F.G.H.>.G.O *.-@~+k @.@.l l l l l l @.@.O ).W /+l l l l @.j+4.P `.j#Y.t.k#l#W@",
"f e.a.a.).O l l l l l @.@.~+!#k.B l l l l l l e+f+g+8.8.h+i+j+Z.@.l l l l l l l l l l l l O ).a.4.l l l l l @.l l l Z.C.5.t m#n#",
"f e.a.C.E.l l l l l l l l @.O (@`@S l l l l l l '.r+s+9.t+u+d+l l l l l l l l l l l l l @.;+4.W W 4.<+9+l l l N o.-+q+P D.K.h T+",
"o#t a.W p#o.l l l l l l l l l 4.a.*.4.<+l N o.H.>.h+>.z+A+d+l l l l l l l l l q+@.l l l l l l 3+a.a.Z+q#r#p.p.0#s#t#S O -@$.g h ",
"u#Z &+1.6@9.0.N @.l l l l l O *.W 4.).D.`.v#i+E+E+F+G+W P N l @.@.l l l l l @.Q.O l l l l l /+W W 4.).]+#+5#5##+]+a.C.w#k.&+a.h#",
"y x#y#n z#A#B#C#A+/+l l l l <+2+Z.l O 3+C.W W W W K K.K O+P+'.`. +@.l l l O P C.n.@.l l l l /+%+Z.l O 3+C.W W M@t t u f f A@W+D#",
"E#y F#G#Z ~.a+7+W D./+l l @.@.@.l l q+Q.).P P 4.K Y+f =.Z+`+p./+*.4+l l Z.*.a.a.W ).P k @.@.@.@.l l q+Q.).P P V ,+d c p+G#H#I#>#",
"4@J#L+3@f.K -@k O ~+K#L#k {.<+l l l l @.@.l l l Z.%@f u K &@9.0.s.9+'.*@A+W ).`.S K S.M#-@2+<+l l l l @.@.l l l l B ' , N#+#O#W@",
",@P#&+a.W S q+l l l ' k.Q#R#@.@.l l l l l l l l l O ~@n f.{@]@>.^@^@/@e+@.@.@.l @.{#S#e.W  +@.@.l l l l l l l l l l @.$#&+a.T#U#",
",@V#K.a.C.1+q+l l @.W#X#S P ).A+@.l l l l l l l l l P g t H }@|@F.'.N l l l l l l D 5+D.S P ).A+@.l l l l l l l l l l ) t a.K.V#",
"4@Y#f.a.a.C.4.l l R Z#1+E.C.a.5@<+l l l l l l l l l E.R.R.6@7@!+F.'.N l l l l O P `#R.P @.).a.3+@.l l l l l l l l N '. $!#a.&+i ",
"U#3@R.1.a.a.W 4..$+$k.1+Z.).W W `.l l l l l l l '.N @.Q C.e@9.h+9.9.q.o.N @.Z.*.a.5.=.V l /+*.*.4+l l l l l l N o.q.r.@$|+I k.h ",
"#$G@K.{+a.a.a.W T.&#K  +;+@.@.@.@.l l '.F.G.p.H.>.i@S W 1.~#k@l@>.9.9.>.J+).C.W W W $$%$l l @.@.@.l l l '.F.G.q.h+8.H.@.D.{+K.t ",
"y f C@n R.1.n.O @.@.@.@.l l l l l l N N.i@p.p.p.r@&$%+a.K.V.W.u@v@w@w@x@Q+a.n.O @.@.@.l l l l l l l l 9+*$(#9.9.>.=$-$~#u t e.g.",
"i.c g.=.K.).@.l l l l l l l l l l l l l l l l l @.@.E.P J.K.1.-@P P P 4.C.).@.l l l l l l l l l l l l l '.'.'.'.'.@.k l.d u k.c ",
"p+n K.a.W  +@.l l l l l l l l l l l l l l l l l l l l l P C.Z.@.l l l @.*.).;$N l l l l l l l l l l l l l l l l l l l l l.&#e.f ",
"c g a.W S `.O l l l l l l l l l l l l l l l l l l l l @.).D.@.l l l l l 4.C.J+w+F.l l l l l l l l l l l l l l l l l l l O C.K.f ",
"c t a.a.).D.n.@.l l l l l l l l l l l l l l l l l l l @.W %+@.l l l l l /+*.>$y.<#o.l l l l l l l l l l l l l l l l l l `.W 1.f ",
"c u 1.a.a.a.a.`.l l l l l l l l l l l l l l l l l l l @.).4.l l l l l l l S W ,$h+!+-+l l l l l l l l l l l l l l l l l 4+S [+f "};
