/* XPM */
static char * da1_xpm[] = {
"64 64 327 2",
"  	c None",
". 	c #161C2E",
"+ 	c #192838",
"@ 	c #1F3A48",
"# 	c #347081",
"$ 	c #3D8496",
"% 	c #418A98",
"& 	c #458C8D",
"* 	c #448885",
"= 	c #182534",
"- 	c #1F2B40",
"; 	c #3A7E8F",
"> 	c #3F8798",
", 	c #4C9CA1",
"' 	c #54AAA7",
") 	c #4D9EA2",
"! 	c #408388",
"~ 	c #192734",
"{ 	c #324964",
"] 	c #3E7F93",
"^ 	c #387177",
"/ 	c #59B2AB",
"( 	c #5AB3AC",
"_ 	c #4D9DA2",
": 	c #59B2AC",
"< 	c #5AB2AB",
"[ 	c #458A87",
"} 	c #171D30",
"| 	c #395F78",
"1 	c #357182",
"2 	c #182333",
"3 	c #50A09A",
"4 	c #52A5A5",
"5 	c #52A6A6",
"6 	c #181F32",
"7 	c #3C4B70",
"8 	c #3E758C",
"9 	c #323F5E",
"0 	c #48908F",
"a 	c #4C9793",
"b 	c #4FA09E",
"c 	c #57ADA9",
"d 	c #203D49",
"e 	c #2E3856",
"f 	c #405679",
"g 	c #364264",
"h 	c #418489",
"i 	c #479092",
"j 	c #4B9692",
"k 	c #479298",
"l 	c #182434",
"m 	c #181E31",
"n 	c #29334E",
"o 	c #1E263C",
"p 	c #2E606E",
"q 	c #57AEAA",
"r 	c #3D787A",
"s 	c #54A7A2",
"t 	c #2F6068",
"u 	c #171D2E",
"v 	c #292F39",
"w 	c #488792",
"x 	c #344862",
"y 	c #4D9190",
"z 	c #282934",
"A 	c #212230",
"B 	c #947E5F",
"C 	c #D8C8AB",
"D 	c #B1AFA9",
"E 	c #97917D",
"F 	c #C9BF9B",
"G 	c #BFA77D",
"H 	c #232431",
"I 	c #1C1F2F",
"J 	c #7E6959",
"K 	c #72624E",
"L 	c #AAA195",
"M 	c #DDD6CE",
"N 	c #F2EADE",
"O 	c #F6F1E8",
"P 	c #D1C3B0",
"Q 	c #9F856A",
"R 	c #3A3339",
"S 	c #D5B583",
"T 	c #897761",
"U 	c #4F4343",
"V 	c #BB9D78",
"W 	c #D4B483",
"X 	c #E4D2A0",
"Y 	c #E5DBB9",
"Z 	c #CAC09E",
"` 	c #F0E4B8",
" .	c #D8BB89",
"..	c #B79977",
"+.	c #6D5A52",
"@.	c #D6B686",
"#.	c #E7E0D8",
"$.	c #C0BEB1",
"%.	c #94916F",
"&.	c #77735C",
"*.	c #202230",
"=.	c #776257",
"-.	c #BEA07A",
";.	c #DBC08D",
">.	c #F4EBCB",
",.	c #D1CEC3",
"'.	c #9A9892",
").	c #F6EFD5",
"!.	c #E6D39E",
"~.	c #D8BA88",
"{.	c #AE9271",
"].	c #242431",
"^.	c #E0CBB0",
"/.	c #FCFBF6",
"(.	c #E8DAB7",
"_.	c #C6B486",
":.	c #312F35",
"<.	c #181D2E",
"[.	c #826F56",
"}.	c #544941",
"|.	c #B29574",
"1.	c #D4B583",
"2.	c #E2CB97",
"3.	c #EFE2AF",
"4.	c #C0BCAE",
"5.	c #817F76",
"6.	c #F0E5B9",
"7.	c #EAD9A5",
"8.	c #DCC18E",
"9.	c #CCB083",
"0.	c #5E4E4A",
"a.	c #A4A4A4",
"b.	c #F7F4E5",
"c.	c #D9BE8D",
"d.	c #C8AA7B",
"e.	c #5C4F44",
"f.	c #473D3E",
"g.	c #8C755E",
"h.	c #957F60",
"i.	c #4E4142",
"j.	c #A3886E",
"k.	c #CEAF80",
"l.	c #E9DAA7",
"m.	c #F9F7F1",
"n.	c #868689",
"o.	c #2D303C",
"p.	c #E8E3D3",
"q.	c #EEE2B4",
"r.	c #DBC390",
"s.	c #6C5A51",
"t.	c #D0B283",
"u.	c #D8D0C0",
"v.	c #EDE6BD",
"w.	c #DBC28E",
"x.	c #C8AA7C",
"y.	c #594D43",
"z.	c #554A41",
"A.	c #B4A278",
"B.	c #B0966F",
"C.	c #A98E6E",
"D.	c #7E675B",
"E.	c #5D4D49",
"F.	c #C3A57C",
"G.	c #998362",
"H.	c #38383A",
"I.	c #343741",
"J.	c #171D2F",
"K.	c #2B2C34",
"L.	c #323337",
"M.	c #645849",
"N.	c #C0A27A",
"O.	c #746056",
"P.	c #959272",
"Q.	c #DED59F",
"R.	c #C4AB7E",
"S.	c #C7A97B",
"T.	c #887459",
"U.	c #343337",
"V.	c #7D665B",
"W.	c #8C7264",
"X.	c #695750",
"Y.	c #5B4C49",
"Z.	c #C2A37B",
"`.	c #DDC491",
" +	c #D4C89A",
".+	c #948C71",
"++	c #222531",
"@+	c #7B755E",
"#+	c #BFB9A4",
"$+	c #E6D5AA",
"%+	c #BD9F79",
"&+	c #796556",
"*+	c #171C2E",
"=+	c #7E7B61",
"-+	c #D1CB98",
";+	c #A19372",
">+	c #857258",
",+	c #4F4242",
"'+	c #2C3E4F",
")+	c #1E283D",
"!+	c #232331",
"~+	c #9B806A",
"{+	c #F0E4B5",
"]+	c #F4ECD2",
"^+	c #666667",
"/+	c #232735",
"(+	c #DFDBCF",
"_+	c #E7D39F",
":+	c #D3B382",
"<+	c #876E61",
"[+	c #666452",
"}+	c #D4CC9A",
"|+	c #83775E",
"1+	c #917962",
"2+	c #725E55",
"3+	c #272E46",
"4+	c #2A334F",
"5+	c #252A3E",
"6+	c #A78C6F",
"7+	c #EAD8A3",
"8+	c #EFE2AE",
"9+	c #ADA99B",
"0+	c #615D51",
"a+	c #EEE1AF",
"b+	c #EFE1AC",
"c+	c #DEC592",
"d+	c #D4B482",
"e+	c #6C5951",
"f+	c #5A5044",
"g+	c #BA9F74",
"h+	c #877359",
"i+	c #68554F",
"j+	c #282F48",
"k+	c #3C496D",
"l+	c #1F263C",
"m+	c #625448",
"n+	c #C9AB7C",
"o+	c #E9D8A3",
"p+	c #F1E5B7",
"q+	c #ECE7D8",
"r+	c #D2CFC3",
"s+	c #F6EED4",
"t+	c #ECDCA7",
"u+	c #242531",
"v+	c #4B423D",
"w+	c #354F58",
"x+	c #917D60",
"y+	c #253A47",
"z+	c #384669",
"A+	c #2C2F3F",
"B+	c #6D5E4C",
"C+	c #564B42",
"D+	c #D4C090",
"E+	c #EFE2AD",
"F+	c #F3E8C1",
"G+	c #EFE1AB",
"H+	c #E1CC99",
"I+	c #867258",
"J+	c #252D46",
"K+	c #26484D",
"L+	c #418383",
"M+	c #295564",
"N+	c #3A7D8E",
"O+	c #474E58",
"P+	c #BCA075",
"Q+	c #D2B281",
"R+	c #2E2C36",
"S+	c #384568",
"T+	c #343643",
"U+	c #A69C7A",
"V+	c #E2D5A2",
"W+	c #EDDFAA",
"X+	c #B9AE86",
"Y+	c #353439",
"Z+	c #333E5E",
"`+	c #3F4D73",
" @	c #336669",
".@	c #4B989A",
"+@	c #295463",
"@@	c #7F685C",
"#@	c #CDAE80",
"$@	c #C1A37A",
"%@	c #2F3141",
"&@	c #3F6380",
"*@	c #3D4B70",
"=@	c #5E5A4E",
"-@	c #7D765F",
";@	c #262E47",
">@	c #39476A",
",@	c #3F6582",
"'@	c #3F6481",
")@	c #2E3A58",
"!@	c #1B1F2F",
"~@	c #3B383E",
"{@	c #715D54",
"]@	c #504343",
"^@	c #756056",
"/@	c #504444",
"(@	c #2D3855",
"_@	c #2E5669",
":@	c #3F6682",
"<@	c #364364",
"[@	c #2E3957",
"}@	c #3F4F75",
"|@	c #3F768D",
"1@	c #3E8698",
"2@	c #3E7189",
"3@	c #252E48",
"4@	c #4D4141",
"5@	c #6C5952",
"6@	c #66544F",
"7@	c #323F5F",
"8@	c #3F6683",
"9@	c #3E8597",
"0@	c #3E7B91",
"a@	c #3F778D",
"b@	c #3E7C91",
"c@	c #2A4258",
"d@	c #383138",
"e@	c #1D1F2F",
"f@	c #323D5D",
"g@	c #3F4E74",
"h@	c #3F5F7D",
"i@	c #3E768C",
"j@	c #3E768D",
"k@	c #3B7488",
"l@	c #294B5D",
"                                                                                                                                ",
"                                                                                                                                ",
"                                                                                                                                ",
"                                                                                                                                ",
"                                                                                                                                ",
"                                                                                                                                ",
"                                                                                                                                ",
"                                                                                                                                ",
"                                                                                                                                ",
"                                                                                                                                ",
"                                                                                                                                ",
"                                                                                                                                ",
"                                                                                                                                ",
"                                                                                                                                ",
"                                                        . + + . .                                                               ",
"                                                      @ # $ % & * =                                                             ",
"                                                    - ; > , ' ' ) ! ~                                                           ",
"                                                    { ] ^ / ( _ : < [                                                           ",
"                                                  } | 1 2 3 ( 4 5 ( [                                                           ",
"                                                  6 7 8 9 0 ( a b c d                                                           ",
"                                                    e f g h ( i j k l                                                           ",
"                                                    m n o p q r s t                                                             ",
"                                                      . u v w x y z                                                             ",
"                                                      A B C D E F G H                                                           ",
"                                                    I J K L M N O P Q R                                                         ",
"                        S T                         U V W X Y Z `  ...+.                                                        ",
"                        @.#.$.%.&.                *.=.-.;.>.,.'.).!.~.{.].                                                      ",
"                          ^./.(._.:.          <.[.}.|.1.2.3.4.5.6.7.8.9.0.                                                      ",
"                            a.b.c.d.e.      f.g.h.i.j.k.l.m.n.o.p.q.r.k.s..                                                     ",
"                            t.u.v.w.x.y.z.A.B.C.D.E.F.G.H.I.J.. K.L.M.N.O..                                                     ",
"                                P.Q.R.S.T.U.V.W.X.Y.Z.`. +.+++. @+#+$+%+&+*+                                                    ",
"                                  =+-+;+S.>+,+'+)+!+~+`.{+]+^+/+(+>._+:+<+I                                                     ",
"                                    [+}+|+1+2+3+4+5+6+8.7+8+9+0+a+b+c+d+e+                                                      ",
"                                      f+g+h+i+j+k+l+m+n+o+p+q+r+s+t+1.h.u+                                                      ",
"                                      v+w+x+y+z+A+B+u C+D+E+>.F+G+H+I+J+J.                                                      ",
"                                      K+L+M+N+O+P+Q+R+S+T+U+V+W+X+Y+Z+`+o                                                       ",
"                                      .  @.@+@@@#@$@%@&@*@e =@-@;@>@,@'@)@                                                      ",
"                                        !@~@{@]@^@/@(@_@,@:@<@[@}@|@1@2@3@                                                      ",
"                                          4@5@6@. . o 7@8@9@0@:@a@1@b@c@.                                                       ",
"                                            d@e@    J.f@g@h@i@j@j@k@l@. .                                                       ",
"                                                      . 6 6 6 6 6 m . . .                                                       ",
"                                                        . . .         . .                                                       ",
"                                                          . .         . .                                                       ",
"                                                                                                                                ",
"                                                                                                                                ",
"                                                                                                                                ",
"                                                                                                                                ",
"                                                                                                                                ",
"                                                                                                                                ",
"                                                                                                                                ",
"                                                                                                                                ",
"                                                                                                                                ",
"                                                                                                                                ",
"                                                                                                                                ",
"                                                                                                                                ",
"                                                                                                                                ",
"                                                                                                                                ",
"                                                                                                                                ",
"                                                                                                                                ",
"                                                                                                                                ",
"                                                                                                                                ",
"                                                                                                                                ",
"                                                                                                                                ",
"                                                                                                                                "};
