/* XPM */
static char * da5_xpm[] = {
"64 64 395 2",
"  	c None",
". 	c #161C2E",
"+ 	c #172031",
"@ 	c #192838",
"# 	c #172032",
"$ 	c #2E5E67",
"% 	c #48908F",
"& 	c #41878F",
"* 	c #3D8496",
"= 	c #377788",
"- 	c #244958",
"; 	c #1A2A37",
"> 	c #458A87",
", 	c #52A5A5",
"' 	c #57AEAA",
") 	c #57ADA9",
"! 	c #4FA2A4",
"~ 	c #428C9B",
"{ 	c #203C4B",
"] 	c #386F6E",
"^ 	c #5AB3AC",
"/ 	c #52A5A6",
"( 	c #57AFAA",
"_ 	c #448A8C",
": 	c #3B7E90",
"< 	c #39516F",
"[ 	c #171E30",
"} 	c #274A4F",
"| 	c #54A9A6",
"1 	c #59B2AC",
"2 	c #4A989F",
"3 	c #59B0A9",
"4 	c #1C2E39",
"5 	c #357181",
"6 	c #3C617C",
"7 	c #181F32",
"8 	c #4B9591",
"9 	c #59B1AA",
"0 	c #3D7B7C",
"a 	c #4B9692",
"b 	c #2A3651",
"c 	c #3E7E92",
"d 	c #3F5075",
"e 	c #192033",
"f 	c #3A787E",
"g 	c #4C9793",
"h 	c #44898B",
"i 	c #418589",
"j 	c #364264",
"k 	c #40577A",
"l 	c #323E5E",
"m 	c #203D4A",
"n 	c #55A9A5",
"o 	c #3D7477",
"p 	c #54A9A7",
"q 	c #2A5664",
"r 	c #1E263C",
"s 	c #29334E",
"t 	c #181E31",
"u 	c #212330",
"v 	c #544940",
"w 	c #3E565F",
"x 	c #395370",
"y 	c #41787F",
"z 	c #30353B",
"A 	c #171D2E",
"B 	c #1B1F2F",
"C 	c #4F453E",
"D 	c #B9A78B",
"E 	c #EAE5DE",
"F 	c #C1BEB5",
"G 	c #ADA791",
"H 	c #DECB9A",
"I 	c #574B42",
"J 	c #171C2E",
"K 	c #766157",
"L 	c #AF9470",
"M 	c #8E7F64",
"N 	c #C5B89A",
"O 	c #EEE2CC",
"P 	c #F6F0E8",
"Q 	c #E5DCCF",
"R 	c #AF9472",
"S 	c #5E4E4A",
"T 	c #272632",
"U 	c #9E826D",
"V 	c #CFB081",
"W 	c #E2CB99",
"X 	c #F7F1DD",
"Y 	c #CEC6AD",
"Z 	c #F2E8C3",
"` 	c #E1CA96",
" .	c #C4A57C",
"..	c #7F685C",
"+.	c #1C1F2F",
"@.	c #2D2B33",
"#.	c #C8A97E",
"$.	c #D5B684",
"%.	c #EEDFB2",
"&.	c #F1E8CA",
"*.	c #9E9B94",
"=.	c #F8F2DD",
"-.	c #ECDCA7",
";.	c #D8BB88",
">.	c #AF9372",
",.	c #242431",
"'.	c #534840",
").	c #AE946D",
"!.	c #615446",
"~.	c #88715F",
"{.	c #CAAB7E",
"].	c #F3E8C3",
"^.	c #C3C1BB",
"/.	c #39393D",
"(.	c #EEE3B7",
"_.	c #EAD9A5",
":.	c #DCC18E",
"<.	c #C7AB81",
"[.	c #5C4C49",
"}.	c #285362",
"|.	c #585955",
"1.	c #BB9F74",
"2.	c #5A4E43",
"3.	c #504343",
"4.	c #BC9E79",
"5.	c #BFA377",
"6.	c #C5B78E",
"7.	c #D4D3D3",
"8.	c #64656A",
"9.	c #232735",
"0.	c #CCC6B3",
"a.	c #EEE2B4",
"b.	c #DBC390",
"c.	c #CEAE80",
"d.	c #756056",
"e.	c #347081",
"f.	c #67797A",
"g.	c #A78C6F",
"h.	c #947D62",
"i.	c #5C4F44",
"j.	c #5D4D49",
"k.	c #C3A57C",
"l.	c #CFB686",
"m.	c #7F7861",
"n.	c #222531",
"o.	c #3D3C3C",
"p.	c #A29270",
"q.	c #756057",
"r.	c #3E8798",
"s.	c #478898",
"t.	c #BDA57F",
"u.	c #988161",
"v.	c #AB9B74",
"w.	c #B9AB80",
"x.	c #A7A27B",
"y.	c #3D353A",
"z.	c #A98D6F",
"A.	c #DEC592",
"B.	c #EFE3B5",
"C.	c #BDB7A1",
"D.	c #948C6F",
"E.	c #DAD3BC",
"F.	c #E1CA97",
"G.	c #B19573",
"H.	c #5F4F4A",
"I.	c #192534",
"J.	c #C3A679",
"K.	c #6C6258",
"L.	c #A48E71",
"M.	c #D6B786",
"N.	c #428C9A",
"O.	c #56A1A2",
"P.	c #DBC693",
"Q.	c #D6B987",
"R.	c #BDA075",
"S.	c #625748",
"T.	c #B39D75",
"U.	c #1D253A",
"V.	c #5B4B49",
"W.	c #AF9274",
"X.	c #D9BB89",
"Y.	c #ECDDA8",
"Z.	c #F0E6C1",
"`.	c #33343B",
" +	c #625E53",
".+	c #F7F2E2",
"++	c #F1E5B8",
"@+	c #685650",
"#+	c #2A5255",
"$+	c #3A777D",
"%+	c #4E9B96",
"&+	c #323337",
"*+	c #3E3E3C",
"=+	c #928E6E",
"-+	c #D2D0C9",
";+	c #EBDFBD",
">+	c #FCFCFB",
",+	c #F6F0E9",
"'+	c #E4D2BA",
")+	c #397180",
"!+	c #3E8698",
"~+	c #509EA2",
"{+	c #D3D6A7",
"]+	c #DCC48F",
"^+	c #D5B583",
"/+	c #89755A",
"(+	c #B29C74",
"_+	c #28324D",
":+	c #292C3F",
"<+	c #AF936F",
"[+	c #DBC08D",
"}+	c #EFE0AA",
"|+	c #F2E7C0",
"1+	c #878788",
"2+	c #ADA89A",
"3+	c #F0E2B0",
"4+	c #EEE0AA",
"5+	c #D6B785",
"6+	c #C1A37A",
"7+	c #3E353B",
"8+	c #387682",
"9+	c #2F6069",
"0+	c #5D797D",
"a+	c #847158",
"b+	c #9F936F",
"c+	c #C5BF90",
"d+	c #D0CA98",
"e+	c #C6BF90",
"f+	c #E5D79F",
"g+	c #E3D29D",
"h+	c #E0CAAA",
"i+	c #EBE0C3",
"j+	c #DBD7B9",
"k+	c #FEFEFD",
"l+	c #FFFFFF",
"m+	c #A49173",
"n+	c #999D8F",
"o+	c #4D8F9B",
"p+	c #BDBA97",
"q+	c #E2D09A",
"r+	c #9F8568",
"s+	c #AF956E",
"t+	c #29334F",
"u+	c #282834",
"v+	c #B29871",
"w+	c #F4ECCC",
"x+	c #ECE9DF",
"y+	c #DDD7BF",
"z+	c #F1E4B6",
"A+	c #BDA175",
"B+	c #574C42",
"C+	c #856D60",
"D+	c #2E5664",
"E+	c #316878",
"F+	c #947E5F",
"G+	c #B1976F",
"H+	c #8B7D60",
"I+	c #7B715C",
"J+	c #A78F6A",
"K+	c #C8AA7C",
"L+	c #C1A478",
"M+	c #9E906D",
"N+	c #F1F1F1",
"O+	c #D8BC89",
"P+	c #DFDDAA",
"Q+	c #B0B396",
"R+	c #D3B484",
"S+	c #B09374",
"T+	c #B0966F",
"U+	c #29344F",
"V+	c #39506F",
"W+	c #534B4A",
"X+	c #C4B68B",
"Y+	c #EFE1AC",
"Z+	c #EFE2AE",
"`+	c #EBDBA6",
" @	c #B19870",
".@	c #262631",
"+@	c #232433",
"@@	c #AC8F72",
"#@	c #324B57",
"$@	c #35556F",
"%@	c #3B343A",
"&@	c #7D665C",
"*@	c #A08768",
"=@	c #B2986F",
"-@	c #D4B483",
";@	c #D2B382",
">@	c #BFA276",
",@	c #F1E9DF",
"'@	c #847057",
")@	c #E3D29B",
"!@	c #9DBEA7",
"~@	c #6B9D9D",
"{@	c #AAA78F",
"]@	c #957E64",
"^@	c #29495B",
"/@	c #3F6C87",
"(@	c #3E8094",
"_@	c #3C5474",
":@	c #303342",
"<@	c #A79E7A",
"[@	c #EBDDA8",
"}@	c #D5C999",
"|@	c #958C6E",
"1@	c #202231",
"2@	c #242C45",
"3@	c #1E263B",
"4@	c #947D61",
"5@	c #D2B381",
"6@	c #2E2D36",
"7@	c #3C496D",
"8@	c #3A333B",
"9@	c #978161",
"0@	c #F2EAE0",
"a@	c #322E34",
"b@	c #C8AA7B",
"c@	c #D5B683",
"d@	c #9CA393",
"e@	c #49979F",
"f@	c #428B9A",
"g@	c #355763",
"h@	c #917962",
"i@	c #294056",
"j@	c #3F7089",
"k@	c #3F5F7D",
"l@	c #2B3450",
"m@	c #313237",
"n@	c #282D3F",
"o@	c #272631",
"p@	c #927D5E",
"q@	c #212332",
"r@	c #253049",
"s@	c #364F61",
"t@	c #D5B685",
"u@	c #F6F0EA",
"v@	c #BFAC88",
"w@	c #428798",
"x@	c #3E8597",
"y@	c #5F6366",
"z@	c #5D4D4A",
"A@	c #354163",
"B@	c #405F7F",
"C@	c #3E7B91",
"D@	c #3F6B85",
"E@	c #364666",
"F@	c #3C4A6F",
"G@	c #394669",
"H@	c #242D46",
"I@	c #2A2D37",
"J@	c #D3B382",
"K@	c #D6B889",
"L@	c #FEFDFD",
"M@	c #C6A97D",
"N@	c #488796",
"O@	c #2E5765",
"P@	c #4E4242",
"Q@	c #1F273D",
"R@	c #2E465E",
"S@	c #355D74",
"T@	c #355D73",
"U@	c #31586D",
"V@	c #1E3646",
"W@	c #171D2F",
"X@	c #DBC19B",
"Y@	c #564D45",
"Z@	c #325663",
"`@	c #66544F",
" #	c #DAC08D",
".#	c #D6B784",
"+#	c #E0CCA3",
"@#	c #FFFFFE",
"##	c #DDC792",
"$#	c #E6D8A3",
"%#	c #E8DCA4",
"&#	c #ECE5AB",
"*#	c #F9F7E8",
"=#	c #F4F0D3",
"-#	c #EEE7AF",
";#	c #D6B888",
">#	c #FDFCFA",
",#	c #F6F3DA",
"'#	c #E5D3BA",
")#	c #FEFEFC",
"!#	c #DEC893",
"~#	c #F9F6E7",
"{#	c #FBFAF0",
"]#	c #EBE2AB",
"^#	c #FCFBF3",
"/#	c #EAE0A7",
"(#	c #F0EABB",
"_#	c #EDE6AC",
":#	c #DBC28E",
"<#	c #E9DFA6",
"[#	c #E7DAA2",
"                                                                                                                                ",
"                                                                                                                                ",
"                                                                                                                                ",
"                                                                                                                                ",
"                                                                                                                                ",
"                                                                                                                                ",
"                                                                                                                                ",
"                                                                                                                                ",
"                                                                                                                                ",
"                                                                                                                                ",
"                                                                                                                                ",
"                                                                                                                                ",
"                                                                                                                                ",
"                                                                                                                                ",
"                                                                                                                                ",
"                                                                            . + @ #                                             ",
"                                                                        . $ % & * = -                                           ",
"                                                                      ; > , ' ) ! ~ * {                                         ",
"                                                                      ] ^ ^ / ( ^ _ : < [                                       ",
"                                                                      } | 1 2 ^ 3 4 5 6 7                                       ",
"                                                                      . 8 9 0 ^ a b c d e                                       ",
"                                                                        f g h ^ i j k l .                                       ",
"                                                                        m n o p q r s t                                         ",
"                                                                      u v w x y z A                                             ",
"                                                                    B C D E F G H I J                                           ",
"                                                                    K L M N O P Q R S                                           ",
"                                                                  T U V W X Y Z `  ...+.                                        ",
"                                              C @.                K #.$.%.&.*.=.-.;.>.,.                                        ",
"                                              '.).!.            B ~.{.` ].^./.(._.:.<.[.                                        ",
"                                              }.|.1.2.          3.4.5.6.7.8.9.0.a.b.c.d..                                       ",
"                                              e.* f.g.h.i.      j.k.l.m.A . . n.o.p.4.q..                                       ",
"                                              e.r.s.t.u.v.w.x.. y.z.A.B.C.n.n.D.E.F.G.H..     # I.              J.K.L.M.        ",
"                                              e.N.O.P.Q.R.S.T.U.V.W.X.Y.Z.`. +.+++A.4.@+    #+$+%+;     &+*+=+-+;+>+>+,+'+      ",
"                                              )+!+~+{+]+^+/+(+_+:+<+[+}+|+1+2+3+4+5+6+7+. +.8+9+0+a+b+c+d+e+f+g+h+i+j+k+l+      ",
"                                              m+n+o+p+q+$.r+s+t+j u+v+4+w+x+y+z+` A+B+J S C+D+E+F+G+H+I+J+K+^+L+M+2+N+l+l+      ",
"                                              G+O+P+Q+R+^+S+T+U+k V+W+X+Y+Z+Y+`+ @.@U.+@@@6+#@$@%@&@*@=@-@^+^+;@>@,@l+l+l+      ",
"                                              '@$.)@!@~@{@]@s+^@/@(@_@:@<@[@}@|@1@. 2@3@4@5@6@7@8@[.9@K+^+^+^+^+^+0@l+l+l+      ",
"                                              a@b@c@d@e@f@g@h@i@j@!+(@k@l@m@n@j s       o@p@q@7@r@s@K+^+^+^+^+^+t@u@l+l+l+      ",
"                                                i.K+v@w@x@y@z@A@B@C@x@x@D@E@F@G@r         .   H@t I@J@^+^+^+^+^+K@L@l+l+l+      ",
"                                                  i.M@N@O@P@J Q@t+U+R@S@T@U@V@W@.                   ^+^+^+^+^+^+X@k+l+l+        ",
"                                                    Y@Z@`@    . . .         . . .                     ^+^+^+ #.#+#@#l+l+        ",
"                                                      J     . . .           . .                       ^+^+^+####$#k+l+l+        ",
"                                                          . . .             . .                       ^+^+^+5+%#&#*#l+          ",
"                                                                            . .                       ^+^+^+.#=#-#*#            ",
"                                                                                                      ^+^+^+;#>#-#,#            ",
"                                                                                                  ^+  ^+^+^+'#)#-#              ",
"                                                                                                  ^+  ^+^+!#~#{#                ",
"                                                                                            ^+  ^+^+  ^+O+]#^#                  ",
"                                                                                            ^+  ^+^+  O+/#(#                    ",
"                                                                                          ^+  ^+^+^+  %#_#                      ",
"                                                                                        ^+^+  ^+^+:#<#                          ",
"                                                                                    ^+^+^+  ^+^+$.[#                            ",
"                                                                                ^+^+^+^+    ^+^+                                ",
"                                                                              ^+^+^+^+                                          ",
"                                                                                                                                ",
"                                                                                                                                ",
"                                                                                                                                ",
"                                                                                                                                ",
"                                                                                                                                ",
"                                                                                                                                ",
"                                                                                                                                ",
"                                                                                                                                ",
"                                                                                                                                ",
"                                                                                                                                "};
