/* XPM */
static char * la1_xpm[] = {
"64 64 353 2",
"  	c None",
". 	c #C6AF8F",
"+ 	c #D6B786",
"@ 	c #E0DFD9",
"# 	c #DCC29E",
"$ 	c #848165",
"% 	c #F8F6E7",
"& 	c #DFD3C4",
"* 	c #B3AA80",
"= 	c #ECDFCA",
"- 	c #DDD9D0",
"; 	c #AA916B",
"> 	c #285261",
", 	c #2A5868",
"' 	c #B29870",
") 	c #E2CEAC",
"! 	c #EEE7CE",
"~ 	c #A08968",
"{ 	c #376E71",
"] 	c #48918F",
"^ 	c #4A9591",
"/ 	c #4A9696",
"( 	c #356F7B",
"_ 	c #182535",
": 	c #B2986F",
"< 	c #DDC792",
"[ 	c #D9D5B5",
"} 	c #282A34",
"| 	c #21404E",
"1 	c #4D9A97",
"2 	c #5AB3AC",
"3 	c #54AAA7",
"4 	c #50A2A4",
"5 	c #55ABA8",
"6 	c #4C9CA1",
"7 	c #377687",
"8 	c #1F2A3F",
"9 	c #D8BC89",
"0 	c #EAE2A9",
"a 	c #3A3B3B",
"b 	c #458C8C",
"c 	c #59B1AA",
"d 	c #50A1A0",
"e 	c #52A6A6",
"f 	c #59B2AB",
"g 	c #59B0AA",
"h 	c #46929D",
"i 	c #3E8698",
"j 	c #316677",
"k 	c #171D30",
"l 	c #A48C68",
"m 	c #C2A679",
"n 	c #E8E1A8",
"o 	c #28505D",
"p 	c #58B0AA",
"q 	c #3E7C7D",
"r 	c #56ADA8",
"s 	c #4B9590",
"t 	c #274A4F",
"u 	c #1C2C3A",
"v 	c #254A59",
"w 	c #3B7E90",
"x 	c #3F607F",
"y 	c #29334E",
"z 	c #837056",
"A 	c #A9916C",
"B 	c #E7E0A8",
"C 	c #2F475F",
"D 	c #428086",
"E 	c #44898B",
"F 	c #3B787F",
"G 	c #182231",
"H 	c #29334F",
"I 	c #3F4D73",
"J 	c #3F5578",
"K 	c #3E7C90",
"L 	c #3E6B85",
"M 	c #1A2034",
"N 	c #967F63",
"O 	c #E0D7A2",
"P 	c #2C3A55",
"Q 	c #387184",
"R 	c #1F2D40",
"S 	c #161C2E",
"T 	c #20283F",
"U 	c #394669",
"V 	c #3F4F74",
"W 	c #3E6380",
"X 	c #2A3551",
"Y 	c #826F56",
"Z 	c #837057",
"` 	c #B49F76",
" .	c #383436",
"..	c #2E2E35",
"+.	c #31586C",
"@.	c #346175",
"#.	c #192536",
"$.	c #171D2F",
"%.	c #181F32",
"&.	c #191F33",
"*.	c #5E4E4A",
"=.	c #AF956E",
"-.	c #32424A",
";.	c #2F5D5F",
">.	c #96928E",
",.	c #ECE3D9",
"'.	c #A0A1A2",
").	c #696C74",
"!.	c #444C66",
"~.	c #857368",
"{.	c #796756",
"].	c #1E3746",
"^.	c #314761",
"/.	c #4E4143",
"(.	c #4D4142",
"_.	c #927D5E",
":.	c #304D58",
"<.	c #376F75",
"[.	c #182433",
"}.	c #C4B48C",
"|.	c #E8D6A7",
"1.	c #EDDFC4",
"2.	c #EFE5CD",
"3.	c #F7F2E4",
"4.	c #CEC8BD",
"5.	c #666467",
"6.	c #1B1F2F",
"7.	c #1D253B",
"8.	c #2F3958",
"9.	c #364264",
"0.	c #364565",
"a.	c #346F80",
"b.	c #3B7F90",
"c.	c #4B9899",
"d.	c #1A2A37",
"e.	c #796953",
"f.	c #E6D3A0",
"g.	c #F8F5F0",
"h.	c #FEFDFB",
"i.	c #F8F2DE",
"j.	c #F3E8C2",
"k.	c #EFE1AB",
"l.	c #E5D19D",
"m.	c #AD9073",
"n.	c #5D4D49",
"o.	c #2C354F",
"p.	c #384658",
"q.	c #335764",
"r.	c #2B5362",
"s.	c #192636",
"t.	c #C6BA99",
"u.	c #E4D1A6",
"v.	c #7D6F5D",
"w.	c #F1E7C4",
"x.	c #EEE0AA",
"y.	c #DBC08E",
"z.	c #BD9F79",
"A.	c #7D665C",
"B.	c #9C8565",
"C.	c #D2B281",
"D.	c #BB9D78",
"E.	c #735E55",
"F.	c #5F5449",
"G.	c #DFD2B1",
"H.	c #B39A73",
"I.	c #3B3C43",
"J.	c #FBFAF6",
"K.	c #EFE1AE",
"L.	c #E7D49F",
"M.	c #DCC18E",
"N.	c #D5B583",
"O.	c #C3A57C",
"P.	c #866E61",
"Q.	c #BDA077",
"R.	c #AD9072",
"S.	c #504343",
"T.	c #2B2D34",
"U.	c #BEAF87",
"V.	c #564B41",
"W.	c #807D77",
"X.	c #F3EACD",
"Y.	c #D6B684",
"Z.	c #CEAF80",
"`.	c #977B6A",
" +	c #232331",
".+	c #202232",
"++	c #2C3147",
"@+	c #171C2E",
"#+	c #79735F",
"$+	c #2E2D34",
"%+	c #817E76",
"&+	c #938A6D",
"*+	c #867359",
"=+	c #A9906B",
"-+	c #CFAF80",
";+	c #BC9E79",
">+	c #7F685C",
",+	c #1F2130",
"'+	c #353135",
")+	c #806D55",
"!+	c #1E263C",
"~+	c #242D46",
"{+	c #323237",
"]+	c #E2D7AD",
"^+	c #C0A87F",
"/+	c #202230",
"(+	c #838487",
"_+	c #979281",
":+	c #A79E7A",
"<+	c #D1C394",
"[+	c #D8BD8B",
"}+	c #D4B483",
"|+	c #A88B71",
"1+	c #685650",
"2+	c #5C5044",
"3+	c #BA9E74",
"4+	c #564C43",
"5+	c #302F35",
"6+	c #E0D3AB",
"7+	c #E2D0AE",
"8+	c #39363B",
"9+	c #DDD9C9",
"0+	c #F1E5B7",
"a+	c #E9D8A3",
"b+	c #AF9274",
"c+	c #977C69",
"d+	c #3B343A",
"e+	c #6F5F4D",
"f+	c #5A6362",
"g+	c #367586",
"h+	c #192838",
"i+	c #C7BB8F",
"j+	c #ECDDA8",
"k+	c #BBB3A9",
"l+	c #F1E6C1",
"m+	c #EFE0AA",
"n+	c #D9BC89",
"o+	c #D2B382",
"p+	c #846D5F",
"q+	c #5B4F48",
"r+	c #847258",
"s+	c #B39871",
"t+	c #B39675",
"u+	c #62797F",
"v+	c #3E8597",
"w+	c #3D8496",
"x+	c #181E31",
"y+	c #74685D",
"z+	c #DDCC9B",
"A+	c #F8F1DD",
"B+	c #F2E8C0",
"C+	c #D2B482",
"D+	c #B2976F",
"E+	c #71614E",
"F+	c #8B8366",
"G+	c #CABF8F",
"H+	c #918768",
"I+	c #8A765A",
"J+	c #C0A377",
"K+	c #8A9C94",
"L+	c #45919C",
"M+	c #2E3856",
"N+	c #3C4A6F",
"O+	c #948C6F",
"P+	c #E0D4A3",
"Q+	c #B6AA83",
"R+	c #928A6C",
"S+	c #333135",
"T+	c #8F8566",
"U+	c #C7A97B",
"V+	c #D5B684",
"W+	c #E3D29B",
"X+	c #96B4A2",
"Y+	c #428D9B",
"Z+	c #39466A",
"`+	c #404F75",
" @	c #354163",
".@	c #2B2D36",
"+@	c #1A2033",
"@@	c #323E5E",
"#@	c #907A5E",
"$@	c #D3B382",
"%@	c #E0D19C",
"&@	c #5FABA7",
"*@	c #3F8798",
"=@	c #628B94",
"-@	c #252B37",
";@	c #1F273D",
">@	c #3F5F7E",
",@	c #3F768D",
"'@	c #404F76",
")@	c #3A466A",
"!@	c #40587A",
"~@	c #3F728A",
"{@	c #3F6582",
"]@	c #364465",
"^@	c #A4896C",
"/@	c #D4B482",
"(@	c #DAC18D",
"_@	c #D8C08E",
":@	c #74A29F",
"<@	c #ADAA92",
"[@	c #D0B282",
"}@	c #3E6A84",
"|@	c #3E7C91",
"1@	c #3F778E",
"2@	c #3F6783",
"3@	c #355C73",
"4@	c #AB8F71",
"5@	c #C9B086",
"6@	c #9CA091",
"7@	c #DEDBA8",
"8@	c #DEC893",
"9@	c #C8AA7C",
"0@	c #2D2B33",
"a@	c #2A3752",
"b@	c #3E7F93",
"c@	c #3E8194",
"d@	c #3F6381",
"e@	c #364364",
"f@	c #86715B",
"g@	c #969B8E",
"h@	c #51989F",
"i@	c #5EAEA9",
"j@	c #E0D09B",
"k@	c #D8BB88",
"l@	c #2A3852",
"m@	c #3E7089",
"n@	c #3E8094",
"o@	c #3F6B86",
"p@	c #2E3957",
"q@	c #69594D",
"r@	c #5F524E",
"s@	c #428C9A",
"t@	c #7B9896",
"u@	c #D4B583",
"v@	c #594D42",
"w@	c #293550",
"x@	c #293751",
"y@	c #29344F",
"z@	c #242D47",
"A@	c #202130",
"B@	c #705D55",
"C@	c #3A7180",
"D@	c #A8A28D",
"E@	c #5C4F44",
"F@	c #222331",
"G@	c #4A4143",
"H@	c #387080",
"I@	c #A59B84",
"J@	c #473D3F",
"K@	c #4B4243",
"L@	c #263B47",
"                                                                                                                                ",
"                                                                                                                                ",
"                                                                                                                                ",
"                                                                                                                                ",
"                                                                                                                                ",
"                                                                                                                                ",
"                                                                                                                                ",
"                                                                                                                                ",
"                                                                                                                                ",
"                                                                                                                                ",
"                                                . +                                                                             ",
"                                                @ #                                                                             ",
"                                              $ % &                                                                             ",
"                                              * = - ;                       > ,                                                 ",
"                                              ' ) ! ~                 { ] ^ / ( _                                               ",
"                                              : < [ }             | 1 2 3 4 5 6 7 8                                             ",
"                                              : 9 0 a             b c d e f g h i j k                                           ",
"                                              l m n a           o p q r s t u v w x y                                           ",
"                                              z A B a           C D E F G H I J K L M                                           ",
"                                              z N O a           P Q Q R S T U V W X                                             ",
"                                              Y Z `  .          ..+.@.#.    $.%.&.                                              ",
"                                            S *.*.=.-.;.    S >.,.'.).!.~.{.                                                    ",
"                                          ].^./.(._.:.<.[.  l }.|.1.2.3.4.5.6.                                                  ",
"                                          7.8.9.0.a.b.c.d.e.f.g.h.i.j.k.l.m.n.S                                                 ",
"                                          %.y o.p.q.r.s.S t.u.v.w.k.k.x.y.z.A.S                                                 ",
"                                            S B.C.D.E.  F.G.H.I.J.K.L.M.N.O.P.6.                                                ",
"                                              z Q.R.S.  T.U.V.W.X.x.Y.N.N.Z.`. +                                                ",
"                                                .+++@+S #+$+S $.%+&+*+=+-+;+>+,+    '+)+S                                       ",
"                                                !+~+  {+]+^+/+(+_+:+<+[+}+|+1+S   2+3+4+S                                       ",
"                                                      5+6+7+8+9+0+a+Y.-+b+c+d+6.e+3+f+g+h+                                      ",
"                                                        i+j+k+l+m+n+N.o+p+q+r+s+t+u+v+w+h+                                      ",
"                                                      x+y+z+A+B+x.C+D+E+F+G+H+I+J+K+L+w+h+                                      ",
"                                                      M+N+O+P+Q+R+S+x+!+r+T+U+V+W+X+Y+w+h+                                      ",
"                                                    $.Z+`+ @.@+@y @@N+9.z #@$@< %@&@*@=@-@                                      ",
"                                                    ;@>@,@'@)@I !@~@{@]@z ^@/@(@_@:@<@[@'+                                      ",
"                                                    T }@i |@1@1@v+v+2@3@z 4@$@5@6@7@8@9@0@                                      ",
"                                                  S S a@b@i i i i c@d@e@Y f@g@h@i@j@k@l                                         ",
"                                                  S S S l@m@n@v+|@o@`+p@q@r@w+s@t@u@9@v@                                        ",
"                                                  S S   S ;@w@x@y@H z@$.A@B@C@i D@9@E@                                          ",
"                                                                  S S     F@G@H@I@E@                                            ",
"                                                                  S S       J@K@L@                                              ",
"                                                                  S S         S                                                 ",
"                                                                  S S                                                           ",
"                                                                                                                                ",
"                                                                                                                                ",
"                                                                                                                                ",
"                                                                                                                                ",
"                                                                                                                                ",
"                                                                                                                                ",
"                                                                                                                                ",
"                                                                                                                                ",
"                                                                                                                                ",
"                                                                                                                                ",
"                                                                                                                                ",
"                                                                                                                                ",
"                                                                                                                                ",
"                                                                                                                                ",
"                                                                                                                                ",
"                                                                                                                                ",
"                                                                                                                                ",
"                                                                                                                                ",
"                                                                                                                                ",
"                                                                                                                                ",
"                                                                                                                                "};
