/* XPM */
static char * la3_xpm[] = {
"64 64 355 2",
"  	c None",
". 	c #D5B583",
"+ 	c #A09486",
"@ 	c #DFC9A9",
"# 	c #C2C0B2",
"$ 	c #EEE2D4",
"% 	c #3D3E3C",
"& 	c #EFEAC9",
"* 	c #F9F6F3",
"= 	c #6D6155",
"- 	c #8D8466",
"; 	c #DABF90",
"> 	c #F9F6EC",
", 	c #BFA479",
"' 	c #857157",
") 	c #D6B786",
"! 	c #F3EED2",
"~ 	c #93887C",
"{ 	c #1C303B",
"] 	c #22414D",
"^ 	c #316878",
"/ 	c #172132",
"( 	c #D6B784",
"_ 	c #EDE6B5",
": 	c #7E7B63",
"< 	c #2E595B",
"[ 	c #438685",
"} 	c #54A8A2",
"| 	c #4FA0A2",
"1 	c #56ACA8",
"2 	c #448D97",
"3 	c #2C5D6D",
"4 	c #171F31",
"5 	c #E5D7A0",
"6 	c #94906F",
"7 	c #1A2B39",
"8 	c #479093",
"9 	c #5AB3AC",
"0 	c #52A6A6",
"a 	c #54AAA7",
"b 	c #5AB2AC",
"c 	c #56ADA9",
"d 	c #3E8698",
"e 	c #2E586A",
"f 	c #161C2E",
"g 	c #574C42",
"h 	c #D1B181",
"i 	c #CAC393",
"j 	c #448A8C",
"k 	c #57AEA9",
"l 	c #4B9897",
"m 	c #55AAA8",
"n 	c #55A8A2",
"o 	c #4B9691",
"p 	c #438B90",
"q 	c #3E8597",
"r 	c #3E7B90",
"s 	c #253149",
"t 	c #2E2B33",
"u 	c #BB9F74",
"v 	c #C7C191",
"w 	c #192738",
"x 	c #51A2A2",
"y 	c #3D7B7B",
"z 	c #54A7A2",
"A 	c #468A87",
"B 	c #1A2A37",
"C 	c #242D46",
"D 	c #2A3550",
"E 	c #356579",
"F 	c #3E7B91",
"G 	c #323F5E",
"H 	c #B0956E",
"I 	c #B7AC85",
"J 	c #8F8768",
"K 	c #29334F",
"L 	c #42788B",
"M 	c #3A6D76",
"N 	c #3D7B88",
"O 	c #171F30",
"P 	c #1F273D",
"Q 	c #3F4D73",
"R 	c #404F75",
"S 	c #3F768D",
"T 	c #3E7089",
"U 	c #252F48",
"V 	c #2A2932",
"W 	c #A08768",
"X 	c #837157",
"Y 	c #8B765A",
"Z 	c #377082",
"` 	c #325C70",
" .	c #295463",
"..	c #252E48",
"+.	c #364264",
"@.	c #364465",
"#.	c #182334",
"$.	c #232432",
"%.	c #7C655B",
"&.	c #837056",
"*.	c #847863",
"=.	c #3F8085",
"-.	c #192534",
";.	c #2B2F3B",
">.	c #746658",
",.	c #56585B",
"'.	c #212F44",
").	c #2D4C61",
"!.	c #3B3339",
"~.	c #292733",
"{.	c #172031",
"].	c #304E65",
"^.	c #23293F",
"/.	c #4D4144",
"(.	c #514943",
"_.	c #535654",
":.	c #346B74",
"<.	c #305D5F",
"[.	c #222330",
"}.	c #676667",
"|.	c #E3DACE",
"1.	c #DFDBD7",
"2.	c #C4C3C3",
"3.	c #A1A3AC",
"4.	c #ACA7A8",
"5.	c #B8A998",
"6.	c #212330",
"7.	c #171D30",
"8.	c #313D5C",
"9.	c #3E4C72",
"0.	c #3E4D73",
"a.	c #3D798D",
"b.	c #3D8395",
"c.	c #3F848D",
"d.	c #294F53",
"e.	c #A68E69",
"f.	c #E5D4B3",
"g.	c #F3EACB",
"h.	c #F0E4C7",
"i.	c #E9D8A9",
"j.	c #F4EBCB",
"k.	c #E4D9B8",
"l.	c #847762",
"m.	c #4D4142",
"n.	c #181E31",
"o.	c #242634",
"p.	c #796754",
"q.	c #796956",
"r.	c #4F4647",
"s.	c #5D5246",
"t.	c #E4D19D",
"u.	c #E3D8BF",
"v.	c #EFECE3",
"w.	c #F6EFD6",
"x.	c #F4EAC9",
"y.	c #EFE1AC",
"z.	c #E9D8A3",
"A.	c #C4A67D",
"B.	c #866E61",
"C.	c #1B1F2F",
"D.	c #816E55",
"E.	c #D4B483",
"F.	c #D3B382",
"G.	c #907566",
"H.	c #222331",
"I.	c #968D70",
"J.	c #E7D6B3",
"K.	c #857258",
"L.	c #D1CDC0",
"M.	c #F1E5B8",
"N.	c #EFE1AB",
"O.	c #ECDDA7",
"P.	c #DEC592",
"Q.	c #977C6B",
"R.	c #232331",
"S.	c #292832",
"T.	c #8A755B",
"U.	c #937B63",
"V.	c #5D4D49",
"W.	c #242531",
"X.	c #D1C5AA",
"Y.	c #CCB183",
"Z.	c #2F2E35",
"`.	c #DEDACB",
" +	c #F3E8C2",
".+	c #E4CF9B",
"++	c #DBC08D",
"@+	c #D4B482",
"#+	c #997D6C",
"$+	c #4F4242",
"%+	c #171D2F",
"&+	c #303B5A",
"*+	c #7A745D",
"=+	c #544A41",
"-+	c #232735",
";+	c #D0CEC6",
">+	c #ECDFAB",
",+	c #DBC390",
"'+	c #D3B482",
")+	c #AE9173",
"!+	c #252531",
"~+	c #181D2E",
"{+	c #181F32",
"]+	c #7E7761",
"^+	c #A0947E",
"/+	c #202230",
"(+	c #333337",
"_+	c #44413E",
":+	c #9F906E",
"<+	c #CAAB7D",
"[+	c #B79977",
"}+	c #81695D",
"|+	c #3A3239",
"1+	c #645647",
"2+	c #A08865",
"3+	c #272731",
"4+	c #C7BB90",
"5+	c #6F604D",
"6+	c #838487",
"7+	c #D1CDC1",
"8+	c #C9BE91",
"9+	c #E5D4A0",
"0+	c #C2A37B",
"a+	c #856D60",
"b+	c #1A1E2F",
"c+	c #5B4F43",
"d+	c #574E46",
"e+	c #1D3544",
"f+	c #A39875",
"g+	c #EEE0B4",
"h+	c #968162",
"i+	c #C2C0B8",
"j+	c #F0E2AF",
"k+	c #ECDCA6",
"l+	c #D6B684",
"m+	c #AA8D72",
"n+	c #907666",
"o+	c #3D353A",
"p+	c #2A2832",
"q+	c #786455",
"r+	c #AA906D",
"s+	c #5E7275",
"t+	c #3A7E90",
"u+	c #7E7760",
"v+	c #EBDBA6",
"w+	c #E7DFCB",
"x+	c #E9E1C6",
"y+	c #DEC692",
"z+	c #D2B382",
"A+	c #85715B",
"B+	c #9F9675",
"C+	c #A6936E",
"D+	c #B29C74",
"E+	c #AD936E",
"F+	c #9B9383",
"G+	c #3F8698",
"H+	c #2F364F",
"I+	c #AC9B76",
"J+	c #F1E5B9",
"K+	c #F3E8C3",
"L+	c #ECDEA9",
"M+	c #C8B386",
"N+	c #957F60",
"O+	c #564B41",
"P+	c #2F2E34",
"Q+	c #C5B486",
"R+	c #797058",
"S+	c #C9AC7D",
"T+	c #B5A98C",
"U+	c #49979F",
"V+	c #3E8798",
"W+	c #3F4D74",
"X+	c #3A4159",
"Y+	c #A69D7A",
"Z+	c #A29774",
"`+	c #363538",
" @	c #222632",
".@	c #2D3855",
"+@	c #2E2C35",
"@@	c #B6A47A",
"#@	c #B1976F",
"$@	c #E4D59E",
"%@	c #BDD0AB",
"&@	c #48969F",
"*@	c #2E3957",
"=@	c #40577A",
"-@	c #404D74",
";@	c #2A3450",
">@	c #242D47",
",@	c #323E5E",
"'@	c #39466A",
")@	c #3F4E74",
"!@	c #2E2D36",
"~@	c #B0966E",
"{@	c #BDA077",
"]@	c #DAC18D",
"^@	c #E0CE98",
"/@	c #98B7A3",
"(@	c #438898",
"_@	c #7B9393",
":@	c #6E685C",
"<@	c #3C627D",
"[@	c #3E8094",
"}@	c #40587B",
"|@	c #405076",
"1@	c #40587A",
"2@	c #3F6C86",
"3@	c #3F6582",
"4@	c #3F4F74",
"5@	c #BB9E76",
"6@	c #C3A47B",
"7@	c #D5B683",
"8@	c #D5B684",
"9@	c #A4B39C",
"0@	c #CBC59C",
"a@	c #D4B583",
"b@	c #385974",
"c@	c #3F6783",
"d@	c #3F6380",
"e@	c #BFA179",
"f@	c #B89C75",
"g@	c #BEAC89",
"h@	c #7E9E98",
"i@	c #C9CFA7",
"j@	c #E2D19A",
"k@	c #1F283E",
"l@	c #3B7085",
"m@	c #3E8194",
"n@	c #3F6381",
"o@	c #2E2C36",
"p@	c #9F8668",
"q@	c #5D797E",
"r@	c #49929D",
"s@	c #54A8A7",
"t@	c #BDB996",
"u@	c #BDA075",
"v@	c #252631",
"w@	c #1E3646",
"x@	c #386C80",
"y@	c #3E7C91",
"z@	c #3F6B86",
"A@	c #1F2130",
"B@	c #387181",
"C@	c #4B8998",
"D@	c #D2B484",
"E@	c #C8AA7C",
"F@	c #5C4F44",
"G@	c #293751",
"H@	c #293550",
"I@	c #41383C",
"J@	c #5B585A",
"K@	c #899792",
"L@	c #242431",
"M@	c #728482",
"N@	c #3F363B",
"                                                                                                                                ",
"                                                                                                                                ",
"                                                                                                                                ",
"                                                                                                                                ",
"                                                                                                                                ",
"                                                                                                                                ",
"                                                                                                                                ",
"                                                                                                                                ",
"                                                  .                                                                             ",
"                                                + @                                                                             ",
"                                                # $                                                                             ",
"                                              % & * =                                                                           ",
"                                              - ; > ,                                                                           ",
"                                              ' ) ! ~                     { ] ^ /                                               ",
"                                              ' ( _ :               < [ } | 1 2 3 4                                             ",
"                                              ' . 5 6             7 8 9 0 a b c d e f                                           ",
"                                              g h i 6             j k l m n o p q r s                                           ",
"                                              t u v 6           w x y z A B C D E F G                                           ",
"                                              t H I J           K L M N O P Q R S T U                                           ",
"                                              V W X Y             Z `  .f   ..+.@.D                                             ",
"                                            #.$.%.&.*.=.-.    ;.>.,.'.).!.~.  f f                                               ",
"                                          {.].^./.(._.:.<.  [.}.|.1.2.3.4.5.6.                                                  ",
"                                          7.8.9.0.a.b.c.d.  e.f.g.h.i.j.k.l.m.f                                                 ",
"                                            n.o.p.q.r.{.  s.t.u.v.w.x.y.z.A.B.C.                                                ",
"                                              D.E.F.G.H.  I.J.K.L.M.N.O.P.F.Q.R.                                                ",
"                                              S.T.U.V.f W.X.Y.Z.`. +.+++. @+#+$+                                                ",
"                                                %+&+n.  f *+=+-+;+>+,+'+. . )+V.f     !+~+                                      ",
"                                                  {+f   ]+^+/+f -+(+_+:+<+[+}+|+f   1+2+3+                                      ",
"                                                        4+J.5+6+7+8+9+++@+0+a+b+  c+u d+e+                                      ",
"                                                        f+g+h+i+j+k+l+. m+n+o+p+q+r+s+t+ .                                      ",
"                                                        u+v+w+x+N.y+. z+A+B+C+D+E+F+G+d  .                                      ",
"                                                      f H+I+J+K+L+M+N+O+P+Q+R+e.S+T+U+V+ .                                      ",
"                                                      P W+X+Y+Z+`+ @P .@+@@@#@. $@%@&@d  .                                      ",
"                                                    f *@=@-@;@>@,@'@)@W+!@~@{@]@^@/@(@_@:@                                      ",
"                                                    n.<@[@}@|@|@1@2@3@4@!@5@6@7@8@9@0@a@'                                       ",
"                                                    %+b@q q q q q q c@d@!@e@f@g@h@i@j@'+g                                       ",
"                                                  f f k@l@d d d d m@n@Q o@p@q@r@s@t@( u@v@                                      ",
"                                                  f f f w@x@y@q [@z@R *@A@%.B@d C@D@E@F@                                        ",
"                                                  f       %+U G@H@K >@%+f I@J@t+K@E@F@                                          ",
"                                                                  f f       L@J@M@F@                                            ",
"                                                                  f f         N@4                                               ",
"                                                                  f f                                                           ",
"                                                                  f f                                                           ",
"                                                                                                                                ",
"                                                                                                                                ",
"                                                                                                                                ",
"                                                                                                                                ",
"                                                                                                                                ",
"                                                                                                                                ",
"                                                                                                                                ",
"                                                                                                                                ",
"                                                                                                                                ",
"                                                                                                                                ",
"                                                                                                                                ",
"                                                                                                                                ",
"                                                                                                                                ",
"                                                                                                                                ",
"                                                                                                                                ",
"                                                                                                                                ",
"                                                                                                                                ",
"                                                                                                                                ",
"                                                                                                                                ",
"                                                                                                                                ",
"                                                                                                                                "};
