/* XPM */
static char * ra1_xpm[] = {
"64 64 353 2",
"  	c None",
". 	c #D6B786",
"+ 	c #C6AF8F",
"@ 	c #DCC29E",
"# 	c #E0DFD9",
"$ 	c #DFD3C4",
"% 	c #F8F6E7",
"& 	c #848165",
"* 	c #2A5868",
"= 	c #285261",
"- 	c #AA916B",
"; 	c #DDD9D0",
"> 	c #ECDFCA",
", 	c #B3AA80",
"' 	c #182535",
") 	c #356F7B",
"! 	c #4A9696",
"~ 	c #4A9591",
"{ 	c #48918F",
"] 	c #376E71",
"^ 	c #A08968",
"/ 	c #EEE7CE",
"( 	c #E2CEAC",
"_ 	c #B29870",
": 	c #1F2A3F",
"< 	c #377687",
"[ 	c #4C9CA1",
"} 	c #55ABA8",
"| 	c #50A2A4",
"1 	c #54AAA7",
"2 	c #5AB3AC",
"3 	c #4D9A97",
"4 	c #21404E",
"5 	c #282A34",
"6 	c #D9D5B5",
"7 	c #DDC792",
"8 	c #B2986F",
"9 	c #171D30",
"0 	c #316677",
"a 	c #3E8698",
"b 	c #46929D",
"c 	c #59B0AA",
"d 	c #59B2AB",
"e 	c #52A6A6",
"f 	c #50A1A0",
"g 	c #59B1AA",
"h 	c #458C8C",
"i 	c #3A3B3B",
"j 	c #EAE2A9",
"k 	c #D8BC89",
"l 	c #29334E",
"m 	c #3F607F",
"n 	c #3B7E90",
"o 	c #254A59",
"p 	c #1C2C3A",
"q 	c #274A4F",
"r 	c #4B9590",
"s 	c #56ADA8",
"t 	c #3E7C7D",
"u 	c #58B0AA",
"v 	c #28505D",
"w 	c #E8E1A8",
"x 	c #C2A679",
"y 	c #A48C68",
"z 	c #1A2034",
"A 	c #3E6B85",
"B 	c #3E7C90",
"C 	c #3F5578",
"D 	c #3F4D73",
"E 	c #29334F",
"F 	c #182231",
"G 	c #3B787F",
"H 	c #44898B",
"I 	c #428086",
"J 	c #2F475F",
"K 	c #E7E0A8",
"L 	c #A9916C",
"M 	c #837056",
"N 	c #2A3551",
"O 	c #3E6380",
"P 	c #3F4F74",
"Q 	c #394669",
"R 	c #20283F",
"S 	c #161C2E",
"T 	c #1F2D40",
"U 	c #387184",
"V 	c #2C3A55",
"W 	c #E0D7A2",
"X 	c #967F63",
"Y 	c #191F33",
"Z 	c #181F32",
"` 	c #171D2F",
" .	c #192536",
"..	c #346175",
"+.	c #31586C",
"@.	c #2E2E35",
"#.	c #383436",
"$.	c #B49F76",
"%.	c #837057",
"&.	c #826F56",
"*.	c #796756",
"=.	c #857368",
"-.	c #444C66",
";.	c #696C74",
">.	c #A0A1A2",
",.	c #ECE3D9",
"'.	c #96928E",
").	c #2F5D5F",
"!.	c #32424A",
"~.	c #AF956E",
"{.	c #5E4E4A",
"].	c #1B1F2F",
"^.	c #666467",
"/.	c #CEC8BD",
"(.	c #F7F2E4",
"_.	c #EFE5CD",
":.	c #EDDFC4",
"<.	c #E8D6A7",
"[.	c #C4B48C",
"}.	c #182433",
"|.	c #376F75",
"1.	c #304D58",
"2.	c #927D5E",
"3.	c #4D4142",
"4.	c #4E4143",
"5.	c #314761",
"6.	c #1E3746",
"7.	c #5D4D49",
"8.	c #AD9073",
"9.	c #E5D19D",
"0.	c #EFE1AB",
"a.	c #F3E8C2",
"b.	c #F8F2DE",
"c.	c #FEFDFB",
"d.	c #F8F5F0",
"e.	c #E6D3A0",
"f.	c #796953",
"g.	c #1A2A37",
"h.	c #4B9899",
"i.	c #3B7F90",
"j.	c #346F80",
"k.	c #364565",
"l.	c #364264",
"m.	c #2F3958",
"n.	c #1D253B",
"o.	c #7D665C",
"p.	c #BD9F79",
"q.	c #DBC08E",
"r.	c #EEE0AA",
"s.	c #F1E7C4",
"t.	c #7D6F5D",
"u.	c #E4D1A6",
"v.	c #C6BA99",
"w.	c #192636",
"x.	c #2B5362",
"y.	c #335764",
"z.	c #384658",
"A.	c #2C354F",
"B.	c #866E61",
"C.	c #C3A57C",
"D.	c #D5B583",
"E.	c #DCC18E",
"F.	c #E7D49F",
"G.	c #EFE1AE",
"H.	c #FBFAF6",
"I.	c #3B3C43",
"J.	c #B39A73",
"K.	c #DFD2B1",
"L.	c #5F5449",
"M.	c #735E55",
"N.	c #BB9D78",
"O.	c #D2B281",
"P.	c #9C8565",
"Q.	c #232331",
"R.	c #977B6A",
"S.	c #CEAF80",
"T.	c #D6B684",
"U.	c #F3EACD",
"V.	c #807D77",
"W.	c #564B41",
"X.	c #BEAF87",
"Y.	c #2B2D34",
"Z.	c #504343",
"`.	c #AD9072",
" +	c #BDA077",
".+	c #806D55",
"++	c #353135",
"@+	c #1F2130",
"#+	c #7F685C",
"$+	c #BC9E79",
"%+	c #CFAF80",
"&+	c #A9906B",
"*+	c #867359",
"=+	c #938A6D",
"-+	c #817E76",
";+	c #2E2D34",
">+	c #79735F",
",+	c #171C2E",
"'+	c #2C3147",
")+	c #202232",
"!+	c #564C43",
"~+	c #BA9E74",
"{+	c #5C5044",
"]+	c #685650",
"^+	c #A88B71",
"/+	c #D4B483",
"(+	c #D8BD8B",
"_+	c #D1C394",
":+	c #A79E7A",
"<+	c #979281",
"[+	c #838487",
"}+	c #202230",
"|+	c #C0A87F",
"1+	c #E2D7AD",
"2+	c #323237",
"3+	c #242D46",
"4+	c #1E263C",
"5+	c #192838",
"6+	c #367586",
"7+	c #5A6362",
"8+	c #6F5F4D",
"9+	c #3B343A",
"0+	c #977C69",
"a+	c #AF9274",
"b+	c #E9D8A3",
"c+	c #F1E5B7",
"d+	c #DDD9C9",
"e+	c #39363B",
"f+	c #E2D0AE",
"g+	c #E0D3AB",
"h+	c #302F35",
"i+	c #3D8496",
"j+	c #3E8597",
"k+	c #62797F",
"l+	c #B39675",
"m+	c #B39871",
"n+	c #847258",
"o+	c #5B4F48",
"p+	c #846D5F",
"q+	c #D2B382",
"r+	c #D9BC89",
"s+	c #EFE0AA",
"t+	c #F1E6C1",
"u+	c #BBB3A9",
"v+	c #ECDDA8",
"w+	c #C7BB8F",
"x+	c #45919C",
"y+	c #8A9C94",
"z+	c #C0A377",
"A+	c #8A765A",
"B+	c #918768",
"C+	c #CABF8F",
"D+	c #8B8366",
"E+	c #71614E",
"F+	c #B2976F",
"G+	c #D2B482",
"H+	c #F2E8C0",
"I+	c #F8F1DD",
"J+	c #DDCC9B",
"K+	c #74685D",
"L+	c #181E31",
"M+	c #428D9B",
"N+	c #96B4A2",
"O+	c #E3D29B",
"P+	c #D5B684",
"Q+	c #C7A97B",
"R+	c #8F8566",
"S+	c #333135",
"T+	c #928A6C",
"U+	c #B6AA83",
"V+	c #E0D4A3",
"W+	c #948C6F",
"X+	c #3C4A6F",
"Y+	c #2E3856",
"Z+	c #252B37",
"`+	c #628B94",
" @	c #3F8798",
".@	c #5FABA7",
"+@	c #E0D19C",
"@@	c #D3B382",
"#@	c #907A5E",
"$@	c #323E5E",
"%@	c #1A2033",
"&@	c #2B2D36",
"*@	c #354163",
"=@	c #404F75",
"-@	c #39466A",
";@	c #D0B282",
">@	c #ADAA92",
",@	c #74A29F",
"'@	c #D8C08E",
")@	c #DAC18D",
"!@	c #D4B482",
"~@	c #A4896C",
"{@	c #364465",
"]@	c #3F6582",
"^@	c #3F728A",
"/@	c #40587A",
"(@	c #3A466A",
"_@	c #404F76",
":@	c #3F768D",
"<@	c #3F5F7E",
"[@	c #1F273D",
"}@	c #2D2B33",
"|@	c #C8AA7C",
"1@	c #DEC893",
"2@	c #DEDBA8",
"3@	c #9CA091",
"4@	c #C9B086",
"5@	c #AB8F71",
"6@	c #355C73",
"7@	c #3F6783",
"8@	c #3F778E",
"9@	c #3E7C91",
"0@	c #3E6A84",
"a@	c #D8BB88",
"b@	c #E0D09B",
"c@	c #5EAEA9",
"d@	c #51989F",
"e@	c #969B8E",
"f@	c #86715B",
"g@	c #364364",
"h@	c #3F6381",
"i@	c #3E8194",
"j@	c #3E7F93",
"k@	c #2A3752",
"l@	c #594D42",
"m@	c #D4B583",
"n@	c #7B9896",
"o@	c #428C9A",
"p@	c #5F524E",
"q@	c #69594D",
"r@	c #2E3957",
"s@	c #3F6B86",
"t@	c #3E8094",
"u@	c #3E7089",
"v@	c #2A3852",
"w@	c #5C4F44",
"x@	c #A8A28D",
"y@	c #3A7180",
"z@	c #705D55",
"A@	c #202130",
"B@	c #242D47",
"C@	c #29344F",
"D@	c #293751",
"E@	c #293550",
"F@	c #A59B84",
"G@	c #387080",
"H@	c #4A4143",
"I@	c #222331",
"J@	c #263B47",
"K@	c #4B4243",
"L@	c #473D3F",
"                                                                                                                                ",
"                                                                                                                                ",
"                                                                                                                                ",
"                                                                                                                                ",
"                                                                                                                                ",
"                                                                                                                                ",
"                                                                                                                                ",
"                                                                                                                                ",
"                                                                                                                                ",
"                                                                                                                                ",
"                                                                            . +                                                 ",
"                                                                            @ #                                                 ",
"                                                                            $ % &                                               ",
"                                                * =                       - ; > ,                                               ",
"                                              ' ) ! ~ { ]                 ^ / ( _                                               ",
"                                            : < [ } | 1 2 3 4             5 6 7 8                                               ",
"                                          9 0 a b c d e f g h             i j k 8                                               ",
"                                          l m n o p q r s t u v           i w x y                                               ",
"                                          z A B C D E F G H I J           i K L M                                               ",
"                                            N O P Q R S T U U V           i W X M                                               ",
"                                              Y Z `      ...+.@.          #.$.%.&.                                              ",
"                                                    *.=.-.;.>.,.'.S     ).!.~.{.{.S                                             ",
"                                                  ].^./.(._.:.<.[.y   }.|.1.2.3.4.5.6.                                          ",
"                                                S 7.8.9.0.a.b.c.d.e.f.g.h.i.j.k.l.m.n.                                          ",
"                                                S o.p.q.r.0.0.s.t.u.v.S w.x.y.z.A.l Z                                           ",
"                                                ].B.C.D.E.F.G.H.I.J.K.L.  M.N.O.P.S                                             ",
"                                                Q.R.S.D.D.T.r.U.V.W.X.Y.  Z.`. +M                                               ",
"                                      S .+++    @+#+$+%+&+*+=+-+` S ;+>+S ,+'+)+                                                ",
"                                      S !+~+{+  S ]+^+/+(+_+:+<+[+}+|+1+2+  3+4+                                                ",
"                                      5+6+7+~+8+].9+0+a+%+T.b+c+d+e+f+g+h+                                                      ",
"                                      5+i+j+k+l+m+n+o+p+q+D.r+s+t+u+v+w+                                                        ",
"                                      5+i+x+y+z+A+B+C+D+E+F+G+r.H+I+J+K+L+                                                      ",
"                                      5+i+M+N+O+P+Q+R+n+4+L+S+T+U+V+W+X+Y+                                                      ",
"                                      Z+`+ @.@+@7 @@#@M l.X+$@l %@&@*@=@-@`                                                     ",
"                                      ++;@>@,@'@)@!@~@M {@]@^@/@D (@_@:@<@[@                                                    ",
"                                      }@|@1@2@3@4@@@5@M 6@7@j+j+8@8@9@a 0@R                                                     ",
"                                        y a@b@c@d@e@f@&.g@h@i@a a a a j@k@S S                                                   ",
"                                        l@|@m@n@o@i+p@q@r@=@s@9@j+t@u@v@S S S                                                   ",
"                                          w@|@x@a y@z@A@` B@E C@D@E@[@S   S S                                                   ",
"                                            w@F@G@H@I@    S S                                                                   ",
"                                              J@K@L@      S S                                                                   ",
"                                                S         S S                                                                   ",
"                                                          S S                                                                   ",
"                                                                                                                                ",
"                                                                                                                                ",
"                                                                                                                                ",
"                                                                                                                                ",
"                                                                                                                                ",
"                                                                                                                                ",
"                                                                                                                                ",
"                                                                                                                                ",
"                                                                                                                                ",
"                                                                                                                                ",
"                                                                                                                                ",
"                                                                                                                                ",
"                                                                                                                                ",
"                                                                                                                                ",
"                                                                                                                                ",
"                                                                                                                                ",
"                                                                                                                                ",
"                                                                                                                                ",
"                                                                                                                                ",
"                                                                                                                                ",
"                                                                                                                                "};
