/* XPM */
static char * ua4_xpm[] = {
"64 64 391 2",
"  	c None",
". 	c #EDE6AC",
"+ 	c #EDE6AE",
"@ 	c #FAF9ED",
"# 	c #EEE7AF",
"$ 	c #EDE6AD",
"% 	c #FCFAF2",
"& 	c #FFFFFF",
"* 	c #D9BE8B",
"= 	c #DEC893",
"- 	c #DDC792",
"; 	c #E5D7A0",
"> 	c #ECE4AB",
", 	c #F3EFCD",
"' 	c #F5F2D6",
") 	c #F1ECC4",
"! 	c #FFFFFE",
"~ 	c #F9F7E9",
"{ 	c #DFCA95",
"] 	c #EAE0A7",
"^ 	c #EDE5AB",
"/ 	c #E2D19B",
"( 	c #D5B683",
"_ 	c #D5B583",
": 	c #D6B784",
"< 	c #DBC28E",
"[ 	c #E3D39F",
"} 	c #F9F6F0",
"| 	c #FBFAEF",
"1 	c #FFFEFD",
"2 	c #EFE9BA",
"3 	c #EDE7AF",
"4 	c #FCFCF5",
"5 	c #E8DCA4",
"6 	c #E0CD97",
"7 	c #D8BC89",
"8 	c #D5B684",
"9 	c #D3B482",
"0 	c #BEA176",
"a 	c #A48C68",
"b 	c #837056",
"c 	c #85745A",
"d 	c #B2976F",
"e 	c #D2B281",
"f 	c #D6B787",
"g 	c #ECE0CB",
"h 	c #FEFDFD",
"i 	c #F7F4DF",
"j 	c #E4D59E",
"k 	c #B1976F",
"l 	c #575147",
"m 	c #427C7A",
"n 	c #284C50",
"o 	c #3F7D7B",
"p 	c #54A8A2",
"q 	c #3F7D7A",
"r 	c #33363B",
"s 	c #D2B382",
"t 	c #DBC19B",
"u 	c #E9DAC7",
"v 	c #F4EDE0",
"w 	c #E7DBA3",
"x 	c #34383C",
"y 	c #54A7A1",
"z 	c #56ADA8",
"A 	c #397170",
"B 	c #5AB3AC",
"C 	c #5AB2AC",
"D 	c #4C9CA1",
"E 	c #3E8492",
"F 	c #32536A",
"G 	c #5B514C",
"H 	c #C9AB7C",
"I 	c #D5B685",
"J 	c #EAE1A8",
"K 	c #FBF9EE",
"L 	c #D6B885",
"M 	c #A88F6A",
"N 	c #386E6D",
"O 	c #52A5A5",
"P 	c #3C787A",
"Q 	c #52A6A6",
"R 	c #3E8597",
"S 	c #326A7A",
"T 	c #3E8496",
"U 	c #364F6B",
"V 	c #947E5F",
"W 	c #E8DAB7",
"X 	c #FEFEFD",
"Y 	c #D8BB88",
"Z 	c #34686B",
"` 	c #59B2AC",
" .	c #54AAA8",
"..	c #49979E",
"+.	c #57AEAA",
"@.	c #3F8799",
"#.	c #3A7E90",
"$.	c #2E6171",
"%.	c #3D8395",
"&.	c #31414B",
"*.	c #C8AA7C",
"=.	c #E5D3BB",
"-.	c #203E4C",
";.	c #4C9A9B",
">.	c #4D9EA2",
",.	c #4FA0A3",
"'.	c #3E8698",
").	c #346F7F",
"!.	c #356B7D",
"~.	c #285362",
"{.	c #9D8664",
"].	c #E0CAAC",
"^.	c #FAF6F3",
"/.	c #1C2E3A",
"(.	c #468F92",
"_.	c #51A4A4",
":.	c #428C9A",
"<.	c #347080",
"[.	c #203949",
"}.	c #3F4E74",
"|.	c #29344F",
"1.	c #D6B788",
"2.	c #D6B889",
"3.	c #F1E9DE",
"4.	c #172132",
"5.	c #192737",
"6.	c #244856",
"7.	c #1E283D",
"8.	c #364264",
"9.	c #3C4A6F",
"0.	c #2C2E37",
"a.	c #2F3036",
"b.	c #E7D7C2",
"c.	c #E8D8C4",
"d.	c #D7B88A",
"e.	c #585449",
"f.	c #B8AE88",
"g.	c #9A937E",
"h.	c #83817F",
"i.	c #686661",
"j.	c #DFD2A2",
"k.	c #948B6E",
"l.	c #3C343A",
"m.	c #E0CBAD",
"n.	c #ECDFCF",
"o.	c #F6F0E9",
"p.	c #171C2E",
"q.	c #423A3D",
"r.	c #9F9F9E",
"s.	c #CFCAB9",
"t.	c #ECE7D8",
"u.	c #F9F6EB",
"v.	c #E4D2B9",
"w.	c #AF9273",
"x.	c #947969",
"y.	c #262532",
"z.	c #DCC29E",
"A.	c #ECE0D1",
"B.	c #DBC29C",
"C.	c #FFFEFE",
"D.	c #272632",
"E.	c #957969",
"F.	c #B59974",
"G.	c #CFBE90",
"H.	c #EEE1AC",
"I.	c #EFE2AE",
"J.	c #E9D7A2",
"K.	c #D4B583",
"L.	c #AF9274",
"M.	c #745F56",
"N.	c #E8D9C5",
"O.	c #E5D2BA",
"P.	c #EEE3D5",
"Q.	c #FDFDFD",
"R.	c #C8BEB2",
"S.	c #5C4D49",
"T.	c #A1856F",
"U.	c #EEE0B3",
"V.	c #FAF5E7",
"W.	c #FAF6E7",
"X.	c #F2E8C1",
"Y.	c #DCC18E",
"Z.	c #C9AA7E",
"`.	c #967A6A",
" +	c #3E363B",
".+	c #D6B888",
"++	c #F5EFE7",
"@+	c #DCC39F",
"#+	c #FAF8F4",
"$+	c #FCFBF5",
"%+	c #BDBBA6",
"&+	c #756057",
"*+	c #C7A87D",
"=+	c #ECDCA8",
"-+	c #F6EED5",
";+	c #FDFBF6",
">+	c #E7D49F",
",+	c #997D6C",
"'+	c #735E55",
")+	c #161C2E",
"!+	c #E4D3B1",
"~+	c #D6C897",
"{+	c #3A3B3B",
"]+	c #1D2030",
"^+	c #7D665C",
"/+	c #A98C71",
"(+	c #D6BB8B",
"_+	c #E4CFA6",
":+	c #F0E5C8",
"<+	c #F4ECCC",
"[+	c #EEE0AA",
"}+	c #C1A37B",
"|+	c #61504C",
"1+	c #171F30",
"2+	c #417576",
"3+	c #C0B48E",
"4+	c #D3B382",
"5+	c #CCAD7E",
"6+	c #958061",
"7+	c #373537",
"8+	c #232331",
"9+	c #95796A",
"0+	c #BC9E79",
"a+	c #DEC592",
"b+	c #F4EBCB",
"c+	c #F1E5B8",
"d+	c #AA8E72",
"e+	c #937869",
"f+	c #232A37",
"g+	c #2A5664",
"h+	c #7B8C85",
"i+	c #D4B483",
"j+	c #9C8565",
"k+	c #9A8362",
"l+	c #BDA075",
"m+	c #5C5044",
"n+	c #1B1F2F",
"o+	c #866E61",
"p+	c #D6B785",
"q+	c #EFE0AB",
"r+	c #F3E8C1",
"s+	c #ECDCA7",
"t+	c #DFC693",
"u+	c #9A8068",
"v+	c #3C393F",
"w+	c #2C5C6B",
"x+	c #917C5F",
"y+	c #A68D69",
"z+	c #363235",
"A+	c #B99D73",
"B+	c #73624E",
"C+	c #5F4E4A",
"D+	c #AE9173",
"E+	c #EAD8A5",
"F+	c #FCF9F0",
"G+	c #EEE0BC",
"H+	c #E9D8A3",
"I+	c #DDC491",
"J+	c #977B6A",
"K+	c #242A37",
"L+	c #367485",
"M+	c #2C2C35",
"N+	c #AE946D",
"O+	c #847157",
"P+	c #182030",
"Q+	c #242531",
"R+	c #5C4C49",
"S+	c #B59876",
"T+	c #E1CF9D",
"U+	c #F0E4B8",
"V+	c #F9F5E7",
"W+	c #F2E8C2",
"X+	c #EBDBA6",
"Y+	c #BCA17D",
"Z+	c #7E675C",
"`+	c #524943",
" @	c #AD936D",
".@	c #877B66",
"+@	c #316978",
"@@	c #285261",
"#@	c #3F363B",
"$@	c #8D7365",
"%@	c #987C6B",
"&@	c #CEAF81",
"*@	c #ECDCA6",
"=@	c #D7BA89",
"-@	c #897062",
";@	c #7C685B",
">@	c #7A6954",
",@	c #A38B68",
"'@	c #B99B77",
")@	c #877E74",
"!@	c #3F8496",
"~@	c #295463",
"{@	c #171D2F",
"]@	c #232432",
"^@	c #7D665B",
"/@	c #A1856E",
"(@	c #D9BE8C",
"_@	c #D3B483",
":@	c #AC9876",
"<@	c #363438",
"[@	c #D5CA97",
"}@	c #9E916E",
"|@	c #8C7E61",
"1@	c #A9906A",
"2@	c #B3A68A",
"3@	c #47959E",
"4@	c #29334E",
"5@	c #23293E",
"6@	c #40383E",
"7@	c #554A43",
"8@	c #2E2D36",
"9@	c #323241",
"0@	c #2D2C34",
"a@	c #B6A47A",
"b@	c #A38B67",
"c@	c #C3C8A2",
"d@	c #47949E",
"e@	c #2A344F",
"f@	c #404E75",
"g@	c #3F4D74",
"h@	c #3F4F74",
"i@	c #B0966F",
"j@	c #B89C73",
"k@	c #9DBFA7",
"l@	c #428C9B",
"m@	c #488897",
"n@	c #535E60",
"o@	c #404F75",
"p@	c #405076",
"q@	c #3F718A",
"r@	c #3E8094",
"s@	c #3F778E",
"t@	c #3E768C",
"u@	c #2E2F38",
"v@	c #B69A73",
"w@	c #C2A47B",
"x@	c #DBC18D",
"y@	c #95AA9B",
"z@	c #A1AB99",
"A@	c #C9B086",
"B@	c #857157",
"C@	c #40577A",
"D@	c #3F6B86",
"E@	c #3E7B91",
"F@	c #3D8496",
"G@	c #2E3139",
"H@	c #C0A27A",
"I@	c #BEA178",
"J@	c #D3B484",
"K@	c #A9A38D",
"L@	c #C5CAA4",
"M@	c #E3D39C",
"N@	c #71614D",
"O@	c #29334F",
"P@	c #3D4A6F",
"Q@	c #405D7D",
"R@	c #3F778D",
"S@	c #AD926F",
"T@	c #878679",
"U@	c #68989A",
"V@	c #54A9A7",
"W@	c #C4C8A1",
"X@	c #DAC18D",
"Y@	c #2B2932",
"Z@	c #2E3957",
"`@	c #405F7F",
" #	c #3E7088",
".#	c #272936",
"+#	c #866F5E",
"@#	c #357081",
"##	c #3F8798",
"$#	c #4B929C",
"%#	c #867258",
"&#	c #1E253B",
"*#	c #323E5E",
"=#	c #364465",
"-#	c #32405F",
";#	c #5D4D49",
">#	c #54656D",
",#	c #799393",
"'#	c #877358",
")#	c #181E31",
"!#	c #181E32",
"~#	c #3B343A",
"{#	c #435E69",
"]#	c #87958F",
"^#	c #1C1F2F",
"/#	c #5B4B48",
"(#	c #253B48",
"                                                                                                                                ",
"                                                                                                                                ",
"                                                                                                                                ",
"                                                                                                                                ",
"                                                                                                                                ",
"                                                                                                                                ",
"                                                                                                                                ",
"                                                                                                                                ",
"                                                                                                                                ",
"                                                        . . .                                                                   ",
"                                                . . . . . . . + @ # $ % &                                                       ",
"                                            * = = - - - = ; > . , ' . ) ! & ~ .                                                 ",
"                                        { ] ^ ^ ] / - ( _ _ : < [ } + $ | & 1 2 3 4 &                                           ",
"                                      = ^ . 5 6 7 8 9 0 a b c d e f : < g h & ' . i & &                                         ",
"                                    j ^ ^ = ( _ _ k l m n o p q r a s _ _ t u v + 2 ! & & &                                     ",
"                                _   w ] < _ _ _ e x y z A B C D E F G H _ _ _ I < J K & & & &                                   ",
"                              _ _ L w 7 _ _ _ _ M N B O P B Q R S T U V _ _ _ _ _ 7 W X & & & & &                               ",
"                              _   Y 7 _ _ _       Z `  ...B +.@.#.$.%.&.*._ _ _ _ _ _ =.X & & & & &                             ",
"                            _ _   _ _ _ _ _ _     -.;.B >.` B ,.'.).!.~.{._ _ _ _ _ _ _ ].^.& & & & &                           ",
"                          _ _   _ _ _               /.(._.Q D :.<.[.}.|.    _ _ _ _ _ _ 1.2.3.& & & & &                         ",
"                          _ _   _ _                   4.5.~.~.6.7.8.9.0.a.    _ _ _ _ I b.c.d.3.& & & & &                       ",
"                          _ _                               e.f.g.h.i.j.k.l.    _ _ _ _ _ m.n.d.o.& & & &                       ",
"                          _ _                             p.q.r.s.t.u.v.w.x.y.  _ _ _ _ _ _ z.A.B.h & & & C.                    ",
"                          _                               D.E.F.G.H.I.J.K.L.M.p.  _ _ _ _ _ _ N.O.P.& & Q.R.                    ",
"                      _                                   S.T._ U.V.W.X.Y.Z.`. +  _ _ _ _ _ _ .+++@+#+$+%+                      ",
"                      _                                   &+*+8 =+-+;+I.>+Z.,+'+)+  _ _ _ _ _ _ v.c.!+~+{+                      ",
"                    _ _                                 ]+^+/+(+_+:+;+<+[+8 }+|+1+2+3+_ _ _ 4+5+Y H 6+7+                        ",
"                    _                                   8+9+0+a+b+W.V.c+[+Y d+e+f+g+h+i+0 j+k+4+l+m+                            ",
"                  _ _                                   n+o+L.p+q+b+r+s+t+8 4+u+v+w+x+y+b z+A+B+                                ",
"                  _                                     )+C+D+_ E+;+F+G+H+I+Z.J+K+L+M+N+O+P+Q+                                  ",
"                                                          R+,+S+T+U+V+W+X+Y+}+Z+n+`+ @.@+@@@                                    ",
"                                                          #@$@%@&@p+*@H+=@-@;@>@,@'@)@!@'.~@                                    ",
"                                                          {@]@^@/@4+(@_@:@<@[@}@|@1@2@3@'.~@                                    ",
"                                                        )+4@8.5@6@7@8@9@4@0@a@b@i+= c@d@'.~@                                    ",
"                                                        )+e@f@g@}.h@g@g@g@8@i@j@7 / k@l@m@n@                                    ",
"                                                        )+8.o@p@q@r@s@s@t@u@v@w@Y x@y@z@A@B@                                    ",
"                                                        )+8.C@D@E@'.'.'.F@G@H@I@J@K@L@M@K.N@                                    ",
"                                                        )+O@P@Q@R@'.'.'.F@G@S@T@U@V@W@X@*.Y@                                    ",
"                                                          )+Z@f@`@R@r@r@ #.#+#@###$#A@9 %#                                      ",
"                                                            &#*#9.9.=#-#4@{@;#>#R ,#4+'#                                        ",
"                                                            )+)+)#!#)+)+    )+~#{#]#'#                                          ",
"                                                            )+)+            )+^#/#(#                                            ",
"                                                          )+)+                  )+                                              ",
"                                                                                                                                ",
"                                                                                                                                ",
"                                                                                                                                ",
"                                                                                                                                ",
"                                                                                                                                ",
"                                                                                                                                ",
"                                                                                                                                ",
"                                                                                                                                ",
"                                                                                                                                ",
"                                                                                                                                ",
"                                                                                                                                ",
"                                                                                                                                ",
"                                                                                                                                ",
"                                                                                                                                ",
"                                                                                                                                ",
"                                                                                                                                ",
"                                                                                                                                ",
"                                                                                                                                ",
"                                                                                                                                ",
"                                                                                                                                ",
"                                                                                                                                "};
