/* XPM */
static char * ua5_xpm[] = {
"64 64 348 2",
"  	c None",
". 	c #D5B583",
"+ 	c #EDE6AC",
"@ 	c #161D2E",
"# 	c #1C2E39",
"$ 	c #386F6E",
"% 	c #EDE5AB",
"& 	c #182232",
"* 	c #428484",
"= 	c #58AFA9",
"- 	c #5AB3AC",
"; 	c #4B9691",
"> 	c #4A938F",
", 	c #407F7C",
"' 	c #74644F",
") 	c #D7BB88",
"! 	c #E8DCA4",
"~ 	c #192033",
"{ 	c #35566E",
"] 	c #3E8698",
"^ 	c #438D9B",
"/ 	c #57AEAA",
"( 	c #55A9A2",
"_ 	c #3A7372",
": 	c #59B2AB",
"< 	c #3D7170",
"[ 	c #B1976F",
"} 	c #D8BC89",
"| 	c #FFFEFD",
"1 	c #F0EABC",
"2 	c #29344F",
"3 	c #3E7B90",
"4 	c #326B7B",
"5 	c #3D8496",
"6 	c #52A5A5",
"7 	c #479398",
"8 	c #4D9B98",
"9 	c #70604E",
"0 	c #D4B483",
"a 	c #D5B684",
"b 	c #FBF9F0",
"c 	c #EDE6AE",
"d 	c #F7F4DF",
"e 	c #192536",
"f 	c #3D8395",
"g 	c #295665",
"h 	c #47939D",
"i 	c #52A5A6",
"j 	c #52A6A6",
"k 	c #364E50",
"l 	c #D2B382",
"m 	c #D6B887",
"n 	c #E3D39E",
"o 	c #FDFCF6",
"p 	c #FFFFFE",
"q 	c #182334",
"r 	c #3A7387",
"s 	c #2D5769",
"t 	c #54A9A7",
"u 	c #55ABA8",
"v 	c #59B2AC",
"w 	c #5AB2AB",
"x 	c #366A6A",
"y 	c #D3B482",
"z 	c #D5B685",
"A 	c #EEE2D4",
"B 	c #FEFEFC",
"C 	c #F3EFCE",
"D 	c #315169",
"E 	c #2F3B59",
"F 	c #346F7F",
"G 	c #49979F",
"H 	c #57AEA9",
"I 	c #418488",
"J 	c #192634",
"K 	c #EDE3CB",
"L 	c #F5F2D7",
"M 	c #FFFFFF",
"N 	c #181F32",
"O 	c #394569",
"P 	c #202B40",
"Q 	c #2C5D6D",
"R 	c #347081",
"S 	c #357180",
"T 	c #295563",
"U 	c #182233",
"V 	c #F6F2E4",
"W 	c #2A2C34",
"X 	c #C2B78E",
"Y 	c #464957",
"Z 	c #3B4564",
"` 	c #2A334E",
" .	c #7B755E",
"..	c #323237",
"+.	c #E0CAAC",
"@.	c #FFFEFE",
"#.	c #3C343A",
"$.	c #4F4242",
"%.	c #B2B0AA",
"&.	c #F3EFE1",
"*.	c #DAD1B5",
"=.	c #CFC8B1",
"-.	c #EEE2B6",
";.	c #A79E7A",
">.	c #1D2030",
",.	c #F2E9DF",
"'.	c #1C1F2F",
").	c #866D60",
"!.	c #AE9173",
"~.	c #B7A077",
"{.	c #CDC298",
"].	c #F5EED4",
"^.	c #F9F4E6",
"/.	c #DFC9AA",
"(.	c #9F836D",
"_.	c #735E55",
":.	c #DBC19B",
"<.	c #FEFEFD",
"[.	c #5F4F4B",
"}.	c #CFAF80",
"|.	c #E4D09C",
"1.	c #F4EBCB",
"2.	c #EFE2AE",
"3.	c #DBC08E",
"4.	c #BD9F79",
"5.	c #866E61",
"6.	c #212231",
"7.	c #D6B787",
"8.	c #FAF7F3",
"9.	c #EFE4D7",
"0.	c #161C2E",
"a.	c #80695D",
"b.	c #B79977",
"c.	c #EBDBA6",
"d.	c #F8F2DF",
"e.	c #F6EED3",
"f.	c #E1CA96",
"g.	c #D3B382",
"h.	c #987C6B",
"i.	c #3E353B",
"j.	c #F1F1F1",
"k.	c #CFBA9D",
"l.	c #504343",
"m.	c #977B6B",
"n.	c #C2A47C",
"o.	c #E3CE9A",
"p.	c #E0C897",
"q.	c #F2E8CB",
"r.	c #FCF9F0",
"s.	c #E7D49F",
"t.	c #C9AA7E",
"u.	c #997D6C",
"v.	c #5E4E4A",
"w.	c #D5B683",
"x.	c #E4D1B7",
"y.	c #F3EBE1",
"z.	c #F2EFD4",
"A.	c #777879",
"B.	c #7D665C",
"C.	c #D4B482",
"D.	c #E7D4A0",
"E.	c #F8F1DD",
"F.	c #FEFDFB",
"G.	c #F1E5B8",
"H.	c #BB9D78",
"I.	c #6B5851",
"J.	c #1E3745",
"K.	c #25474D",
"L.	c #BBA176",
"M.	c #E0CC97",
"N.	c #E5D69F",
"O.	c #E2D19A",
"P.	c #D6B786",
"Q.	c #DDC994",
"R.	c #979371",
"S.	c #9A7E6C",
"T.	c #F0E2B0",
"U.	c #EFE1AB",
"V.	c #E6D39E",
"W.	c #CEAF80",
"X.	c #A1846E",
"Y.	c #7D665B",
"Z.	c #326367",
"`.	c #35696D",
" +	c #2F5C5E",
".+	c #5D5144",
"++	c #B5AD83",
"@+	c #D9D09D",
"#+	c #B7AE83",
"$+	c #B59F75",
"%+	c #6B6855",
"&+	c #67554F",
"*+	c #FBF8ED",
"=+	c #FAF5E6",
"-+	c #E9D8AC",
";+	c #DFC693",
">+	c #D6B785",
",+	c #A2866D",
"'+	c #31646E",
")+	c #595046",
"!+	c #695B4A",
"~+	c #927D5F",
"{+	c #A99D78",
"]+	c #A18968",
"^+	c #D0B180",
"/+	c #A68D69",
"(+	c #766550",
"_+	c #514343",
":+	c #967A6B",
"<+	c #A1856F",
"[+	c #DCC695",
"}+	c #F4EBCC",
"|+	c #F3E8C2",
"1+	c #EEE0AA",
"2+	c #E1C996",
"3+	c #A68A70",
"4+	c #5C4C49",
"5+	c #867359",
"6+	c #AD936D",
"7+	c #272933",
"8+	c #695750",
"9+	c #AE936F",
"0+	c #A48C68",
"a+	c #5B4F43",
"b+	c #1B1F2F",
"c+	c #A78B71",
"d+	c #EFE1AD",
"e+	c #E7D5A0",
"f+	c #DBC594",
"g+	c #C6AB81",
"h+	c #AF9470",
"i+	c #554745",
"j+	c #927C5E",
"k+	c #AE9570",
"l+	c #36616E",
"m+	c #306777",
"n+	c #4C4041",
"o+	c #282732",
"p+	c #242D46",
"q+	c #202232",
"r+	c #C1A37A",
"s+	c #DCC391",
"t+	c #DEC592",
"u+	c #D8C594",
"v+	c #9E8669",
"w+	c #736152",
"x+	c #968061",
"y+	c #B99D75",
"z+	c #9E8973",
"A+	c #4F7E8C",
"B+	c #28334E",
"C+	c #171E30",
"D+	c #3F4D73",
"E+	c #394669",
"F+	c #282F48",
"G+	c #2B2A36",
"H+	c #564B43",
"I+	c #837056",
"J+	c #544A41",
"K+	c #BCB185",
"L+	c #AFA37B",
"M+	c #908667",
"N+	c #998262",
"O+	c #C8AB7E",
"P+	c #4E929C",
"Q+	c #428B9A",
"R+	c #1D3443",
"S+	c #172031",
"T+	c #1E263C",
"U+	c #3D4A6F",
"V+	c #404E75",
"W+	c #3F4F75",
"X+	c #3C4A6F",
"Y+	c #364264",
"Z+	c #B5A279",
"`+	c #766651",
" @	c #D9BD8A",
".@	c #E2D5A0",
"+@	c #569FA1",
"@@	c #3F8798",
"#@	c #29334F",
"$@	c #405076",
"%@	c #405F7F",
"&@	c #3E8497",
"*@	c #3F778E",
"=@	c #294A5C",
"-@	c #AF956E",
";@	c #907A5E",
">@	c #E2D09A",
",@	c #C3C8A1",
"'@	c #4C9BA1",
")@	c #428798",
"!@	c #5D797E",
"~@	c #404F75",
"{@	c #3F6F88",
"]@	c #3F6C87",
"^@	c #285362",
"/@	c #A58A6D",
"(@	c #DBC28E",
"_@	c #BCB896",
":@	c #87A79F",
"<@	c #BFAC89",
"[@	c #B19770",
"}@	c #405679",
"|@	c #3F6B86",
"1@	c #B0966F",
"2@	c #AA8F70",
"3@	c #D4B583",
"4@	c #BEAC89",
"5@	c #A6B29B",
"6@	c #E6DCA4",
"7@	c #1F273E",
"8@	c #404D74",
"9@	c #40577A",
"0@	c #3F718A",
"a@	c #A98F6B",
"b@	c #7B7162",
"c@	c #7E9C98",
"d@	c #4F9DA1",
"e@	c #9ABBA5",
"f@	c #DFCB96",
"g@	c #71614D",
"h@	c #171D2F",
"i@	c #2E3856",
"j@	c #39466A",
"k@	c #364265",
"l@	c #2E3957",
"m@	c #1E253B",
"n@	c #866F5E",
"o@	c #325664",
"p@	c #45919C",
"q@	c #A8A38D",
"r@	c #B0966E",
"s@	c #262631",
"t@	c #191F33",
"u@	c #40373B",
"v@	c #69615E",
"w@	c #3B7E90",
"x@	c #458798",
"y@	c #C9B086",
"z@	c #2D2B33",
"A@	c #3A3339",
"B@	c #404850",
"C@	c #45808F",
"D@	c #AD946F",
"E@	c #5D4D4A",
"F@	c #253946",
"G@	c #232734",
"                                                                                                                                ",
"                                                                                                                                ",
"                                                                                                                                ",
"                                                                                                                                ",
"                                                                                                                                ",
"                                                                                                                                ",
"                                                                                                                                ",
"                                                                                                                                ",
"                                                                                                                                ",
"                                                      . . . .                                                                   ",
"                                                . . . . . . . . . . . . .                                                       ",
"                                                                . . . .                                                         ",
"                                                                                + +                                             ",
"                                                                      @ # $ $ #     % +                                         ",
"                                                                    & * = - ; > , ' ) !                                         ",
"                                                                  ~ { ] ^ / ( _ : < [ }   | 1                                   ",
"                                                                  2 3 4 5 6 - 7 : 8 9 0 a b c d                                 ",
"                                                                  e f g ] h - i j 6 k l . m n o p                               ",
"                                                                  q r s ] t - u v w x y . . z A B C                             ",
"                                                                    D E F G j / H I J   . . . z K L M                           ",
"                                                                    N O P Q R S T U       . . . } V M M                         ",
"                                                                  W X Y Z `  ...            . . . +.@.M M                       ",
"                                                                #.$.%.&.*.=.-.;.>.          .   . z ,.M M M                     ",
"                                                              '.).!.~.{.].^./.(._.          .   . . :.<.M M M                   ",
"                                                              [.!.}.|.1.1.2.3.4.5.6.        .   . . 7.8.M M M 9.                ",
"                                                            0.a.b.a c.d.p e.f.g.h.i.            . . . A M M j.k.                ",
"                                                            l.m.n.o.p.q.r.2.s.t.u.v.            . w.} x.y.z.A.                  ",
"                                                          0.B.u.C.D.E.F.B G.s.0 H.I.J.K.      L.M.N.O.P.Q.R.                    ",
"                                                          0.I.S.C.s.2.T.2.U.V.W.X.Y.Z.`. +.+++@+#+) 0 $+%+                      ",
"                                                            &+!.}.D.*+=+-+;+>+t.,+[.'+)+!+~+{+]+^+/+(+                          ",
"                                                            _+:+<+[+}+B |+1+2+t.3+4+5+6+7+8+9+0+a+                              ",
"                                                            b+Y.c+0 ;+d+e+f+g+h+i+j+k+l+m+n+o+                                  ",
"                                                          0.p+q+Y.r+s+t+u+v+w+x+y+z+A+] R B+C+                                  ",
"                                                          N D+E+F+G+H+I+J+K+L+M+N+O+P+Q+R R+S+                                  ",
"                                                        0.T+U+V+V+W+X+Y+p+Z+`+l  @.@+@@@R 0.                                    ",
"                                                        0.#@V+$@%@&@*@*@=@-@;@w.>@,@'@)@!@                                      ",
"                                                        0.#@~@{@]@] ] ] ^@-@/@w.(@_@:@<@[@                                      ",
"                                                          T+E+}@|@] ] ] ^@1@2@3@4@5@6@} 0+                                      ",
"                                                          0.7@8@9@0@*@*@=@a@b@c@d@e@f@3@g@                                      ",
"                                                            h@i@j@D+k@l@m@n@o@] p@q@. r@s@                                      ",
"                                                            0.0.h@t@0.    u@v@w@x@y@r@z@                                        ",
"                                                            0.0.            A@B@C@D@z@                                          ",
"                                                          0.0.                E@F@G@                                            ",
"                                                                                0.                                              ",
"                                                                                                                                ",
"                                                                                                                                ",
"                                                                                                                                ",
"                                                                                                                                ",
"                                                                                                                                ",
"                                                                                                                                ",
"                                                                                                                                ",
"                                                                                                                                ",
"                                                                                                                                ",
"                                                                                                                                ",
"                                                                                                                                ",
"                                                                                                                                ",
"                                                                                                                                ",
"                                                                                                                                ",
"                                                                                                                                ",
"                                                                                                                                ",
"                                                                                                                                ",
"                                                                                                                                ",
"                                                                                                                                ",
"                                                                                                                                "};
