/* XPM */
static char * da2_xpm[] = {
"64 64 313 2",
"  	c None",
". 	c #182334",
"+ 	c #244857",
"@ 	c #295463",
"# 	c #213E4A",
"$ 	c #1B2B37",
"% 	c #161D2E",
"& 	c #1F3A48",
"* 	c #3A7E8F",
"= 	c #3E8698",
"- 	c #408899",
"; 	c #51A3A4",
"> 	c #53A7A5",
", 	c #2F6068",
"' 	c #161C2E",
") 	c #181F32",
"! 	c #3B7388",
"~ 	c #3E8597",
"{ 	c #4EA0A3",
"] 	c #59B2AB",
"^ 	c #50A2A4",
"/ 	c #57ADA9",
"( 	c #52A5A5",
"_ 	c #386F6F",
": 	c #192534",
"< 	c #293550",
"[ 	c #3E7B90",
"} 	c #254C5A",
"| 	c #509F99",
"1 	c #5AB3AC",
"2 	c #57AEA9",
"3 	c #59B0A9",
"4 	c #1D303B",
"5 	c #32405F",
"6 	c #253E51",
"7 	c #39706F",
"8 	c #479399",
"9 	c #4A9695",
"0 	c #182433",
"a 	c #2E3856",
"b 	c #3F6985",
"c 	c #3F5779",
"d 	c #306068",
"e 	c #5AB2AC",
"f 	c #59B0AA",
"g 	c #3D7A7B",
"h 	c #34676B",
"i 	c #3C4A6E",
"j 	c #3C496E",
"k 	c #2A5563",
"l 	c #54AAA8",
"m 	c #50A19F",
"n 	c #3E7F81",
"o 	c #4EA0A2",
"p 	c #1F3C4B",
"q 	c #181E31",
"r 	c #171E30",
"s 	c #182435",
"t 	c #4C9A9B",
"u 	c #4A8D8E",
"v 	c #4D9694",
"w 	c #387075",
"x 	c #272731",
"y 	c #6E5E4C",
"z 	c #476071",
"A 	c #325169",
"B 	c #4A777E",
"C 	c #867A61",
"D 	c #282732",
"E 	c #1B1F2F",
"F 	c #6C5D4B",
"G 	c #CCBCA3",
"H 	c #ECE9E0",
"I 	c #CFCAB9",
"J 	c #DDD7C4",
"K 	c #DFD0B2",
"L 	c #635549",
"M 	c #202130",
"N 	c #D3B484",
"O 	c #3C3A3F",
"P 	c #171C2E",
"Q 	c #776257",
"R 	c #B59A72",
"S 	c #9C8A6A",
"T 	c #C6B99A",
"U 	c #EBDEC2",
"V 	c #F1E6CF",
"W 	c #E6D5BB",
"X 	c #C2A47C",
"Y 	c #6B5851",
"Z 	c #DBC19C",
"` 	c #E2E1E0",
" .	c #AAA78E",
"..	c #9A9573",
"+.	c #252532",
"@.	c #A58970",
"#.	c #D0B081",
"$.	c #E2CB99",
"%.	c #F6F0DC",
"&.	c #89836E",
"*.	c #F5EFDB",
"=.	c #E4D09C",
"-.	c #CFAF80",
";.	c #AC9072",
">.	c #272632",
",.	c #ECE1D4",
"'.	c #FAF9EE",
").	c #DFCA99",
"!.	c #9D906D",
"~.	c #242431",
"{.	c #2D2B33",
"].	c #806E55",
"^.	c #6A5750",
"/.	c #C2A47B",
"(.	c #D5B684",
"_.	c #EEDFB2",
":.	c #F2E9CB",
"<.	c #444445",
"[.	c #F2E9CA",
"}.	c #ECDDA8",
"|.	c #DCC18E",
"1.	c #CFB081",
"2.	c #6B5850",
"3.	c #424044",
"4.	c #D4D3CD",
"5.	c #F0E7CF",
"6.	c #B0966E",
"7.	c #564B42",
"8.	c #AD936D",
"9.	c #71614D",
"0.	c #826C5B",
"a.	c #C9AA7E",
"b.	c #DEC592",
"c.	c #F1E5B8",
"d.	c #DFDBD0",
"e.	c #2D303B",
"f.	c #DDD8C6",
"g.	c #F2E7C0",
"h.	c #E4CF9B",
"i.	c #DABE8C",
"j.	c #9A8068",
"k.	c #1C1F2F",
"l.	c #CEB693",
"m.	c #E7E2D2",
"n.	c #E8DCA5",
"o.	c #D6B684",
"p.	c #2F2C33",
"q.	c #73634F",
"r.	c #A38B68",
"s.	c #B99B77",
"t.	c #927965",
"u.	c #292733",
"v.	c #A5896F",
"w.	c #C4A67A",
"x.	c #C1B186",
"y.	c #D1CDC2",
"z.	c #9D9EA0",
"A.	c #9A9790",
"B.	c #C9BE94",
"C.	c #C1B187",
"D.	c #CAAB7D",
"E.	c #927A63",
"F.	c #3D3F45",
"G.	c #B7B287",
"H.	c #E3D59E",
"I.	c #B69B72",
"J.	c #C6A87A",
"K.	c #796F57",
"L.	c #696252",
"M.	c #7A6459",
"N.	c #856D60",
"O.	c #AD9073",
"P.	c #CAAC7D",
"Q.	c #7E775F",
"R.	c #222531",
"S.	c #232836",
"T.	c #7F7864",
"U.	c #BDA078",
"V.	c #977C6B",
"W.	c #232331",
"X.	c #292C34",
"Y.	c #A6A27B",
"Z.	c #D0CA98",
"`.	c #9A8466",
" +	c #C7A97B",
".+	c #584C43",
"++	c #4E4142",
"@+	c #2C4156",
"#+	c #1F2231",
"$+	c #987F67",
"%+	c #D0B182",
"&+	c #EDDFAA",
"*+	c #DAD3BA",
"=+	c #7B7560",
"-+	c #D7CDA9",
";+	c #F1E6BF",
">+	c #A0866A",
",+	c #3A3339",
"'+	c #969270",
")+	c #CBC293",
"!+	c #776651",
"~+	c #957B67",
"{+	c #504344",
"]+	c #28324D",
"^+	c #2A344F",
"/+	c #524544",
"(+	c #CFB082",
"_+	c #E7D4A0",
":+	c #F1E5B9",
"<+	c #BEB8A4",
"[+	c #C0BCAF",
"}+	c #F7F1DC",
"|+	c #ECDCA7",
"1+	c #AD9072",
"2+	c #181D2E",
"3+	c #89765B",
"4+	c #BB9F74",
"5+	c #66564A",
"6+	c #5B4C49",
"7+	c #323D5E",
"8+	c #354163",
"9+	c #60504B",
"0+	c #D8BD8B",
"a+	c #E6D39E",
"b+	c #EFE1AB",
"c+	c #E8E2CB",
"d+	c #45464A",
"e+	c #E7DFC3",
"f+	c #EFE1AC",
"g+	c #D4B483",
"h+	c #937C61",
"i+	c #7D6C56",
"j+	c #5A6260",
"k+	c #806D55",
"l+	c #2A4157",
"m+	c #354162",
"n+	c #544942",
"o+	c #554A41",
"p+	c #867258",
"q+	c #DDC491",
"r+	c #F8F2DE",
"s+	c #ECE9DE",
"t+	c #F4EBCC",
"u+	c #D7BA88",
"v+	c #212230",
"w+	c #376D6D",
"x+	c #387176",
"y+	c #2D5F6E",
"z+	c #3A788A",
"A+	c #796855",
"B+	c #C9AB7C",
"C+	c #B1976F",
"D+	c #181D2F",
"E+	c #86745A",
"F+	c #E1D3A1",
"G+	c #EFE2AD",
"H+	c #EFE2AE",
"I+	c #D2C394",
"J+	c #857258",
"K+	c #29334E",
"L+	c #1B1E2F",
"M+	c #38333A",
"N+	c #468C8B",
"O+	c #3F848D",
"P+	c #283D4A",
"Q+	c #A68A70",
"R+	c #CEAE80",
"S+	c #A38969",
"T+	c #2D3855",
"U+	c #32333A",
"V+	c #A79E7A",
"W+	c #EADDA8",
"X+	c #2B2D37",
"Y+	c #3F4E74",
"Z+	c #1E263C",
"`+	c #4F4243",
" @	c #4E4444",
".@	c #685751",
"+@	c #5F4E4A",
"@@	c #5D4D49",
"#@	c #756056",
"$@	c #3F3944",
"%@	c #2A334F",
"&@	c #39466A",
"*@	c #3C4A6F",
"=@	c #313136",
"-@	c #3F6683",
";@	c #3E768C",
">@	c #2F3B59",
",@	c #3C343A",
"'@	c #937869",
")@	c #3D353A",
"!@	c #1D253A",
"~@	c #253B4F",
"{@	c #3C617C",
"]@	c #3F6A85",
"^@	c #3F5076",
"/@	c #374365",
"(@	c #3F4F75",
"_@	c #3F768D",
":@	c #35556F",
"<@	c #394669",
"[@	c #40587B",
"}@	c #3E8094",
"|@	c #3E8497",
"1@	c #3F778E",
"2@	c #3E7C91",
"3@	c #3E768D",
"4@	c #2A3550",
"5@	c #3E7189",
"6@	c #3B7488",
"7@	c #2D465D",
"8@	c #171D2F",
"                                                                                                                                ",
"                                                                                                                                ",
"                                                                                                                                ",
"                                                                                                                                ",
"                                                                                                                                ",
"                                                                                                                                ",
"                                                                                                                                ",
"                                                                                                                                ",
"                                                                                                                                ",
"                                                                                                                                ",
"                                                                                                                                ",
"                                                                                                                                ",
"                                                                                                                                ",
"                                                                                                                                ",
"                                                      . + @ # $ %                                                               ",
"                                                    & * = - ; > , '                                                             ",
"                                                  ) ! ~ { ] ^ / ( _ :                                                           ",
"                                                  < [ } | 1 2 ^ 1 3 4                                                           ",
"                                                  5 [ 6 7 1 ] 8 1 9 0                                                           ",
"                                                  a b c d e f g e h '                                                           ",
"                                                  ) i j k l m n o p                                                             ",
"                                                    q r s t u v w                                                               ",
"                                                      x y z A B C D                                                             ",
"                                                    E F G H I J K L M                                                           ",
"                        N O                       P Q R S T U V W X Y P                                                         ",
"                        Z `  ...                  +.@.#.$.%.&.*.=.-.;.>.                                                        ",
"                          ,.'.).!.~.          {.].^./.(._.:.<.[.}.|.1.2.                                                        ",
"                          3.4.5.(.6.{.      7.8.9.0.a.b.c.d.e.f.g.h.i.j.k.                                                      ",
"                            l.m.n.o.6.p.q.r.s.t.u.v.w.x.y.z.' A.B.C.D.E.E                                                       ",
"                              F.G.H.I.J.K.L.M.N.u.O.P.Q.R.' ' ' S.T.U.V.W.                                                      ",
"                                X.Y.Z.`. +.+++@+#+$+%+&+*+=+' =+-+;+%+>+,+                                                      ",
"                                    '+)+!+~+{+]+^+/+(+_+:+<+' [+}+|+o.1+>.                                                      ",
"                                    2+3+4+5+6+7+8+9+0+a+b+c+d+e+f+h.g+h+P                                                       ",
"                                    x i+j+k+l+m+n+o+p+q+f+r+s+t+b+u+p+v+                                                        ",
"                                    ' w+x+y+z+A+B+C+D+E+F+G+H+b+I+J+K+q                                                         ",
"                                    L+M+N+O+P+Q+R+S+T+8+U+V+W+V+X+8+Y+Z+                                                        ",
"                                      `+ @.@+@@@#@$@%@&@*@^+=@^+*@-@;@>@'                                                       ",
"                                        ,@Y '@)@!@Z+~@{@]@^@/@(@_@= = :@'                                                       ",
"                                          6+)@    ) <@[@}@|@1@2@= = 3@4@'                                                       ",
"                                                  ' K+*@c 5@3@3@3@6@7@8@'                                                       ",
"                                                      q ) ) ) ) ) q ' ' '                                                       ",
"                                                        ' ' '         ' '                                                       ",
"                                                        ' ' '         ' '                                                       ",
"                                                                                                                                ",
"                                                                                                                                ",
"                                                                                                                                ",
"                                                                                                                                ",
"                                                                                                                                ",
"                                                                                                                                ",
"                                                                                                                                ",
"                                                                                                                                ",
"                                                                                                                                ",
"                                                                                                                                ",
"                                                                                                                                ",
"                                                                                                                                ",
"                                                                                                                                ",
"                                                                                                                                ",
"                                                                                                                                ",
"                                                                                                                                ",
"                                                                                                                                ",
"                                                                                                                                ",
"                                                                                                                                ",
"                                                                                                                                ",
"                                                                                                                                "};
