/* XPM */
static char * da4_xpm[] = {
"64 64 418 2",
"  	c None",
". 	c #1F3C4B",
"+ 	c #2D5F6E",
"@ 	c #347081",
"# 	c #357181",
"$ 	c #3A7477",
"% 	c #38706F",
"& 	c #274B51",
"* 	c #3D8496",
"= 	c #3E8698",
"- 	c #48969E",
"; 	c #4C9CA1",
"> 	c #53A7A6",
", 	c #54A9A7",
"' 	c #49969E",
") 	c #418589",
"! 	c #284E52",
"~ 	c #2E455E",
"{ 	c #3E8194",
"] 	c #3C8092",
"^ 	c #4F9F9E",
"/ 	c #5AB3AC",
"( 	c #5AB2AC",
"_ 	c #4D9EA2",
": 	c #57AEAA",
"< 	c #509F99",
"[ 	c #1A2936",
"} 	c #323F5E",
"| 	c #3E7B91",
"1 	c #3E8597",
"2 	c #345169",
"3 	c #407E7C",
"4 	c #59B2AB",
"5 	c #479398",
"6 	c #3A7577",
"7 	c #20283F",
"8 	c #3F5E7D",
"9 	c #3E8295",
"0 	c #3F778D",
"a 	c #354263",
"b 	c #468B88",
"c 	c #4B9692",
"d 	c #4C9792",
"e 	c #55AAA8",
"f 	c #367281",
"g 	c #323F5F",
"h 	c #3F7089",
"i 	c #3F6A85",
"j 	c #404F75",
"k 	c #2E475E",
"l 	c #52A5A5",
"m 	c #397478",
"n 	c #54A9A6",
"o 	c #1F273D",
"p 	c #323E5E",
"q 	c #364264",
"r 	c #323D5D",
"s 	c #192335",
"t 	c #428B94",
"u 	c #59B1AA",
"v 	c #3F7F82",
"w 	c #54A8A2",
"x 	c #1A2A37",
"y 	c #161C2E",
"z 	c #305862",
"A 	c #498C93",
"B 	c #3B6771",
"C 	c #3F7677",
"D 	c #292832",
"E 	c #212330",
"F 	c #917C5E",
"G 	c #B8B0A4",
"H 	c #9FA0A5",
"I 	c #999382",
"J 	c #D1C498",
"K 	c #A28A67",
"L 	c #1F2130",
"M 	c #171C2E",
"N 	c #4F4342",
"O 	c #5D5248",
"P 	c #BBB3A9",
"Q 	c #E1DED9",
"R 	c #F3EADF",
"S 	c #F9F6F0",
"T 	c #BBA68B",
"U 	c #967C68",
"V 	c #222331",
"W 	c #41383C",
"X 	c #B49775",
"Y 	c #C8AA7C",
"Z 	c #DBCB9A",
"` 	c #EFE4BF",
" .	c #CBC1A0",
"..	c #F1E4B9",
"+.	c #D8BB89",
"@.	c #BD9F79",
"#.	c #766157",
"$.	c #564B41",
"%.	c #6A5750",
"&.	c #B79977",
"*.	c #D8BB88",
"=.	c #F4EACB",
"-.	c #D2CFC3",
";.	c #9A9892",
">.	c #F4EBCB",
",.	c #E4CF9B",
"'.	c #BB9E78",
").	c #3E353B",
"!.	c #202230",
"~.	c #A18966",
"{.	c #8C785B",
"].	c #1C1F2F",
"^.	c #927965",
"/.	c #D4B482",
"(.	c #D9BC89",
"_.	c #EFE1AC",
":.	c #CDC8B5",
"<.	c #817F76",
"[.	c #F0E5B9",
"}.	c #ECDDA8",
"|.	c #DEC592",
"1.	c #D1B485",
"2.	c #234655",
"3.	c #304D59",
"4.	c #AE956E",
"5.	c #877358",
"6.	c #242431",
"7.	c #927A63",
"8.	c #C4A57C",
"9.	c #F6F0DC",
"0.	c #9D9EA0",
"a.	c #232735",
"b.	c #CECABE",
"c.	c #EEE1B4",
"d.	c #D9BE8C",
"e.	c #CDAE80",
"f.	c #6D5A52",
"g.	c #D5B583",
"h.	c #295463",
"i.	c #417988",
"j.	c #9F876C",
"k.	c #A1876A",
"l.	c #72614E",
"m.	c #302D34",
"n.	c #232331",
"o.	c #AD9072",
"p.	c #BFA277",
"q.	c #8E8366",
"r.	c #625E53",
"s.	c #232836",
"t.	c #222531",
"u.	c #323337",
"v.	c #857D66",
"w.	c #C3A47C",
"x.	c #967A6A",
"y.	c #3F8799",
"z.	c #A7A18B",
"A.	c #A68D69",
"B.	c #9B8A68",
"C.	c #B6A47A",
"D.	c #C4BD8F",
"E.	c #2D2F35",
"F.	c #AD9073",
"G.	c #D4B583",
"H.	c #C7BB8F",
"I.	c #968E73",
"J.	c #5A564B",
"K.	c #BAB08B",
"L.	c #F0E5BD",
"M.	c #D0B182",
"N.	c #9A8166",
"O.	c #383238",
"P.	c #BDB997",
"Q.	c #DAC08D",
"R.	c #857258",
"S.	c #B49F76",
"T.	c #2E2C33",
"U.	c #1B1F2F",
"V.	c #88705F",
"W.	c #CAAC80",
"X.	c #EEE0AB",
"Y.	c #F5EDD1",
"Z.	c #ADA89A",
"`.	c #AFADA6",
" +	c #F9F4E4",
".+	c #ECDDA9",
"++	c #D6B684",
"@+	c #292733",
"#+	c #2E5563",
"$+	c #438E9B",
"%+	c #AFCAAB",
"&+	c #E1CE98",
"*+	c #D5B684",
"=+	c #B39870",
"-+	c #B39D74",
";+	c #2E2B33",
">+	c #7E675C",
",+	c #CCAF83",
"'+	c #DFC693",
")+	c #D7CDA8",
"!+	c #2D303C",
"~+	c #CABF97",
"{+	c #E7D39F",
"]+	c #D4B483",
"^+	c #937C61",
"/+	c #418282",
"(+	c #34686B",
"_+	c #284D51",
":+	c #827058",
"<+	c #A9A38D",
"[+	c #658F96",
"}+	c #92AA9B",
"|+	c #E0CC96",
"1+	c #DAC18D",
"2+	c #C1A37A",
"3+	c #B1966F",
"4+	c #2D2B33",
"5+	c #171E31",
"6+	c #313C5C",
"7+	c #3E363B",
"8+	c #B09570",
"9+	c #DBC08E",
"0+	c #EFE1AB",
"a+	c #F4EBCC",
"b+	c #D3D1CC",
"c+	c #F7F3E4",
"d+	c #EFE2AD",
"e+	c #A48C68",
"f+	c #1D2030",
"g+	c #272632",
"h+	c #295462",
"i+	c #438A90",
"j+	c #43888A",
"k+	c #2B555C",
"l+	c #837056",
"m+	c #E4D9A2",
"n+	c #B7C2A1",
"o+	c #C9B086",
"p+	c #C3A47B",
"q+	c #C0A27A",
"r+	c #242D47",
"s+	c #3F4E75",
"t+	c #32405F",
"u+	c #282834",
"v+	c #B1976F",
"w+	c #EBDBA6",
"x+	c #F3E8C2",
"y+	c #F4ECCC",
"z+	c #F1E4B6",
"A+	c #ECDEA9",
"B+	c #A99570",
"C+	c #272732",
"D+	c #171D30",
"E+	c #7E685C",
"F+	c #957969",
"G+	c #305664",
"H+	c #947F61",
"I+	c #B29870",
"J+	c #B39E75",
"K+	c #C4BE90",
"L+	c #C3BD8F",
"M+	c #CFCCB7",
"N+	c #EBE0C4",
"O+	c #DEDAD1",
"P+	c #ECE1D3",
"Q+	c #E0CAAC",
"R+	c #D6B686",
"S+	c #343035",
"T+	c #D2B281",
"U+	c #DCC48F",
"V+	c #C9D1A9",
"W+	c #56A1A3",
"X+	c #9AA292",
"Y+	c #A69374",
"Z+	c #B99D75",
"`+	c #3F5679",
" @	c #3F6B86",
".@	c #3C5A78",
"+@	c #333D58",
"@@	c #7D7660",
"#@	c #BAAF87",
"$@	c #E1D4A1",
"%@	c #645F50",
"&@	c #2A334F",
"*@	c #344060",
"=@	c #242534",
"-@	c #CBAC7E",
";@	c #354F5E",
">@	c #31596E",
",@	c #564A41",
"'@	c #847057",
")@	c #46403D",
"!@	c #837560",
"~@	c #8F7B5F",
"{@	c #A9916C",
"]@	c #C4AC7E",
"^@	c #DDC793",
"/@	c #E0CAAA",
"(@	c #ECDFCA",
"_@	c #F6F2D8",
":@	c #F9F7E7",
"<@	c #F2E9DF",
"[@	c #C0AD8A",
"}@	c #4F9CA1",
"|@	c #428C9B",
"1@	c #397180",
"2@	c #8F7861",
"3@	c #2A2832",
"4@	c #242C45",
"5@	c #3C496E",
"6@	c #3F6381",
"7@	c #3F778E",
"8@	c #3F768D",
"9@	c #39486A",
"0@	c #262E47",
"a@	c #605C4E",
"b@	c #5E5A4E",
"c@	c #2E3957",
"d@	c #3E4C72",
"e@	c #192033",
"f@	c #181F32",
"g@	c #B79B73",
"h@	c #364365",
"i@	c #725D55",
"j@	c #AF9C7D",
"k@	c #DAC491",
"l@	c #DBC591",
"m@	c #DCC692",
"n@	c #B59B72",
"o@	c #B2986F",
"p@	c #B49A72",
"q@	c #C2B495",
"r@	c #F3EDD4",
"s@	c #FEFEFD",
"t@	c #FFFFFE",
"u@	c #FFFFFF",
"v@	c #B0966E",
"w@	c #D3B483",
"x@	c #648D95",
"y@	c #496F7B",
"z@	c #1D202F",
"A@	c #3E8094",
"B@	c #3E7F93",
"C@	c #3F5D7D",
"D@	c #354163",
"E@	c #3C4A6F",
"F@	c #2A3450",
"G@	c #544940",
"H@	c #6D5E4C",
"I@	c #29334F",
"J@	c #40434E",
"K@	c #EAE3AA",
"L@	c #EDE6AC",
"M@	c #D3CD9A",
"N@	c #D1CFC3",
"O@	c #E3E3E4",
"P@	c #FDFDFD",
"Q@	c #8A9891",
"R@	c #367080",
"S@	c #4D4344",
"T@	c #171D2F",
"U@	c #2A3651",
"V@	c #364465",
"W@	c #171E30",
"X@	c #1F263D",
"Y@	c #B9B48E",
"Z@	c #F9F7E8",
"`@	c #546669",
" #	c #665551",
".#	c #A39E79",
"+#	c #EBE4AB",
"@#	c #EDE6AE",
"##	c #FDFCF6",
"$#	c #F4EFCE",
"%#	c #D0B180",
"&#	c #C6A97B",
"*#	c #B69B72",
"=#	c #F1ECC4",
"-#	c #F0EABA",
";#	c #AC926C",
">#	c #AA916B",
",#	c #EDE6AD",
"'#	c #FFFEFD",
")#	c #EEE7AF",
"!#	c #F9F7E6",
"~#	c #D9BD8A",
"{#	c #D6B784",
"]#	c #F3EFCD",
"^#	c #ECE4AB",
"/#	c #E6D8A0",
"(#	c #E3D29B",
"_#	c #DDC792",
":#	c #E5D7A0",
"<#	c #E9DFA6",
"[#	c #E8DCA4",
"}#	c #F5F1D5",
"|#	c #ECE5AB",
"1#	c #E8DCA3",
"2#	c #DEC893",
"3#	c #D9BE8A",
"4#	c #DBC28E",
"5#	c #E0CD97",
"6#	c #EFE9B8",
"7#	c #E6D9A1",
"8#	c #EFE9BA",
"9#	c #F9F6E5",
"0#	c #F7F4DF",
"a#	c #FCFBF3",
"b#	c #EEE7B0",
"c#	c #F5F2D6",
"d#	c #FEFEFC",
"e#	c #F7F4DE",
"f#	c #F5F1D3",
"g#	c #EFE9B9",
"h#	c #F1ECC3",
"i#	c #F2EDC5",
"j#	c #FCFBF4",
"k#	c #F1EBC0",
"                                                                                                                                ",
"                                                                                                                                ",
"                                                                                                                                ",
"                                                                                                                                ",
"                                                                                                                                ",
"                                                                                                                                ",
"                                                                                                                                ",
"                                                                                                                                ",
"                                                                                                                                ",
"                                                                                                                                ",
"                                                                                                                                ",
"                                                                                                                                ",
"                                                                                                                                ",
"                                                                                                                                ",
"                                                                                                                                ",
"                                                                                                                                ",
"                                                          . + @ # $ % &                                                         ",
"                                                        . * = - ; > , ' ) !                                                     ",
"                                                        ~ { ] ^ / ( _ : / < [                                                   ",
"                                                        } | 1 2 3 4 ( 5 ( ( 6                                                   ",
"                                                        7 8 9 0 a b / c d e f                                                   ",
"                                                          g h i j k l ( m n +                                                   ",
"                                                          o p q r s t u v w x                                                   ",
"                                                              y y y z A B C D                                                   ",
"                                                                E F G H I J K L                                                 ",
"                                                              M N O P Q R S T U V                                               ",
"                                                              W X Y Z `  ...+.@.#.M                                             ",
"                                        E $.                  %.&.*.=.-.;.>.,.+.'.).                                            ",
"                                        !.~.{.              ].^./.(._.:.<.[.}.|.1.#.y                                           ",
"                                        2.3.4.5.6.          ].7.8.,.9.0.a.b.c.d.e.f.M                                           ",
"                          g.            h.1 i.j.k.l.m.      n.o.p.q.r.s.y t.u.v.w.x.V                                           ",
"                          g.            h.= y.z.A.B.C.D.E.  n.F.G.H.I.J.y J.K.L.M.N.O.                                          ",
"                          g.            h.= _ P.Q.Y R.S.T.  U.V.W.X.Y.Z.y `. +.+++o.@+                                          ",
"                          g.            #+= $+%+&+*+=+-+;+  y >+,+'+_.)+!+~+_.{+]+^+M         /+(+_+                            ",
"                          g.            :+<+[+}+|+1+2+3+4+5+6+7+8+9+0+a+b+c+d+|.e+E     f+g+h+i+j+k+                            ",
"                            g.          l+g.m+n+o+g.p+q+4+r+s+t+u+v+w+x+y+z+A+B+C+  D+U.E+F+G+@ H+I+J+K+L+L+K+M+N+O+P+Q+R+      ",
"                            g.g.        S+T+U+V+W+X+Y+Z+4+7 `+ @.@+@@@#@A+$@%@&@o D+*@=@2+-@;@>@,@'@)@!@~@{@]@^@/@(@_@:@<@      ",
"                            g.g.          e+g.[@}@|@1@2@3@4@5@6@7@8@9@0@a@b@c@d@e@  f@U.g@=+&@h@i@j@k@l@m@n@o@p@q@r@s@t@u@      ",
"                              g.g.        4+v@w@x@= y@i@z@y c@j  @A@B@C@c@D@E@F@        G@H@I@q J@K@L@L@L@M@N@O@P@u@u@u@u@      ",
"                              g.g.g.        4+v@Q@R@S@V     T@r+I@U@V@V@c@r+W@y             X@&@Y@L@L@L@L@L@Z@u@u@u@u@u@u@      ",
"                                g.g.g.g.      4+`@ #V         y y         y y y               .#+#L@L@L@L@L@Z@u@u@u@u@u@        ",
"                                g.g.g.g.g.      y f+        y y             y                 L@L@L@L@L@L@@###u@u@u@u@u@        ",
"                                  g.g.g.g.g.g.            y y             y y                 L@L@L@L@L@L@$#t@u@u@u@u@u@        ",
"                                    g.g.g.g.g.g.g.g.g.%#&#*#              y y y             L@L@L@L@L@L@=#t@u@u@u@u@u@          ",
"                                        g.g.g.g.g.g.                                      L@L@L@L@L@L@-###u@u@u@u@u@u@          ",
"                                      g.      g.g.g.              ;#>#                L@L@L@L@L@L@,#$#'#u@u@u@u@u@u@            ",
"                                      g.g.g.g.g.g.g.g.g.g.g.g.g.g.g.            L@L@L@L@L@L@L@L@)#!#t@u@u@u@u@u@u@              ",
"                                        ~#{#g.g.g.g.g.g.g.g.g.            L@L@L@L@L@L@L@L@L@@#]###u@u@u@u@u@u@u@                ",
"                                          ^#/#(#_#_#(#:#<#      *+g.g.~#[#L@L@L@L@L@L@L@@#}###t@u@u@u@u@u@u@                    ",
"                                            L@L@L@L@L@L@|#1#2#3#4#5#/#|#L@L@L@L@6#,#L@@#!#u@u@u@u@u@u@u@u@                      ",
"                                              ,#@#L@L@L@7#/#[#|#L@L@L@L@L@L@L@8#9#@#L@0#u@u@u@u@u@u@u@                          ",
"                                                a#]#b#)#)#)#L@L@L@)#,#L@L@)#c#d#=#L@$#t@u@u@u@u@u@                              ",
"                                                    d#'#'#s@Z@:@e#f#g#h#0###t@$#L@$#t@u@u@u@u@                                  ",
"                                                            '#i#b#]###t@u@'#$#@#c#t@u@u@                                        ",
"                                                                      u@j#k#                                                    ",
"                                                                                                                                ",
"                                                                                                                                ",
"                                                                                                                                ",
"                                                                                                                                ",
"                                                                                                                                ",
"                                                                                                                                ",
"                                                                                                                                ",
"                                                                                                                                ",
"                                                                                                                                "};
