/* XPM */
static char * da6_xpm[] = {
"64 64 364 2",
"  	c None",
". 	c #1A2835",
"+ 	c #1B2D39",
"@ 	c #295463",
"# 	c #285362",
"$ 	c #192838",
"% 	c #161C2E",
"& 	c #1F3B49",
"* 	c #4C9A9B",
"= 	c #53A8A6",
"- 	c #46929D",
"; 	c #3F8799",
"> 	c #3D8496",
", 	c #295564",
"' 	c #284C50",
") 	c #4F9F9D",
"! 	c #54AAA8",
"~ 	c #4FA2A4",
"{ 	c #59B2AB",
"] 	c #54A9A7",
"^ 	c #428B99",
"/ 	c #3E8496",
"( 	c #25324A",
"_ 	c #4B9590",
": 	c #5AB3AC",
"< 	c #57AEAA",
"[ 	c #50A2A4",
"} 	c #59B1AA",
"| 	c #284E53",
"1 	c #3B798C",
"2 	c #35556E",
"3 	c #3B7677",
"4 	c #58AFAA",
"5 	c #52A5A5",
"6 	c #50A1A0",
"7 	c #4C9792",
"8 	c #1E283D",
"9 	c #387285",
"0 	c #3C5B78",
"a 	c #181F32",
"b 	c #1A2B38",
"c 	c #56ACA8",
"d 	c #4D9B98",
"e 	c #4B9692",
"f 	c #458B8C",
"g 	c #364364",
"h 	c #3F6F89",
"i 	c #39466A",
"j 	c #171D30",
"k 	c #172132",
"l 	c #40858D",
"m 	c #4C9793",
"n 	c #438A8F",
"o 	c #3D7E86",
"p 	c #323D5D",
"q 	c #3F4E74",
"r 	c #252E47",
"s 	c #213F4B",
"t 	c #55A9A5",
"u 	c #3C6B75",
"v 	c #56ACA7",
"w 	c #264D5A",
"x 	c #171D2F",
"y 	c #212330",
"z 	c #564B41",
"A 	c #606967",
"B 	c #3A5974",
"C 	c #38586A",
"D 	c #7D8775",
"E 	c #544940",
"F 	c #171C2E",
"G 	c #50463F",
"H 	c #A89472",
"I 	c #F2ECDF",
"J 	c #D3D0C6",
"K 	c #D1CDBE",
"L 	c #EFE4C7",
"M 	c #8A785F",
"N 	c #3A3339",
"O 	c #514443",
"P 	c #AF9372",
"Q 	c #978161",
"R 	c #BEAE88",
"S 	c #E3D8BE",
"T 	c #ECDFC3",
"U 	c #EEE2CC",
"V 	c #D2B793",
"W 	c #917865",
"X 	c #202130",
"Y 	c #80695D",
"Z 	c #C9AA7E",
"` 	c #D9BC8A",
" .	c #F4EBCC",
"..	c #BDB7A3",
"+.	c #D3CFC3",
"@.	c #EEE0B4",
"#.	c #D5B684",
"$.	c #BC9E79",
"%.	c #5E4E4A",
"&.	c #3E363B",
"*.	c #AE9173",
"=.	c #D4B482",
"-.	c #E4D09C",
";.	c #F4EBCB",
">.	c #979283",
",.	c #CDC6AE",
"'.	c #F1E4B7",
").	c #E1CB97",
"!.	c #998067",
"~.	c #1D2030",
"{.	c #D6B787",
"].	c #D5B583",
"^.	c #534644",
"/.	c #BD9F79",
"(.	c #D6B685",
"_.	c #EEE0AB",
":.	c #F6F0DB",
"<.	c #67686B",
"[.	c #AFADA5",
"}.	c #F4EBCA",
"|.	c #ECDCA7",
"1.	c #DBC08D",
"2.	c #C3B096",
"3.	c #EEE3D5",
"4.	c #BEBAB5",
"5.	c #232430",
"6.	c #7E685C",
"7.	c #C7A87D",
"8.	c #BBA57C",
"9.	c #CDC5AB",
"0.	c #C4C4C5",
"a.	c #232836",
"b.	c #646468",
"c.	c #CAC1A0",
"d.	c #C8BC90",
"e.	c #BFA377",
"f.	c #B69975",
"g.	c #3D353A",
"h.	c #D8C6A2",
"i.	c #FCFBFA",
"j.	c #F7F5E5",
"k.	c #6D6B5C",
"l.	c #6B5C4B",
"m.	c #937E5F",
"n.	c #816A5D",
"o.	c #D3B382",
"p.	c #9E8F6E",
"q.	c #313237",
"r.	c #625F55",
"s.	c #B59E75",
"t.	c #A3876F",
"u.	c #5C4C49",
"v.	c #ABA698",
"w.	c #F2ECD2",
"x.	c #E5D3BA",
"y.	c #CBBD8E",
"z.	c #1F3846",
"A.	c #867359",
"B.	c #AE946D",
"C.	c #2A2932",
"D.	c #6D5A52",
"E.	c #C8A97D",
"F.	c #E7D49F",
"G.	c #E5DBB8",
"H.	c #AAA38B",
"I.	c #2B2C34",
"J.	c #C8BD94",
"K.	c #F1E8C7",
"L.	c #DEC593",
"M.	c #B59974",
"N.	c #5D4D49",
"O.	c #969371",
"P.	c #E8DFA7",
"Q.	c #D8BC89",
"R.	c #CEB786",
"S.	c #7E755C",
"T.	c #347080",
"U.	c #387788",
"V.	c #888170",
"W.	c #A18869",
"X.	c #574A45",
"Y.	c #252631",
"Z.	c #67554F",
"`.	c #BD9F7A",
" +	c #E2CB97",
".+	c #EDDEAB",
"++	c #E7DFC4",
"@+	c #2C2E38",
"#+	c #827F78",
"$+	c #F8F3E3",
"%+	c #DBC08E",
"&+	c #C3A57C",
"*+	c #5D4D4A",
"=+	c #969271",
"-+	c #D3CC99",
";+	c #C8AA7C",
">+	c #5C4F44",
",+	c #347081",
"'+	c #3E8698",
")+	c #508593",
"!+	c #AB9579",
"~+	c #B0966F",
"{+	c #B5A279",
"]+	c #998A68",
"^+	c #847E64",
"/+	c #AF9873",
"(+	c #E0C995",
"_+	c #EFE1AB",
":+	c #F2E7C0",
"<+	c #878788",
"[+	c #BFB9A5",
"}+	c #F1E5B7",
"|+	c #ECDCA6",
"1+	c #BB9E76",
"2+	c #242431",
"3+	c #316162",
"4+	c #1A2A37",
"5+	c #969270",
"6+	c #CDC394",
"7+	c #B39971",
"8+	c #428C9A",
"9+	c #4F949D",
"0+	c #D2B584",
"a+	c #BEA276",
"b+	c #978262",
"c+	c #827C61",
"d+	c #B7A67B",
"e+	c #534940",
"f+	c #C9AC7E",
"g+	c #EEE0AA",
"h+	c #F4ECCC",
"i+	c #EEEBE0",
"j+	c #F4EDD3",
"k+	c #E1CA96",
"l+	c #B0966E",
"m+	c #2D2B33",
"n+	c #387175",
"o+	c #3C787B",
"p+	c #2E5B64",
"q+	c #867358",
"r+	c #BAAB80",
"s+	c #988264",
"t+	c #C7AA7B",
"u+	c #57A5A5",
"v+	c #E0DEAA",
"w+	c #DDC692",
"x+	c #877559",
"y+	c #1D253A",
"z+	c #574C44",
"A+	c #CEBE90",
"B+	c #EFE2AE",
"C+	c #EFE1AC",
"D+	c #E2D4A2",
"E+	c #A8936F",
"F+	c #272833",
"G+	c #4B989A",
"H+	c #295563",
"I+	c #816F57",
"J+	c #68584B",
"K+	c #C6A87A",
"L+	c #878678",
"M+	c #648D96",
"N+	c #C1C29D",
"O+	c #E2D19B",
"P+	c #988063",
"Q+	c #AF956E",
"R+	c #29344F",
"S+	c #3C496E",
"T+	c #292E40",
"U+	c #7F7961",
"V+	c #E0D3A1",
"W+	c #C7BB90",
"X+	c #5E5A4D",
"Y+	c #2A3551",
"Z+	c #354263",
"`+	c #2E5664",
" @	c #3A7D8E",
".@	c #2C3D49",
"+@	c #5F4F4A",
"@@	c #8E7465",
"#@	c #584C42",
"$@	c #B2986F",
"%@	c #D3B685",
"&@	c #BAC6A5",
"*@	c #B8B291",
"=@	c #AB8F71",
"-@	c #285261",
";@	c #3F728A",
">@	c #3F5779",
",@	c #323E5E",
"'@	c #2B2D36",
")@	c #282E3F",
"!@	c #39476A",
"~@	c #3E768D",
"{@	c #395F78",
"]@	c #171E30",
"^@	c #504343",
"/@	c #465F69",
"(@	c #3C5374",
"_@	c #3F3A46",
":@	c #413D4C",
"<@	c #182132",
"[@	c #957F60",
"}@	c #D8BB88",
"|@	c #E7DBA3",
"1@	c #9DB7A3",
"2@	c #9AA292",
"3@	c #C9B086",
"4@	c #A3896B",
"5@	c #294B5D",
"6@	c #3E8597",
"7@	c #3F718A",
"8@	c #39496B",
"9@	c #3D4D71",
"0@	c #3F768D",
"a@	c #3E8497",
"b@	c #354D6A",
"c@	c #CDAE80",
"d@	c #A58C68",
"e@	c #2B3450",
"f@	c #394569",
"g@	c #253149",
"h@	c #285161",
"i@	c #5B4F43",
"j@	c #D2B382",
"k@	c #94AE9D",
"l@	c #4FA0A3",
"m@	c #4E929C",
"n@	c #596161",
"o@	c #A08768",
"p@	c #294056",
"q@	c #3E7B90",
"r@	c #354E6A",
"s@	c #1E263C",
"t@	c #514444",
"u@	c #BC9F77",
"v@	c #CFB080",
"w@	c #2C2A33",
"x@	c #29334F",
"y@	c #29334E",
"z@	c #877358",
"A@	c #D3B482",
"B@	c #B4A78A",
"C@	c #3F8798",
"D@	c #475E67",
"E@	c #735E55",
"F@	c #1E253B",
"G@	c #293650",
"H@	c #293751",
"I@	c #242D46",
"J@	c #242C45",
"K@	c #232431",
"L@	c #171D2E",
"M@	c #D0B283",
"N@	c #488897",
"O@	c #367080",
"P@	c #665551",
"Q@	c #222331",
"R@	c #837159",
"S@	c #3E707E",
"T@	c #5B4D4B",
"U@	c #1C1F2F",
"V@	c #1B2131",
"W@	c #41383C",
"                                                                                                                                ",
"                                                                                                                                ",
"                                                                                                                                ",
"                                                                                                                                ",
"                                                                                                                                ",
"                                                                                                                                ",
"                                                                                                                                ",
"                                                                                                                                ",
"                                                                                                                                ",
"                                                                                                                                ",
"                                                                                                                                ",
"                                                                                                                                ",
"                                                                                                                                ",
"                                                                                                                                ",
"                                                                . + @ # $                                                       ",
"                                                            % & * = - ; > ,                                                     ",
"                                                            ' ) ! ~ { ] ^ / (                                                   ",
"                                                            _ : < [ : } | 1 2 %                                                 ",
"                                                            3 4 5 6 : 7 8 9 0 a                                                 ",
"                                                            b c d e : f g h i j                                                 ",
"                                                            k l m n 4 o p q r                                                   ",
"                                                              s t u v w x a %                                                   ",
"                                                            y z A B C D E                                                       ",
"                                                          F G H I J K L M N                                                     ",
"                                                          O P Q R S T U V W X                                                   ",
"                                                        F Y Z `  ...+.@.#.$.%.                                                  ",
"                                                        &.*.=.-.;.>.,.'.).#.!.~.                        {.].                    ",
"                                                        ^./.(._.:.<.[.}.|.1.$.&.                    2.3.4.                      ",
"                                          5.          % 6.7.8.9.0.a.b.c.d.e.f.g.                  h.i.j.k.                      ",
"                                          l.m.        % n.o.p.q.% % % x r.s.t.u.                v.w.x.y.                        ",
"                                          z.A.B.C.    % D.E.F.G.H.% I.J.K.L.M.N.              O.P.Q.R.S.                        ",
"                                          T.U.V.W.X.Y.% Z.`. +.+++@+#+$+'.%+&+*+            =+-+Q.;+>+                          ",
"                                          ,+'+)+!+~+{+]+^+/+(+_+:+<+[+}+|+#.1+2+    3+4+  5+6+7+;+>+                            ",
"                                          ,+8+9+0+a+b+c+d+e+f+g+h+i+j+}+k+l+m+    n+o+p+q+r+s+t+>+                              ",
"                                          ,+'+u+v+w+].x+{+y+z+A+_.B+C+D+E+F+%     G+H+I+B.J+K+>+                                ",
"                                          L+M+- N+O+#.P+Q+R+S+T+U+V+W+X+Y+Z+j   F `+ @.@+@@@#@                                  ",
"                                          $@%@&@*@#.].=@l+-@;@>@,@'@)@!@~@{@]@  ^@@@/@(@_@:@<@                                  ",
"                                          [@}@|@1@2@3@4@~+5@'+6@7@8@9@0@a@b@  % 6.c@d@e@f@g@h@                                  ",
"                                          i@j@Q.k@l@m@n@o@p@;@a@6@/ / q@r@s@  s@t@u@v@w@x@y@%                                   ",
"                                            z@A@B@C@'+D@E@F@x@G@H@H@H@R+]@    I@J@K@m+L@  %                                     ",
"                                              z@M@N@O@P@Q@% %         % %                                                       ",
"                                                R@S@T@U@  % %         % %                                                       ",
"                                                  V@W@    % %         % % %                                                     ",
"                                                                                                                                ",
"                                                                                                                                ",
"                                                                                                                                ",
"                                                                                                                                ",
"                                                                                                                                ",
"                                                                                                                                ",
"                                                                                                                                ",
"                                                                                                                                ",
"                                                                                                                                ",
"                                                                                                                                ",
"                                                                                                                                ",
"                                                                                                                                ",
"                                                                                                                                ",
"                                                                                                                                ",
"                                                                                                                                ",
"                                                                                                                                ",
"                                                                                                                                ",
"                                                                                                                                ",
"                                                                                                                                ",
"                                                                                                                                ",
"                                                                                                                                "};
