/* XPM */
static char * la4_xpm[] = {
"64 64 395 2",
"  	c None",
". 	c #EDE6AC",
"+ 	c #E5D69F",
"@ 	c #E8DCA4",
"# 	c #E0CD97",
"$ 	c #ECE5AB",
"% 	c #DEC893",
"& 	c #D5B683",
"* 	c #D5B583",
"= 	c #D6B684",
"- 	c #E8DCA3",
"; 	c #EDE5AB",
"> 	c #E5D7A0",
", 	c #D9BD8A",
"' 	c #DEC793",
") 	c #DBC38F",
"! 	c #E5D79F",
"~ 	c #EAE0A7",
"{ 	c #DBC28E",
"] 	c #E0CC96",
"^ 	c #D6B784",
"/ 	c #DDC692",
"( 	c #1B2C38",
"_ 	c #2A5663",
": 	c #1F3C4B",
"< 	c #172132",
"[ 	c #1C2E39",
"} 	c #458986",
"| 	c #54A7A2",
"1 	c #59B1AB",
"2 	c #438D9A",
"3 	c #387788",
"4 	c #244958",
"5 	c #161C2E",
"6 	c #D5B684",
"7 	c #284E52",
"8 	c #54A8A2",
"9 	c #57AEAA",
"0 	c #50A3A4",
"a 	c #5AB3AC",
"b 	c #59B2AB",
"c 	c #45929D",
"d 	c #3E8597",
"e 	c #295363",
"f 	c #171D2F",
"g 	c #EFE9B9",
"h 	c #E3D29B",
"i 	c #192634",
"j 	c #4D9A97",
"k 	c #5AB2AB",
"l 	c #4FA1A4",
"m 	c #55AAA8",
"n 	c #55A9A2",
"o 	c #3F7D7B",
"p 	c #2A5564",
"q 	c #357081",
"r 	c #3E788E",
"s 	c #314963",
"t 	c #F3EECA",
"u 	c #F9F6E6",
"v 	c #EDE6AD",
"w 	c #1B2E3A",
"x 	c #56ADA8",
"y 	c #41817F",
"z 	c #4F9E99",
"A 	c #1A2A37",
"B 	c #29334F",
"C 	c #3C4A6F",
"D 	c #3F5176",
"E 	c #3E8094",
"F 	c #385873",
"G 	c #171D30",
"H 	c #F7F4DF",
"I 	c #ECE3BD",
"J 	c #469097",
"K 	c #387070",
"L 	c #4C9A9B",
"M 	c #2B5160",
"N 	c #3F5578",
"O 	c #395E77",
"P 	c #2A3550",
"Q 	c #F1EBC0",
"R 	c #F1ECC3",
"S 	c #E8D9C4",
"T 	c #35556F",
"U 	c #3C7987",
"V 	c #3D6F80",
"W 	c #295261",
"X 	c #1B1F2F",
"Y 	c #181E31",
"Z 	c #181F32",
"` 	c #FFFEFD",
" .	c #F0EABA",
"..	c #D8BD8A",
"+.	c #282B38",
"@.	c #A7A3A0",
"#.	c #898E92",
"$.	c #416875",
"%.	c #425468",
"&.	c #465467",
"*.	c #9A836E",
"=.	c #796756",
"-.	c #FFFFFF",
";.	c #FBF9EE",
">.	c #E6D8A2",
",.	c #70614E",
"'.	c #C5B899",
").	c #EDE2CC",
"!.	c #EFE7DD",
"~.	c #F4EFE2",
"{.	c #F6F2E3",
"].	c #C9C0AF",
"^.	c #716B6B",
"/.	c #3A3339",
"(.	c #FDFCF5",
"_.	c #E7D7BC",
":.	c #615346",
"<.	c #D9BF8E",
"[.	c #F3EAD2",
"}.	c #FAF5E7",
"|.	c #F7F0DC",
"1.	c #F4EAC9",
"2.	c #EFE1AC",
"3.	c #E5D19D",
"4.	c #AE9173",
"5.	c #695750",
"6.	c #F2ECC4",
"7.	c #FFFFFE",
"8.	c #E4D1B8",
"9.	c #AE9C77",
"0.	c #EBDBA7",
"a.	c #BBB3AA",
"b.	c #F6F0DB",
"c.	c #F0E2AF",
"d.	c #EFE2AE",
"e.	c #EFE0AA",
"f.	c #DEC592",
"g.	c #C3A47B",
"h.	c #8E7466",
"i.	c #1F2130",
"j.	c #F5F2D6",
"k.	c #FEFDFD",
"l.	c #D7B88A",
"m.	c #242431",
"n.	c #CBC19F",
"o.	c #D2BC97",
"p.	c #413F42",
"q.	c #F7F3E5",
"r.	c #F1E5B8",
"s.	c #EEE0AA",
"t.	c #DFC693",
"u.	c #CEAF80",
"v.	c #907666",
"w.	c #3C343A",
"x.	c #F9F7E7",
"y.	c #EDE6AE",
"z.	c #FAF8EC",
"A.	c #D6B889",
"B.	c #60564B",
"C.	c #E7D8B5",
"D.	c #A58D69",
"E.	c #34363E",
"F.	c #DCC28F",
"G.	c #D4B483",
"H.	c #A1846E",
"I.	c #5D4D49",
"J.	c #EADFB0",
"K.	c #D5B685",
"L.	c #222531",
"M.	c #8C8165",
"N.	c #50463F",
"O.	c #232836",
"P.	c #C1BFBA",
"Q.	c #C8BD92",
"R.	c #BAA57C",
"S.	c #B39870",
"T.	c #CBAC7D",
"U.	c #C4A57C",
"V.	c #927965",
"W.	c #4D4142",
"X.	c #544941",
"Y.	c #F1ECC4",
"Z.	c #7E7761",
"`.	c #A0947E",
" +	c #202230",
".+	c #32343A",
"++	c #383739",
"@+	c #938B6D",
"#+	c #CDBC8E",
"$+	c #D4B583",
"%+	c #8D7365",
"&+	c #302D33",
"*+	c #A38B67",
"=+	c #816F56",
"-+	c #FDFCF7",
";+	c #E8DBAE",
">+	c #C7BC91",
",+	c #E7D7B4",
"'+	c #71614E",
")+	c #868689",
"!+	c #F5F1E2",
"~+	c #ECDFAA",
"{+	c #E3CE9A",
"]+	c #C3A57C",
"^+	c #756057",
"/+	c #2D2B33",
"(+	c #AE946D",
"_+	c #86745B",
":+	c #2C5C6B",
"<+	c #182435",
"[+	c #F0E7D7",
"}+	c #B1A27C",
"|+	c #F2E6C0",
"1+	c #B7A078",
"2+	c #9D9C9D",
"3+	c #F1E5BA",
"4+	c #ECDCA7",
"5+	c #C1A37A",
"6+	c #856D60",
"7+	c #383337",
"8+	c #8A755B",
"9+	c #A78C6E",
"0+	c #857E72",
"a+	c #3B7E90",
"b+	c #3D8496",
"c+	c #192838",
"d+	c #F2EAE0",
"e+	c #666151",
"f+	c #E9DAA5",
"g+	c #ECDEBA",
"h+	c #E1DDD1",
"i+	c #EFE2AD",
"j+	c #E7D49F",
"k+	c #BCA075",
"l+	c #7F7A60",
"m+	c #C1B78A",
"n+	c #B5A47A",
"o+	c #8B775B",
"p+	c #BCA076",
"q+	c #7A9393",
"r+	c #3F8798",
"s+	c #F6F0EA",
"t+	c #907D5F",
"u+	c #EBDCA8",
"v+	c #F5ECCD",
"w+	c #EEE0AB",
"x+	c #CEBE90",
"y+	c #272731",
"z+	c #847258",
"A+	c #8D8062",
"B+	c #A48C68",
"C+	c #D2B382",
"D+	c #93AD9D",
"E+	c #48969E",
"F+	c #DFC9A9",
"G+	c #7F7861",
"H+	c #B7AC85",
"I+	c #726450",
"J+	c #232633",
"K+	c #242D47",
"L+	c #837157",
"M+	c #8D7E61",
"N+	c #D8BC89",
"O+	c #E4D7A0",
"P+	c #78B2A8",
"Q+	c #418596",
"R+	c #1A2838",
"S+	c #E4D2B9",
"T+	c #22414D",
"U+	c #478E8D",
"V+	c #31656D",
"W+	c #212231",
"X+	c #5C4C49",
"Y+	c #4F4242",
"Z+	c #242C45",
"`+	c #1D243A",
" @	c #192235",
".@	c #2E3957",
"+@	c #404E75",
"@@	c #364D6A",
"#@	c #837056",
"$@	c #9D8467",
"%@	c #D4B482",
"&@	c #DFCB96",
"*@	c #DBC693",
"=@	c #53959D",
"-@	c #7B9494",
";@	c #BBA987",
">@	c #343035",
",@	c #FFFEFE",
"'@	c #E0C9AB",
")@	c #ECE0D1",
"!@	c #D6B787",
"~@	c #D3B483",
"{@	c #6EA39A",
"]@	c #31636B",
"^@	c #418998",
"/@	c #505155",
"(@	c #BB9D78",
"_@	c #514444",
":@	c #242D46",
"<@	c #34536C",
"[@	c #3F758C",
"}@	c #40597B",
"|@	c #3E7B91",
"1@	c #347080",
"2@	c #B09374",
"3@	c #BFAC89",
"4@	c #CAD4AA",
"5@	c #D2B281",
"6@	c #E3D0B7",
"7@	c #A8997D",
"8@	c #6F675A",
"9@	c #325F6E",
"0@	c #346274",
"a@	c #A9906C",
"b@	c #796753",
"c@	c #172031",
"d@	c #355E74",
"e@	c #3E8496",
"f@	c #346F80",
"g@	c #978064",
"h@	c #7E9D98",
"i@	c #5DA8A5",
"j@	c #E5DAA3",
"k@	c #B2976F",
"l@	c #181D2E",
"m@	c #EEE2D4",
"n@	c #E9D9C6",
"o@	c #272936",
"p@	c #3B5272",
"q@	c #2F3040",
"r@	c #A88F6B",
"s@	c #544940",
"t@	c #243149",
"u@	c #293751",
"v@	c #242F47",
"w@	c #766452",
"x@	c #61534F",
"y@	c #46929D",
"z@	c #6B9D9D",
"A@	c #D4B584",
"B@	c #D3B482",
"C@	c #73624E",
"D@	c #FAF7F3",
"E@	c #D8BB8F",
"F@	c #F5EEE6",
"G@	c #B69974",
"H@	c #6A5A4C",
"I@	c #766157",
"J@	c #7A645A",
"K@	c #2D3855",
"L@	c #2F3958",
"M@	c #3E363B",
"N@	c #725F57",
"O@	c #3C7E8F",
"P@	c #3E8698",
"Q@	c #9A9D8F",
"R@	c #877358",
"S@	c #E0CAAC",
"T@	c #C0A377",
"U@	c #9F8766",
"V@	c #A88E6A",
"W@	c #C5A87A",
"X@	c #806C58",
"Y@	c #282B3E",
"Z@	c #29344F",
"`@	c #313C5B",
" #	c #181E32",
".#	c #3E353B",
"+#	c #3F474F",
"@#	c #B3A68A",
"##	c #F6F0E9",
"$#	c #DCC39E",
"%#	c #EDE2CB",
"&#	c #D8BB88",
"*#	c #D3B382",
"=#	c #C8AA7B",
"-#	c #947E5F",
";#	c #322E34",
">#	c #2C5466",
",#	c #4F5055",
"'#	c #575F5F",
")#	c #E9DAC6",
"!#	c #D6B886",
"~#	c #C8AA7C",
"{#	c #FDFDFC",
"]#	c #F8F7ED",
"^#	c #ECE5BF",
"/#	c #DFCE98",
"(#	c #9E916E",
"_#	c #E5D2BA",
":#	c #A28D70",
"<#	c #3C3D40",
"[#	c #3A3B3B",
"                                                                                                                                ",
"                                                                                                                                ",
"                                                                                                                                ",
"                                                                                                                                ",
"                                                                                                                                ",
"                                                                                                                                ",
"                                                                                                                                ",
"                                                                                                                                ",
"                                          . +                                                                                   ",
"                                    . . @ #                                                                                     ",
"                                . . $ % &     *                                                                                 ",
"                            = - ; > , * *   *                                                                                   ",
"                          ' + $ ) * * *   *                                                                                     ",
"                      . ! % $ % * * *   *                                                                                       ",
"                    . ~ { ~ % * * *   * *                                                                                       ",
"                  . . { ] % * * * *   *                                                                                         ",
"                  . @ ^ / * * * *                         ( _ : <                                                               ",
"                . . % * * * * *     *                 [ } | 1 2 3 4 5                                                           ",
"              . . ~ 6 * * * * *     *               7 8 9 0 a b c d e f                                                         ",
"              g . h * * * * * *                   i j k l m n o p q r s 5                                                       ",
"            t u v { * * *   *                     w x y x z A B C D E F G                                                       ",
"            . H I & * * * * *                       J K L M 5 B C N O P 5                                                       ",
"          Q . R S * * *   * *                       T U V W X 5 Y Z G                                                           ",
"          `  .$ ..* * *   * *                   +.@.#.$.%.&.*.=.                                                                ",
"          -.;.>.* * * *   *                     ,.'.).!.~.{.].^./.                                                              ",
"        (.-.-._.* * * *   *                   :.<.[.}.|.1.2.3.4.5.5                                                             ",
"        6.7.-.8.* * * *   *                   9.0.a.b.c.d.e.f.g.h.i.                                                            ",
"        . j.k.l.* * * *   *                 m.n.o.p.q.r.s.t.* u.v.w.                                                            ",
"      x.y.y.z.A.* * * *                     B.C.D.E.{.r.F.* * G.H.I.                                                            ",
"      -.H . J.K.* * * *                     L.M.N.O.P.Q.R.S.T.U.V.W.5     X.5                                                   ",
"      -.` Y.> * * * * *                     Z.`. +f .+++@+#+$+g.%+i.  &+*+=+5                                                   ",
"      -.-.-+;+* * * * *                     >+,+'+)+!+~+{+= ]+4.^+5 /+(+_+:+<+                                                  ",
"      -.-.-.[+* * * * *                     }+|+1+2+3+4+= * 5+6+7+8+9+0+a+b+c+                                                  ",
"      -.-.-.d+* * * * * *                   e+f+g+h+i+j+G.k+l+m+n+o+p+q+r+b+c+                                                  ",
"      -.-.-.s+K.* * * * *                     t+u+v+w+x+'+y+z+A+B+C+/ D+E+b+c+                                                  ",
"      -.-.-.k.A.F+* * * * *                     G+H+I+J+K+B L+M+C+N+O+P+r+Q+R+                                                  ",
"      -.-.-.k.A.S+* * * * *   T+U+V+W+X+Y+Z+B 5 `+ @.@C +@@@#@$@%@&@*@=@-@;@>@                                                  ",
"      -.-.-.,@'@)@!@* * * * ~@{@]@^@/@4.(@_@:@  Y <@[@}@|@1@#@2@%@$+3@4@&@5@>@                                                  ",
"      -.-.-.-.S+6@l.* * * * * 7@8@9@0@a@$+b@      c@d@e@d f@#@g@;@h@i@j@N+k@l@                                                  ",
"        -.-.-.m@8.n@* * * * * 5@*+o@p@q@r@s@    5 5 f t@u@v@w@x@Q+y@z@A@B@C@                                                    ",
"        -.-.-.D@E@F@K.* * G.G@H@I@J@K@L@5       5 5         M@N@O@P@Q@B@R@                                                      ",
"        -.-.-.-.S+m@S@* T@U@V@W@X@Y@Z@`@ #        5 5         .#+#a+@#R@                                                        ",
"        -.-.-.-.##$#%#&#*#=#-#;#  <+>#G         5 5 5           Y+,#'#l@                                                        ",
"          -.-.-.k.)#!#~#-#;#                                      X 5                                                           ",
"          ,@{#]#^#/#(#;#                                                                                                        ",
"          _#:#<#[#[#                                                                                                            ",
"                                                                                                                                ",
"                                                                                                                                ",
"                                                                                                                                ",
"                                                                                                                                ",
"                                                                                                                                ",
"                                                                                                                                ",
"                                                                                                                                ",
"                                                                                                                                ",
"                                                                                                                                ",
"                                                                                                                                ",
"                                                                                                                                ",
"                                                                                                                                ",
"                                                                                                                                ",
"                                                                                                                                ",
"                                                                                                                                ",
"                                                                                                                                ",
"                                                                                                                                ",
"                                                                                                                                "};
