/* XPM */
static char * la5_xpm[] = {
"64 64 374 2",
"  	c None",
". 	c #1C2E39",
"+ 	c #386E6D",
"@ 	c #3E7D80",
"# 	c #316876",
"$ 	c #192838",
"% 	c #172132",
"& 	c #22404C",
"* 	c #52A3A0",
"= 	c #52A6A6",
"- 	c #4FA1A3",
"; 	c #44909B",
"> 	c #376B7F",
", 	c #182334",
"' 	c #203E4B",
") 	c #4F9F9E",
"! 	c #5AB3AC",
"~ 	c #59B2AB",
"{ 	c #4C9CA1",
"] 	c #3E8698",
"^ 	c #386C80",
"/ 	c #263049",
"( 	c #1B2D3A",
"_ 	c #56ACA8",
": 	c #55AAA4",
"< 	c #5AB2AB",
"[ 	c #468B88",
"} 	c #33676A",
"| 	c #2E6070",
"1 	c #3E8496",
"2 	c #38677D",
"3 	c #1A2034",
"4 	c #1F3A48",
"5 	c #54A9A7",
"6 	c #3D7A7B",
"7 	c #57ADA8",
"8 	c #4F9E99",
"9 	c #182231",
"0 	c #2A334F",
"a 	c #3F4D73",
"b 	c #3F6D87",
"c 	c #3F6A85",
"d 	c #242D46",
"e 	c #172032",
"f 	c #417D87",
"g 	c #397071",
"h 	c #53A7A5",
"i 	c #2B5764",
"j 	c #161C2E",
"k 	c #3C5977",
"l 	c #32405F",
"m 	c #181E31",
"n 	c #2A4056",
"o 	c #39677D",
"p 	c #3C7086",
"q 	c #294C5E",
"r 	c #181F32",
"s 	c #2E2C34",
"t 	c #2D4E62",
"u 	c #2C5567",
"v 	c #294B5D",
"w 	c #3F363B",
"x 	c #242432",
"y 	c #96928E",
"z 	c #ECE3D9",
"A 	c #A0A1A2",
"B 	c #9E9EA1",
"C 	c #A1A3AD",
"D 	c #BDB2AC",
"E 	c #B9A998",
"F 	c #212330",
"G 	c #847057",
"H 	c #C3B287",
"I 	c #E8D6A7",
"J 	c #EDE0C5",
"K 	c #EFE3C6",
"L 	c #F4ECCC",
"M 	c #DFD1AA",
"N 	c #857763",
"O 	c #685650",
"P 	c #383336",
"Q 	c #D3BC8C",
"R 	c #F0E6CF",
"S 	c #FDFCFA",
"T 	c #FBF7EC",
"U 	c #F5ECCD",
"V 	c #F1E5B7",
"W 	c #E9D8A3",
"X 	c #C9AB7F",
"Y 	c #8F7566",
"Z 	c #222331",
"` 	c #ECE4AB",
" .	c #8A7C61",
"..	c #ECDCA8",
"+.	c #AB9774",
"@.	c #CFC8B1",
"#.	c #EFE2AE",
"$.	c #EFE1AB",
"%.	c #EDDDA7",
"&.	c #E1CA97",
"*.	c #D4B482",
"=.	c #9A7E6C",
"-.	c #5A4B48",
";.	c #EAE0A7",
">.	c #D6B785",
",.	c #B0A27F",
"'.	c #E3D0AD",
").	c #564B41",
"!.	c #D5D4D3",
"~.	c #F8F1DD",
"{.	c #EAD9A4",
"].	c #E1C996",
"^.	c #D5B583",
"/.	c #AE9173",
"(.	c #6B5851",
"_.	c #E5D7A0",
":.	c #181D2E",
"<.	c #CAC1A7",
"[.	c #BDA278",
"}.	c #202230",
"|.	c #D0CDC2",
"1.	c #F1E6BB",
"2.	c #E7D39F",
"3.	c #BC9E79",
"4.	c #7E675C",
"5.	c #5E5145",
"6.	c #695B4A",
"7.	c #EDE6AC",
"8.	c #383739",
"9.	c #272731",
"0.	c #64656A",
"a.	c #969180",
"b.	c #8E8366",
"c.	c #89755A",
"d.	c #BEA276",
"e.	c #C9AA7E",
"f.	c #997E6A",
"g.	c #504343",
"h.	c #877459",
"i.	c #AD936D",
"j.	c #272933",
"k.	c #F6F2D9",
"l.	c #E6D8A3",
"m.	c #625D4F",
"n.	c #DBCDA5",
"o.	c #6F604D",
"p.	c #171D2F",
"q.	c #828079",
"r.	c #948C6F",
"s.	c #B8AE86",
"t.	c #DBC998",
"u.	c #D8BA88",
"v.	c #D3B382",
"w.	c #A0836E",
"x.	c #4E4142",
"y.	c #2A2832",
"z.	c #927C5E",
"A.	c #AE9570",
"B.	c #36616E",
"C.	c #306777",
"D.	c #F5F2D7",
"E.	c #F1E9DC",
"F.	c #958C6E",
"G.	c #F3EAC9",
"H.	c #C3AD8D",
"I.	c #393A43",
"J.	c #F7F4EA",
"K.	c #E4CF9B",
"L.	c #CFAF80",
"M.	c #937867",
"N.	c #796559",
"O.	c #584D43",
"P.	c #947F60",
"Q.	c #B99D75",
"R.	c #9E8973",
"S.	c #4F7E8C",
"T.	c #347081",
"U.	c #EDE6AD",
"V.	c #E6D8A2",
"W.	c #5E5347",
"X.	c #EADBA7",
"Y.	c #E3CE9C",
"Z.	c #696058",
"`.	c #F1E9C9",
" +	c #EFE0AA",
".+	c #D9BB89",
"++	c #60504A",
"@+	c #BCB185",
"#+	c #AFA37B",
"$+	c #908667",
"%+	c #998262",
"&+	c #C8AB7E",
"*+	c #4E929C",
"=+	c #428B9A",
"-+	c #FBF9EE",
";+	c #EADFBA",
">+	c #B3A37C",
",+	c #EAD9A5",
"'+	c #F7F3E4",
")+	c #F1E5B9",
"!+	c #EEE0AA",
"~+	c #D3B483",
"{+	c #B2976F",
"]+	c #71614E",
"^+	c #1B1F2F",
"/+	c #B5A279",
"(+	c #766651",
"_+	c #D2B382",
":+	c #D9BD8A",
"<+	c #E2D5A0",
"[+	c #569FA1",
"}+	c #3F8798",
"|+	c #FFFFFF",
"1+	c #FEFDFC",
"2+	c #D6B888",
"3+	c #C3B58A",
"4+	c #F1E7C0",
"5+	c #E8D9AD",
"6+	c #B9AE86",
"7+	c #574C42",
"8+	c #181D2F",
"9+	c #252E47",
"0+	c #242C45",
"a+	c #AF956E",
"b+	c #907A5E",
"c+	c #D5B683",
"d+	c #E2D09A",
"e+	c #C3C8A1",
"f+	c #4C9BA1",
"g+	c #428798",
"h+	c #5D797E",
"i+	c #FCFBF5",
"j+	c #DBC09A",
"k+	c #1C303C",
"l+	c #181E32",
"m+	c #222531",
"n+	c #7B755E",
"o+	c #343337",
"p+	c #20273D",
"q+	c #2E3957",
"r+	c #39466A",
"s+	c #405779",
"t+	c #294056",
"u+	c #A58A6D",
"v+	c #DBC28E",
"w+	c #BCB896",
"x+	c #87A79F",
"y+	c #BFAC89",
"z+	c #B19770",
"A+	c #F2EDC6",
"B+	c #E1CE9B",
"C+	c #2B5356",
"D+	c #377075",
"E+	c #52A5A4",
"F+	c #2A5765",
"G+	c #5D4D4A",
"H+	c #80695D",
"I+	c #5F4F4A",
"J+	c #313C5B",
"K+	c #31596E",
"L+	c #3F5779",
"M+	c #405076",
"N+	c #3F6B86",
"O+	c #3E8194",
"P+	c #285362",
"Q+	c #B0966F",
"R+	c #AA8F70",
"S+	c #D4B583",
"T+	c #BEAC89",
"U+	c #A6B29B",
"V+	c #E6DCA4",
"W+	c #D8BC89",
"X+	c #A48C68",
"Y+	c #FFFFFE",
"Z+	c #F6F0E8",
"`+	c #D5B685",
" @	c #326364",
".@	c #42888D",
"+@	c #2A5866",
"@@	c #3A7D8E",
"#@	c #6B5B54",
"$@	c #CDAE80",
"%@	c #BB9D78",
"&@	c #232432",
"*@	c #171E30",
"=@	c #3E7A8F",
"-@	c #3E8094",
";@	c #A98F6B",
">@	c #7B7162",
",@	c #7E9C98",
"'@	c #4F9DA1",
")@	c #9ABBA5",
"!@	c #DFCB96",
"~@	c #71614D",
"{@	c #FFFEFE",
"]@	c #E0C9AB",
"^@	c #232531",
"/@	c #726351",
"(@	c #927D5E",
"_@	c #315C70",
":@	c #345667",
"<@	c #B1966F",
"[@	c #D1B281",
"}@	c #2D2B33",
"|@	c #243E50",
"1@	c #355C73",
"2@	c #355D74",
"3@	c #242F47",
"4@	c #866F5E",
"5@	c #325664",
"6@	c #45919C",
"7@	c #A8A38D",
"8@	c #B0966E",
"9@	c #262631",
"0@	c #EEE3D5",
"a@	c #6F5F4D",
"b@	c #7F7C61",
"c@	c #C0AC7F",
"d@	c #635549",
"e@	c #3D3945",
"f@	c #3C496E",
"g@	c #3F373D",
"h@	c #6F5F4C",
"i@	c #3D353A",
"j@	c #69615E",
"k@	c #3B7E90",
"l@	c #458798",
"m@	c #C9B086",
"n@	c #FEFEFD",
"o@	c #E0CAAC",
"p@	c #DFCE99",
"q@	c #C6BB8F",
"r@	c #8D7E64",
"s@	c #937C61",
"t@	c #8D7365",
"u@	c #4E4243",
"v@	c #2A3451",
"w@	c #2D3755",
"x@	c #3A3239",
"y@	c #404850",
"z@	c #45808F",
"A@	c #AD946F",
"B@	c #F6F0E9",
"C@	c #D6B787",
"D@	c #DEC893",
"E@	c #E4D59E",
"F@	c #A08F6C",
"G@	c #B39870",
"H@	c #C6A87A",
"I@	c #947E5F",
"J@	c #282732",
"K@	c #2D425B",
"L@	c #253149",
"M@	c #29324D",
"N@	c #5D4D49",
"O@	c #253946",
"P@	c #222633",
"Q@	c #F2E9DF",
"R@	c #E4D2AF",
"S@	c #E0CC96",
"T@	c #D5B684",
"U@	c #C8AA7C",
"V@	c #322E34",
"W@	c #213F4E",
"X@	c #1E3847",
"Y@	c #F2EADF",
"Z@	c #E0CAA1",
"`@	c #CBB181",
" #	c #F6F0EA",
".#	c #E3E3E3",
"+#	c #CCC9AE",
"@#	c #C6C091",
"##	c #AD9E77",
"$#	c #333236",
"                                                                                                                                ",
"                                                                                                                                ",
"                                                                                                                                ",
"                                                                                                                                ",
"                                                                                                                                ",
"                                                                                                                                ",
"                                                                                                                                ",
"                                                                                                                                ",
"                                                                                                                                ",
"                                                                                                                                ",
"                                                                                                                                ",
"                                                                                                                                ",
"                                                                                                                                ",
"                                                                                                                                ",
"                                                                                                                                ",
"                                                                                                                                ",
"                                                    . + @ # $ %                                                                 ",
"                                                  & * = = - ; > ,                                                               ",
"                                                ' ) ! = ~ ! { ] ^ /                                                             ",
"                                                ( _ : - < [ } | 1 2 3                                                           ",
"                                                4 5 6 7 8 9 0 a b c d                                                           ",
"                                                e f g h i j 0 a k l m                                                           ",
"                                                  n o p q     r m j                                                             ",
"                                                  s t u v w x                                                                   ",
"                                              j y z A B C D E F                                                                 ",
"                                              G H I J K L M N O j                                                               ",
"                                            P Q R S T U V W X Y Z                                                               ",
"          `                                  ...+.@.#.$.%.&.*.=.-.                                                              ",
"          ;.>.                              ,.'.).!.~.{.].^.^./.(.j                                                             ",
"          _.^.  ^.                        :.<.[.}.|.1.2.^.^.^.3.4.j       5.6.                                                  ",
"        7._.^.  ^.                        :.8.9.j 0.a.b.c.d.e.f.g.j     h.i.j.                                                  ",
"        k.l.^.  ^.                        m.n.o.p.q.r.s.t.u.v.w.x.j y.z.A.B.C.                                                  ",
"        D.E.^.  ^.                        F.G.H.I.J.V K.^.L.M.N.O.P.Q.R.S.] T.                                                  ",
"        U.V.^.^.  ^.                      W.X.Y.Z.`. +.+^.v.++@+#+$+%+&+*+=+T.                                                  ",
"        -+;+^.^.^.^.                        >+,+'+)+!+~+{+]+^+/+(+_+:+<+[+}+T.                                                  ",
"        |+1+2+^.^.  ^.                        3+4+5+6+7+8+9+0+a+b+c+d+e+f+g+h+                                                  ",
"        D.i+j+^.  ^.              k+    j j l+m+n+o+p+q+r+s+t+a+u+c+v+w+x+y+z+                                                  ",
"        -+A+B+^.^.            C+D+E+F+G+H+I+J+d p.K+L+M+N+O+P+Q+R+S+T+U+V+W+X+                                                  ",
"        |+Y+Z+`+^.^.           @.@+@@@#@$@%@&@*@j v =@-@] ] P+;@>@,@'@)@!@S+~@                                                  ",
"        |+|+{@]@^.^.^.        ^@/@(@_@:@<@[@}@  j j |@1@2@1@3@4@5@] 6@7@^.8@9@                                                  ",
"          |+|+0@^.^.^.^.  a@b@c@X+d@e@f@g@h@:.  j j   j j j j i@j@k@l@m@8@}@                                                    ",
"          |+|+n@o@^.^.^.W+p@q@r@s@t@u@v@w@      j j             x@y@z@A@}@                                                      ",
"          |+|+|+B@C@c+D@E@F@G@H@I@J@K@L@M@      j j             j N@O@P@                                                        ",
"          |+|+|+|+Q@R@S@T@U@I@V@    W@X@                            j                                                           ",
"          |+|+|+Y+Y@Z@`@I@V@                                                                                                    ",
"             #.#+#@###$#                                                                                                        ",
"                                                                                                                                ",
"                                                                                                                                ",
"                                                                                                                                ",
"                                                                                                                                ",
"                                                                                                                                ",
"                                                                                                                                ",
"                                                                                                                                ",
"                                                                                                                                ",
"                                                                                                                                ",
"                                                                                                                                ",
"                                                                                                                                ",
"                                                                                                                                ",
"                                                                                                                                ",
"                                                                                                                                ",
"                                                                                                                                ",
"                                                                                                                                ",
"                                                                                                                                ",
"                                                                                                                                "};
