/* XPM */
static char * la6_xpm[] = {
"64 64 348 2",
"  	c None",
". 	c #2F5B5D",
"+ 	c #397070",
"@ 	c #458A87",
"# 	c #4B9590",
"$ 	c #418489",
"% 	c #2E6170",
"& 	c #34686B",
"* 	c #52A5A1",
"= 	c #59B2AC",
"- 	c #52A6A6",
"; 	c #52A7A6",
"> 	c #57AEAA",
", 	c #428B99",
"' 	c #295463",
") 	c #161C2E",
"! 	c #213F4B",
"~ 	c #55A8A3",
"{ 	c #50A19F",
"] 	c #50A2A4",
"^ 	c #54AAA8",
"/ 	c #59B1AA",
"( 	c #59B2AB",
"_ 	c #49979F",
": 	c #3B7A8D",
"< 	c #1F2A3F",
"[ 	c #3E7D81",
"} 	c #4B9591",
"| 	c #48918F",
"1 	c #52A4A0",
"2 	c #386F6E",
"3 	c #1C2E39",
"4 	c #305F60",
"5 	c #387788",
"6 	c #3E8295",
"7 	c #2D4E62",
"8 	c #365F74",
"9 	c #387076",
"0 	c #4B969C",
"a 	c #2A4D5E",
"b 	c #171D2F",
"c 	c #323D5D",
"d 	c #364264",
"e 	c #334B66",
"f 	c #3E8496",
"g 	c #35556F",
"h 	c #2A3952",
"i 	c #356377",
"j 	c #387083",
"k 	c #192536",
"l 	c #171D30",
"m 	c #354163",
"n 	c #404E75",
"o 	c #3F6682",
"p 	c #3F7089",
"q 	c #2D445C",
"r 	c #2E2E35",
"s 	c #31586C",
"t 	c #305067",
"u 	c #1F2A40",
"v 	c #42383C",
"w 	c #202232",
"x 	c #29334E",
"y 	c #29344F",
"z 	c #181F32",
"A 	c #96928E",
"B 	c #ECE3D9",
"C 	c #A0A1A2",
"D 	c #9E9EA1",
"E 	c #A1A3AD",
"F 	c #BDB2AC",
"G 	c #B9A998",
"H 	c #202230",
"I 	c #847057",
"J 	c #C3B388",
"K 	c #E7D5A4",
"L 	c #ECDFC2",
"M 	c #EFE3C6",
"N 	c #F4ECCC",
"O 	c #DFD1AA",
"P 	c #857863",
"Q 	c #685650",
"R 	c #C2A87C",
"S 	c #EBDCB9",
"T 	c #FAF5E7",
"U 	c #F9F5E5",
"V 	c #F4EBCA",
"W 	c #F1E4B6",
"X 	c #ECDCA7",
"Y 	c #C7AC82",
"Z 	c #866E61",
"` 	c #1B1F2F",
" .	c #786953",
"..	c #EADAA5",
"+.	c #D0C3A8",
"@.	c #E0DCD1",
"#.	c #F1E5BA",
"$.	c #EFE2AE",
"%.	c #EFE1AC",
"&.	c #E6D39E",
"*.	c #D3B382",
"=.	c #997D6B",
"-.	c #4F4242",
";.	c #968D70",
">.	c #E7D6B3",
",.	c #71614E",
"'.	c #D2CEC4",
").	c #EFE0AA",
"!.	c #E7D39F",
"~.	c #D6B684",
"{.	c #D5B583",
"].	c #A88B71",
"^.	c #5E4E4A",
"/.	c #D1C5AA",
"(.	c #CCB284",
"_.	c #272731",
":.	c #D1CEC3",
"<.	c #F4EBCB",
"[.	c #E4D09C",
"}.	c #B69876",
"|.	c #7E675C",
"1.	c #242431",
"2.	c #7A745D",
"3.	c #6E5F4D",
"4.	c #9D9D9F",
"5.	c #CBC2A1",
"6.	c #C1B187",
"7.	c #B29870",
"8.	c #C1A478",
"9.	c #CAAB7F",
"0.	c #A98D70",
"a.	c #695750",
"b.	c #786751",
"c.	c #917B5D",
"d.	c #323237",
"e.	c #B5AA8E",
"f.	c #50463F",
"g.	c #2C2E38",
"h.	c #7D775F",
"i.	c #B9AD85",
"j.	c #D6B987",
"k.	c #4D4142",
"l.	c #171D2E",
"m.	c #867358",
"n.	c #AE946D",
"o.	c #2B3D48",
"p.	c #172031",
"q.	c #D3B482",
"r.	c #DDC7A8",
"s.	c #E5D2BA",
"t.	c #B6AA9B",
"u.	c #A08A67",
"v.	c #938B6D",
"w.	c #EFE3BD",
"x.	c #A7906E",
"y.	c #2E313C",
"z.	c #ECEAE4",
"A.	c #EEE2B6",
"B.	c #E8D7A2",
"C.	c #D9BB89",
"D.	c #CFAF80",
"E.	c #AE9173",
"F.	c #7F695A",
"G.	c #463D3D",
"H.	c #8C755E",
"I.	c #A39072",
"J.	c #3A6B79",
"K.	c #3D8394",
"L.	c #192838",
"M.	c #727273",
"N.	c #F5F2DE",
"O.	c #FDFCFA",
"P.	c #F1ECD4",
"Q.	c #D5CBBE",
"R.	c #383A3E",
"S.	c #796E58",
"T.	c #EDE0B4",
"U.	c #E0CBA2",
"V.	c #454246",
"W.	c #F3ECD2",
"X.	c #EFE1AB",
"Y.	c #DCC18E",
"Z.	c #C9AB7C",
"`.	c #9A8968",
" +	c #998D6E",
".+	c #B4A279",
"++	c #B0966F",
"@+	c #B29672",
"#+	c #748A8C",
"$+	c #3E8698",
"%+	c #3D8496",
"&+	c #A7A27C",
"*+	c #DDC595",
"=+	c #E4D1B6",
"-+	c #ECE2BC",
";+	c #DFD8A3",
">+	c #A5A17B",
",+	c #373839",
"'+	c #1A2A37",
")+	c #172233",
"!+	c #292A33",
"~+	c #D1C294",
"{+	c #ECDCA9",
"]+	c #DFDBD5",
"^+	c #F0E4B8",
"/+	c #EEE0AA",
"(+	c #B0966E",
"_+	c #887B5F",
":+	c #AFA37B",
"<+	c #7A6A53",
"[+	c #D3B483",
"}+	c #8C9E95",
"|+	c #46929D",
"1+	c #8D8466",
"2+	c #B1976F",
"3+	c #D4B583",
"4+	c #D9BD8A",
"5+	c #D2C996",
"6+	c #D1CA98",
"7+	c #333236",
"8+	c #192735",
"9+	c #4B9693",
"0+	c #3B797F",
"a+	c #336465",
"b+	c #574D44",
"c+	c #D9C796",
"d+	c #F3E9C4",
"e+	c #F0E4B7",
"f+	c #E0D3A1",
"g+	c #947F60",
"h+	c #2D2B33",
"i+	c #847258",
"j+	c #908667",
"k+	c #D2B281",
"l+	c #D8BB88",
"m+	c #E8DEA6",
"n+	c #8DBBA9",
"o+	c #428C9A",
"p+	c #252631",
"q+	c #73624E",
"r+	c #BDA075",
"s+	c #C8AA7C",
"t+	c #998365",
"u+	c #B7AC85",
"v+	c #BEA77B",
"w+	c #947E5F",
"x+	c #304D58",
"y+	c #3D7E86",
"z+	c #36717B",
"A+	c #344162",
"B+	c #605E57",
"C+	c #B7AD85",
"D+	c #8A7C61",
"E+	c #303036",
"F+	c #1F273D",
"G+	c #242D46",
"H+	c #837056",
"I+	c #967F63",
"J+	c #E0CC96",
"K+	c #DECC98",
"L+	c #569EA1",
"M+	c #488897",
"N+	c #969B8E",
"O+	c #2E2E36",
"P+	c #BCA075",
"Q+	c #BC9F75",
"R+	c #5C4E47",
"S+	c #6C5D4C",
"T+	c #377687",
"U+	c #40525C",
"V+	c #3C343A",
"W+	c #171E30",
"X+	c #39506F",
"Y+	c #3B6D84",
"Z+	c #1F273E",
"`+	c #252E47",
" @	c #394669",
".@	c #3F5779",
"+@	c #355D74",
"@@	c #AA8F70",
"#@	c #D4B482",
"$@	c #D5B684",
"%@	c #D2B585",
"&@	c #A1BBA5",
"*@	c #D0BD91",
"=@	c #D2B382",
"-@	c #353135",
";@	c #71614D",
">@	c #866F5E",
",@	c #725D55",
"'@	c #252F48",
")@	c #346277",
"!@	c #8A745F",
"~@	c #987D69",
"{@	c #3F6582",
"]@	c #405176",
"^@	c #3F718A",
"/@	c #3E8597",
"(@	c #347081",
"_@	c #A58A6C",
":@	c #D0B282",
"<@	c #A9A48D",
"[@	c #71A09D",
"}@	c #E7DFA7",
"|@	c #DDC692",
"1@	c #BEA176",
"2@	c #21273B",
"3@	c #202333",
"4@	c #394569",
"5@	c #313649",
"6@	c #C3A47B",
"7@	c #5C4D4A",
"8@	c #1F2B40",
"9@	c #3B7388",
"0@	c #3E8497",
"a@	c #356478",
"b@	c #806E55",
"c@	c #716053",
"d@	c #628C94",
"e@	c #4B9AA1",
"f@	c #5CA7A5",
"g@	c #D8C18E",
"h@	c #2D4D61",
"i@	c #252E48",
"j@	c #384568",
"k@	c #433B3D",
"l@	c #CFB080",
"m@	c #9D8565",
"n@	c #292F46",
"o@	c #182133",
"p@	c #293650",
"q@	c #293751",
"r@	c #504343",
"s@	c #695953",
"t@	c #3E8798",
"u@	c #8A9892",
"v@	c #172132",
"w@	c #181D2E",
"x@	c #2F2C33",
"y@	c #5B4C49",
"z@	c #435E69",
"A@	c #B3A78B",
"B@	c #171C2E",
"C@	c #4C4041",
"D@	c #445F69",
"E@	c #858476",
"F@	c #232331",
"G@	c #383138",
"                                                                                                                                ",
"                                                                                                                                ",
"                                                                                                                                ",
"                                                                                                                                ",
"                                                                                                                                ",
"                                                                                                                                ",
"                                                                                                                                ",
"                                                                                                                                ",
"                                                                                                                                ",
"                                                                                                                                ",
"                                                                                                                                ",
"                                                                                                                                ",
"                                                                                                                                ",
"                                                                                                                                ",
"                                                                                                                                ",
"                                                                                                                                ",
"                                                              . + @ # $ %                                                       ",
"                                                            & * = - ; > , ' )                                                   ",
"                                                          ! ~ { ] ^ / ( _ : <                                                   ",
"                                                          [ } | 1 2 3 4 5 6 7 )                                                 ",
"                                                          8 9 0 a b c d e f g )                                                 ",
"                                                          h i j k l m n o p q                                                   ",
"                                                          r s t u v w x y y z                                                   ",
"                                                      ) A B C D E F G H                                                         ",
"                                                      I J K L M N O P Q )                                                       ",
"                                                      R S T U V W X Y Z `                                                       ",
"                                                     ...+.@.#.$.%.&.*.=.-.                                                      ",
"                                                    ;.>.,.'.N ).!.~.{.].^.)                                                     ",
"                                                    /.(._.:.<.[.{.{.{.}.|.)     1.                                              ",
"                                                  ) 2.3.) 4.5.6.7.8.9.0.a.)   b.c.)                                             ",
"                                                  d.e.f.) g.d.h.i.j.*.=.k.l.m.n.o.p.                                            ",
"                q.r.s.t.u.                        v.w.x.y.z.A.B.C.D.E.F.G.H.I.J.K.L.                                            ",
"                  M.N.O.P.Q.R.                    S.T.U.V.W.X.Y.Z.`. +.+++@+#+$+%+L.                                            ",
"                    &+*+=+-+;+>+,+      '+)+      !+~+{+]+^+/+~.(+_+:+<+7.[+}+|+%+L.                                            ",
"                      1+2+3+4+5+6+>+7+8+9+0+a+    ) b+c+d+e+f+g+h+i+j+k+l+m+n+o+%+L.                                            ",
"                        p+q+r+s+t+u+v+w+x+y+z+    l A+B+C+D+E+F+G+H+I+*.J+K+L+M+N+O+                                            ",
"                            p+q+P+Q+R+w+S+T+U+V+) W+X+Y+Z+`+ @.@+@H+@@#@$@%@&@*@=@-@                                            ",
"                                p+;@>@,@'@)@!@~@V+  Z+Y+{@]@^@/@(@H+_@:@<@[@}@|@1@1.                                            ",
"                                    2@3@4@5@s+6@7@F+) 8@9@f /@0@a@b@c@d@e@f@g@{.w+                                              ",
"                                    h@i@j@k@l@m@n@x   ) o@p@q@p@G+r@s@%+t@u@{.(+h+                                              ",
"                                    v@`+Z+w@x@w@      ) ) )     ) ) y@z@/@A@(+h+                                                ",
"                                                      ) )       ) ) B@C@D@E@h+                                                  ",
"                                                      ) )         ) ) F@G@p.                                                    ",
"                                                                                                                                ",
"                                                                                                                                ",
"                                                                                                                                ",
"                                                                                                                                ",
"                                                                                                                                ",
"                                                                                                                                ",
"                                                                                                                                ",
"                                                                                                                                ",
"                                                                                                                                ",
"                                                                                                                                ",
"                                                                                                                                ",
"                                                                                                                                ",
"                                                                                                                                ",
"                                                                                                                                ",
"                                                                                                                                ",
"                                                                                                                                ",
"                                                                                                                                ",
"                                                                                                                                ",
"                                                                                                                                ",
"                                                                                                                                ",
"                                                                                                                                "};
