/* XPM */
static char * ra3_xpm[] = {
"64 64 355 2",
"  	c None",
". 	c #D5B583",
"+ 	c #DFC9A9",
"@ 	c #A09486",
"# 	c #EEE2D4",
"$ 	c #C2C0B2",
"% 	c #6D6155",
"& 	c #F9F6F3",
"* 	c #EFEAC9",
"= 	c #3D3E3C",
"- 	c #BFA479",
"; 	c #F9F6EC",
"> 	c #DABF90",
", 	c #8D8466",
"' 	c #172132",
") 	c #316878",
"! 	c #22414D",
"~ 	c #1C303B",
"{ 	c #93887C",
"] 	c #F3EED2",
"^ 	c #D6B786",
"/ 	c #857157",
"( 	c #171F31",
"_ 	c #2C5D6D",
": 	c #448D97",
"< 	c #56ACA8",
"[ 	c #4FA0A2",
"} 	c #54A8A2",
"| 	c #438685",
"1 	c #2E595B",
"2 	c #7E7B63",
"3 	c #EDE6B5",
"4 	c #D6B784",
"5 	c #161C2E",
"6 	c #2E586A",
"7 	c #3E8698",
"8 	c #56ADA9",
"9 	c #5AB2AC",
"0 	c #54AAA7",
"a 	c #52A6A6",
"b 	c #5AB3AC",
"c 	c #479093",
"d 	c #1A2B39",
"e 	c #94906F",
"f 	c #E5D7A0",
"g 	c #253149",
"h 	c #3E7B90",
"i 	c #3E8597",
"j 	c #438B90",
"k 	c #4B9691",
"l 	c #55A8A2",
"m 	c #55AAA8",
"n 	c #4B9897",
"o 	c #57AEA9",
"p 	c #448A8C",
"q 	c #CAC393",
"r 	c #D1B181",
"s 	c #574C42",
"t 	c #323F5E",
"u 	c #3E7B91",
"v 	c #356579",
"w 	c #2A3550",
"x 	c #242D46",
"y 	c #1A2A37",
"z 	c #468A87",
"A 	c #54A7A2",
"B 	c #3D7B7B",
"C 	c #51A2A2",
"D 	c #192738",
"E 	c #C7C191",
"F 	c #BB9F74",
"G 	c #2E2B33",
"H 	c #252F48",
"I 	c #3E7089",
"J 	c #3F768D",
"K 	c #404F75",
"L 	c #3F4D73",
"M 	c #1F273D",
"N 	c #171F30",
"O 	c #3D7B88",
"P 	c #3A6D76",
"Q 	c #42788B",
"R 	c #29334F",
"S 	c #8F8768",
"T 	c #B7AC85",
"U 	c #B0956E",
"V 	c #364465",
"W 	c #364264",
"X 	c #252E48",
"Y 	c #295463",
"Z 	c #325C70",
"` 	c #377082",
" .	c #8B765A",
"..	c #837157",
"+.	c #A08768",
"@.	c #2A2932",
"#.	c #292733",
"$.	c #3B3339",
"%.	c #2D4C61",
"&.	c #212F44",
"*.	c #56585B",
"=.	c #746658",
"-.	c #2B2F3B",
";.	c #192534",
">.	c #3F8085",
",.	c #847863",
"'.	c #837056",
").	c #7C655B",
"!.	c #232432",
"~.	c #182334",
"{.	c #212330",
"].	c #B8A998",
"^.	c #ACA7A8",
"/.	c #A1A3AC",
"(.	c #C4C3C3",
"_.	c #DFDBD7",
":.	c #E3DACE",
"<.	c #676667",
"[.	c #222330",
"}.	c #305D5F",
"|.	c #346B74",
"1.	c #535654",
"2.	c #514943",
"3.	c #4D4144",
"4.	c #23293F",
"5.	c #304E65",
"6.	c #172031",
"7.	c #4D4142",
"8.	c #847762",
"9.	c #E4D9B8",
"0.	c #F4EBCB",
"a.	c #E9D8A9",
"b.	c #F0E4C7",
"c.	c #F3EACB",
"d.	c #E5D4B3",
"e.	c #A68E69",
"f.	c #294F53",
"g.	c #3F848D",
"h.	c #3D8395",
"i.	c #3D798D",
"j.	c #3E4D73",
"k.	c #3E4C72",
"l.	c #313D5C",
"m.	c #171D30",
"n.	c #1B1F2F",
"o.	c #866E61",
"p.	c #C4A67D",
"q.	c #E9D8A3",
"r.	c #EFE1AC",
"s.	c #F4EAC9",
"t.	c #F6EFD6",
"u.	c #EFECE3",
"v.	c #E3D8BF",
"w.	c #E4D19D",
"x.	c #5D5246",
"y.	c #4F4647",
"z.	c #796956",
"A.	c #796754",
"B.	c #242634",
"C.	c #181E31",
"D.	c #232331",
"E.	c #977C6B",
"F.	c #D3B382",
"G.	c #DEC592",
"H.	c #ECDDA7",
"I.	c #EFE1AB",
"J.	c #F1E5B8",
"K.	c #D1CDC0",
"L.	c #857258",
"M.	c #E7D6B3",
"N.	c #968D70",
"O.	c #222331",
"P.	c #907566",
"Q.	c #D4B483",
"R.	c #816E55",
"S.	c #4F4242",
"T.	c #997D6C",
"U.	c #D4B482",
"V.	c #DBC08D",
"W.	c #E4CF9B",
"X.	c #F3E8C2",
"Y.	c #DEDACB",
"Z.	c #2F2E35",
"`.	c #CCB183",
" +	c #D1C5AA",
".+	c #242531",
"++	c #5D4D49",
"@+	c #937B63",
"#+	c #8A755B",
"$+	c #292832",
"%+	c #181D2E",
"&+	c #252531",
"*+	c #AE9173",
"=+	c #D3B482",
"-+	c #DBC390",
";+	c #ECDFAB",
">+	c #D0CEC6",
",+	c #232735",
"'+	c #544A41",
")+	c #7A745D",
"!+	c #303B5A",
"~+	c #171D2F",
"{+	c #272731",
"]+	c #A08865",
"^+	c #645647",
"/+	c #3A3239",
"(+	c #81695D",
"_+	c #B79977",
":+	c #CAAB7D",
"<+	c #9F906E",
"[+	c #44413E",
"}+	c #333337",
"|+	c #202230",
"1+	c #A0947E",
"2+	c #7E7761",
"3+	c #181F32",
"4+	c #1D3544",
"5+	c #574E46",
"6+	c #5B4F43",
"7+	c #1A1E2F",
"8+	c #856D60",
"9+	c #C2A37B",
"0+	c #E5D4A0",
"a+	c #C9BE91",
"b+	c #D1CDC1",
"c+	c #838487",
"d+	c #6F604D",
"e+	c #C7BB90",
"f+	c #3A7E90",
"g+	c #5E7275",
"h+	c #AA906D",
"i+	c #786455",
"j+	c #2A2832",
"k+	c #3D353A",
"l+	c #907666",
"m+	c #AA8D72",
"n+	c #D6B684",
"o+	c #ECDCA6",
"p+	c #F0E2AF",
"q+	c #C2C0B8",
"r+	c #968162",
"s+	c #EEE0B4",
"t+	c #A39875",
"u+	c #3F8698",
"v+	c #9B9383",
"w+	c #AD936E",
"x+	c #B29C74",
"y+	c #A6936E",
"z+	c #9F9675",
"A+	c #85715B",
"B+	c #D2B382",
"C+	c #DEC692",
"D+	c #E9E1C6",
"E+	c #E7DFCB",
"F+	c #EBDBA6",
"G+	c #7E7760",
"H+	c #3E8798",
"I+	c #49979F",
"J+	c #B5A98C",
"K+	c #C9AC7D",
"L+	c #797058",
"M+	c #C5B486",
"N+	c #2F2E34",
"O+	c #564B41",
"P+	c #957F60",
"Q+	c #C8B386",
"R+	c #ECDEA9",
"S+	c #F3E8C3",
"T+	c #F1E5B9",
"U+	c #AC9B76",
"V+	c #2F364F",
"W+	c #48969F",
"X+	c #BDD0AB",
"Y+	c #E4D59E",
"Z+	c #B1976F",
"`+	c #B6A47A",
" @	c #2E2C35",
".@	c #2D3855",
"+@	c #222632",
"@@	c #363538",
"#@	c #A29774",
"$@	c #A69D7A",
"%@	c #3A4159",
"&@	c #3F4D74",
"*@	c #6E685C",
"=@	c #7B9393",
"-@	c #438898",
";@	c #98B7A3",
">@	c #E0CE98",
",@	c #DAC18D",
"'@	c #BDA077",
")@	c #B0966E",
"!@	c #2E2D36",
"~@	c #3F4E74",
"{@	c #39466A",
"]@	c #323E5E",
"^@	c #242D47",
"/@	c #2A3450",
"(@	c #404D74",
"_@	c #40577A",
":@	c #2E3957",
"<@	c #D4B583",
"[@	c #CBC59C",
"}@	c #A4B39C",
"|@	c #D5B684",
"1@	c #D5B683",
"2@	c #C3A47B",
"3@	c #BB9E76",
"4@	c #3F4F74",
"5@	c #3F6582",
"6@	c #3F6C86",
"7@	c #40587A",
"8@	c #405076",
"9@	c #40587B",
"0@	c #3E8094",
"a@	c #3C627D",
"b@	c #E2D19A",
"c@	c #C9CFA7",
"d@	c #7E9E98",
"e@	c #BEAC89",
"f@	c #B89C75",
"g@	c #BFA179",
"h@	c #3F6380",
"i@	c #3F6783",
"j@	c #385974",
"k@	c #252631",
"l@	c #BDA075",
"m@	c #BDB996",
"n@	c #54A8A7",
"o@	c #49929D",
"p@	c #5D797E",
"q@	c #9F8668",
"r@	c #2E2C36",
"s@	c #3F6381",
"t@	c #3E8194",
"u@	c #3B7085",
"v@	c #1F283E",
"w@	c #5C4F44",
"x@	c #C8AA7C",
"y@	c #D2B484",
"z@	c #4B8998",
"A@	c #387181",
"B@	c #1F2130",
"C@	c #3F6B86",
"D@	c #3E7C91",
"E@	c #386C80",
"F@	c #1E3646",
"G@	c #899792",
"H@	c #5B585A",
"I@	c #41383C",
"J@	c #293550",
"K@	c #293751",
"L@	c #728482",
"M@	c #242431",
"N@	c #3F363B",
"                                                                                                                                ",
"                                                                                                                                ",
"                                                                                                                                ",
"                                                                                                                                ",
"                                                                                                                                ",
"                                                                                                                                ",
"                                                                                                                                ",
"                                                                                                                                ",
"                                                                            .                                                   ",
"                                                                            + @                                                 ",
"                                                                            # $                                                 ",
"                                                                          % & * =                                               ",
"                                                                          - ; > ,                                               ",
"                                              ' ) ! ~                     { ] ^ /                                               ",
"                                            ( _ : < [ } | 1               2 3 4 /                                               ",
"                                          5 6 7 8 9 0 a b c d             e f . /                                               ",
"                                          g h i j k l m n o p             e q r s                                               ",
"                                          t u v w x y z A B C D           e E F G                                               ",
"                                          H I J K L M N O P Q R           S T U G                                               ",
"                                            w V W X   5 Y Z `              ...+.@.                                              ",
"                                              5 5   #.$.%.&.*.=.-.    ;.>.,.'.).!.~.                                            ",
"                                                  {.].^./.(._.:.<.[.  }.|.1.2.3.4.5.6.                                          ",
"                                                5 7.8.9.0.a.b.c.d.e.  f.g.h.i.j.k.l.m.                                          ",
"                                                n.o.p.q.r.s.t.u.v.w.x.  6.y.z.A.B.C.                                            ",
"                                                D.E.F.G.H.I.J.K.L.M.N.  O.P.F.Q.R.                                              ",
"                                                S.T.U.. V.W.X.Y.Z.`. +.+5 ++@+#+$+                                              ",
"                                      %+&+    5 ++*+. . =+-+;+>+,+'+)+5   C.!+~+                                                ",
"                                      {+]+^+  5 /+(+_+:+<+[+}+,+5 |+1+2+  5 3+                                                  ",
"                                      4+5+F 6+  7+8+9+U.V.0+a+b+c+d+M.e+                                                        ",
"                                      Y f+g+h+i+j+k+l+m+. n+o+p+q+r+s+t+                                                        ",
"                                      Y 7 u+v+w+x+y+z+A+B+. C+I.D+E+F+G+                                                        ",
"                                      Y H+I+J+K+e.L+M+N+O+P+Q+R+S+T+U+V+5                                                       ",
"                                      Y 7 W+X+Y+. Z+`+ @.@M +@@@#@$@%@&@M                                                       ",
"                                      *@=@-@;@>@,@'@)@!@&@~@{@]@^@/@(@_@:@5                                                     ",
"                                      / <@[@}@|@1@2@3@!@4@5@6@7@8@8@9@0@a@C.                                                    ",
"                                      s =+b@c@d@e@f@g@!@h@i@i i i i i i j@~+                                                    ",
"                                      k@l@4 m@n@o@p@q@r@L s@t@7 7 7 7 u@v@5 5                                                   ",
"                                        w@x@y@z@7 A@).B@:@K C@0@i D@E@F@5 5 5                                                   ",
"                                          w@x@G@f+H@I@5 ~+^@R J@K@H ~+      5                                                   ",
"                                            w@L@H@M@      5 5                                                                   ",
"                                              ( N@        5 5                                                                   ",
"                                                          5 5                                                                   ",
"                                                          5 5                                                                   ",
"                                                                                                                                ",
"                                                                                                                                ",
"                                                                                                                                ",
"                                                                                                                                ",
"                                                                                                                                ",
"                                                                                                                                ",
"                                                                                                                                ",
"                                                                                                                                ",
"                                                                                                                                ",
"                                                                                                                                ",
"                                                                                                                                ",
"                                                                                                                                ",
"                                                                                                                                ",
"                                                                                                                                ",
"                                                                                                                                ",
"                                                                                                                                ",
"                                                                                                                                ",
"                                                                                                                                ",
"                                                                                                                                ",
"                                                                                                                                ",
"                                                                                                                                "};
