/* XPM */
static char * ra4_xpm[] = {
"64 64 395 2",
"  	c None",
". 	c #E5D69F",
"+ 	c #EDE6AC",
"@ 	c #E0CD97",
"# 	c #E8DCA4",
"$ 	c #D5B583",
"% 	c #D5B683",
"& 	c #DEC893",
"* 	c #ECE5AB",
"= 	c #D9BD8A",
"- 	c #E5D7A0",
"; 	c #EDE5AB",
"> 	c #E8DCA3",
", 	c #D6B684",
"' 	c #DBC38F",
") 	c #DEC793",
"! 	c #E5D79F",
"~ 	c #EAE0A7",
"{ 	c #DBC28E",
"] 	c #E0CC96",
"^ 	c #172132",
"/ 	c #1F3C4B",
"( 	c #2A5663",
"_ 	c #1B2C38",
": 	c #DDC692",
"< 	c #D6B784",
"[ 	c #161C2E",
"} 	c #244958",
"| 	c #387788",
"1 	c #438D9A",
"2 	c #59B1AB",
"3 	c #54A7A2",
"4 	c #458986",
"5 	c #1C2E39",
"6 	c #171D2F",
"7 	c #295363",
"8 	c #3E8597",
"9 	c #45929D",
"0 	c #59B2AB",
"a 	c #5AB3AC",
"b 	c #50A3A4",
"c 	c #57AEAA",
"d 	c #54A8A2",
"e 	c #284E52",
"f 	c #D5B684",
"g 	c #314963",
"h 	c #3E788E",
"i 	c #357081",
"j 	c #2A5564",
"k 	c #3F7D7B",
"l 	c #55A9A2",
"m 	c #55AAA8",
"n 	c #4FA1A4",
"o 	c #5AB2AB",
"p 	c #4D9A97",
"q 	c #192634",
"r 	c #E3D29B",
"s 	c #EFE9B9",
"t 	c #171D30",
"u 	c #385873",
"v 	c #3E8094",
"w 	c #3F5176",
"x 	c #3C4A6F",
"y 	c #29334F",
"z 	c #1A2A37",
"A 	c #4F9E99",
"B 	c #56ADA8",
"C 	c #41817F",
"D 	c #1B2E3A",
"E 	c #EDE6AD",
"F 	c #F9F6E6",
"G 	c #F3EECA",
"H 	c #2A3550",
"I 	c #395E77",
"J 	c #3F5578",
"K 	c #2B5160",
"L 	c #4C9A9B",
"M 	c #387070",
"N 	c #469097",
"O 	c #ECE3BD",
"P 	c #F7F4DF",
"Q 	c #181F32",
"R 	c #181E31",
"S 	c #1B1F2F",
"T 	c #295261",
"U 	c #3D6F80",
"V 	c #3C7987",
"W 	c #35556F",
"X 	c #E8D9C4",
"Y 	c #F1ECC3",
"Z 	c #F1EBC0",
"` 	c #796756",
" .	c #9A836E",
"..	c #465467",
"+.	c #425468",
"@.	c #416875",
"#.	c #898E92",
"$.	c #A7A3A0",
"%.	c #282B38",
"&.	c #D8BD8A",
"*.	c #F0EABA",
"=.	c #FFFEFD",
"-.	c #3A3339",
";.	c #716B6B",
">.	c #C9C0AF",
",.	c #F6F2E3",
"'.	c #F4EFE2",
").	c #EFE7DD",
"!.	c #EDE2CC",
"~.	c #C5B899",
"{.	c #70614E",
"].	c #E6D8A2",
"^.	c #FBF9EE",
"/.	c #FFFFFF",
"(.	c #695750",
"_.	c #AE9173",
":.	c #E5D19D",
"<.	c #EFE1AC",
"[.	c #F4EAC9",
"}.	c #F7F0DC",
"|.	c #FAF5E7",
"1.	c #F3EAD2",
"2.	c #D9BF8E",
"3.	c #615346",
"4.	c #E7D7BC",
"5.	c #FDFCF5",
"6.	c #1F2130",
"7.	c #8E7466",
"8.	c #C3A47B",
"9.	c #DEC592",
"0.	c #EFE0AA",
"a.	c #EFE2AE",
"b.	c #F0E2AF",
"c.	c #F6F0DB",
"d.	c #BBB3AA",
"e.	c #EBDBA7",
"f.	c #AE9C77",
"g.	c #E4D1B8",
"h.	c #FFFFFE",
"i.	c #F2ECC4",
"j.	c #3C343A",
"k.	c #907666",
"l.	c #CEAF80",
"m.	c #DFC693",
"n.	c #EEE0AA",
"o.	c #F1E5B8",
"p.	c #F7F3E5",
"q.	c #413F42",
"r.	c #D2BC97",
"s.	c #CBC19F",
"t.	c #242431",
"u.	c #D7B88A",
"v.	c #FEFDFD",
"w.	c #F5F2D6",
"x.	c #5D4D49",
"y.	c #A1846E",
"z.	c #D4B483",
"A.	c #DCC28F",
"B.	c #34363E",
"C.	c #A58D69",
"D.	c #E7D8B5",
"E.	c #60564B",
"F.	c #D6B889",
"G.	c #FAF8EC",
"H.	c #EDE6AE",
"I.	c #F9F7E7",
"J.	c #544941",
"K.	c #4D4142",
"L.	c #927965",
"M.	c #C4A57C",
"N.	c #CBAC7D",
"O.	c #B39870",
"P.	c #BAA57C",
"Q.	c #C8BD92",
"R.	c #C1BFBA",
"S.	c #232836",
"T.	c #50463F",
"U.	c #8C8165",
"V.	c #222531",
"W.	c #D5B685",
"X.	c #EADFB0",
"Y.	c #816F56",
"Z.	c #A38B67",
"`.	c #302D33",
" +	c #8D7365",
".+	c #D4B583",
"++	c #CDBC8E",
"@+	c #938B6D",
"#+	c #383739",
"$+	c #32343A",
"%+	c #202230",
"&+	c #A0947E",
"*+	c #7E7761",
"=+	c #F1ECC4",
"-+	c #182435",
";+	c #2C5C6B",
">+	c #86745B",
",+	c #AE946D",
"'+	c #2D2B33",
")+	c #756057",
"!+	c #C3A57C",
"~+	c #E3CE9A",
"{+	c #ECDFAA",
"]+	c #F5F1E2",
"^+	c #868689",
"/+	c #71614E",
"(+	c #E7D7B4",
"_+	c #C7BC91",
":+	c #E8DBAE",
"<+	c #FDFCF7",
"[+	c #192838",
"}+	c #3D8496",
"|+	c #3B7E90",
"1+	c #857E72",
"2+	c #A78C6E",
"3+	c #8A755B",
"4+	c #383337",
"5+	c #856D60",
"6+	c #C1A37A",
"7+	c #ECDCA7",
"8+	c #F1E5BA",
"9+	c #9D9C9D",
"0+	c #B7A078",
"a+	c #F2E6C0",
"b+	c #B1A27C",
"c+	c #F0E7D7",
"d+	c #3F8798",
"e+	c #7A9393",
"f+	c #BCA076",
"g+	c #8B775B",
"h+	c #B5A47A",
"i+	c #C1B78A",
"j+	c #7F7A60",
"k+	c #BCA075",
"l+	c #E7D49F",
"m+	c #EFE2AD",
"n+	c #E1DDD1",
"o+	c #ECDEBA",
"p+	c #E9DAA5",
"q+	c #666151",
"r+	c #F2EAE0",
"s+	c #48969E",
"t+	c #93AD9D",
"u+	c #D2B382",
"v+	c #A48C68",
"w+	c #8D8062",
"x+	c #847258",
"y+	c #272731",
"z+	c #CEBE90",
"A+	c #EEE0AB",
"B+	c #F5ECCD",
"C+	c #EBDCA8",
"D+	c #907D5F",
"E+	c #F6F0EA",
"F+	c #1A2838",
"G+	c #418596",
"H+	c #78B2A8",
"I+	c #E4D7A0",
"J+	c #D8BC89",
"K+	c #8D7E61",
"L+	c #837157",
"M+	c #242D47",
"N+	c #232633",
"O+	c #726450",
"P+	c #B7AC85",
"Q+	c #7F7861",
"R+	c #DFC9A9",
"S+	c #343035",
"T+	c #BBA987",
"U+	c #7B9494",
"V+	c #53959D",
"W+	c #DBC693",
"X+	c #DFCB96",
"Y+	c #D4B482",
"Z+	c #9D8467",
"`+	c #837056",
" @	c #364D6A",
".@	c #404E75",
"+@	c #2E3957",
"@@	c #192235",
"#@	c #1D243A",
"$@	c #242C45",
"%@	c #4F4242",
"&@	c #5C4C49",
"*@	c #212231",
"=@	c #31656D",
"-@	c #478E8D",
";@	c #22414D",
">@	c #E4D2B9",
",@	c #D2B281",
"'@	c #CAD4AA",
")@	c #BFAC89",
"!@	c #B09374",
"~@	c #347080",
"{@	c #3E7B91",
"]@	c #40597B",
"^@	c #3F758C",
"/@	c #34536C",
"(@	c #242D46",
"_@	c #514444",
":@	c #BB9D78",
"<@	c #505155",
"[@	c #418998",
"}@	c #31636B",
"|@	c #6EA39A",
"1@	c #D3B483",
"2@	c #D6B787",
"3@	c #ECE0D1",
"4@	c #E0C9AB",
"5@	c #FFFEFE",
"6@	c #181D2E",
"7@	c #B2976F",
"8@	c #E5DAA3",
"9@	c #5DA8A5",
"0@	c #7E9D98",
"a@	c #978064",
"b@	c #346F80",
"c@	c #3E8496",
"d@	c #355E74",
"e@	c #172031",
"f@	c #796753",
"g@	c #A9906C",
"h@	c #346274",
"i@	c #325F6E",
"j@	c #6F675A",
"k@	c #A8997D",
"l@	c #E3D0B7",
"m@	c #73624E",
"n@	c #D3B482",
"o@	c #D4B584",
"p@	c #6B9D9D",
"q@	c #46929D",
"r@	c #61534F",
"s@	c #766452",
"t@	c #242F47",
"u@	c #293751",
"v@	c #243149",
"w@	c #544940",
"x@	c #A88F6B",
"y@	c #2F3040",
"z@	c #3B5272",
"A@	c #272936",
"B@	c #E9D9C6",
"C@	c #EEE2D4",
"D@	c #877358",
"E@	c #9A9D8F",
"F@	c #3E8698",
"G@	c #3C7E8F",
"H@	c #725F57",
"I@	c #3E363B",
"J@	c #2F3958",
"K@	c #2D3855",
"L@	c #7A645A",
"M@	c #766157",
"N@	c #6A5A4C",
"O@	c #B69974",
"P@	c #F5EEE6",
"Q@	c #D8BB8F",
"R@	c #FAF7F3",
"S@	c #B3A68A",
"T@	c #3F474F",
"U@	c #3E353B",
"V@	c #181E32",
"W@	c #313C5B",
"X@	c #29344F",
"Y@	c #282B3E",
"Z@	c #806C58",
"`@	c #C5A87A",
" #	c #A88E6A",
".#	c #9F8766",
"+#	c #C0A377",
"@#	c #E0CAAC",
"##	c #575F5F",
"$#	c #4F5055",
"%#	c #2C5466",
"&#	c #322E34",
"*#	c #947E5F",
"=#	c #C8AA7B",
"-#	c #D3B382",
";#	c #D8BB88",
">#	c #EDE2CB",
",#	c #DCC39E",
"'#	c #F6F0E9",
")#	c #C8AA7C",
"!#	c #D6B886",
"~#	c #E9DAC6",
"{#	c #9E916E",
"]#	c #DFCE98",
"^#	c #ECE5BF",
"/#	c #F8F7ED",
"(#	c #FDFDFC",
"_#	c #3A3B3B",
":#	c #3C3D40",
"<#	c #A28D70",
"[#	c #E5D2BA",
"                                                                                                                                ",
"                                                                                                                                ",
"                                                                                                                                ",
"                                                                                                                                ",
"                                                                                                                                ",
"                                                                                                                                ",
"                                                                                                                                ",
"                                                                                                                                ",
"                                                                                  . +                                           ",
"                                                                                    @ # + +                                     ",
"                                                                                $     % & * + +                                 ",
"                                                                                  $   $ $ = - ; > ,                             ",
"                                                                                    $   $ $ $ ' * . )                           ",
"                                                                                      $   $ $ $ & * & ! +                       ",
"                                                                                      $ $   $ $ $ & ~ { ~ +                     ",
"                                                                                        $   $ $ $ $ & ] { + +                   ",
"                                                              ^ / ( _                         $ $ $ $ : < # +                   ",
"                                                          [ } | 1 2 3 4 5                 $     $ $ $ $ $ & + +                 ",
"                                                        6 7 8 9 0 a b c d e               $     $ $ $ $ $ f ~ + +               ",
"                                                      [ g h i j k l m n o p q                   $ $ $ $ $ $ r + s               ",
"                                                      t u v w x y z A B C B D                     $   $ $ $ { E F G             ",
"                                                      [ H I J x y [ K L M N                       $ $ $ $ $ % O P +             ",
"                                                          t Q R [ S T U V W                       $ $   $ $ $ X Y + Z           ",
"                                                                `  ...+.@.#.$.%.                  $ $   $ $ $ &.* *.=.          ",
"                                                              -.;.>.,.'.).!.~.{.                    $   $ $ $ $ ].^./.          ",
"                                                            [ (._.:.<.[.}.|.1.2.3.                  $   $ $ $ $ 4././.5.        ",
"                                                            6.7.8.9.0.a.b.c.d.e.f.                  $   $ $ $ $ g./.h.i.        ",
"                                                            j.k.l.$ m.n.o.p.q.r.s.t.                $   $ $ $ $ u.v.w.+         ",
"                                                            x.y.z.$ $ A.o.,.B.C.D.E.                    $ $ $ $ F.G.H.H.I.      ",
"                                                  [ J.    [ K.L.M.N.O.P.Q.R.S.T.U.V.                    $ $ $ $ W.X.+ P /.      ",
"                                                  [ Y.Z.`.  6. +8..+++@+#+$+6 %+&+*+                    $ $ $ $ $ - =+=./.      ",
"                                                  -+;+>+,+'+[ )+_.!+, ~+{+]+^+/+(+_+                    $ $ $ $ $ :+<+/./.      ",
"                                                  [+}+|+1+2+3+4+5+6+$ , 7+8+9+0+a+b+                    $ $ $ $ $ c+/././.      ",
"                                                  [+}+d+e+f+g+h+i+j+k+z.l+m+n+o+p+q+                  $ $ $ $ $ $ r+/././.      ",
"                                                  [+}+s+t+: u+v+w+x+y+/+z+A+B+C+D+                    $ $ $ $ $ W.E+/././.      ",
"                                                  F+G+d+H+I+J+u+K+L+y M+N+O+P+Q+                    $ $ $ $ $ R+F.v./././.      ",
"                                                  S+T+U+V+W+X+Y+Z+`+ @.@x +@@@#@[ y $@%@&@*@=@-@;@  $ $ $ $ $ >@F.v./././.      ",
"                                                  S+,@X+'@)@.+Y+!@`+~@{@]@^@/@R   (@_@:@_.<@[@}@|@1@$ $ $ $ 2@3@4@5@/././.      ",
"                                                  6@7@J+8@9@0@T+a@`+b@8 c@d@e@      f@.+g@h@i@j@k@$ $ $ $ $ u.l@>@/./././.      ",
"                                                    m@n@o@p@q@G+r@s@t@u@v@6 [ [     w@x@y@z@A@Z.,@$ $ $ $ $ B@g.C@/././.        ",
"                                                      D@n@E@F@G@H@I@        [ [       [ J@K@L@M@N@O@z.$ $ W.P@Q@R@/././.        ",
"                                                        D@S@|+T@U@        [ [         V@W@X@Y@Z@`@ #.#+#$ @#C@>@/./././.        ",
"                                                        6@##$#%@          [ [ [         t %#-+  &#*#=#-#;#>#,#'#/./././.        ",
"                                                          [ S                                       &#*#)#!#~#v./././.          ",
"                                                                                                        &#{#]#^#/#(#5@          ",
"                                                                                                            _#_#:#<#[#          ",
"                                                                                                                                ",
"                                                                                                                                ",
"                                                                                                                                ",
"                                                                                                                                ",
"                                                                                                                                ",
"                                                                                                                                ",
"                                                                                                                                ",
"                                                                                                                                ",
"                                                                                                                                ",
"                                                                                                                                ",
"                                                                                                                                ",
"                                                                                                                                ",
"                                                                                                                                ",
"                                                                                                                                ",
"                                                                                                                                ",
"                                                                                                                                ",
"                                                                                                                                ",
"                                                                                                                                "};
