/* XPM */
static char * ra5_xpm[] = {
"64 64 374 2",
"  	c None",
". 	c #172132",
"+ 	c #192838",
"@ 	c #316876",
"# 	c #3E7D80",
"$ 	c #386E6D",
"% 	c #1C2E39",
"& 	c #182334",
"* 	c #376B7F",
"= 	c #44909B",
"- 	c #4FA1A3",
"; 	c #52A6A6",
"> 	c #52A3A0",
", 	c #22404C",
"' 	c #263049",
") 	c #386C80",
"! 	c #3E8698",
"~ 	c #4C9CA1",
"{ 	c #5AB3AC",
"] 	c #59B2AB",
"^ 	c #4F9F9E",
"/ 	c #203E4B",
"( 	c #1A2034",
"_ 	c #38677D",
": 	c #3E8496",
"< 	c #2E6070",
"[ 	c #33676A",
"} 	c #468B88",
"| 	c #5AB2AB",
"1 	c #55AAA4",
"2 	c #56ACA8",
"3 	c #1B2D3A",
"4 	c #242D46",
"5 	c #3F6A85",
"6 	c #3F6D87",
"7 	c #3F4D73",
"8 	c #2A334F",
"9 	c #182231",
"0 	c #4F9E99",
"a 	c #57ADA8",
"b 	c #3D7A7B",
"c 	c #54A9A7",
"d 	c #1F3A48",
"e 	c #181E31",
"f 	c #32405F",
"g 	c #3C5977",
"h 	c #161C2E",
"i 	c #2B5764",
"j 	c #53A7A5",
"k 	c #397071",
"l 	c #417D87",
"m 	c #172032",
"n 	c #181F32",
"o 	c #294C5E",
"p 	c #3C7086",
"q 	c #39677D",
"r 	c #2A4056",
"s 	c #242432",
"t 	c #3F363B",
"u 	c #294B5D",
"v 	c #2C5567",
"w 	c #2D4E62",
"x 	c #2E2C34",
"y 	c #212330",
"z 	c #B9A998",
"A 	c #BDB2AC",
"B 	c #A1A3AD",
"C 	c #9E9EA1",
"D 	c #A0A1A2",
"E 	c #ECE3D9",
"F 	c #96928E",
"G 	c #685650",
"H 	c #857763",
"I 	c #DFD1AA",
"J 	c #F4ECCC",
"K 	c #EFE3C6",
"L 	c #EDE0C5",
"M 	c #E8D6A7",
"N 	c #C3B287",
"O 	c #847057",
"P 	c #222331",
"Q 	c #8F7566",
"R 	c #C9AB7F",
"S 	c #E9D8A3",
"T 	c #F1E5B7",
"U 	c #F5ECCD",
"V 	c #FBF7EC",
"W 	c #FDFCFA",
"X 	c #F0E6CF",
"Y 	c #D3BC8C",
"Z 	c #383336",
"` 	c #5A4B48",
" .	c #9A7E6C",
"..	c #D4B482",
"+.	c #E1CA97",
"@.	c #EDDDA7",
"#.	c #EFE1AB",
"$.	c #EFE2AE",
"%.	c #CFC8B1",
"&.	c #AB9774",
"*.	c #ECDCA8",
"=.	c #8A7C61",
"-.	c #ECE4AB",
";.	c #6B5851",
">.	c #AE9173",
",.	c #D5B583",
"'.	c #E1C996",
").	c #EAD9A4",
"!.	c #F8F1DD",
"~.	c #D5D4D3",
"{.	c #564B41",
"].	c #E3D0AD",
"^.	c #B0A27F",
"/.	c #D6B785",
"(.	c #EAE0A7",
"_.	c #695B4A",
":.	c #5E5145",
"<.	c #7E675C",
"[.	c #BC9E79",
"}.	c #E7D39F",
"|.	c #F1E6BB",
"1.	c #D0CDC2",
"2.	c #202230",
"3.	c #BDA278",
"4.	c #CAC1A7",
"5.	c #181D2E",
"6.	c #E5D7A0",
"7.	c #272933",
"8.	c #AD936D",
"9.	c #877459",
"0.	c #504343",
"a.	c #997E6A",
"b.	c #C9AA7E",
"c.	c #BEA276",
"d.	c #89755A",
"e.	c #8E8366",
"f.	c #969180",
"g.	c #64656A",
"h.	c #272731",
"i.	c #383739",
"j.	c #EDE6AC",
"k.	c #306777",
"l.	c #36616E",
"m.	c #AE9570",
"n.	c #927C5E",
"o.	c #2A2832",
"p.	c #4E4142",
"q.	c #A0836E",
"r.	c #D3B382",
"s.	c #D8BA88",
"t.	c #DBC998",
"u.	c #B8AE86",
"v.	c #948C6F",
"w.	c #828079",
"x.	c #171D2F",
"y.	c #6F604D",
"z.	c #DBCDA5",
"A.	c #625D4F",
"B.	c #E6D8A3",
"C.	c #F6F2D9",
"D.	c #347081",
"E.	c #4F7E8C",
"F.	c #9E8973",
"G.	c #B99D75",
"H.	c #947F60",
"I.	c #584D43",
"J.	c #796559",
"K.	c #937867",
"L.	c #CFAF80",
"M.	c #E4CF9B",
"N.	c #F7F4EA",
"O.	c #393A43",
"P.	c #C3AD8D",
"Q.	c #F3EAC9",
"R.	c #958C6E",
"S.	c #F1E9DC",
"T.	c #F5F2D7",
"U.	c #428B9A",
"V.	c #4E929C",
"W.	c #C8AB7E",
"X.	c #998262",
"Y.	c #908667",
"Z.	c #AFA37B",
"`.	c #BCB185",
" +	c #60504A",
".+	c #D9BB89",
"++	c #EFE0AA",
"@+	c #F1E9C9",
"#+	c #696058",
"$+	c #E3CE9C",
"%+	c #EADBA7",
"&+	c #5E5347",
"*+	c #E6D8A2",
"=+	c #EDE6AD",
"-+	c #3F8798",
";+	c #569FA1",
">+	c #E2D5A0",
",+	c #D9BD8A",
"'+	c #D2B382",
")+	c #766651",
"!+	c #B5A279",
"~+	c #1B1F2F",
"{+	c #71614E",
"]+	c #B2976F",
"^+	c #D3B483",
"/+	c #EEE0AA",
"(+	c #F1E5B9",
"_+	c #F7F3E4",
":+	c #EAD9A5",
"<+	c #B3A37C",
"[+	c #EADFBA",
"}+	c #FBF9EE",
"|+	c #5D797E",
"1+	c #428798",
"2+	c #4C9BA1",
"3+	c #C3C8A1",
"4+	c #E2D09A",
"5+	c #D5B683",
"6+	c #907A5E",
"7+	c #AF956E",
"8+	c #242C45",
"9+	c #252E47",
"0+	c #181D2F",
"a+	c #574C42",
"b+	c #B9AE86",
"c+	c #E8D9AD",
"d+	c #F1E7C0",
"e+	c #C3B58A",
"f+	c #D6B888",
"g+	c #FEFDFC",
"h+	c #FFFFFF",
"i+	c #B19770",
"j+	c #BFAC89",
"k+	c #87A79F",
"l+	c #BCB896",
"m+	c #DBC28E",
"n+	c #A58A6D",
"o+	c #294056",
"p+	c #405779",
"q+	c #39466A",
"r+	c #2E3957",
"s+	c #20273D",
"t+	c #343337",
"u+	c #7B755E",
"v+	c #222531",
"w+	c #181E32",
"x+	c #1C303C",
"y+	c #DBC09A",
"z+	c #FCFBF5",
"A+	c #A48C68",
"B+	c #D8BC89",
"C+	c #E6DCA4",
"D+	c #A6B29B",
"E+	c #BEAC89",
"F+	c #D4B583",
"G+	c #AA8F70",
"H+	c #B0966F",
"I+	c #285362",
"J+	c #3E8194",
"K+	c #3F6B86",
"L+	c #405076",
"M+	c #3F5779",
"N+	c #31596E",
"O+	c #313C5B",
"P+	c #5F4F4A",
"Q+	c #80695D",
"R+	c #5D4D4A",
"S+	c #2A5765",
"T+	c #52A5A4",
"U+	c #377075",
"V+	c #2B5356",
"W+	c #E1CE9B",
"X+	c #F2EDC6",
"Y+	c #71614D",
"Z+	c #DFCB96",
"`+	c #9ABBA5",
" @	c #4F9DA1",
".@	c #7E9C98",
"+@	c #7B7162",
"@@	c #A98F6B",
"#@	c #3E8094",
"$@	c #3E7A8F",
"%@	c #171E30",
"&@	c #232432",
"*@	c #BB9D78",
"=@	c #CDAE80",
"-@	c #6B5B54",
";@	c #3A7D8E",
">@	c #2A5866",
",@	c #42888D",
"'@	c #326364",
")@	c #D5B685",
"!@	c #F6F0E8",
"~@	c #FFFFFE",
"{@	c #262631",
"]@	c #B0966E",
"^@	c #A8A38D",
"/@	c #45919C",
"(@	c #325664",
"_@	c #866F5E",
":@	c #242F47",
"<@	c #355C73",
"[@	c #355D74",
"}@	c #243E50",
"|@	c #2D2B33",
"1@	c #D1B281",
"2@	c #B1966F",
"3@	c #345667",
"4@	c #315C70",
"5@	c #927D5E",
"6@	c #726351",
"7@	c #232531",
"8@	c #E0C9AB",
"9@	c #FFFEFE",
"0@	c #C9B086",
"a@	c #458798",
"b@	c #3B7E90",
"c@	c #69615E",
"d@	c #3D353A",
"e@	c #6F5F4C",
"f@	c #3F373D",
"g@	c #3C496E",
"h@	c #3D3945",
"i@	c #635549",
"j@	c #C0AC7F",
"k@	c #7F7C61",
"l@	c #6F5F4D",
"m@	c #EEE3D5",
"n@	c #AD946F",
"o@	c #45808F",
"p@	c #404850",
"q@	c #3A3239",
"r@	c #2D3755",
"s@	c #2A3451",
"t@	c #4E4243",
"u@	c #8D7365",
"v@	c #937C61",
"w@	c #8D7E64",
"x@	c #C6BB8F",
"y@	c #DFCE99",
"z@	c #E0CAAC",
"A@	c #FEFEFD",
"B@	c #222633",
"C@	c #253946",
"D@	c #5D4D49",
"E@	c #29324D",
"F@	c #253149",
"G@	c #2D425B",
"H@	c #282732",
"I@	c #947E5F",
"J@	c #C6A87A",
"K@	c #B39870",
"L@	c #A08F6C",
"M@	c #E4D59E",
"N@	c #DEC893",
"O@	c #D6B787",
"P@	c #F6F0E9",
"Q@	c #1E3847",
"R@	c #213F4E",
"S@	c #322E34",
"T@	c #C8AA7C",
"U@	c #D5B684",
"V@	c #E0CC96",
"W@	c #E4D2AF",
"X@	c #F2E9DF",
"Y@	c #CBB181",
"Z@	c #E0CAA1",
"`@	c #F2EADF",
" #	c #333236",
".#	c #AD9E77",
"+#	c #C6C091",
"@#	c #CCC9AE",
"##	c #E3E3E3",
"$#	c #F6F0EA",
"                                                                                                                                ",
"                                                                                                                                ",
"                                                                                                                                ",
"                                                                                                                                ",
"                                                                                                                                ",
"                                                                                                                                ",
"                                                                                                                                ",
"                                                                                                                                ",
"                                                                                                                                ",
"                                                                                                                                ",
"                                                                                                                                ",
"                                                                                                                                ",
"                                                                                                                                ",
"                                                                                                                                ",
"                                                                                                                                ",
"                                                                                                                                ",
"                                                                . + @ # $ %                                                     ",
"                                                              & * = - ; ; > ,                                                   ",
"                                                            ' ) ! ~ { ] ; { ^ /                                                 ",
"                                                          ( _ : < [ } | - 1 2 3                                                 ",
"                                                          4 5 6 7 8 9 0 a b c d                                                 ",
"                                                          e f g 7 8 h i j k l m                                                 ",
"                                                            h e n     o p q r                                                   ",
"                                                                  s t u v w x                                                   ",
"                                                                y z A B C D E F h                                               ",
"                                                              h G H I J K L M N O                                               ",
"                                                              P Q R S T U V W X Y Z                                             ",
"                                                              `  ...+.@.#.$.%.&.*.=.                                -.          ",
"                                                            h ;.>.,.,.'.).!.~.{.].^.                              /.(.          ",
"                                                  _.:.      h <.[.,.,.,.}.|.1.2.3.4.5.                        ,.  ,.6.          ",
"                                                  7.8.9.    h 0.a.b.c.d.e.f.g.h h.i.5.                        ,.  ,.6.j.        ",
"                                                  k.l.m.n.o.h p.q.r.s.t.u.v.w.x.y.z.A.                        ,.  ,.B.C.        ",
"                                                  D.! E.F.G.H.I.J.K.L.,.M.T N.O.P.Q.R.                        ,.  ,.S.T.        ",
"                                                  D.U.V.W.X.Y.Z.`. +r.,..+++@+#+$+%+&+                      ,.  ,.,.*+=+        ",
"                                                  D.-+;+>+,+'+)+!+~+{+]+^+/+(+_+:+<+                        ,.,.,.,.[+}+        ",
"                                                  |+1+2+3+4+5+6+7+8+9+0+a+b+c+d+e+                        ,.  ,.,.f+g+h+        ",
"                                                  i+j+k+l+m+5+n+7+o+p+q+r+s+t+u+v+w+h h     x+              ,.  ,.y+z+T.        ",
"                                                  A+B+C+D+E+F+G+H+I+J+K+L+M+N+x.4 O+P+Q+R+S+T+U+V+            ,.,.W+X+}+        ",
"                                                  Y+F+Z+`+ @.@+@@@I+! ! #@$@u h %@&@*@=@-@;@>@,@'@          ,.,.)@!@~@h+        ",
"                                                  {@]@,.^@/@! (@_@:@<@[@<@}@h h   |@1@2@3@4@5@6@7@        ,.,.,.8@9@h+h+        ",
"                                                    |@]@0@a@b@c@d@h h h h   h h   5.e@f@g@h@i@A+j@k@l@  ,.,.,.,.m@h+h+          ",
"                                                      |@n@o@p@q@            h h       r@s@t@u@v@w@x@y@B+,.,.,.z@A@h+h+          ",
"                                                        B@C@D@h             h h       E@F@G@H@I@J@K@L@M@N@5+O@P@h+h+h+          ",
"                                                          h                             Q@R@    S@I@T@U@V@W@X@h+h+h+h+          ",
"                                                                                                    S@I@Y@Z@`@~@h+h+h+          ",
"                                                                                                         #.#+#@###$#            ",
"                                                                                                                                ",
"                                                                                                                                ",
"                                                                                                                                ",
"                                                                                                                                ",
"                                                                                                                                ",
"                                                                                                                                ",
"                                                                                                                                ",
"                                                                                                                                ",
"                                                                                                                                ",
"                                                                                                                                ",
"                                                                                                                                ",
"                                                                                                                                ",
"                                                                                                                                ",
"                                                                                                                                ",
"                                                                                                                                ",
"                                                                                                                                ",
"                                                                                                                                ",
"                                                                                                                                "};
