/* XPM */
static char * ra6_xpm[] = {
"64 64 348 2",
"  	c None",
". 	c #2E6170",
"+ 	c #418489",
"@ 	c #4B9590",
"# 	c #458A87",
"$ 	c #397070",
"% 	c #2F5B5D",
"& 	c #161C2E",
"* 	c #295463",
"= 	c #428B99",
"- 	c #57AEAA",
"; 	c #52A7A6",
"> 	c #52A6A6",
", 	c #59B2AC",
"' 	c #52A5A1",
") 	c #34686B",
"! 	c #1F2A3F",
"~ 	c #3B7A8D",
"{ 	c #49979F",
"] 	c #59B2AB",
"^ 	c #59B1AA",
"/ 	c #54AAA8",
"( 	c #50A2A4",
"_ 	c #50A19F",
": 	c #55A8A3",
"< 	c #213F4B",
"[ 	c #2D4E62",
"} 	c #3E8295",
"| 	c #387788",
"1 	c #305F60",
"2 	c #1C2E39",
"3 	c #386F6E",
"4 	c #52A4A0",
"5 	c #48918F",
"6 	c #4B9591",
"7 	c #3E7D81",
"8 	c #35556F",
"9 	c #3E8496",
"0 	c #334B66",
"a 	c #364264",
"b 	c #323D5D",
"c 	c #171D2F",
"d 	c #2A4D5E",
"e 	c #4B969C",
"f 	c #387076",
"g 	c #365F74",
"h 	c #2D445C",
"i 	c #3F7089",
"j 	c #3F6682",
"k 	c #404E75",
"l 	c #354163",
"m 	c #171D30",
"n 	c #192536",
"o 	c #387083",
"p 	c #356377",
"q 	c #2A3952",
"r 	c #181F32",
"s 	c #29344F",
"t 	c #29334E",
"u 	c #202232",
"v 	c #42383C",
"w 	c #1F2A40",
"x 	c #305067",
"y 	c #31586C",
"z 	c #2E2E35",
"A 	c #202230",
"B 	c #B9A998",
"C 	c #BDB2AC",
"D 	c #A1A3AD",
"E 	c #9E9EA1",
"F 	c #A0A1A2",
"G 	c #ECE3D9",
"H 	c #96928E",
"I 	c #685650",
"J 	c #857863",
"K 	c #DFD1AA",
"L 	c #F4ECCC",
"M 	c #EFE3C6",
"N 	c #ECDFC2",
"O 	c #E7D5A4",
"P 	c #C3B388",
"Q 	c #847057",
"R 	c #1B1F2F",
"S 	c #866E61",
"T 	c #C7AC82",
"U 	c #ECDCA7",
"V 	c #F1E4B6",
"W 	c #F4EBCA",
"X 	c #F9F5E5",
"Y 	c #FAF5E7",
"Z 	c #EBDCB9",
"` 	c #C2A87C",
" .	c #4F4242",
"..	c #997D6B",
"+.	c #D3B382",
"@.	c #E6D39E",
"#.	c #EFE1AC",
"$.	c #EFE2AE",
"%.	c #F1E5BA",
"&.	c #E0DCD1",
"*.	c #D0C3A8",
"=.	c #EADAA5",
"-.	c #786953",
";.	c #5E4E4A",
">.	c #A88B71",
",.	c #D5B583",
"'.	c #D6B684",
").	c #E7D39F",
"!.	c #EFE0AA",
"~.	c #D2CEC4",
"{.	c #71614E",
"].	c #E7D6B3",
"^.	c #968D70",
"/.	c #242431",
"(.	c #7E675C",
"_.	c #B69876",
":.	c #E4D09C",
"<.	c #F4EBCB",
"[.	c #D1CEC3",
"}.	c #272731",
"|.	c #CCB284",
"1.	c #D1C5AA",
"2.	c #917B5D",
"3.	c #786751",
"4.	c #695750",
"5.	c #A98D70",
"6.	c #CAAB7F",
"7.	c #C1A478",
"8.	c #B29870",
"9.	c #C1B187",
"0.	c #CBC2A1",
"a.	c #9D9D9F",
"b.	c #6E5F4D",
"c.	c #7A745D",
"d.	c #172031",
"e.	c #2B3D48",
"f.	c #AE946D",
"g.	c #867358",
"h.	c #171D2E",
"i.	c #4D4142",
"j.	c #D6B987",
"k.	c #B9AD85",
"l.	c #7D775F",
"m.	c #323237",
"n.	c #2C2E38",
"o.	c #50463F",
"p.	c #B5AA8E",
"q.	c #192838",
"r.	c #3D8394",
"s.	c #3A6B79",
"t.	c #A39072",
"u.	c #8C755E",
"v.	c #463D3D",
"w.	c #7F695A",
"x.	c #AE9173",
"y.	c #CFAF80",
"z.	c #D9BB89",
"A.	c #E8D7A2",
"B.	c #EEE2B6",
"C.	c #ECEAE4",
"D.	c #2E313C",
"E.	c #A7906E",
"F.	c #EFE3BD",
"G.	c #938B6D",
"H.	c #A08A67",
"I.	c #B6AA9B",
"J.	c #E5D2BA",
"K.	c #DDC7A8",
"L.	c #D3B482",
"M.	c #3D8496",
"N.	c #3E8698",
"O.	c #748A8C",
"P.	c #B29672",
"Q.	c #B0966F",
"R.	c #B4A279",
"S.	c #998D6E",
"T.	c #9A8968",
"U.	c #C9AB7C",
"V.	c #DCC18E",
"W.	c #EFE1AB",
"X.	c #F3ECD2",
"Y.	c #454246",
"Z.	c #E0CBA2",
"`.	c #EDE0B4",
" +	c #796E58",
".+	c #383A3E",
"++	c #D5CBBE",
"@+	c #F1ECD4",
"#+	c #FDFCFA",
"$+	c #F5F2DE",
"%+	c #727273",
"&+	c #46929D",
"*+	c #8C9E95",
"=+	c #D3B483",
"-+	c #7A6A53",
";+	c #AFA37B",
">+	c #887B5F",
",+	c #B0966E",
"'+	c #EEE0AA",
")+	c #F0E4B8",
"!+	c #DFDBD5",
"~+	c #ECDCA9",
"{+	c #D1C294",
"]+	c #292A33",
"^+	c #172233",
"/+	c #1A2A37",
"(+	c #373839",
"_+	c #A5A17B",
":+	c #DFD8A3",
"<+	c #ECE2BC",
"[+	c #E4D1B6",
"}+	c #DDC595",
"|+	c #A7A27C",
"1+	c #428C9A",
"2+	c #8DBBA9",
"3+	c #E8DEA6",
"4+	c #D8BB88",
"5+	c #D2B281",
"6+	c #908667",
"7+	c #847258",
"8+	c #2D2B33",
"9+	c #947F60",
"0+	c #E0D3A1",
"a+	c #F0E4B7",
"b+	c #F3E9C4",
"c+	c #D9C796",
"d+	c #574D44",
"e+	c #336465",
"f+	c #3B797F",
"g+	c #4B9693",
"h+	c #192735",
"i+	c #333236",
"j+	c #D1CA98",
"k+	c #D2C996",
"l+	c #D9BD8A",
"m+	c #D4B583",
"n+	c #B1976F",
"o+	c #8D8466",
"p+	c #2E2E36",
"q+	c #969B8E",
"r+	c #488897",
"s+	c #569EA1",
"t+	c #DECC98",
"u+	c #E0CC96",
"v+	c #967F63",
"w+	c #837056",
"x+	c #242D46",
"y+	c #1F273D",
"z+	c #303036",
"A+	c #8A7C61",
"B+	c #B7AD85",
"C+	c #605E57",
"D+	c #344162",
"E+	c #36717B",
"F+	c #3D7E86",
"G+	c #304D58",
"H+	c #947E5F",
"I+	c #BEA77B",
"J+	c #B7AC85",
"K+	c #998365",
"L+	c #C8AA7C",
"M+	c #BDA075",
"N+	c #73624E",
"O+	c #252631",
"P+	c #353135",
"Q+	c #D2B382",
"R+	c #D0BD91",
"S+	c #A1BBA5",
"T+	c #D2B585",
"U+	c #D5B684",
"V+	c #D4B482",
"W+	c #AA8F70",
"X+	c #355D74",
"Y+	c #3F5779",
"Z+	c #394669",
"`+	c #252E47",
" @	c #1F273E",
".@	c #3B6D84",
"+@	c #39506F",
"@@	c #171E30",
"#@	c #3C343A",
"$@	c #40525C",
"%@	c #377687",
"&@	c #6C5D4C",
"*@	c #5C4E47",
"=@	c #BC9F75",
"-@	c #BCA075",
";@	c #BEA176",
">@	c #DDC692",
",@	c #E7DFA7",
"'@	c #71A09D",
")@	c #A9A48D",
"!@	c #D0B282",
"~@	c #A58A6C",
"{@	c #347081",
"]@	c #3E8597",
"^@	c #3F718A",
"/@	c #405176",
"(@	c #3F6582",
"_@	c #987D69",
":@	c #8A745F",
"<@	c #346277",
"[@	c #252F48",
"}@	c #725D55",
"|@	c #866F5E",
"1@	c #71614D",
"2@	c #D8C18E",
"3@	c #5CA7A5",
"4@	c #4B9AA1",
"5@	c #628C94",
"6@	c #716053",
"7@	c #806E55",
"8@	c #356478",
"9@	c #3E8497",
"0@	c #3B7388",
"a@	c #1F2B40",
"b@	c #5C4D4A",
"c@	c #C3A47B",
"d@	c #313649",
"e@	c #394569",
"f@	c #202333",
"g@	c #21273B",
"h@	c #8A9892",
"i@	c #3E8798",
"j@	c #695953",
"k@	c #504343",
"l@	c #293650",
"m@	c #293751",
"n@	c #182133",
"o@	c #292F46",
"p@	c #9D8565",
"q@	c #CFB080",
"r@	c #433B3D",
"s@	c #384568",
"t@	c #252E48",
"u@	c #2D4D61",
"v@	c #B3A78B",
"w@	c #435E69",
"x@	c #5B4C49",
"y@	c #181D2E",
"z@	c #2F2C33",
"A@	c #172132",
"B@	c #858476",
"C@	c #445F69",
"D@	c #4C4041",
"E@	c #171C2E",
"F@	c #383138",
"G@	c #232331",
"                                                                                                                                ",
"                                                                                                                                ",
"                                                                                                                                ",
"                                                                                                                                ",
"                                                                                                                                ",
"                                                                                                                                ",
"                                                                                                                                ",
"                                                                                                                                ",
"                                                                                                                                ",
"                                                                                                                                ",
"                                                                                                                                ",
"                                                                                                                                ",
"                                                                                                                                ",
"                                                                                                                                ",
"                                                                                                                                ",
"                                                                                                                                ",
"                                                      . + @ # $ %                                                               ",
"                                                  & * = - ; > , ' )                                                             ",
"                                                  ! ~ { ] ^ / ( _ : <                                                           ",
"                                                & [ } | 1 2 3 4 5 6 7                                                           ",
"                                                & 8 9 0 a b c d e f g                                                           ",
"                                                  h i j k l m n o p q                                                           ",
"                                                  r s s t u v w x y z                                                           ",
"                                                        A B C D E F G H &                                                       ",
"                                                      & I J K L M N O P Q                                                       ",
"                                                      R S T U V W X Y Z `                                                       ",
"                                                       ...+.@.#.$.%.&.*.=.-.                                                    ",
"                                                    & ;.>.,.'.).!.L ~.{.].^.                                                    ",
"                                              /.    & (._.,.,.,.:.<.[.}.|.1.                                                    ",
"                                            & 2.3.  & 4.5.6.7.8.9.0.a.& b.c.&                                                   ",
"                                            d.e.f.g.h.i...+.j.k.l.m.n.& o.p.m.                                                  ",
"                                            q.r.s.t.u.v.w.x.y.z.A.B.C.D.E.F.G.                        H.I.J.K.L.                ",
"                                            q.M.N.O.P.Q.R.S.T.U.V.W.X.Y.Z.`. +                    .+++@+#+$+%+                  ",
"                                            q.M.&+*+=+8.-+;+>+,+'.'+)+!+~+{+]+      ^+/+      (+_+:+<+[+}+|+                    ",
"                                            q.M.1+2+3+4+5+6+7+8+9+0+a+b+c+d+&     e+f+g+h+i+_+j+k+l+m+n+o+                      ",
"                                            p+q+r+s+t+u++.v+w+x+y+z+A+B+C+D+m     E+F+G+H+I+J+K+L+M+N+O+                        ",
"                                            P+Q+R+S+T+U+V+W+w+X+Y+Z+`+ @.@+@@@& #@$@%@&@H+*@=@-@N+O+                            ",
"                                            /.;@>@,@'@)@!@~@w+{@]@^@/@(@.@ @  #@_@:@<@[@}@|@1@O+                                ",
"                                              H+,.2@3@4@5@6@7@8@9@]@9 0@a@& y+b@c@L+d@e@f@g@                                    ",
"                                              8+,+,.h@i@M.j@k@x+l@m@l@n@&   t o@p@q@r@s@t@u@                                    ",
"                                                8+,+v@]@w@x@& &     & & &       y@z@y@ @`+A@                                    ",
"                                                  8+B@C@D@E@& &       & &                                                       ",
"                                                    d.F@G@& &         & &                                                       ",
"                                                                                                                                ",
"                                                                                                                                ",
"                                                                                                                                ",
"                                                                                                                                ",
"                                                                                                                                ",
"                                                                                                                                ",
"                                                                                                                                ",
"                                                                                                                                ",
"                                                                                                                                ",
"                                                                                                                                ",
"                                                                                                                                ",
"                                                                                                                                ",
"                                                                                                                                ",
"                                                                                                                                ",
"                                                                                                                                ",
"                                                                                                                                ",
"                                                                                                                                ",
"                                                                                                                                ",
"                                                                                                                                ",
"                                                                                                                                ",
"                                                                                                                                "};
