/* XPM */
static char * ua1_xpm[] = {
"64 64 336 2",
"  	c None",
". 	c #1A2B37",
"+ 	c #1D303B",
"@ 	c #1C303A",
"# 	c #161D2E",
"$ 	c #192835",
"% 	c #458986",
"& 	c #4F9D98",
"* 	c #4A9490",
"= 	c #59B0A9",
"- 	c #4B9691",
"; 	c #274B4F",
"> 	c #161C2E",
", 	c #182433",
"' 	c #59B1AA",
") 	c #2A5255",
"! 	c #55A9A2",
"~ 	c #57AFAA",
"{ 	c #4C9CA1",
"] 	c #458F96",
"^ 	c #1F2C3F",
"/ 	c #264B58",
"( 	c #59B2AB",
"_ 	c #52A5A5",
": 	c #48918F",
"< 	c #5AB3AC",
"[ 	c #38798A",
"} 	c #3D8496",
"| 	c #3B5B78",
"1 	c #192033",
"2 	c #377075",
"3 	c #57AEAA",
"4 	c #4A98A0",
"5 	c #59B2AC",
"6 	c #428D9B",
"7 	c #387788",
"8 	c #316979",
"9 	c #3B6981",
"0 	c #181F32",
"a 	c #458A87",
"b 	c #50A3A4",
"c 	c #58AFAA",
"d 	c #45929D",
"e 	c #2A5666",
"f 	c #2D5E6E",
"g 	c #254A58",
"h 	c #51A4A4",
"i 	c #57AEA9",
"j 	c #428C9B",
"k 	c #316878",
"l 	c #385E77",
"m 	c #244857",
"n 	c #387988",
"o 	c #3E8697",
"p 	c #3E8596",
"q 	c #2B3752",
"r 	c #354B68",
"s 	c #172132",
"t 	c #182031",
"u 	c #2B313A",
"v 	c #1A2638",
"w 	c #2E3856",
"x 	c #3C496E",
"y 	c #2F3341",
"z 	c #181D2E",
"A 	c #807963",
"B 	c #E0D5AD",
"C 	c #9A9585",
"D 	c #666564",
"E 	c #827C6B",
"F 	c #DDD0A0",
"G 	c #615C4E",
"H 	c #171C2E",
"I 	c #5D4D49",
"J 	c #6D5B54",
"K 	c #B4B3B2",
"L 	c #D9D9D6",
"M 	c #F7F2E4",
"N 	c #F8F3EA",
"O 	c #D3C2A7",
"P 	c #876F61",
"Q 	c #212231",
"R 	c #8E7466",
"S 	c #BD9F79",
"T 	c #D9BF8D",
"U 	c #ECDEA9",
"V 	c #EFE2AE",
"W 	c #EFE1AC",
"X 	c #D9BB89",
"Y 	c #B69876",
"Z 	c #866E61",
"` 	c #524544",
" .	c #AF9274",
"..	c #D4B482",
"+.	c #E7D4A0",
"@.	c #F8F2DE",
"#.	c #FAF6E7",
"$.	c #F6EFD5",
"%.	c #E1CA96",
"&.	c #D3B382",
"*.	c #997D6C",
"=.	c #514343",
"-.	c #222430",
";.	c #7D675B",
">.	c #D0B181",
",.	c #E4CF9A",
"'.	c #F2E8C3",
").	c #FDFBF6",
"!.	c #F3E8C3",
"~.	c #ECDCA6",
"{.	c #D5B583",
"].	c #A78B71",
"^.	c #7E675C",
"/.	c #6B5C4B",
"(.	c #937E5F",
"_.	c #1F2130",
":.	c #B59876",
"<.	c #DEC592",
"[.	c #EBDBB8",
"}.	c #F0E5C8",
"|.	c #EEE0AA",
"1.	c #D1B282",
"2.	c #C2A47B",
"3.	c #202130",
"4.	c #877358",
"5.	c #AE946D",
"6.	c #2A2932",
"7.	c #232331",
"8.	c #95796A",
"9.	c #C3A57C",
"0.	c #FAF5E7",
"a.	c #D6B785",
"b.	c #C3A47B",
"c.	c #8E7465",
"d.	c #292733",
"e.	c #846C5F",
"f.	c #967E63",
"g.	c #A18869",
"h.	c #574A45",
"i.	c #252631",
"j.	c #947969",
"k.	c #BEA079",
"l.	c #F1E5B7",
"m.	c #F4ECCC",
"n.	c #F1E4B6",
"o.	c #E4CF9B",
"p.	c #D7BA88",
"q.	c #897062",
"r.	c #2C2934",
"s.	c #967A6B",
"t.	c #A1866D",
"u.	c #B0956F",
"v.	c #B5A279",
"w.	c #9B8B69",
"x.	c #918D6D",
"y.	c #796358",
"z.	c #C7A87D",
"A.	c #D6B685",
"B.	c #F0E4B8",
"C.	c #FEFEFD",
"D.	c #E5D19F",
"E.	c #D8BB89",
"F.	c #CEAE80",
"G.	c #9D816D",
"H.	c #42393D",
"I.	c #957A6A",
"J.	c #977B6B",
"K.	c #6E5C53",
"L.	c #807B61",
"M.	c #B7A67B",
"N.	c #1E3746",
"O.	c #1F293F",
"P.	c #29334F",
"Q.	c #1C1F2F",
"R.	c #856D60",
"S.	c #987C6B",
"T.	c #AB8F73",
"U.	c #E6D39F",
"V.	c #F4EBCC",
"W.	c #FAF5E6",
"X.	c #EFE2AD",
"Y.	c #EADAA5",
"Z.	c #CAAC7F",
"`.	c #B79977",
" +	c #866D60",
".+	c #5E4E4A",
"++	c #64554D",
"@+	c #1F3646",
"#+	c #313D5C",
"$+	c #384568",
"%+	c #1D2234",
"&+	c #9B8464",
"*+	c #574B41",
"=+	c #3E353B",
"-+	c #BB9D78",
";+	c #E2CC98",
">+	c #E1CB97",
",+	c #C4A67D",
"'+	c #977D69",
")+	c #3D353A",
"!+	c #7D665C",
"~+	c #7A6459",
"{+	c #AF956E",
"]+	c #343035",
"^+	c #4F4343",
"/+	c #4C4143",
"(+	c #364264",
"_+	c #383D51",
":+	c #D1B281",
"<+	c #BDA077",
"[+	c #50464C",
"}+	c #313C5B",
"|+	c #171D2F",
"1+	c #C1A37A",
"2+	c #D9BE8C",
"3+	c #D6B988",
"4+	c #DDC694",
"5+	c #9A806B",
"6+	c #685650",
"7+	c #282B3E",
"8+	c #242D46",
"9+	c #735F56",
"0+	c #927868",
"a+	c #B0966E",
"b+	c #2D2B33",
"c+	c #71614E",
"d+	c #967F60",
"e+	c #B2976F",
"f+	c #C4A679",
"g+	c #766157",
"h+	c #463C3D",
"i+	c #2A3852",
"j+	c #2D5C6C",
"k+	c #A48B6A",
"l+	c #AE9173",
"m+	c #4F4242",
"n+	c #181E31",
"o+	c #232C44",
"p+	c #2A3450",
"q+	c #282F47",
"r+	c #2B2A36",
"s+	c #2E2D36",
"t+	c #2B3148",
"u+	c #324964",
"v+	c #3C5C79",
"w+	c #39466A",
"x+	c #262633",
"y+	c #B0966F",
"z+	c #847F64",
"A+	c #867358",
"B+	c #B1976F",
"C+	c #C8AA7C",
"D+	c #D4B583",
"E+	c #B79D73",
"F+	c #917C63",
"G+	c #918768",
"H+	c #C3A679",
"I+	c #2C3F4A",
"J+	c #377687",
"K+	c #685751",
"L+	c #504343",
"M+	c #3C4A6F",
"N+	c #405076",
"O+	c #3F5D7D",
"P+	c #3F4F75",
"Q+	c #3F5F7E",
"R+	c #3E8094",
"S+	c #3E8597",
"T+	c #292C3F",
"U+	c #957969",
"V+	c #62514C",
"W+	c #A08768",
"X+	c #969272",
"Y+	c #E2D29F",
"Z+	c #E0C9AB",
"`+	c #E0CBA1",
" @	c #E3D39E",
".@	c #E9DFA7",
"+@	c #E6E0A7",
"@@	c #C5BF90",
"#@	c #A29A75",
"$@	c #5B4F43",
"%@	c #345762",
"&@	c #2A5865",
"*@	c #47949C",
"=@	c #192636",
"-@	c #1F273E",
";@	c #3F5679",
">@	c #3F6B86",
",@	c #3E7B91",
"'@	c #3E8698",
")@	c #3E6A84",
"!@	c #20283E",
"~@	c #5F4F4B",
"{@	c #967A6A",
"]@	c #6B5851",
"^@	c #735E55",
"/@	c #C6BBAD",
"(@	c #EFEDE7",
"_@	c #FDFCFB",
":@	c #F7F4E6",
"<@	c #F0E9D7",
"[@	c #A9A496",
"}@	c #7E7B61",
"|@	c #393A3A",
"1@	c #386F6E",
"2@	c #3A767C",
"3@	c #3F7E7D",
"4@	c #232C45",
"5@	c #394669",
"6@	c #405D7D",
"7@	c #3F778D",
"8@	c #3E7F93",
"9@	c #2A3752",
"0@	c #7D675C",
"a@	c #67554F",
"b@	c #222331",
"c@	c #D6B786",
"d@	c #D8BA8E",
"e@	c #B4AEA7",
"f@	c #A38D6C",
"g@	c #C4A77C",
"h@	c #172031",
"i@	c #20283F",
"j@	c #3F4D73",
"k@	c #405F7F",
"l@	c #3F778E",
"m@	c #3E8497",
"n@	c #3E7089",
"o@	c #7D665B",
"p@	c #1D1F2F",
"q@	c #1F273D",
"r@	c #293650",
"s@	c #293751",
"t@	c #293550",
"u@	c #453B3E",
"                                                                                                                                ",
"                                                                                                                                ",
"                                                                                                                                ",
"                                                                                                                                ",
"                                                                                                                                ",
"                                                                                                                                ",
"                                                                                                                                ",
"                                                                                                                                ",
"                                                                                                                                ",
"                                                                                                                                ",
"                                                                                                                                ",
"                                                                                                                                ",
"                                                          . + @ #                                                               ",
"                                                      $ % & * = - ; >                                                           ",
"                                                    , * ' ) ! ~ { ] ^                                                           ",
"                                                    / ( _ : < { [ } | 1                                                         ",
"                                                    2 3 4 3 5 6 7 8 9 0                                                         ",
"                                                    a < b 5 c d } e f >                                                         ",
"                                                    g h ( ( i j k l m                                                           ",
"                                                    > g n o p f q r s                                                           ",
"                                                        t u v w x y z                                                           ",
"                                                      > A B C D E F G H                                                         ",
"                                                      I J K L M N O P I                                                         ",
"                                                    Q R S T U V W X Y Z Q                                                       ",
"                                                    `  ...+.@.#.$.%.&.*.=.-.                                                    ",
"                                                  > ;.Y >.,.'.).!.~.{.].^./.(.                                                  ",
"                                                  _.Z :.<.[.}.).$.|.1.2.P 3.4.5.6.                                              ",
"                                                  7.8.9.<.!.0.#.!.|.a.b.c.d.e.f.g.h.i.                                          ",
"                                                  7.j.k.<.l.m.n.|.o.p.Y q.r.8.s.t.u.v.w.x.                                      ",
"                                                  H y.z.A.B.C.0.D.o.E.F.G.H.I.J.s.Z K.L.M.>                                     ",
"                                  N.O.P.>         Q.R.S.T.U.V.W.X.Y.Z.`. +.+J.J.J.J.J.++v.>                                     ",
"                                  @+#+$+%+&+*+>     =+R -+{.;+|.>+,+].'+)+!+J.J.J.J.J.~+{+>                                     ",
"                              z ]+^+/+(+_+:+<+[+}+  |+)+Z 1+2+3+4+5+6+7+8+9+J.J.J.J.J.0+a+>                                     ",
"                        b+c+d+e+f+g+h+i+j+k+l+m+n+  o+p+q+r+s+s+s+t+u+v+w+x+I.J.J.J.J.q.y+>                                     ",
"                  z+A+B+C+D+E+F+G+a+H+I+J+K+L+H     0 M+N+O+P+P+P+Q+R+S+Q+T+U+J.J.J.J.V+W+>                                     ",
"                X+Y+Z+`+ @.@+@@@#@$@%@&@*@=@        -@;@>@,@S+S+S+'@'@'@)@!@~@{@J.J.J.]@^@>                                     ",
"              /@(@_@:@<@[@}@|@      1@2@3@          4@5@6@7@'@'@'@'@'@8@9@> > ~@{@J.0@a@b@                                      ",
"              c@d@e@f@g@              h@            > i@j@k@l@m@S+R+n@i+> > >   ~@o@I p@                                        ",
"                                                      > q@P.P.r@s@t@q@>   > >     _.u@                                          ",
"                                                          > >                                                                   ",
"                                                          > >                                                                   ",
"                                                          > >                                                                   ",
"                                                          > >                                                                   ",
"                                                                                                                                ",
"                                                                                                                                ",
"                                                                                                                                ",
"                                                                                                                                ",
"                                                                                                                                ",
"                                                                                                                                ",
"                                                                                                                                ",
"                                                                                                                                ",
"                                                                                                                                ",
"                                                                                                                                ",
"                                                                                                                                ",
"                                                                                                                                ",
"                                                                                                                                ",
"                                                                                                                                ",
"                                                                                                                                ",
"                                                                                                                                ",
"                                                                                                                                ",
"                                                                                                                                ",
"                                                                                                                                ",
"                                                                                                                                ",
"                                                                                                                                "};
