/* XPM */
static char * ua3_xpm[] = {
"64 64 316 2",
"  	c None",
". 	c #284C50",
"+ 	c #3F7D7B",
"@ 	c #407F7C",
"# 	c #4B9590",
"$ 	c #26494D",
"% 	c #294E52",
"& 	c #55A8A2",
"* 	c #5AB3AC",
"= 	c #57AEAA",
"- 	c #4C9A9C",
"; 	c #25464D",
"> 	c #161C2E",
", 	c #172032",
"' 	c #4D9A97",
") 	c #5AB2AC",
"! 	c #387277",
"~ 	c #55A9A3",
"{ 	c #3F8798",
"] 	c #3B8091",
"^ 	c #39677D",
"/ 	c #242D46",
"( 	c #1A2938",
"_ 	c #4FA1A2",
": 	c #54AAA8",
"< 	c #4C9CA1",
"[ 	c #4FA1A3",
"} 	c #3D8496",
"| 	c #2E6170",
"1 	c #3F778E",
"2 	c #29334F",
"3 	c #376D6D",
"4 	c #52A6A6",
"5 	c #49979F",
"6 	c #3E8698",
"7 	c #295665",
"8 	c #3A7C8D",
"9 	c #182234",
"0 	c #1B2C39",
"a 	c #51A3A3",
"b 	c #58AFAA",
"c 	c #2A465B",
"d 	c #346E7F",
"e 	c #2A5664",
"f 	c #469097",
"g 	c #295564",
"h 	c #384769",
"i 	c #244757",
"j 	c #182535",
"k 	c #285261",
"l 	c #285362",
"m 	c #1F3949",
"n 	c #364264",
"o 	c #323E5E",
"p 	c #585449",
"q 	c #B6AC86",
"r 	c #67645E",
"s 	c #404965",
"t 	c #38415E",
"u 	c #958D6F",
"v 	c #92896C",
"w 	c #202130",
"x 	c #514544",
"y 	c #B3B1AA",
"z 	c #F4F0E2",
"A 	c #E8E2CD",
"B 	c #DDD9C9",
"C 	c #F1E8D0",
"D 	c #837561",
"E 	c #5D4D49",
"F 	c #171C2E",
"G 	c #685650",
"H 	c #A0836E",
"I 	c #B79C74",
"J 	c #C9BB91",
"K 	c #E8DFBC",
"L 	c #F4EBCB",
"M 	c #DDC392",
"N 	c #BD9F79",
"O 	c #8E7466",
"P 	c #3C343A",
"Q 	c #1C1F2F",
"R 	c #886F61",
"S 	c #DBC08E",
"T 	c #F2E7C1",
"U 	c #F4ECCC",
"V 	c #E7D4A0",
"W 	c #D4B483",
"X 	c #A88B71",
"Y 	c #695750",
"Z 	c #544941",
"` 	c #4F4343",
" .	c #B59776",
"..	c #D3B382",
"+.	c #E1CA96",
"@.	c #F3E8C3",
"#.	c #FDFCF7",
"$.	c #FBF8EE",
"%.	c #EFE0AB",
"&.	c #D9BB89",
"*.	c #BC9E79",
"=.	c #212231",
"-.	c #816F56",
";.	c #A38B67",
">.	c #302D33",
",.	c #5E4E4A",
"'.	c #997D6B",
").	c #CCB083",
"!.	c #DFC694",
"~.	c #E5D19F",
"{.	c #F9F5E7",
"].	c #F5ECCF",
"^.	c #EFE1AC",
"/.	c #DEC592",
"(.	c #B79977",
"_.	c #9E826D",
":.	c #4E4142",
"<.	c #67554F",
"[.	c #887459",
"}.	c #AE946D",
"|.	c #2F2D33",
"1.	c #7E675C",
"2.	c #AE9173",
"3.	c #D6B785",
"4.	c #F2E7C0",
"5.	c #FDFBF4",
"6.	c #FEFEFD",
"7.	c #A1866D",
"8.	c #3D353A",
"9.	c #232331",
"0.	c #95796A",
"a.	c #947C64",
"b.	c #A78C6E",
"c.	c #8B765C",
"d.	c #373336",
"e.	c #D6B684",
"f.	c #EEE0AA",
"g.	c #F0E2B0",
"h.	c #F0E3B0",
"i.	c #EFE2AD",
"j.	c #BEA07A",
"k.	c #977B6B",
"l.	c #5B4C49",
"m.	c #987C6B",
"n.	c #9F856A",
"o.	c #88745A",
"p.	c #B5A37A",
"q.	c #C1B88A",
"r.	c #7B785F",
"s.	c #B59876",
"t.	c #D5B583",
"u.	c #EAD8A5",
"v.	c #FAF5E6",
"w.	c #EBDCB0",
"x.	c #DCC28F",
"y.	c #DBC08D",
"z.	c #AF9372",
"A.	c #745F56",
"B.	c #8D7F62",
"C.	c #847258",
"D.	c #997D6C",
"E.	c #E1CF9D",
"F.	c #F4EBCD",
"G.	c #EFE0AA",
"H.	c #D9C090",
"I.	c #C8A97E",
"J.	c #252532",
"K.	c #957A6A",
"L.	c #8B7C60",
"M.	c #837157",
"N.	c #A78A71",
"O.	c #D0B181",
"P.	c #DEC692",
"Q.	c #EDDEAA",
"R.	c #EAD9A5",
"S.	c #E0C996",
"T.	c #B19475",
"U.	c #7E675B",
"V.	c #272632",
"W.	c #9B8266",
"X.	c #837056",
"Y.	c #8F7566",
"Z.	c #E4CF9B",
"`.	c #E1C996",
" +	c #C9B086",
".+	c #202333",
"++	c #957969",
"@+	c #1E253B",
"#+	c #242535",
"$+	c #6A5A4E",
"%+	c #847157",
"&+	c #6B5B4F",
"*+	c #292C3F",
"=+	c #2E3957",
"-+	c #3E4C72",
";+	c #1F273D",
">+	c #957E63",
",+	c #28324D",
"'+	c #181E31",
")+	c #252531",
"!+	c #292832",
"~+	c #2E3856",
"{+	c #3C496E",
"]+	c #364265",
"^+	c #364465",
"/+	c #364565",
"(+	c #39496B",
"_+	c #3F587A",
":+	c #3F768D",
"<+	c #405F7F",
"[+	c #514443",
"}+	c #967A6A",
"|+	c #64534C",
"1+	c #766452",
"2+	c #182434",
"3+	c #304E65",
"4+	c #2F3958",
"5+	c #8A755B",
"6+	c #C8AA7C",
"7+	c #796653",
"8+	c #2D3855",
"9+	c #1E263C",
"0+	c #1F273E",
"a+	c #3F4E74",
"b+	c #405177",
"c+	c #3E8093",
"d+	c #3E8597",
"e+	c #3C627D",
"f+	c #5F4F4B",
"g+	c #735F56",
"h+	c #3F363B",
"i+	c #252A3E",
"j+	c #23293E",
"k+	c #70604E",
"l+	c #D4B482",
"m+	c #AC9072",
"n+	c #282B3D",
"o+	c #181F32",
"p+	c #3F5679",
"q+	c #3F6B86",
"r+	c #3E7C91",
"s+	c #385974",
"t+	c #171D2F",
"u+	c #514444",
"v+	c #322E34",
"w+	c #826F56",
"x+	c #8C7264",
"y+	c #4D4142",
"z+	c #324964",
"A+	c #315663",
"B+	c #A68B6E",
"C+	c #7E685C",
"D+	c #1B1F2F",
"E+	c #232C45",
"F+	c #394669",
"G+	c #405D7D",
"H+	c #3F778D",
"I+	c #3B7085",
"J+	c #1F283E",
"K+	c #5D4D4A",
"L+	c #947E5F",
"M+	c #C6A87A",
"N+	c #9F8666",
"O+	c #66564A",
"P+	c #A18966",
"Q+	c #2C3E49",
"R+	c #3A7D8E",
"S+	c #4D4344",
"T+	c #1F2130",
"U+	c #20283F",
"V+	c #3F4D73",
"W+	c #3E7B91",
"X+	c #386C80",
"Y+	c #1E3646",
"Z+	c #BDA176",
"`+	c #958569",
" @	c #BEB287",
".@	c #BA9F74",
"+@	c #726351",
"@@	c #254957",
"#@	c #48959D",
"$@	c #27505E",
"%@	c #29344F",
"&@	c #293751",
"*@	c #252F48",
"=@	c #696754",
"-@	c #8A7C5F",
";@	c #C8AA7B",
">@	c #D5B684",
",@	c #DDC792",
"'@	c #C8C292",
")@	c #D0C997",
"!@	c #7F7C62",
"~@	c #2D595F",
"{@	c #448886",
"]@	c #458D90",
"^@	c #1C303C",
"/@	c #343638",
"(@	c #CFC696",
"_@	c #DCC29C",
":@	c #E5D4B2",
"<@	c #EDE5BD",
"[@	c #D2CC99",
"}@	c #807D62",
"|@	c #292B33",
"1@	c #1A2A37",
"2@	c #AEAD9F",
"3@	c #FBF9EE",
"4@	c #FAF9F4",
"5@	c #EFE7D0",
"6@	c #A9A096",
"7@	c #D3B484",
"8@	c #E3D0B7",
"9@	c #E4D2BA",
"0@	c #89827A",
"a@	c #C2A579",
"                                                                                                                                ",
"                                                                                                                                ",
"                                                                                                                                ",
"                                                                                                                                ",
"                                                                                                                                ",
"                                                                                                                                ",
"                                                                                                                                ",
"                                                                                                                                ",
"                                                                                                                                ",
"                                                                                                                                ",
"                                                                                                                                ",
"                                                                                                                                ",
"                                                      . + @ # + $                                                               ",
"                                                    % & # @ * = - ; >                                                           ",
"                                                  , ' ) ! ~ = { ] ^ /                                                           ",
"                                                  ( _ : < * [ } | 1 2                                                           ",
"                                                  3 ) : 4 * 5 6 7 8 9                                                           ",
"                                                  0 a * b * [ } c d >                                                           ",
"                                                    e f 5 5 ] g h i                                                             ",
"                                                    > j k l m n o >                                                             ",
"                                                      p q r s t u v >                                                           ",
"                                                    w x y z A B C D E F                                                         ",
"                                                    G H I J K L M N O P                                                         ",
"                                                  Q R N S T U L V W X Y   > Z                                                   ",
"                                                  `  ...+.@.#.$.%.&.*.O =.> -.;.>.                                              ",
"                                                > ,.'.).!.~.{.].^./.(._.:.w <.[.}.|.                                            ",
"                                                > 1.2.3.4.5.6.$.^./.W 7.8.9.0.O a.b.c.d.                                        ",
"                                                > 1.2.e.f.g.h.i.f./.j.k.l.9.0.k.m.n.o.p.q.r.                                    ",
"                                                > ,.s.t.u.5.v.w.x.y.W z.,.9.0.k.k.k.0.A.B.C.                                    ",
"                                                  Y D.s.E.F.6.L G.H.I.'.` J.0.k.k.k.k.K.L.M.                                    ",
"                                                  P O N.O.P.Q.R.S.T.*.U.Q V.0.k.k.k.k.k.W.X.                                    ",
"                                                    8.Y.*.y.Z.`. +Y.G .+> V.++k.k.k.k.k.2.X.                                    ",
"                                                    @+#+$+X.X.%+&+*+=+-+;+F 1.k.k.k.k.K.>+X.                                    ",
"                                  , ,+'+)+!+      > ~+{+]+^+/+/+(+_+:+<+=+> [+}+k.k.k.0.|+1+                                    ",
"                                2+3+4+~+5+6+7+8+9+> 0+a+b+c+d+d+d+d+6 d+e+'+  f+}+k.k.O g+h+                                    ",
"                                  i+j+{+k+l+m+n+o+> 0+p+q+r+6 6 6 6 6 d+s+t+    f+}+O u+h+                                      ",
"                              v+w+x+y+z+A+B+C+D+    E+F+G+H+6 6 6 6 6 I+J+> >     K+,.[+                                        ",
"                          v+L+M+N+O+P+Q+R+S+T+      > U+V+<+W+d+d+r+X+Y+> > >       D+                                          ",
"                      v+L+6+Z+`+ @.@+@@@#@$@          > ;+2 %@&@&@*@t+      >                                                   ",
"                  =@-@;@>@,@'@)@!@)+~@{@]@^@              > >                                                                   ",
"                /@(@_@:@<@[@}@|@      1@                  > >                                                                   ",
"                2@3@4@5@6@|@                              > >                                                                   ",
"              7@8@9@0@a@                                  > >                                                                   ",
"                                                                                                                                ",
"                                                                                                                                ",
"                                                                                                                                ",
"                                                                                                                                ",
"                                                                                                                                ",
"                                                                                                                                ",
"                                                                                                                                ",
"                                                                                                                                ",
"                                                                                                                                ",
"                                                                                                                                ",
"                                                                                                                                ",
"                                                                                                                                ",
"                                                                                                                                ",
"                                                                                                                                ",
"                                                                                                                                ",
"                                                                                                                                ",
"                                                                                                                                ",
"                                                                                                                                ",
"                                                                                                                                ",
"                                                                                                                                ",
"                                                                                                                                "};
