/* XPM */
static char * ua6_xpm[] = {
"64 64 317 2",
"  	c None",
". 	c #182433",
"+ 	c #1D303B",
"@ 	c #161D2E",
"# 	c #39706F",
"$ 	c #50A09A",
"% 	c #59B0A9",
"& 	c #458986",
"* 	c #4F9E99",
"= 	c #171D30",
"- 	c #2F5762",
"; 	c #48969E",
"> 	c #4FA1A4",
", 	c #5AB3AC",
"' 	c #468B88",
") 	c #3F7E7C",
"! 	c #59B2AB",
"~ 	c #397170",
"{ 	c #29334E",
"] 	c #3C6F86",
"^ 	c #38798A",
"/ 	c #3E8597",
"( 	c #54AAA8",
"_ 	c #3F8188",
": 	c #4FA09E",
"< 	c #182334",
"[ 	c #252F48",
"} 	c #3E7B90",
"| 	c #2A5766",
"1 	c #4C9CA1",
"2 	c #52A6A6",
"3 	c #52A5A5",
"4 	c #26494E",
"5 	c #171F30",
"6 	c #377686",
"7 	c #295665",
"8 	c #3E8698",
"9 	c #4C9DA2",
"0 	c #53A7A6",
"a 	c #57AEAA",
"b 	c #316061",
"c 	c #316676",
"d 	c #2F3F5B",
"e 	c #3A7E8F",
"f 	c #49979F",
"g 	c #469197",
"h 	c #182434",
"i 	c #1F3848",
"j 	c #39476A",
"k 	c #253E51",
"l 	c #347080",
"m 	c #3E8697",
"n 	c #3E8596",
"o 	c #326A79",
"p 	c #1E3847",
"q 	c #232632",
"r 	c #313951",
"s 	c #3C496D",
"t 	c #253049",
"u 	c #1A2636",
"v 	c #2B313A",
"w 	c #161C2E",
"x 	c #A69D7B",
"y 	c #C7BD93",
"z 	c #656462",
"A 	c #827F76",
"B 	c #ABA388",
"C 	c #D4C9A4",
"D 	c #5C584B",
"E 	c #A08A6C",
"F 	c #D7B98B",
"G 	c #D6B889",
"H 	c #1C1F2F",
"I 	c #735E55",
"J 	c #7A726F",
"K 	c #C8C7C5",
"L 	c #E2E0DA",
"M 	c #F9F4E6",
"N 	c #F5EFE6",
"O 	c #B19A7B",
"P 	c #866D60",
"Q 	c #3A3339",
"R 	c #C4AF93",
"S 	c #D4CBAE",
"T 	c #F1F1F0",
"U 	c #FBF9F3",
"V 	c #AEA9A4",
"W 	c #4F4343",
"X 	c #997D6B",
"Y 	c #CDAE80",
"Z 	c #E2CD9A",
"` 	c #EDDFAB",
" .	c #EFE2AE",
"..	c #E9D8A4",
"+.	c #D4B483",
"@.	c #A1856E",
"#.	c #6B5851",
"$.	c #666452",
"%.	c #B9B48A",
"&.	c #F4F0DA",
"*.	c #F0E6D6",
"=.	c #E7D8BD",
"-.	c #C6C094",
";.	c #171C2E",
">.	c #806B5B",
",.	c #BC9E79",
"'.	c #D6B785",
").	c #F0E4B7",
"!.	c #FAF5E7",
"~.	c #FAF6E7",
"{.	c #F2E7C1",
"].	c #D9BB89",
"^.	c #C3A57C",
"/.	c #8E7466",
"(.	c #242B36",
"_.	c #438683",
":.	c #656452",
"<.	c #B4AF85",
"[.	c #E8E1A8",
"}.	c #E0CD97",
"|.	c #D8BC89",
"1.	c #C9AB7C",
"2.	c #BBAC81",
"3.	c #696754",
"4.	c #232431",
"5.	c #9D816C",
"6.	c #BEA07A",
"7.	c #D8BA88",
"8.	c #F8F2DE",
"9.	c #FBF8EE",
"0.	c #E4CF9B",
"a.	c #987C6B",
"b.	c #5D4D4A",
"c.	c #336871",
"d.	c #564C43",
"e.	c #A9956F",
"f.	c #C0BA8D",
"g.	c #605648",
"h.	c #87755A",
"i.	c #D2B382",
"j.	c #A68D69",
"k.	c #594D42",
"l.	c #4E4142",
"m.	c #917667",
"n.	c #C8A97E",
"o.	c #E4CF9C",
"p.	c #EDDFC2",
"q.	c #F6EFDC",
"r.	c #FCF9F0",
"s.	c #F3E8C1",
"t.	c #E7D49F",
"u.	c #CAAB7E",
"v.	c #B69876",
"w.	c #6A5751",
"x.	c #6D5F4D",
"y.	c #BA9E74",
"z.	c #766550",
"A.	c #A48C68",
"B.	c #816F56",
"C.	c #50463F",
"D.	c #5B4F43",
"E.	c #5D4D49",
"F.	c #997D6C",
"G.	c #D4B482",
"H.	c #E7D4A0",
"I.	c #F6EFD5",
"J.	c #FAF5E6",
"K.	c #D5B583",
"L.	c #AF9274",
"M.	c #735F56",
"N.	c #202230",
"O.	c #322F34",
"P.	c #AE946D",
"Q.	c #86745B",
"R.	c #2C5C6B",
"S.	c #5B4C49",
"T.	c #CFAF80",
"U.	c #E7D39F",
"V.	c #F3E8C2",
"W.	c #F4EBCB",
"X.	c #EFE1AC",
"Y.	c #ECDCA6",
"Z.	c #E1C996",
"`.	c #CCAE7F",
" +	c #907764",
".+	c #5A4B46",
"++	c #8A755B",
"@+	c #A78C6E",
"#+	c #857E72",
"$+	c #3B7E90",
"%+	c #3D8496",
"&+	c #192838",
"*+	c #262532",
"=+	c #A0846C",
"-+	c #CEAE80",
";+	c #DEC592",
">+	c #FDFCF8",
",+	c #F4EBD3",
"'+	c #E2CB98",
")+	c #CBB98B",
"!+	c #807B61",
"~+	c #C1B88A",
"{+	c #B5A47A",
"]+	c #8B775B",
"^+	c #BCA076",
"/+	c #7A9393",
"(+	c #3F8798",
"_+	c #3C343A",
":+	c #95796A",
"<+	c #C4AC84",
"[+	c #EAD8A5",
"}+	c #F7F1DE",
"|+	c #F6EFD6",
"1+	c #EFE1AB",
"2+	c #C4B68B",
"3+	c #847258",
"4+	c #8D8062",
"5+	c #DDC692",
"6+	c #93AD9D",
"7+	c #5F4E4A",
"8+	c #977B6B",
"9+	c #CCAD7F",
"0+	c #D6B684",
"a+	c #EAD8A3",
"b+	c #EBDBA6",
"c+	c #DCC28F",
"d+	c #9B8367",
"e+	c #837157",
"f+	c #8D7E61",
"g+	c #E4D7A0",
"h+	c #78B2A8",
"i+	c #418596",
"j+	c #1A2838",
"k+	c #171E30",
"l+	c #1E263B",
"m+	c #5E4E4A",
"n+	c #927767",
"o+	c #D1B281",
"p+	c #DBC290",
"q+	c #D4B684",
"r+	c #D3BD90",
"s+	c #756056",
"t+	c #837056",
"u+	c #9D8467",
"v+	c #DFCB96",
"w+	c #DBC693",
"x+	c #53959D",
"y+	c #7B9494",
"z+	c #BBA987",
"A+	c #343035",
"B+	c #242C45",
"C+	c #364264",
"D+	c #2E3957",
"E+	c #262A3F",
"F+	c #2E2D36",
"G+	c #2B2B37",
"H+	c #272E46",
"I+	c #B09374",
"J+	c #D4B583",
"K+	c #BFAC89",
"L+	c #CAD4AA",
"M+	c #D2B281",
"N+	c #181F32",
"O+	c #3C4A6F",
"P+	c #404F76",
"Q+	c #3F5779",
"R+	c #3F6481",
"S+	c #3F5075",
"T+	c #3F4F75",
"U+	c #3F5E7D",
"V+	c #355D73",
"W+	c #978064",
"X+	c #7E9D98",
"Y+	c #5DA8A5",
"Z+	c #E5DAA3",
"`+	c #B2976F",
" @	c #181D2E",
".@	c #1F273E",
"+@	c #3F5679",
"@@	c #3F6B86",
"#@	c #3F778D",
"$@	c #347081",
"%@	c #766452",
"&@	c #61534F",
"*@	c #46929D",
"=@	c #6B9D9D",
"-@	c #D4B584",
";@	c #D3B482",
">@	c #73624E",
",@	c #232C44",
"'@	c #394669",
")@	c #405D7D",
"!@	c #3B798C",
"~@	c #3F3B47",
"{@	c #725F57",
"]@	c #3C7E8F",
"^@	c #9A9D8F",
"/@	c #877358",
"(@	c #20283F",
"_@	c #3F4D73",
":@	c #405F7F",
"<@	c #3E7B91",
"[@	c #3E8094",
"}@	c #3F778E",
"|@	c #3F5678",
"1@	c #29334F",
"2@	c #3F474F",
"3@	c #B3A68A",
"4@	c #1F273D",
"5@	c #29344F",
"6@	c #293650",
"7@	c #2A344F",
"8@	c #252E47",
"9@	c #514443",
"0@	c #4F5055",
"a@	c #585F5F",
"b@	c #1B1F2F",
"                                                                                                                                ",
"                                                                                                                                ",
"                                                                                                                                ",
"                                                                                                                                ",
"                                                                                                                                ",
"                                                                                                                                ",
"                                                                                                                                ",
"                                                                                                                                ",
"                                                                                                                                ",
"                                                                                                                                ",
"                                                                                                                                ",
"                                                                                                                                ",
"                                                                                                                                ",
"                                                                . + + .                                                         ",
"                                                            @ # $ % & * # @                                                     ",
"                                                          = - ; > , ' ) ! ~                                                     ",
"                                                          { ] ^ / ( ! _ ! : <                                                   ",
"                                                          [ } | / 1 , > 2 3 4                                                   ",
"                                                          5 6 7 8 9 , 0 a ! b                                                   ",
"                                                            c d e f ! ! ! g h                                                   ",
"                                                            i j k l m n o p                                                     ",
"                                                            q r s t u v w                                                       ",
"                                                          w x y z A B C D                       E F G                           ",
"                                                        H I J K L M N O P Q                 R S T U V                           ",
"                                                        W X Y Z `  ...+.@.#.w           $.%.&.*.=.-.                            ",
"                                                      ;.>.,.'.).!.~.{.].^./.(._.    :.<.[.}.|.1.2.3.                            ",
"                                                      4.5.6.7...8.9. .0.Y a.b.c.d.e.f.g.h.i.j.k.                                ",
"                                                      l.m.n.o.p.q.r.s.t.u.v.w.x.y.z.A.B.C.D.                                    ",
"                                                      E.F.G.H.I.~.J. .t.K.L.M.N.O.P.Q.R.<                                       ",
"                                                      S.X T.U.V.W.X.Y.Z.`. +.+++@+#+$+%+&+                                      ",
"                                                      *+=+-+;+I.>+,+'+)+!+~+{+]+^+/+(+%+&+                                      ",
"                                                      _+:+F.<+[+}+|+1+2+3+4+A.i.5+6+; %+&+                                      ",
"                                                      ;.7+8+9+0+a+b+c+d+e+f+i.|.g+h+(+i+j+                                      ",
"                                                      k+l+m+n+o+p+q+r+s+t+u+G.v+w+x+y+z+A+                                      ",
"                                                    w B+C+D+E+F+F+F+G+H+t+I+G.J+K+L+v+M+A+                                      ",
"                                                    w N+O+P+Q+R+S+T+U+V+t+W+z+X+Y+Z+|.`+ @                                      ",
"                                                    w .@+@@@#@8 / / 8 $@%@&@i+*@=@-@;@>@                                        ",
"                                                      ,@'@)@#@8 8 8 8 !@~@{@]@8 ^@;@/@                                          ",
"                                                      w (@_@:@<@[@}@@@|@1@_+2@$+3@/@                                            ",
"                                                        w 4@1@5@6@7@8@N+w   9@0@a@                                              ",
"                                                          w w w       w w     b@                                                ",
"                                                          w w w       w w                                                       ",
"                                                          w w         w w                                                       ",
"                                                                                                                                ",
"                                                                                                                                ",
"                                                                                                                                ",
"                                                                                                                                ",
"                                                                                                                                ",
"                                                                                                                                ",
"                                                                                                                                ",
"                                                                                                                                ",
"                                                                                                                                ",
"                                                                                                                                ",
"                                                                                                                                ",
"                                                                                                                                ",
"                                                                                                                                ",
"                                                                                                                                ",
"                                                                                                                                ",
"                                                                                                                                ",
"                                                                                                                                ",
"                                                                                                                                ",
"                                                                                                                                ",
"                                                                                                                                ",
"                                                                                                                                "};
